M48
; DRILL file {KiCad (5.99.0-12348-g4b436fb86d)} date Thu Sep 23 14:41:58 2021
; FORMAT={-:-/ absolute / metric / decimal}
; #@! TF.CreationDate,2021-09-23T14:41:58+01:00
; #@! TF.GenerationSoftware,Kicad,Pcbnew,(5.99.0-12348-g4b436fb86d)
; #@! TF.FileFunction,Plated,1,4,PTH
FMAT,2
METRIC
; #@! TA.AperFunction,Plated,PTH,ViaDrill
T1C0.400
; #@! TA.AperFunction,Plated,PTH,ComponentDrill
T2C0.500
; #@! TA.AperFunction,Plated,PTH,ComponentDrill
T3C0.550
; #@! TA.AperFunction,Plated,PTH,ViaDrill
T4C0.600
; #@! TA.AperFunction,Plated,PTH,ComponentDrill
T5C1.000
; #@! TA.AperFunction,Plated,PTH,ComponentDrill
T6C1.300
%
G90
G05
T1
X105.2Y-64.7
X107.9Y-64.7
X107.9Y-92.95
X107.9Y-96.35
X109.7Y-111.5
X110.7Y-64.7
X111.2Y-57.3
X111.4Y-83.6
X111.4Y-87.0
X111.8Y-75.8
X111.8Y-78.4
X111.8Y-110.6
X112.0Y-66.4
X112.1Y-77.1
X112.105Y-92.795
X112.8Y-58.6
X113.4Y-64.7
X113.7Y-102.2
X114.7Y-61.1
X115.9Y-64.7
X116.0Y-97.4
X116.1Y-122.5
X116.3Y-124.2
X117.3Y-66.45
X117.9Y-102.3
X118.5Y-89.2
X120.0Y-99.5
X120.0Y-110.6
X120.4Y-77.95
X120.5Y-75.8
X120.7Y-85.9
X120.9Y-122.5
X121.1Y-124.2
X122.2Y-111.6
X124.2Y-92.9
X125.0Y-90.4
X125.1Y-93.8
X125.1Y-97.4
X125.8Y-122.5
X126.0Y-124.2
X126.4Y-95.5
X129.2Y-104.8
X129.2Y-106.4
X130.7Y-122.5
X130.9Y-124.2
X132.5Y-94.8
X132.8Y-87.7
X132.806Y-92.894
X133.1Y-79.1
X133.2Y-75.8
X134.1Y-87.7
X134.1Y-104.2
X134.2Y-107.0
X135.0Y-112.0
X135.5Y-93.8
X135.5Y-110.2
X135.6Y-90.2
X135.6Y-97.7
X135.619Y-91.281
X135.7Y-122.5
X135.8Y-124.2
X136.8Y-91.8
X137.6Y-104.8
X137.6Y-106.8
X137.7Y-77.1
X137.8Y-101.1
X138.6Y-99.7
X139.0Y-100.7
X139.4Y-94.5
X140.075Y-95.413
X140.9Y-94.5
X141.3Y-106.4
X141.5Y-89.2
X142.059Y-100.847
X142.7Y-77.1
X142.713Y-100.091
X144.4Y-107.6
X145.4Y-96.3
X145.4Y-106.2
X145.4Y-114.9
X145.7Y-100.3
X146.5Y-108.7
X147.5Y-89.2
X148.6Y-112.2
X148.6Y-114.0
X148.9Y-90.8
X149.7Y-98.9
X150.0Y-76.7
X150.2Y-73.3
X150.9Y-59.8
X151.0Y-124.5
X153.0Y-98.8
X153.1Y-102.2
X154.2Y-59.8
X156.7Y-84.3
X156.7Y-92.7
T4
X104.5Y-52.2
X104.5Y-54.1
X104.5Y-56.0
X104.5Y-57.9
X104.5Y-59.8
X104.5Y-61.7
X106.5Y-52.2
X106.5Y-57.9
X106.6Y-66.5
X108.7Y-52.2
X108.7Y-54.1
X108.7Y-56.0
X108.7Y-57.9
X108.7Y-59.8
X108.7Y-61.7
X128.9Y-102.1
X128.9Y-103.4
X128.9Y-107.85
X128.9Y-109.1
X130.25Y-101.05
X130.25Y-110.15
X142.0Y-102.2
X145.9Y-77.15
X146.5Y-110.1
T5
X102.0Y-52.1
X102.0Y-54.64
X102.0Y-57.18
X102.0Y-59.72
X102.0Y-62.26
X102.0Y-64.8
X102.0Y-67.34
X102.0Y-69.88
X102.0Y-72.42
X102.0Y-74.96
X102.0Y-77.5
X102.0Y-80.04
X102.0Y-101.1
X102.0Y-103.64
X102.0Y-106.18
X102.0Y-108.72
X102.0Y-111.26
X102.0Y-113.8
X102.0Y-116.34
X102.0Y-118.88
X102.0Y-121.42
X102.0Y-123.96
X102.0Y-126.5
X102.0Y-129.04
X125.4Y-55.56
X125.4Y-58.1
X127.94Y-55.56
X127.94Y-58.1
X130.48Y-55.56
X130.48Y-58.1
X133.02Y-55.56
X133.02Y-58.1
X135.56Y-55.56
X135.56Y-58.1
X138.1Y-55.56
X138.1Y-58.1
X140.64Y-55.56
X140.64Y-58.1
X143.18Y-55.56
X143.18Y-58.1
X147.225Y-67.5
X149.765Y-67.5
X152.5Y-111.09
X152.5Y-113.63
X152.5Y-116.17
X152.5Y-118.71
X155.435Y-95.7
X157.975Y-95.7
X158.5Y-52.1
X158.5Y-54.64
X158.5Y-57.18
X158.5Y-59.72
X158.5Y-62.26
X158.5Y-64.8
X158.5Y-67.34
X158.5Y-69.88
X158.5Y-72.42
X158.5Y-74.96
X158.5Y-77.5
X158.5Y-80.04
X158.5Y-101.1
X158.5Y-103.64
X158.5Y-106.18
X158.5Y-108.72
X158.5Y-111.26
X158.5Y-113.8
X158.5Y-116.34
X158.5Y-118.88
X158.5Y-121.42
X158.5Y-123.96
X158.5Y-126.5
X158.5Y-129.04
T6
X125.4Y-67.0
X129.8Y-67.0
X134.2Y-67.0
X138.6Y-67.0
X140.4Y-127.1
T2
G00X145.7Y-129.175
M15
G01X145.7Y-128.525
M16
G05
G00X152.7Y-129.175
M15
G01X152.7Y-128.525
M16
G05
T3
G00X146.55Y-126.15
M15
G01X146.85Y-126.15
M16
G05
G00X151.55Y-126.15
M15
G01X151.85Y-126.15
M16
G05
T0
M30
