%TF.GenerationSoftware,KiCad,Pcbnew,(5.99.0-12348-g4b436fb86d)*%
%TF.CreationDate,2021-09-23T14:41:55+01:00*%
%TF.ProjectId,Ampelope_Components,416d7065-6c6f-4706-955f-436f6d706f6e,rev?*%
%TF.SameCoordinates,Original*%
%TF.FileFunction,Paste,Top*%
%TF.FilePolarity,Positive*%
%FSLAX46Y46*%
G04 Gerber Fmt 4.6, Leading zero omitted, Abs format (unit mm)*
G04 Created by KiCad (PCBNEW (5.99.0-12348-g4b436fb86d)) date 2021-09-23 14:41:55*
%MOMM*%
%LPD*%
G01*
G04 APERTURE LIST*
G04 Aperture macros list*
%AMRoundRect*
0 Rectangle with rounded corners*
0 $1 Rounding radius*
0 $2 $3 $4 $5 $6 $7 $8 $9 X,Y pos of 4 corners*
0 Add a 4 corners polygon primitive as box body*
4,1,4,$2,$3,$4,$5,$6,$7,$8,$9,$2,$3,0*
0 Add four circle primitives for the rounded corners*
1,1,$1+$1,$2,$3*
1,1,$1+$1,$4,$5*
1,1,$1+$1,$6,$7*
1,1,$1+$1,$8,$9*
0 Add four rect primitives between the rounded corners*
20,1,$1+$1,$2,$3,$4,$5,0*
20,1,$1+$1,$4,$5,$6,$7,0*
20,1,$1+$1,$6,$7,$8,$9,0*
20,1,$1+$1,$8,$9,$2,$3,0*%
G04 Aperture macros list end*
%ADD10RoundRect,0.150000X0.587500X0.150000X-0.587500X0.150000X-0.587500X-0.150000X0.587500X-0.150000X0*%
%ADD11RoundRect,0.250000X0.550000X-1.050000X0.550000X1.050000X-0.550000X1.050000X-0.550000X-1.050000X0*%
%ADD12RoundRect,0.237500X-0.300000X-0.237500X0.300000X-0.237500X0.300000X0.237500X-0.300000X0.237500X0*%
%ADD13RoundRect,0.237500X-0.250000X-0.237500X0.250000X-0.237500X0.250000X0.237500X-0.250000X0.237500X0*%
%ADD14RoundRect,0.237500X0.250000X0.237500X-0.250000X0.237500X-0.250000X-0.237500X0.250000X-0.237500X0*%
%ADD15RoundRect,0.237500X-0.237500X0.300000X-0.237500X-0.300000X0.237500X-0.300000X0.237500X0.300000X0*%
%ADD16RoundRect,0.250000X-0.275000X-0.350000X0.275000X-0.350000X0.275000X0.350000X-0.275000X0.350000X0*%
%ADD17RoundRect,0.150000X-0.825000X-0.150000X0.825000X-0.150000X0.825000X0.150000X-0.825000X0.150000X0*%
%ADD18R,0.400000X1.350000*%
%ADD19RoundRect,0.250000X-0.550000X1.050000X-0.550000X-1.050000X0.550000X-1.050000X0.550000X1.050000X0*%
%ADD20RoundRect,0.237500X0.300000X0.237500X-0.300000X0.237500X-0.300000X-0.237500X0.300000X-0.237500X0*%
%ADD21RoundRect,0.075000X-0.075000X0.700000X-0.075000X-0.700000X0.075000X-0.700000X0.075000X0.700000X0*%
%ADD22RoundRect,0.075000X-0.700000X0.075000X-0.700000X-0.075000X0.700000X-0.075000X0.700000X0.075000X0*%
%ADD23R,2.325000X2.500000*%
%ADD24R,2.375000X2.500000*%
%ADD25R,1.200000X0.900000*%
%ADD26R,2.000000X1.500000*%
%ADD27R,2.000000X3.800000*%
%ADD28R,1.000000X2.200000*%
%ADD29RoundRect,0.237500X0.237500X-0.300000X0.237500X0.300000X-0.237500X0.300000X-0.237500X-0.300000X0*%
%ADD30R,0.900000X1.200000*%
G04 APERTURE END LIST*
D10*
%TO.C,Q5*%
X134650000Y-126150000D03*
X134650000Y-124250000D03*
X132775000Y-125200000D03*
%TD*%
%TO.C,Q4*%
X129750000Y-126150000D03*
X129750000Y-124250000D03*
X127875000Y-125200000D03*
%TD*%
%TO.C,Q3*%
X124850000Y-126150000D03*
X124850000Y-124250000D03*
X122975000Y-125200000D03*
%TD*%
%TO.C,Q2*%
X119950000Y-126150000D03*
X119950000Y-124250000D03*
X118075000Y-125200000D03*
%TD*%
%TO.C,Q1*%
X115050000Y-126150000D03*
X115050000Y-124250000D03*
X113175000Y-125200000D03*
%TD*%
D11*
%TO.C,C4*%
X152500000Y-59800000D03*
X152500000Y-56200000D03*
%TD*%
D12*
%TO.C,C18*%
X108437500Y-87000000D03*
X110162500Y-87000000D03*
%TD*%
D13*
%TO.C,R60*%
X147187500Y-70700000D03*
X149012500Y-70700000D03*
%TD*%
D14*
%TO.C,R6*%
X123612500Y-74600000D03*
X121787500Y-74600000D03*
%TD*%
D13*
%TO.C,R59*%
X147087500Y-81700000D03*
X148912500Y-81700000D03*
%TD*%
D15*
%TO.C,C21*%
X120000000Y-100737500D03*
X120000000Y-102462500D03*
%TD*%
D13*
%TO.C,R51*%
X147087500Y-83400000D03*
X148912500Y-83400000D03*
%TD*%
%TO.C,R4*%
X108387500Y-79700000D03*
X110212500Y-79700000D03*
%TD*%
%TO.C,R46*%
X147087500Y-74100000D03*
X148912500Y-74100000D03*
%TD*%
D15*
%TO.C,C24*%
X147550000Y-90837500D03*
X147550000Y-92562500D03*
%TD*%
D13*
%TO.C,R12*%
X123000000Y-127900000D03*
X124825000Y-127900000D03*
%TD*%
D16*
%TO.C,L1*%
X129950000Y-105600000D03*
X132250000Y-105600000D03*
%TD*%
D14*
%TO.C,R19*%
X110212500Y-108200000D03*
X108387500Y-108200000D03*
%TD*%
D12*
%TO.C,C20*%
X108437500Y-83600000D03*
X110162500Y-83600000D03*
%TD*%
%TO.C,C28*%
X108437500Y-93800000D03*
X110162500Y-93800000D03*
%TD*%
D13*
%TO.C,R21*%
X121787500Y-113200000D03*
X123612500Y-113200000D03*
%TD*%
%TO.C,R3*%
X108387500Y-81400000D03*
X110212500Y-81400000D03*
%TD*%
D17*
%TO.C,U6*%
X139125000Y-73290000D03*
X139125000Y-74560000D03*
X139125000Y-75830000D03*
X139125000Y-77100000D03*
X139125000Y-78370000D03*
X139125000Y-79640000D03*
X139125000Y-80910000D03*
X144075000Y-80910000D03*
X144075000Y-79640000D03*
X144075000Y-78370000D03*
X144075000Y-77100000D03*
X144075000Y-75830000D03*
X144075000Y-74560000D03*
X144075000Y-73290000D03*
%TD*%
D18*
%TO.C,J8*%
X147900000Y-126150000D03*
X148550000Y-126150000D03*
X149200000Y-126150000D03*
X149850000Y-126150000D03*
X150500000Y-126150000D03*
%TD*%
D19*
%TO.C,C3*%
X117300000Y-61100000D03*
X117300000Y-64700000D03*
%TD*%
D13*
%TO.C,R29*%
X108387500Y-88700000D03*
X110212500Y-88700000D03*
%TD*%
D17*
%TO.C,U2*%
X113525000Y-90255000D03*
X113525000Y-91525000D03*
X113525000Y-92795000D03*
X113525000Y-94065000D03*
X113525000Y-95335000D03*
X113525000Y-96605000D03*
X113525000Y-97875000D03*
X113525000Y-99145000D03*
X118475000Y-99145000D03*
X118475000Y-97875000D03*
X118475000Y-96605000D03*
X118475000Y-95335000D03*
X118475000Y-94065000D03*
X118475000Y-92795000D03*
X118475000Y-91525000D03*
X118475000Y-90255000D03*
%TD*%
D14*
%TO.C,R43*%
X136112500Y-74100000D03*
X134287500Y-74100000D03*
%TD*%
D13*
%TO.C,R32*%
X121787500Y-90400000D03*
X123612500Y-90400000D03*
%TD*%
%TO.C,R26*%
X121787500Y-106500000D03*
X123612500Y-106500000D03*
%TD*%
%TO.C,R45*%
X147087500Y-80000000D03*
X148912500Y-80000000D03*
%TD*%
D14*
%TO.C,R34*%
X110212500Y-90400000D03*
X108387500Y-90400000D03*
%TD*%
%TO.C,R20*%
X110212500Y-113200000D03*
X108387500Y-113200000D03*
%TD*%
D19*
%TO.C,C2*%
X112000000Y-61100000D03*
X112000000Y-64700000D03*
%TD*%
D13*
%TO.C,R1*%
X108387500Y-72900000D03*
X110212500Y-72900000D03*
%TD*%
D14*
%TO.C,R39*%
X132012500Y-92100000D03*
X130187500Y-92100000D03*
%TD*%
D13*
%TO.C,R52*%
X147087500Y-72400000D03*
X148912500Y-72400000D03*
%TD*%
D15*
%TO.C,C23*%
X136400000Y-95237500D03*
X136400000Y-96962500D03*
%TD*%
D14*
%TO.C,R24*%
X110212500Y-114900000D03*
X108387500Y-114900000D03*
%TD*%
D20*
%TO.C,C11*%
X147062500Y-112200000D03*
X145337500Y-112200000D03*
%TD*%
D14*
%TO.C,R44*%
X136112500Y-80000000D03*
X134287500Y-80000000D03*
%TD*%
%TO.C,R41*%
X132012500Y-88700000D03*
X130187500Y-88700000D03*
%TD*%
%TO.C,R36*%
X136112500Y-75800000D03*
X134287500Y-75800000D03*
%TD*%
D13*
%TO.C,R31*%
X108387500Y-85300000D03*
X110212500Y-85300000D03*
%TD*%
%TO.C,R14*%
X108387500Y-100600000D03*
X110212500Y-100600000D03*
%TD*%
%TO.C,R48*%
X132800000Y-127900000D03*
X134625000Y-127900000D03*
%TD*%
%TO.C,R16*%
X118100000Y-122500000D03*
X119925000Y-122500000D03*
%TD*%
D14*
%TO.C,R55*%
X110212500Y-97200000D03*
X108387500Y-97200000D03*
%TD*%
D19*
%TO.C,C1*%
X106600000Y-61100000D03*
X106600000Y-64700000D03*
%TD*%
D14*
%TO.C,R35*%
X132012500Y-93800000D03*
X130187500Y-93800000D03*
%TD*%
D21*
%TO.C,U1*%
X145350000Y-97925000D03*
X144850000Y-97925000D03*
X144350000Y-97925000D03*
X143850000Y-97925000D03*
X143350000Y-97925000D03*
X142850000Y-97925000D03*
X142350000Y-97925000D03*
X141850000Y-97925000D03*
X141350000Y-97925000D03*
X140850000Y-97925000D03*
X140350000Y-97925000D03*
X139850000Y-97925000D03*
X139350000Y-97925000D03*
X138850000Y-97925000D03*
X138350000Y-97925000D03*
X137850000Y-97925000D03*
D22*
X135925000Y-99850000D03*
X135925000Y-100350000D03*
X135925000Y-100850000D03*
X135925000Y-101350000D03*
X135925000Y-101850000D03*
X135925000Y-102350000D03*
X135925000Y-102850000D03*
X135925000Y-103350000D03*
X135925000Y-103850000D03*
X135925000Y-104350000D03*
X135925000Y-104850000D03*
X135925000Y-105350000D03*
X135925000Y-105850000D03*
X135925000Y-106350000D03*
X135925000Y-106850000D03*
X135925000Y-107350000D03*
D21*
X137850000Y-109275000D03*
X138350000Y-109275000D03*
X138850000Y-109275000D03*
X139350000Y-109275000D03*
X139850000Y-109275000D03*
X140350000Y-109275000D03*
X140850000Y-109275000D03*
X141350000Y-109275000D03*
X141850000Y-109275000D03*
X142350000Y-109275000D03*
X142850000Y-109275000D03*
X143350000Y-109275000D03*
X143850000Y-109275000D03*
X144350000Y-109275000D03*
X144850000Y-109275000D03*
X145350000Y-109275000D03*
D22*
X147275000Y-107350000D03*
X147275000Y-106850000D03*
X147275000Y-106350000D03*
X147275000Y-105850000D03*
X147275000Y-105350000D03*
X147275000Y-104850000D03*
X147275000Y-104350000D03*
X147275000Y-103850000D03*
X147275000Y-103350000D03*
X147275000Y-102850000D03*
X147275000Y-102350000D03*
X147275000Y-101850000D03*
X147275000Y-101350000D03*
X147275000Y-100850000D03*
X147275000Y-100350000D03*
X147275000Y-99850000D03*
%TD*%
D23*
%TO.C,Y1*%
X140900000Y-91700000D03*
D24*
X145300000Y-91700000D03*
%TD*%
D14*
%TO.C,R28*%
X123612500Y-100600000D03*
X121787500Y-100600000D03*
%TD*%
D17*
%TO.C,U5*%
X113525000Y-73290000D03*
X113525000Y-74560000D03*
X113525000Y-75830000D03*
X113525000Y-77100000D03*
X113525000Y-78370000D03*
X113525000Y-79640000D03*
X113525000Y-80910000D03*
X118475000Y-80910000D03*
X118475000Y-79640000D03*
X118475000Y-78370000D03*
X118475000Y-77100000D03*
X118475000Y-75830000D03*
X118475000Y-74560000D03*
X118475000Y-73290000D03*
%TD*%
D13*
%TO.C,R22*%
X121787500Y-108200000D03*
X123612500Y-108200000D03*
%TD*%
D14*
%TO.C,R8*%
X123612500Y-79700000D03*
X121787500Y-79700000D03*
%TD*%
D13*
%TO.C,R11*%
X118100000Y-127900000D03*
X119925000Y-127900000D03*
%TD*%
D12*
%TO.C,C12*%
X130237500Y-102100000D03*
X131962500Y-102100000D03*
%TD*%
D14*
%TO.C,R23*%
X110212500Y-106500000D03*
X108387500Y-106500000D03*
%TD*%
%TO.C,R18*%
X129725000Y-122500000D03*
X127900000Y-122500000D03*
%TD*%
D13*
%TO.C,R49*%
X132800000Y-122500000D03*
X134625000Y-122500000D03*
%TD*%
D14*
%TO.C,R37*%
X132000000Y-90400000D03*
X130175000Y-90400000D03*
%TD*%
D13*
%TO.C,R56*%
X121787500Y-92100000D03*
X123612500Y-92100000D03*
%TD*%
D25*
%TO.C,D1*%
X117450000Y-55800000D03*
X117450000Y-52500000D03*
%TD*%
D14*
%TO.C,R54*%
X110212500Y-92100000D03*
X108387500Y-92100000D03*
%TD*%
D13*
%TO.C,R10*%
X113200000Y-127900000D03*
X115025000Y-127900000D03*
%TD*%
D14*
%TO.C,R47*%
X136112500Y-70700000D03*
X134287500Y-70700000D03*
%TD*%
D13*
%TO.C,R40*%
X147087500Y-78300000D03*
X148912500Y-78300000D03*
%TD*%
D14*
%TO.C,R38*%
X136112500Y-78300000D03*
X134287500Y-78300000D03*
%TD*%
D20*
%TO.C,C10*%
X147062500Y-114000000D03*
X145337500Y-114000000D03*
%TD*%
%TO.C,C27*%
X123562500Y-95500000D03*
X121837500Y-95500000D03*
%TD*%
D14*
%TO.C,R5*%
X123612500Y-72900000D03*
X121787500Y-72900000D03*
%TD*%
%TO.C,R30*%
X110212500Y-98900000D03*
X108387500Y-98900000D03*
%TD*%
D20*
%TO.C,C30*%
X123562500Y-93800000D03*
X121837500Y-93800000D03*
%TD*%
D15*
%TO.C,C25*%
X138700000Y-90837500D03*
X138700000Y-92562500D03*
%TD*%
D12*
%TO.C,C15*%
X130237500Y-109100000D03*
X131962500Y-109100000D03*
%TD*%
D14*
%TO.C,R9*%
X152200000Y-101400000D03*
X150375000Y-101400000D03*
%TD*%
D20*
%TO.C,C5*%
X110162500Y-76300000D03*
X108437500Y-76300000D03*
%TD*%
D13*
%TO.C,R2*%
X108387500Y-74600000D03*
X110212500Y-74600000D03*
%TD*%
%TO.C,R58*%
X134287500Y-83400000D03*
X136112500Y-83400000D03*
%TD*%
D14*
%TO.C,R33*%
X123612500Y-88700000D03*
X121787500Y-88700000D03*
%TD*%
D12*
%TO.C,C13*%
X130237500Y-103600000D03*
X131962500Y-103600000D03*
%TD*%
D26*
%TO.C,U3*%
X112800000Y-57350000D03*
D27*
X106500000Y-55050000D03*
D26*
X112800000Y-55050000D03*
X112800000Y-52750000D03*
%TD*%
D13*
%TO.C,R13*%
X127900000Y-127900000D03*
X129725000Y-127900000D03*
%TD*%
D20*
%TO.C,C16*%
X123562500Y-102300000D03*
X121837500Y-102300000D03*
%TD*%
D13*
%TO.C,R25*%
X121787500Y-114900000D03*
X123612500Y-114900000D03*
%TD*%
%TO.C,R27*%
X121787500Y-98900000D03*
X123612500Y-98900000D03*
%TD*%
D12*
%TO.C,C7*%
X121837500Y-78000000D03*
X123562500Y-78000000D03*
%TD*%
D20*
%TO.C,C9*%
X152162500Y-99700000D03*
X150437500Y-99700000D03*
%TD*%
D28*
%TO.C,RESET1*%
X154600000Y-85000000D03*
X154600000Y-91800000D03*
X158600000Y-85000000D03*
X158600000Y-91800000D03*
%TD*%
D20*
%TO.C,C6*%
X110162500Y-78000000D03*
X108437500Y-78000000D03*
%TD*%
D12*
%TO.C,C19*%
X108437500Y-102300000D03*
X110162500Y-102300000D03*
%TD*%
%TO.C,C14*%
X130237500Y-107600000D03*
X131962500Y-107600000D03*
%TD*%
D20*
%TO.C,C17*%
X123562500Y-87000000D03*
X121837500Y-87000000D03*
%TD*%
D13*
%TO.C,R15*%
X113200000Y-122500000D03*
X115025000Y-122500000D03*
%TD*%
%TO.C,R17*%
X123000000Y-122500000D03*
X124825000Y-122500000D03*
%TD*%
D12*
%TO.C,C8*%
X121837500Y-76300000D03*
X123562500Y-76300000D03*
%TD*%
D13*
%TO.C,R57*%
X134287500Y-72400000D03*
X136112500Y-72400000D03*
%TD*%
D17*
%TO.C,U4*%
X113525000Y-106890000D03*
X113525000Y-108160000D03*
X113525000Y-109430000D03*
X113525000Y-110700000D03*
X113525000Y-111970000D03*
X113525000Y-113240000D03*
X113525000Y-114510000D03*
X118475000Y-114510000D03*
X118475000Y-113240000D03*
X118475000Y-111970000D03*
X118475000Y-110700000D03*
X118475000Y-109430000D03*
X118475000Y-108160000D03*
X118475000Y-106890000D03*
%TD*%
D13*
%TO.C,R42*%
X147087500Y-75800000D03*
X148912500Y-75800000D03*
%TD*%
D29*
%TO.C,C26*%
X136400000Y-111962500D03*
X136400000Y-110237500D03*
%TD*%
D13*
%TO.C,R53*%
X121787500Y-97200000D03*
X123612500Y-97200000D03*
%TD*%
D15*
%TO.C,C22*%
X120100000Y-86937500D03*
X120100000Y-88662500D03*
%TD*%
D12*
%TO.C,C29*%
X108437500Y-95500000D03*
X110162500Y-95500000D03*
%TD*%
D30*
%TO.C,D2*%
X150850000Y-52900000D03*
X154150000Y-52900000D03*
%TD*%
D14*
%TO.C,R7*%
X123612500Y-81400000D03*
X121787500Y-81400000D03*
%TD*%
D13*
%TO.C,R50*%
X134287500Y-81700000D03*
X136112500Y-81700000D03*
%TD*%
M02*
