%TF.GenerationSoftware,KiCad,Pcbnew,(5.99.0-12348-g4b436fb86d)*%
%TF.CreationDate,2021-09-23T14:41:55+01:00*%
%TF.ProjectId,Ampelope_Components,416d7065-6c6f-4706-955f-436f6d706f6e,rev?*%
%TF.SameCoordinates,Original*%
%TF.FileFunction,Copper,L4,Bot*%
%TF.FilePolarity,Positive*%
%FSLAX46Y46*%
G04 Gerber Fmt 4.6, Leading zero omitted, Abs format (unit mm)*
G04 Created by KiCad (PCBNEW (5.99.0-12348-g4b436fb86d)) date 2021-09-23 14:41:55*
%MOMM*%
%LPD*%
G01*
G04 APERTURE LIST*
%ADD10C,0.300000*%
%TA.AperFunction,NonConductor*%
%ADD11C,0.300000*%
%TD*%
%TA.AperFunction,ComponentPad*%
%ADD12O,1.250000X0.950000*%
%TD*%
%TA.AperFunction,ComponentPad*%
%ADD13O,1.000000X1.550000*%
%TD*%
%TA.AperFunction,ComponentPad*%
%ADD14R,1.700000X1.700000*%
%TD*%
%TA.AperFunction,ComponentPad*%
%ADD15O,1.700000X1.700000*%
%TD*%
%TA.AperFunction,ComponentPad*%
%ADD16C,1.700000*%
%TD*%
%TA.AperFunction,ComponentPad*%
%ADD17C,2.000000*%
%TD*%
%TA.AperFunction,ViaPad*%
%ADD18C,0.800000*%
%TD*%
%TA.AperFunction,ViaPad*%
%ADD19C,1.000000*%
%TD*%
%TA.AperFunction,Conductor*%
%ADD20C,0.500000*%
%TD*%
%TA.AperFunction,Conductor*%
%ADD21C,0.250000*%
%TD*%
G04 APERTURE END LIST*
D10*
%TO.C,FID1*%
D11*
X101678571Y-87314285D02*
X102678571Y-87314285D01*
X101107142Y-87671428D02*
X102178571Y-88028571D01*
X102178571Y-87100000D01*
%TD*%
D12*
%TO.P,J8,*%
%TO.N,*%
X151700000Y-126150000D03*
D13*
X152700000Y-128850000D03*
D12*
X146700000Y-126150000D03*
D13*
%TO.P,J8,6,Shield*%
%TO.N,unconnected-(J8-Pad6)*%
X145700000Y-128850000D03*
%TD*%
D14*
%TO.P,J9,1,Pin_1*%
%TO.N,/Env2_Out*%
X147225000Y-67500000D03*
D15*
%TO.P,J9,2,Pin_2*%
%TO.N,/Env4_Out*%
X149765000Y-67500000D03*
%TD*%
D14*
%TO.P,J5,1,Pin_1*%
%TO.N,+12V*%
X125400000Y-58100000D03*
D16*
%TO.P,J5,2,Pin_2*%
X125400000Y-55560000D03*
%TO.P,J5,3,Pin_3*%
%TO.N,GND*%
X127940000Y-58100000D03*
%TO.P,J5,4,Pin_4*%
X127940000Y-55560000D03*
%TO.P,J5,5,Pin_5*%
X130480000Y-58100000D03*
%TO.P,J5,6,Pin_6*%
X130480000Y-55560000D03*
%TO.P,J5,7,Pin_7*%
X133020000Y-58100000D03*
%TO.P,J5,8,Pin_8*%
X133020000Y-55560000D03*
%TO.P,J5,9,Pin_9*%
%TO.N,-12V*%
X135560000Y-58100000D03*
%TO.P,J5,10,Pin_10*%
X135560000Y-55560000D03*
%TO.P,J5,11,11*%
%TO.N,unconnected-(J5-Pad11)*%
X138100000Y-58100000D03*
%TO.P,J5,12,Pin_12*%
%TO.N,unconnected-(J5-Pad12)*%
X138100000Y-55560000D03*
%TO.P,J5,13,Pin_13*%
%TO.N,unconnected-(J5-Pad13)*%
X140640000Y-58100000D03*
%TO.P,J5,14,Pin_14*%
%TO.N,unconnected-(J5-Pad14)*%
X140640000Y-55560000D03*
%TO.P,J5,15,Pin_15*%
%TO.N,/Gate_In*%
X143180000Y-58100000D03*
%TO.P,J5,16,Pin_16*%
X143180000Y-55560000D03*
%TD*%
D17*
%TO.P,TP2,1,1*%
%TO.N,+3V3*%
X125400000Y-67000000D03*
%TD*%
%TO.P,TP4,1,1*%
%TO.N,VEE*%
X138600000Y-67000000D03*
%TD*%
%TO.P,TP3,1,1*%
%TO.N,VCC*%
X129800000Y-67000000D03*
%TD*%
D14*
%TO.P,J7,1,Pin_1*%
%TO.N,+3V3*%
X152500000Y-118710000D03*
D16*
%TO.P,J7,2,Pin_2*%
%TO.N,GND*%
X152500000Y-116170000D03*
%TO.P,J7,3,Pin_3*%
%TO.N,/SWIO*%
X152500000Y-113630000D03*
%TO.P,J7,4,Pin_4*%
%TO.N,/SWCLK*%
X152500000Y-111090000D03*
%TD*%
D14*
%TO.P,J6,1,Pin_1*%
%TO.N,/UART3_TX*%
X157975000Y-95700000D03*
D15*
%TO.P,J6,2,Pin_2*%
%TO.N,/UART3_RX*%
X155435000Y-95700000D03*
%TD*%
D17*
%TO.P,TP1,1,1*%
%TO.N,GND*%
X134200000Y-67000000D03*
%TD*%
%TO.P,TP5,1,1*%
%TO.N,GND*%
X140400000Y-127100000D03*
%TD*%
D14*
%TO.P,J4,1,Pin_1*%
%TO.N,/EnvA_Attack*%
X158500000Y-101100000D03*
D15*
%TO.P,J4,2,Pin_2*%
%TO.N,/EnvA_Decay*%
X158500000Y-103640000D03*
%TO.P,J4,3,Pin_3*%
%TO.N,/EnvA_Sustain*%
X158500000Y-106180000D03*
%TO.P,J4,4,Pin_4*%
%TO.N,/EnvA_Release*%
X158500000Y-108720000D03*
%TO.P,J4,5,Pin_5*%
%TO.N,GND*%
X158500000Y-111260000D03*
%TO.P,J4,6,Pin_6*%
%TO.N,/Env1_LFO*%
X158500000Y-113800000D03*
%TO.P,J4,7,Pin_7*%
%TO.N,/Env1_Short*%
X158500000Y-116340000D03*
%TO.P,J4,8,Pin_8*%
%TO.N,/Env2_LFO*%
X158500000Y-118880000D03*
%TO.P,J4,9,Pin_9*%
%TO.N,/Env2_Short*%
X158500000Y-121420000D03*
%TO.P,J4,10,Pin_10*%
%TO.N,/Env3_LFO*%
X158500000Y-123960000D03*
%TO.P,J4,11,Pin_11*%
%TO.N,/Env3_Short*%
X158500000Y-126500000D03*
%TO.P,J4,12,Pin_12*%
%TO.N,/Env4_LFO*%
X158500000Y-129040000D03*
%TD*%
D14*
%TO.P,J2,1,Pin_1*%
%TO.N,GND*%
X102000000Y-101100000D03*
D15*
%TO.P,J2,2,Pin_2*%
%TO.N,/Audio1_In*%
X102000000Y-103640000D03*
%TO.P,J2,3,Pin_3*%
%TO.N,/Audio2_In*%
X102000000Y-106180000D03*
%TO.P,J2,4,Pin_4*%
%TO.N,/Audio3_In*%
X102000000Y-108720000D03*
%TO.P,J2,5,Pin_5*%
%TO.N,/Audio4_In*%
X102000000Y-111260000D03*
%TO.P,J2,6,Pin_6*%
%TO.N,/LFO_Speed*%
X102000000Y-113800000D03*
%TO.P,J2,7,Pin_7*%
%TO.N,/Env4_Short*%
X102000000Y-116340000D03*
%TO.P,J2,8,Pin_8*%
%TO.N,/Gate1_In*%
X102000000Y-118880000D03*
%TO.P,J2,9,Pin_9*%
%TO.N,/Gate2_In*%
X102000000Y-121420000D03*
%TO.P,J2,10,Pin_10*%
%TO.N,/Gate3_In*%
X102000000Y-123960000D03*
%TO.P,J2,11,Pin_11*%
%TO.N,/Gate4_In*%
X102000000Y-126500000D03*
%TO.P,J2,12,Pin_12*%
%TO.N,/Clock_In*%
X102000000Y-129040000D03*
%TD*%
D14*
%TO.P,J1,1,Pin_1*%
%TO.N,/Gate_In*%
X102000000Y-52100000D03*
D15*
%TO.P,J1,2,Pin_2*%
%TO.N,+3V3*%
X102000000Y-54640000D03*
%TO.P,J1,3,Pin_3*%
X102000000Y-57180000D03*
%TO.P,J1,4,Pin_4*%
X102000000Y-59720000D03*
%TO.P,J1,5,Pin_5*%
X102000000Y-62260000D03*
%TO.P,J1,6,Pin_6*%
%TO.N,GND*%
X102000000Y-64800000D03*
%TO.P,J1,7,Pin_7*%
%TO.N,/Audio4_Out*%
X102000000Y-67340000D03*
%TO.P,J1,8,Pin_8*%
%TO.N,/Audio3_Out*%
X102000000Y-69880000D03*
%TO.P,J1,9,Pin_9*%
%TO.N,/Audio2_Out*%
X102000000Y-72420000D03*
%TO.P,J1,10,Pin_10*%
%TO.N,GND*%
X102000000Y-74960000D03*
%TO.P,J1,11,Pin_11*%
X102000000Y-77500000D03*
%TO.P,J1,12,Pin_12*%
%TO.N,/Audio1_Out*%
X102000000Y-80040000D03*
%TD*%
D14*
%TO.P,J3,1,Pin_1*%
%TO.N,GND*%
X158500000Y-52100000D03*
D15*
%TO.P,J3,2,Pin_2*%
X158500000Y-54640000D03*
%TO.P,J3,3,Pin_3*%
%TO.N,/Led1_Out*%
X158500000Y-57180000D03*
%TO.P,J3,4,Pin_4*%
%TO.N,/Env1_Out*%
X158500000Y-59720000D03*
%TO.P,J3,5,Pin_5*%
%TO.N,/Led2_Out*%
X158500000Y-62260000D03*
%TO.P,J3,6,Pin_6*%
%TO.N,/Led4_Out*%
X158500000Y-64800000D03*
%TO.P,J3,7,Pin_7*%
%TO.N,/Env3_Out*%
X158500000Y-67340000D03*
%TO.P,J3,8,Pin_8*%
%TO.N,/Led3_Out*%
X158500000Y-69880000D03*
%TO.P,J3,9,Pin_9*%
%TO.N,/EnvB_Release*%
X158500000Y-72420000D03*
%TO.P,J3,10,Pin_10*%
%TO.N,/EnvB_Sustain*%
X158500000Y-74960000D03*
%TO.P,J3,11,Pin_11*%
%TO.N,/EnvB_Decay*%
X158500000Y-77500000D03*
%TO.P,J3,12,Pin_12*%
%TO.N,/EnvB_Attack*%
X158500000Y-80040000D03*
%TD*%
D18*
%TO.N,GND*%
X145700000Y-100300000D03*
X110700000Y-64700000D03*
X107900000Y-64700000D03*
X120500000Y-75800000D03*
X134200000Y-107000000D03*
X111400000Y-83600000D03*
X147500000Y-89200000D03*
D19*
X128900000Y-109100000D03*
D18*
X122200000Y-111600000D03*
X137600000Y-106800000D03*
X111800000Y-75800000D03*
X144400000Y-107600000D03*
X141300000Y-106400000D03*
X133200000Y-75800000D03*
D19*
X145900000Y-77150000D03*
D18*
X109700000Y-111500000D03*
X111400000Y-87000000D03*
X112000000Y-66400000D03*
X135500000Y-93800000D03*
D19*
X128900000Y-102100000D03*
D18*
%TO.N,+3V3*%
X116100000Y-122500000D03*
%TO.N,GND*%
X117900000Y-102300000D03*
X124200000Y-92900000D03*
D19*
X128900000Y-107850000D03*
D18*
X156700000Y-84300000D03*
X107900000Y-92950000D03*
X150200000Y-73300000D03*
X134100000Y-87700000D03*
X113700000Y-102200000D03*
D19*
X128900000Y-103400000D03*
D18*
X116000000Y-97400000D03*
X156700000Y-92700000D03*
X137600000Y-104800000D03*
%TO.N,+3V3*%
X130700000Y-122500000D03*
%TO.N,GND*%
X134100000Y-104200000D03*
X148600000Y-112200000D03*
X112800000Y-58600000D03*
%TO.N,+3V3*%
X135700000Y-122500000D03*
%TO.N,GND*%
X133100000Y-79100000D03*
%TO.N,+3V3*%
X125800000Y-122500000D03*
%TO.N,GND*%
X135000000Y-112000000D03*
X148900000Y-90800000D03*
X148600000Y-114000000D03*
D19*
X130250000Y-101050000D03*
D18*
X150000000Y-76700000D03*
X154200000Y-59800000D03*
X141500000Y-89200000D03*
D19*
X142000000Y-102200000D03*
D18*
X115900000Y-64700000D03*
D19*
X106600000Y-66500000D03*
D18*
X151000000Y-124500000D03*
X107900000Y-96350000D03*
D19*
X146500000Y-110100000D03*
D18*
X113400000Y-64700000D03*
X139000000Y-100700000D03*
X111200000Y-57300000D03*
X105200000Y-64700000D03*
X111800000Y-78400000D03*
X126400000Y-95500000D03*
X120700000Y-85900000D03*
X140900000Y-94500000D03*
X150900000Y-59800000D03*
D19*
X130250000Y-110150000D03*
D18*
%TO.N,+3V3*%
X120900000Y-122500000D03*
%TO.N,GND*%
X153000000Y-98800000D03*
X153100000Y-102200000D03*
X117300000Y-66450000D03*
X135600000Y-90200000D03*
X136800000Y-91800000D03*
%TO.N,VCC*%
X111800000Y-110600000D03*
X112100000Y-77100000D03*
X118500000Y-89200000D03*
X114700000Y-61100000D03*
X137700000Y-77100000D03*
%TO.N,VEE*%
X142700000Y-77100000D03*
X120000000Y-110600000D03*
X120000000Y-99500000D03*
X120400000Y-77949500D03*
D19*
%TO.N,+3V3*%
X104500000Y-56000000D03*
X108700000Y-61700000D03*
X104500000Y-54100000D03*
D18*
X129200000Y-106400000D03*
D19*
X104500000Y-59800000D03*
D18*
X129200000Y-104800000D03*
D19*
X108700000Y-52200000D03*
D18*
X145400000Y-96300000D03*
D19*
X108700000Y-57900000D03*
X106500000Y-57900000D03*
D18*
%TO.N,GND*%
X121100000Y-124200000D03*
%TO.N,+3V3*%
X135600000Y-97700000D03*
X149700000Y-98900000D03*
%TO.N,GND*%
X126000000Y-124200000D03*
D19*
%TO.N,+3V3*%
X106500000Y-52200000D03*
X108700000Y-59800000D03*
X104500000Y-57900000D03*
X108700000Y-54100000D03*
X108700000Y-56000000D03*
X104500000Y-52200000D03*
D18*
%TO.N,GND*%
X135800000Y-124200000D03*
%TO.N,+3V3*%
X145400000Y-114900000D03*
D19*
X104500000Y-61700000D03*
D18*
%TO.N,GND*%
X116300000Y-124200000D03*
X130900000Y-124200000D03*
%TO.N,+3V3*%
X135500000Y-110200000D03*
%TO.N,/Env1_Scaled*%
X125000000Y-90400000D03*
X112105000Y-92795000D03*
%TO.N,/Env3_DAC*%
X132500000Y-94800000D03*
X135618550Y-91281450D03*
%TO.N,/Env2_DAC*%
X132800000Y-87700000D03*
X132806250Y-92893750D03*
%TO.N,/Audio4_In_Buff*%
X125100000Y-97400000D03*
X125100000Y-93800000D03*
%TO.N,/EnvA_Attack*%
X142712766Y-100090590D03*
%TO.N,/EnvA_Decay*%
X142059414Y-100846987D03*
%TO.N,/EnvA_Release*%
X146500000Y-108700000D03*
%TO.N,/EnvA_Sustain*%
X145400000Y-106200000D03*
%TO.N,/EnvB_Attack*%
X140074500Y-95413357D03*
%TO.N,/EnvB_Decay*%
X139400000Y-94500000D03*
%TO.N,/EnvB_Release*%
X137800000Y-101100000D03*
%TO.N,/EnvB_Sustain*%
X138600000Y-99700000D03*
%TD*%
D20*
%TO.N,VEE*%
X142700000Y-71100000D02*
X142700000Y-77100000D01*
X138600000Y-67000000D02*
X142700000Y-71100000D01*
%TO.N,VCC*%
X137700000Y-74900000D02*
X129800000Y-67000000D01*
X137700000Y-77100000D02*
X137700000Y-74900000D01*
%TO.N,VEE*%
X142700000Y-77100000D02*
X140200000Y-77100000D01*
X139350500Y-77949500D02*
X120400000Y-77949500D01*
X140200000Y-77100000D02*
X139350500Y-77949500D01*
D21*
%TO.N,/Env1_Scaled*%
X114500000Y-90400000D02*
X112105000Y-92795000D01*
X125000000Y-90400000D02*
X114500000Y-90400000D01*
%TO.N,/Env3_DAC*%
X135543550Y-91281450D02*
X135618550Y-91281450D01*
X132500000Y-94325000D02*
X135543550Y-91281450D01*
X132500000Y-94800000D02*
X132500000Y-94325000D01*
%TO.N,/Env2_DAC*%
X132800000Y-87700000D02*
X132800000Y-92887500D01*
X132800000Y-92887500D02*
X132806250Y-92893750D01*
%TO.N,/Audio4_In_Buff*%
X125100000Y-97400000D02*
X125100000Y-93800000D01*
%TO.N,/EnvA_Attack*%
X143722176Y-101100000D02*
X158500000Y-101100000D01*
X142712766Y-100090590D02*
X143722176Y-101100000D01*
%TO.N,/EnvA_Decay*%
X144852427Y-103640000D02*
X158500000Y-103640000D01*
X142059414Y-100846987D02*
X144852427Y-103640000D01*
%TO.N,/EnvA_Release*%
X146620000Y-108720000D02*
X158500000Y-108720000D01*
X146600000Y-108700000D02*
X146620000Y-108720000D01*
X146500000Y-108700000D02*
X146600000Y-108700000D01*
%TO.N,/EnvA_Sustain*%
X145400000Y-106200000D02*
X145420000Y-106180000D01*
X145420000Y-106180000D02*
X158500000Y-106180000D01*
%TO.N,/EnvB_Attack*%
X146567154Y-80040000D02*
X158500000Y-80040000D01*
X140124511Y-86482643D02*
X146567154Y-80040000D01*
X140124511Y-95363346D02*
X140124511Y-86482643D01*
X140074500Y-95413357D02*
X140124511Y-95363346D01*
%TO.N,/EnvB_Decay*%
X139400000Y-86571436D02*
X148471436Y-77500000D01*
X148471436Y-77500000D02*
X159100000Y-77500000D01*
X139400000Y-94500000D02*
X139400000Y-86571436D01*
%TO.N,/EnvB_Release*%
X137800000Y-86900000D02*
X152280000Y-72420000D01*
X152280000Y-72420000D02*
X158500000Y-72420000D01*
X137800000Y-101100000D02*
X137800000Y-86900000D01*
%TO.N,/EnvB_Sustain*%
X150375718Y-74960000D02*
X158500000Y-74960000D01*
X138600000Y-99700000D02*
X138600000Y-86735718D01*
X138600000Y-86735718D02*
X150375718Y-74960000D01*
%TO.N,/Gate_In*%
X103300000Y-50800000D02*
X102000000Y-52100000D01*
X138430000Y-50800000D02*
X103300000Y-50800000D01*
X143210000Y-55580000D02*
X138430000Y-50800000D01*
%TD*%
%TA.AperFunction,Conductor*%
%TO.N,GND*%
G36*
X157555057Y-50528002D02*
G01*
X157601550Y-50581658D01*
X157611654Y-50651932D01*
X157582160Y-50716512D01*
X157531166Y-50751982D01*
X157411946Y-50796676D01*
X157396351Y-50805214D01*
X157294276Y-50881715D01*
X157281715Y-50894276D01*
X157205214Y-50996351D01*
X157196676Y-51011946D01*
X157151522Y-51132394D01*
X157147895Y-51147649D01*
X157142369Y-51198514D01*
X157142000Y-51205328D01*
X157142000Y-51827885D01*
X157146475Y-51843124D01*
X157147865Y-51844329D01*
X157155548Y-51846000D01*
X158628000Y-51846000D01*
X158696121Y-51866002D01*
X158742614Y-51919658D01*
X158754000Y-51972000D01*
X158754000Y-54768000D01*
X158733998Y-54836121D01*
X158680342Y-54882614D01*
X158628000Y-54894000D01*
X157183225Y-54894000D01*
X157169694Y-54897973D01*
X157168257Y-54907966D01*
X157198565Y-55042446D01*
X157201645Y-55052275D01*
X157281770Y-55249603D01*
X157286413Y-55258794D01*
X157397694Y-55440388D01*
X157403777Y-55448699D01*
X157543213Y-55609667D01*
X157550580Y-55616883D01*
X157714434Y-55752916D01*
X157722881Y-55758831D01*
X157791969Y-55799203D01*
X157840693Y-55850842D01*
X157853764Y-55920625D01*
X157827033Y-55986396D01*
X157786584Y-56019752D01*
X157773607Y-56026507D01*
X157769474Y-56029610D01*
X157769471Y-56029612D01*
X157599100Y-56157530D01*
X157594965Y-56160635D01*
X157550519Y-56207145D01*
X157444753Y-56317823D01*
X157440629Y-56322138D01*
X157437715Y-56326410D01*
X157437714Y-56326411D01*
X157408669Y-56368990D01*
X157314743Y-56506680D01*
X157272116Y-56598512D01*
X157232888Y-56683023D01*
X157220688Y-56709305D01*
X157160989Y-56924570D01*
X157137251Y-57146695D01*
X157137548Y-57151848D01*
X157137548Y-57151851D01*
X157142754Y-57242138D01*
X157150110Y-57369715D01*
X157151247Y-57374761D01*
X157151248Y-57374767D01*
X157168832Y-57452792D01*
X157199222Y-57587639D01*
X157283266Y-57794616D01*
X157399987Y-57985088D01*
X157546250Y-58153938D01*
X157718126Y-58296632D01*
X157744732Y-58312179D01*
X157791445Y-58339476D01*
X157840169Y-58391114D01*
X157853240Y-58460897D01*
X157826509Y-58526669D01*
X157786055Y-58560027D01*
X157773607Y-58566507D01*
X157769474Y-58569610D01*
X157769471Y-58569612D01*
X157599100Y-58697530D01*
X157594965Y-58700635D01*
X157550516Y-58747148D01*
X157444753Y-58857823D01*
X157440629Y-58862138D01*
X157437715Y-58866410D01*
X157437714Y-58866411D01*
X157379302Y-58952040D01*
X157314743Y-59046680D01*
X157272116Y-59138512D01*
X157225377Y-59239204D01*
X157220688Y-59249305D01*
X157160989Y-59464570D01*
X157137251Y-59686695D01*
X157150110Y-59909715D01*
X157151247Y-59914761D01*
X157151248Y-59914767D01*
X157166611Y-59982934D01*
X157199222Y-60127639D01*
X157229776Y-60202885D01*
X157272817Y-60308882D01*
X157283266Y-60334616D01*
X157399987Y-60525088D01*
X157546250Y-60693938D01*
X157718126Y-60836632D01*
X157744494Y-60852040D01*
X157791445Y-60879476D01*
X157840169Y-60931114D01*
X157853240Y-61000897D01*
X157826509Y-61066669D01*
X157786055Y-61100027D01*
X157773607Y-61106507D01*
X157769474Y-61109610D01*
X157769471Y-61109612D01*
X157599100Y-61237530D01*
X157594965Y-61240635D01*
X157440629Y-61402138D01*
X157314743Y-61586680D01*
X157289133Y-61641852D01*
X157225534Y-61778866D01*
X157220688Y-61789305D01*
X157160989Y-62004570D01*
X157137251Y-62226695D01*
X157137548Y-62231848D01*
X157137548Y-62231851D01*
X157139171Y-62260000D01*
X157150110Y-62449715D01*
X157151247Y-62454761D01*
X157151248Y-62454767D01*
X157172275Y-62548069D01*
X157199222Y-62667639D01*
X157283266Y-62874616D01*
X157399987Y-63065088D01*
X157546250Y-63233938D01*
X157718126Y-63376632D01*
X157788595Y-63417811D01*
X157791445Y-63419476D01*
X157840169Y-63471114D01*
X157853240Y-63540897D01*
X157826509Y-63606669D01*
X157786055Y-63640027D01*
X157773607Y-63646507D01*
X157769474Y-63649610D01*
X157769471Y-63649612D01*
X157745247Y-63667800D01*
X157594965Y-63780635D01*
X157440629Y-63942138D01*
X157437715Y-63946410D01*
X157437714Y-63946411D01*
X157425404Y-63964457D01*
X157314743Y-64126680D01*
X157299007Y-64160580D01*
X157222965Y-64324400D01*
X157220688Y-64329305D01*
X157160989Y-64544570D01*
X157137251Y-64766695D01*
X157150110Y-64989715D01*
X157151247Y-64994761D01*
X157151248Y-64994767D01*
X157164597Y-65054000D01*
X157199222Y-65207639D01*
X157283266Y-65414616D01*
X157328067Y-65487725D01*
X157374359Y-65563266D01*
X157399987Y-65605088D01*
X157546250Y-65773938D01*
X157718126Y-65916632D01*
X157788595Y-65957811D01*
X157791445Y-65959476D01*
X157840169Y-66011114D01*
X157853240Y-66080897D01*
X157826509Y-66146669D01*
X157786055Y-66180027D01*
X157778817Y-66183795D01*
X157773607Y-66186507D01*
X157769474Y-66189610D01*
X157769471Y-66189612D01*
X157599100Y-66317530D01*
X157594965Y-66320635D01*
X157591393Y-66324373D01*
X157445033Y-66477530D01*
X157440629Y-66482138D01*
X157437715Y-66486410D01*
X157437714Y-66486411D01*
X157403056Y-66537218D01*
X157314743Y-66666680D01*
X157299007Y-66700580D01*
X157223516Y-66863213D01*
X157220688Y-66869305D01*
X157160989Y-67084570D01*
X157137251Y-67306695D01*
X157137548Y-67311848D01*
X157137548Y-67311851D01*
X157143011Y-67406590D01*
X157150110Y-67529715D01*
X157151247Y-67534761D01*
X157151248Y-67534767D01*
X157157665Y-67563240D01*
X157199222Y-67747639D01*
X157283266Y-67954616D01*
X157285965Y-67959020D01*
X157351653Y-68066213D01*
X157399987Y-68145088D01*
X157546250Y-68313938D01*
X157718126Y-68456632D01*
X157788595Y-68497811D01*
X157791445Y-68499476D01*
X157840169Y-68551114D01*
X157853240Y-68620897D01*
X157826509Y-68686669D01*
X157786055Y-68720027D01*
X157773607Y-68726507D01*
X157769474Y-68729610D01*
X157769471Y-68729612D01*
X157599100Y-68857530D01*
X157594965Y-68860635D01*
X157440629Y-69022138D01*
X157314743Y-69206680D01*
X157299007Y-69240580D01*
X157223516Y-69403213D01*
X157220688Y-69409305D01*
X157160989Y-69624570D01*
X157137251Y-69846695D01*
X157137548Y-69851848D01*
X157137548Y-69851851D01*
X157143011Y-69946590D01*
X157150110Y-70069715D01*
X157151247Y-70074761D01*
X157151248Y-70074767D01*
X157171119Y-70162939D01*
X157199222Y-70287639D01*
X157283266Y-70494616D01*
X157285965Y-70499020D01*
X157361644Y-70622517D01*
X157399987Y-70685088D01*
X157546250Y-70853938D01*
X157718126Y-70996632D01*
X157763457Y-71023121D01*
X157791445Y-71039476D01*
X157840169Y-71091114D01*
X157853240Y-71160897D01*
X157826509Y-71226669D01*
X157786055Y-71260027D01*
X157773607Y-71266507D01*
X157769474Y-71269610D01*
X157769471Y-71269612D01*
X157745247Y-71287800D01*
X157594965Y-71400635D01*
X157440629Y-71562138D01*
X157437715Y-71566410D01*
X157437714Y-71566411D01*
X157325095Y-71731504D01*
X157270184Y-71776507D01*
X157221007Y-71786500D01*
X152358763Y-71786500D01*
X152347579Y-71785973D01*
X152340091Y-71784299D01*
X152332168Y-71784548D01*
X152272033Y-71786438D01*
X152268075Y-71786500D01*
X152240144Y-71786500D01*
X152236229Y-71786995D01*
X152236225Y-71786995D01*
X152236167Y-71787003D01*
X152236138Y-71787006D01*
X152224296Y-71787939D01*
X152180110Y-71789327D01*
X152162744Y-71794372D01*
X152160658Y-71794978D01*
X152141306Y-71798986D01*
X152129068Y-71800532D01*
X152129066Y-71800533D01*
X152121203Y-71801526D01*
X152080086Y-71817806D01*
X152068885Y-71821641D01*
X152026406Y-71833982D01*
X152019587Y-71838015D01*
X152019582Y-71838017D01*
X152008971Y-71844293D01*
X151991221Y-71852990D01*
X151972383Y-71860448D01*
X151965967Y-71865109D01*
X151965966Y-71865110D01*
X151936625Y-71886428D01*
X151926701Y-71892947D01*
X151895460Y-71911422D01*
X151895455Y-71911426D01*
X151888637Y-71915458D01*
X151874313Y-71929782D01*
X151859281Y-71942621D01*
X151842893Y-71954528D01*
X151825168Y-71975954D01*
X151814712Y-71988593D01*
X151806722Y-71997373D01*
X137407747Y-86396348D01*
X137399461Y-86403888D01*
X137392982Y-86408000D01*
X137387557Y-86413777D01*
X137346357Y-86457651D01*
X137343602Y-86460493D01*
X137323865Y-86480230D01*
X137321385Y-86483427D01*
X137313682Y-86492447D01*
X137283414Y-86524679D01*
X137279595Y-86531625D01*
X137279593Y-86531628D01*
X137273652Y-86542434D01*
X137262801Y-86558953D01*
X137250386Y-86574959D01*
X137247241Y-86582228D01*
X137247238Y-86582232D01*
X137232826Y-86615537D01*
X137227609Y-86626187D01*
X137206305Y-86664940D01*
X137204334Y-86672615D01*
X137204334Y-86672616D01*
X137201267Y-86684562D01*
X137194863Y-86703266D01*
X137186819Y-86721855D01*
X137185580Y-86729678D01*
X137185577Y-86729688D01*
X137179901Y-86765524D01*
X137177495Y-86777144D01*
X137168472Y-86812289D01*
X137166500Y-86819970D01*
X137166500Y-86840224D01*
X137164949Y-86859934D01*
X137161780Y-86879943D01*
X137162526Y-86887835D01*
X137165941Y-86923961D01*
X137166500Y-86935819D01*
X137166500Y-100397476D01*
X137146498Y-100465597D01*
X137134142Y-100481779D01*
X137060960Y-100563056D01*
X136965473Y-100728444D01*
X136906458Y-100910072D01*
X136886496Y-101100000D01*
X136906458Y-101289928D01*
X136965473Y-101471556D01*
X137060960Y-101636944D01*
X137188747Y-101778866D01*
X137343248Y-101891118D01*
X137349276Y-101893802D01*
X137349278Y-101893803D01*
X137472344Y-101948595D01*
X137517712Y-101968794D01*
X137611113Y-101988647D01*
X137698056Y-102007128D01*
X137698061Y-102007128D01*
X137704513Y-102008500D01*
X137895487Y-102008500D01*
X137901939Y-102007128D01*
X137901944Y-102007128D01*
X137988887Y-101988647D01*
X138082288Y-101968794D01*
X138127656Y-101948595D01*
X138250722Y-101893803D01*
X138250724Y-101893802D01*
X138256752Y-101891118D01*
X138411253Y-101778866D01*
X138539040Y-101636944D01*
X138634527Y-101471556D01*
X138693542Y-101289928D01*
X138713504Y-101100000D01*
X138693542Y-100910072D01*
X138645254Y-100761457D01*
X138643226Y-100690490D01*
X138679889Y-100629692D01*
X138738889Y-100599275D01*
X138882288Y-100568794D01*
X138895176Y-100563056D01*
X139050722Y-100493803D01*
X139050724Y-100493802D01*
X139056752Y-100491118D01*
X139211253Y-100378866D01*
X139220322Y-100368794D01*
X139334621Y-100241852D01*
X139334622Y-100241851D01*
X139339040Y-100236944D01*
X139423538Y-100090590D01*
X139431223Y-100077279D01*
X139431224Y-100077278D01*
X139434527Y-100071556D01*
X139493542Y-99889928D01*
X139494452Y-99881275D01*
X139512814Y-99706565D01*
X139513504Y-99700000D01*
X139501181Y-99582749D01*
X139494232Y-99516635D01*
X139494232Y-99516633D01*
X139493542Y-99510072D01*
X139434527Y-99328444D01*
X139339040Y-99163056D01*
X139265863Y-99081785D01*
X139235147Y-99017779D01*
X139233500Y-98997476D01*
X139233500Y-98900000D01*
X148786496Y-98900000D01*
X148787186Y-98906565D01*
X148792608Y-98958148D01*
X148806458Y-99089928D01*
X148865473Y-99271556D01*
X148960960Y-99436944D01*
X149088747Y-99578866D01*
X149243248Y-99691118D01*
X149249276Y-99693802D01*
X149249278Y-99693803D01*
X149411681Y-99766109D01*
X149417712Y-99768794D01*
X149511112Y-99788647D01*
X149598056Y-99807128D01*
X149598061Y-99807128D01*
X149604513Y-99808500D01*
X149795487Y-99808500D01*
X149801939Y-99807128D01*
X149801944Y-99807128D01*
X149888887Y-99788647D01*
X149982288Y-99768794D01*
X149988319Y-99766109D01*
X150150722Y-99693803D01*
X150150724Y-99693802D01*
X150156752Y-99691118D01*
X150311253Y-99578866D01*
X150439040Y-99436944D01*
X150534527Y-99271556D01*
X150593542Y-99089928D01*
X150607393Y-98958148D01*
X150612814Y-98906565D01*
X150613504Y-98900000D01*
X150593542Y-98710072D01*
X150534527Y-98528444D01*
X150439040Y-98363056D01*
X150311253Y-98221134D01*
X150156752Y-98108882D01*
X150150724Y-98106198D01*
X150150722Y-98106197D01*
X149988319Y-98033891D01*
X149988318Y-98033891D01*
X149982288Y-98031206D01*
X149888888Y-98011353D01*
X149801944Y-97992872D01*
X149801939Y-97992872D01*
X149795487Y-97991500D01*
X149604513Y-97991500D01*
X149598061Y-97992872D01*
X149598056Y-97992872D01*
X149511112Y-98011353D01*
X149417712Y-98031206D01*
X149411682Y-98033891D01*
X149411681Y-98033891D01*
X149249278Y-98106197D01*
X149249276Y-98106198D01*
X149243248Y-98108882D01*
X149088747Y-98221134D01*
X148960960Y-98363056D01*
X148865473Y-98528444D01*
X148806458Y-98710072D01*
X148786496Y-98900000D01*
X139233500Y-98900000D01*
X139233500Y-96165304D01*
X139253502Y-96097183D01*
X139307158Y-96050690D01*
X139377432Y-96040586D01*
X139442012Y-96070080D01*
X139453131Y-96080988D01*
X139463247Y-96092223D01*
X139617748Y-96204475D01*
X139623776Y-96207159D01*
X139623778Y-96207160D01*
X139786181Y-96279466D01*
X139792212Y-96282151D01*
X139885613Y-96302004D01*
X139972556Y-96320485D01*
X139972561Y-96320485D01*
X139979013Y-96321857D01*
X140169987Y-96321857D01*
X140176439Y-96320485D01*
X140176444Y-96320485D01*
X140263388Y-96302004D01*
X140272816Y-96300000D01*
X144486496Y-96300000D01*
X144487186Y-96306565D01*
X144497225Y-96402077D01*
X144506458Y-96489928D01*
X144565473Y-96671556D01*
X144660960Y-96836944D01*
X144665378Y-96841851D01*
X144665379Y-96841852D01*
X144725733Y-96908882D01*
X144788747Y-96978866D01*
X144841579Y-97017251D01*
X144902571Y-97061564D01*
X144943248Y-97091118D01*
X144949276Y-97093802D01*
X144949278Y-97093803D01*
X145104824Y-97163056D01*
X145117712Y-97168794D01*
X145211113Y-97188647D01*
X145298056Y-97207128D01*
X145298061Y-97207128D01*
X145304513Y-97208500D01*
X145495487Y-97208500D01*
X145501939Y-97207128D01*
X145501944Y-97207128D01*
X145588887Y-97188647D01*
X145682288Y-97168794D01*
X145695176Y-97163056D01*
X145850722Y-97093803D01*
X145850724Y-97093802D01*
X145856752Y-97091118D01*
X145897430Y-97061564D01*
X145958421Y-97017251D01*
X146011253Y-96978866D01*
X146074267Y-96908882D01*
X146134621Y-96841852D01*
X146134622Y-96841851D01*
X146139040Y-96836944D01*
X146234527Y-96671556D01*
X146293542Y-96489928D01*
X146302776Y-96402077D01*
X146312814Y-96306565D01*
X146313504Y-96300000D01*
X146293542Y-96110072D01*
X146234527Y-95928444D01*
X146139040Y-95763056D01*
X146052277Y-95666695D01*
X154072251Y-95666695D01*
X154072548Y-95671848D01*
X154072548Y-95671851D01*
X154078137Y-95768774D01*
X154085110Y-95889715D01*
X154086247Y-95894761D01*
X154086248Y-95894767D01*
X154092548Y-95922721D01*
X154134222Y-96107639D01*
X154171967Y-96200594D01*
X154205641Y-96283523D01*
X154218266Y-96314616D01*
X154334987Y-96505088D01*
X154481250Y-96673938D01*
X154653126Y-96816632D01*
X154846000Y-96929338D01*
X155054692Y-97009030D01*
X155059760Y-97010061D01*
X155059763Y-97010062D01*
X155138323Y-97026045D01*
X155273597Y-97053567D01*
X155278772Y-97053757D01*
X155278774Y-97053757D01*
X155491673Y-97061564D01*
X155491677Y-97061564D01*
X155496837Y-97061753D01*
X155501957Y-97061097D01*
X155501959Y-97061097D01*
X155713288Y-97034025D01*
X155713289Y-97034025D01*
X155718416Y-97033368D01*
X155723366Y-97031883D01*
X155927429Y-96970661D01*
X155927434Y-96970659D01*
X155932384Y-96969174D01*
X156132994Y-96870896D01*
X156314860Y-96741173D01*
X156423091Y-96633319D01*
X156485462Y-96599404D01*
X156556268Y-96604592D01*
X156613030Y-96647238D01*
X156630012Y-96678341D01*
X156644797Y-96717779D01*
X156674385Y-96796705D01*
X156761739Y-96913261D01*
X156878295Y-97000615D01*
X157014684Y-97051745D01*
X157076866Y-97058500D01*
X158873134Y-97058500D01*
X158935316Y-97051745D01*
X159071705Y-97000615D01*
X159188261Y-96913261D01*
X159275615Y-96796705D01*
X159326745Y-96660316D01*
X159333500Y-96598134D01*
X159333500Y-94801866D01*
X159326745Y-94739684D01*
X159275615Y-94603295D01*
X159188261Y-94486739D01*
X159071705Y-94399385D01*
X158935316Y-94348255D01*
X158873134Y-94341500D01*
X157076866Y-94341500D01*
X157014684Y-94348255D01*
X156878295Y-94399385D01*
X156761739Y-94486739D01*
X156674385Y-94603295D01*
X156671233Y-94611703D01*
X156629919Y-94721907D01*
X156587277Y-94778671D01*
X156520716Y-94803371D01*
X156451367Y-94788163D01*
X156418743Y-94762476D01*
X156368151Y-94706875D01*
X156368142Y-94706866D01*
X156364670Y-94703051D01*
X156360619Y-94699852D01*
X156360615Y-94699848D01*
X156193414Y-94567800D01*
X156193410Y-94567798D01*
X156189359Y-94564598D01*
X155993789Y-94456638D01*
X155988920Y-94454914D01*
X155988916Y-94454912D01*
X155788087Y-94383795D01*
X155788083Y-94383794D01*
X155783212Y-94382069D01*
X155778119Y-94381162D01*
X155778116Y-94381161D01*
X155568373Y-94343800D01*
X155568367Y-94343799D01*
X155563284Y-94342894D01*
X155489452Y-94341992D01*
X155345081Y-94340228D01*
X155345079Y-94340228D01*
X155339911Y-94340165D01*
X155119091Y-94373955D01*
X154906756Y-94443357D01*
X154708607Y-94546507D01*
X154704474Y-94549610D01*
X154704471Y-94549612D01*
X154615205Y-94616635D01*
X154529965Y-94680635D01*
X154490525Y-94721907D01*
X154436280Y-94778671D01*
X154375629Y-94842138D01*
X154372715Y-94846410D01*
X154372714Y-94846411D01*
X154287556Y-94971249D01*
X154249743Y-95026680D01*
X154247564Y-95031375D01*
X154158416Y-95223429D01*
X154155688Y-95229305D01*
X154095989Y-95444570D01*
X154072251Y-95666695D01*
X146052277Y-95666695D01*
X146047655Y-95661562D01*
X146015675Y-95626045D01*
X146015674Y-95626044D01*
X146011253Y-95621134D01*
X145856752Y-95508882D01*
X145850724Y-95506198D01*
X145850722Y-95506197D01*
X145688319Y-95433891D01*
X145688318Y-95433891D01*
X145682288Y-95431206D01*
X145567430Y-95406792D01*
X145501944Y-95392872D01*
X145501939Y-95392872D01*
X145495487Y-95391500D01*
X145304513Y-95391500D01*
X145298061Y-95392872D01*
X145298056Y-95392872D01*
X145232570Y-95406792D01*
X145117712Y-95431206D01*
X145111682Y-95433891D01*
X145111681Y-95433891D01*
X144949278Y-95506197D01*
X144949276Y-95506198D01*
X144943248Y-95508882D01*
X144788747Y-95621134D01*
X144784326Y-95626044D01*
X144784325Y-95626045D01*
X144752346Y-95661562D01*
X144660960Y-95763056D01*
X144565473Y-95928444D01*
X144506458Y-96110072D01*
X144486496Y-96300000D01*
X140272816Y-96300000D01*
X140356788Y-96282151D01*
X140362819Y-96279466D01*
X140525222Y-96207160D01*
X140525224Y-96207159D01*
X140531252Y-96204475D01*
X140685753Y-96092223D01*
X140690175Y-96087312D01*
X140809121Y-95955209D01*
X140809122Y-95955208D01*
X140813540Y-95950301D01*
X140909027Y-95784913D01*
X140968042Y-95603285D01*
X140988004Y-95413357D01*
X140968042Y-95223429D01*
X140909027Y-95041801D01*
X140897827Y-95022401D01*
X140816843Y-94882134D01*
X140813540Y-94876413D01*
X140790375Y-94850685D01*
X140759658Y-94786679D01*
X140758011Y-94766375D01*
X140758011Y-86797237D01*
X140778013Y-86729116D01*
X140794916Y-86708142D01*
X146792654Y-80710405D01*
X146854966Y-80676379D01*
X146881749Y-80673500D01*
X157224274Y-80673500D01*
X157292395Y-80693502D01*
X157331707Y-80733665D01*
X157399987Y-80845088D01*
X157546250Y-81013938D01*
X157718126Y-81156632D01*
X157911000Y-81269338D01*
X158119692Y-81349030D01*
X158124760Y-81350061D01*
X158124763Y-81350062D01*
X158232017Y-81371883D01*
X158338597Y-81393567D01*
X158343772Y-81393757D01*
X158343774Y-81393757D01*
X158556673Y-81401564D01*
X158556677Y-81401564D01*
X158561837Y-81401753D01*
X158566957Y-81401097D01*
X158566959Y-81401097D01*
X158778288Y-81374025D01*
X158778289Y-81374025D01*
X158783416Y-81373368D01*
X158788366Y-81371883D01*
X158992429Y-81310661D01*
X158992434Y-81310659D01*
X158997384Y-81309174D01*
X159197994Y-81210896D01*
X159379860Y-81081173D01*
X159538096Y-80923489D01*
X159597594Y-80840689D01*
X159665435Y-80746277D01*
X159668453Y-80742077D01*
X159672611Y-80733665D01*
X159753043Y-80570921D01*
X159801156Y-80518714D01*
X159869858Y-80500807D01*
X159937334Y-80522885D01*
X159982162Y-80577939D01*
X159992000Y-80626748D01*
X159992000Y-99880441D01*
X159971998Y-99948562D01*
X159918342Y-99995055D01*
X159848068Y-100005159D01*
X159783488Y-99975665D01*
X159765174Y-99956006D01*
X159718643Y-99893920D01*
X159718642Y-99893919D01*
X159713261Y-99886739D01*
X159596705Y-99799385D01*
X159460316Y-99748255D01*
X159398134Y-99741500D01*
X157601866Y-99741500D01*
X157539684Y-99748255D01*
X157403295Y-99799385D01*
X157286739Y-99886739D01*
X157199385Y-100003295D01*
X157148255Y-100139684D01*
X157141500Y-100201866D01*
X157141500Y-100340500D01*
X157121498Y-100408621D01*
X157067842Y-100455114D01*
X157015500Y-100466500D01*
X144036771Y-100466500D01*
X143968650Y-100446498D01*
X143947676Y-100429595D01*
X143659888Y-100141807D01*
X143625862Y-100079495D01*
X143623673Y-100065882D01*
X143622339Y-100053184D01*
X143613062Y-99964924D01*
X143606998Y-99907225D01*
X143606998Y-99907223D01*
X143606308Y-99900662D01*
X143547293Y-99719034D01*
X143532514Y-99693435D01*
X143510080Y-99654580D01*
X143451806Y-99553646D01*
X143324019Y-99411724D01*
X143209394Y-99328444D01*
X143174860Y-99303353D01*
X143174859Y-99303352D01*
X143169518Y-99299472D01*
X143163490Y-99296788D01*
X143163488Y-99296787D01*
X143001085Y-99224481D01*
X143001084Y-99224481D01*
X142995054Y-99221796D01*
X142901654Y-99201943D01*
X142814710Y-99183462D01*
X142814705Y-99183462D01*
X142808253Y-99182090D01*
X142617279Y-99182090D01*
X142610827Y-99183462D01*
X142610822Y-99183462D01*
X142523878Y-99201943D01*
X142430478Y-99221796D01*
X142424448Y-99224481D01*
X142424447Y-99224481D01*
X142262044Y-99296787D01*
X142262042Y-99296788D01*
X142256014Y-99299472D01*
X142250673Y-99303352D01*
X142250672Y-99303353D01*
X142216138Y-99328444D01*
X142101513Y-99411724D01*
X141973726Y-99553646D01*
X141915452Y-99654580D01*
X141893019Y-99693435D01*
X141878239Y-99719034D01*
X141819224Y-99900662D01*
X141818912Y-99903631D01*
X141785820Y-99964924D01*
X141747552Y-99991360D01*
X141608692Y-100053184D01*
X141608690Y-100053185D01*
X141602662Y-100055869D01*
X141448161Y-100168121D01*
X141443740Y-100173031D01*
X141443739Y-100173032D01*
X141334997Y-100293803D01*
X141320374Y-100310043D01*
X141317073Y-100315761D01*
X141241592Y-100446498D01*
X141224887Y-100475431D01*
X141165872Y-100657059D01*
X141145910Y-100846987D01*
X141165872Y-101036915D01*
X141224887Y-101218543D01*
X141320374Y-101383931D01*
X141448161Y-101525853D01*
X141602662Y-101638105D01*
X141608690Y-101640789D01*
X141608692Y-101640790D01*
X141771095Y-101713096D01*
X141777126Y-101715781D01*
X141860487Y-101733500D01*
X141957470Y-101754115D01*
X141957475Y-101754115D01*
X141963927Y-101755487D01*
X142019820Y-101755487D01*
X142087941Y-101775489D01*
X142108915Y-101792392D01*
X144348775Y-104032253D01*
X144356315Y-104040539D01*
X144360427Y-104047018D01*
X144366204Y-104052443D01*
X144410078Y-104093643D01*
X144412920Y-104096398D01*
X144432657Y-104116135D01*
X144435854Y-104118615D01*
X144444874Y-104126318D01*
X144477106Y-104156586D01*
X144484052Y-104160405D01*
X144484055Y-104160407D01*
X144494861Y-104166348D01*
X144511380Y-104177199D01*
X144527386Y-104189614D01*
X144534655Y-104192759D01*
X144534659Y-104192762D01*
X144567964Y-104207174D01*
X144578614Y-104212391D01*
X144617367Y-104233695D01*
X144625042Y-104235666D01*
X144625043Y-104235666D01*
X144636989Y-104238733D01*
X144655694Y-104245137D01*
X144674282Y-104253181D01*
X144682105Y-104254420D01*
X144682115Y-104254423D01*
X144717951Y-104260099D01*
X144729571Y-104262505D01*
X144764716Y-104271528D01*
X144772397Y-104273500D01*
X144792651Y-104273500D01*
X144812361Y-104275051D01*
X144832370Y-104278220D01*
X144840262Y-104277474D01*
X144876388Y-104274059D01*
X144888246Y-104273500D01*
X157224274Y-104273500D01*
X157292395Y-104293502D01*
X157331707Y-104333665D01*
X157399987Y-104445088D01*
X157546250Y-104613938D01*
X157718126Y-104756632D01*
X157781107Y-104793435D01*
X157791445Y-104799476D01*
X157840169Y-104851114D01*
X157853240Y-104920897D01*
X157826509Y-104986669D01*
X157786055Y-105020027D01*
X157773607Y-105026507D01*
X157769474Y-105029610D01*
X157769471Y-105029612D01*
X157745247Y-105047800D01*
X157594965Y-105160635D01*
X157440629Y-105322138D01*
X157437715Y-105326410D01*
X157437714Y-105326411D01*
X157325095Y-105491504D01*
X157270184Y-105536507D01*
X157221007Y-105546500D01*
X146086760Y-105546500D01*
X146018639Y-105526498D01*
X146011382Y-105520957D01*
X146011253Y-105521134D01*
X145862094Y-105412763D01*
X145862093Y-105412762D01*
X145856752Y-105408882D01*
X145850724Y-105406198D01*
X145850722Y-105406197D01*
X145688319Y-105333891D01*
X145688318Y-105333891D01*
X145682288Y-105331206D01*
X145588888Y-105311353D01*
X145501944Y-105292872D01*
X145501939Y-105292872D01*
X145495487Y-105291500D01*
X145304513Y-105291500D01*
X145298061Y-105292872D01*
X145298056Y-105292872D01*
X145211112Y-105311353D01*
X145117712Y-105331206D01*
X145111682Y-105333891D01*
X145111681Y-105333891D01*
X144949278Y-105406197D01*
X144949276Y-105406198D01*
X144943248Y-105408882D01*
X144788747Y-105521134D01*
X144784326Y-105526044D01*
X144784325Y-105526045D01*
X144673837Y-105648755D01*
X144660960Y-105663056D01*
X144565473Y-105828444D01*
X144506458Y-106010072D01*
X144505768Y-106016633D01*
X144505768Y-106016635D01*
X144488951Y-106176646D01*
X144486496Y-106200000D01*
X144487186Y-106206565D01*
X144504334Y-106369715D01*
X144506458Y-106389928D01*
X144565473Y-106571556D01*
X144568776Y-106577278D01*
X144568777Y-106577279D01*
X144576080Y-106589928D01*
X144660960Y-106736944D01*
X144665378Y-106741851D01*
X144665379Y-106741852D01*
X144692125Y-106771556D01*
X144788747Y-106878866D01*
X144943248Y-106991118D01*
X144949276Y-106993802D01*
X144949278Y-106993803D01*
X145111681Y-107066109D01*
X145117712Y-107068794D01*
X145183365Y-107082749D01*
X145298056Y-107107128D01*
X145298061Y-107107128D01*
X145304513Y-107108500D01*
X145495487Y-107108500D01*
X145501939Y-107107128D01*
X145501944Y-107107128D01*
X145616635Y-107082749D01*
X145682288Y-107068794D01*
X145688319Y-107066109D01*
X145850722Y-106993803D01*
X145850724Y-106993802D01*
X145856752Y-106991118D01*
X146011253Y-106878866D01*
X146032572Y-106855189D01*
X146093018Y-106817950D01*
X146126208Y-106813500D01*
X157224274Y-106813500D01*
X157292395Y-106833502D01*
X157331707Y-106873665D01*
X157399987Y-106985088D01*
X157546250Y-107153938D01*
X157718126Y-107296632D01*
X157736088Y-107307128D01*
X157791445Y-107339476D01*
X157840169Y-107391114D01*
X157853240Y-107460897D01*
X157826509Y-107526669D01*
X157786055Y-107560027D01*
X157773607Y-107566507D01*
X157769474Y-107569610D01*
X157769471Y-107569612D01*
X157745247Y-107587800D01*
X157594965Y-107700635D01*
X157440629Y-107862138D01*
X157437715Y-107866410D01*
X157437714Y-107866411D01*
X157325095Y-108031504D01*
X157270184Y-108076507D01*
X157221007Y-108086500D01*
X147226208Y-108086500D01*
X147158087Y-108066498D01*
X147132572Y-108044811D01*
X147115668Y-108026037D01*
X147115666Y-108026036D01*
X147111253Y-108021134D01*
X146956752Y-107908882D01*
X146950724Y-107906198D01*
X146950722Y-107906197D01*
X146788319Y-107833891D01*
X146788318Y-107833891D01*
X146782288Y-107831206D01*
X146688887Y-107811353D01*
X146601944Y-107792872D01*
X146601939Y-107792872D01*
X146595487Y-107791500D01*
X146404513Y-107791500D01*
X146398061Y-107792872D01*
X146398056Y-107792872D01*
X146311113Y-107811353D01*
X146217712Y-107831206D01*
X146211682Y-107833891D01*
X146211681Y-107833891D01*
X146049278Y-107906197D01*
X146049276Y-107906198D01*
X146043248Y-107908882D01*
X145888747Y-108021134D01*
X145884326Y-108026044D01*
X145884325Y-108026045D01*
X145784605Y-108136796D01*
X145760960Y-108163056D01*
X145665473Y-108328444D01*
X145606458Y-108510072D01*
X145586496Y-108700000D01*
X145606458Y-108889928D01*
X145665473Y-109071556D01*
X145760960Y-109236944D01*
X145765378Y-109241851D01*
X145765379Y-109241852D01*
X145865907Y-109353500D01*
X145888747Y-109378866D01*
X146043248Y-109491118D01*
X146049276Y-109493802D01*
X146049278Y-109493803D01*
X146128310Y-109528990D01*
X146217712Y-109568794D01*
X146311113Y-109588647D01*
X146398056Y-109607128D01*
X146398061Y-109607128D01*
X146404513Y-109608500D01*
X146595487Y-109608500D01*
X146601939Y-109607128D01*
X146601944Y-109607128D01*
X146688888Y-109588647D01*
X146782288Y-109568794D01*
X146871690Y-109528990D01*
X146950722Y-109493803D01*
X146950724Y-109493802D01*
X146956752Y-109491118D01*
X147051779Y-109422077D01*
X147111253Y-109378866D01*
X147112747Y-109380922D01*
X147166456Y-109355147D01*
X147186760Y-109353500D01*
X157224274Y-109353500D01*
X157292395Y-109373502D01*
X157331707Y-109413665D01*
X157399987Y-109525088D01*
X157546250Y-109693938D01*
X157718126Y-109836632D01*
X157739526Y-109849137D01*
X157791955Y-109879774D01*
X157840679Y-109931412D01*
X157853750Y-110001195D01*
X157827019Y-110066967D01*
X157786562Y-110100327D01*
X157778457Y-110104546D01*
X157769738Y-110110036D01*
X157599433Y-110237905D01*
X157591726Y-110244748D01*
X157444590Y-110398717D01*
X157438104Y-110406727D01*
X157318098Y-110582649D01*
X157313000Y-110591623D01*
X157223338Y-110784783D01*
X157219775Y-110794470D01*
X157164389Y-110994183D01*
X157165912Y-111002607D01*
X157178292Y-111006000D01*
X158628000Y-111006000D01*
X158696121Y-111026002D01*
X158742614Y-111079658D01*
X158754000Y-111132000D01*
X158754000Y-111388000D01*
X158733998Y-111456121D01*
X158680342Y-111502614D01*
X158628000Y-111514000D01*
X157183225Y-111514000D01*
X157169694Y-111517973D01*
X157168257Y-111527966D01*
X157198565Y-111662446D01*
X157201645Y-111672275D01*
X157281770Y-111869603D01*
X157286413Y-111878794D01*
X157397694Y-112060388D01*
X157403777Y-112068699D01*
X157543213Y-112229667D01*
X157550580Y-112236883D01*
X157714434Y-112372916D01*
X157722881Y-112378831D01*
X157791969Y-112419203D01*
X157840693Y-112470842D01*
X157853764Y-112540625D01*
X157827033Y-112606396D01*
X157786584Y-112639752D01*
X157773607Y-112646507D01*
X157769474Y-112649610D01*
X157769471Y-112649612D01*
X157599100Y-112777530D01*
X157594965Y-112780635D01*
X157440629Y-112942138D01*
X157437715Y-112946410D01*
X157437714Y-112946411D01*
X157407577Y-112990590D01*
X157314743Y-113126680D01*
X157299599Y-113159305D01*
X157223516Y-113323213D01*
X157220688Y-113329305D01*
X157160989Y-113544570D01*
X157137251Y-113766695D01*
X157137548Y-113771848D01*
X157137548Y-113771851D01*
X157143011Y-113866590D01*
X157150110Y-113989715D01*
X157151247Y-113994761D01*
X157151248Y-113994767D01*
X157160910Y-114037639D01*
X157199222Y-114207639D01*
X157283266Y-114414616D01*
X157399987Y-114605088D01*
X157546250Y-114773938D01*
X157718126Y-114916632D01*
X157756456Y-114939030D01*
X157791445Y-114959476D01*
X157840169Y-115011114D01*
X157853240Y-115080897D01*
X157826509Y-115146669D01*
X157786055Y-115180027D01*
X157773607Y-115186507D01*
X157769474Y-115189610D01*
X157769471Y-115189612D01*
X157599100Y-115317530D01*
X157594965Y-115320635D01*
X157440629Y-115482138D01*
X157314743Y-115666680D01*
X157299007Y-115700580D01*
X157223516Y-115863213D01*
X157220688Y-115869305D01*
X157160989Y-116084570D01*
X157137251Y-116306695D01*
X157137548Y-116311848D01*
X157137548Y-116311851D01*
X157143011Y-116406590D01*
X157150110Y-116529715D01*
X157151247Y-116534761D01*
X157151248Y-116534767D01*
X157159740Y-116572446D01*
X157199222Y-116747639D01*
X157237461Y-116841811D01*
X157272387Y-116927823D01*
X157283266Y-116954616D01*
X157399987Y-117145088D01*
X157546250Y-117313938D01*
X157718126Y-117456632D01*
X157777553Y-117491358D01*
X157791445Y-117499476D01*
X157840169Y-117551114D01*
X157853240Y-117620897D01*
X157826509Y-117686669D01*
X157786055Y-117720027D01*
X157773607Y-117726507D01*
X157769474Y-117729610D01*
X157769471Y-117729612D01*
X157659919Y-117811866D01*
X157594965Y-117860635D01*
X157440629Y-118022138D01*
X157314743Y-118206680D01*
X157299007Y-118240580D01*
X157223516Y-118403213D01*
X157220688Y-118409305D01*
X157160989Y-118624570D01*
X157137251Y-118846695D01*
X157137548Y-118851848D01*
X157137548Y-118851851D01*
X157143011Y-118946590D01*
X157150110Y-119069715D01*
X157151247Y-119074761D01*
X157151248Y-119074767D01*
X157171119Y-119162939D01*
X157199222Y-119287639D01*
X157283266Y-119494616D01*
X157285965Y-119499020D01*
X157390935Y-119670316D01*
X157399987Y-119685088D01*
X157546250Y-119853938D01*
X157718126Y-119996632D01*
X157732838Y-120005229D01*
X157791445Y-120039476D01*
X157840169Y-120091114D01*
X157853240Y-120160897D01*
X157826509Y-120226669D01*
X157786055Y-120260027D01*
X157773607Y-120266507D01*
X157769474Y-120269610D01*
X157769471Y-120269612D01*
X157745247Y-120287800D01*
X157594965Y-120400635D01*
X157440629Y-120562138D01*
X157314743Y-120746680D01*
X157299007Y-120780580D01*
X157223516Y-120943213D01*
X157220688Y-120949305D01*
X157160989Y-121164570D01*
X157137251Y-121386695D01*
X157137548Y-121391848D01*
X157137548Y-121391851D01*
X157143011Y-121486590D01*
X157150110Y-121609715D01*
X157151247Y-121614761D01*
X157151248Y-121614767D01*
X157154644Y-121629834D01*
X157199222Y-121827639D01*
X157283266Y-122034616D01*
X157399987Y-122225088D01*
X157546250Y-122393938D01*
X157718126Y-122536632D01*
X157788595Y-122577811D01*
X157791445Y-122579476D01*
X157840169Y-122631114D01*
X157853240Y-122700897D01*
X157826509Y-122766669D01*
X157786055Y-122800027D01*
X157773607Y-122806507D01*
X157769474Y-122809610D01*
X157769471Y-122809612D01*
X157679347Y-122877279D01*
X157594965Y-122940635D01*
X157440629Y-123102138D01*
X157314743Y-123286680D01*
X157276627Y-123368794D01*
X157223516Y-123483213D01*
X157220688Y-123489305D01*
X157160989Y-123704570D01*
X157137251Y-123926695D01*
X157137548Y-123931848D01*
X157137548Y-123931851D01*
X157143011Y-124026590D01*
X157150110Y-124149715D01*
X157151247Y-124154761D01*
X157151248Y-124154767D01*
X157171119Y-124242939D01*
X157199222Y-124367639D01*
X157283266Y-124574616D01*
X157399987Y-124765088D01*
X157546250Y-124933938D01*
X157718126Y-125076632D01*
X157788595Y-125117811D01*
X157791445Y-125119476D01*
X157840169Y-125171114D01*
X157853240Y-125240897D01*
X157826509Y-125306669D01*
X157786055Y-125340027D01*
X157773607Y-125346507D01*
X157769474Y-125349610D01*
X157769471Y-125349612D01*
X157604734Y-125473300D01*
X157594965Y-125480635D01*
X157440629Y-125642138D01*
X157314743Y-125826680D01*
X157281561Y-125898164D01*
X157223516Y-126023213D01*
X157220688Y-126029305D01*
X157160989Y-126244570D01*
X157137251Y-126466695D01*
X157137548Y-126471848D01*
X157137548Y-126471851D01*
X157143011Y-126566590D01*
X157150110Y-126689715D01*
X157151247Y-126694761D01*
X157151248Y-126694767D01*
X157158733Y-126727978D01*
X157199222Y-126907639D01*
X157283266Y-127114616D01*
X157399987Y-127305088D01*
X157546250Y-127473938D01*
X157718126Y-127616632D01*
X157747283Y-127633670D01*
X157791445Y-127659476D01*
X157840169Y-127711114D01*
X157853240Y-127780897D01*
X157826509Y-127846669D01*
X157786055Y-127880027D01*
X157773607Y-127886507D01*
X157769474Y-127889610D01*
X157769471Y-127889612D01*
X157665281Y-127967840D01*
X157594965Y-128020635D01*
X157440629Y-128182138D01*
X157437715Y-128186410D01*
X157437714Y-128186411D01*
X157425404Y-128204457D01*
X157314743Y-128366680D01*
X157299007Y-128400580D01*
X157223516Y-128563213D01*
X157220688Y-128569305D01*
X157160989Y-128784570D01*
X157137251Y-129006695D01*
X157137548Y-129011848D01*
X157137548Y-129011851D01*
X157149812Y-129224547D01*
X157150110Y-129229715D01*
X157151247Y-129234761D01*
X157151248Y-129234767D01*
X157170870Y-129321833D01*
X157199222Y-129447639D01*
X157283266Y-129654616D01*
X157306595Y-129692686D01*
X157395365Y-129837545D01*
X157399987Y-129845088D01*
X157546250Y-130013938D01*
X157718126Y-130156632D01*
X157911000Y-130269338D01*
X158119692Y-130349030D01*
X158124760Y-130350061D01*
X158124763Y-130350062D01*
X158176083Y-130360503D01*
X158338597Y-130393567D01*
X158343772Y-130393757D01*
X158343774Y-130393757D01*
X158556673Y-130401564D01*
X158556677Y-130401564D01*
X158561837Y-130401753D01*
X158566957Y-130401097D01*
X158566959Y-130401097D01*
X158778288Y-130374025D01*
X158778289Y-130374025D01*
X158783416Y-130373368D01*
X158788366Y-130371883D01*
X158992429Y-130310661D01*
X158992434Y-130310659D01*
X158997384Y-130309174D01*
X159197994Y-130210896D01*
X159379860Y-130081173D01*
X159396889Y-130064204D01*
X159504603Y-129956865D01*
X159538096Y-129923489D01*
X159541729Y-129918434D01*
X159665435Y-129746277D01*
X159668453Y-129742077D01*
X159674891Y-129729052D01*
X159753043Y-129570921D01*
X159801156Y-129518714D01*
X159869858Y-129500807D01*
X159937334Y-129522885D01*
X159982162Y-129577939D01*
X159992000Y-129626748D01*
X159992000Y-130966000D01*
X159971998Y-131034121D01*
X159918342Y-131080614D01*
X159866000Y-131092000D01*
X156334961Y-131092000D01*
X156266840Y-131071998D01*
X156220347Y-131018342D01*
X156210243Y-130948068D01*
X156227927Y-130902457D01*
X156227021Y-130901975D01*
X156230225Y-130895949D01*
X156234060Y-130890306D01*
X156242078Y-130870261D01*
X156249943Y-130854063D01*
X156259205Y-130838020D01*
X156276234Y-130785611D01*
X156279077Y-130777758D01*
X156298216Y-130729906D01*
X156298218Y-130729898D01*
X156300748Y-130723573D01*
X156303728Y-130705574D01*
X156308202Y-130687220D01*
X156310853Y-130679063D01*
X156312892Y-130672786D01*
X156318998Y-130614688D01*
X156319999Y-130607285D01*
X156326510Y-130567963D01*
X156330078Y-130546409D01*
X156329721Y-130539592D01*
X156329721Y-130539585D01*
X156329299Y-130531538D01*
X156329816Y-130511777D01*
X156330363Y-130506571D01*
X156330363Y-130506564D01*
X156331053Y-130500000D01*
X156324601Y-130438611D01*
X156324084Y-130432037D01*
X156323774Y-130426126D01*
X156320679Y-130367079D01*
X156317611Y-130355942D01*
X156313781Y-130335671D01*
X156312892Y-130327214D01*
X156310853Y-130320937D01*
X156292800Y-130265372D01*
X156291158Y-130259900D01*
X156279718Y-130218369D01*
X156272992Y-130193951D01*
X156269171Y-130186705D01*
X156263887Y-130174193D01*
X156261245Y-130168260D01*
X156259205Y-130161980D01*
X156225044Y-130102811D01*
X156222712Y-130098587D01*
X156215111Y-130084171D01*
X156189240Y-130035102D01*
X156184831Y-130029884D01*
X156181019Y-130024233D01*
X156181058Y-130024207D01*
X156179780Y-130022389D01*
X156179518Y-130022579D01*
X156175639Y-130017240D01*
X156172336Y-130011519D01*
X156167916Y-130006610D01*
X156167913Y-130006606D01*
X156124449Y-129958335D01*
X156121845Y-129955350D01*
X156077741Y-129903158D01*
X156077735Y-129903152D01*
X156073332Y-129897942D01*
X156067915Y-129893800D01*
X156066496Y-129892449D01*
X156062766Y-129889353D01*
X156060502Y-129887314D01*
X156056083Y-129882407D01*
X155995546Y-129838424D01*
X155993164Y-129836649D01*
X155930674Y-129788872D01*
X155924489Y-129785988D01*
X155922856Y-129784999D01*
X155919880Y-129783450D01*
X155915527Y-129780287D01*
X155909499Y-129777603D01*
X155909497Y-129777602D01*
X155844337Y-129748591D01*
X155842337Y-129747679D01*
X155774110Y-129715865D01*
X155767923Y-129712980D01*
X155761263Y-129711491D01*
X155760182Y-129711123D01*
X155756810Y-129709622D01*
X155750349Y-129708249D01*
X155750347Y-129708248D01*
X155677854Y-129692839D01*
X155676566Y-129692559D01*
X155627116Y-129681506D01*
X155592672Y-129673807D01*
X155587181Y-129673500D01*
X155413131Y-129673500D01*
X155406676Y-129674872D01*
X155406667Y-129674873D01*
X155375463Y-129681506D01*
X155362873Y-129683523D01*
X155357051Y-129684155D01*
X155328256Y-129687283D01*
X155328253Y-129687284D01*
X155321475Y-129688020D01*
X155315009Y-129690196D01*
X155288336Y-129699172D01*
X155274347Y-129702999D01*
X155249652Y-129708248D01*
X155249648Y-129708249D01*
X155243190Y-129709622D01*
X155209153Y-129724777D01*
X155204974Y-129726637D01*
X155193913Y-129730949D01*
X155157743Y-129743121D01*
X155157740Y-129743122D01*
X155151278Y-129745297D01*
X155124161Y-129761591D01*
X155110526Y-129768688D01*
X155097322Y-129774567D01*
X155090513Y-129777598D01*
X155090510Y-129777600D01*
X155084474Y-129780287D01*
X155047925Y-129806841D01*
X155038777Y-129812895D01*
X155003208Y-129834267D01*
X155003206Y-129834269D01*
X154997352Y-129837786D01*
X154976804Y-129857218D01*
X154964301Y-129867598D01*
X154943917Y-129882407D01*
X154939503Y-129887309D01*
X154939502Y-129887310D01*
X154911477Y-129918434D01*
X154904416Y-129925669D01*
X154871838Y-129956478D01*
X154871836Y-129956481D01*
X154866877Y-129961170D01*
X154863043Y-129966811D01*
X154863040Y-129966815D01*
X154852864Y-129981789D01*
X154842287Y-129995279D01*
X154827664Y-130011519D01*
X154801750Y-130056402D01*
X154796870Y-130064182D01*
X154765940Y-130109694D01*
X154757922Y-130129739D01*
X154750057Y-130145937D01*
X154740795Y-130161980D01*
X154732367Y-130187919D01*
X154723766Y-130214389D01*
X154720923Y-130222242D01*
X154701784Y-130270094D01*
X154701782Y-130270102D01*
X154699252Y-130276427D01*
X154698139Y-130283152D01*
X154696272Y-130294426D01*
X154691799Y-130312775D01*
X154687108Y-130327214D01*
X154685138Y-130345963D01*
X154681003Y-130385304D01*
X154680003Y-130392701D01*
X154669922Y-130453591D01*
X154670279Y-130460408D01*
X154670279Y-130460415D01*
X154670701Y-130468462D01*
X154670184Y-130488223D01*
X154669637Y-130493429D01*
X154669637Y-130493435D01*
X154668947Y-130500000D01*
X154669637Y-130506565D01*
X154675399Y-130561389D01*
X154675916Y-130567963D01*
X154679321Y-130632921D01*
X154682389Y-130644058D01*
X154686219Y-130664329D01*
X154687108Y-130672786D01*
X154689146Y-130679059D01*
X154689147Y-130679063D01*
X154707200Y-130734628D01*
X154708842Y-130740100D01*
X154727008Y-130806049D01*
X154730829Y-130813295D01*
X154736113Y-130825807D01*
X154738755Y-130831740D01*
X154740795Y-130838020D01*
X154767327Y-130883974D01*
X154774950Y-130897178D01*
X154777281Y-130901401D01*
X154779858Y-130906288D01*
X154780362Y-130907244D01*
X154794434Y-130976832D01*
X154768649Y-131042981D01*
X154711195Y-131084689D01*
X154668900Y-131092000D01*
X100634000Y-131092000D01*
X100565879Y-131071998D01*
X100519386Y-131018342D01*
X100508000Y-130966000D01*
X100508000Y-129621925D01*
X100528002Y-129553804D01*
X100581658Y-129507311D01*
X100651932Y-129497207D01*
X100716512Y-129526701D01*
X100750743Y-129574521D01*
X100783266Y-129654616D01*
X100806595Y-129692686D01*
X100895365Y-129837545D01*
X100899987Y-129845088D01*
X101046250Y-130013938D01*
X101218126Y-130156632D01*
X101411000Y-130269338D01*
X101619692Y-130349030D01*
X101624760Y-130350061D01*
X101624763Y-130350062D01*
X101676083Y-130360503D01*
X101838597Y-130393567D01*
X101843772Y-130393757D01*
X101843774Y-130393757D01*
X102056673Y-130401564D01*
X102056677Y-130401564D01*
X102061837Y-130401753D01*
X102066957Y-130401097D01*
X102066959Y-130401097D01*
X102278288Y-130374025D01*
X102278289Y-130374025D01*
X102283416Y-130373368D01*
X102288366Y-130371883D01*
X102492429Y-130310661D01*
X102492434Y-130310659D01*
X102497384Y-130309174D01*
X102697994Y-130210896D01*
X102879860Y-130081173D01*
X102896889Y-130064204D01*
X103004603Y-129956865D01*
X103038096Y-129923489D01*
X103041729Y-129918434D01*
X103165435Y-129746277D01*
X103168453Y-129742077D01*
X103174891Y-129729052D01*
X103265136Y-129546453D01*
X103265137Y-129546451D01*
X103267430Y-129541811D01*
X103332370Y-129328069D01*
X103361529Y-129106590D01*
X103363156Y-129040000D01*
X103344852Y-128817361D01*
X103290431Y-128600702D01*
X103201354Y-128395840D01*
X103160488Y-128332670D01*
X139532160Y-128332670D01*
X139537887Y-128340320D01*
X139709042Y-128445205D01*
X139717837Y-128449687D01*
X139927988Y-128536734D01*
X139937373Y-128539783D01*
X140158554Y-128592885D01*
X140168301Y-128594428D01*
X140395070Y-128612275D01*
X140404930Y-128612275D01*
X140631699Y-128594428D01*
X140641446Y-128592885D01*
X140862627Y-128539783D01*
X140872012Y-128536734D01*
X140916692Y-128518227D01*
X144691500Y-128518227D01*
X144691500Y-129174769D01*
X144691800Y-129177825D01*
X144691800Y-129177832D01*
X144692530Y-129185273D01*
X144705920Y-129321833D01*
X144763084Y-129511169D01*
X144855934Y-129685796D01*
X144907326Y-129748809D01*
X144977040Y-129834287D01*
X144977043Y-129834290D01*
X144980935Y-129839062D01*
X144985682Y-129842989D01*
X144985684Y-129842991D01*
X145128575Y-129961201D01*
X145128579Y-129961203D01*
X145133325Y-129965130D01*
X145307299Y-130059198D01*
X145496232Y-130117682D01*
X145502357Y-130118326D01*
X145502358Y-130118326D01*
X145686796Y-130137711D01*
X145686798Y-130137711D01*
X145692925Y-130138355D01*
X145787676Y-130129732D01*
X145883749Y-130120989D01*
X145883752Y-130120988D01*
X145889888Y-130120430D01*
X145895794Y-130118692D01*
X145895798Y-130118691D01*
X146035655Y-130077529D01*
X146079619Y-130064590D01*
X146085077Y-130061737D01*
X146085081Y-130061735D01*
X146190522Y-130006611D01*
X146254890Y-129972960D01*
X146409025Y-129849032D01*
X146536154Y-129697526D01*
X146539121Y-129692128D01*
X146539125Y-129692123D01*
X146628467Y-129529608D01*
X146631433Y-129524213D01*
X146633846Y-129516608D01*
X146689373Y-129341564D01*
X146689373Y-129341563D01*
X146691235Y-129335694D01*
X146708500Y-129181773D01*
X146708500Y-128525231D01*
X146707814Y-128518227D01*
X151691500Y-128518227D01*
X151691500Y-129174769D01*
X151691800Y-129177825D01*
X151691800Y-129177832D01*
X151692530Y-129185273D01*
X151705920Y-129321833D01*
X151763084Y-129511169D01*
X151855934Y-129685796D01*
X151907326Y-129748809D01*
X151977040Y-129834287D01*
X151977043Y-129834290D01*
X151980935Y-129839062D01*
X151985682Y-129842989D01*
X151985684Y-129842991D01*
X152128575Y-129961201D01*
X152128579Y-129961203D01*
X152133325Y-129965130D01*
X152307299Y-130059198D01*
X152496232Y-130117682D01*
X152502357Y-130118326D01*
X152502358Y-130118326D01*
X152686796Y-130137711D01*
X152686798Y-130137711D01*
X152692925Y-130138355D01*
X152787676Y-130129732D01*
X152883749Y-130120989D01*
X152883752Y-130120988D01*
X152889888Y-130120430D01*
X152895794Y-130118692D01*
X152895798Y-130118691D01*
X153035655Y-130077529D01*
X153079619Y-130064590D01*
X153085077Y-130061737D01*
X153085081Y-130061735D01*
X153190522Y-130006611D01*
X153254890Y-129972960D01*
X153409025Y-129849032D01*
X153536154Y-129697526D01*
X153539121Y-129692128D01*
X153539125Y-129692123D01*
X153628467Y-129529608D01*
X153631433Y-129524213D01*
X153633846Y-129516608D01*
X153689373Y-129341564D01*
X153689373Y-129341563D01*
X153691235Y-129335694D01*
X153708500Y-129181773D01*
X153708500Y-128525231D01*
X153707814Y-128518227D01*
X153700653Y-128445205D01*
X153694080Y-128378167D01*
X153692030Y-128371375D01*
X153642787Y-128208277D01*
X153636916Y-128188831D01*
X153544066Y-128014204D01*
X153457285Y-127907800D01*
X153422960Y-127865713D01*
X153422957Y-127865710D01*
X153419065Y-127860938D01*
X153412724Y-127855692D01*
X153271425Y-127738799D01*
X153271421Y-127738797D01*
X153266675Y-127734870D01*
X153092701Y-127640802D01*
X152903768Y-127582318D01*
X152897643Y-127581674D01*
X152897642Y-127581674D01*
X152713204Y-127562289D01*
X152713202Y-127562289D01*
X152707075Y-127561645D01*
X152624576Y-127569153D01*
X152516251Y-127579011D01*
X152516248Y-127579012D01*
X152510112Y-127579570D01*
X152504206Y-127581308D01*
X152504202Y-127581309D01*
X152399076Y-127612249D01*
X152320381Y-127635410D01*
X152314923Y-127638263D01*
X152314919Y-127638265D01*
X152252503Y-127670896D01*
X152145110Y-127727040D01*
X151990975Y-127850968D01*
X151863846Y-128002474D01*
X151860879Y-128007872D01*
X151860875Y-128007877D01*
X151839439Y-128046870D01*
X151768567Y-128175787D01*
X151766706Y-128181654D01*
X151766705Y-128181656D01*
X151716374Y-128340320D01*
X151708765Y-128364306D01*
X151691500Y-128518227D01*
X146707814Y-128518227D01*
X146700653Y-128445205D01*
X146694080Y-128378167D01*
X146692030Y-128371375D01*
X146642787Y-128208277D01*
X146636916Y-128188831D01*
X146544066Y-128014204D01*
X146457285Y-127907800D01*
X146422960Y-127865713D01*
X146422957Y-127865710D01*
X146419065Y-127860938D01*
X146412724Y-127855692D01*
X146271425Y-127738799D01*
X146271421Y-127738797D01*
X146266675Y-127734870D01*
X146092701Y-127640802D01*
X145903768Y-127582318D01*
X145897643Y-127581674D01*
X145897642Y-127581674D01*
X145713204Y-127562289D01*
X145713202Y-127562289D01*
X145707075Y-127561645D01*
X145624576Y-127569153D01*
X145516251Y-127579011D01*
X145516248Y-127579012D01*
X145510112Y-127579570D01*
X145504206Y-127581308D01*
X145504202Y-127581309D01*
X145399076Y-127612249D01*
X145320381Y-127635410D01*
X145314923Y-127638263D01*
X145314919Y-127638265D01*
X145252503Y-127670896D01*
X145145110Y-127727040D01*
X144990975Y-127850968D01*
X144863846Y-128002474D01*
X144860879Y-128007872D01*
X144860875Y-128007877D01*
X144839439Y-128046870D01*
X144768567Y-128175787D01*
X144766706Y-128181654D01*
X144766705Y-128181656D01*
X144716374Y-128340320D01*
X144708765Y-128364306D01*
X144691500Y-128518227D01*
X140916692Y-128518227D01*
X141082163Y-128449687D01*
X141090958Y-128445205D01*
X141258445Y-128342568D01*
X141267907Y-128332110D01*
X141264124Y-128323334D01*
X140412812Y-127472022D01*
X140398868Y-127464408D01*
X140397035Y-127464539D01*
X140390420Y-127468790D01*
X139538920Y-128320290D01*
X139532160Y-128332670D01*
X103160488Y-128332670D01*
X103154448Y-128323334D01*
X103082822Y-128212617D01*
X103082820Y-128212614D01*
X103080014Y-128208277D01*
X102929670Y-128043051D01*
X102925619Y-128039852D01*
X102925615Y-128039848D01*
X102758414Y-127907800D01*
X102758410Y-127907798D01*
X102754359Y-127904598D01*
X102713053Y-127881796D01*
X102663084Y-127831364D01*
X102648312Y-127761921D01*
X102673428Y-127695516D01*
X102700780Y-127668909D01*
X102750183Y-127633670D01*
X102879860Y-127541173D01*
X103038096Y-127383489D01*
X103097594Y-127300689D01*
X103165435Y-127206277D01*
X103168453Y-127202077D01*
X103202506Y-127133177D01*
X103221339Y-127095070D01*
X138887725Y-127095070D01*
X138887725Y-127104930D01*
X138905572Y-127331699D01*
X138907115Y-127341446D01*
X138960217Y-127562627D01*
X138963266Y-127572012D01*
X139050313Y-127782163D01*
X139054795Y-127790958D01*
X139157432Y-127958445D01*
X139167890Y-127967907D01*
X139176666Y-127964124D01*
X140027978Y-127112812D01*
X140034356Y-127101132D01*
X140764408Y-127101132D01*
X140764539Y-127102965D01*
X140768790Y-127109580D01*
X141620290Y-127961080D01*
X141632670Y-127967840D01*
X141640320Y-127962113D01*
X141745205Y-127790958D01*
X141749687Y-127782163D01*
X141836734Y-127572012D01*
X141839783Y-127562627D01*
X141892885Y-127341446D01*
X141894428Y-127331699D01*
X141912275Y-127104930D01*
X141912275Y-127095070D01*
X141894428Y-126868301D01*
X141892885Y-126858554D01*
X141839783Y-126637373D01*
X141836734Y-126627988D01*
X141749687Y-126417837D01*
X141745205Y-126409042D01*
X141642568Y-126241555D01*
X141632110Y-126232093D01*
X141623334Y-126235876D01*
X140772022Y-127087188D01*
X140764408Y-127101132D01*
X140034356Y-127101132D01*
X140035592Y-127098868D01*
X140035461Y-127097035D01*
X140031210Y-127090420D01*
X139179710Y-126238920D01*
X139167330Y-126232160D01*
X139159680Y-126237887D01*
X139054795Y-126409042D01*
X139050313Y-126417837D01*
X138963266Y-126627988D01*
X138960217Y-126637373D01*
X138907115Y-126858554D01*
X138905572Y-126868301D01*
X138887725Y-127095070D01*
X103221339Y-127095070D01*
X103265136Y-127006453D01*
X103265137Y-127006451D01*
X103267430Y-127001811D01*
X103332370Y-126788069D01*
X103361529Y-126566590D01*
X103363156Y-126500000D01*
X103344852Y-126277361D01*
X103290431Y-126060702D01*
X103206594Y-125867890D01*
X139532093Y-125867890D01*
X139535876Y-125876666D01*
X140387188Y-126727978D01*
X140401132Y-126735592D01*
X140402965Y-126735461D01*
X140409580Y-126731210D01*
X140942498Y-126198292D01*
X145562608Y-126198292D01*
X145592486Y-126395848D01*
X145594689Y-126401835D01*
X145594689Y-126401836D01*
X145656527Y-126569908D01*
X145661477Y-126583361D01*
X145766765Y-126753172D01*
X145904047Y-126898344D01*
X145993254Y-126960807D01*
X146051814Y-127001811D01*
X146067716Y-127012946D01*
X146251086Y-127092298D01*
X146446666Y-127133156D01*
X146451522Y-127133411D01*
X146451561Y-127133413D01*
X146451577Y-127133413D01*
X146453229Y-127133500D01*
X146899934Y-127133500D01*
X146929230Y-127130524D01*
X147042434Y-127119026D01*
X147042438Y-127119025D01*
X147048780Y-127118381D01*
X147182043Y-127076619D01*
X147233349Y-127060540D01*
X147233350Y-127060539D01*
X147239440Y-127058631D01*
X147276770Y-127037939D01*
X147383614Y-126978714D01*
X147414191Y-126961765D01*
X147419509Y-126957207D01*
X147561052Y-126835891D01*
X147561053Y-126835890D01*
X147565896Y-126831739D01*
X147569805Y-126826700D01*
X147684445Y-126678907D01*
X147684447Y-126678904D01*
X147688357Y-126673863D01*
X147706313Y-126637373D01*
X147773752Y-126500318D01*
X147776571Y-126494589D01*
X147826935Y-126301238D01*
X147832330Y-126198292D01*
X150562608Y-126198292D01*
X150592486Y-126395848D01*
X150594689Y-126401835D01*
X150594689Y-126401836D01*
X150656527Y-126569908D01*
X150661477Y-126583361D01*
X150766765Y-126753172D01*
X150904047Y-126898344D01*
X150993254Y-126960807D01*
X151051814Y-127001811D01*
X151067716Y-127012946D01*
X151251086Y-127092298D01*
X151446666Y-127133156D01*
X151451522Y-127133411D01*
X151451561Y-127133413D01*
X151451577Y-127133413D01*
X151453229Y-127133500D01*
X151899934Y-127133500D01*
X151929230Y-127130524D01*
X152042434Y-127119026D01*
X152042438Y-127119025D01*
X152048780Y-127118381D01*
X152182043Y-127076619D01*
X152233349Y-127060540D01*
X152233350Y-127060539D01*
X152239440Y-127058631D01*
X152276770Y-127037939D01*
X152383614Y-126978714D01*
X152414191Y-126961765D01*
X152419509Y-126957207D01*
X152561052Y-126835891D01*
X152561053Y-126835890D01*
X152565896Y-126831739D01*
X152569805Y-126826700D01*
X152684445Y-126678907D01*
X152684447Y-126678904D01*
X152688357Y-126673863D01*
X152706313Y-126637373D01*
X152773752Y-126500318D01*
X152776571Y-126494589D01*
X152826935Y-126301238D01*
X152837392Y-126101708D01*
X152807514Y-125904152D01*
X152791487Y-125860590D01*
X152740727Y-125722629D01*
X152740727Y-125722628D01*
X152738523Y-125716639D01*
X152633235Y-125546828D01*
X152495953Y-125401656D01*
X152332284Y-125287054D01*
X152148914Y-125207702D01*
X151953334Y-125166844D01*
X151948478Y-125166589D01*
X151948439Y-125166587D01*
X151948423Y-125166587D01*
X151946771Y-125166500D01*
X151500066Y-125166500D01*
X151486933Y-125167834D01*
X151357566Y-125180974D01*
X151357562Y-125180975D01*
X151351220Y-125181619D01*
X151259898Y-125210238D01*
X151166651Y-125239460D01*
X151166650Y-125239461D01*
X151160560Y-125241369D01*
X150985809Y-125338235D01*
X150980960Y-125342391D01*
X150955051Y-125364598D01*
X150834104Y-125468261D01*
X150830197Y-125473298D01*
X150830195Y-125473300D01*
X150715555Y-125621093D01*
X150715553Y-125621096D01*
X150711643Y-125626137D01*
X150708825Y-125631863D01*
X150708823Y-125631867D01*
X150648335Y-125754795D01*
X150623429Y-125805411D01*
X150573065Y-125998762D01*
X150562608Y-126198292D01*
X147832330Y-126198292D01*
X147837392Y-126101708D01*
X147807514Y-125904152D01*
X147791487Y-125860590D01*
X147740727Y-125722629D01*
X147740727Y-125722628D01*
X147738523Y-125716639D01*
X147633235Y-125546828D01*
X147495953Y-125401656D01*
X147332284Y-125287054D01*
X147148914Y-125207702D01*
X146953334Y-125166844D01*
X146948478Y-125166589D01*
X146948439Y-125166587D01*
X146948423Y-125166587D01*
X146946771Y-125166500D01*
X146500066Y-125166500D01*
X146486933Y-125167834D01*
X146357566Y-125180974D01*
X146357562Y-125180975D01*
X146351220Y-125181619D01*
X146259898Y-125210238D01*
X146166651Y-125239460D01*
X146166650Y-125239461D01*
X146160560Y-125241369D01*
X145985809Y-125338235D01*
X145980960Y-125342391D01*
X145955051Y-125364598D01*
X145834104Y-125468261D01*
X145830197Y-125473298D01*
X145830195Y-125473300D01*
X145715555Y-125621093D01*
X145715553Y-125621096D01*
X145711643Y-125626137D01*
X145708825Y-125631863D01*
X145708823Y-125631867D01*
X145648335Y-125754795D01*
X145623429Y-125805411D01*
X145573065Y-125998762D01*
X145562608Y-126198292D01*
X140942498Y-126198292D01*
X141261080Y-125879710D01*
X141267840Y-125867330D01*
X141262113Y-125859680D01*
X141090958Y-125754795D01*
X141082163Y-125750313D01*
X140872012Y-125663266D01*
X140862627Y-125660217D01*
X140641446Y-125607115D01*
X140631699Y-125605572D01*
X140404930Y-125587725D01*
X140395070Y-125587725D01*
X140168301Y-125605572D01*
X140158554Y-125607115D01*
X139937373Y-125660217D01*
X139927988Y-125663266D01*
X139717837Y-125750313D01*
X139709042Y-125754795D01*
X139541555Y-125857432D01*
X139532093Y-125867890D01*
X103206594Y-125867890D01*
X103201354Y-125855840D01*
X103135985Y-125754795D01*
X103082822Y-125672617D01*
X103082820Y-125672614D01*
X103080014Y-125668277D01*
X102929670Y-125503051D01*
X102925619Y-125499852D01*
X102925615Y-125499848D01*
X102758414Y-125367800D01*
X102758410Y-125367798D01*
X102754359Y-125364598D01*
X102713053Y-125341796D01*
X102663084Y-125291364D01*
X102648312Y-125221921D01*
X102673428Y-125155516D01*
X102700780Y-125128909D01*
X102744603Y-125097650D01*
X102879860Y-125001173D01*
X103038096Y-124843489D01*
X103097594Y-124760689D01*
X103165435Y-124666277D01*
X103168453Y-124662077D01*
X103227836Y-124541925D01*
X103265136Y-124466453D01*
X103265137Y-124466451D01*
X103267430Y-124461811D01*
X103332370Y-124248069D01*
X103361529Y-124026590D01*
X103363156Y-123960000D01*
X103344852Y-123737361D01*
X103290431Y-123520702D01*
X103201354Y-123315840D01*
X103112742Y-123178866D01*
X103082822Y-123132617D01*
X103082820Y-123132614D01*
X103080014Y-123128277D01*
X102929670Y-122963051D01*
X102925619Y-122959852D01*
X102925615Y-122959848D01*
X102758414Y-122827800D01*
X102758410Y-122827798D01*
X102754359Y-122824598D01*
X102713053Y-122801796D01*
X102663084Y-122751364D01*
X102648312Y-122681921D01*
X102673428Y-122615516D01*
X102700780Y-122588909D01*
X102744603Y-122557650D01*
X102825426Y-122500000D01*
X115186496Y-122500000D01*
X115206458Y-122689928D01*
X115265473Y-122871556D01*
X115360960Y-123036944D01*
X115365378Y-123041851D01*
X115365379Y-123041852D01*
X115447104Y-123132617D01*
X115488747Y-123178866D01*
X115587843Y-123250864D01*
X115637140Y-123286680D01*
X115643248Y-123291118D01*
X115649276Y-123293802D01*
X115649278Y-123293803D01*
X115811681Y-123366109D01*
X115817712Y-123368794D01*
X115911112Y-123388647D01*
X115998056Y-123407128D01*
X115998061Y-123407128D01*
X116004513Y-123408500D01*
X116195487Y-123408500D01*
X116201939Y-123407128D01*
X116201944Y-123407128D01*
X116288888Y-123388647D01*
X116382288Y-123368794D01*
X116388319Y-123366109D01*
X116550722Y-123293803D01*
X116550724Y-123293802D01*
X116556752Y-123291118D01*
X116562861Y-123286680D01*
X116612157Y-123250864D01*
X116711253Y-123178866D01*
X116752896Y-123132617D01*
X116834621Y-123041852D01*
X116834622Y-123041851D01*
X116839040Y-123036944D01*
X116934527Y-122871556D01*
X116993542Y-122689928D01*
X117013504Y-122500000D01*
X119986496Y-122500000D01*
X120006458Y-122689928D01*
X120065473Y-122871556D01*
X120160960Y-123036944D01*
X120165378Y-123041851D01*
X120165379Y-123041852D01*
X120247104Y-123132617D01*
X120288747Y-123178866D01*
X120387843Y-123250864D01*
X120437140Y-123286680D01*
X120443248Y-123291118D01*
X120449276Y-123293802D01*
X120449278Y-123293803D01*
X120611681Y-123366109D01*
X120617712Y-123368794D01*
X120711112Y-123388647D01*
X120798056Y-123407128D01*
X120798061Y-123407128D01*
X120804513Y-123408500D01*
X120995487Y-123408500D01*
X121001939Y-123407128D01*
X121001944Y-123407128D01*
X121088888Y-123388647D01*
X121182288Y-123368794D01*
X121188319Y-123366109D01*
X121350722Y-123293803D01*
X121350724Y-123293802D01*
X121356752Y-123291118D01*
X121362861Y-123286680D01*
X121412157Y-123250864D01*
X121511253Y-123178866D01*
X121552896Y-123132617D01*
X121634621Y-123041852D01*
X121634622Y-123041851D01*
X121639040Y-123036944D01*
X121734527Y-122871556D01*
X121793542Y-122689928D01*
X121813504Y-122500000D01*
X124886496Y-122500000D01*
X124906458Y-122689928D01*
X124965473Y-122871556D01*
X125060960Y-123036944D01*
X125065378Y-123041851D01*
X125065379Y-123041852D01*
X125147104Y-123132617D01*
X125188747Y-123178866D01*
X125287843Y-123250864D01*
X125337140Y-123286680D01*
X125343248Y-123291118D01*
X125349276Y-123293802D01*
X125349278Y-123293803D01*
X125511681Y-123366109D01*
X125517712Y-123368794D01*
X125611112Y-123388647D01*
X125698056Y-123407128D01*
X125698061Y-123407128D01*
X125704513Y-123408500D01*
X125895487Y-123408500D01*
X125901939Y-123407128D01*
X125901944Y-123407128D01*
X125988888Y-123388647D01*
X126082288Y-123368794D01*
X126088319Y-123366109D01*
X126250722Y-123293803D01*
X126250724Y-123293802D01*
X126256752Y-123291118D01*
X126262861Y-123286680D01*
X126312157Y-123250864D01*
X126411253Y-123178866D01*
X126452896Y-123132617D01*
X126534621Y-123041852D01*
X126534622Y-123041851D01*
X126539040Y-123036944D01*
X126634527Y-122871556D01*
X126693542Y-122689928D01*
X126713504Y-122500000D01*
X129786496Y-122500000D01*
X129806458Y-122689928D01*
X129865473Y-122871556D01*
X129960960Y-123036944D01*
X129965378Y-123041851D01*
X129965379Y-123041852D01*
X130047104Y-123132617D01*
X130088747Y-123178866D01*
X130187843Y-123250864D01*
X130237140Y-123286680D01*
X130243248Y-123291118D01*
X130249276Y-123293802D01*
X130249278Y-123293803D01*
X130411681Y-123366109D01*
X130417712Y-123368794D01*
X130511112Y-123388647D01*
X130598056Y-123407128D01*
X130598061Y-123407128D01*
X130604513Y-123408500D01*
X130795487Y-123408500D01*
X130801939Y-123407128D01*
X130801944Y-123407128D01*
X130888888Y-123388647D01*
X130982288Y-123368794D01*
X130988319Y-123366109D01*
X131150722Y-123293803D01*
X131150724Y-123293802D01*
X131156752Y-123291118D01*
X131162861Y-123286680D01*
X131212157Y-123250864D01*
X131311253Y-123178866D01*
X131352896Y-123132617D01*
X131434621Y-123041852D01*
X131434622Y-123041851D01*
X131439040Y-123036944D01*
X131534527Y-122871556D01*
X131593542Y-122689928D01*
X131613504Y-122500000D01*
X134786496Y-122500000D01*
X134806458Y-122689928D01*
X134865473Y-122871556D01*
X134960960Y-123036944D01*
X134965378Y-123041851D01*
X134965379Y-123041852D01*
X135047104Y-123132617D01*
X135088747Y-123178866D01*
X135187843Y-123250864D01*
X135237140Y-123286680D01*
X135243248Y-123291118D01*
X135249276Y-123293802D01*
X135249278Y-123293803D01*
X135411681Y-123366109D01*
X135417712Y-123368794D01*
X135511112Y-123388647D01*
X135598056Y-123407128D01*
X135598061Y-123407128D01*
X135604513Y-123408500D01*
X135795487Y-123408500D01*
X135801939Y-123407128D01*
X135801944Y-123407128D01*
X135888888Y-123388647D01*
X135982288Y-123368794D01*
X135988319Y-123366109D01*
X136150722Y-123293803D01*
X136150724Y-123293802D01*
X136156752Y-123291118D01*
X136162861Y-123286680D01*
X136212157Y-123250864D01*
X136311253Y-123178866D01*
X136352896Y-123132617D01*
X136434621Y-123041852D01*
X136434622Y-123041851D01*
X136439040Y-123036944D01*
X136534527Y-122871556D01*
X136593542Y-122689928D01*
X136613504Y-122500000D01*
X136593542Y-122310072D01*
X136534527Y-122128444D01*
X136439040Y-121963056D01*
X136412702Y-121933804D01*
X136315675Y-121826045D01*
X136315674Y-121826044D01*
X136311253Y-121821134D01*
X136156752Y-121708882D01*
X136150724Y-121706198D01*
X136150722Y-121706197D01*
X135988319Y-121633891D01*
X135988318Y-121633891D01*
X135982288Y-121631206D01*
X135888887Y-121611353D01*
X135801944Y-121592872D01*
X135801939Y-121592872D01*
X135795487Y-121591500D01*
X135604513Y-121591500D01*
X135598061Y-121592872D01*
X135598056Y-121592872D01*
X135511113Y-121611353D01*
X135417712Y-121631206D01*
X135411682Y-121633891D01*
X135411681Y-121633891D01*
X135249278Y-121706197D01*
X135249276Y-121706198D01*
X135243248Y-121708882D01*
X135088747Y-121821134D01*
X135084326Y-121826044D01*
X135084325Y-121826045D01*
X134987299Y-121933804D01*
X134960960Y-121963056D01*
X134865473Y-122128444D01*
X134806458Y-122310072D01*
X134786496Y-122500000D01*
X131613504Y-122500000D01*
X131593542Y-122310072D01*
X131534527Y-122128444D01*
X131439040Y-121963056D01*
X131412702Y-121933804D01*
X131315675Y-121826045D01*
X131315674Y-121826044D01*
X131311253Y-121821134D01*
X131156752Y-121708882D01*
X131150724Y-121706198D01*
X131150722Y-121706197D01*
X130988319Y-121633891D01*
X130988318Y-121633891D01*
X130982288Y-121631206D01*
X130888887Y-121611353D01*
X130801944Y-121592872D01*
X130801939Y-121592872D01*
X130795487Y-121591500D01*
X130604513Y-121591500D01*
X130598061Y-121592872D01*
X130598056Y-121592872D01*
X130511113Y-121611353D01*
X130417712Y-121631206D01*
X130411682Y-121633891D01*
X130411681Y-121633891D01*
X130249278Y-121706197D01*
X130249276Y-121706198D01*
X130243248Y-121708882D01*
X130088747Y-121821134D01*
X130084326Y-121826044D01*
X130084325Y-121826045D01*
X129987299Y-121933804D01*
X129960960Y-121963056D01*
X129865473Y-122128444D01*
X129806458Y-122310072D01*
X129786496Y-122500000D01*
X126713504Y-122500000D01*
X126693542Y-122310072D01*
X126634527Y-122128444D01*
X126539040Y-121963056D01*
X126512702Y-121933804D01*
X126415675Y-121826045D01*
X126415674Y-121826044D01*
X126411253Y-121821134D01*
X126256752Y-121708882D01*
X126250724Y-121706198D01*
X126250722Y-121706197D01*
X126088319Y-121633891D01*
X126088318Y-121633891D01*
X126082288Y-121631206D01*
X125988887Y-121611353D01*
X125901944Y-121592872D01*
X125901939Y-121592872D01*
X125895487Y-121591500D01*
X125704513Y-121591500D01*
X125698061Y-121592872D01*
X125698056Y-121592872D01*
X125611113Y-121611353D01*
X125517712Y-121631206D01*
X125511682Y-121633891D01*
X125511681Y-121633891D01*
X125349278Y-121706197D01*
X125349276Y-121706198D01*
X125343248Y-121708882D01*
X125188747Y-121821134D01*
X125184326Y-121826044D01*
X125184325Y-121826045D01*
X125087299Y-121933804D01*
X125060960Y-121963056D01*
X124965473Y-122128444D01*
X124906458Y-122310072D01*
X124886496Y-122500000D01*
X121813504Y-122500000D01*
X121793542Y-122310072D01*
X121734527Y-122128444D01*
X121639040Y-121963056D01*
X121612702Y-121933804D01*
X121515675Y-121826045D01*
X121515674Y-121826044D01*
X121511253Y-121821134D01*
X121356752Y-121708882D01*
X121350724Y-121706198D01*
X121350722Y-121706197D01*
X121188319Y-121633891D01*
X121188318Y-121633891D01*
X121182288Y-121631206D01*
X121088887Y-121611353D01*
X121001944Y-121592872D01*
X121001939Y-121592872D01*
X120995487Y-121591500D01*
X120804513Y-121591500D01*
X120798061Y-121592872D01*
X120798056Y-121592872D01*
X120711113Y-121611353D01*
X120617712Y-121631206D01*
X120611682Y-121633891D01*
X120611681Y-121633891D01*
X120449278Y-121706197D01*
X120449276Y-121706198D01*
X120443248Y-121708882D01*
X120288747Y-121821134D01*
X120284326Y-121826044D01*
X120284325Y-121826045D01*
X120187299Y-121933804D01*
X120160960Y-121963056D01*
X120065473Y-122128444D01*
X120006458Y-122310072D01*
X119986496Y-122500000D01*
X117013504Y-122500000D01*
X116993542Y-122310072D01*
X116934527Y-122128444D01*
X116839040Y-121963056D01*
X116812702Y-121933804D01*
X116715675Y-121826045D01*
X116715674Y-121826044D01*
X116711253Y-121821134D01*
X116556752Y-121708882D01*
X116550724Y-121706198D01*
X116550722Y-121706197D01*
X116388319Y-121633891D01*
X116388318Y-121633891D01*
X116382288Y-121631206D01*
X116288887Y-121611353D01*
X116201944Y-121592872D01*
X116201939Y-121592872D01*
X116195487Y-121591500D01*
X116004513Y-121591500D01*
X115998061Y-121592872D01*
X115998056Y-121592872D01*
X115911113Y-121611353D01*
X115817712Y-121631206D01*
X115811682Y-121633891D01*
X115811681Y-121633891D01*
X115649278Y-121706197D01*
X115649276Y-121706198D01*
X115643248Y-121708882D01*
X115488747Y-121821134D01*
X115484326Y-121826044D01*
X115484325Y-121826045D01*
X115387299Y-121933804D01*
X115360960Y-121963056D01*
X115265473Y-122128444D01*
X115206458Y-122310072D01*
X115186496Y-122500000D01*
X102825426Y-122500000D01*
X102879860Y-122461173D01*
X103038096Y-122303489D01*
X103097594Y-122220689D01*
X103165435Y-122126277D01*
X103168453Y-122122077D01*
X103227836Y-122001925D01*
X103265136Y-121926453D01*
X103265137Y-121926451D01*
X103267430Y-121921811D01*
X103332370Y-121708069D01*
X103361529Y-121486590D01*
X103363156Y-121420000D01*
X103344852Y-121197361D01*
X103290431Y-120980702D01*
X103201354Y-120775840D01*
X103080014Y-120588277D01*
X102929670Y-120423051D01*
X102925619Y-120419852D01*
X102925615Y-120419848D01*
X102758414Y-120287800D01*
X102758410Y-120287798D01*
X102754359Y-120284598D01*
X102713053Y-120261796D01*
X102663084Y-120211364D01*
X102648312Y-120141921D01*
X102673428Y-120075516D01*
X102700780Y-120048909D01*
X102762017Y-120005229D01*
X102879860Y-119921173D01*
X103038096Y-119763489D01*
X103097594Y-119680689D01*
X103165435Y-119586277D01*
X103168453Y-119582077D01*
X103227836Y-119461925D01*
X103265136Y-119386453D01*
X103265137Y-119386451D01*
X103267430Y-119381811D01*
X103332370Y-119168069D01*
X103361529Y-118946590D01*
X103363156Y-118880000D01*
X103344852Y-118657361D01*
X103290431Y-118440702D01*
X103201354Y-118235840D01*
X103080014Y-118048277D01*
X102929670Y-117883051D01*
X102925619Y-117879852D01*
X102925615Y-117879848D01*
X102839535Y-117811866D01*
X151141500Y-117811866D01*
X151141500Y-119608134D01*
X151148255Y-119670316D01*
X151199385Y-119806705D01*
X151286739Y-119923261D01*
X151403295Y-120010615D01*
X151539684Y-120061745D01*
X151601866Y-120068500D01*
X153398134Y-120068500D01*
X153460316Y-120061745D01*
X153596705Y-120010615D01*
X153713261Y-119923261D01*
X153800615Y-119806705D01*
X153851745Y-119670316D01*
X153858500Y-119608134D01*
X153858500Y-117811866D01*
X153851745Y-117749684D01*
X153800615Y-117613295D01*
X153713261Y-117496739D01*
X153596705Y-117409385D01*
X153460316Y-117358255D01*
X153398134Y-117351500D01*
X153364452Y-117351500D01*
X153296331Y-117331498D01*
X153253177Y-117284610D01*
X153250658Y-117279868D01*
X152512812Y-116542022D01*
X152498868Y-116534408D01*
X152497035Y-116534539D01*
X152490420Y-116538790D01*
X151746737Y-117282473D01*
X151744874Y-117285885D01*
X151694672Y-117336087D01*
X151634286Y-117351500D01*
X151601866Y-117351500D01*
X151539684Y-117358255D01*
X151403295Y-117409385D01*
X151286739Y-117496739D01*
X151199385Y-117613295D01*
X151148255Y-117749684D01*
X151141500Y-117811866D01*
X102839535Y-117811866D01*
X102758414Y-117747800D01*
X102758410Y-117747798D01*
X102754359Y-117744598D01*
X102713053Y-117721796D01*
X102663084Y-117671364D01*
X102648312Y-117601921D01*
X102673428Y-117535516D01*
X102700780Y-117508909D01*
X102744603Y-117477650D01*
X102879860Y-117381173D01*
X103038096Y-117223489D01*
X103097594Y-117140689D01*
X103165435Y-117046277D01*
X103168453Y-117042077D01*
X103224921Y-116927823D01*
X103265136Y-116846453D01*
X103265137Y-116846451D01*
X103267430Y-116841811D01*
X103317726Y-116676267D01*
X103330865Y-116633023D01*
X103330865Y-116633021D01*
X103332370Y-116628069D01*
X103361529Y-116406590D01*
X103363156Y-116340000D01*
X103346866Y-116141863D01*
X151138050Y-116141863D01*
X151150309Y-116354477D01*
X151151745Y-116364697D01*
X151198565Y-116572446D01*
X151201645Y-116582275D01*
X151281770Y-116779603D01*
X151286413Y-116788794D01*
X151366460Y-116919420D01*
X151376916Y-116928880D01*
X151385694Y-116925096D01*
X152127978Y-116182812D01*
X152134356Y-116171132D01*
X152864408Y-116171132D01*
X152864539Y-116172965D01*
X152868790Y-116179580D01*
X153610474Y-116921264D01*
X153622484Y-116927823D01*
X153634223Y-116918855D01*
X153665004Y-116876019D01*
X153670315Y-116867180D01*
X153764670Y-116676267D01*
X153768469Y-116666672D01*
X153830376Y-116462915D01*
X153832555Y-116452834D01*
X153860590Y-116239887D01*
X153861109Y-116233212D01*
X153862572Y-116173364D01*
X153862378Y-116166646D01*
X153844781Y-115952604D01*
X153843096Y-115942424D01*
X153791214Y-115735875D01*
X153787894Y-115726124D01*
X153702972Y-115530814D01*
X153698105Y-115521739D01*
X153633063Y-115421197D01*
X153622377Y-115411995D01*
X153612812Y-115416398D01*
X152872022Y-116157188D01*
X152864408Y-116171132D01*
X152134356Y-116171132D01*
X152135592Y-116168868D01*
X152135461Y-116167035D01*
X152131210Y-116160420D01*
X151389849Y-115419059D01*
X151378313Y-115412759D01*
X151366031Y-115422382D01*
X151318089Y-115492662D01*
X151313004Y-115501613D01*
X151223338Y-115694783D01*
X151219775Y-115704470D01*
X151162864Y-115909681D01*
X151160933Y-115919800D01*
X151138302Y-116131574D01*
X151138050Y-116141863D01*
X103346866Y-116141863D01*
X103344852Y-116117361D01*
X103290431Y-115900702D01*
X103201354Y-115695840D01*
X103080014Y-115508277D01*
X102929670Y-115343051D01*
X102925619Y-115339852D01*
X102925615Y-115339848D01*
X102758414Y-115207800D01*
X102758410Y-115207798D01*
X102754359Y-115204598D01*
X102713053Y-115181796D01*
X102663084Y-115131364D01*
X102648312Y-115061921D01*
X102673428Y-114995516D01*
X102700780Y-114968909D01*
X102744603Y-114937650D01*
X102797387Y-114900000D01*
X144486496Y-114900000D01*
X144487186Y-114906565D01*
X144504274Y-115069144D01*
X144506458Y-115089928D01*
X144565473Y-115271556D01*
X144660960Y-115436944D01*
X144788747Y-115578866D01*
X144943248Y-115691118D01*
X144949276Y-115693802D01*
X144949278Y-115693803D01*
X144973237Y-115704470D01*
X145117712Y-115768794D01*
X145211113Y-115788647D01*
X145298056Y-115807128D01*
X145298061Y-115807128D01*
X145304513Y-115808500D01*
X145495487Y-115808500D01*
X145501939Y-115807128D01*
X145501944Y-115807128D01*
X145588887Y-115788647D01*
X145682288Y-115768794D01*
X145826763Y-115704470D01*
X145850722Y-115693803D01*
X145850724Y-115693802D01*
X145856752Y-115691118D01*
X146011253Y-115578866D01*
X146139040Y-115436944D01*
X146234527Y-115271556D01*
X146293542Y-115089928D01*
X146295727Y-115069144D01*
X146312814Y-114906565D01*
X146313504Y-114900000D01*
X146306938Y-114837529D01*
X146294232Y-114716635D01*
X146294232Y-114716633D01*
X146293542Y-114710072D01*
X146234527Y-114528444D01*
X146139040Y-114363056D01*
X146111147Y-114332077D01*
X146015675Y-114226045D01*
X146015674Y-114226044D01*
X146011253Y-114221134D01*
X145888311Y-114131811D01*
X145862094Y-114112763D01*
X145862093Y-114112762D01*
X145856752Y-114108882D01*
X145850724Y-114106198D01*
X145850722Y-114106197D01*
X145688319Y-114033891D01*
X145688318Y-114033891D01*
X145682288Y-114031206D01*
X145588888Y-114011353D01*
X145501944Y-113992872D01*
X145501939Y-113992872D01*
X145495487Y-113991500D01*
X145304513Y-113991500D01*
X145298061Y-113992872D01*
X145298056Y-113992872D01*
X145211112Y-114011353D01*
X145117712Y-114031206D01*
X145111682Y-114033891D01*
X145111681Y-114033891D01*
X144949278Y-114106197D01*
X144949276Y-114106198D01*
X144943248Y-114108882D01*
X144937907Y-114112762D01*
X144937906Y-114112763D01*
X144911689Y-114131811D01*
X144788747Y-114221134D01*
X144784326Y-114226044D01*
X144784325Y-114226045D01*
X144688854Y-114332077D01*
X144660960Y-114363056D01*
X144565473Y-114528444D01*
X144506458Y-114710072D01*
X144505768Y-114716633D01*
X144505768Y-114716635D01*
X144493062Y-114837529D01*
X144486496Y-114900000D01*
X102797387Y-114900000D01*
X102879860Y-114841173D01*
X103038096Y-114683489D01*
X103049565Y-114667529D01*
X103165435Y-114506277D01*
X103168453Y-114502077D01*
X103199633Y-114438990D01*
X103265136Y-114306453D01*
X103265137Y-114306451D01*
X103267430Y-114301811D01*
X103332370Y-114088069D01*
X103361529Y-113866590D01*
X103362551Y-113824767D01*
X103363074Y-113803365D01*
X103363074Y-113803361D01*
X103363156Y-113800000D01*
X103344852Y-113577361D01*
X103290431Y-113360702D01*
X103201354Y-113155840D01*
X103080014Y-112968277D01*
X102929670Y-112803051D01*
X102925619Y-112799852D01*
X102925615Y-112799848D01*
X102758414Y-112667800D01*
X102758410Y-112667798D01*
X102754359Y-112664598D01*
X102713053Y-112641796D01*
X102663084Y-112591364D01*
X102648312Y-112521921D01*
X102673428Y-112455516D01*
X102700780Y-112428909D01*
X102760042Y-112386638D01*
X102879860Y-112301173D01*
X103038096Y-112143489D01*
X103049565Y-112127529D01*
X103165435Y-111966277D01*
X103168453Y-111962077D01*
X103199633Y-111898990D01*
X103265136Y-111766453D01*
X103265137Y-111766451D01*
X103267430Y-111761811D01*
X103332370Y-111548069D01*
X103361529Y-111326590D01*
X103362600Y-111282749D01*
X103363074Y-111263365D01*
X103363074Y-111263361D01*
X103363156Y-111260000D01*
X103344852Y-111037361D01*
X103290431Y-110820702D01*
X103201354Y-110615840D01*
X103191107Y-110600000D01*
X110886496Y-110600000D01*
X110887186Y-110606565D01*
X110894880Y-110679765D01*
X110906458Y-110789928D01*
X110965473Y-110971556D01*
X111060960Y-111136944D01*
X111188747Y-111278866D01*
X111254433Y-111326590D01*
X111325288Y-111378069D01*
X111343248Y-111391118D01*
X111349276Y-111393802D01*
X111349278Y-111393803D01*
X111511681Y-111466109D01*
X111517712Y-111468794D01*
X111611113Y-111488647D01*
X111698056Y-111507128D01*
X111698061Y-111507128D01*
X111704513Y-111508500D01*
X111895487Y-111508500D01*
X111901939Y-111507128D01*
X111901944Y-111507128D01*
X111988887Y-111488647D01*
X112082288Y-111468794D01*
X112088319Y-111466109D01*
X112250722Y-111393803D01*
X112250724Y-111393802D01*
X112256752Y-111391118D01*
X112274713Y-111378069D01*
X112345567Y-111326590D01*
X112411253Y-111278866D01*
X112539040Y-111136944D01*
X112634527Y-110971556D01*
X112693542Y-110789928D01*
X112705121Y-110679765D01*
X112712814Y-110606565D01*
X112713504Y-110600000D01*
X119086496Y-110600000D01*
X119087186Y-110606565D01*
X119094880Y-110679765D01*
X119106458Y-110789928D01*
X119165473Y-110971556D01*
X119260960Y-111136944D01*
X119388747Y-111278866D01*
X119454433Y-111326590D01*
X119525288Y-111378069D01*
X119543248Y-111391118D01*
X119549276Y-111393802D01*
X119549278Y-111393803D01*
X119711681Y-111466109D01*
X119717712Y-111468794D01*
X119811113Y-111488647D01*
X119898056Y-111507128D01*
X119898061Y-111507128D01*
X119904513Y-111508500D01*
X120095487Y-111508500D01*
X120101939Y-111507128D01*
X120101944Y-111507128D01*
X120188887Y-111488647D01*
X120282288Y-111468794D01*
X120288319Y-111466109D01*
X120450722Y-111393803D01*
X120450724Y-111393802D01*
X120456752Y-111391118D01*
X120474713Y-111378069D01*
X120545567Y-111326590D01*
X120611253Y-111278866D01*
X120739040Y-111136944D01*
X120834527Y-110971556D01*
X120893542Y-110789928D01*
X120905121Y-110679765D01*
X120912814Y-110606565D01*
X120913504Y-110600000D01*
X120897301Y-110445840D01*
X120894232Y-110416635D01*
X120894232Y-110416633D01*
X120893542Y-110410072D01*
X120834527Y-110228444D01*
X120818105Y-110200000D01*
X134586496Y-110200000D01*
X134587186Y-110206565D01*
X134590441Y-110237530D01*
X134606458Y-110389928D01*
X134665473Y-110571556D01*
X134668776Y-110577278D01*
X134668777Y-110577279D01*
X134677059Y-110591623D01*
X134760960Y-110736944D01*
X134765378Y-110741851D01*
X134765379Y-110741852D01*
X134821772Y-110804483D01*
X134888747Y-110878866D01*
X135043248Y-110991118D01*
X135049276Y-110993802D01*
X135049278Y-110993803D01*
X135211681Y-111066109D01*
X135217712Y-111068794D01*
X135301699Y-111086646D01*
X135398056Y-111107128D01*
X135398061Y-111107128D01*
X135404513Y-111108500D01*
X135595487Y-111108500D01*
X135601939Y-111107128D01*
X135601944Y-111107128D01*
X135698301Y-111086646D01*
X135782288Y-111068794D01*
X135788319Y-111066109D01*
X135809463Y-111056695D01*
X151137251Y-111056695D01*
X151137548Y-111061848D01*
X151137548Y-111061851D01*
X151143011Y-111156590D01*
X151150110Y-111279715D01*
X151151247Y-111284761D01*
X151151248Y-111284767D01*
X151171119Y-111372939D01*
X151199222Y-111497639D01*
X151283266Y-111704616D01*
X151303470Y-111737586D01*
X151390141Y-111879020D01*
X151399987Y-111895088D01*
X151546250Y-112063938D01*
X151718126Y-112206632D01*
X151757546Y-112229667D01*
X151791445Y-112249476D01*
X151840169Y-112301114D01*
X151853240Y-112370897D01*
X151826509Y-112436669D01*
X151786055Y-112470027D01*
X151773607Y-112476507D01*
X151769474Y-112479610D01*
X151769471Y-112479612D01*
X151600247Y-112606669D01*
X151594965Y-112610635D01*
X151440629Y-112772138D01*
X151437715Y-112776410D01*
X151437714Y-112776411D01*
X151416936Y-112806870D01*
X151314743Y-112956680D01*
X151299003Y-112990590D01*
X151224315Y-113151492D01*
X151220688Y-113159305D01*
X151160989Y-113374570D01*
X151137251Y-113596695D01*
X151137548Y-113601848D01*
X151137548Y-113601851D01*
X151143011Y-113696590D01*
X151150110Y-113819715D01*
X151151247Y-113824761D01*
X151151248Y-113824767D01*
X151171119Y-113912939D01*
X151199222Y-114037639D01*
X151283266Y-114244616D01*
X151304161Y-114278714D01*
X151390141Y-114419020D01*
X151399987Y-114435088D01*
X151546250Y-114603938D01*
X151718126Y-114746632D01*
X151758169Y-114770031D01*
X151791955Y-114789774D01*
X151840679Y-114841412D01*
X151853750Y-114911195D01*
X151827019Y-114976967D01*
X151786562Y-115010327D01*
X151778460Y-115014544D01*
X151769734Y-115020039D01*
X151749677Y-115035099D01*
X151741223Y-115046427D01*
X151747968Y-115058758D01*
X152487188Y-115797978D01*
X152501132Y-115805592D01*
X152502965Y-115805461D01*
X152509580Y-115801210D01*
X153253389Y-115057401D01*
X153260410Y-115044544D01*
X153253611Y-115035213D01*
X153249559Y-115032521D01*
X153212602Y-115012120D01*
X153162631Y-114961687D01*
X153147859Y-114892245D01*
X153172975Y-114825839D01*
X153200327Y-114799232D01*
X153241265Y-114770031D01*
X153379860Y-114671173D01*
X153538096Y-114513489D01*
X153597594Y-114430689D01*
X153665435Y-114336277D01*
X153668453Y-114332077D01*
X153683412Y-114301811D01*
X153765136Y-114136453D01*
X153765137Y-114136451D01*
X153767430Y-114131811D01*
X153832370Y-113918069D01*
X153861529Y-113696590D01*
X153863156Y-113630000D01*
X153844852Y-113407361D01*
X153790431Y-113190702D01*
X153701354Y-112985840D01*
X153585573Y-112806870D01*
X153582822Y-112802617D01*
X153582820Y-112802614D01*
X153580014Y-112798277D01*
X153429670Y-112633051D01*
X153425619Y-112629852D01*
X153425615Y-112629848D01*
X153258414Y-112497800D01*
X153258410Y-112497798D01*
X153254359Y-112494598D01*
X153213053Y-112471796D01*
X153163084Y-112421364D01*
X153148312Y-112351921D01*
X153173428Y-112285516D01*
X153200780Y-112258909D01*
X153244603Y-112227650D01*
X153379860Y-112131173D01*
X153538096Y-111973489D01*
X153597594Y-111890689D01*
X153665435Y-111796277D01*
X153668453Y-111792077D01*
X153683412Y-111761811D01*
X153765136Y-111596453D01*
X153765137Y-111596451D01*
X153767430Y-111591811D01*
X153827590Y-111393803D01*
X153830865Y-111383023D01*
X153830865Y-111383021D01*
X153832370Y-111378069D01*
X153861529Y-111156590D01*
X153863156Y-111090000D01*
X153844852Y-110867361D01*
X153790431Y-110650702D01*
X153701354Y-110445840D01*
X153660937Y-110383365D01*
X153582822Y-110262617D01*
X153582820Y-110262614D01*
X153580014Y-110258277D01*
X153429670Y-110093051D01*
X153425619Y-110089852D01*
X153425615Y-110089848D01*
X153258414Y-109957800D01*
X153258410Y-109957798D01*
X153254359Y-109954598D01*
X153244831Y-109949338D01*
X153183562Y-109915516D01*
X153058789Y-109846638D01*
X153053920Y-109844914D01*
X153053916Y-109844912D01*
X152853087Y-109773795D01*
X152853083Y-109773794D01*
X152848212Y-109772069D01*
X152843119Y-109771162D01*
X152843116Y-109771161D01*
X152633373Y-109733800D01*
X152633367Y-109733799D01*
X152628284Y-109732894D01*
X152554452Y-109731992D01*
X152410081Y-109730228D01*
X152410079Y-109730228D01*
X152404911Y-109730165D01*
X152184091Y-109763955D01*
X151971756Y-109833357D01*
X151773607Y-109936507D01*
X151769474Y-109939610D01*
X151769471Y-109939612D01*
X151611596Y-110058148D01*
X151594965Y-110070635D01*
X151440629Y-110232138D01*
X151437715Y-110236410D01*
X151437714Y-110236411D01*
X151416936Y-110266870D01*
X151314743Y-110416680D01*
X151299003Y-110450590D01*
X151224315Y-110611492D01*
X151220688Y-110619305D01*
X151160989Y-110834570D01*
X151137251Y-111056695D01*
X135809463Y-111056695D01*
X135950722Y-110993803D01*
X135950724Y-110993802D01*
X135956752Y-110991118D01*
X136111253Y-110878866D01*
X136178228Y-110804483D01*
X136234621Y-110741852D01*
X136234622Y-110741851D01*
X136239040Y-110736944D01*
X136322941Y-110591623D01*
X136331223Y-110577279D01*
X136331224Y-110577278D01*
X136334527Y-110571556D01*
X136393542Y-110389928D01*
X136409560Y-110237530D01*
X136412814Y-110206565D01*
X136413504Y-110200000D01*
X136403678Y-110106507D01*
X136394232Y-110016635D01*
X136394232Y-110016633D01*
X136393542Y-110010072D01*
X136334527Y-109828444D01*
X136239040Y-109663056D01*
X136188691Y-109607137D01*
X136115675Y-109526045D01*
X136115674Y-109526044D01*
X136111253Y-109521134D01*
X135974913Y-109422077D01*
X135962094Y-109412763D01*
X135962093Y-109412762D01*
X135956752Y-109408882D01*
X135950724Y-109406198D01*
X135950722Y-109406197D01*
X135788319Y-109333891D01*
X135788318Y-109333891D01*
X135782288Y-109331206D01*
X135667223Y-109306748D01*
X135601944Y-109292872D01*
X135601939Y-109292872D01*
X135595487Y-109291500D01*
X135404513Y-109291500D01*
X135398061Y-109292872D01*
X135398056Y-109292872D01*
X135332777Y-109306748D01*
X135217712Y-109331206D01*
X135211682Y-109333891D01*
X135211681Y-109333891D01*
X135049278Y-109406197D01*
X135049276Y-109406198D01*
X135043248Y-109408882D01*
X135037907Y-109412762D01*
X135037906Y-109412763D01*
X135025087Y-109422077D01*
X134888747Y-109521134D01*
X134884326Y-109526044D01*
X134884325Y-109526045D01*
X134811310Y-109607137D01*
X134760960Y-109663056D01*
X134665473Y-109828444D01*
X134606458Y-110010072D01*
X134605768Y-110016633D01*
X134605768Y-110016635D01*
X134596322Y-110106507D01*
X134586496Y-110200000D01*
X120818105Y-110200000D01*
X120739040Y-110063056D01*
X120728513Y-110051364D01*
X120615675Y-109926045D01*
X120615674Y-109926044D01*
X120611253Y-109921134D01*
X120498539Y-109839242D01*
X120462094Y-109812763D01*
X120462093Y-109812762D01*
X120456752Y-109808882D01*
X120450724Y-109806198D01*
X120450722Y-109806197D01*
X120288319Y-109733891D01*
X120288318Y-109733891D01*
X120282288Y-109731206D01*
X120188887Y-109711353D01*
X120101944Y-109692872D01*
X120101939Y-109692872D01*
X120095487Y-109691500D01*
X119904513Y-109691500D01*
X119898061Y-109692872D01*
X119898056Y-109692872D01*
X119811113Y-109711353D01*
X119717712Y-109731206D01*
X119711682Y-109733891D01*
X119711681Y-109733891D01*
X119549278Y-109806197D01*
X119549276Y-109806198D01*
X119543248Y-109808882D01*
X119537907Y-109812762D01*
X119537906Y-109812763D01*
X119501461Y-109839242D01*
X119388747Y-109921134D01*
X119384326Y-109926044D01*
X119384325Y-109926045D01*
X119271488Y-110051364D01*
X119260960Y-110063056D01*
X119165473Y-110228444D01*
X119106458Y-110410072D01*
X119105768Y-110416633D01*
X119105768Y-110416635D01*
X119102699Y-110445840D01*
X119086496Y-110600000D01*
X112713504Y-110600000D01*
X112697301Y-110445840D01*
X112694232Y-110416635D01*
X112694232Y-110416633D01*
X112693542Y-110410072D01*
X112634527Y-110228444D01*
X112539040Y-110063056D01*
X112528513Y-110051364D01*
X112415675Y-109926045D01*
X112415674Y-109926044D01*
X112411253Y-109921134D01*
X112298539Y-109839242D01*
X112262094Y-109812763D01*
X112262093Y-109812762D01*
X112256752Y-109808882D01*
X112250724Y-109806198D01*
X112250722Y-109806197D01*
X112088319Y-109733891D01*
X112088318Y-109733891D01*
X112082288Y-109731206D01*
X111988887Y-109711353D01*
X111901944Y-109692872D01*
X111901939Y-109692872D01*
X111895487Y-109691500D01*
X111704513Y-109691500D01*
X111698061Y-109692872D01*
X111698056Y-109692872D01*
X111611113Y-109711353D01*
X111517712Y-109731206D01*
X111511682Y-109733891D01*
X111511681Y-109733891D01*
X111349278Y-109806197D01*
X111349276Y-109806198D01*
X111343248Y-109808882D01*
X111337907Y-109812762D01*
X111337906Y-109812763D01*
X111301461Y-109839242D01*
X111188747Y-109921134D01*
X111184326Y-109926044D01*
X111184325Y-109926045D01*
X111071488Y-110051364D01*
X111060960Y-110063056D01*
X110965473Y-110228444D01*
X110906458Y-110410072D01*
X110905768Y-110416633D01*
X110905768Y-110416635D01*
X110902699Y-110445840D01*
X110886496Y-110600000D01*
X103191107Y-110600000D01*
X103080014Y-110428277D01*
X102929670Y-110263051D01*
X102925619Y-110259852D01*
X102925615Y-110259848D01*
X102758414Y-110127800D01*
X102758410Y-110127798D01*
X102754359Y-110124598D01*
X102713053Y-110101796D01*
X102663084Y-110051364D01*
X102648312Y-109981921D01*
X102673428Y-109915516D01*
X102700780Y-109888909D01*
X102760042Y-109846638D01*
X102879860Y-109761173D01*
X103038096Y-109603489D01*
X103097594Y-109520689D01*
X103165435Y-109426277D01*
X103168453Y-109422077D01*
X103172611Y-109413665D01*
X103265136Y-109226453D01*
X103265137Y-109226451D01*
X103267430Y-109221811D01*
X103332370Y-109008069D01*
X103361529Y-108786590D01*
X103363156Y-108720000D01*
X103344852Y-108497361D01*
X103290431Y-108280702D01*
X103201354Y-108075840D01*
X103080014Y-107888277D01*
X102929670Y-107723051D01*
X102925619Y-107719852D01*
X102925615Y-107719848D01*
X102758414Y-107587800D01*
X102758410Y-107587798D01*
X102754359Y-107584598D01*
X102713053Y-107561796D01*
X102663084Y-107511364D01*
X102648312Y-107441921D01*
X102673428Y-107375516D01*
X102700780Y-107348909D01*
X102759355Y-107307128D01*
X102879860Y-107221173D01*
X103038096Y-107063489D01*
X103097594Y-106980689D01*
X103165435Y-106886277D01*
X103168453Y-106882077D01*
X103172611Y-106873665D01*
X103265136Y-106686453D01*
X103265137Y-106686451D01*
X103267430Y-106681811D01*
X103332370Y-106468069D01*
X103361529Y-106246590D01*
X103362575Y-106203794D01*
X103363074Y-106183365D01*
X103363074Y-106183361D01*
X103363156Y-106180000D01*
X103344852Y-105957361D01*
X103290431Y-105740702D01*
X103201354Y-105535840D01*
X103080014Y-105348277D01*
X102929670Y-105183051D01*
X102925619Y-105179852D01*
X102925615Y-105179848D01*
X102758414Y-105047800D01*
X102758410Y-105047798D01*
X102754359Y-105044598D01*
X102713053Y-105021796D01*
X102663084Y-104971364D01*
X102648312Y-104901921D01*
X102673428Y-104835516D01*
X102700780Y-104808909D01*
X102713270Y-104800000D01*
X128286496Y-104800000D01*
X128287186Y-104806565D01*
X128297971Y-104909174D01*
X128306458Y-104989928D01*
X128365473Y-105171556D01*
X128368776Y-105177278D01*
X128368777Y-105177279D01*
X128402686Y-105236010D01*
X128460960Y-105336944D01*
X128465378Y-105341851D01*
X128465379Y-105341852D01*
X128525733Y-105408882D01*
X128588747Y-105478866D01*
X128594089Y-105482747D01*
X128594091Y-105482749D01*
X128615171Y-105498064D01*
X128658525Y-105554286D01*
X128664601Y-105625022D01*
X128631469Y-105687814D01*
X128615173Y-105701935D01*
X128588747Y-105721134D01*
X128460960Y-105863056D01*
X128365473Y-106028444D01*
X128306458Y-106210072D01*
X128286496Y-106400000D01*
X128287186Y-106406565D01*
X128305129Y-106577279D01*
X128306458Y-106589928D01*
X128365473Y-106771556D01*
X128460960Y-106936944D01*
X128465378Y-106941851D01*
X128465379Y-106941852D01*
X128578186Y-107067137D01*
X128588747Y-107078866D01*
X128743248Y-107191118D01*
X128749276Y-107193802D01*
X128749278Y-107193803D01*
X128911681Y-107266109D01*
X128917712Y-107268794D01*
X129011113Y-107288647D01*
X129098056Y-107307128D01*
X129098061Y-107307128D01*
X129104513Y-107308500D01*
X129295487Y-107308500D01*
X129301939Y-107307128D01*
X129301944Y-107307128D01*
X129388887Y-107288647D01*
X129482288Y-107268794D01*
X129488319Y-107266109D01*
X129650722Y-107193803D01*
X129650724Y-107193802D01*
X129656752Y-107191118D01*
X129811253Y-107078866D01*
X129821814Y-107067137D01*
X129934621Y-106941852D01*
X129934622Y-106941851D01*
X129939040Y-106936944D01*
X130034527Y-106771556D01*
X130093542Y-106589928D01*
X130094872Y-106577279D01*
X130112814Y-106406565D01*
X130113504Y-106400000D01*
X130093542Y-106210072D01*
X130034527Y-106028444D01*
X129939040Y-105863056D01*
X129811253Y-105721134D01*
X129784829Y-105701935D01*
X129741475Y-105645714D01*
X129735399Y-105574978D01*
X129768531Y-105512186D01*
X129784829Y-105498064D01*
X129805909Y-105482749D01*
X129805911Y-105482747D01*
X129811253Y-105478866D01*
X129874267Y-105408882D01*
X129934621Y-105341852D01*
X129934622Y-105341851D01*
X129939040Y-105336944D01*
X129997314Y-105236010D01*
X130031223Y-105177279D01*
X130031224Y-105177278D01*
X130034527Y-105171556D01*
X130093542Y-104989928D01*
X130102030Y-104909174D01*
X130112814Y-104806565D01*
X130113504Y-104800000D01*
X130100632Y-104677529D01*
X130094232Y-104616635D01*
X130094232Y-104616633D01*
X130093542Y-104610072D01*
X130034527Y-104428444D01*
X129939040Y-104263056D01*
X129927131Y-104249829D01*
X129815675Y-104126045D01*
X129815674Y-104126044D01*
X129811253Y-104121134D01*
X129710096Y-104047639D01*
X129662094Y-104012763D01*
X129662093Y-104012762D01*
X129656752Y-104008882D01*
X129650724Y-104006198D01*
X129650722Y-104006197D01*
X129488319Y-103933891D01*
X129488318Y-103933891D01*
X129482288Y-103931206D01*
X129388888Y-103911353D01*
X129301944Y-103892872D01*
X129301939Y-103892872D01*
X129295487Y-103891500D01*
X129104513Y-103891500D01*
X129098061Y-103892872D01*
X129098056Y-103892872D01*
X129011113Y-103911353D01*
X128917712Y-103931206D01*
X128911682Y-103933891D01*
X128911681Y-103933891D01*
X128749278Y-104006197D01*
X128749276Y-104006198D01*
X128743248Y-104008882D01*
X128737907Y-104012762D01*
X128737906Y-104012763D01*
X128689904Y-104047639D01*
X128588747Y-104121134D01*
X128584326Y-104126044D01*
X128584325Y-104126045D01*
X128472870Y-104249829D01*
X128460960Y-104263056D01*
X128365473Y-104428444D01*
X128306458Y-104610072D01*
X128305768Y-104616633D01*
X128305768Y-104616635D01*
X128299368Y-104677529D01*
X128286496Y-104800000D01*
X102713270Y-104800000D01*
X102744603Y-104777650D01*
X102879860Y-104681173D01*
X103038096Y-104523489D01*
X103097594Y-104440689D01*
X103165435Y-104346277D01*
X103168453Y-104342077D01*
X103172611Y-104333665D01*
X103265136Y-104146453D01*
X103265137Y-104146451D01*
X103267430Y-104141811D01*
X103332370Y-103928069D01*
X103361529Y-103706590D01*
X103363156Y-103640000D01*
X103344852Y-103417361D01*
X103290431Y-103200702D01*
X103201354Y-102995840D01*
X103080014Y-102808277D01*
X103076540Y-102804459D01*
X103076533Y-102804450D01*
X102932435Y-102646088D01*
X102901383Y-102582242D01*
X102909779Y-102511744D01*
X102954956Y-102456976D01*
X102981400Y-102443307D01*
X103088052Y-102403325D01*
X103103649Y-102394786D01*
X103205724Y-102318285D01*
X103218285Y-102305724D01*
X103294786Y-102203649D01*
X103303324Y-102188054D01*
X103348478Y-102067606D01*
X103352105Y-102052351D01*
X103357631Y-102001486D01*
X103358000Y-101994672D01*
X103358000Y-101372115D01*
X103353525Y-101356876D01*
X103352135Y-101355671D01*
X103344452Y-101354000D01*
X101872000Y-101354000D01*
X101803879Y-101333998D01*
X101757386Y-101280342D01*
X101746000Y-101228000D01*
X101746000Y-99760116D01*
X101744659Y-99755548D01*
X102254000Y-99755548D01*
X102254000Y-100827885D01*
X102258475Y-100843124D01*
X102259865Y-100844329D01*
X102267548Y-100846000D01*
X103339884Y-100846000D01*
X103355123Y-100841525D01*
X103356328Y-100840135D01*
X103357999Y-100832452D01*
X103357999Y-100205331D01*
X103357629Y-100198510D01*
X103352105Y-100147648D01*
X103348479Y-100132396D01*
X103303324Y-100011946D01*
X103294786Y-99996351D01*
X103218285Y-99894276D01*
X103205724Y-99881715D01*
X103103649Y-99805214D01*
X103088054Y-99796676D01*
X102967606Y-99751522D01*
X102952351Y-99747895D01*
X102901486Y-99742369D01*
X102894672Y-99742000D01*
X102272115Y-99742000D01*
X102256876Y-99746475D01*
X102255671Y-99747865D01*
X102254000Y-99755548D01*
X101744659Y-99755548D01*
X101741525Y-99744877D01*
X101740135Y-99743672D01*
X101732452Y-99742001D01*
X101105331Y-99742001D01*
X101098510Y-99742371D01*
X101047648Y-99747895D01*
X101032396Y-99751521D01*
X100911946Y-99796676D01*
X100896351Y-99805214D01*
X100794276Y-99881715D01*
X100781715Y-99894276D01*
X100734826Y-99956840D01*
X100677967Y-99999355D01*
X100607149Y-100004381D01*
X100544855Y-99970321D01*
X100510865Y-99907990D01*
X100508000Y-99881275D01*
X100508000Y-99500000D01*
X119086496Y-99500000D01*
X119087186Y-99506565D01*
X119091619Y-99548738D01*
X119106458Y-99689928D01*
X119165473Y-99871556D01*
X119168776Y-99877278D01*
X119168777Y-99877279D01*
X119186508Y-99907990D01*
X119260960Y-100036944D01*
X119265378Y-100041851D01*
X119265379Y-100041852D01*
X119286466Y-100065271D01*
X119388747Y-100178866D01*
X119543248Y-100291118D01*
X119549276Y-100293802D01*
X119549278Y-100293803D01*
X119585754Y-100310043D01*
X119717712Y-100368794D01*
X119783365Y-100382749D01*
X119898056Y-100407128D01*
X119898061Y-100407128D01*
X119904513Y-100408500D01*
X120095487Y-100408500D01*
X120101939Y-100407128D01*
X120101944Y-100407128D01*
X120216635Y-100382749D01*
X120282288Y-100368794D01*
X120414246Y-100310043D01*
X120450722Y-100293803D01*
X120450724Y-100293802D01*
X120456752Y-100291118D01*
X120611253Y-100178866D01*
X120713534Y-100065271D01*
X120734621Y-100041852D01*
X120734622Y-100041851D01*
X120739040Y-100036944D01*
X120813492Y-99907990D01*
X120831223Y-99877279D01*
X120831224Y-99877278D01*
X120834527Y-99871556D01*
X120893542Y-99689928D01*
X120908382Y-99548738D01*
X120912814Y-99506565D01*
X120913504Y-99500000D01*
X120912814Y-99493435D01*
X120894232Y-99316635D01*
X120894232Y-99316633D01*
X120893542Y-99310072D01*
X120834527Y-99128444D01*
X120739040Y-98963056D01*
X120611253Y-98821134D01*
X120456752Y-98708882D01*
X120450724Y-98706198D01*
X120450722Y-98706197D01*
X120288319Y-98633891D01*
X120288318Y-98633891D01*
X120282288Y-98631206D01*
X120188888Y-98611353D01*
X120101944Y-98592872D01*
X120101939Y-98592872D01*
X120095487Y-98591500D01*
X119904513Y-98591500D01*
X119898061Y-98592872D01*
X119898056Y-98592872D01*
X119811112Y-98611353D01*
X119717712Y-98631206D01*
X119711682Y-98633891D01*
X119711681Y-98633891D01*
X119549278Y-98706197D01*
X119549276Y-98706198D01*
X119543248Y-98708882D01*
X119388747Y-98821134D01*
X119260960Y-98963056D01*
X119165473Y-99128444D01*
X119106458Y-99310072D01*
X119105768Y-99316633D01*
X119105768Y-99316635D01*
X119087186Y-99493435D01*
X119086496Y-99500000D01*
X100508000Y-99500000D01*
X100508000Y-89248286D01*
X100528002Y-89180165D01*
X100581658Y-89133672D01*
X100634000Y-89122286D01*
X100774000Y-89122286D01*
X100842121Y-89142288D01*
X100888614Y-89195944D01*
X100900000Y-89248286D01*
X100900000Y-94700000D01*
X103100000Y-94700000D01*
X103100000Y-93800000D01*
X124186496Y-93800000D01*
X124187186Y-93806565D01*
X124197885Y-93908356D01*
X124206458Y-93989928D01*
X124265473Y-94171556D01*
X124360960Y-94336944D01*
X124434137Y-94418215D01*
X124464853Y-94482221D01*
X124466500Y-94502524D01*
X124466500Y-96697476D01*
X124446498Y-96765597D01*
X124434142Y-96781779D01*
X124360960Y-96863056D01*
X124265473Y-97028444D01*
X124206458Y-97210072D01*
X124186496Y-97400000D01*
X124206458Y-97589928D01*
X124265473Y-97771556D01*
X124360960Y-97936944D01*
X124488747Y-98078866D01*
X124643248Y-98191118D01*
X124649276Y-98193802D01*
X124649278Y-98193803D01*
X124733332Y-98231226D01*
X124817712Y-98268794D01*
X124911112Y-98288647D01*
X124998056Y-98307128D01*
X124998061Y-98307128D01*
X125004513Y-98308500D01*
X125195487Y-98308500D01*
X125201939Y-98307128D01*
X125201944Y-98307128D01*
X125288888Y-98288647D01*
X125382288Y-98268794D01*
X125466668Y-98231226D01*
X125550722Y-98193803D01*
X125550724Y-98193802D01*
X125556752Y-98191118D01*
X125711253Y-98078866D01*
X125839040Y-97936944D01*
X125934527Y-97771556D01*
X125957777Y-97700000D01*
X134686496Y-97700000D01*
X134706458Y-97889928D01*
X134765473Y-98071556D01*
X134860960Y-98236944D01*
X134988747Y-98378866D01*
X135143248Y-98491118D01*
X135149276Y-98493802D01*
X135149278Y-98493803D01*
X135241200Y-98534729D01*
X135317712Y-98568794D01*
X135411112Y-98588647D01*
X135498056Y-98607128D01*
X135498061Y-98607128D01*
X135504513Y-98608500D01*
X135695487Y-98608500D01*
X135701939Y-98607128D01*
X135701944Y-98607128D01*
X135788888Y-98588647D01*
X135882288Y-98568794D01*
X135958800Y-98534729D01*
X136050722Y-98493803D01*
X136050724Y-98493802D01*
X136056752Y-98491118D01*
X136211253Y-98378866D01*
X136339040Y-98236944D01*
X136434527Y-98071556D01*
X136493542Y-97889928D01*
X136513504Y-97700000D01*
X136493542Y-97510072D01*
X136434527Y-97328444D01*
X136339040Y-97163056D01*
X136276685Y-97093803D01*
X136215675Y-97026045D01*
X136215674Y-97026044D01*
X136211253Y-97021134D01*
X136081319Y-96926731D01*
X136062094Y-96912763D01*
X136062093Y-96912762D01*
X136056752Y-96908882D01*
X136050724Y-96906198D01*
X136050722Y-96906197D01*
X135888319Y-96833891D01*
X135888318Y-96833891D01*
X135882288Y-96831206D01*
X135788887Y-96811353D01*
X135701944Y-96792872D01*
X135701939Y-96792872D01*
X135695487Y-96791500D01*
X135504513Y-96791500D01*
X135498061Y-96792872D01*
X135498056Y-96792872D01*
X135411113Y-96811353D01*
X135317712Y-96831206D01*
X135311682Y-96833891D01*
X135311681Y-96833891D01*
X135149278Y-96906197D01*
X135149276Y-96906198D01*
X135143248Y-96908882D01*
X135137907Y-96912762D01*
X135137906Y-96912763D01*
X135118681Y-96926731D01*
X134988747Y-97021134D01*
X134984326Y-97026044D01*
X134984325Y-97026045D01*
X134923316Y-97093803D01*
X134860960Y-97163056D01*
X134765473Y-97328444D01*
X134706458Y-97510072D01*
X134686496Y-97700000D01*
X125957777Y-97700000D01*
X125993542Y-97589928D01*
X126013504Y-97400000D01*
X125993542Y-97210072D01*
X125934527Y-97028444D01*
X125839040Y-96863056D01*
X125765863Y-96781785D01*
X125735147Y-96717779D01*
X125733500Y-96697476D01*
X125733500Y-94800000D01*
X131586496Y-94800000D01*
X131587186Y-94806565D01*
X131595129Y-94882134D01*
X131606458Y-94989928D01*
X131665473Y-95171556D01*
X131760960Y-95336944D01*
X131765378Y-95341851D01*
X131765379Y-95341852D01*
X131844598Y-95429834D01*
X131888747Y-95478866D01*
X132043248Y-95591118D01*
X132049276Y-95593802D01*
X132049278Y-95593803D01*
X132211681Y-95666109D01*
X132217712Y-95668794D01*
X132311112Y-95688647D01*
X132398056Y-95707128D01*
X132398061Y-95707128D01*
X132404513Y-95708500D01*
X132595487Y-95708500D01*
X132601939Y-95707128D01*
X132601944Y-95707128D01*
X132688888Y-95688647D01*
X132782288Y-95668794D01*
X132788319Y-95666109D01*
X132950722Y-95593803D01*
X132950724Y-95593802D01*
X132956752Y-95591118D01*
X133111253Y-95478866D01*
X133155402Y-95429834D01*
X133234621Y-95341852D01*
X133234622Y-95341851D01*
X133239040Y-95336944D01*
X133334527Y-95171556D01*
X133393542Y-94989928D01*
X133404872Y-94882134D01*
X133412814Y-94806565D01*
X133413504Y-94800000D01*
X133402818Y-94698329D01*
X133394232Y-94616635D01*
X133394232Y-94616633D01*
X133393542Y-94610072D01*
X133379807Y-94567800D01*
X133348071Y-94470126D01*
X133346044Y-94399158D01*
X133378809Y-94342095D01*
X135494049Y-92226855D01*
X135556361Y-92192829D01*
X135583144Y-92189950D01*
X135714037Y-92189950D01*
X135720489Y-92188578D01*
X135720494Y-92188578D01*
X135807438Y-92170097D01*
X135900838Y-92150244D01*
X135906869Y-92147559D01*
X136069272Y-92075253D01*
X136069274Y-92075252D01*
X136075302Y-92072568D01*
X136229803Y-91960316D01*
X136296267Y-91886500D01*
X136353171Y-91823302D01*
X136353172Y-91823301D01*
X136357590Y-91818394D01*
X136453077Y-91653006D01*
X136512092Y-91471378D01*
X136532054Y-91281450D01*
X136528629Y-91248859D01*
X136512782Y-91098085D01*
X136512782Y-91098083D01*
X136512092Y-91091522D01*
X136453077Y-90909894D01*
X136357590Y-90744506D01*
X136229803Y-90602584D01*
X136075302Y-90490332D01*
X136069274Y-90487648D01*
X136069272Y-90487647D01*
X135906869Y-90415341D01*
X135906868Y-90415341D01*
X135900838Y-90412656D01*
X135807437Y-90392803D01*
X135720494Y-90374322D01*
X135720489Y-90374322D01*
X135714037Y-90372950D01*
X135523063Y-90372950D01*
X135516611Y-90374322D01*
X135516606Y-90374322D01*
X135429663Y-90392803D01*
X135336262Y-90412656D01*
X135330232Y-90415341D01*
X135330231Y-90415341D01*
X135167828Y-90487647D01*
X135167826Y-90487648D01*
X135161798Y-90490332D01*
X135007297Y-90602584D01*
X134879510Y-90744506D01*
X134784023Y-90909894D01*
X134781981Y-90916179D01*
X134727859Y-91082749D01*
X134725008Y-91091522D01*
X134724318Y-91098085D01*
X134724318Y-91098086D01*
X134716451Y-91172935D01*
X134689438Y-91238592D01*
X134680236Y-91248859D01*
X133651969Y-92277127D01*
X133589657Y-92311152D01*
X133518842Y-92306088D01*
X133469233Y-92272336D01*
X133465854Y-92268583D01*
X133435144Y-92204574D01*
X133433500Y-92184284D01*
X133433500Y-88402524D01*
X133453502Y-88334403D01*
X133465858Y-88318221D01*
X133539040Y-88236944D01*
X133634527Y-88071556D01*
X133693542Y-87889928D01*
X133713504Y-87700000D01*
X133693542Y-87510072D01*
X133634527Y-87328444D01*
X133539040Y-87163056D01*
X133411253Y-87021134D01*
X133312157Y-86949136D01*
X133262094Y-86912763D01*
X133262093Y-86912762D01*
X133256752Y-86908882D01*
X133250724Y-86906198D01*
X133250722Y-86906197D01*
X133088319Y-86833891D01*
X133088318Y-86833891D01*
X133082288Y-86831206D01*
X132988887Y-86811353D01*
X132901944Y-86792872D01*
X132901939Y-86792872D01*
X132895487Y-86791500D01*
X132704513Y-86791500D01*
X132698061Y-86792872D01*
X132698056Y-86792872D01*
X132611113Y-86811353D01*
X132517712Y-86831206D01*
X132511682Y-86833891D01*
X132511681Y-86833891D01*
X132349278Y-86906197D01*
X132349276Y-86906198D01*
X132343248Y-86908882D01*
X132337907Y-86912762D01*
X132337906Y-86912763D01*
X132287843Y-86949136D01*
X132188747Y-87021134D01*
X132060960Y-87163056D01*
X131965473Y-87328444D01*
X131906458Y-87510072D01*
X131886496Y-87700000D01*
X131906458Y-87889928D01*
X131965473Y-88071556D01*
X132060960Y-88236944D01*
X132134137Y-88318215D01*
X132164853Y-88382221D01*
X132166500Y-88402524D01*
X132166500Y-92198167D01*
X132146498Y-92266288D01*
X132134136Y-92282477D01*
X132067210Y-92356806D01*
X131971723Y-92522194D01*
X131912708Y-92703822D01*
X131892746Y-92893750D01*
X131893436Y-92900315D01*
X131905255Y-93012763D01*
X131912708Y-93083678D01*
X131971723Y-93265306D01*
X132067210Y-93430694D01*
X132191500Y-93568732D01*
X132222217Y-93632740D01*
X132213452Y-93703193D01*
X132186958Y-93742137D01*
X132107747Y-93821348D01*
X132099461Y-93828888D01*
X132092982Y-93833000D01*
X132087557Y-93838777D01*
X132046357Y-93882651D01*
X132043602Y-93885493D01*
X132023865Y-93905230D01*
X132021385Y-93908427D01*
X132013682Y-93917447D01*
X131983414Y-93949679D01*
X131979595Y-93956625D01*
X131979593Y-93956628D01*
X131973652Y-93967434D01*
X131962801Y-93983953D01*
X131950386Y-93999959D01*
X131947241Y-94007228D01*
X131947238Y-94007232D01*
X131932826Y-94040537D01*
X131927609Y-94051187D01*
X131906305Y-94089940D01*
X131905917Y-94091450D01*
X131884777Y-94125543D01*
X131760960Y-94263056D01*
X131665473Y-94428444D01*
X131606458Y-94610072D01*
X131605768Y-94616633D01*
X131605768Y-94616635D01*
X131597182Y-94698329D01*
X131586496Y-94800000D01*
X125733500Y-94800000D01*
X125733500Y-94502524D01*
X125753502Y-94434403D01*
X125765858Y-94418221D01*
X125839040Y-94336944D01*
X125934527Y-94171556D01*
X125993542Y-93989928D01*
X126002116Y-93908356D01*
X126012814Y-93806565D01*
X126013504Y-93800000D01*
X125998906Y-93661109D01*
X125994232Y-93616635D01*
X125994232Y-93616633D01*
X125993542Y-93610072D01*
X125934527Y-93428444D01*
X125839040Y-93263056D01*
X125711253Y-93121134D01*
X125556752Y-93008882D01*
X125550724Y-93006198D01*
X125550722Y-93006197D01*
X125388319Y-92933891D01*
X125388318Y-92933891D01*
X125382288Y-92931206D01*
X125288888Y-92911353D01*
X125201944Y-92892872D01*
X125201939Y-92892872D01*
X125195487Y-92891500D01*
X125004513Y-92891500D01*
X124998061Y-92892872D01*
X124998056Y-92892872D01*
X124911113Y-92911353D01*
X124817712Y-92931206D01*
X124811682Y-92933891D01*
X124811681Y-92933891D01*
X124649278Y-93006197D01*
X124649276Y-93006198D01*
X124643248Y-93008882D01*
X124488747Y-93121134D01*
X124360960Y-93263056D01*
X124265473Y-93428444D01*
X124206458Y-93610072D01*
X124205768Y-93616633D01*
X124205768Y-93616635D01*
X124201094Y-93661109D01*
X124186496Y-93800000D01*
X103100000Y-93800000D01*
X103100000Y-92795000D01*
X111191496Y-92795000D01*
X111211458Y-92984928D01*
X111270473Y-93166556D01*
X111365960Y-93331944D01*
X111370378Y-93336851D01*
X111370379Y-93336852D01*
X111489325Y-93468955D01*
X111493747Y-93473866D01*
X111648248Y-93586118D01*
X111654276Y-93588802D01*
X111654278Y-93588803D01*
X111816681Y-93661109D01*
X111822712Y-93663794D01*
X111916112Y-93683647D01*
X112003056Y-93702128D01*
X112003061Y-93702128D01*
X112009513Y-93703500D01*
X112200487Y-93703500D01*
X112206939Y-93702128D01*
X112206944Y-93702128D01*
X112293888Y-93683647D01*
X112387288Y-93663794D01*
X112393319Y-93661109D01*
X112555722Y-93588803D01*
X112555724Y-93588802D01*
X112561752Y-93586118D01*
X112716253Y-93473866D01*
X112720675Y-93468955D01*
X112839621Y-93336852D01*
X112839622Y-93336851D01*
X112844040Y-93331944D01*
X112939527Y-93166556D01*
X112998542Y-92984928D01*
X113015907Y-92819706D01*
X113042920Y-92754050D01*
X113052122Y-92743782D01*
X114725499Y-91070405D01*
X114787811Y-91036379D01*
X114814594Y-91033500D01*
X124291800Y-91033500D01*
X124359921Y-91053502D01*
X124379147Y-91069843D01*
X124379420Y-91069540D01*
X124384332Y-91073963D01*
X124388747Y-91078866D01*
X124543248Y-91191118D01*
X124549276Y-91193802D01*
X124549278Y-91193803D01*
X124672937Y-91248859D01*
X124717712Y-91268794D01*
X124808139Y-91288015D01*
X124898056Y-91307128D01*
X124898061Y-91307128D01*
X124904513Y-91308500D01*
X125095487Y-91308500D01*
X125101939Y-91307128D01*
X125101944Y-91307128D01*
X125191861Y-91288015D01*
X125282288Y-91268794D01*
X125327063Y-91248859D01*
X125450722Y-91193803D01*
X125450724Y-91193802D01*
X125456752Y-91191118D01*
X125611253Y-91078866D01*
X125634091Y-91053502D01*
X125734621Y-90941852D01*
X125734622Y-90941851D01*
X125739040Y-90936944D01*
X125834527Y-90771556D01*
X125893542Y-90589928D01*
X125913504Y-90400000D01*
X125893542Y-90210072D01*
X125834527Y-90028444D01*
X125739040Y-89863056D01*
X125722882Y-89845110D01*
X125615675Y-89726045D01*
X125615674Y-89726044D01*
X125611253Y-89721134D01*
X125456752Y-89608882D01*
X125450724Y-89606198D01*
X125450722Y-89606197D01*
X125288319Y-89533891D01*
X125288318Y-89533891D01*
X125282288Y-89531206D01*
X125188887Y-89511353D01*
X125101944Y-89492872D01*
X125101939Y-89492872D01*
X125095487Y-89491500D01*
X124904513Y-89491500D01*
X124898061Y-89492872D01*
X124898056Y-89492872D01*
X124811113Y-89511353D01*
X124717712Y-89531206D01*
X124711682Y-89533891D01*
X124711681Y-89533891D01*
X124549278Y-89606197D01*
X124549276Y-89606198D01*
X124543248Y-89608882D01*
X124388747Y-89721134D01*
X124384332Y-89726037D01*
X124379420Y-89730460D01*
X124378295Y-89729211D01*
X124324986Y-89762051D01*
X124291800Y-89766500D01*
X119440214Y-89766500D01*
X119372093Y-89746498D01*
X119325600Y-89692842D01*
X119315496Y-89622568D01*
X119329013Y-89583518D01*
X119328539Y-89583307D01*
X119330996Y-89577787D01*
X119331097Y-89577497D01*
X119331223Y-89577279D01*
X119331224Y-89577278D01*
X119334527Y-89571556D01*
X119393542Y-89389928D01*
X119413504Y-89200000D01*
X119393542Y-89010072D01*
X119334527Y-88828444D01*
X119239040Y-88663056D01*
X119111253Y-88521134D01*
X118956752Y-88408882D01*
X118950724Y-88406198D01*
X118950722Y-88406197D01*
X118788319Y-88333891D01*
X118788318Y-88333891D01*
X118782288Y-88331206D01*
X118688887Y-88311353D01*
X118601944Y-88292872D01*
X118601939Y-88292872D01*
X118595487Y-88291500D01*
X118404513Y-88291500D01*
X118398061Y-88292872D01*
X118398056Y-88292872D01*
X118311113Y-88311353D01*
X118217712Y-88331206D01*
X118211682Y-88333891D01*
X118211681Y-88333891D01*
X118049278Y-88406197D01*
X118049276Y-88406198D01*
X118043248Y-88408882D01*
X117888747Y-88521134D01*
X117760960Y-88663056D01*
X117665473Y-88828444D01*
X117606458Y-89010072D01*
X117586496Y-89200000D01*
X117606458Y-89389928D01*
X117665473Y-89571556D01*
X117668776Y-89577278D01*
X117668777Y-89577279D01*
X117668903Y-89577497D01*
X117668937Y-89577639D01*
X117671461Y-89583307D01*
X117670425Y-89583768D01*
X117685643Y-89646492D01*
X117662425Y-89713584D01*
X117606619Y-89757473D01*
X117559786Y-89766500D01*
X114578763Y-89766500D01*
X114567579Y-89765973D01*
X114560091Y-89764299D01*
X114552168Y-89764548D01*
X114492033Y-89766438D01*
X114488075Y-89766500D01*
X114460144Y-89766500D01*
X114456229Y-89766995D01*
X114456225Y-89766995D01*
X114456167Y-89767003D01*
X114456138Y-89767006D01*
X114444296Y-89767939D01*
X114400110Y-89769327D01*
X114382744Y-89774372D01*
X114380658Y-89774978D01*
X114361306Y-89778986D01*
X114349068Y-89780532D01*
X114349066Y-89780533D01*
X114341203Y-89781526D01*
X114300086Y-89797806D01*
X114288885Y-89801641D01*
X114246406Y-89813982D01*
X114239587Y-89818015D01*
X114239582Y-89818017D01*
X114228971Y-89824293D01*
X114211221Y-89832990D01*
X114192383Y-89840448D01*
X114185967Y-89845109D01*
X114185966Y-89845110D01*
X114156625Y-89866428D01*
X114146701Y-89872947D01*
X114115460Y-89891422D01*
X114115455Y-89891426D01*
X114108637Y-89895458D01*
X114094313Y-89909782D01*
X114079281Y-89922621D01*
X114062893Y-89934528D01*
X114034712Y-89968593D01*
X114026722Y-89977373D01*
X112154500Y-91849595D01*
X112092188Y-91883621D01*
X112065405Y-91886500D01*
X112009513Y-91886500D01*
X112003061Y-91887872D01*
X112003056Y-91887872D01*
X111916113Y-91906353D01*
X111822712Y-91926206D01*
X111816682Y-91928891D01*
X111816681Y-91928891D01*
X111654278Y-92001197D01*
X111654276Y-92001198D01*
X111648248Y-92003882D01*
X111493747Y-92116134D01*
X111489326Y-92121044D01*
X111489325Y-92121045D01*
X111388836Y-92232650D01*
X111365960Y-92258056D01*
X111270473Y-92423444D01*
X111211458Y-92605072D01*
X111191496Y-92795000D01*
X103100000Y-92795000D01*
X103100000Y-89248286D01*
X103120002Y-89180165D01*
X103173658Y-89133672D01*
X103226000Y-89122286D01*
X104315500Y-89122286D01*
X104315500Y-86077715D01*
X100634000Y-86077715D01*
X100565879Y-86057713D01*
X100519386Y-86004057D01*
X100508000Y-85951715D01*
X100508000Y-80621925D01*
X100528002Y-80553804D01*
X100581658Y-80507311D01*
X100651932Y-80497207D01*
X100716512Y-80526701D01*
X100750743Y-80574521D01*
X100783266Y-80654616D01*
X100831707Y-80733665D01*
X100897291Y-80840688D01*
X100899987Y-80845088D01*
X101046250Y-81013938D01*
X101218126Y-81156632D01*
X101411000Y-81269338D01*
X101619692Y-81349030D01*
X101624760Y-81350061D01*
X101624763Y-81350062D01*
X101732017Y-81371883D01*
X101838597Y-81393567D01*
X101843772Y-81393757D01*
X101843774Y-81393757D01*
X102056673Y-81401564D01*
X102056677Y-81401564D01*
X102061837Y-81401753D01*
X102066957Y-81401097D01*
X102066959Y-81401097D01*
X102278288Y-81374025D01*
X102278289Y-81374025D01*
X102283416Y-81373368D01*
X102288366Y-81371883D01*
X102492429Y-81310661D01*
X102492434Y-81310659D01*
X102497384Y-81309174D01*
X102697994Y-81210896D01*
X102879860Y-81081173D01*
X103038096Y-80923489D01*
X103097594Y-80840689D01*
X103165435Y-80746277D01*
X103168453Y-80742077D01*
X103172611Y-80733665D01*
X103265136Y-80546453D01*
X103265137Y-80546451D01*
X103267430Y-80541811D01*
X103332370Y-80328069D01*
X103361529Y-80106590D01*
X103363156Y-80040000D01*
X103344852Y-79817361D01*
X103290431Y-79600702D01*
X103201354Y-79395840D01*
X103160599Y-79332842D01*
X103082822Y-79212617D01*
X103082820Y-79212614D01*
X103080014Y-79208277D01*
X102929670Y-79043051D01*
X102925619Y-79039852D01*
X102925615Y-79039848D01*
X102758414Y-78907800D01*
X102758410Y-78907798D01*
X102754359Y-78904598D01*
X102712569Y-78881529D01*
X102662598Y-78831097D01*
X102647826Y-78761654D01*
X102672942Y-78695248D01*
X102700294Y-78668641D01*
X102875328Y-78543792D01*
X102883200Y-78537139D01*
X103034052Y-78386812D01*
X103040730Y-78378965D01*
X103165003Y-78206020D01*
X103170313Y-78197183D01*
X103264670Y-78006267D01*
X103268469Y-77996672D01*
X103330377Y-77792910D01*
X103332555Y-77782837D01*
X103333986Y-77771962D01*
X103331775Y-77757778D01*
X103318617Y-77754000D01*
X101872000Y-77754000D01*
X101803879Y-77733998D01*
X101757386Y-77680342D01*
X101746000Y-77628000D01*
X101746000Y-75227548D01*
X102254000Y-75227548D01*
X102254000Y-77227885D01*
X102258475Y-77243124D01*
X102259865Y-77244329D01*
X102267548Y-77246000D01*
X103318344Y-77246000D01*
X103331875Y-77242027D01*
X103333180Y-77232947D01*
X103299786Y-77100000D01*
X111186496Y-77100000D01*
X111187186Y-77106565D01*
X111192182Y-77154095D01*
X111206458Y-77289928D01*
X111265473Y-77471556D01*
X111360960Y-77636944D01*
X111365378Y-77641851D01*
X111365379Y-77641852D01*
X111484325Y-77773955D01*
X111488747Y-77778866D01*
X111494213Y-77782837D01*
X111637904Y-77887235D01*
X111643248Y-77891118D01*
X111649276Y-77893802D01*
X111649278Y-77893803D01*
X111811394Y-77965981D01*
X111817712Y-77968794D01*
X111911112Y-77988647D01*
X111998056Y-78007128D01*
X111998061Y-78007128D01*
X112004513Y-78008500D01*
X112195487Y-78008500D01*
X112201939Y-78007128D01*
X112201944Y-78007128D01*
X112288888Y-77988647D01*
X112382288Y-77968794D01*
X112388606Y-77965981D01*
X112425623Y-77949500D01*
X119486496Y-77949500D01*
X119506458Y-78139428D01*
X119565473Y-78321056D01*
X119660960Y-78486444D01*
X119665378Y-78491351D01*
X119665379Y-78491352D01*
X119756286Y-78592314D01*
X119788747Y-78628366D01*
X119860042Y-78680165D01*
X119937904Y-78736735D01*
X119943248Y-78740618D01*
X119949276Y-78743302D01*
X119949278Y-78743303D01*
X120111681Y-78815609D01*
X120117712Y-78818294D01*
X120211113Y-78838147D01*
X120298056Y-78856628D01*
X120298061Y-78856628D01*
X120304513Y-78858000D01*
X120495487Y-78858000D01*
X120501939Y-78856628D01*
X120501944Y-78856628D01*
X120588887Y-78838147D01*
X120682288Y-78818294D01*
X120688319Y-78815609D01*
X120850722Y-78743303D01*
X120850724Y-78743302D01*
X120856752Y-78740618D01*
X120862091Y-78736739D01*
X120862098Y-78736735D01*
X120868528Y-78732063D01*
X120942587Y-78708000D01*
X139283430Y-78708000D01*
X139302380Y-78709433D01*
X139316615Y-78711599D01*
X139316619Y-78711599D01*
X139323849Y-78712699D01*
X139331141Y-78712106D01*
X139331144Y-78712106D01*
X139376518Y-78708415D01*
X139386733Y-78708000D01*
X139394793Y-78708000D01*
X139408083Y-78706451D01*
X139423007Y-78704711D01*
X139427382Y-78704278D01*
X139492839Y-78698954D01*
X139492842Y-78698953D01*
X139500137Y-78698360D01*
X139507101Y-78696104D01*
X139513060Y-78694913D01*
X139518915Y-78693529D01*
X139526181Y-78692682D01*
X139594827Y-78667765D01*
X139598955Y-78666348D01*
X139661436Y-78646107D01*
X139661438Y-78646106D01*
X139668399Y-78643851D01*
X139674654Y-78640055D01*
X139680128Y-78637549D01*
X139685558Y-78634830D01*
X139692437Y-78632333D01*
X139753476Y-78592314D01*
X139757180Y-78589977D01*
X139819607Y-78552095D01*
X139827984Y-78544697D01*
X139828008Y-78544724D01*
X139831000Y-78542071D01*
X139834233Y-78539368D01*
X139840352Y-78535356D01*
X139893628Y-78479117D01*
X139896006Y-78476675D01*
X140477276Y-77895405D01*
X140539588Y-77861379D01*
X140566371Y-77858500D01*
X142157413Y-77858500D01*
X142231472Y-77882563D01*
X142237902Y-77887235D01*
X142237909Y-77887239D01*
X142243248Y-77891118D01*
X142249276Y-77893802D01*
X142249278Y-77893803D01*
X142411394Y-77965981D01*
X142417712Y-77968794D01*
X142511112Y-77988647D01*
X142598056Y-78007128D01*
X142598061Y-78007128D01*
X142604513Y-78008500D01*
X142795487Y-78008500D01*
X142801939Y-78007128D01*
X142801944Y-78007128D01*
X142888888Y-77988647D01*
X142982288Y-77968794D01*
X142988606Y-77965981D01*
X143150722Y-77893803D01*
X143150724Y-77893802D01*
X143156752Y-77891118D01*
X143162097Y-77887235D01*
X143305787Y-77782837D01*
X143311253Y-77778866D01*
X143315675Y-77773955D01*
X143434621Y-77641852D01*
X143434622Y-77641851D01*
X143439040Y-77636944D01*
X143534527Y-77471556D01*
X143593542Y-77289928D01*
X143607819Y-77154095D01*
X143612814Y-77106565D01*
X143613504Y-77100000D01*
X143594429Y-76918512D01*
X143594232Y-76916635D01*
X143594232Y-76916633D01*
X143593542Y-76910072D01*
X143534527Y-76728444D01*
X143531135Y-76722568D01*
X143505553Y-76678260D01*
X143475381Y-76626000D01*
X143458500Y-76563001D01*
X143458500Y-71167070D01*
X143459933Y-71148120D01*
X143462099Y-71133885D01*
X143462099Y-71133881D01*
X143463199Y-71126651D01*
X143460309Y-71091114D01*
X143458915Y-71073982D01*
X143458500Y-71063767D01*
X143458500Y-71055707D01*
X143457708Y-71048909D01*
X143455211Y-71027497D01*
X143454778Y-71023121D01*
X143449454Y-70957662D01*
X143449453Y-70957659D01*
X143448860Y-70950364D01*
X143446604Y-70943400D01*
X143445417Y-70937461D01*
X143444030Y-70931590D01*
X143443182Y-70924319D01*
X143440686Y-70917443D01*
X143440684Y-70917434D01*
X143418275Y-70855702D01*
X143416865Y-70851598D01*
X143394352Y-70782101D01*
X143390556Y-70775846D01*
X143388057Y-70770387D01*
X143385329Y-70764939D01*
X143382833Y-70758063D01*
X143342805Y-70697010D01*
X143340481Y-70693327D01*
X143335482Y-70685088D01*
X143302595Y-70630893D01*
X143295198Y-70622517D01*
X143295225Y-70622493D01*
X143292570Y-70619499D01*
X143289868Y-70616268D01*
X143285856Y-70610148D01*
X143229617Y-70556872D01*
X143227175Y-70554494D01*
X140108588Y-67435907D01*
X140074562Y-67373595D01*
X140075164Y-67317398D01*
X140093380Y-67241524D01*
X140093381Y-67241518D01*
X140094535Y-67236711D01*
X140113165Y-67000000D01*
X140094535Y-66763289D01*
X140092977Y-66756796D01*
X140055781Y-66601866D01*
X145866500Y-66601866D01*
X145866500Y-68398134D01*
X145873255Y-68460316D01*
X145924385Y-68596705D01*
X146011739Y-68713261D01*
X146128295Y-68800615D01*
X146264684Y-68851745D01*
X146326866Y-68858500D01*
X148123134Y-68858500D01*
X148185316Y-68851745D01*
X148321705Y-68800615D01*
X148438261Y-68713261D01*
X148525615Y-68596705D01*
X148530346Y-68584086D01*
X148569598Y-68479382D01*
X148612240Y-68422618D01*
X148678802Y-68397918D01*
X148748150Y-68413126D01*
X148782817Y-68441114D01*
X148811250Y-68473938D01*
X148983126Y-68616632D01*
X149176000Y-68729338D01*
X149384692Y-68809030D01*
X149389760Y-68810061D01*
X149389763Y-68810062D01*
X149497017Y-68831883D01*
X149603597Y-68853567D01*
X149608772Y-68853757D01*
X149608774Y-68853757D01*
X149821673Y-68861564D01*
X149821677Y-68861564D01*
X149826837Y-68861753D01*
X149831957Y-68861097D01*
X149831959Y-68861097D01*
X150043288Y-68834025D01*
X150043289Y-68834025D01*
X150048416Y-68833368D01*
X150053366Y-68831883D01*
X150257429Y-68770661D01*
X150257434Y-68770659D01*
X150262384Y-68769174D01*
X150462994Y-68670896D01*
X150644860Y-68541173D01*
X150673356Y-68512777D01*
X150729697Y-68456632D01*
X150803096Y-68383489D01*
X150850701Y-68317240D01*
X150930435Y-68206277D01*
X150933453Y-68202077D01*
X150998745Y-68069969D01*
X151030136Y-68006453D01*
X151030137Y-68006451D01*
X151032430Y-68001811D01*
X151074874Y-67862113D01*
X151095865Y-67793023D01*
X151095865Y-67793021D01*
X151097370Y-67788069D01*
X151126529Y-67566590D01*
X151128156Y-67500000D01*
X151109852Y-67277361D01*
X151055431Y-67060702D01*
X150966354Y-66855840D01*
X150926906Y-66794862D01*
X150847822Y-66672617D01*
X150847820Y-66672614D01*
X150845014Y-66668277D01*
X150694670Y-66503051D01*
X150690619Y-66499852D01*
X150690615Y-66499848D01*
X150523414Y-66367800D01*
X150523410Y-66367798D01*
X150519359Y-66364598D01*
X150323789Y-66256638D01*
X150318920Y-66254914D01*
X150318916Y-66254912D01*
X150118087Y-66183795D01*
X150118083Y-66183794D01*
X150113212Y-66182069D01*
X150108119Y-66181162D01*
X150108116Y-66181161D01*
X149898373Y-66143800D01*
X149898367Y-66143799D01*
X149893284Y-66142894D01*
X149819452Y-66141992D01*
X149675081Y-66140228D01*
X149675079Y-66140228D01*
X149669911Y-66140165D01*
X149449091Y-66173955D01*
X149236756Y-66243357D01*
X149206443Y-66259137D01*
X149088307Y-66320635D01*
X149038607Y-66346507D01*
X149034474Y-66349610D01*
X149034471Y-66349612D01*
X148864100Y-66477530D01*
X148859965Y-66480635D01*
X148803537Y-66539684D01*
X148779283Y-66565064D01*
X148717759Y-66600494D01*
X148646846Y-66597037D01*
X148589060Y-66555791D01*
X148570207Y-66522243D01*
X148528767Y-66411703D01*
X148525615Y-66403295D01*
X148438261Y-66286739D01*
X148321705Y-66199385D01*
X148185316Y-66148255D01*
X148123134Y-66141500D01*
X146326866Y-66141500D01*
X146264684Y-66148255D01*
X146128295Y-66199385D01*
X146011739Y-66286739D01*
X145924385Y-66403295D01*
X145873255Y-66539684D01*
X145866500Y-66601866D01*
X140055781Y-66601866D01*
X140054965Y-66598469D01*
X140039105Y-66532406D01*
X140037211Y-66527833D01*
X139950135Y-66317611D01*
X139950133Y-66317607D01*
X139948240Y-66313037D01*
X139936524Y-66293919D01*
X139826759Y-66114798D01*
X139826755Y-66114792D01*
X139824176Y-66110584D01*
X139669969Y-65930031D01*
X139656856Y-65918831D01*
X139568996Y-65843792D01*
X139489416Y-65775824D01*
X139485208Y-65773245D01*
X139485202Y-65773241D01*
X139291183Y-65654346D01*
X139286963Y-65651760D01*
X139282393Y-65649867D01*
X139282389Y-65649865D01*
X139072167Y-65562789D01*
X139072165Y-65562788D01*
X139067594Y-65560895D01*
X138987391Y-65541640D01*
X138841524Y-65506620D01*
X138841518Y-65506619D01*
X138836711Y-65505465D01*
X138600000Y-65486835D01*
X138363289Y-65505465D01*
X138358482Y-65506619D01*
X138358476Y-65506620D01*
X138212609Y-65541640D01*
X138132406Y-65560895D01*
X138127835Y-65562788D01*
X138127833Y-65562789D01*
X137917611Y-65649865D01*
X137917607Y-65649867D01*
X137913037Y-65651760D01*
X137908817Y-65654346D01*
X137714798Y-65773241D01*
X137714792Y-65773245D01*
X137710584Y-65775824D01*
X137631004Y-65843792D01*
X137543145Y-65918831D01*
X137530031Y-65930031D01*
X137375824Y-66110584D01*
X137373245Y-66114792D01*
X137373241Y-66114798D01*
X137263476Y-66293919D01*
X137251760Y-66313037D01*
X137249867Y-66317607D01*
X137249865Y-66317611D01*
X137162789Y-66527833D01*
X137160895Y-66532406D01*
X137145035Y-66598469D01*
X137107024Y-66756796D01*
X137105465Y-66763289D01*
X137086835Y-67000000D01*
X137105465Y-67236711D01*
X137106619Y-67241518D01*
X137106620Y-67241524D01*
X137123504Y-67311851D01*
X137160895Y-67467594D01*
X137162788Y-67472165D01*
X137162789Y-67472167D01*
X137249772Y-67682163D01*
X137251760Y-67686963D01*
X137254346Y-67691183D01*
X137373241Y-67885202D01*
X137373245Y-67885208D01*
X137375824Y-67889416D01*
X137530031Y-68069969D01*
X137710584Y-68224176D01*
X137714792Y-68226755D01*
X137714798Y-68226759D01*
X137862450Y-68317240D01*
X137913037Y-68348240D01*
X137917607Y-68350133D01*
X137917611Y-68350135D01*
X138127833Y-68437211D01*
X138132406Y-68439105D01*
X138188034Y-68452460D01*
X138358476Y-68493380D01*
X138358482Y-68493381D01*
X138363289Y-68494535D01*
X138600000Y-68513165D01*
X138836711Y-68494535D01*
X138841518Y-68493381D01*
X138841524Y-68493380D01*
X138917398Y-68475164D01*
X138988306Y-68478711D01*
X139035907Y-68508588D01*
X141904595Y-71377276D01*
X141938621Y-71439588D01*
X141941500Y-71466371D01*
X141941500Y-76215500D01*
X141921498Y-76283621D01*
X141867842Y-76330114D01*
X141815500Y-76341500D01*
X140267063Y-76341500D01*
X140248114Y-76340067D01*
X140247851Y-76340027D01*
X140226651Y-76336802D01*
X140219359Y-76337395D01*
X140219356Y-76337395D01*
X140173991Y-76341085D01*
X140163777Y-76341500D01*
X140155707Y-76341500D01*
X140152087Y-76341922D01*
X140152069Y-76341923D01*
X140127461Y-76344792D01*
X140123100Y-76345224D01*
X140097981Y-76347267D01*
X140057661Y-76350546D01*
X140057658Y-76350547D01*
X140050363Y-76351140D01*
X140043399Y-76353396D01*
X140037440Y-76354587D01*
X140031585Y-76355971D01*
X140024319Y-76356818D01*
X139955673Y-76381735D01*
X139951545Y-76383152D01*
X139889064Y-76403393D01*
X139889062Y-76403394D01*
X139882101Y-76405649D01*
X139875846Y-76409445D01*
X139870372Y-76411951D01*
X139864942Y-76414670D01*
X139858063Y-76417167D01*
X139797016Y-76457191D01*
X139793327Y-76459518D01*
X139773135Y-76471771D01*
X139735693Y-76494491D01*
X139735688Y-76494495D01*
X139730892Y-76497405D01*
X139726685Y-76501121D01*
X139726682Y-76501123D01*
X139722545Y-76504777D01*
X139722516Y-76504803D01*
X139722493Y-76504777D01*
X139719503Y-76507426D01*
X139716264Y-76510134D01*
X139710148Y-76514144D01*
X139705121Y-76519451D01*
X139705117Y-76519454D01*
X139656872Y-76570383D01*
X139654494Y-76572825D01*
X139073224Y-77154095D01*
X139010912Y-77188121D01*
X138984129Y-77191000D01*
X138736520Y-77191000D01*
X138668399Y-77170998D01*
X138621906Y-77117342D01*
X138611210Y-77078171D01*
X138594232Y-76916635D01*
X138594232Y-76916633D01*
X138593542Y-76910072D01*
X138534527Y-76728444D01*
X138531135Y-76722568D01*
X138505553Y-76678260D01*
X138475381Y-76626000D01*
X138458500Y-76563001D01*
X138458500Y-74967069D01*
X138459933Y-74948118D01*
X138462099Y-74933883D01*
X138462099Y-74933881D01*
X138463199Y-74926651D01*
X138458915Y-74873982D01*
X138458500Y-74863767D01*
X138458500Y-74855707D01*
X138455211Y-74827493D01*
X138454778Y-74823118D01*
X138449454Y-74757661D01*
X138449453Y-74757658D01*
X138448860Y-74750363D01*
X138446604Y-74743399D01*
X138445413Y-74737440D01*
X138444029Y-74731585D01*
X138443182Y-74724319D01*
X138418265Y-74655673D01*
X138416848Y-74651545D01*
X138396607Y-74589064D01*
X138396606Y-74589062D01*
X138394351Y-74582101D01*
X138390555Y-74575846D01*
X138388049Y-74570372D01*
X138385330Y-74564942D01*
X138382833Y-74558063D01*
X138378820Y-74551942D01*
X138342814Y-74497024D01*
X138340467Y-74493305D01*
X138302595Y-74430893D01*
X138295197Y-74422516D01*
X138295224Y-74422492D01*
X138292571Y-74419500D01*
X138289868Y-74416267D01*
X138285856Y-74410148D01*
X138229617Y-74356872D01*
X138227175Y-74354494D01*
X132105351Y-68232670D01*
X133332160Y-68232670D01*
X133337887Y-68240320D01*
X133509042Y-68345205D01*
X133517837Y-68349687D01*
X133727988Y-68436734D01*
X133737373Y-68439783D01*
X133958554Y-68492885D01*
X133968301Y-68494428D01*
X134195070Y-68512275D01*
X134204930Y-68512275D01*
X134431699Y-68494428D01*
X134441446Y-68492885D01*
X134662627Y-68439783D01*
X134672012Y-68436734D01*
X134882163Y-68349687D01*
X134890958Y-68345205D01*
X135058445Y-68242568D01*
X135067907Y-68232110D01*
X135064124Y-68223334D01*
X134212812Y-67372022D01*
X134198868Y-67364408D01*
X134197035Y-67364539D01*
X134190420Y-67368790D01*
X133338920Y-68220290D01*
X133332160Y-68232670D01*
X132105351Y-68232670D01*
X131308588Y-67435907D01*
X131274562Y-67373595D01*
X131275164Y-67317398D01*
X131293380Y-67241524D01*
X131293381Y-67241518D01*
X131294535Y-67236711D01*
X131313165Y-67000000D01*
X131312777Y-66995070D01*
X132687725Y-66995070D01*
X132687725Y-67004930D01*
X132705572Y-67231699D01*
X132707115Y-67241446D01*
X132760217Y-67462627D01*
X132763266Y-67472012D01*
X132850313Y-67682163D01*
X132854795Y-67690958D01*
X132957432Y-67858445D01*
X132967890Y-67867907D01*
X132976666Y-67864124D01*
X133827978Y-67012812D01*
X133834356Y-67001132D01*
X134564408Y-67001132D01*
X134564539Y-67002965D01*
X134568790Y-67009580D01*
X135420290Y-67861080D01*
X135432670Y-67867840D01*
X135440320Y-67862113D01*
X135545205Y-67690958D01*
X135549687Y-67682163D01*
X135636734Y-67472012D01*
X135639783Y-67462627D01*
X135692885Y-67241446D01*
X135694428Y-67231699D01*
X135712275Y-67004930D01*
X135712275Y-66995070D01*
X135694428Y-66768301D01*
X135692885Y-66758554D01*
X135639783Y-66537373D01*
X135636734Y-66527988D01*
X135549687Y-66317837D01*
X135545205Y-66309042D01*
X135442568Y-66141555D01*
X135432110Y-66132093D01*
X135423334Y-66135876D01*
X134572022Y-66987188D01*
X134564408Y-67001132D01*
X133834356Y-67001132D01*
X133835592Y-66998868D01*
X133835461Y-66997035D01*
X133831210Y-66990420D01*
X132979710Y-66138920D01*
X132967330Y-66132160D01*
X132959680Y-66137887D01*
X132854795Y-66309042D01*
X132850313Y-66317837D01*
X132763266Y-66527988D01*
X132760217Y-66537373D01*
X132707115Y-66758554D01*
X132705572Y-66768301D01*
X132687725Y-66995070D01*
X131312777Y-66995070D01*
X131294535Y-66763289D01*
X131292977Y-66756796D01*
X131254965Y-66598469D01*
X131239105Y-66532406D01*
X131237211Y-66527833D01*
X131150135Y-66317611D01*
X131150133Y-66317607D01*
X131148240Y-66313037D01*
X131136524Y-66293919D01*
X131026759Y-66114798D01*
X131026755Y-66114792D01*
X131024176Y-66110584D01*
X130869969Y-65930031D01*
X130856856Y-65918831D01*
X130768996Y-65843792D01*
X130689416Y-65775824D01*
X130685208Y-65773245D01*
X130685202Y-65773241D01*
X130676470Y-65767890D01*
X133332093Y-65767890D01*
X133335876Y-65776666D01*
X134187188Y-66627978D01*
X134201132Y-66635592D01*
X134202965Y-66635461D01*
X134209580Y-66631210D01*
X135061080Y-65779710D01*
X135067840Y-65767330D01*
X135062113Y-65759680D01*
X134890958Y-65654795D01*
X134882163Y-65650313D01*
X134672012Y-65563266D01*
X134662627Y-65560217D01*
X134441446Y-65507115D01*
X134431699Y-65505572D01*
X134204930Y-65487725D01*
X134195070Y-65487725D01*
X133968301Y-65505572D01*
X133958554Y-65507115D01*
X133737373Y-65560217D01*
X133727988Y-65563266D01*
X133517837Y-65650313D01*
X133509042Y-65654795D01*
X133341555Y-65757432D01*
X133332093Y-65767890D01*
X130676470Y-65767890D01*
X130491183Y-65654346D01*
X130486963Y-65651760D01*
X130482393Y-65649867D01*
X130482389Y-65649865D01*
X130272167Y-65562789D01*
X130272165Y-65562788D01*
X130267594Y-65560895D01*
X130187391Y-65541640D01*
X130041524Y-65506620D01*
X130041518Y-65506619D01*
X130036711Y-65505465D01*
X129800000Y-65486835D01*
X129563289Y-65505465D01*
X129558482Y-65506619D01*
X129558476Y-65506620D01*
X129412609Y-65541640D01*
X129332406Y-65560895D01*
X129327835Y-65562788D01*
X129327833Y-65562789D01*
X129117611Y-65649865D01*
X129117607Y-65649867D01*
X129113037Y-65651760D01*
X129108817Y-65654346D01*
X128914798Y-65773241D01*
X128914792Y-65773245D01*
X128910584Y-65775824D01*
X128831004Y-65843792D01*
X128743145Y-65918831D01*
X128730031Y-65930031D01*
X128575824Y-66110584D01*
X128573245Y-66114792D01*
X128573241Y-66114798D01*
X128463476Y-66293919D01*
X128451760Y-66313037D01*
X128449867Y-66317607D01*
X128449865Y-66317611D01*
X128362789Y-66527833D01*
X128360895Y-66532406D01*
X128345035Y-66598469D01*
X128307024Y-66756796D01*
X128305465Y-66763289D01*
X128286835Y-67000000D01*
X128305465Y-67236711D01*
X128306619Y-67241518D01*
X128306620Y-67241524D01*
X128323504Y-67311851D01*
X128360895Y-67467594D01*
X128362788Y-67472165D01*
X128362789Y-67472167D01*
X128449772Y-67682163D01*
X128451760Y-67686963D01*
X128454346Y-67691183D01*
X128573241Y-67885202D01*
X128573245Y-67885208D01*
X128575824Y-67889416D01*
X128730031Y-68069969D01*
X128910584Y-68224176D01*
X128914792Y-68226755D01*
X128914798Y-68226759D01*
X129062450Y-68317240D01*
X129113037Y-68348240D01*
X129117607Y-68350133D01*
X129117611Y-68350135D01*
X129327833Y-68437211D01*
X129332406Y-68439105D01*
X129388034Y-68452460D01*
X129558476Y-68493380D01*
X129558482Y-68493381D01*
X129563289Y-68494535D01*
X129800000Y-68513165D01*
X130036711Y-68494535D01*
X130041518Y-68493381D01*
X130041524Y-68493380D01*
X130117398Y-68475164D01*
X130188306Y-68478711D01*
X130235907Y-68508588D01*
X136904595Y-75177276D01*
X136938621Y-75239588D01*
X136941500Y-75266371D01*
X136941500Y-76563001D01*
X136924619Y-76626000D01*
X136894447Y-76678260D01*
X136868866Y-76722568D01*
X136865473Y-76728444D01*
X136806458Y-76910072D01*
X136805768Y-76916633D01*
X136805768Y-76916635D01*
X136788790Y-77078171D01*
X136761777Y-77143827D01*
X136703555Y-77184457D01*
X136663480Y-77191000D01*
X120942587Y-77191000D01*
X120868528Y-77166937D01*
X120862098Y-77162265D01*
X120862091Y-77162261D01*
X120856752Y-77158382D01*
X120850724Y-77155698D01*
X120850722Y-77155697D01*
X120688319Y-77083391D01*
X120688318Y-77083391D01*
X120682288Y-77080706D01*
X120588177Y-77060702D01*
X120501944Y-77042372D01*
X120501939Y-77042372D01*
X120495487Y-77041000D01*
X120304513Y-77041000D01*
X120298061Y-77042372D01*
X120298056Y-77042372D01*
X120211823Y-77060702D01*
X120117712Y-77080706D01*
X120111682Y-77083391D01*
X120111681Y-77083391D01*
X119949278Y-77155697D01*
X119949276Y-77155698D01*
X119943248Y-77158382D01*
X119937907Y-77162262D01*
X119937906Y-77162263D01*
X119907359Y-77184457D01*
X119788747Y-77270634D01*
X119784326Y-77275544D01*
X119784325Y-77275545D01*
X119771375Y-77289928D01*
X119660960Y-77412556D01*
X119565473Y-77577944D01*
X119506458Y-77759572D01*
X119505768Y-77766133D01*
X119505768Y-77766135D01*
X119487186Y-77942935D01*
X119486496Y-77949500D01*
X112425623Y-77949500D01*
X112550722Y-77893803D01*
X112550724Y-77893802D01*
X112556752Y-77891118D01*
X112562097Y-77887235D01*
X112705787Y-77782837D01*
X112711253Y-77778866D01*
X112715675Y-77773955D01*
X112834621Y-77641852D01*
X112834622Y-77641851D01*
X112839040Y-77636944D01*
X112934527Y-77471556D01*
X112993542Y-77289928D01*
X113007819Y-77154095D01*
X113012814Y-77106565D01*
X113013504Y-77100000D01*
X112994429Y-76918512D01*
X112994232Y-76916635D01*
X112994232Y-76916633D01*
X112993542Y-76910072D01*
X112934527Y-76728444D01*
X112931135Y-76722568D01*
X112882723Y-76638717D01*
X112839040Y-76563056D01*
X112795000Y-76514144D01*
X112715675Y-76426045D01*
X112715674Y-76426044D01*
X112711253Y-76421134D01*
X112601647Y-76341500D01*
X112562094Y-76312763D01*
X112562093Y-76312762D01*
X112556752Y-76308882D01*
X112550724Y-76306198D01*
X112550722Y-76306197D01*
X112388319Y-76233891D01*
X112388318Y-76233891D01*
X112382288Y-76231206D01*
X112288887Y-76211353D01*
X112201944Y-76192872D01*
X112201939Y-76192872D01*
X112195487Y-76191500D01*
X112004513Y-76191500D01*
X111998061Y-76192872D01*
X111998056Y-76192872D01*
X111911113Y-76211353D01*
X111817712Y-76231206D01*
X111811682Y-76233891D01*
X111811681Y-76233891D01*
X111649278Y-76306197D01*
X111649276Y-76306198D01*
X111643248Y-76308882D01*
X111637907Y-76312762D01*
X111637906Y-76312763D01*
X111598353Y-76341500D01*
X111488747Y-76421134D01*
X111484326Y-76426044D01*
X111484325Y-76426045D01*
X111405001Y-76514144D01*
X111360960Y-76563056D01*
X111317277Y-76638717D01*
X111268866Y-76722568D01*
X111265473Y-76728444D01*
X111206458Y-76910072D01*
X111205768Y-76916633D01*
X111205768Y-76916635D01*
X111205571Y-76918512D01*
X111186496Y-77100000D01*
X103299786Y-77100000D01*
X103291214Y-77065875D01*
X103287894Y-77056124D01*
X103202972Y-76860814D01*
X103198105Y-76851739D01*
X103082426Y-76672926D01*
X103076136Y-76664757D01*
X102932806Y-76507240D01*
X102925273Y-76500215D01*
X102758139Y-76368222D01*
X102749552Y-76362517D01*
X102712116Y-76341851D01*
X102662146Y-76291419D01*
X102647374Y-76221976D01*
X102672490Y-76155571D01*
X102699842Y-76128964D01*
X102875327Y-76003792D01*
X102883200Y-75997139D01*
X103034052Y-75846812D01*
X103040730Y-75838965D01*
X103165003Y-75666020D01*
X103170313Y-75657183D01*
X103264670Y-75466267D01*
X103268469Y-75456672D01*
X103330377Y-75252910D01*
X103332555Y-75242837D01*
X103333986Y-75231962D01*
X103331775Y-75217778D01*
X103318617Y-75214000D01*
X102272115Y-75214000D01*
X102256876Y-75218475D01*
X102255671Y-75219865D01*
X102254000Y-75227548D01*
X101746000Y-75227548D01*
X101746000Y-74832000D01*
X101766002Y-74763879D01*
X101819658Y-74717386D01*
X101872000Y-74706000D01*
X103318344Y-74706000D01*
X103331875Y-74702027D01*
X103333180Y-74692947D01*
X103291214Y-74525875D01*
X103287894Y-74516124D01*
X103202972Y-74320814D01*
X103198105Y-74311739D01*
X103082426Y-74132926D01*
X103076136Y-74124757D01*
X102932806Y-73967240D01*
X102925273Y-73960215D01*
X102758139Y-73828222D01*
X102749556Y-73822520D01*
X102712602Y-73802120D01*
X102662631Y-73751687D01*
X102647859Y-73682245D01*
X102672975Y-73615839D01*
X102700327Y-73589232D01*
X102723797Y-73572491D01*
X102879860Y-73461173D01*
X103038096Y-73303489D01*
X103097594Y-73220689D01*
X103165435Y-73126277D01*
X103168453Y-73122077D01*
X103172611Y-73113665D01*
X103265136Y-72926453D01*
X103265137Y-72926451D01*
X103267430Y-72921811D01*
X103332370Y-72708069D01*
X103361529Y-72486590D01*
X103363156Y-72420000D01*
X103344852Y-72197361D01*
X103290431Y-71980702D01*
X103201354Y-71775840D01*
X103080014Y-71588277D01*
X102929670Y-71423051D01*
X102925619Y-71419852D01*
X102925615Y-71419848D01*
X102758414Y-71287800D01*
X102758410Y-71287798D01*
X102754359Y-71284598D01*
X102713053Y-71261796D01*
X102663084Y-71211364D01*
X102648312Y-71141921D01*
X102673428Y-71075516D01*
X102700780Y-71048909D01*
X102744603Y-71017650D01*
X102879860Y-70921173D01*
X103038096Y-70763489D01*
X103087169Y-70695197D01*
X103165435Y-70586277D01*
X103168453Y-70582077D01*
X103182086Y-70554494D01*
X103265136Y-70386453D01*
X103265137Y-70386451D01*
X103267430Y-70381811D01*
X103332370Y-70168069D01*
X103361529Y-69946590D01*
X103363156Y-69880000D01*
X103344852Y-69657361D01*
X103290431Y-69440702D01*
X103201354Y-69235840D01*
X103080014Y-69048277D01*
X102929670Y-68883051D01*
X102925619Y-68879852D01*
X102925615Y-68879848D01*
X102758414Y-68747800D01*
X102758410Y-68747798D01*
X102754359Y-68744598D01*
X102713053Y-68721796D01*
X102663084Y-68671364D01*
X102648312Y-68601921D01*
X102673428Y-68535516D01*
X102700780Y-68508909D01*
X102748089Y-68475164D01*
X102879860Y-68381173D01*
X103038096Y-68223489D01*
X103056816Y-68197438D01*
X103165435Y-68046277D01*
X103168453Y-68042077D01*
X103186060Y-68006453D01*
X103265136Y-67846453D01*
X103265137Y-67846451D01*
X103267430Y-67841811D01*
X103332370Y-67628069D01*
X103361529Y-67406590D01*
X103362453Y-67368790D01*
X103363074Y-67343365D01*
X103363074Y-67343361D01*
X103363156Y-67340000D01*
X103344852Y-67117361D01*
X103315373Y-67000000D01*
X123886835Y-67000000D01*
X123905465Y-67236711D01*
X123906619Y-67241518D01*
X123906620Y-67241524D01*
X123923504Y-67311851D01*
X123960895Y-67467594D01*
X123962788Y-67472165D01*
X123962789Y-67472167D01*
X124049772Y-67682163D01*
X124051760Y-67686963D01*
X124054346Y-67691183D01*
X124173241Y-67885202D01*
X124173245Y-67885208D01*
X124175824Y-67889416D01*
X124330031Y-68069969D01*
X124510584Y-68224176D01*
X124514792Y-68226755D01*
X124514798Y-68226759D01*
X124662450Y-68317240D01*
X124713037Y-68348240D01*
X124717607Y-68350133D01*
X124717611Y-68350135D01*
X124927833Y-68437211D01*
X124932406Y-68439105D01*
X124988034Y-68452460D01*
X125158476Y-68493380D01*
X125158482Y-68493381D01*
X125163289Y-68494535D01*
X125400000Y-68513165D01*
X125636711Y-68494535D01*
X125641518Y-68493381D01*
X125641524Y-68493380D01*
X125811966Y-68452460D01*
X125867594Y-68439105D01*
X125872167Y-68437211D01*
X126082389Y-68350135D01*
X126082393Y-68350133D01*
X126086963Y-68348240D01*
X126137550Y-68317240D01*
X126285202Y-68226759D01*
X126285208Y-68226755D01*
X126289416Y-68224176D01*
X126469969Y-68069969D01*
X126624176Y-67889416D01*
X126626755Y-67885208D01*
X126626759Y-67885202D01*
X126745654Y-67691183D01*
X126748240Y-67686963D01*
X126750229Y-67682163D01*
X126837211Y-67472167D01*
X126837212Y-67472165D01*
X126839105Y-67467594D01*
X126876496Y-67311851D01*
X126893380Y-67241524D01*
X126893381Y-67241518D01*
X126894535Y-67236711D01*
X126913165Y-67000000D01*
X126894535Y-66763289D01*
X126892977Y-66756796D01*
X126854965Y-66598469D01*
X126839105Y-66532406D01*
X126837211Y-66527833D01*
X126750135Y-66317611D01*
X126750133Y-66317607D01*
X126748240Y-66313037D01*
X126736524Y-66293919D01*
X126626759Y-66114798D01*
X126626755Y-66114792D01*
X126624176Y-66110584D01*
X126469969Y-65930031D01*
X126456856Y-65918831D01*
X126368996Y-65843792D01*
X126289416Y-65775824D01*
X126285208Y-65773245D01*
X126285202Y-65773241D01*
X126091183Y-65654346D01*
X126086963Y-65651760D01*
X126082393Y-65649867D01*
X126082389Y-65649865D01*
X125872167Y-65562789D01*
X125872165Y-65562788D01*
X125867594Y-65560895D01*
X125787391Y-65541640D01*
X125641524Y-65506620D01*
X125641518Y-65506619D01*
X125636711Y-65505465D01*
X125400000Y-65486835D01*
X125163289Y-65505465D01*
X125158482Y-65506619D01*
X125158476Y-65506620D01*
X125012609Y-65541640D01*
X124932406Y-65560895D01*
X124927835Y-65562788D01*
X124927833Y-65562789D01*
X124717611Y-65649865D01*
X124717607Y-65649867D01*
X124713037Y-65651760D01*
X124708817Y-65654346D01*
X124514798Y-65773241D01*
X124514792Y-65773245D01*
X124510584Y-65775824D01*
X124431004Y-65843792D01*
X124343145Y-65918831D01*
X124330031Y-65930031D01*
X124175824Y-66110584D01*
X124173245Y-66114792D01*
X124173241Y-66114798D01*
X124063476Y-66293919D01*
X124051760Y-66313037D01*
X124049867Y-66317607D01*
X124049865Y-66317611D01*
X123962789Y-66527833D01*
X123960895Y-66532406D01*
X123945035Y-66598469D01*
X123907024Y-66756796D01*
X123905465Y-66763289D01*
X123886835Y-67000000D01*
X103315373Y-67000000D01*
X103290431Y-66900702D01*
X103201354Y-66695840D01*
X103142770Y-66605283D01*
X103082822Y-66512617D01*
X103082820Y-66512614D01*
X103080014Y-66508277D01*
X102929670Y-66343051D01*
X102925619Y-66339852D01*
X102925615Y-66339848D01*
X102758414Y-66207800D01*
X102758410Y-66207798D01*
X102754359Y-66204598D01*
X102712569Y-66181529D01*
X102662598Y-66131097D01*
X102647826Y-66061654D01*
X102672942Y-65995248D01*
X102700294Y-65968641D01*
X102875328Y-65843792D01*
X102883200Y-65837139D01*
X103034052Y-65686812D01*
X103040730Y-65678965D01*
X103165003Y-65506020D01*
X103170313Y-65497183D01*
X103264670Y-65306267D01*
X103268469Y-65296672D01*
X103330377Y-65092910D01*
X103332555Y-65082837D01*
X103333986Y-65071962D01*
X103331775Y-65057778D01*
X103318617Y-65054000D01*
X101872000Y-65054000D01*
X101803879Y-65033998D01*
X101757386Y-64980342D01*
X101746000Y-64928000D01*
X101746000Y-64672000D01*
X101766002Y-64603879D01*
X101819658Y-64557386D01*
X101872000Y-64546000D01*
X103318344Y-64546000D01*
X103331875Y-64542027D01*
X103333180Y-64532947D01*
X103291214Y-64365875D01*
X103287894Y-64356124D01*
X103202972Y-64160814D01*
X103198105Y-64151739D01*
X103082426Y-63972926D01*
X103076136Y-63964757D01*
X102932806Y-63807240D01*
X102925273Y-63800215D01*
X102758139Y-63668222D01*
X102749556Y-63662520D01*
X102712602Y-63642120D01*
X102662631Y-63591687D01*
X102647859Y-63522245D01*
X102672975Y-63455839D01*
X102700327Y-63429232D01*
X102800361Y-63357879D01*
X102848669Y-63323421D01*
X102921837Y-63300000D01*
X110500000Y-63300000D01*
X110500000Y-61100000D01*
X113786496Y-61100000D01*
X113787186Y-61106565D01*
X113804035Y-61266870D01*
X113806458Y-61289928D01*
X113865473Y-61471556D01*
X113960960Y-61636944D01*
X114088747Y-61778866D01*
X114109986Y-61794297D01*
X114231984Y-61882934D01*
X114243248Y-61891118D01*
X114249276Y-61893802D01*
X114249278Y-61893803D01*
X114411681Y-61966109D01*
X114417712Y-61968794D01*
X114511112Y-61988647D01*
X114598056Y-62007128D01*
X114598061Y-62007128D01*
X114604513Y-62008500D01*
X114795487Y-62008500D01*
X114801939Y-62007128D01*
X114801944Y-62007128D01*
X114888888Y-61988647D01*
X114982288Y-61968794D01*
X114988319Y-61966109D01*
X115150722Y-61893803D01*
X115150724Y-61893802D01*
X115156752Y-61891118D01*
X115168017Y-61882934D01*
X115290014Y-61794297D01*
X115311253Y-61778866D01*
X115439040Y-61636944D01*
X115534527Y-61471556D01*
X115593542Y-61289928D01*
X115595966Y-61266870D01*
X115612814Y-61106565D01*
X115613504Y-61100000D01*
X115593542Y-60910072D01*
X115534527Y-60728444D01*
X115439040Y-60563056D01*
X115404854Y-60525088D01*
X115315675Y-60426045D01*
X115315674Y-60426044D01*
X115311253Y-60421134D01*
X115156752Y-60308882D01*
X115150724Y-60306198D01*
X115150722Y-60306197D01*
X114988319Y-60233891D01*
X114988318Y-60233891D01*
X114982288Y-60231206D01*
X114888887Y-60211353D01*
X114801944Y-60192872D01*
X114801939Y-60192872D01*
X114795487Y-60191500D01*
X114604513Y-60191500D01*
X114598061Y-60192872D01*
X114598056Y-60192872D01*
X114511113Y-60211353D01*
X114417712Y-60231206D01*
X114411682Y-60233891D01*
X114411681Y-60233891D01*
X114249278Y-60306197D01*
X114249276Y-60306198D01*
X114243248Y-60308882D01*
X114088747Y-60421134D01*
X114084326Y-60426044D01*
X114084325Y-60426045D01*
X113995147Y-60525088D01*
X113960960Y-60563056D01*
X113865473Y-60728444D01*
X113806458Y-60910072D01*
X113786496Y-61100000D01*
X110500000Y-61100000D01*
X110500000Y-55526695D01*
X124037251Y-55526695D01*
X124037548Y-55531848D01*
X124037548Y-55531851D01*
X124043011Y-55626590D01*
X124050110Y-55749715D01*
X124051247Y-55754761D01*
X124051248Y-55754767D01*
X124063898Y-55810896D01*
X124099222Y-55967639D01*
X124183266Y-56174616D01*
X124234019Y-56257438D01*
X124297291Y-56360688D01*
X124299987Y-56365088D01*
X124446250Y-56533938D01*
X124450230Y-56537242D01*
X124454981Y-56541187D01*
X124494616Y-56600090D01*
X124496113Y-56671071D01*
X124458997Y-56731593D01*
X124418725Y-56756112D01*
X124378641Y-56771139D01*
X124303295Y-56799385D01*
X124186739Y-56886739D01*
X124099385Y-57003295D01*
X124048255Y-57139684D01*
X124041500Y-57201866D01*
X124041500Y-58998134D01*
X124048255Y-59060316D01*
X124099385Y-59196705D01*
X124186739Y-59313261D01*
X124303295Y-59400615D01*
X124439684Y-59451745D01*
X124501866Y-59458500D01*
X126298134Y-59458500D01*
X126360316Y-59451745D01*
X126496705Y-59400615D01*
X126613261Y-59313261D01*
X126679519Y-59224853D01*
X127179977Y-59224853D01*
X127185258Y-59231907D01*
X127346756Y-59326279D01*
X127356042Y-59330729D01*
X127555001Y-59406703D01*
X127564899Y-59409579D01*
X127773595Y-59452038D01*
X127783823Y-59453257D01*
X127996650Y-59461062D01*
X128006936Y-59460595D01*
X128218185Y-59433534D01*
X128228262Y-59431392D01*
X128432255Y-59370191D01*
X128441842Y-59366433D01*
X128633098Y-59272738D01*
X128641944Y-59267465D01*
X128689247Y-59233723D01*
X128696211Y-59224853D01*
X129719977Y-59224853D01*
X129725258Y-59231907D01*
X129886756Y-59326279D01*
X129896042Y-59330729D01*
X130095001Y-59406703D01*
X130104899Y-59409579D01*
X130313595Y-59452038D01*
X130323823Y-59453257D01*
X130536650Y-59461062D01*
X130546936Y-59460595D01*
X130758185Y-59433534D01*
X130768262Y-59431392D01*
X130972255Y-59370191D01*
X130981842Y-59366433D01*
X131173098Y-59272738D01*
X131181944Y-59267465D01*
X131229247Y-59233723D01*
X131236211Y-59224853D01*
X132259977Y-59224853D01*
X132265258Y-59231907D01*
X132426756Y-59326279D01*
X132436042Y-59330729D01*
X132635001Y-59406703D01*
X132644899Y-59409579D01*
X132853595Y-59452038D01*
X132863823Y-59453257D01*
X133076650Y-59461062D01*
X133086936Y-59460595D01*
X133298185Y-59433534D01*
X133308262Y-59431392D01*
X133512255Y-59370191D01*
X133521842Y-59366433D01*
X133713098Y-59272738D01*
X133721944Y-59267465D01*
X133769247Y-59233723D01*
X133777648Y-59223023D01*
X133770660Y-59209870D01*
X133032812Y-58472022D01*
X133018868Y-58464408D01*
X133017035Y-58464539D01*
X133010420Y-58468790D01*
X132266737Y-59212473D01*
X132259977Y-59224853D01*
X131236211Y-59224853D01*
X131237648Y-59223023D01*
X131230660Y-59209870D01*
X130492812Y-58472022D01*
X130478868Y-58464408D01*
X130477035Y-58464539D01*
X130470420Y-58468790D01*
X129726737Y-59212473D01*
X129719977Y-59224853D01*
X128696211Y-59224853D01*
X128697648Y-59223023D01*
X128690660Y-59209870D01*
X127952812Y-58472022D01*
X127938868Y-58464408D01*
X127937035Y-58464539D01*
X127930420Y-58468790D01*
X127186737Y-59212473D01*
X127179977Y-59224853D01*
X126679519Y-59224853D01*
X126700615Y-59196705D01*
X126751745Y-59060316D01*
X126758500Y-58998134D01*
X126758500Y-58966955D01*
X126778502Y-58898834D01*
X126812608Y-58869915D01*
X126811507Y-58868707D01*
X126818005Y-58862785D01*
X127567978Y-58112812D01*
X127574356Y-58101132D01*
X128304408Y-58101132D01*
X128304539Y-58102965D01*
X128308790Y-58109580D01*
X129050474Y-58851264D01*
X129062484Y-58857823D01*
X129074223Y-58848855D01*
X129108022Y-58801819D01*
X129109149Y-58802629D01*
X129156659Y-58758881D01*
X129226596Y-58746661D01*
X129292038Y-58774191D01*
X129319870Y-58806029D01*
X129346459Y-58849419D01*
X129356916Y-58858880D01*
X129365694Y-58855096D01*
X130107978Y-58112812D01*
X130114356Y-58101132D01*
X130844408Y-58101132D01*
X130844539Y-58102965D01*
X130848790Y-58109580D01*
X131590474Y-58851264D01*
X131602484Y-58857823D01*
X131614223Y-58848855D01*
X131648022Y-58801819D01*
X131649149Y-58802629D01*
X131696659Y-58758881D01*
X131766596Y-58746661D01*
X131832038Y-58774191D01*
X131859870Y-58806029D01*
X131886459Y-58849419D01*
X131896916Y-58858880D01*
X131905694Y-58855096D01*
X132647978Y-58112812D01*
X132655592Y-58098868D01*
X132655461Y-58097035D01*
X132651210Y-58090420D01*
X131909849Y-57349059D01*
X131898313Y-57342759D01*
X131886028Y-57352384D01*
X131853192Y-57400520D01*
X131798281Y-57445523D01*
X131727756Y-57453694D01*
X131664009Y-57422440D01*
X131643311Y-57397955D01*
X131613062Y-57351197D01*
X131602377Y-57341995D01*
X131592812Y-57346398D01*
X130852022Y-58087188D01*
X130844408Y-58101132D01*
X130114356Y-58101132D01*
X130115592Y-58098868D01*
X130115461Y-58097035D01*
X130111210Y-58090420D01*
X129369849Y-57349059D01*
X129358313Y-57342759D01*
X129346028Y-57352384D01*
X129313192Y-57400520D01*
X129258281Y-57445523D01*
X129187756Y-57453694D01*
X129124009Y-57422440D01*
X129103311Y-57397955D01*
X129073062Y-57351197D01*
X129062377Y-57341995D01*
X129052812Y-57346398D01*
X128312022Y-58087188D01*
X128304408Y-58101132D01*
X127574356Y-58101132D01*
X127575592Y-58098868D01*
X127575461Y-58097035D01*
X127571210Y-58090420D01*
X126829848Y-57349058D01*
X126824114Y-57345927D01*
X126773912Y-57295725D01*
X126758500Y-57235340D01*
X126758500Y-57201866D01*
X126751745Y-57139684D01*
X126700615Y-57003295D01*
X126613261Y-56886739D01*
X126496705Y-56799385D01*
X126469905Y-56789338D01*
X126378203Y-56754960D01*
X126321439Y-56712318D01*
X126311247Y-56684853D01*
X127179977Y-56684853D01*
X127185258Y-56691907D01*
X127232479Y-56719501D01*
X127281203Y-56771139D01*
X127294274Y-56840922D01*
X127267543Y-56906694D01*
X127227087Y-56940053D01*
X127218466Y-56944541D01*
X127209734Y-56950039D01*
X127189677Y-56965099D01*
X127181223Y-56976427D01*
X127187968Y-56988758D01*
X127927188Y-57727978D01*
X127941132Y-57735592D01*
X127942965Y-57735461D01*
X127949580Y-57731210D01*
X128693389Y-56987401D01*
X128700410Y-56974544D01*
X128693611Y-56965213D01*
X128689559Y-56962521D01*
X128652116Y-56941852D01*
X128602145Y-56891420D01*
X128587373Y-56821977D01*
X128612489Y-56755572D01*
X128639840Y-56728965D01*
X128689247Y-56693723D01*
X128696211Y-56684853D01*
X129719977Y-56684853D01*
X129725258Y-56691907D01*
X129772479Y-56719501D01*
X129821203Y-56771139D01*
X129834274Y-56840922D01*
X129807543Y-56906694D01*
X129767087Y-56940053D01*
X129758466Y-56944541D01*
X129749734Y-56950039D01*
X129729677Y-56965099D01*
X129721223Y-56976427D01*
X129727968Y-56988758D01*
X130467188Y-57727978D01*
X130481132Y-57735592D01*
X130482965Y-57735461D01*
X130489580Y-57731210D01*
X131233389Y-56987401D01*
X131240410Y-56974544D01*
X131233611Y-56965213D01*
X131229559Y-56962521D01*
X131192116Y-56941852D01*
X131142145Y-56891420D01*
X131127373Y-56821977D01*
X131152489Y-56755572D01*
X131179840Y-56728965D01*
X131229247Y-56693723D01*
X131236211Y-56684853D01*
X132259977Y-56684853D01*
X132265258Y-56691907D01*
X132312479Y-56719501D01*
X132361203Y-56771139D01*
X132374274Y-56840922D01*
X132347543Y-56906694D01*
X132307087Y-56940053D01*
X132298466Y-56944541D01*
X132289734Y-56950039D01*
X132269677Y-56965099D01*
X132261223Y-56976427D01*
X132267968Y-56988758D01*
X133007188Y-57727978D01*
X133021132Y-57735592D01*
X133022965Y-57735461D01*
X133029580Y-57731210D01*
X133773389Y-56987401D01*
X133780410Y-56974544D01*
X133773611Y-56965213D01*
X133769559Y-56962521D01*
X133732116Y-56941852D01*
X133682145Y-56891420D01*
X133667373Y-56821977D01*
X133692489Y-56755572D01*
X133719840Y-56728965D01*
X133769247Y-56693723D01*
X133777648Y-56683023D01*
X133770660Y-56669870D01*
X133032812Y-55932022D01*
X133018868Y-55924408D01*
X133017035Y-55924539D01*
X133010420Y-55928790D01*
X132266737Y-56672473D01*
X132259977Y-56684853D01*
X131236211Y-56684853D01*
X131237648Y-56683023D01*
X131230660Y-56669870D01*
X130492812Y-55932022D01*
X130478868Y-55924408D01*
X130477035Y-55924539D01*
X130470420Y-55928790D01*
X129726737Y-56672473D01*
X129719977Y-56684853D01*
X128696211Y-56684853D01*
X128697648Y-56683023D01*
X128690660Y-56669870D01*
X127952812Y-55932022D01*
X127938868Y-55924408D01*
X127937035Y-55924539D01*
X127930420Y-55928790D01*
X127186737Y-56672473D01*
X127179977Y-56684853D01*
X126311247Y-56684853D01*
X126296739Y-56645756D01*
X126311947Y-56576408D01*
X126333493Y-56547727D01*
X126434435Y-56447137D01*
X126438096Y-56443489D01*
X126460595Y-56412179D01*
X126568453Y-56262077D01*
X126569640Y-56262930D01*
X126616960Y-56219362D01*
X126686897Y-56207145D01*
X126752338Y-56234678D01*
X126780166Y-56266512D01*
X126806459Y-56309419D01*
X126816916Y-56318880D01*
X126825694Y-56315096D01*
X127567978Y-55572812D01*
X127574356Y-55561132D01*
X128304408Y-55561132D01*
X128304539Y-55562965D01*
X128308790Y-55569580D01*
X129050474Y-56311264D01*
X129062484Y-56317823D01*
X129074223Y-56308855D01*
X129108022Y-56261819D01*
X129109149Y-56262629D01*
X129156659Y-56218881D01*
X129226596Y-56206661D01*
X129292038Y-56234191D01*
X129319870Y-56266029D01*
X129346459Y-56309419D01*
X129356916Y-56318880D01*
X129365694Y-56315096D01*
X130107978Y-55572812D01*
X130114356Y-55561132D01*
X130844408Y-55561132D01*
X130844539Y-55562965D01*
X130848790Y-55569580D01*
X131590474Y-56311264D01*
X131602484Y-56317823D01*
X131614223Y-56308855D01*
X131648022Y-56261819D01*
X131649149Y-56262629D01*
X131696659Y-56218881D01*
X131766596Y-56206661D01*
X131832038Y-56234191D01*
X131859870Y-56266029D01*
X131886459Y-56309419D01*
X131896916Y-56318880D01*
X131905694Y-56315096D01*
X132647978Y-55572812D01*
X132655592Y-55558868D01*
X132655461Y-55557035D01*
X132651210Y-55550420D01*
X131909849Y-54809059D01*
X131898313Y-54802759D01*
X131886028Y-54812384D01*
X131853192Y-54860520D01*
X131798281Y-54905523D01*
X131727756Y-54913694D01*
X131664009Y-54882440D01*
X131643311Y-54857955D01*
X131613062Y-54811197D01*
X131602377Y-54801995D01*
X131592812Y-54806398D01*
X130852022Y-55547188D01*
X130844408Y-55561132D01*
X130114356Y-55561132D01*
X130115592Y-55558868D01*
X130115461Y-55557035D01*
X130111210Y-55550420D01*
X129369849Y-54809059D01*
X129358313Y-54802759D01*
X129346028Y-54812384D01*
X129313192Y-54860520D01*
X129258281Y-54905523D01*
X129187756Y-54913694D01*
X129124009Y-54882440D01*
X129103311Y-54857955D01*
X129073062Y-54811197D01*
X129062377Y-54801995D01*
X129052812Y-54806398D01*
X128312022Y-55547188D01*
X128304408Y-55561132D01*
X127574356Y-55561132D01*
X127575592Y-55558868D01*
X127575461Y-55557035D01*
X127571210Y-55550420D01*
X126829849Y-54809059D01*
X126818313Y-54802759D01*
X126806031Y-54812382D01*
X126773499Y-54860072D01*
X126718587Y-54905075D01*
X126648063Y-54913246D01*
X126584316Y-54881992D01*
X126563618Y-54857508D01*
X126482822Y-54732617D01*
X126482820Y-54732614D01*
X126480014Y-54728277D01*
X126329670Y-54563051D01*
X126325619Y-54559852D01*
X126325615Y-54559848D01*
X126169338Y-54436427D01*
X127181223Y-54436427D01*
X127187968Y-54448758D01*
X127927188Y-55187978D01*
X127941132Y-55195592D01*
X127942965Y-55195461D01*
X127949580Y-55191210D01*
X128693389Y-54447401D01*
X128699382Y-54436427D01*
X129721223Y-54436427D01*
X129727968Y-54448758D01*
X130467188Y-55187978D01*
X130481132Y-55195592D01*
X130482965Y-55195461D01*
X130489580Y-55191210D01*
X131233389Y-54447401D01*
X131239382Y-54436427D01*
X132261223Y-54436427D01*
X132267968Y-54448758D01*
X133007188Y-55187978D01*
X133021132Y-55195592D01*
X133022965Y-55195461D01*
X133029580Y-55191210D01*
X133773389Y-54447401D01*
X133780410Y-54434544D01*
X133773611Y-54425213D01*
X133769554Y-54422518D01*
X133583117Y-54319599D01*
X133573705Y-54315369D01*
X133372959Y-54244280D01*
X133362989Y-54241646D01*
X133153327Y-54204301D01*
X133143073Y-54203331D01*
X132930116Y-54200728D01*
X132919832Y-54201448D01*
X132709321Y-54233661D01*
X132699293Y-54236050D01*
X132496868Y-54302212D01*
X132487359Y-54306209D01*
X132298466Y-54404540D01*
X132289734Y-54410039D01*
X132269677Y-54425099D01*
X132261223Y-54436427D01*
X131239382Y-54436427D01*
X131240410Y-54434544D01*
X131233611Y-54425213D01*
X131229554Y-54422518D01*
X131043117Y-54319599D01*
X131033705Y-54315369D01*
X130832959Y-54244280D01*
X130822989Y-54241646D01*
X130613327Y-54204301D01*
X130603073Y-54203331D01*
X130390116Y-54200728D01*
X130379832Y-54201448D01*
X130169321Y-54233661D01*
X130159293Y-54236050D01*
X129956868Y-54302212D01*
X129947359Y-54306209D01*
X129758466Y-54404540D01*
X129749734Y-54410039D01*
X129729677Y-54425099D01*
X129721223Y-54436427D01*
X128699382Y-54436427D01*
X128700410Y-54434544D01*
X128693611Y-54425213D01*
X128689554Y-54422518D01*
X128503117Y-54319599D01*
X128493705Y-54315369D01*
X128292959Y-54244280D01*
X128282989Y-54241646D01*
X128073327Y-54204301D01*
X128063073Y-54203331D01*
X127850116Y-54200728D01*
X127839832Y-54201448D01*
X127629321Y-54233661D01*
X127619293Y-54236050D01*
X127416868Y-54302212D01*
X127407359Y-54306209D01*
X127218466Y-54404540D01*
X127209734Y-54410039D01*
X127189677Y-54425099D01*
X127181223Y-54436427D01*
X126169338Y-54436427D01*
X126158414Y-54427800D01*
X126158410Y-54427798D01*
X126154359Y-54424598D01*
X125958789Y-54316638D01*
X125953920Y-54314914D01*
X125953916Y-54314912D01*
X125753087Y-54243795D01*
X125753083Y-54243794D01*
X125748212Y-54242069D01*
X125743119Y-54241162D01*
X125743116Y-54241161D01*
X125533373Y-54203800D01*
X125533367Y-54203799D01*
X125528284Y-54202894D01*
X125454452Y-54201992D01*
X125310081Y-54200228D01*
X125310079Y-54200228D01*
X125304911Y-54200165D01*
X125084091Y-54233955D01*
X124871756Y-54303357D01*
X124831116Y-54324513D01*
X124713001Y-54386000D01*
X124673607Y-54406507D01*
X124669474Y-54409610D01*
X124669471Y-54409612D01*
X124499100Y-54537530D01*
X124494965Y-54540635D01*
X124491393Y-54544373D01*
X124357824Y-54684145D01*
X124340629Y-54702138D01*
X124337720Y-54706403D01*
X124337714Y-54706411D01*
X124269508Y-54806398D01*
X124214743Y-54886680D01*
X124199003Y-54920590D01*
X124131598Y-55065802D01*
X124120688Y-55089305D01*
X124060989Y-55304570D01*
X124037251Y-55526695D01*
X110500000Y-55526695D01*
X110500000Y-51559500D01*
X110520002Y-51491379D01*
X110573658Y-51444886D01*
X110626000Y-51433500D01*
X114291006Y-51433500D01*
X114359127Y-51453502D01*
X114405620Y-51507158D01*
X114415724Y-51577432D01*
X114386230Y-51642012D01*
X114377582Y-51651046D01*
X114373032Y-51655349D01*
X114366877Y-51661170D01*
X114363043Y-51666811D01*
X114363040Y-51666815D01*
X114352864Y-51681789D01*
X114342287Y-51695279D01*
X114327664Y-51711519D01*
X114301750Y-51756402D01*
X114296870Y-51764182D01*
X114265940Y-51809694D01*
X114257922Y-51829739D01*
X114250057Y-51845937D01*
X114240795Y-51861980D01*
X114232367Y-51887919D01*
X114223766Y-51914389D01*
X114220923Y-51922242D01*
X114201784Y-51970094D01*
X114201782Y-51970102D01*
X114199252Y-51976427D01*
X114198139Y-51983152D01*
X114196272Y-51994426D01*
X114191799Y-52012775D01*
X114187108Y-52027214D01*
X114185138Y-52045963D01*
X114181003Y-52085304D01*
X114180003Y-52092701D01*
X114169922Y-52153591D01*
X114170279Y-52160408D01*
X114170279Y-52160415D01*
X114170701Y-52168462D01*
X114170184Y-52188223D01*
X114169637Y-52193429D01*
X114169637Y-52193435D01*
X114168947Y-52200000D01*
X114169637Y-52206565D01*
X114175399Y-52261389D01*
X114175916Y-52267963D01*
X114179321Y-52332921D01*
X114182389Y-52344058D01*
X114186219Y-52364329D01*
X114187108Y-52372786D01*
X114189146Y-52379059D01*
X114189147Y-52379063D01*
X114207200Y-52434628D01*
X114208842Y-52440100D01*
X114227008Y-52506049D01*
X114230829Y-52513295D01*
X114236113Y-52525807D01*
X114238755Y-52531740D01*
X114240795Y-52538020D01*
X114274239Y-52595946D01*
X114274950Y-52597178D01*
X114277282Y-52601402D01*
X114310760Y-52664898D01*
X114315169Y-52670116D01*
X114318981Y-52675767D01*
X114318942Y-52675793D01*
X114320220Y-52677611D01*
X114320482Y-52677421D01*
X114324361Y-52682760D01*
X114327664Y-52688481D01*
X114332083Y-52693389D01*
X114332087Y-52693394D01*
X114375551Y-52741665D01*
X114378155Y-52744650D01*
X114422259Y-52796842D01*
X114422265Y-52796848D01*
X114426668Y-52802058D01*
X114432085Y-52806200D01*
X114433504Y-52807551D01*
X114437234Y-52810647D01*
X114439498Y-52812686D01*
X114443917Y-52817593D01*
X114504454Y-52861576D01*
X114506836Y-52863351D01*
X114569326Y-52911128D01*
X114575511Y-52914012D01*
X114577144Y-52915001D01*
X114580120Y-52916550D01*
X114584473Y-52919713D01*
X114590501Y-52922397D01*
X114590503Y-52922398D01*
X114655663Y-52951409D01*
X114657663Y-52952321D01*
X114697610Y-52970948D01*
X114732077Y-52987020D01*
X114738737Y-52988509D01*
X114739818Y-52988877D01*
X114743190Y-52990378D01*
X114749651Y-52991751D01*
X114749653Y-52991752D01*
X114822146Y-53007161D01*
X114823434Y-53007441D01*
X114907328Y-53026193D01*
X114912819Y-53026500D01*
X115086869Y-53026500D01*
X115093324Y-53025128D01*
X115093333Y-53025127D01*
X115124537Y-53018494D01*
X115137127Y-53016477D01*
X115142949Y-53015845D01*
X115171744Y-53012717D01*
X115171747Y-53012716D01*
X115178525Y-53011980D01*
X115211663Y-53000828D01*
X115225653Y-52997001D01*
X115250347Y-52991752D01*
X115250349Y-52991751D01*
X115256810Y-52990378D01*
X115295019Y-52973367D01*
X115306071Y-52969058D01*
X115342249Y-52956882D01*
X115342253Y-52956880D01*
X115348722Y-52954703D01*
X115375824Y-52938418D01*
X115389471Y-52931314D01*
X115409496Y-52922398D01*
X115415527Y-52919713D01*
X115452065Y-52893166D01*
X115461211Y-52887112D01*
X115502648Y-52862214D01*
X115523197Y-52842782D01*
X115535700Y-52832402D01*
X115550739Y-52821476D01*
X115556083Y-52817593D01*
X115578206Y-52793023D01*
X115588523Y-52781566D01*
X115595584Y-52774331D01*
X115628162Y-52743522D01*
X115628164Y-52743519D01*
X115633123Y-52738830D01*
X115636957Y-52733189D01*
X115636960Y-52733185D01*
X115647136Y-52718211D01*
X115657714Y-52704720D01*
X115667917Y-52693389D01*
X115667918Y-52693388D01*
X115672336Y-52688481D01*
X115698250Y-52643598D01*
X115703130Y-52635818D01*
X115734060Y-52590306D01*
X115742078Y-52570261D01*
X115749943Y-52554063D01*
X115759205Y-52538020D01*
X115776234Y-52485611D01*
X115779077Y-52477758D01*
X115798216Y-52429906D01*
X115798218Y-52429898D01*
X115800748Y-52423573D01*
X115803728Y-52405574D01*
X115808202Y-52387220D01*
X115810853Y-52379063D01*
X115812892Y-52372786D01*
X115818998Y-52314688D01*
X115819999Y-52307285D01*
X115826510Y-52267963D01*
X115830078Y-52246409D01*
X115829721Y-52239592D01*
X115829721Y-52239585D01*
X115829299Y-52231538D01*
X115829816Y-52211777D01*
X115830363Y-52206571D01*
X115830363Y-52206564D01*
X115831053Y-52200000D01*
X115824601Y-52138611D01*
X115824084Y-52132037D01*
X115821036Y-52073895D01*
X115820679Y-52067079D01*
X115817611Y-52055942D01*
X115813781Y-52035671D01*
X115812892Y-52027214D01*
X115810853Y-52020937D01*
X115792800Y-51965372D01*
X115791158Y-51959900D01*
X115779718Y-51918369D01*
X115772992Y-51893951D01*
X115769171Y-51886705D01*
X115763887Y-51874193D01*
X115761245Y-51868260D01*
X115759205Y-51861980D01*
X115725044Y-51802811D01*
X115722712Y-51798587D01*
X115689240Y-51735102D01*
X115684831Y-51729884D01*
X115681019Y-51724233D01*
X115681058Y-51724207D01*
X115679780Y-51722389D01*
X115679518Y-51722579D01*
X115675639Y-51717240D01*
X115672336Y-51711519D01*
X115667916Y-51706610D01*
X115667913Y-51706606D01*
X115624449Y-51658335D01*
X115621871Y-51655382D01*
X115609570Y-51640824D01*
X115580881Y-51575883D01*
X115591855Y-51505740D01*
X115639010Y-51452665D01*
X115705811Y-51433500D01*
X138115406Y-51433500D01*
X138183527Y-51453502D01*
X138204501Y-51470405D01*
X140720208Y-53986113D01*
X140754234Y-54048425D01*
X140749169Y-54119241D01*
X140706622Y-54176076D01*
X140640102Y-54200887D01*
X140629574Y-54201199D01*
X140550081Y-54200228D01*
X140550079Y-54200228D01*
X140544911Y-54200165D01*
X140324091Y-54233955D01*
X140111756Y-54303357D01*
X140071116Y-54324513D01*
X139953001Y-54386000D01*
X139913607Y-54406507D01*
X139909474Y-54409610D01*
X139909471Y-54409612D01*
X139739100Y-54537530D01*
X139734965Y-54540635D01*
X139731393Y-54544373D01*
X139597824Y-54684145D01*
X139580629Y-54702138D01*
X139473201Y-54859621D01*
X139418293Y-54904621D01*
X139347768Y-54912792D01*
X139284021Y-54881538D01*
X139263324Y-54857054D01*
X139182822Y-54732617D01*
X139182820Y-54732614D01*
X139180014Y-54728277D01*
X139029670Y-54563051D01*
X139025619Y-54559852D01*
X139025615Y-54559848D01*
X138858414Y-54427800D01*
X138858410Y-54427798D01*
X138854359Y-54424598D01*
X138658789Y-54316638D01*
X138653920Y-54314914D01*
X138653916Y-54314912D01*
X138453087Y-54243795D01*
X138453083Y-54243794D01*
X138448212Y-54242069D01*
X138443119Y-54241162D01*
X138443116Y-54241161D01*
X138233373Y-54203800D01*
X138233367Y-54203799D01*
X138228284Y-54202894D01*
X138154452Y-54201992D01*
X138010081Y-54200228D01*
X138010079Y-54200228D01*
X138004911Y-54200165D01*
X137784091Y-54233955D01*
X137571756Y-54303357D01*
X137531116Y-54324513D01*
X137413001Y-54386000D01*
X137373607Y-54406507D01*
X137369474Y-54409610D01*
X137369471Y-54409612D01*
X137199100Y-54537530D01*
X137194965Y-54540635D01*
X137191393Y-54544373D01*
X137057824Y-54684145D01*
X137040629Y-54702138D01*
X136933201Y-54859621D01*
X136878293Y-54904621D01*
X136807768Y-54912792D01*
X136744021Y-54881538D01*
X136723324Y-54857054D01*
X136642822Y-54732617D01*
X136642820Y-54732614D01*
X136640014Y-54728277D01*
X136489670Y-54563051D01*
X136485619Y-54559852D01*
X136485615Y-54559848D01*
X136318414Y-54427800D01*
X136318410Y-54427798D01*
X136314359Y-54424598D01*
X136118789Y-54316638D01*
X136113920Y-54314914D01*
X136113916Y-54314912D01*
X135913087Y-54243795D01*
X135913083Y-54243794D01*
X135908212Y-54242069D01*
X135903119Y-54241162D01*
X135903116Y-54241161D01*
X135693373Y-54203800D01*
X135693367Y-54203799D01*
X135688284Y-54202894D01*
X135614452Y-54201992D01*
X135470081Y-54200228D01*
X135470079Y-54200228D01*
X135464911Y-54200165D01*
X135244091Y-54233955D01*
X135031756Y-54303357D01*
X134991116Y-54324513D01*
X134873001Y-54386000D01*
X134833607Y-54406507D01*
X134829474Y-54409610D01*
X134829471Y-54409612D01*
X134659100Y-54537530D01*
X134654965Y-54540635D01*
X134651393Y-54544373D01*
X134517824Y-54684145D01*
X134500629Y-54702138D01*
X134393204Y-54859618D01*
X134392898Y-54860066D01*
X134337987Y-54905069D01*
X134267462Y-54913240D01*
X134203715Y-54881986D01*
X134183017Y-54857501D01*
X134153062Y-54811197D01*
X134142377Y-54801995D01*
X134132812Y-54806398D01*
X133392022Y-55547188D01*
X133384408Y-55561132D01*
X133384539Y-55562965D01*
X133388790Y-55569580D01*
X134130474Y-56311264D01*
X134142484Y-56317823D01*
X134154223Y-56308855D01*
X134188022Y-56261819D01*
X134189277Y-56262721D01*
X134236391Y-56219355D01*
X134306330Y-56207148D01*
X134371767Y-56234691D01*
X134399580Y-56266513D01*
X134457287Y-56360683D01*
X134457291Y-56360688D01*
X134459987Y-56365088D01*
X134606250Y-56533938D01*
X134778126Y-56676632D01*
X134826005Y-56704610D01*
X134851445Y-56719476D01*
X134900169Y-56771114D01*
X134913240Y-56840897D01*
X134886509Y-56906669D01*
X134846055Y-56940027D01*
X134833607Y-56946507D01*
X134829474Y-56949610D01*
X134829471Y-56949612D01*
X134693050Y-57052040D01*
X134654965Y-57080635D01*
X134651393Y-57084373D01*
X134560010Y-57180000D01*
X134500629Y-57242138D01*
X134393204Y-57399618D01*
X134392898Y-57400066D01*
X134337987Y-57445069D01*
X134267462Y-57453240D01*
X134203715Y-57421986D01*
X134183017Y-57397501D01*
X134153062Y-57351197D01*
X134142377Y-57341995D01*
X134132812Y-57346398D01*
X133392022Y-58087188D01*
X133384408Y-58101132D01*
X133384539Y-58102965D01*
X133388790Y-58109580D01*
X134130474Y-58851264D01*
X134142484Y-58857823D01*
X134154223Y-58848855D01*
X134188022Y-58801819D01*
X134189277Y-58802721D01*
X134236391Y-58759355D01*
X134306330Y-58747148D01*
X134371767Y-58774691D01*
X134399580Y-58806513D01*
X134457287Y-58900683D01*
X134457291Y-58900688D01*
X134459987Y-58905088D01*
X134606250Y-59073938D01*
X134778126Y-59216632D01*
X134971000Y-59329338D01*
X135179692Y-59409030D01*
X135184760Y-59410061D01*
X135184763Y-59410062D01*
X135289604Y-59431392D01*
X135398597Y-59453567D01*
X135403772Y-59453757D01*
X135403774Y-59453757D01*
X135616673Y-59461564D01*
X135616677Y-59461564D01*
X135621837Y-59461753D01*
X135626957Y-59461097D01*
X135626959Y-59461097D01*
X135838288Y-59434025D01*
X135838289Y-59434025D01*
X135843416Y-59433368D01*
X135848366Y-59431883D01*
X136052429Y-59370661D01*
X136052434Y-59370659D01*
X136057384Y-59369174D01*
X136257994Y-59270896D01*
X136439860Y-59141173D01*
X136598096Y-58983489D01*
X136658927Y-58898834D01*
X136728453Y-58802077D01*
X136729776Y-58803028D01*
X136776645Y-58759857D01*
X136846580Y-58747625D01*
X136912026Y-58775144D01*
X136939875Y-58806994D01*
X136999987Y-58905088D01*
X137146250Y-59073938D01*
X137318126Y-59216632D01*
X137511000Y-59329338D01*
X137719692Y-59409030D01*
X137724760Y-59410061D01*
X137724763Y-59410062D01*
X137829604Y-59431392D01*
X137938597Y-59453567D01*
X137943772Y-59453757D01*
X137943774Y-59453757D01*
X138156673Y-59461564D01*
X138156677Y-59461564D01*
X138161837Y-59461753D01*
X138166957Y-59461097D01*
X138166959Y-59461097D01*
X138378288Y-59434025D01*
X138378289Y-59434025D01*
X138383416Y-59433368D01*
X138388366Y-59431883D01*
X138592429Y-59370661D01*
X138592434Y-59370659D01*
X138597384Y-59369174D01*
X138797994Y-59270896D01*
X138979860Y-59141173D01*
X139138096Y-58983489D01*
X139198927Y-58898834D01*
X139268453Y-58802077D01*
X139269776Y-58803028D01*
X139316645Y-58759857D01*
X139386580Y-58747625D01*
X139452026Y-58775144D01*
X139479875Y-58806994D01*
X139539987Y-58905088D01*
X139686250Y-59073938D01*
X139858126Y-59216632D01*
X140051000Y-59329338D01*
X140259692Y-59409030D01*
X140264760Y-59410061D01*
X140264763Y-59410062D01*
X140369604Y-59431392D01*
X140478597Y-59453567D01*
X140483772Y-59453757D01*
X140483774Y-59453757D01*
X140696673Y-59461564D01*
X140696677Y-59461564D01*
X140701837Y-59461753D01*
X140706957Y-59461097D01*
X140706959Y-59461097D01*
X140918288Y-59434025D01*
X140918289Y-59434025D01*
X140923416Y-59433368D01*
X140928366Y-59431883D01*
X141132429Y-59370661D01*
X141132434Y-59370659D01*
X141137384Y-59369174D01*
X141337994Y-59270896D01*
X141519860Y-59141173D01*
X141678096Y-58983489D01*
X141738927Y-58898834D01*
X141808453Y-58802077D01*
X141809776Y-58803028D01*
X141856645Y-58759857D01*
X141926580Y-58747625D01*
X141992026Y-58775144D01*
X142019875Y-58806994D01*
X142079987Y-58905088D01*
X142226250Y-59073938D01*
X142398126Y-59216632D01*
X142591000Y-59329338D01*
X142799692Y-59409030D01*
X142804760Y-59410061D01*
X142804763Y-59410062D01*
X142909604Y-59431392D01*
X143018597Y-59453567D01*
X143023772Y-59453757D01*
X143023774Y-59453757D01*
X143236673Y-59461564D01*
X143236677Y-59461564D01*
X143241837Y-59461753D01*
X143246957Y-59461097D01*
X143246959Y-59461097D01*
X143458288Y-59434025D01*
X143458289Y-59434025D01*
X143463416Y-59433368D01*
X143468366Y-59431883D01*
X143672429Y-59370661D01*
X143672434Y-59370659D01*
X143677384Y-59369174D01*
X143877994Y-59270896D01*
X144059860Y-59141173D01*
X144218096Y-58983489D01*
X144278927Y-58898834D01*
X144345435Y-58806277D01*
X144348453Y-58802077D01*
X144369320Y-58759857D01*
X144445136Y-58606453D01*
X144445137Y-58606451D01*
X144447430Y-58601811D01*
X144493871Y-58448956D01*
X144510865Y-58393023D01*
X144510865Y-58393021D01*
X144512370Y-58388069D01*
X144541529Y-58166590D01*
X144541611Y-58163240D01*
X144543074Y-58103365D01*
X144543074Y-58103361D01*
X144543156Y-58100000D01*
X144524852Y-57877361D01*
X144470431Y-57660702D01*
X144381354Y-57455840D01*
X144260014Y-57268277D01*
X144109670Y-57103051D01*
X144105619Y-57099852D01*
X144105615Y-57099848D01*
X143938414Y-56967800D01*
X143938410Y-56967798D01*
X143934359Y-56964598D01*
X143893053Y-56941796D01*
X143843084Y-56891364D01*
X143828312Y-56821921D01*
X143853428Y-56755516D01*
X143880780Y-56728909D01*
X143945110Y-56683023D01*
X144059860Y-56601173D01*
X144218096Y-56443489D01*
X144240595Y-56412179D01*
X144345435Y-56266277D01*
X144348453Y-56262077D01*
X144361995Y-56234678D01*
X144445136Y-56066453D01*
X144445137Y-56066451D01*
X144447430Y-56061811D01*
X144505908Y-55869338D01*
X144510865Y-55853023D01*
X144510865Y-55853021D01*
X144512370Y-55848069D01*
X144541529Y-55626590D01*
X144541841Y-55613831D01*
X144543074Y-55563365D01*
X144543074Y-55563361D01*
X144543156Y-55560000D01*
X144524852Y-55337361D01*
X144470431Y-55120702D01*
X144381354Y-54915840D01*
X144260014Y-54728277D01*
X144109670Y-54563051D01*
X144105619Y-54559852D01*
X144105615Y-54559848D01*
X143938414Y-54427800D01*
X143938410Y-54427798D01*
X143934359Y-54424598D01*
X143738789Y-54316638D01*
X143733920Y-54314914D01*
X143733916Y-54314912D01*
X143533087Y-54243795D01*
X143533083Y-54243794D01*
X143528212Y-54242069D01*
X143523119Y-54241162D01*
X143523116Y-54241161D01*
X143313373Y-54203800D01*
X143313367Y-54203799D01*
X143308284Y-54202894D01*
X143234452Y-54201992D01*
X143090081Y-54200228D01*
X143090079Y-54200228D01*
X143084911Y-54200165D01*
X142864091Y-54233955D01*
X142859067Y-54235597D01*
X142859021Y-54235598D01*
X142854145Y-54236760D01*
X142853905Y-54235753D01*
X142788104Y-54237747D01*
X142730830Y-54204926D01*
X140893453Y-52367548D01*
X157142001Y-52367548D01*
X157142001Y-52994669D01*
X157142371Y-53001490D01*
X157147895Y-53052352D01*
X157151521Y-53067604D01*
X157196676Y-53188054D01*
X157205214Y-53203649D01*
X157281715Y-53305724D01*
X157294276Y-53318285D01*
X157396351Y-53394786D01*
X157411946Y-53403324D01*
X157521337Y-53444333D01*
X157578101Y-53486975D01*
X157602801Y-53553536D01*
X157587594Y-53622885D01*
X157568201Y-53649366D01*
X157444590Y-53778717D01*
X157438104Y-53786727D01*
X157318098Y-53962649D01*
X157313000Y-53971623D01*
X157223338Y-54164783D01*
X157219775Y-54174470D01*
X157164389Y-54374183D01*
X157165912Y-54382607D01*
X157178292Y-54386000D01*
X158227885Y-54386000D01*
X158243124Y-54381525D01*
X158244329Y-54380135D01*
X158246000Y-54372452D01*
X158246000Y-52372115D01*
X158241525Y-52356876D01*
X158240135Y-52355671D01*
X158232452Y-52354000D01*
X157160116Y-52354000D01*
X157144877Y-52358475D01*
X157143672Y-52359865D01*
X157142001Y-52367548D01*
X140893453Y-52367548D01*
X139249000Y-50723095D01*
X139214974Y-50660783D01*
X139220039Y-50589967D01*
X139262586Y-50533132D01*
X139329106Y-50508321D01*
X139338095Y-50508000D01*
X157486936Y-50508000D01*
X157555057Y-50528002D01*
G37*
%TD.AperFunction*%
%TA.AperFunction,Conductor*%
G36*
X157083621Y-101753502D02*
G01*
X157130114Y-101807158D01*
X157141500Y-101859500D01*
X157141500Y-101998134D01*
X157148255Y-102060316D01*
X157199385Y-102196705D01*
X157286739Y-102313261D01*
X157403295Y-102400615D01*
X157411704Y-102403767D01*
X157411705Y-102403768D01*
X157520451Y-102444535D01*
X157577216Y-102487176D01*
X157601916Y-102553738D01*
X157586709Y-102623087D01*
X157567316Y-102649568D01*
X157440629Y-102782138D01*
X157437715Y-102786410D01*
X157437714Y-102786411D01*
X157325095Y-102951504D01*
X157270184Y-102996507D01*
X157221007Y-103006500D01*
X145167021Y-103006500D01*
X145098900Y-102986498D01*
X145077926Y-102969595D01*
X144056927Y-101948595D01*
X144022901Y-101886283D01*
X144027966Y-101815467D01*
X144070513Y-101758632D01*
X144137033Y-101733821D01*
X144146022Y-101733500D01*
X157015500Y-101733500D01*
X157083621Y-101753502D01*
G37*
%TD.AperFunction*%
%TA.AperFunction,Conductor*%
G36*
X157292395Y-75613502D02*
G01*
X157331707Y-75653665D01*
X157399987Y-75765088D01*
X157546250Y-75933938D01*
X157718126Y-76076632D01*
X157788595Y-76117811D01*
X157791445Y-76119476D01*
X157840169Y-76171114D01*
X157853240Y-76240897D01*
X157826509Y-76306669D01*
X157786055Y-76340027D01*
X157773607Y-76346507D01*
X157769474Y-76349610D01*
X157769471Y-76349612D01*
X157599100Y-76477530D01*
X157594965Y-76480635D01*
X157440629Y-76642138D01*
X157437715Y-76646410D01*
X157437714Y-76646411D01*
X157325095Y-76811504D01*
X157270184Y-76856507D01*
X157221007Y-76866500D01*
X149669313Y-76866500D01*
X149601192Y-76846498D01*
X149554699Y-76792842D01*
X149544595Y-76722568D01*
X149574089Y-76657988D01*
X149580218Y-76651405D01*
X150601218Y-75630405D01*
X150663530Y-75596379D01*
X150690313Y-75593500D01*
X157224274Y-75593500D01*
X157292395Y-75613502D01*
G37*
%TD.AperFunction*%
%TD*%
M02*
