%TF.GenerationSoftware,KiCad,Pcbnew,(5.99.0-12348-g4b436fb86d)*%
%TF.CreationDate,2021-09-23T14:41:55+01:00*%
%TF.ProjectId,Ampelope_Components,416d7065-6c6f-4706-955f-436f6d706f6e,rev?*%
%TF.SameCoordinates,Original*%
%TF.FileFunction,Legend,Top*%
%TF.FilePolarity,Positive*%
%FSLAX46Y46*%
G04 Gerber Fmt 4.6, Leading zero omitted, Abs format (unit mm)*
G04 Created by KiCad (PCBNEW (5.99.0-12348-g4b436fb86d)) date 2021-09-23 14:41:55*
%MOMM*%
%LPD*%
G01*
G04 APERTURE LIST*
%ADD10C,0.450000*%
%ADD11C,0.150000*%
%ADD12C,0.120000*%
G04 APERTURE END LIST*
D10*
X114625000Y-105500000D02*
G75*
G03*
X114625000Y-105500000I-225000J0D01*
G01*
X140325000Y-71900000D02*
G75*
G03*
X140325000Y-71900000I-225000J0D01*
G01*
X114625000Y-71900000D02*
G75*
G03*
X114625000Y-71900000I-225000J0D01*
G01*
D11*
X125600000Y-115700000D02*
X147300000Y-115700000D01*
X147300000Y-115700000D02*
X147300000Y-119400000D01*
X147300000Y-119400000D02*
X125600000Y-119400000D01*
X125600000Y-119400000D02*
X125600000Y-115700000D01*
D10*
X114625000Y-88900000D02*
G75*
G03*
X114625000Y-88900000I-225000J0D01*
G01*
X146625000Y-96700000D02*
G75*
G03*
X146625000Y-96700000I-225000J0D01*
G01*
D11*
X157238095Y-97752380D02*
X157809523Y-97752380D01*
X157523809Y-98752380D02*
X157523809Y-97752380D01*
X158047619Y-97752380D02*
X158714285Y-98752380D01*
X158714285Y-97752380D02*
X158047619Y-98752380D01*
X154380951Y-74928571D02*
X154714285Y-74928571D01*
X154857142Y-75452380D02*
X154380951Y-75452380D01*
X154380951Y-74452380D01*
X154857142Y-74452380D01*
X155285713Y-75452380D02*
X155285713Y-74452380D01*
X155285713Y-74833333D02*
X155380951Y-74785714D01*
X155571428Y-74785714D01*
X155666666Y-74833333D01*
X155714285Y-74880952D01*
X155761904Y-74976190D01*
X155761904Y-75261904D01*
X155714285Y-75357142D01*
X155666666Y-75404761D01*
X155571428Y-75452380D01*
X155380951Y-75452380D01*
X155285713Y-75404761D01*
X156142856Y-75404761D02*
X156285713Y-75452380D01*
X156523809Y-75452380D01*
X156619047Y-75404761D01*
X156666666Y-75357142D01*
X156714285Y-75261904D01*
X156714285Y-75166666D01*
X156666666Y-75071428D01*
X156619047Y-75023809D01*
X156523809Y-74976190D01*
X156333332Y-74928571D01*
X156238094Y-74880952D01*
X156190475Y-74833333D01*
X156142856Y-74738095D01*
X156142856Y-74642857D01*
X156190475Y-74547619D01*
X156238094Y-74500000D01*
X156333332Y-74452380D01*
X156571428Y-74452380D01*
X156714285Y-74500000D01*
X155457142Y-59628571D02*
X155790476Y-59628571D01*
X155933333Y-60152380D02*
X155457142Y-60152380D01*
X155457142Y-59152380D01*
X155933333Y-59152380D01*
X156885714Y-60152380D02*
X156314285Y-60152380D01*
X156599999Y-60152380D02*
X156599999Y-59152380D01*
X156504761Y-59295238D01*
X156409523Y-59390476D01*
X156314285Y-59438095D01*
X104304761Y-120900000D02*
X104209523Y-120852380D01*
X104066666Y-120852380D01*
X103923808Y-120900000D01*
X103828570Y-120995238D01*
X103780951Y-121090476D01*
X103733332Y-121280952D01*
X103733332Y-121423809D01*
X103780951Y-121614285D01*
X103828570Y-121709523D01*
X103923808Y-121804761D01*
X104066666Y-121852380D01*
X104161904Y-121852380D01*
X104304761Y-121804761D01*
X104352380Y-121757142D01*
X104352380Y-121423809D01*
X104161904Y-121423809D01*
X104733332Y-120947619D02*
X104780951Y-120900000D01*
X104876189Y-120852380D01*
X105114285Y-120852380D01*
X105209523Y-120900000D01*
X105257142Y-120947619D01*
X105304761Y-121042857D01*
X105304761Y-121138095D01*
X105257142Y-121280952D01*
X104685713Y-121852380D01*
X105304761Y-121852380D01*
X155933333Y-57652380D02*
X155457142Y-57652380D01*
X155457142Y-56652380D01*
X156790476Y-57652380D02*
X156219047Y-57652380D01*
X156504761Y-57652380D02*
X156504761Y-56652380D01*
X156409523Y-56795238D01*
X156314285Y-56890476D01*
X156219047Y-56938095D01*
X154404762Y-118828571D02*
X154738095Y-118828571D01*
X154880952Y-119352380D02*
X154404762Y-119352380D01*
X154404762Y-118352380D01*
X154880952Y-118352380D01*
X155261905Y-118447619D02*
X155309524Y-118400000D01*
X155404762Y-118352380D01*
X155642857Y-118352380D01*
X155738095Y-118400000D01*
X155785714Y-118447619D01*
X155833333Y-118542857D01*
X155833333Y-118638095D01*
X155785714Y-118780952D01*
X155214286Y-119352380D01*
X155833333Y-119352380D01*
X156119048Y-118352380D02*
X156690476Y-118352380D01*
X156404762Y-119352380D02*
X156404762Y-118352380D01*
X154404761Y-106128571D02*
X154738095Y-106128571D01*
X154880952Y-106652380D02*
X154404761Y-106652380D01*
X154404761Y-105652380D01*
X154880952Y-105652380D01*
X155738095Y-106652380D02*
X155738095Y-106128571D01*
X155690476Y-106033333D01*
X155595238Y-105985714D01*
X155404761Y-105985714D01*
X155309523Y-106033333D01*
X155738095Y-106604761D02*
X155642857Y-106652380D01*
X155404761Y-106652380D01*
X155309523Y-106604761D01*
X155261904Y-106509523D01*
X155261904Y-106414285D01*
X155309523Y-106319047D01*
X155404761Y-106271428D01*
X155642857Y-106271428D01*
X155738095Y-106223809D01*
X156166666Y-106604761D02*
X156309523Y-106652380D01*
X156547619Y-106652380D01*
X156642857Y-106604761D01*
X156690476Y-106557142D01*
X156738095Y-106461904D01*
X156738095Y-106366666D01*
X156690476Y-106271428D01*
X156642857Y-106223809D01*
X156547619Y-106176190D01*
X156357142Y-106128571D01*
X156261904Y-106080952D01*
X156214285Y-106033333D01*
X156166666Y-105938095D01*
X156166666Y-105842857D01*
X156214285Y-105747619D01*
X156261904Y-105700000D01*
X156357142Y-105652380D01*
X156595238Y-105652380D01*
X156738095Y-105700000D01*
X124161904Y-64252380D02*
X124780952Y-64252380D01*
X124447619Y-64633333D01*
X124590476Y-64633333D01*
X124685714Y-64680952D01*
X124733333Y-64728571D01*
X124780952Y-64823809D01*
X124780952Y-65061904D01*
X124733333Y-65157142D01*
X124685714Y-65204761D01*
X124590476Y-65252380D01*
X124304761Y-65252380D01*
X124209523Y-65204761D01*
X124161904Y-65157142D01*
X125066666Y-64252380D02*
X125400000Y-65252380D01*
X125733333Y-64252380D01*
X125971428Y-64252380D02*
X126590476Y-64252380D01*
X126257142Y-64633333D01*
X126400000Y-64633333D01*
X126495238Y-64680952D01*
X126542857Y-64728571D01*
X126590476Y-64823809D01*
X126590476Y-65061904D01*
X126542857Y-65157142D01*
X126495238Y-65204761D01*
X126400000Y-65252380D01*
X126114285Y-65252380D01*
X126019047Y-65204761D01*
X125971428Y-65157142D01*
X104304761Y-123500000D02*
X104209523Y-123452380D01*
X104066666Y-123452380D01*
X103923808Y-123500000D01*
X103828570Y-123595238D01*
X103780951Y-123690476D01*
X103733332Y-123880952D01*
X103733332Y-124023809D01*
X103780951Y-124214285D01*
X103828570Y-124309523D01*
X103923808Y-124404761D01*
X104066666Y-124452380D01*
X104161904Y-124452380D01*
X104304761Y-124404761D01*
X104352380Y-124357142D01*
X104352380Y-124023809D01*
X104161904Y-124023809D01*
X104685713Y-123452380D02*
X105304761Y-123452380D01*
X104971427Y-123833333D01*
X105114285Y-123833333D01*
X105209523Y-123880952D01*
X105257142Y-123928571D01*
X105304761Y-124023809D01*
X105304761Y-124261904D01*
X105257142Y-124357142D01*
X105209523Y-124404761D01*
X105114285Y-124452380D01*
X104828570Y-124452380D01*
X104733332Y-124404761D01*
X104685713Y-124357142D01*
X133438095Y-64300000D02*
X133342857Y-64252380D01*
X133200000Y-64252380D01*
X133057142Y-64300000D01*
X132961904Y-64395238D01*
X132914285Y-64490476D01*
X132866666Y-64680952D01*
X132866666Y-64823809D01*
X132914285Y-65014285D01*
X132961904Y-65109523D01*
X133057142Y-65204761D01*
X133200000Y-65252380D01*
X133295238Y-65252380D01*
X133438095Y-65204761D01*
X133485714Y-65157142D01*
X133485714Y-64823809D01*
X133295238Y-64823809D01*
X133914285Y-65252380D02*
X133914285Y-64252380D01*
X134485714Y-65252380D01*
X134485714Y-64252380D01*
X134961904Y-65252380D02*
X134961904Y-64252380D01*
X135200000Y-64252380D01*
X135342857Y-64300000D01*
X135438095Y-64395238D01*
X135485714Y-64490476D01*
X135533333Y-64680952D01*
X135533333Y-64823809D01*
X135485714Y-65014285D01*
X135438095Y-65109523D01*
X135342857Y-65204761D01*
X135200000Y-65252380D01*
X134961904Y-65252380D01*
X154928571Y-110750000D02*
X154833333Y-110702380D01*
X154690476Y-110702380D01*
X154547618Y-110750000D01*
X154452380Y-110845238D01*
X154404761Y-110940476D01*
X154357142Y-111130952D01*
X154357142Y-111273809D01*
X154404761Y-111464285D01*
X154452380Y-111559523D01*
X154547618Y-111654761D01*
X154690476Y-111702380D01*
X154785714Y-111702380D01*
X154928571Y-111654761D01*
X154976190Y-111607142D01*
X154976190Y-111273809D01*
X154785714Y-111273809D01*
X155404761Y-111702380D02*
X155404761Y-110702380D01*
X155976190Y-111702380D01*
X155976190Y-110702380D01*
X156452380Y-111702380D02*
X156452380Y-110702380D01*
X156690476Y-110702380D01*
X156833333Y-110750000D01*
X156928571Y-110845238D01*
X156976190Y-110940476D01*
X157023809Y-111130952D01*
X157023809Y-111273809D01*
X156976190Y-111464285D01*
X156928571Y-111559523D01*
X156833333Y-111654761D01*
X156690476Y-111702380D01*
X156452380Y-111702380D01*
X154404762Y-108628571D02*
X154738095Y-108628571D01*
X154880952Y-109152380D02*
X154404762Y-109152380D01*
X154404762Y-108152380D01*
X154880952Y-108152380D01*
X155738095Y-109152380D02*
X155738095Y-108628571D01*
X155690476Y-108533333D01*
X155595238Y-108485714D01*
X155404762Y-108485714D01*
X155309524Y-108533333D01*
X155738095Y-109104761D02*
X155642857Y-109152380D01*
X155404762Y-109152380D01*
X155309524Y-109104761D01*
X155261905Y-109009523D01*
X155261905Y-108914285D01*
X155309524Y-108819047D01*
X155404762Y-108771428D01*
X155642857Y-108771428D01*
X155738095Y-108723809D01*
X156785714Y-109152380D02*
X156452381Y-108676190D01*
X156214286Y-109152380D02*
X156214286Y-108152380D01*
X156595238Y-108152380D01*
X156690476Y-108200000D01*
X156738095Y-108247619D01*
X156785714Y-108342857D01*
X156785714Y-108485714D01*
X156738095Y-108580952D01*
X156690476Y-108628571D01*
X156595238Y-108676190D01*
X156214286Y-108676190D01*
X154404762Y-121328571D02*
X154738095Y-121328571D01*
X154880952Y-121852380D02*
X154404762Y-121852380D01*
X154404762Y-120852380D01*
X154880952Y-120852380D01*
X155261905Y-120947619D02*
X155309524Y-120900000D01*
X155404762Y-120852380D01*
X155642857Y-120852380D01*
X155738095Y-120900000D01*
X155785714Y-120947619D01*
X155833333Y-121042857D01*
X155833333Y-121138095D01*
X155785714Y-121280952D01*
X155214286Y-121852380D01*
X155833333Y-121852380D01*
X156214286Y-121804761D02*
X156357143Y-121852380D01*
X156595238Y-121852380D01*
X156690476Y-121804761D01*
X156738095Y-121757142D01*
X156785714Y-121661904D01*
X156785714Y-121566666D01*
X156738095Y-121471428D01*
X156690476Y-121423809D01*
X156595238Y-121376190D01*
X156404762Y-121328571D01*
X156309524Y-121280952D01*
X156261905Y-121233333D01*
X156214286Y-121138095D01*
X156214286Y-121042857D01*
X156261905Y-120947619D01*
X156309524Y-120900000D01*
X156404762Y-120852380D01*
X156642857Y-120852380D01*
X156785714Y-120900000D01*
X154404761Y-101028571D02*
X154738095Y-101028571D01*
X154880952Y-101552380D02*
X154404761Y-101552380D01*
X154404761Y-100552380D01*
X154880952Y-100552380D01*
X155738095Y-101552380D02*
X155738095Y-101028571D01*
X155690476Y-100933333D01*
X155595238Y-100885714D01*
X155404761Y-100885714D01*
X155309523Y-100933333D01*
X155738095Y-101504761D02*
X155642857Y-101552380D01*
X155404761Y-101552380D01*
X155309523Y-101504761D01*
X155261904Y-101409523D01*
X155261904Y-101314285D01*
X155309523Y-101219047D01*
X155404761Y-101171428D01*
X155642857Y-101171428D01*
X155738095Y-101123809D01*
X156166666Y-101266666D02*
X156642857Y-101266666D01*
X156071428Y-101552380D02*
X156404761Y-100552380D01*
X156738095Y-101552380D01*
X139638095Y-128900000D02*
X139542857Y-128852380D01*
X139400000Y-128852380D01*
X139257142Y-128900000D01*
X139161904Y-128995238D01*
X139114285Y-129090476D01*
X139066666Y-129280952D01*
X139066666Y-129423809D01*
X139114285Y-129614285D01*
X139161904Y-129709523D01*
X139257142Y-129804761D01*
X139400000Y-129852380D01*
X139495238Y-129852380D01*
X139638095Y-129804761D01*
X139685714Y-129757142D01*
X139685714Y-129423809D01*
X139495238Y-129423809D01*
X140114285Y-129852380D02*
X140114285Y-128852380D01*
X140685714Y-129852380D01*
X140685714Y-128852380D01*
X141161904Y-129852380D02*
X141161904Y-128852380D01*
X141400000Y-128852380D01*
X141542857Y-128900000D01*
X141638095Y-128995238D01*
X141685714Y-129090476D01*
X141733333Y-129280952D01*
X141733333Y-129423809D01*
X141685714Y-129614285D01*
X141638095Y-129709523D01*
X141542857Y-129804761D01*
X141400000Y-129852380D01*
X141161904Y-129852380D01*
X104352380Y-129457142D02*
X104304761Y-129504761D01*
X104161903Y-129552380D01*
X104066665Y-129552380D01*
X103923808Y-129504761D01*
X103828570Y-129409523D01*
X103780951Y-129314285D01*
X103733332Y-129123809D01*
X103733332Y-128980952D01*
X103780951Y-128790476D01*
X103828570Y-128695238D01*
X103923808Y-128600000D01*
X104066665Y-128552380D01*
X104161903Y-128552380D01*
X104304761Y-128600000D01*
X104352380Y-128647619D01*
X104923808Y-129552380D02*
X104828570Y-129504761D01*
X104780951Y-129409523D01*
X104780951Y-128552380D01*
X105304761Y-129552380D02*
X105304761Y-128552380D01*
X105399999Y-129171428D02*
X105685713Y-129552380D01*
X105685713Y-128885714D02*
X105304761Y-129266666D01*
X103533333Y-72566666D02*
X104009523Y-72566666D01*
X103438095Y-72852380D02*
X103771428Y-71852380D01*
X104104761Y-72852380D01*
X104390476Y-71947619D02*
X104438095Y-71900000D01*
X104533333Y-71852380D01*
X104771428Y-71852380D01*
X104866666Y-71900000D01*
X104914285Y-71947619D01*
X104961904Y-72042857D01*
X104961904Y-72138095D01*
X104914285Y-72280952D01*
X104342857Y-72852380D01*
X104961904Y-72852380D01*
X105533333Y-72852380D02*
X105438095Y-72804761D01*
X105390476Y-72757142D01*
X105342857Y-72661904D01*
X105342857Y-72376190D01*
X105390476Y-72280952D01*
X105438095Y-72233333D01*
X105533333Y-72185714D01*
X105676190Y-72185714D01*
X105771428Y-72233333D01*
X105819047Y-72280952D01*
X105866666Y-72376190D01*
X105866666Y-72661904D01*
X105819047Y-72757142D01*
X105771428Y-72804761D01*
X105676190Y-72852380D01*
X105533333Y-72852380D01*
X154404762Y-103628571D02*
X154738095Y-103628571D01*
X154880952Y-104152380D02*
X154404762Y-104152380D01*
X154404762Y-103152380D01*
X154880952Y-103152380D01*
X155738095Y-104152380D02*
X155738095Y-103628571D01*
X155690476Y-103533333D01*
X155595238Y-103485714D01*
X155404762Y-103485714D01*
X155309524Y-103533333D01*
X155738095Y-104104761D02*
X155642857Y-104152380D01*
X155404762Y-104152380D01*
X155309524Y-104104761D01*
X155261905Y-104009523D01*
X155261905Y-103914285D01*
X155309524Y-103819047D01*
X155404762Y-103771428D01*
X155642857Y-103771428D01*
X155738095Y-103723809D01*
X156214286Y-104152380D02*
X156214286Y-103152380D01*
X156452381Y-103152380D01*
X156595238Y-103200000D01*
X156690476Y-103295238D01*
X156738095Y-103390476D01*
X156785714Y-103580952D01*
X156785714Y-103723809D01*
X156738095Y-103914285D01*
X156690476Y-104009523D01*
X156595238Y-104104761D01*
X156452381Y-104152380D01*
X156214286Y-104152380D01*
X154404762Y-126428571D02*
X154738095Y-126428571D01*
X154880952Y-126952380D02*
X154404762Y-126952380D01*
X154404762Y-125952380D01*
X154880952Y-125952380D01*
X155738095Y-126285714D02*
X155738095Y-126952380D01*
X155500000Y-125904761D02*
X155261905Y-126619047D01*
X155880952Y-126619047D01*
X156214286Y-126904761D02*
X156357143Y-126952380D01*
X156595238Y-126952380D01*
X156690476Y-126904761D01*
X156738095Y-126857142D01*
X156785714Y-126761904D01*
X156785714Y-126666666D01*
X156738095Y-126571428D01*
X156690476Y-126523809D01*
X156595238Y-126476190D01*
X156404762Y-126428571D01*
X156309524Y-126380952D01*
X156261905Y-126333333D01*
X156214286Y-126238095D01*
X156214286Y-126142857D01*
X156261905Y-126047619D01*
X156309524Y-126000000D01*
X156404762Y-125952380D01*
X156642857Y-125952380D01*
X156785714Y-126000000D01*
X154404762Y-113728571D02*
X154738095Y-113728571D01*
X154880952Y-114252380D02*
X154404762Y-114252380D01*
X154404762Y-113252380D01*
X154880952Y-113252380D01*
X155833333Y-114252380D02*
X155261905Y-114252380D01*
X155547619Y-114252380D02*
X155547619Y-113252380D01*
X155452381Y-113395238D01*
X155357143Y-113490476D01*
X155261905Y-113538095D01*
X156119048Y-113252380D02*
X156690476Y-113252380D01*
X156404762Y-114252380D02*
X156404762Y-113252380D01*
X103780951Y-116278571D02*
X104114285Y-116278571D01*
X104257142Y-116802380D02*
X103780951Y-116802380D01*
X103780951Y-115802380D01*
X104257142Y-115802380D01*
X105114285Y-116135714D02*
X105114285Y-116802380D01*
X104876190Y-115754761D02*
X104638094Y-116469047D01*
X105257142Y-116469047D01*
X105590475Y-116754761D02*
X105685713Y-116802380D01*
X105876190Y-116802380D01*
X105971428Y-116754761D01*
X106019047Y-116659523D01*
X106019047Y-116611904D01*
X105971428Y-116516666D01*
X105876190Y-116469047D01*
X105733332Y-116469047D01*
X105638094Y-116421428D01*
X105590475Y-116326190D01*
X105590475Y-116278571D01*
X105638094Y-116183333D01*
X105733332Y-116135714D01*
X105876190Y-116135714D01*
X105971428Y-116183333D01*
X154380952Y-77428571D02*
X154714285Y-77428571D01*
X154857142Y-77952380D02*
X154380952Y-77952380D01*
X154380952Y-76952380D01*
X154857142Y-76952380D01*
X155285714Y-77952380D02*
X155285714Y-76952380D01*
X155285714Y-77333333D02*
X155380952Y-77285714D01*
X155571428Y-77285714D01*
X155666666Y-77333333D01*
X155714285Y-77380952D01*
X155761904Y-77476190D01*
X155761904Y-77761904D01*
X155714285Y-77857142D01*
X155666666Y-77904761D01*
X155571428Y-77952380D01*
X155380952Y-77952380D01*
X155285714Y-77904761D01*
X156190476Y-77952380D02*
X156190476Y-76952380D01*
X156428571Y-76952380D01*
X156571428Y-77000000D01*
X156666666Y-77095238D01*
X156714285Y-77190476D01*
X156761904Y-77380952D01*
X156761904Y-77523809D01*
X156714285Y-77714285D01*
X156666666Y-77809523D01*
X156571428Y-77904761D01*
X156428571Y-77952380D01*
X156190476Y-77952380D01*
X104304761Y-118400000D02*
X104209523Y-118352380D01*
X104066666Y-118352380D01*
X103923808Y-118400000D01*
X103828570Y-118495238D01*
X103780951Y-118590476D01*
X103733332Y-118780952D01*
X103733332Y-118923809D01*
X103780951Y-119114285D01*
X103828570Y-119209523D01*
X103923808Y-119304761D01*
X104066666Y-119352380D01*
X104161904Y-119352380D01*
X104304761Y-119304761D01*
X104352380Y-119257142D01*
X104352380Y-118923809D01*
X104161904Y-118923809D01*
X105304761Y-119352380D02*
X104733332Y-119352380D01*
X105019047Y-119352380D02*
X105019047Y-118352380D01*
X104923808Y-118495238D01*
X104828570Y-118590476D01*
X104733332Y-118638095D01*
X103847619Y-106366666D02*
X104323809Y-106366666D01*
X103752380Y-106652380D02*
X104085714Y-105652380D01*
X104419047Y-106652380D01*
X104704761Y-105747619D02*
X104752380Y-105700000D01*
X104847619Y-105652380D01*
X105085714Y-105652380D01*
X105180952Y-105700000D01*
X105228571Y-105747619D01*
X105276190Y-105842857D01*
X105276190Y-105938095D01*
X105228571Y-106080952D01*
X104657142Y-106652380D01*
X105276190Y-106652380D01*
X105704761Y-106652380D02*
X105704761Y-105985714D01*
X105704761Y-105652380D02*
X105657142Y-105700000D01*
X105704761Y-105747619D01*
X105752380Y-105700000D01*
X105704761Y-105652380D01*
X105704761Y-105747619D01*
X154404762Y-116278571D02*
X154738095Y-116278571D01*
X154880952Y-116802380D02*
X154404762Y-116802380D01*
X154404762Y-115802380D01*
X154880952Y-115802380D01*
X155833333Y-116802380D02*
X155261905Y-116802380D01*
X155547619Y-116802380D02*
X155547619Y-115802380D01*
X155452381Y-115945238D01*
X155357143Y-116040476D01*
X155261905Y-116088095D01*
X156214286Y-116754761D02*
X156357143Y-116802380D01*
X156595238Y-116802380D01*
X156690476Y-116754761D01*
X156738095Y-116707142D01*
X156785714Y-116611904D01*
X156785714Y-116516666D01*
X156738095Y-116421428D01*
X156690476Y-116373809D01*
X156595238Y-116326190D01*
X156404762Y-116278571D01*
X156309524Y-116230952D01*
X156261905Y-116183333D01*
X156214286Y-116088095D01*
X156214286Y-115992857D01*
X156261905Y-115897619D01*
X156309524Y-115850000D01*
X156404762Y-115802380D01*
X156642857Y-115802380D01*
X156785714Y-115850000D01*
X136838095Y-64871428D02*
X137600000Y-64871428D01*
X138600000Y-65252380D02*
X138028571Y-65252380D01*
X138314285Y-65252380D02*
X138314285Y-64252380D01*
X138219047Y-64395238D01*
X138123809Y-64490476D01*
X138028571Y-64538095D01*
X138980952Y-64347619D02*
X139028571Y-64300000D01*
X139123809Y-64252380D01*
X139361904Y-64252380D01*
X139457142Y-64300000D01*
X139504761Y-64347619D01*
X139552380Y-64442857D01*
X139552380Y-64538095D01*
X139504761Y-64680952D01*
X138933333Y-65252380D01*
X139552380Y-65252380D01*
X139838095Y-64252380D02*
X140171428Y-65252380D01*
X140504761Y-64252380D01*
X155233333Y-98752380D02*
X154900000Y-98276190D01*
X154661904Y-98752380D02*
X154661904Y-97752380D01*
X155042857Y-97752380D01*
X155138095Y-97800000D01*
X155185714Y-97847619D01*
X155233333Y-97942857D01*
X155233333Y-98085714D01*
X155185714Y-98180952D01*
X155138095Y-98228571D01*
X155042857Y-98276190D01*
X154661904Y-98276190D01*
X155566666Y-97752380D02*
X156233333Y-98752380D01*
X156233333Y-97752380D02*
X155566666Y-98752380D01*
X154404762Y-123928571D02*
X154738095Y-123928571D01*
X154880952Y-124452380D02*
X154404762Y-124452380D01*
X154404762Y-123452380D01*
X154880952Y-123452380D01*
X155214286Y-123452380D02*
X155833333Y-123452380D01*
X155500000Y-123833333D01*
X155642857Y-123833333D01*
X155738095Y-123880952D01*
X155785714Y-123928571D01*
X155833333Y-124023809D01*
X155833333Y-124261904D01*
X155785714Y-124357142D01*
X155738095Y-124404761D01*
X155642857Y-124452380D01*
X155357143Y-124452380D01*
X155261905Y-124404761D01*
X155214286Y-124357142D01*
X156119048Y-123452380D02*
X156690476Y-123452380D01*
X156404762Y-124452380D02*
X156404762Y-123452380D01*
X103847619Y-111416666D02*
X104323809Y-111416666D01*
X103752380Y-111702380D02*
X104085714Y-110702380D01*
X104419047Y-111702380D01*
X105180952Y-111035714D02*
X105180952Y-111702380D01*
X104942857Y-110654761D02*
X104704761Y-111369047D01*
X105323809Y-111369047D01*
X105704761Y-111702380D02*
X105704761Y-111035714D01*
X105704761Y-110702380D02*
X105657142Y-110750000D01*
X105704761Y-110797619D01*
X105752380Y-110750000D01*
X105704761Y-110702380D01*
X105704761Y-110797619D01*
X154380952Y-72328571D02*
X154714285Y-72328571D01*
X154857142Y-72852380D02*
X154380952Y-72852380D01*
X154380952Y-71852380D01*
X154857142Y-71852380D01*
X155285714Y-72852380D02*
X155285714Y-71852380D01*
X155285714Y-72233333D02*
X155380952Y-72185714D01*
X155571428Y-72185714D01*
X155666666Y-72233333D01*
X155714285Y-72280952D01*
X155761904Y-72376190D01*
X155761904Y-72661904D01*
X155714285Y-72757142D01*
X155666666Y-72804761D01*
X155571428Y-72852380D01*
X155380952Y-72852380D01*
X155285714Y-72804761D01*
X156761904Y-72852380D02*
X156428571Y-72376190D01*
X156190476Y-72852380D02*
X156190476Y-71852380D01*
X156571428Y-71852380D01*
X156666666Y-71900000D01*
X156714285Y-71947619D01*
X156761904Y-72042857D01*
X156761904Y-72185714D01*
X156714285Y-72280952D01*
X156666666Y-72328571D01*
X156571428Y-72376190D01*
X156190476Y-72376190D01*
X155933333Y-70352380D02*
X155457142Y-70352380D01*
X155457142Y-69352380D01*
X156171428Y-69352380D02*
X156790476Y-69352380D01*
X156457142Y-69733333D01*
X156600000Y-69733333D01*
X156695238Y-69780952D01*
X156742857Y-69828571D01*
X156790476Y-69923809D01*
X156790476Y-70161904D01*
X156742857Y-70257142D01*
X156695238Y-70304761D01*
X156600000Y-70352380D01*
X156314285Y-70352380D01*
X156219047Y-70304761D01*
X156171428Y-70257142D01*
X154376189Y-80028571D02*
X154709523Y-80028571D01*
X154852380Y-80552380D02*
X154376189Y-80552380D01*
X154376189Y-79552380D01*
X154852380Y-79552380D01*
X155280951Y-80552380D02*
X155280951Y-79552380D01*
X155280951Y-79933333D02*
X155376189Y-79885714D01*
X155566666Y-79885714D01*
X155661904Y-79933333D01*
X155709523Y-79980952D01*
X155757142Y-80076190D01*
X155757142Y-80361904D01*
X155709523Y-80457142D01*
X155661904Y-80504761D01*
X155566666Y-80552380D01*
X155376189Y-80552380D01*
X155280951Y-80504761D01*
X156138094Y-80266666D02*
X156614285Y-80266666D01*
X156042856Y-80552380D02*
X156376189Y-79552380D01*
X156709523Y-80552380D01*
X103533333Y-70066666D02*
X104009523Y-70066666D01*
X103438095Y-70352380D02*
X103771428Y-69352380D01*
X104104761Y-70352380D01*
X104342857Y-69352380D02*
X104961904Y-69352380D01*
X104628571Y-69733333D01*
X104771428Y-69733333D01*
X104866666Y-69780952D01*
X104914285Y-69828571D01*
X104961904Y-69923809D01*
X104961904Y-70161904D01*
X104914285Y-70257142D01*
X104866666Y-70304761D01*
X104771428Y-70352380D01*
X104485714Y-70352380D01*
X104390476Y-70304761D01*
X104342857Y-70257142D01*
X105533333Y-70352380D02*
X105438095Y-70304761D01*
X105390476Y-70257142D01*
X105342857Y-70161904D01*
X105342857Y-69876190D01*
X105390476Y-69780952D01*
X105438095Y-69733333D01*
X105533333Y-69685714D01*
X105676190Y-69685714D01*
X105771428Y-69733333D01*
X105819047Y-69780952D01*
X105866666Y-69876190D01*
X105866666Y-70161904D01*
X105819047Y-70257142D01*
X105771428Y-70304761D01*
X105676190Y-70352380D01*
X105533333Y-70352380D01*
X104304761Y-126000000D02*
X104209523Y-125952380D01*
X104066666Y-125952380D01*
X103923808Y-126000000D01*
X103828570Y-126095238D01*
X103780951Y-126190476D01*
X103733332Y-126380952D01*
X103733332Y-126523809D01*
X103780951Y-126714285D01*
X103828570Y-126809523D01*
X103923808Y-126904761D01*
X104066666Y-126952380D01*
X104161904Y-126952380D01*
X104304761Y-126904761D01*
X104352380Y-126857142D01*
X104352380Y-126523809D01*
X104161904Y-126523809D01*
X105209523Y-126285714D02*
X105209523Y-126952380D01*
X104971427Y-125904761D02*
X104733332Y-126619047D01*
X105352380Y-126619047D01*
X104257142Y-114252380D02*
X103780952Y-114252380D01*
X103780952Y-113252380D01*
X104923809Y-113728571D02*
X104590476Y-113728571D01*
X104590476Y-114252380D02*
X104590476Y-113252380D01*
X105066666Y-113252380D01*
X105638095Y-113252380D02*
X105828571Y-113252380D01*
X105923809Y-113300000D01*
X106019047Y-113395238D01*
X106066666Y-113585714D01*
X106066666Y-113919047D01*
X106019047Y-114109523D01*
X105923809Y-114204761D01*
X105828571Y-114252380D01*
X105638095Y-114252380D01*
X105542857Y-114204761D01*
X105447619Y-114109523D01*
X105400000Y-113919047D01*
X105400000Y-113585714D01*
X105447619Y-113395238D01*
X105542857Y-113300000D01*
X105638095Y-113252380D01*
X155933333Y-62702380D02*
X155457142Y-62702380D01*
X155457142Y-61702380D01*
X156219047Y-61797619D02*
X156266666Y-61750000D01*
X156361904Y-61702380D01*
X156600000Y-61702380D01*
X156695238Y-61750000D01*
X156742857Y-61797619D01*
X156790476Y-61892857D01*
X156790476Y-61988095D01*
X156742857Y-62130952D01*
X156171428Y-62702380D01*
X156790476Y-62702380D01*
X149109523Y-65128571D02*
X149442857Y-65128571D01*
X149585714Y-65652380D02*
X149109523Y-65652380D01*
X149109523Y-64652380D01*
X149585714Y-64652380D01*
X150442857Y-64985714D02*
X150442857Y-65652380D01*
X150204761Y-64604761D02*
X149966666Y-65319047D01*
X150585714Y-65319047D01*
X126138095Y-116961666D02*
X126614285Y-116961666D01*
X126042857Y-117247380D02*
X126376190Y-116247380D01*
X126709523Y-117247380D01*
X127042857Y-117247380D02*
X127042857Y-116580714D01*
X127042857Y-116675952D02*
X127090476Y-116628333D01*
X127185714Y-116580714D01*
X127328571Y-116580714D01*
X127423809Y-116628333D01*
X127471428Y-116723571D01*
X127471428Y-117247380D01*
X127471428Y-116723571D02*
X127519047Y-116628333D01*
X127614285Y-116580714D01*
X127757142Y-116580714D01*
X127852380Y-116628333D01*
X127900000Y-116723571D01*
X127900000Y-117247380D01*
X128376190Y-116580714D02*
X128376190Y-117580714D01*
X128376190Y-116628333D02*
X128471428Y-116580714D01*
X128661904Y-116580714D01*
X128757142Y-116628333D01*
X128804761Y-116675952D01*
X128852380Y-116771190D01*
X128852380Y-117056904D01*
X128804761Y-117152142D01*
X128757142Y-117199761D01*
X128661904Y-117247380D01*
X128471428Y-117247380D01*
X128376190Y-117199761D01*
X129661904Y-117199761D02*
X129566666Y-117247380D01*
X129376190Y-117247380D01*
X129280952Y-117199761D01*
X129233333Y-117104523D01*
X129233333Y-116723571D01*
X129280952Y-116628333D01*
X129376190Y-116580714D01*
X129566666Y-116580714D01*
X129661904Y-116628333D01*
X129709523Y-116723571D01*
X129709523Y-116818809D01*
X129233333Y-116914047D01*
X130280952Y-117247380D02*
X130185714Y-117199761D01*
X130138095Y-117104523D01*
X130138095Y-116247380D01*
X130804761Y-117247380D02*
X130709523Y-117199761D01*
X130661904Y-117152142D01*
X130614285Y-117056904D01*
X130614285Y-116771190D01*
X130661904Y-116675952D01*
X130709523Y-116628333D01*
X130804761Y-116580714D01*
X130947619Y-116580714D01*
X131042857Y-116628333D01*
X131090476Y-116675952D01*
X131138095Y-116771190D01*
X131138095Y-117056904D01*
X131090476Y-117152142D01*
X131042857Y-117199761D01*
X130947619Y-117247380D01*
X130804761Y-117247380D01*
X131566666Y-116580714D02*
X131566666Y-117580714D01*
X131566666Y-116628333D02*
X131661904Y-116580714D01*
X131852380Y-116580714D01*
X131947619Y-116628333D01*
X131995238Y-116675952D01*
X132042857Y-116771190D01*
X132042857Y-117056904D01*
X131995238Y-117152142D01*
X131947619Y-117199761D01*
X131852380Y-117247380D01*
X131661904Y-117247380D01*
X131566666Y-117199761D01*
X132852380Y-117199761D02*
X132757142Y-117247380D01*
X132566666Y-117247380D01*
X132471428Y-117199761D01*
X132423809Y-117104523D01*
X132423809Y-116723571D01*
X132471428Y-116628333D01*
X132566666Y-116580714D01*
X132757142Y-116580714D01*
X132852380Y-116628333D01*
X132900000Y-116723571D01*
X132900000Y-116818809D01*
X132423809Y-116914047D01*
X134661904Y-117152142D02*
X134614285Y-117199761D01*
X134471428Y-117247380D01*
X134376190Y-117247380D01*
X134233333Y-117199761D01*
X134138095Y-117104523D01*
X134090476Y-117009285D01*
X134042857Y-116818809D01*
X134042857Y-116675952D01*
X134090476Y-116485476D01*
X134138095Y-116390238D01*
X134233333Y-116295000D01*
X134376190Y-116247380D01*
X134471428Y-116247380D01*
X134614285Y-116295000D01*
X134661904Y-116342619D01*
X135233333Y-117247380D02*
X135138095Y-117199761D01*
X135090476Y-117152142D01*
X135042857Y-117056904D01*
X135042857Y-116771190D01*
X135090476Y-116675952D01*
X135138095Y-116628333D01*
X135233333Y-116580714D01*
X135376190Y-116580714D01*
X135471428Y-116628333D01*
X135519047Y-116675952D01*
X135566666Y-116771190D01*
X135566666Y-117056904D01*
X135519047Y-117152142D01*
X135471428Y-117199761D01*
X135376190Y-117247380D01*
X135233333Y-117247380D01*
X135995238Y-117247380D02*
X135995238Y-116580714D01*
X135995238Y-116675952D02*
X136042857Y-116628333D01*
X136138095Y-116580714D01*
X136280952Y-116580714D01*
X136376190Y-116628333D01*
X136423809Y-116723571D01*
X136423809Y-117247380D01*
X136423809Y-116723571D02*
X136471428Y-116628333D01*
X136566666Y-116580714D01*
X136709523Y-116580714D01*
X136804761Y-116628333D01*
X136852380Y-116723571D01*
X136852380Y-117247380D01*
X137328571Y-116580714D02*
X137328571Y-117580714D01*
X137328571Y-116628333D02*
X137423809Y-116580714D01*
X137614285Y-116580714D01*
X137709523Y-116628333D01*
X137757142Y-116675952D01*
X137804761Y-116771190D01*
X137804761Y-117056904D01*
X137757142Y-117152142D01*
X137709523Y-117199761D01*
X137614285Y-117247380D01*
X137423809Y-117247380D01*
X137328571Y-117199761D01*
X138376190Y-117247380D02*
X138280952Y-117199761D01*
X138233333Y-117152142D01*
X138185714Y-117056904D01*
X138185714Y-116771190D01*
X138233333Y-116675952D01*
X138280952Y-116628333D01*
X138376190Y-116580714D01*
X138519047Y-116580714D01*
X138614285Y-116628333D01*
X138661904Y-116675952D01*
X138709523Y-116771190D01*
X138709523Y-117056904D01*
X138661904Y-117152142D01*
X138614285Y-117199761D01*
X138519047Y-117247380D01*
X138376190Y-117247380D01*
X139138095Y-116580714D02*
X139138095Y-117247380D01*
X139138095Y-116675952D02*
X139185714Y-116628333D01*
X139280952Y-116580714D01*
X139423809Y-116580714D01*
X139519047Y-116628333D01*
X139566666Y-116723571D01*
X139566666Y-117247380D01*
X140423809Y-117199761D02*
X140328571Y-117247380D01*
X140138095Y-117247380D01*
X140042857Y-117199761D01*
X139995238Y-117104523D01*
X139995238Y-116723571D01*
X140042857Y-116628333D01*
X140138095Y-116580714D01*
X140328571Y-116580714D01*
X140423809Y-116628333D01*
X140471428Y-116723571D01*
X140471428Y-116818809D01*
X139995238Y-116914047D01*
X140900000Y-116580714D02*
X140900000Y-117247380D01*
X140900000Y-116675952D02*
X140947619Y-116628333D01*
X141042857Y-116580714D01*
X141185714Y-116580714D01*
X141280952Y-116628333D01*
X141328571Y-116723571D01*
X141328571Y-117247380D01*
X141661904Y-116580714D02*
X142042857Y-116580714D01*
X141804761Y-116247380D02*
X141804761Y-117104523D01*
X141852380Y-117199761D01*
X141947619Y-117247380D01*
X142042857Y-117247380D01*
X142328571Y-117199761D02*
X142423809Y-117247380D01*
X142614285Y-117247380D01*
X142709523Y-117199761D01*
X142757142Y-117104523D01*
X142757142Y-117056904D01*
X142709523Y-116961666D01*
X142614285Y-116914047D01*
X142471428Y-116914047D01*
X142376190Y-116866428D01*
X142328571Y-116771190D01*
X142328571Y-116723571D01*
X142376190Y-116628333D01*
X142471428Y-116580714D01*
X142614285Y-116580714D01*
X142709523Y-116628333D01*
X143852380Y-116580714D02*
X144090476Y-117247380D01*
X144328571Y-116580714D01*
X145233333Y-117247380D02*
X144661904Y-117247380D01*
X144947619Y-117247380D02*
X144947619Y-116247380D01*
X144852380Y-116390238D01*
X144757142Y-116485476D01*
X144661904Y-116533095D01*
X145661904Y-117152142D02*
X145709523Y-117199761D01*
X145661904Y-117247380D01*
X145614285Y-117199761D01*
X145661904Y-117152142D01*
X145661904Y-117247380D01*
X146328571Y-116247380D02*
X146423809Y-116247380D01*
X146519047Y-116295000D01*
X146566666Y-116342619D01*
X146614285Y-116437857D01*
X146661904Y-116628333D01*
X146661904Y-116866428D01*
X146614285Y-117056904D01*
X146566666Y-117152142D01*
X146519047Y-117199761D01*
X146423809Y-117247380D01*
X146328571Y-117247380D01*
X146233333Y-117199761D01*
X146185714Y-117152142D01*
X146138095Y-117056904D01*
X146090476Y-116866428D01*
X146090476Y-116628333D01*
X146138095Y-116437857D01*
X146185714Y-116342619D01*
X146233333Y-116295000D01*
X146328571Y-116247380D01*
X127733333Y-118857380D02*
X127733333Y-117857380D01*
X128066666Y-118571666D01*
X128400000Y-117857380D01*
X128400000Y-118857380D01*
X129019047Y-118857380D02*
X128923809Y-118809761D01*
X128876190Y-118762142D01*
X128828571Y-118666904D01*
X128828571Y-118381190D01*
X128876190Y-118285952D01*
X128923809Y-118238333D01*
X129019047Y-118190714D01*
X129161904Y-118190714D01*
X129257142Y-118238333D01*
X129304761Y-118285952D01*
X129352380Y-118381190D01*
X129352380Y-118666904D01*
X129304761Y-118762142D01*
X129257142Y-118809761D01*
X129161904Y-118857380D01*
X129019047Y-118857380D01*
X130209523Y-118190714D02*
X130209523Y-118857380D01*
X129780952Y-118190714D02*
X129780952Y-118714523D01*
X129828571Y-118809761D01*
X129923809Y-118857380D01*
X130066666Y-118857380D01*
X130161904Y-118809761D01*
X130209523Y-118762142D01*
X130685714Y-118190714D02*
X130685714Y-118857380D01*
X130685714Y-118285952D02*
X130733333Y-118238333D01*
X130828571Y-118190714D01*
X130971428Y-118190714D01*
X131066666Y-118238333D01*
X131114285Y-118333571D01*
X131114285Y-118857380D01*
X131447619Y-118190714D02*
X131828571Y-118190714D01*
X131590476Y-117857380D02*
X131590476Y-118714523D01*
X131638095Y-118809761D01*
X131733333Y-118857380D01*
X131828571Y-118857380D01*
X132161904Y-118190714D02*
X132161904Y-119047857D01*
X132114285Y-119143095D01*
X132019047Y-119190714D01*
X131971428Y-119190714D01*
X132161904Y-117857380D02*
X132114285Y-117905000D01*
X132161904Y-117952619D01*
X132209523Y-117905000D01*
X132161904Y-117857380D01*
X132161904Y-117952619D01*
X132780952Y-118857380D02*
X132685714Y-118809761D01*
X132638095Y-118762142D01*
X132590476Y-118666904D01*
X132590476Y-118381190D01*
X132638095Y-118285952D01*
X132685714Y-118238333D01*
X132780952Y-118190714D01*
X132923809Y-118190714D01*
X133019047Y-118238333D01*
X133066666Y-118285952D01*
X133114285Y-118381190D01*
X133114285Y-118666904D01*
X133066666Y-118762142D01*
X133019047Y-118809761D01*
X132923809Y-118857380D01*
X132780952Y-118857380D01*
X133447619Y-118190714D02*
X133685714Y-118857380D01*
X133923809Y-118190714D02*
X133685714Y-118857380D01*
X133590476Y-119095476D01*
X133542857Y-119143095D01*
X133447619Y-119190714D01*
X135066666Y-118857380D02*
X135066666Y-117857380D01*
X135400000Y-118571666D01*
X135733333Y-117857380D01*
X135733333Y-118857380D01*
X136352380Y-118857380D02*
X136257142Y-118809761D01*
X136209523Y-118762142D01*
X136161904Y-118666904D01*
X136161904Y-118381190D01*
X136209523Y-118285952D01*
X136257142Y-118238333D01*
X136352380Y-118190714D01*
X136495238Y-118190714D01*
X136590476Y-118238333D01*
X136638095Y-118285952D01*
X136685714Y-118381190D01*
X136685714Y-118666904D01*
X136638095Y-118762142D01*
X136590476Y-118809761D01*
X136495238Y-118857380D01*
X136352380Y-118857380D01*
X137542857Y-118857380D02*
X137542857Y-117857380D01*
X137542857Y-118809761D02*
X137447619Y-118857380D01*
X137257142Y-118857380D01*
X137161904Y-118809761D01*
X137114285Y-118762142D01*
X137066666Y-118666904D01*
X137066666Y-118381190D01*
X137114285Y-118285952D01*
X137161904Y-118238333D01*
X137257142Y-118190714D01*
X137447619Y-118190714D01*
X137542857Y-118238333D01*
X138447619Y-118190714D02*
X138447619Y-118857380D01*
X138019047Y-118190714D02*
X138019047Y-118714523D01*
X138066666Y-118809761D01*
X138161904Y-118857380D01*
X138304761Y-118857380D01*
X138400000Y-118809761D01*
X138447619Y-118762142D01*
X139066666Y-118857380D02*
X138971428Y-118809761D01*
X138923809Y-118714523D01*
X138923809Y-117857380D01*
X139876190Y-118857380D02*
X139876190Y-118333571D01*
X139828571Y-118238333D01*
X139733333Y-118190714D01*
X139542857Y-118190714D01*
X139447619Y-118238333D01*
X139876190Y-118809761D02*
X139780952Y-118857380D01*
X139542857Y-118857380D01*
X139447619Y-118809761D01*
X139400000Y-118714523D01*
X139400000Y-118619285D01*
X139447619Y-118524047D01*
X139542857Y-118476428D01*
X139780952Y-118476428D01*
X139876190Y-118428809D01*
X140352380Y-118857380D02*
X140352380Y-118190714D01*
X140352380Y-118381190D02*
X140400000Y-118285952D01*
X140447619Y-118238333D01*
X140542857Y-118190714D01*
X140638095Y-118190714D01*
X141685714Y-117952619D02*
X141733333Y-117905000D01*
X141828571Y-117857380D01*
X142066666Y-117857380D01*
X142161904Y-117905000D01*
X142209523Y-117952619D01*
X142257142Y-118047857D01*
X142257142Y-118143095D01*
X142209523Y-118285952D01*
X141638095Y-118857380D01*
X142257142Y-118857380D01*
X142876190Y-117857380D02*
X142971428Y-117857380D01*
X143066666Y-117905000D01*
X143114285Y-117952619D01*
X143161904Y-118047857D01*
X143209523Y-118238333D01*
X143209523Y-118476428D01*
X143161904Y-118666904D01*
X143114285Y-118762142D01*
X143066666Y-118809761D01*
X142971428Y-118857380D01*
X142876190Y-118857380D01*
X142780952Y-118809761D01*
X142733333Y-118762142D01*
X142685714Y-118666904D01*
X142638095Y-118476428D01*
X142638095Y-118238333D01*
X142685714Y-118047857D01*
X142733333Y-117952619D01*
X142780952Y-117905000D01*
X142876190Y-117857380D01*
X143590476Y-117952619D02*
X143638095Y-117905000D01*
X143733333Y-117857380D01*
X143971428Y-117857380D01*
X144066666Y-117905000D01*
X144114285Y-117952619D01*
X144161904Y-118047857D01*
X144161904Y-118143095D01*
X144114285Y-118285952D01*
X143542857Y-118857380D01*
X144161904Y-118857380D01*
X145114285Y-118857380D02*
X144542857Y-118857380D01*
X144828571Y-118857380D02*
X144828571Y-117857380D01*
X144733333Y-118000238D01*
X144638095Y-118095476D01*
X144542857Y-118143095D01*
X155457142Y-67278571D02*
X155790476Y-67278571D01*
X155933333Y-67802380D02*
X155457142Y-67802380D01*
X155457142Y-66802380D01*
X155933333Y-66802380D01*
X156266666Y-66802380D02*
X156885714Y-66802380D01*
X156552380Y-67183333D01*
X156695238Y-67183333D01*
X156790476Y-67230952D01*
X156838095Y-67278571D01*
X156885714Y-67373809D01*
X156885714Y-67611904D01*
X156838095Y-67707142D01*
X156790476Y-67754761D01*
X156695238Y-67802380D01*
X156409523Y-67802380D01*
X156314285Y-67754761D01*
X156266666Y-67707142D01*
X155933333Y-65252380D02*
X155457142Y-65252380D01*
X155457142Y-64252380D01*
X156695238Y-64585714D02*
X156695238Y-65252380D01*
X156457142Y-64204761D02*
X156219047Y-64919047D01*
X156838095Y-64919047D01*
X103533333Y-80266666D02*
X104009523Y-80266666D01*
X103438095Y-80552380D02*
X103771428Y-79552380D01*
X104104761Y-80552380D01*
X104961904Y-80552380D02*
X104390476Y-80552380D01*
X104676190Y-80552380D02*
X104676190Y-79552380D01*
X104580952Y-79695238D01*
X104485714Y-79790476D01*
X104390476Y-79838095D01*
X105533333Y-80552380D02*
X105438095Y-80504761D01*
X105390476Y-80457142D01*
X105342857Y-80361904D01*
X105342857Y-80076190D01*
X105390476Y-79980952D01*
X105438095Y-79933333D01*
X105533333Y-79885714D01*
X105676190Y-79885714D01*
X105771428Y-79933333D01*
X105819047Y-79980952D01*
X105866666Y-80076190D01*
X105866666Y-80361904D01*
X105819047Y-80457142D01*
X105771428Y-80504761D01*
X105676190Y-80552380D01*
X105533333Y-80552380D01*
X153052380Y-89638095D02*
X152576190Y-89971428D01*
X153052380Y-90209523D02*
X152052380Y-90209523D01*
X152052380Y-89828571D01*
X152100000Y-89733333D01*
X152147619Y-89685714D01*
X152242857Y-89638095D01*
X152385714Y-89638095D01*
X152480952Y-89685714D01*
X152528571Y-89733333D01*
X152576190Y-89828571D01*
X152576190Y-90209523D01*
X153004761Y-88828571D02*
X153052380Y-88923809D01*
X153052380Y-89114285D01*
X153004761Y-89209523D01*
X152909523Y-89257142D01*
X152528571Y-89257142D01*
X152433333Y-89209523D01*
X152385714Y-89114285D01*
X152385714Y-88923809D01*
X152433333Y-88828571D01*
X152528571Y-88780952D01*
X152623809Y-88780952D01*
X152719047Y-89257142D01*
X153004761Y-88400000D02*
X153052380Y-88304761D01*
X153052380Y-88114285D01*
X153004761Y-88019047D01*
X152909523Y-87971428D01*
X152861904Y-87971428D01*
X152766666Y-88019047D01*
X152719047Y-88114285D01*
X152719047Y-88257142D01*
X152671428Y-88352380D01*
X152576190Y-88400000D01*
X152528571Y-88400000D01*
X152433333Y-88352380D01*
X152385714Y-88257142D01*
X152385714Y-88114285D01*
X152433333Y-88019047D01*
X153004761Y-87161904D02*
X153052380Y-87257142D01*
X153052380Y-87447619D01*
X153004761Y-87542857D01*
X152909523Y-87590476D01*
X152528571Y-87590476D01*
X152433333Y-87542857D01*
X152385714Y-87447619D01*
X152385714Y-87257142D01*
X152433333Y-87161904D01*
X152528571Y-87114285D01*
X152623809Y-87114285D01*
X152719047Y-87590476D01*
X152385714Y-86828571D02*
X152385714Y-86447619D01*
X152052380Y-86685714D02*
X152909523Y-86685714D01*
X153004761Y-86638095D01*
X153052380Y-86542857D01*
X153052380Y-86447619D01*
X103847619Y-108866666D02*
X104323809Y-108866666D01*
X103752380Y-109152380D02*
X104085714Y-108152380D01*
X104419047Y-109152380D01*
X104657142Y-108152380D02*
X105276190Y-108152380D01*
X104942857Y-108533333D01*
X105085714Y-108533333D01*
X105180952Y-108580952D01*
X105228571Y-108628571D01*
X105276190Y-108723809D01*
X105276190Y-108961904D01*
X105228571Y-109057142D01*
X105180952Y-109104761D01*
X105085714Y-109152380D01*
X104800000Y-109152380D01*
X104704761Y-109104761D01*
X104657142Y-109057142D01*
X105704761Y-109152380D02*
X105704761Y-108485714D01*
X105704761Y-108152380D02*
X105657142Y-108200000D01*
X105704761Y-108247619D01*
X105752380Y-108200000D01*
X105704761Y-108152380D01*
X105704761Y-108247619D01*
X154404762Y-129028571D02*
X154738095Y-129028571D01*
X154880952Y-129552380D02*
X154404762Y-129552380D01*
X154404762Y-128552380D01*
X154880952Y-128552380D01*
X155738095Y-128885714D02*
X155738095Y-129552380D01*
X155500000Y-128504761D02*
X155261905Y-129219047D01*
X155880952Y-129219047D01*
X156119048Y-128552380D02*
X156690476Y-128552380D01*
X156404762Y-129552380D02*
X156404762Y-128552380D01*
X146509523Y-65128571D02*
X146842857Y-65128571D01*
X146985714Y-65652380D02*
X146509523Y-65652380D01*
X146509523Y-64652380D01*
X146985714Y-64652380D01*
X147366666Y-64747619D02*
X147414285Y-64700000D01*
X147509523Y-64652380D01*
X147747619Y-64652380D01*
X147842857Y-64700000D01*
X147890476Y-64747619D01*
X147938095Y-64842857D01*
X147938095Y-64938095D01*
X147890476Y-65080952D01*
X147319047Y-65652380D01*
X147938095Y-65652380D01*
X103533333Y-67516666D02*
X104009523Y-67516666D01*
X103438095Y-67802380D02*
X103771428Y-66802380D01*
X104104761Y-67802380D01*
X104866666Y-67135714D02*
X104866666Y-67802380D01*
X104628571Y-66754761D02*
X104390476Y-67469047D01*
X105009523Y-67469047D01*
X105533333Y-67802380D02*
X105438095Y-67754761D01*
X105390476Y-67707142D01*
X105342857Y-67611904D01*
X105342857Y-67326190D01*
X105390476Y-67230952D01*
X105438095Y-67183333D01*
X105533333Y-67135714D01*
X105676190Y-67135714D01*
X105771428Y-67183333D01*
X105819047Y-67230952D01*
X105866666Y-67326190D01*
X105866666Y-67611904D01*
X105819047Y-67707142D01*
X105771428Y-67754761D01*
X105676190Y-67802380D01*
X105533333Y-67802380D01*
X103847619Y-103866666D02*
X104323809Y-103866666D01*
X103752380Y-104152380D02*
X104085714Y-103152380D01*
X104419047Y-104152380D01*
X105276190Y-104152380D02*
X104704761Y-104152380D01*
X104990476Y-104152380D02*
X104990476Y-103152380D01*
X104895238Y-103295238D01*
X104800000Y-103390476D01*
X104704761Y-103438095D01*
X105704761Y-104152380D02*
X105704761Y-103485714D01*
X105704761Y-103152380D02*
X105657142Y-103200000D01*
X105704761Y-103247619D01*
X105752380Y-103200000D01*
X105704761Y-103152380D01*
X105704761Y-103247619D01*
X129180952Y-65252380D02*
X128609523Y-65252380D01*
X128895238Y-65252380D02*
X128895238Y-64252380D01*
X128800000Y-64395238D01*
X128704761Y-64490476D01*
X128609523Y-64538095D01*
X129561904Y-64347619D02*
X129609523Y-64300000D01*
X129704761Y-64252380D01*
X129942857Y-64252380D01*
X130038095Y-64300000D01*
X130085714Y-64347619D01*
X130133333Y-64442857D01*
X130133333Y-64538095D01*
X130085714Y-64680952D01*
X129514285Y-65252380D01*
X130133333Y-65252380D01*
X130419047Y-64252380D02*
X130752380Y-65252380D01*
X131085714Y-64252380D01*
%TO.C,Q5*%
X131804761Y-126947619D02*
X131709523Y-126900000D01*
X131614285Y-126804761D01*
X131471428Y-126661904D01*
X131376190Y-126614285D01*
X131280952Y-126614285D01*
X131328571Y-126852380D02*
X131233333Y-126804761D01*
X131138095Y-126709523D01*
X131090476Y-126519047D01*
X131090476Y-126185714D01*
X131138095Y-125995238D01*
X131233333Y-125900000D01*
X131328571Y-125852380D01*
X131519047Y-125852380D01*
X131614285Y-125900000D01*
X131709523Y-125995238D01*
X131757142Y-126185714D01*
X131757142Y-126519047D01*
X131709523Y-126709523D01*
X131614285Y-126804761D01*
X131519047Y-126852380D01*
X131328571Y-126852380D01*
X132661904Y-125852380D02*
X132185714Y-125852380D01*
X132138095Y-126328571D01*
X132185714Y-126280952D01*
X132280952Y-126233333D01*
X132519047Y-126233333D01*
X132614285Y-126280952D01*
X132661904Y-126328571D01*
X132709523Y-126423809D01*
X132709523Y-126661904D01*
X132661904Y-126757142D01*
X132614285Y-126804761D01*
X132519047Y-126852380D01*
X132280952Y-126852380D01*
X132185714Y-126804761D01*
X132138095Y-126757142D01*
%TO.C,Q4*%
X126904761Y-126947619D02*
X126809523Y-126900000D01*
X126714285Y-126804761D01*
X126571428Y-126661904D01*
X126476190Y-126614285D01*
X126380952Y-126614285D01*
X126428571Y-126852380D02*
X126333333Y-126804761D01*
X126238095Y-126709523D01*
X126190476Y-126519047D01*
X126190476Y-126185714D01*
X126238095Y-125995238D01*
X126333333Y-125900000D01*
X126428571Y-125852380D01*
X126619047Y-125852380D01*
X126714285Y-125900000D01*
X126809523Y-125995238D01*
X126857142Y-126185714D01*
X126857142Y-126519047D01*
X126809523Y-126709523D01*
X126714285Y-126804761D01*
X126619047Y-126852380D01*
X126428571Y-126852380D01*
X127714285Y-126185714D02*
X127714285Y-126852380D01*
X127476190Y-125804761D02*
X127238095Y-126519047D01*
X127857142Y-126519047D01*
%TO.C,Q3*%
X122004761Y-126947619D02*
X121909523Y-126900000D01*
X121814285Y-126804761D01*
X121671428Y-126661904D01*
X121576190Y-126614285D01*
X121480952Y-126614285D01*
X121528571Y-126852380D02*
X121433333Y-126804761D01*
X121338095Y-126709523D01*
X121290476Y-126519047D01*
X121290476Y-126185714D01*
X121338095Y-125995238D01*
X121433333Y-125900000D01*
X121528571Y-125852380D01*
X121719047Y-125852380D01*
X121814285Y-125900000D01*
X121909523Y-125995238D01*
X121957142Y-126185714D01*
X121957142Y-126519047D01*
X121909523Y-126709523D01*
X121814285Y-126804761D01*
X121719047Y-126852380D01*
X121528571Y-126852380D01*
X122290476Y-125852380D02*
X122909523Y-125852380D01*
X122576190Y-126233333D01*
X122719047Y-126233333D01*
X122814285Y-126280952D01*
X122861904Y-126328571D01*
X122909523Y-126423809D01*
X122909523Y-126661904D01*
X122861904Y-126757142D01*
X122814285Y-126804761D01*
X122719047Y-126852380D01*
X122433333Y-126852380D01*
X122338095Y-126804761D01*
X122290476Y-126757142D01*
%TO.C,Q2*%
X117104761Y-126947619D02*
X117009523Y-126900000D01*
X116914285Y-126804761D01*
X116771428Y-126661904D01*
X116676190Y-126614285D01*
X116580952Y-126614285D01*
X116628571Y-126852380D02*
X116533333Y-126804761D01*
X116438095Y-126709523D01*
X116390476Y-126519047D01*
X116390476Y-126185714D01*
X116438095Y-125995238D01*
X116533333Y-125900000D01*
X116628571Y-125852380D01*
X116819047Y-125852380D01*
X116914285Y-125900000D01*
X117009523Y-125995238D01*
X117057142Y-126185714D01*
X117057142Y-126519047D01*
X117009523Y-126709523D01*
X116914285Y-126804761D01*
X116819047Y-126852380D01*
X116628571Y-126852380D01*
X117438095Y-125947619D02*
X117485714Y-125900000D01*
X117580952Y-125852380D01*
X117819047Y-125852380D01*
X117914285Y-125900000D01*
X117961904Y-125947619D01*
X118009523Y-126042857D01*
X118009523Y-126138095D01*
X117961904Y-126280952D01*
X117390476Y-126852380D01*
X118009523Y-126852380D01*
%TO.C,Q1*%
X112204761Y-126947619D02*
X112109523Y-126900000D01*
X112014285Y-126804761D01*
X111871428Y-126661904D01*
X111776190Y-126614285D01*
X111680952Y-126614285D01*
X111728571Y-126852380D02*
X111633333Y-126804761D01*
X111538095Y-126709523D01*
X111490476Y-126519047D01*
X111490476Y-126185714D01*
X111538095Y-125995238D01*
X111633333Y-125900000D01*
X111728571Y-125852380D01*
X111919047Y-125852380D01*
X112014285Y-125900000D01*
X112109523Y-125995238D01*
X112157142Y-126185714D01*
X112157142Y-126519047D01*
X112109523Y-126709523D01*
X112014285Y-126804761D01*
X111919047Y-126852380D01*
X111728571Y-126852380D01*
X113109523Y-126852380D02*
X112538095Y-126852380D01*
X112823809Y-126852380D02*
X112823809Y-125852380D01*
X112728571Y-125995238D01*
X112633333Y-126090476D01*
X112538095Y-126138095D01*
%TO.C,C4*%
X152333333Y-62557142D02*
X152285714Y-62604761D01*
X152142857Y-62652380D01*
X152047619Y-62652380D01*
X151904761Y-62604761D01*
X151809523Y-62509523D01*
X151761904Y-62414285D01*
X151714285Y-62223809D01*
X151714285Y-62080952D01*
X151761904Y-61890476D01*
X151809523Y-61795238D01*
X151904761Y-61700000D01*
X152047619Y-61652380D01*
X152142857Y-61652380D01*
X152285714Y-61700000D01*
X152333333Y-61747619D01*
X153190476Y-61985714D02*
X153190476Y-62652380D01*
X152952380Y-61604761D02*
X152714285Y-62319047D01*
X153333333Y-62319047D01*
%TO.C,C18*%
X105357142Y-87357142D02*
X105309523Y-87404761D01*
X105166666Y-87452380D01*
X105071428Y-87452380D01*
X104928571Y-87404761D01*
X104833333Y-87309523D01*
X104785714Y-87214285D01*
X104738095Y-87023809D01*
X104738095Y-86880952D01*
X104785714Y-86690476D01*
X104833333Y-86595238D01*
X104928571Y-86500000D01*
X105071428Y-86452380D01*
X105166666Y-86452380D01*
X105309523Y-86500000D01*
X105357142Y-86547619D01*
X106309523Y-87452380D02*
X105738095Y-87452380D01*
X106023809Y-87452380D02*
X106023809Y-86452380D01*
X105928571Y-86595238D01*
X105833333Y-86690476D01*
X105738095Y-86738095D01*
X106880952Y-86880952D02*
X106785714Y-86833333D01*
X106738095Y-86785714D01*
X106690476Y-86690476D01*
X106690476Y-86642857D01*
X106738095Y-86547619D01*
X106785714Y-86500000D01*
X106880952Y-86452380D01*
X107071428Y-86452380D01*
X107166666Y-86500000D01*
X107214285Y-86547619D01*
X107261904Y-86642857D01*
X107261904Y-86690476D01*
X107214285Y-86785714D01*
X107166666Y-86833333D01*
X107071428Y-86880952D01*
X106880952Y-86880952D01*
X106785714Y-86928571D01*
X106738095Y-86976190D01*
X106690476Y-87071428D01*
X106690476Y-87261904D01*
X106738095Y-87357142D01*
X106785714Y-87404761D01*
X106880952Y-87452380D01*
X107071428Y-87452380D01*
X107166666Y-87404761D01*
X107214285Y-87357142D01*
X107261904Y-87261904D01*
X107261904Y-87071428D01*
X107214285Y-86976190D01*
X107166666Y-86928571D01*
X107071428Y-86880952D01*
%TO.C,R60*%
X150457142Y-71152380D02*
X150123809Y-70676190D01*
X149885714Y-71152380D02*
X149885714Y-70152380D01*
X150266666Y-70152380D01*
X150361904Y-70200000D01*
X150409523Y-70247619D01*
X150457142Y-70342857D01*
X150457142Y-70485714D01*
X150409523Y-70580952D01*
X150361904Y-70628571D01*
X150266666Y-70676190D01*
X149885714Y-70676190D01*
X151314285Y-70152380D02*
X151123809Y-70152380D01*
X151028571Y-70200000D01*
X150980952Y-70247619D01*
X150885714Y-70390476D01*
X150838095Y-70580952D01*
X150838095Y-70961904D01*
X150885714Y-71057142D01*
X150933333Y-71104761D01*
X151028571Y-71152380D01*
X151219047Y-71152380D01*
X151314285Y-71104761D01*
X151361904Y-71057142D01*
X151409523Y-70961904D01*
X151409523Y-70723809D01*
X151361904Y-70628571D01*
X151314285Y-70580952D01*
X151219047Y-70533333D01*
X151028571Y-70533333D01*
X150933333Y-70580952D01*
X150885714Y-70628571D01*
X150838095Y-70723809D01*
X152028571Y-70152380D02*
X152123809Y-70152380D01*
X152219047Y-70200000D01*
X152266666Y-70247619D01*
X152314285Y-70342857D01*
X152361904Y-70533333D01*
X152361904Y-70771428D01*
X152314285Y-70961904D01*
X152266666Y-71057142D01*
X152219047Y-71104761D01*
X152123809Y-71152380D01*
X152028571Y-71152380D01*
X151933333Y-71104761D01*
X151885714Y-71057142D01*
X151838095Y-70961904D01*
X151790476Y-70771428D01*
X151790476Y-70533333D01*
X151838095Y-70342857D01*
X151885714Y-70247619D01*
X151933333Y-70200000D01*
X152028571Y-70152380D01*
%TO.C,R6*%
X125133333Y-75052380D02*
X124800000Y-74576190D01*
X124561904Y-75052380D02*
X124561904Y-74052380D01*
X124942857Y-74052380D01*
X125038095Y-74100000D01*
X125085714Y-74147619D01*
X125133333Y-74242857D01*
X125133333Y-74385714D01*
X125085714Y-74480952D01*
X125038095Y-74528571D01*
X124942857Y-74576190D01*
X124561904Y-74576190D01*
X125990476Y-74052380D02*
X125800000Y-74052380D01*
X125704761Y-74100000D01*
X125657142Y-74147619D01*
X125561904Y-74290476D01*
X125514285Y-74480952D01*
X125514285Y-74861904D01*
X125561904Y-74957142D01*
X125609523Y-75004761D01*
X125704761Y-75052380D01*
X125895238Y-75052380D01*
X125990476Y-75004761D01*
X126038095Y-74957142D01*
X126085714Y-74861904D01*
X126085714Y-74623809D01*
X126038095Y-74528571D01*
X125990476Y-74480952D01*
X125895238Y-74433333D01*
X125704761Y-74433333D01*
X125609523Y-74480952D01*
X125561904Y-74528571D01*
X125514285Y-74623809D01*
%TO.C,R59*%
X150357142Y-82152380D02*
X150023809Y-81676190D01*
X149785714Y-82152380D02*
X149785714Y-81152380D01*
X150166666Y-81152380D01*
X150261904Y-81200000D01*
X150309523Y-81247619D01*
X150357142Y-81342857D01*
X150357142Y-81485714D01*
X150309523Y-81580952D01*
X150261904Y-81628571D01*
X150166666Y-81676190D01*
X149785714Y-81676190D01*
X151261904Y-81152380D02*
X150785714Y-81152380D01*
X150738095Y-81628571D01*
X150785714Y-81580952D01*
X150880952Y-81533333D01*
X151119047Y-81533333D01*
X151214285Y-81580952D01*
X151261904Y-81628571D01*
X151309523Y-81723809D01*
X151309523Y-81961904D01*
X151261904Y-82057142D01*
X151214285Y-82104761D01*
X151119047Y-82152380D01*
X150880952Y-82152380D01*
X150785714Y-82104761D01*
X150738095Y-82057142D01*
X151785714Y-82152380D02*
X151976190Y-82152380D01*
X152071428Y-82104761D01*
X152119047Y-82057142D01*
X152214285Y-81914285D01*
X152261904Y-81723809D01*
X152261904Y-81342857D01*
X152214285Y-81247619D01*
X152166666Y-81200000D01*
X152071428Y-81152380D01*
X151880952Y-81152380D01*
X151785714Y-81200000D01*
X151738095Y-81247619D01*
X151690476Y-81342857D01*
X151690476Y-81580952D01*
X151738095Y-81676190D01*
X151785714Y-81723809D01*
X151880952Y-81771428D01*
X152071428Y-81771428D01*
X152166666Y-81723809D01*
X152214285Y-81676190D01*
X152261904Y-81580952D01*
%TO.C,C21*%
X119357142Y-104157142D02*
X119309523Y-104204761D01*
X119166666Y-104252380D01*
X119071428Y-104252380D01*
X118928571Y-104204761D01*
X118833333Y-104109523D01*
X118785714Y-104014285D01*
X118738095Y-103823809D01*
X118738095Y-103680952D01*
X118785714Y-103490476D01*
X118833333Y-103395238D01*
X118928571Y-103300000D01*
X119071428Y-103252380D01*
X119166666Y-103252380D01*
X119309523Y-103300000D01*
X119357142Y-103347619D01*
X119738095Y-103347619D02*
X119785714Y-103300000D01*
X119880952Y-103252380D01*
X120119047Y-103252380D01*
X120214285Y-103300000D01*
X120261904Y-103347619D01*
X120309523Y-103442857D01*
X120309523Y-103538095D01*
X120261904Y-103680952D01*
X119690476Y-104252380D01*
X120309523Y-104252380D01*
X121261904Y-104252380D02*
X120690476Y-104252380D01*
X120976190Y-104252380D02*
X120976190Y-103252380D01*
X120880952Y-103395238D01*
X120785714Y-103490476D01*
X120690476Y-103538095D01*
%TO.C,R51*%
X150357142Y-83852380D02*
X150023809Y-83376190D01*
X149785714Y-83852380D02*
X149785714Y-82852380D01*
X150166666Y-82852380D01*
X150261904Y-82900000D01*
X150309523Y-82947619D01*
X150357142Y-83042857D01*
X150357142Y-83185714D01*
X150309523Y-83280952D01*
X150261904Y-83328571D01*
X150166666Y-83376190D01*
X149785714Y-83376190D01*
X151261904Y-82852380D02*
X150785714Y-82852380D01*
X150738095Y-83328571D01*
X150785714Y-83280952D01*
X150880952Y-83233333D01*
X151119047Y-83233333D01*
X151214285Y-83280952D01*
X151261904Y-83328571D01*
X151309523Y-83423809D01*
X151309523Y-83661904D01*
X151261904Y-83757142D01*
X151214285Y-83804761D01*
X151119047Y-83852380D01*
X150880952Y-83852380D01*
X150785714Y-83804761D01*
X150738095Y-83757142D01*
X152261904Y-83852380D02*
X151690476Y-83852380D01*
X151976190Y-83852380D02*
X151976190Y-82852380D01*
X151880952Y-82995238D01*
X151785714Y-83090476D01*
X151690476Y-83138095D01*
%TO.C,R46*%
X150357142Y-74552380D02*
X150023809Y-74076190D01*
X149785714Y-74552380D02*
X149785714Y-73552380D01*
X150166666Y-73552380D01*
X150261904Y-73600000D01*
X150309523Y-73647619D01*
X150357142Y-73742857D01*
X150357142Y-73885714D01*
X150309523Y-73980952D01*
X150261904Y-74028571D01*
X150166666Y-74076190D01*
X149785714Y-74076190D01*
X151214285Y-73885714D02*
X151214285Y-74552380D01*
X150976190Y-73504761D02*
X150738095Y-74219047D01*
X151357142Y-74219047D01*
X152166666Y-73552380D02*
X151976190Y-73552380D01*
X151880952Y-73600000D01*
X151833333Y-73647619D01*
X151738095Y-73790476D01*
X151690476Y-73980952D01*
X151690476Y-74361904D01*
X151738095Y-74457142D01*
X151785714Y-74504761D01*
X151880952Y-74552380D01*
X152071428Y-74552380D01*
X152166666Y-74504761D01*
X152214285Y-74457142D01*
X152261904Y-74361904D01*
X152261904Y-74123809D01*
X152214285Y-74028571D01*
X152166666Y-73980952D01*
X152071428Y-73933333D01*
X151880952Y-73933333D01*
X151785714Y-73980952D01*
X151738095Y-74028571D01*
X151690476Y-74123809D01*
%TO.C,C24*%
X149337142Y-92342857D02*
X149384761Y-92390476D01*
X149432380Y-92533333D01*
X149432380Y-92628571D01*
X149384761Y-92771428D01*
X149289523Y-92866666D01*
X149194285Y-92914285D01*
X149003809Y-92961904D01*
X148860952Y-92961904D01*
X148670476Y-92914285D01*
X148575238Y-92866666D01*
X148480000Y-92771428D01*
X148432380Y-92628571D01*
X148432380Y-92533333D01*
X148480000Y-92390476D01*
X148527619Y-92342857D01*
X148527619Y-91961904D02*
X148480000Y-91914285D01*
X148432380Y-91819047D01*
X148432380Y-91580952D01*
X148480000Y-91485714D01*
X148527619Y-91438095D01*
X148622857Y-91390476D01*
X148718095Y-91390476D01*
X148860952Y-91438095D01*
X149432380Y-92009523D01*
X149432380Y-91390476D01*
X148765714Y-90533333D02*
X149432380Y-90533333D01*
X148384761Y-90771428D02*
X149099047Y-91009523D01*
X149099047Y-90390476D01*
%TO.C,R12*%
X123269642Y-129852380D02*
X122936309Y-129376190D01*
X122698214Y-129852380D02*
X122698214Y-128852380D01*
X123079166Y-128852380D01*
X123174404Y-128900000D01*
X123222023Y-128947619D01*
X123269642Y-129042857D01*
X123269642Y-129185714D01*
X123222023Y-129280952D01*
X123174404Y-129328571D01*
X123079166Y-129376190D01*
X122698214Y-129376190D01*
X124222023Y-129852380D02*
X123650595Y-129852380D01*
X123936309Y-129852380D02*
X123936309Y-128852380D01*
X123841071Y-128995238D01*
X123745833Y-129090476D01*
X123650595Y-129138095D01*
X124602976Y-128947619D02*
X124650595Y-128900000D01*
X124745833Y-128852380D01*
X124983928Y-128852380D01*
X125079166Y-128900000D01*
X125126785Y-128947619D01*
X125174404Y-129042857D01*
X125174404Y-129138095D01*
X125126785Y-129280952D01*
X124555357Y-129852380D01*
X125174404Y-129852380D01*
%TO.C,L1*%
X127333333Y-106052380D02*
X126857142Y-106052380D01*
X126857142Y-105052380D01*
X128190476Y-106052380D02*
X127619047Y-106052380D01*
X127904761Y-106052380D02*
X127904761Y-105052380D01*
X127809523Y-105195238D01*
X127714285Y-105290476D01*
X127619047Y-105338095D01*
%TO.C,R19*%
X108657142Y-110152380D02*
X108323809Y-109676190D01*
X108085714Y-110152380D02*
X108085714Y-109152380D01*
X108466666Y-109152380D01*
X108561904Y-109200000D01*
X108609523Y-109247619D01*
X108657142Y-109342857D01*
X108657142Y-109485714D01*
X108609523Y-109580952D01*
X108561904Y-109628571D01*
X108466666Y-109676190D01*
X108085714Y-109676190D01*
X109609523Y-110152380D02*
X109038095Y-110152380D01*
X109323809Y-110152380D02*
X109323809Y-109152380D01*
X109228571Y-109295238D01*
X109133333Y-109390476D01*
X109038095Y-109438095D01*
X110085714Y-110152380D02*
X110276190Y-110152380D01*
X110371428Y-110104761D01*
X110419047Y-110057142D01*
X110514285Y-109914285D01*
X110561904Y-109723809D01*
X110561904Y-109342857D01*
X110514285Y-109247619D01*
X110466666Y-109200000D01*
X110371428Y-109152380D01*
X110180952Y-109152380D01*
X110085714Y-109200000D01*
X110038095Y-109247619D01*
X109990476Y-109342857D01*
X109990476Y-109580952D01*
X110038095Y-109676190D01*
X110085714Y-109723809D01*
X110180952Y-109771428D01*
X110371428Y-109771428D01*
X110466666Y-109723809D01*
X110514285Y-109676190D01*
X110561904Y-109580952D01*
%TO.C,C20*%
X105357142Y-83957142D02*
X105309523Y-84004761D01*
X105166666Y-84052380D01*
X105071428Y-84052380D01*
X104928571Y-84004761D01*
X104833333Y-83909523D01*
X104785714Y-83814285D01*
X104738095Y-83623809D01*
X104738095Y-83480952D01*
X104785714Y-83290476D01*
X104833333Y-83195238D01*
X104928571Y-83100000D01*
X105071428Y-83052380D01*
X105166666Y-83052380D01*
X105309523Y-83100000D01*
X105357142Y-83147619D01*
X105738095Y-83147619D02*
X105785714Y-83100000D01*
X105880952Y-83052380D01*
X106119047Y-83052380D01*
X106214285Y-83100000D01*
X106261904Y-83147619D01*
X106309523Y-83242857D01*
X106309523Y-83338095D01*
X106261904Y-83480952D01*
X105690476Y-84052380D01*
X106309523Y-84052380D01*
X106928571Y-83052380D02*
X107023809Y-83052380D01*
X107119047Y-83100000D01*
X107166666Y-83147619D01*
X107214285Y-83242857D01*
X107261904Y-83433333D01*
X107261904Y-83671428D01*
X107214285Y-83861904D01*
X107166666Y-83957142D01*
X107119047Y-84004761D01*
X107023809Y-84052380D01*
X106928571Y-84052380D01*
X106833333Y-84004761D01*
X106785714Y-83957142D01*
X106738095Y-83861904D01*
X106690476Y-83671428D01*
X106690476Y-83433333D01*
X106738095Y-83242857D01*
X106785714Y-83147619D01*
X106833333Y-83100000D01*
X106928571Y-83052380D01*
%TO.C,C28*%
X105357142Y-94157142D02*
X105309523Y-94204761D01*
X105166666Y-94252380D01*
X105071428Y-94252380D01*
X104928571Y-94204761D01*
X104833333Y-94109523D01*
X104785714Y-94014285D01*
X104738095Y-93823809D01*
X104738095Y-93680952D01*
X104785714Y-93490476D01*
X104833333Y-93395238D01*
X104928571Y-93300000D01*
X105071428Y-93252380D01*
X105166666Y-93252380D01*
X105309523Y-93300000D01*
X105357142Y-93347619D01*
X105738095Y-93347619D02*
X105785714Y-93300000D01*
X105880952Y-93252380D01*
X106119047Y-93252380D01*
X106214285Y-93300000D01*
X106261904Y-93347619D01*
X106309523Y-93442857D01*
X106309523Y-93538095D01*
X106261904Y-93680952D01*
X105690476Y-94252380D01*
X106309523Y-94252380D01*
X106880952Y-93680952D02*
X106785714Y-93633333D01*
X106738095Y-93585714D01*
X106690476Y-93490476D01*
X106690476Y-93442857D01*
X106738095Y-93347619D01*
X106785714Y-93300000D01*
X106880952Y-93252380D01*
X107071428Y-93252380D01*
X107166666Y-93300000D01*
X107214285Y-93347619D01*
X107261904Y-93442857D01*
X107261904Y-93490476D01*
X107214285Y-93585714D01*
X107166666Y-93633333D01*
X107071428Y-93680952D01*
X106880952Y-93680952D01*
X106785714Y-93728571D01*
X106738095Y-93776190D01*
X106690476Y-93871428D01*
X106690476Y-94061904D01*
X106738095Y-94157142D01*
X106785714Y-94204761D01*
X106880952Y-94252380D01*
X107071428Y-94252380D01*
X107166666Y-94204761D01*
X107214285Y-94157142D01*
X107261904Y-94061904D01*
X107261904Y-93871428D01*
X107214285Y-93776190D01*
X107166666Y-93728571D01*
X107071428Y-93680952D01*
%TO.C,R21*%
X122057142Y-112252380D02*
X121723809Y-111776190D01*
X121485714Y-112252380D02*
X121485714Y-111252380D01*
X121866666Y-111252380D01*
X121961904Y-111300000D01*
X122009523Y-111347619D01*
X122057142Y-111442857D01*
X122057142Y-111585714D01*
X122009523Y-111680952D01*
X121961904Y-111728571D01*
X121866666Y-111776190D01*
X121485714Y-111776190D01*
X122438095Y-111347619D02*
X122485714Y-111300000D01*
X122580952Y-111252380D01*
X122819047Y-111252380D01*
X122914285Y-111300000D01*
X122961904Y-111347619D01*
X123009523Y-111442857D01*
X123009523Y-111538095D01*
X122961904Y-111680952D01*
X122390476Y-112252380D01*
X123009523Y-112252380D01*
X123961904Y-112252380D02*
X123390476Y-112252380D01*
X123676190Y-112252380D02*
X123676190Y-111252380D01*
X123580952Y-111395238D01*
X123485714Y-111490476D01*
X123390476Y-111538095D01*
%TO.C,R3*%
X106533333Y-81852380D02*
X106200000Y-81376190D01*
X105961904Y-81852380D02*
X105961904Y-80852380D01*
X106342857Y-80852380D01*
X106438095Y-80900000D01*
X106485714Y-80947619D01*
X106533333Y-81042857D01*
X106533333Y-81185714D01*
X106485714Y-81280952D01*
X106438095Y-81328571D01*
X106342857Y-81376190D01*
X105961904Y-81376190D01*
X106866666Y-80852380D02*
X107485714Y-80852380D01*
X107152380Y-81233333D01*
X107295238Y-81233333D01*
X107390476Y-81280952D01*
X107438095Y-81328571D01*
X107485714Y-81423809D01*
X107485714Y-81661904D01*
X107438095Y-81757142D01*
X107390476Y-81804761D01*
X107295238Y-81852380D01*
X107009523Y-81852380D01*
X106914285Y-81804761D01*
X106866666Y-81757142D01*
%TO.C,U6*%
X140838095Y-81852380D02*
X140838095Y-82661904D01*
X140885714Y-82757142D01*
X140933333Y-82804761D01*
X141028571Y-82852380D01*
X141219047Y-82852380D01*
X141314285Y-82804761D01*
X141361904Y-82757142D01*
X141409523Y-82661904D01*
X141409523Y-81852380D01*
X142314285Y-81852380D02*
X142123809Y-81852380D01*
X142028571Y-81900000D01*
X141980952Y-81947619D01*
X141885714Y-82090476D01*
X141838095Y-82280952D01*
X141838095Y-82661904D01*
X141885714Y-82757142D01*
X141933333Y-82804761D01*
X142028571Y-82852380D01*
X142219047Y-82852380D01*
X142314285Y-82804761D01*
X142361904Y-82757142D01*
X142409523Y-82661904D01*
X142409523Y-82423809D01*
X142361904Y-82328571D01*
X142314285Y-82280952D01*
X142219047Y-82233333D01*
X142028571Y-82233333D01*
X141933333Y-82280952D01*
X141885714Y-82328571D01*
X141838095Y-82423809D01*
%TO.C,C3*%
X119133333Y-66957142D02*
X119085714Y-67004761D01*
X118942857Y-67052380D01*
X118847619Y-67052380D01*
X118704761Y-67004761D01*
X118609523Y-66909523D01*
X118561904Y-66814285D01*
X118514285Y-66623809D01*
X118514285Y-66480952D01*
X118561904Y-66290476D01*
X118609523Y-66195238D01*
X118704761Y-66100000D01*
X118847619Y-66052380D01*
X118942857Y-66052380D01*
X119085714Y-66100000D01*
X119133333Y-66147619D01*
X119466666Y-66052380D02*
X120085714Y-66052380D01*
X119752380Y-66433333D01*
X119895238Y-66433333D01*
X119990476Y-66480952D01*
X120038095Y-66528571D01*
X120085714Y-66623809D01*
X120085714Y-66861904D01*
X120038095Y-66957142D01*
X119990476Y-67004761D01*
X119895238Y-67052380D01*
X119609523Y-67052380D01*
X119514285Y-67004761D01*
X119466666Y-66957142D01*
%TO.C,R29*%
X105357142Y-89152380D02*
X105023809Y-88676190D01*
X104785714Y-89152380D02*
X104785714Y-88152380D01*
X105166666Y-88152380D01*
X105261904Y-88200000D01*
X105309523Y-88247619D01*
X105357142Y-88342857D01*
X105357142Y-88485714D01*
X105309523Y-88580952D01*
X105261904Y-88628571D01*
X105166666Y-88676190D01*
X104785714Y-88676190D01*
X105738095Y-88247619D02*
X105785714Y-88200000D01*
X105880952Y-88152380D01*
X106119047Y-88152380D01*
X106214285Y-88200000D01*
X106261904Y-88247619D01*
X106309523Y-88342857D01*
X106309523Y-88438095D01*
X106261904Y-88580952D01*
X105690476Y-89152380D01*
X106309523Y-89152380D01*
X106785714Y-89152380D02*
X106976190Y-89152380D01*
X107071428Y-89104761D01*
X107119047Y-89057142D01*
X107214285Y-88914285D01*
X107261904Y-88723809D01*
X107261904Y-88342857D01*
X107214285Y-88247619D01*
X107166666Y-88200000D01*
X107071428Y-88152380D01*
X106880952Y-88152380D01*
X106785714Y-88200000D01*
X106738095Y-88247619D01*
X106690476Y-88342857D01*
X106690476Y-88580952D01*
X106738095Y-88676190D01*
X106785714Y-88723809D01*
X106880952Y-88771428D01*
X107071428Y-88771428D01*
X107166666Y-88723809D01*
X107214285Y-88676190D01*
X107261904Y-88580952D01*
%TO.C,U2*%
X113380952Y-100766666D02*
X113857142Y-100766666D01*
X113285714Y-101052380D02*
X113619047Y-100052380D01*
X113952380Y-101052380D01*
X114238095Y-101004761D02*
X114380952Y-101052380D01*
X114619047Y-101052380D01*
X114714285Y-101004761D01*
X114761904Y-100957142D01*
X114809523Y-100861904D01*
X114809523Y-100766666D01*
X114761904Y-100671428D01*
X114714285Y-100623809D01*
X114619047Y-100576190D01*
X114428571Y-100528571D01*
X114333333Y-100480952D01*
X114285714Y-100433333D01*
X114238095Y-100338095D01*
X114238095Y-100242857D01*
X114285714Y-100147619D01*
X114333333Y-100100000D01*
X114428571Y-100052380D01*
X114666666Y-100052380D01*
X114809523Y-100100000D01*
X115142857Y-100052380D02*
X115761904Y-100052380D01*
X115428571Y-100433333D01*
X115571428Y-100433333D01*
X115666666Y-100480952D01*
X115714285Y-100528571D01*
X115761904Y-100623809D01*
X115761904Y-100861904D01*
X115714285Y-100957142D01*
X115666666Y-101004761D01*
X115571428Y-101052380D01*
X115285714Y-101052380D01*
X115190476Y-101004761D01*
X115142857Y-100957142D01*
X116095238Y-100052380D02*
X116714285Y-100052380D01*
X116380952Y-100433333D01*
X116523809Y-100433333D01*
X116619047Y-100480952D01*
X116666666Y-100528571D01*
X116714285Y-100623809D01*
X116714285Y-100861904D01*
X116666666Y-100957142D01*
X116619047Y-101004761D01*
X116523809Y-101052380D01*
X116238095Y-101052380D01*
X116142857Y-101004761D01*
X116095238Y-100957142D01*
X117571428Y-100052380D02*
X117380952Y-100052380D01*
X117285714Y-100100000D01*
X117238095Y-100147619D01*
X117142857Y-100290476D01*
X117095238Y-100480952D01*
X117095238Y-100861904D01*
X117142857Y-100957142D01*
X117190476Y-101004761D01*
X117285714Y-101052380D01*
X117476190Y-101052380D01*
X117571428Y-101004761D01*
X117619047Y-100957142D01*
X117666666Y-100861904D01*
X117666666Y-100623809D01*
X117619047Y-100528571D01*
X117571428Y-100480952D01*
X117476190Y-100433333D01*
X117285714Y-100433333D01*
X117190476Y-100480952D01*
X117142857Y-100528571D01*
X117095238Y-100623809D01*
X118523809Y-100385714D02*
X118523809Y-101052380D01*
X118285714Y-100004761D02*
X118047619Y-100719047D01*
X118666666Y-100719047D01*
%TO.C,R43*%
X131457142Y-74552380D02*
X131123809Y-74076190D01*
X130885714Y-74552380D02*
X130885714Y-73552380D01*
X131266666Y-73552380D01*
X131361904Y-73600000D01*
X131409523Y-73647619D01*
X131457142Y-73742857D01*
X131457142Y-73885714D01*
X131409523Y-73980952D01*
X131361904Y-74028571D01*
X131266666Y-74076190D01*
X130885714Y-74076190D01*
X132314285Y-73885714D02*
X132314285Y-74552380D01*
X132076190Y-73504761D02*
X131838095Y-74219047D01*
X132457142Y-74219047D01*
X132742857Y-73552380D02*
X133361904Y-73552380D01*
X133028571Y-73933333D01*
X133171428Y-73933333D01*
X133266666Y-73980952D01*
X133314285Y-74028571D01*
X133361904Y-74123809D01*
X133361904Y-74361904D01*
X133314285Y-74457142D01*
X133266666Y-74504761D01*
X133171428Y-74552380D01*
X132885714Y-74552380D01*
X132790476Y-74504761D01*
X132742857Y-74457142D01*
%TO.C,R32*%
X125357142Y-90852380D02*
X125023809Y-90376190D01*
X124785714Y-90852380D02*
X124785714Y-89852380D01*
X125166666Y-89852380D01*
X125261904Y-89900000D01*
X125309523Y-89947619D01*
X125357142Y-90042857D01*
X125357142Y-90185714D01*
X125309523Y-90280952D01*
X125261904Y-90328571D01*
X125166666Y-90376190D01*
X124785714Y-90376190D01*
X125690476Y-89852380D02*
X126309523Y-89852380D01*
X125976190Y-90233333D01*
X126119047Y-90233333D01*
X126214285Y-90280952D01*
X126261904Y-90328571D01*
X126309523Y-90423809D01*
X126309523Y-90661904D01*
X126261904Y-90757142D01*
X126214285Y-90804761D01*
X126119047Y-90852380D01*
X125833333Y-90852380D01*
X125738095Y-90804761D01*
X125690476Y-90757142D01*
X126690476Y-89947619D02*
X126738095Y-89900000D01*
X126833333Y-89852380D01*
X127071428Y-89852380D01*
X127166666Y-89900000D01*
X127214285Y-89947619D01*
X127261904Y-90042857D01*
X127261904Y-90138095D01*
X127214285Y-90280952D01*
X126642857Y-90852380D01*
X127261904Y-90852380D01*
%TO.C,R26*%
X122057142Y-105652380D02*
X121723809Y-105176190D01*
X121485714Y-105652380D02*
X121485714Y-104652380D01*
X121866666Y-104652380D01*
X121961904Y-104700000D01*
X122009523Y-104747619D01*
X122057142Y-104842857D01*
X122057142Y-104985714D01*
X122009523Y-105080952D01*
X121961904Y-105128571D01*
X121866666Y-105176190D01*
X121485714Y-105176190D01*
X122438095Y-104747619D02*
X122485714Y-104700000D01*
X122580952Y-104652380D01*
X122819047Y-104652380D01*
X122914285Y-104700000D01*
X122961904Y-104747619D01*
X123009523Y-104842857D01*
X123009523Y-104938095D01*
X122961904Y-105080952D01*
X122390476Y-105652380D01*
X123009523Y-105652380D01*
X123866666Y-104652380D02*
X123676190Y-104652380D01*
X123580952Y-104700000D01*
X123533333Y-104747619D01*
X123438095Y-104890476D01*
X123390476Y-105080952D01*
X123390476Y-105461904D01*
X123438095Y-105557142D01*
X123485714Y-105604761D01*
X123580952Y-105652380D01*
X123771428Y-105652380D01*
X123866666Y-105604761D01*
X123914285Y-105557142D01*
X123961904Y-105461904D01*
X123961904Y-105223809D01*
X123914285Y-105128571D01*
X123866666Y-105080952D01*
X123771428Y-105033333D01*
X123580952Y-105033333D01*
X123485714Y-105080952D01*
X123438095Y-105128571D01*
X123390476Y-105223809D01*
%TO.C,R45*%
X150357142Y-80452380D02*
X150023809Y-79976190D01*
X149785714Y-80452380D02*
X149785714Y-79452380D01*
X150166666Y-79452380D01*
X150261904Y-79500000D01*
X150309523Y-79547619D01*
X150357142Y-79642857D01*
X150357142Y-79785714D01*
X150309523Y-79880952D01*
X150261904Y-79928571D01*
X150166666Y-79976190D01*
X149785714Y-79976190D01*
X151214285Y-79785714D02*
X151214285Y-80452380D01*
X150976190Y-79404761D02*
X150738095Y-80119047D01*
X151357142Y-80119047D01*
X152214285Y-79452380D02*
X151738095Y-79452380D01*
X151690476Y-79928571D01*
X151738095Y-79880952D01*
X151833333Y-79833333D01*
X152071428Y-79833333D01*
X152166666Y-79880952D01*
X152214285Y-79928571D01*
X152261904Y-80023809D01*
X152261904Y-80261904D01*
X152214285Y-80357142D01*
X152166666Y-80404761D01*
X152071428Y-80452380D01*
X151833333Y-80452380D01*
X151738095Y-80404761D01*
X151690476Y-80357142D01*
%TO.C,R34*%
X105357142Y-90852380D02*
X105023809Y-90376190D01*
X104785714Y-90852380D02*
X104785714Y-89852380D01*
X105166666Y-89852380D01*
X105261904Y-89900000D01*
X105309523Y-89947619D01*
X105357142Y-90042857D01*
X105357142Y-90185714D01*
X105309523Y-90280952D01*
X105261904Y-90328571D01*
X105166666Y-90376190D01*
X104785714Y-90376190D01*
X105690476Y-89852380D02*
X106309523Y-89852380D01*
X105976190Y-90233333D01*
X106119047Y-90233333D01*
X106214285Y-90280952D01*
X106261904Y-90328571D01*
X106309523Y-90423809D01*
X106309523Y-90661904D01*
X106261904Y-90757142D01*
X106214285Y-90804761D01*
X106119047Y-90852380D01*
X105833333Y-90852380D01*
X105738095Y-90804761D01*
X105690476Y-90757142D01*
X107166666Y-90185714D02*
X107166666Y-90852380D01*
X106928571Y-89804761D02*
X106690476Y-90519047D01*
X107309523Y-90519047D01*
%TO.C,R20*%
X108657142Y-112252380D02*
X108323809Y-111776190D01*
X108085714Y-112252380D02*
X108085714Y-111252380D01*
X108466666Y-111252380D01*
X108561904Y-111300000D01*
X108609523Y-111347619D01*
X108657142Y-111442857D01*
X108657142Y-111585714D01*
X108609523Y-111680952D01*
X108561904Y-111728571D01*
X108466666Y-111776190D01*
X108085714Y-111776190D01*
X109038095Y-111347619D02*
X109085714Y-111300000D01*
X109180952Y-111252380D01*
X109419047Y-111252380D01*
X109514285Y-111300000D01*
X109561904Y-111347619D01*
X109609523Y-111442857D01*
X109609523Y-111538095D01*
X109561904Y-111680952D01*
X108990476Y-112252380D01*
X109609523Y-112252380D01*
X110228571Y-111252380D02*
X110323809Y-111252380D01*
X110419047Y-111300000D01*
X110466666Y-111347619D01*
X110514285Y-111442857D01*
X110561904Y-111633333D01*
X110561904Y-111871428D01*
X110514285Y-112061904D01*
X110466666Y-112157142D01*
X110419047Y-112204761D01*
X110323809Y-112252380D01*
X110228571Y-112252380D01*
X110133333Y-112204761D01*
X110085714Y-112157142D01*
X110038095Y-112061904D01*
X109990476Y-111871428D01*
X109990476Y-111633333D01*
X110038095Y-111442857D01*
X110085714Y-111347619D01*
X110133333Y-111300000D01*
X110228571Y-111252380D01*
%TO.C,C2*%
X113833333Y-67057142D02*
X113785714Y-67104761D01*
X113642857Y-67152380D01*
X113547619Y-67152380D01*
X113404761Y-67104761D01*
X113309523Y-67009523D01*
X113261904Y-66914285D01*
X113214285Y-66723809D01*
X113214285Y-66580952D01*
X113261904Y-66390476D01*
X113309523Y-66295238D01*
X113404761Y-66200000D01*
X113547619Y-66152380D01*
X113642857Y-66152380D01*
X113785714Y-66200000D01*
X113833333Y-66247619D01*
X114214285Y-66247619D02*
X114261904Y-66200000D01*
X114357142Y-66152380D01*
X114595238Y-66152380D01*
X114690476Y-66200000D01*
X114738095Y-66247619D01*
X114785714Y-66342857D01*
X114785714Y-66438095D01*
X114738095Y-66580952D01*
X114166666Y-67152380D01*
X114785714Y-67152380D01*
%TO.C,R1*%
X109133333Y-71952380D02*
X108800000Y-71476190D01*
X108561904Y-71952380D02*
X108561904Y-70952380D01*
X108942857Y-70952380D01*
X109038095Y-71000000D01*
X109085714Y-71047619D01*
X109133333Y-71142857D01*
X109133333Y-71285714D01*
X109085714Y-71380952D01*
X109038095Y-71428571D01*
X108942857Y-71476190D01*
X108561904Y-71476190D01*
X110085714Y-71952380D02*
X109514285Y-71952380D01*
X109800000Y-71952380D02*
X109800000Y-70952380D01*
X109704761Y-71095238D01*
X109609523Y-71190476D01*
X109514285Y-71238095D01*
%TO.C,R39*%
X133557142Y-92552380D02*
X133223809Y-92076190D01*
X132985714Y-92552380D02*
X132985714Y-91552380D01*
X133366666Y-91552380D01*
X133461904Y-91600000D01*
X133509523Y-91647619D01*
X133557142Y-91742857D01*
X133557142Y-91885714D01*
X133509523Y-91980952D01*
X133461904Y-92028571D01*
X133366666Y-92076190D01*
X132985714Y-92076190D01*
X133890476Y-91552380D02*
X134509523Y-91552380D01*
X134176190Y-91933333D01*
X134319047Y-91933333D01*
X134414285Y-91980952D01*
X134461904Y-92028571D01*
X134509523Y-92123809D01*
X134509523Y-92361904D01*
X134461904Y-92457142D01*
X134414285Y-92504761D01*
X134319047Y-92552380D01*
X134033333Y-92552380D01*
X133938095Y-92504761D01*
X133890476Y-92457142D01*
X134985714Y-92552380D02*
X135176190Y-92552380D01*
X135271428Y-92504761D01*
X135319047Y-92457142D01*
X135414285Y-92314285D01*
X135461904Y-92123809D01*
X135461904Y-91742857D01*
X135414285Y-91647619D01*
X135366666Y-91600000D01*
X135271428Y-91552380D01*
X135080952Y-91552380D01*
X134985714Y-91600000D01*
X134938095Y-91647619D01*
X134890476Y-91742857D01*
X134890476Y-91980952D01*
X134938095Y-92076190D01*
X134985714Y-92123809D01*
X135080952Y-92171428D01*
X135271428Y-92171428D01*
X135366666Y-92123809D01*
X135414285Y-92076190D01*
X135461904Y-91980952D01*
%TO.C,R52*%
X150357142Y-72852380D02*
X150023809Y-72376190D01*
X149785714Y-72852380D02*
X149785714Y-71852380D01*
X150166666Y-71852380D01*
X150261904Y-71900000D01*
X150309523Y-71947619D01*
X150357142Y-72042857D01*
X150357142Y-72185714D01*
X150309523Y-72280952D01*
X150261904Y-72328571D01*
X150166666Y-72376190D01*
X149785714Y-72376190D01*
X151261904Y-71852380D02*
X150785714Y-71852380D01*
X150738095Y-72328571D01*
X150785714Y-72280952D01*
X150880952Y-72233333D01*
X151119047Y-72233333D01*
X151214285Y-72280952D01*
X151261904Y-72328571D01*
X151309523Y-72423809D01*
X151309523Y-72661904D01*
X151261904Y-72757142D01*
X151214285Y-72804761D01*
X151119047Y-72852380D01*
X150880952Y-72852380D01*
X150785714Y-72804761D01*
X150738095Y-72757142D01*
X151690476Y-71947619D02*
X151738095Y-71900000D01*
X151833333Y-71852380D01*
X152071428Y-71852380D01*
X152166666Y-71900000D01*
X152214285Y-71947619D01*
X152261904Y-72042857D01*
X152261904Y-72138095D01*
X152214285Y-72280952D01*
X151642857Y-72852380D01*
X152261904Y-72852380D01*
%TO.C,C23*%
X133557142Y-96457142D02*
X133509523Y-96504761D01*
X133366666Y-96552380D01*
X133271428Y-96552380D01*
X133128571Y-96504761D01*
X133033333Y-96409523D01*
X132985714Y-96314285D01*
X132938095Y-96123809D01*
X132938095Y-95980952D01*
X132985714Y-95790476D01*
X133033333Y-95695238D01*
X133128571Y-95600000D01*
X133271428Y-95552380D01*
X133366666Y-95552380D01*
X133509523Y-95600000D01*
X133557142Y-95647619D01*
X133938095Y-95647619D02*
X133985714Y-95600000D01*
X134080952Y-95552380D01*
X134319047Y-95552380D01*
X134414285Y-95600000D01*
X134461904Y-95647619D01*
X134509523Y-95742857D01*
X134509523Y-95838095D01*
X134461904Y-95980952D01*
X133890476Y-96552380D01*
X134509523Y-96552380D01*
X134842857Y-95552380D02*
X135461904Y-95552380D01*
X135128571Y-95933333D01*
X135271428Y-95933333D01*
X135366666Y-95980952D01*
X135414285Y-96028571D01*
X135461904Y-96123809D01*
X135461904Y-96361904D01*
X135414285Y-96457142D01*
X135366666Y-96504761D01*
X135271428Y-96552380D01*
X134985714Y-96552380D01*
X134890476Y-96504761D01*
X134842857Y-96457142D01*
%TO.C,R24*%
X108657142Y-116752380D02*
X108323809Y-116276190D01*
X108085714Y-116752380D02*
X108085714Y-115752380D01*
X108466666Y-115752380D01*
X108561904Y-115800000D01*
X108609523Y-115847619D01*
X108657142Y-115942857D01*
X108657142Y-116085714D01*
X108609523Y-116180952D01*
X108561904Y-116228571D01*
X108466666Y-116276190D01*
X108085714Y-116276190D01*
X109038095Y-115847619D02*
X109085714Y-115800000D01*
X109180952Y-115752380D01*
X109419047Y-115752380D01*
X109514285Y-115800000D01*
X109561904Y-115847619D01*
X109609523Y-115942857D01*
X109609523Y-116038095D01*
X109561904Y-116180952D01*
X108990476Y-116752380D01*
X109609523Y-116752380D01*
X110466666Y-116085714D02*
X110466666Y-116752380D01*
X110228571Y-115704761D02*
X109990476Y-116419047D01*
X110609523Y-116419047D01*
%TO.C,C11*%
X142307142Y-112557142D02*
X142259523Y-112604761D01*
X142116666Y-112652380D01*
X142021428Y-112652380D01*
X141878571Y-112604761D01*
X141783333Y-112509523D01*
X141735714Y-112414285D01*
X141688095Y-112223809D01*
X141688095Y-112080952D01*
X141735714Y-111890476D01*
X141783333Y-111795238D01*
X141878571Y-111700000D01*
X142021428Y-111652380D01*
X142116666Y-111652380D01*
X142259523Y-111700000D01*
X142307142Y-111747619D01*
X143259523Y-112652380D02*
X142688095Y-112652380D01*
X142973809Y-112652380D02*
X142973809Y-111652380D01*
X142878571Y-111795238D01*
X142783333Y-111890476D01*
X142688095Y-111938095D01*
X144211904Y-112652380D02*
X143640476Y-112652380D01*
X143926190Y-112652380D02*
X143926190Y-111652380D01*
X143830952Y-111795238D01*
X143735714Y-111890476D01*
X143640476Y-111938095D01*
%TO.C,J5*%
X120438095Y-50871428D02*
X121200000Y-50871428D01*
X122200000Y-51252380D02*
X121628571Y-51252380D01*
X121914285Y-51252380D02*
X121914285Y-50252380D01*
X121819047Y-50395238D01*
X121723809Y-50490476D01*
X121628571Y-50538095D01*
X122580952Y-50347619D02*
X122628571Y-50300000D01*
X122723809Y-50252380D01*
X122961904Y-50252380D01*
X123057142Y-50300000D01*
X123104761Y-50347619D01*
X123152380Y-50442857D01*
X123152380Y-50538095D01*
X123104761Y-50680952D01*
X122533333Y-51252380D01*
X123152380Y-51252380D01*
X123438095Y-50252380D02*
X123771428Y-51252380D01*
X124104761Y-50252380D01*
%TO.C,R44*%
X131457142Y-80452380D02*
X131123809Y-79976190D01*
X130885714Y-80452380D02*
X130885714Y-79452380D01*
X131266666Y-79452380D01*
X131361904Y-79500000D01*
X131409523Y-79547619D01*
X131457142Y-79642857D01*
X131457142Y-79785714D01*
X131409523Y-79880952D01*
X131361904Y-79928571D01*
X131266666Y-79976190D01*
X130885714Y-79976190D01*
X132314285Y-79785714D02*
X132314285Y-80452380D01*
X132076190Y-79404761D02*
X131838095Y-80119047D01*
X132457142Y-80119047D01*
X133266666Y-79785714D02*
X133266666Y-80452380D01*
X133028571Y-79404761D02*
X132790476Y-80119047D01*
X133409523Y-80119047D01*
%TO.C,R41*%
X133557142Y-89152380D02*
X133223809Y-88676190D01*
X132985714Y-89152380D02*
X132985714Y-88152380D01*
X133366666Y-88152380D01*
X133461904Y-88200000D01*
X133509523Y-88247619D01*
X133557142Y-88342857D01*
X133557142Y-88485714D01*
X133509523Y-88580952D01*
X133461904Y-88628571D01*
X133366666Y-88676190D01*
X132985714Y-88676190D01*
X134414285Y-88485714D02*
X134414285Y-89152380D01*
X134176190Y-88104761D02*
X133938095Y-88819047D01*
X134557142Y-88819047D01*
X135461904Y-89152380D02*
X134890476Y-89152380D01*
X135176190Y-89152380D02*
X135176190Y-88152380D01*
X135080952Y-88295238D01*
X134985714Y-88390476D01*
X134890476Y-88438095D01*
%TO.C,R36*%
X131457142Y-76252380D02*
X131123809Y-75776190D01*
X130885714Y-76252380D02*
X130885714Y-75252380D01*
X131266666Y-75252380D01*
X131361904Y-75300000D01*
X131409523Y-75347619D01*
X131457142Y-75442857D01*
X131457142Y-75585714D01*
X131409523Y-75680952D01*
X131361904Y-75728571D01*
X131266666Y-75776190D01*
X130885714Y-75776190D01*
X131790476Y-75252380D02*
X132409523Y-75252380D01*
X132076190Y-75633333D01*
X132219047Y-75633333D01*
X132314285Y-75680952D01*
X132361904Y-75728571D01*
X132409523Y-75823809D01*
X132409523Y-76061904D01*
X132361904Y-76157142D01*
X132314285Y-76204761D01*
X132219047Y-76252380D01*
X131933333Y-76252380D01*
X131838095Y-76204761D01*
X131790476Y-76157142D01*
X133266666Y-75252380D02*
X133076190Y-75252380D01*
X132980952Y-75300000D01*
X132933333Y-75347619D01*
X132838095Y-75490476D01*
X132790476Y-75680952D01*
X132790476Y-76061904D01*
X132838095Y-76157142D01*
X132885714Y-76204761D01*
X132980952Y-76252380D01*
X133171428Y-76252380D01*
X133266666Y-76204761D01*
X133314285Y-76157142D01*
X133361904Y-76061904D01*
X133361904Y-75823809D01*
X133314285Y-75728571D01*
X133266666Y-75680952D01*
X133171428Y-75633333D01*
X132980952Y-75633333D01*
X132885714Y-75680952D01*
X132838095Y-75728571D01*
X132790476Y-75823809D01*
%TO.C,R31*%
X105357142Y-85752380D02*
X105023809Y-85276190D01*
X104785714Y-85752380D02*
X104785714Y-84752380D01*
X105166666Y-84752380D01*
X105261904Y-84800000D01*
X105309523Y-84847619D01*
X105357142Y-84942857D01*
X105357142Y-85085714D01*
X105309523Y-85180952D01*
X105261904Y-85228571D01*
X105166666Y-85276190D01*
X104785714Y-85276190D01*
X105690476Y-84752380D02*
X106309523Y-84752380D01*
X105976190Y-85133333D01*
X106119047Y-85133333D01*
X106214285Y-85180952D01*
X106261904Y-85228571D01*
X106309523Y-85323809D01*
X106309523Y-85561904D01*
X106261904Y-85657142D01*
X106214285Y-85704761D01*
X106119047Y-85752380D01*
X105833333Y-85752380D01*
X105738095Y-85704761D01*
X105690476Y-85657142D01*
X107261904Y-85752380D02*
X106690476Y-85752380D01*
X106976190Y-85752380D02*
X106976190Y-84752380D01*
X106880952Y-84895238D01*
X106785714Y-84990476D01*
X106690476Y-85038095D01*
%TO.C,R14*%
X105357142Y-101052380D02*
X105023809Y-100576190D01*
X104785714Y-101052380D02*
X104785714Y-100052380D01*
X105166666Y-100052380D01*
X105261904Y-100100000D01*
X105309523Y-100147619D01*
X105357142Y-100242857D01*
X105357142Y-100385714D01*
X105309523Y-100480952D01*
X105261904Y-100528571D01*
X105166666Y-100576190D01*
X104785714Y-100576190D01*
X106309523Y-101052380D02*
X105738095Y-101052380D01*
X106023809Y-101052380D02*
X106023809Y-100052380D01*
X105928571Y-100195238D01*
X105833333Y-100290476D01*
X105738095Y-100338095D01*
X107166666Y-100385714D02*
X107166666Y-101052380D01*
X106928571Y-100004761D02*
X106690476Y-100719047D01*
X107309523Y-100719047D01*
%TO.C,R48*%
X133007142Y-129864880D02*
X132673809Y-129388690D01*
X132435714Y-129864880D02*
X132435714Y-128864880D01*
X132816666Y-128864880D01*
X132911904Y-128912500D01*
X132959523Y-128960119D01*
X133007142Y-129055357D01*
X133007142Y-129198214D01*
X132959523Y-129293452D01*
X132911904Y-129341071D01*
X132816666Y-129388690D01*
X132435714Y-129388690D01*
X133864285Y-129198214D02*
X133864285Y-129864880D01*
X133626190Y-128817261D02*
X133388095Y-129531547D01*
X134007142Y-129531547D01*
X134530952Y-129293452D02*
X134435714Y-129245833D01*
X134388095Y-129198214D01*
X134340476Y-129102976D01*
X134340476Y-129055357D01*
X134388095Y-128960119D01*
X134435714Y-128912500D01*
X134530952Y-128864880D01*
X134721428Y-128864880D01*
X134816666Y-128912500D01*
X134864285Y-128960119D01*
X134911904Y-129055357D01*
X134911904Y-129102976D01*
X134864285Y-129198214D01*
X134816666Y-129245833D01*
X134721428Y-129293452D01*
X134530952Y-129293452D01*
X134435714Y-129341071D01*
X134388095Y-129388690D01*
X134340476Y-129483928D01*
X134340476Y-129674404D01*
X134388095Y-129769642D01*
X134435714Y-129817261D01*
X134530952Y-129864880D01*
X134721428Y-129864880D01*
X134816666Y-129817261D01*
X134864285Y-129769642D01*
X134911904Y-129674404D01*
X134911904Y-129483928D01*
X134864285Y-129388690D01*
X134816666Y-129341071D01*
X134721428Y-129293452D01*
%TO.C,R16*%
X118369642Y-121522380D02*
X118036309Y-121046190D01*
X117798214Y-121522380D02*
X117798214Y-120522380D01*
X118179166Y-120522380D01*
X118274404Y-120570000D01*
X118322023Y-120617619D01*
X118369642Y-120712857D01*
X118369642Y-120855714D01*
X118322023Y-120950952D01*
X118274404Y-120998571D01*
X118179166Y-121046190D01*
X117798214Y-121046190D01*
X119322023Y-121522380D02*
X118750595Y-121522380D01*
X119036309Y-121522380D02*
X119036309Y-120522380D01*
X118941071Y-120665238D01*
X118845833Y-120760476D01*
X118750595Y-120808095D01*
X120179166Y-120522380D02*
X119988690Y-120522380D01*
X119893452Y-120570000D01*
X119845833Y-120617619D01*
X119750595Y-120760476D01*
X119702976Y-120950952D01*
X119702976Y-121331904D01*
X119750595Y-121427142D01*
X119798214Y-121474761D01*
X119893452Y-121522380D01*
X120083928Y-121522380D01*
X120179166Y-121474761D01*
X120226785Y-121427142D01*
X120274404Y-121331904D01*
X120274404Y-121093809D01*
X120226785Y-120998571D01*
X120179166Y-120950952D01*
X120083928Y-120903333D01*
X119893452Y-120903333D01*
X119798214Y-120950952D01*
X119750595Y-120998571D01*
X119702976Y-121093809D01*
%TO.C,R55*%
X105357142Y-97652380D02*
X105023809Y-97176190D01*
X104785714Y-97652380D02*
X104785714Y-96652380D01*
X105166666Y-96652380D01*
X105261904Y-96700000D01*
X105309523Y-96747619D01*
X105357142Y-96842857D01*
X105357142Y-96985714D01*
X105309523Y-97080952D01*
X105261904Y-97128571D01*
X105166666Y-97176190D01*
X104785714Y-97176190D01*
X106261904Y-96652380D02*
X105785714Y-96652380D01*
X105738095Y-97128571D01*
X105785714Y-97080952D01*
X105880952Y-97033333D01*
X106119047Y-97033333D01*
X106214285Y-97080952D01*
X106261904Y-97128571D01*
X106309523Y-97223809D01*
X106309523Y-97461904D01*
X106261904Y-97557142D01*
X106214285Y-97604761D01*
X106119047Y-97652380D01*
X105880952Y-97652380D01*
X105785714Y-97604761D01*
X105738095Y-97557142D01*
X107214285Y-96652380D02*
X106738095Y-96652380D01*
X106690476Y-97128571D01*
X106738095Y-97080952D01*
X106833333Y-97033333D01*
X107071428Y-97033333D01*
X107166666Y-97080952D01*
X107214285Y-97128571D01*
X107261904Y-97223809D01*
X107261904Y-97461904D01*
X107214285Y-97557142D01*
X107166666Y-97604761D01*
X107071428Y-97652380D01*
X106833333Y-97652380D01*
X106738095Y-97604761D01*
X106690476Y-97557142D01*
%TO.C,C1*%
X108433333Y-67057142D02*
X108385714Y-67104761D01*
X108242857Y-67152380D01*
X108147619Y-67152380D01*
X108004761Y-67104761D01*
X107909523Y-67009523D01*
X107861904Y-66914285D01*
X107814285Y-66723809D01*
X107814285Y-66580952D01*
X107861904Y-66390476D01*
X107909523Y-66295238D01*
X108004761Y-66200000D01*
X108147619Y-66152380D01*
X108242857Y-66152380D01*
X108385714Y-66200000D01*
X108433333Y-66247619D01*
X109385714Y-67152380D02*
X108814285Y-67152380D01*
X109100000Y-67152380D02*
X109100000Y-66152380D01*
X109004761Y-66295238D01*
X108909523Y-66390476D01*
X108814285Y-66438095D01*
%TO.C,R35*%
X133557142Y-94252380D02*
X133223809Y-93776190D01*
X132985714Y-94252380D02*
X132985714Y-93252380D01*
X133366666Y-93252380D01*
X133461904Y-93300000D01*
X133509523Y-93347619D01*
X133557142Y-93442857D01*
X133557142Y-93585714D01*
X133509523Y-93680952D01*
X133461904Y-93728571D01*
X133366666Y-93776190D01*
X132985714Y-93776190D01*
X133890476Y-93252380D02*
X134509523Y-93252380D01*
X134176190Y-93633333D01*
X134319047Y-93633333D01*
X134414285Y-93680952D01*
X134461904Y-93728571D01*
X134509523Y-93823809D01*
X134509523Y-94061904D01*
X134461904Y-94157142D01*
X134414285Y-94204761D01*
X134319047Y-94252380D01*
X134033333Y-94252380D01*
X133938095Y-94204761D01*
X133890476Y-94157142D01*
X135414285Y-93252380D02*
X134938095Y-93252380D01*
X134890476Y-93728571D01*
X134938095Y-93680952D01*
X135033333Y-93633333D01*
X135271428Y-93633333D01*
X135366666Y-93680952D01*
X135414285Y-93728571D01*
X135461904Y-93823809D01*
X135461904Y-94061904D01*
X135414285Y-94157142D01*
X135366666Y-94204761D01*
X135271428Y-94252380D01*
X135033333Y-94252380D01*
X134938095Y-94204761D01*
X134890476Y-94157142D01*
%TO.C,R28*%
X125357142Y-101052380D02*
X125023809Y-100576190D01*
X124785714Y-101052380D02*
X124785714Y-100052380D01*
X125166666Y-100052380D01*
X125261904Y-100100000D01*
X125309523Y-100147619D01*
X125357142Y-100242857D01*
X125357142Y-100385714D01*
X125309523Y-100480952D01*
X125261904Y-100528571D01*
X125166666Y-100576190D01*
X124785714Y-100576190D01*
X125738095Y-100147619D02*
X125785714Y-100100000D01*
X125880952Y-100052380D01*
X126119047Y-100052380D01*
X126214285Y-100100000D01*
X126261904Y-100147619D01*
X126309523Y-100242857D01*
X126309523Y-100338095D01*
X126261904Y-100480952D01*
X125690476Y-101052380D01*
X126309523Y-101052380D01*
X126880952Y-100480952D02*
X126785714Y-100433333D01*
X126738095Y-100385714D01*
X126690476Y-100290476D01*
X126690476Y-100242857D01*
X126738095Y-100147619D01*
X126785714Y-100100000D01*
X126880952Y-100052380D01*
X127071428Y-100052380D01*
X127166666Y-100100000D01*
X127214285Y-100147619D01*
X127261904Y-100242857D01*
X127261904Y-100290476D01*
X127214285Y-100385714D01*
X127166666Y-100433333D01*
X127071428Y-100480952D01*
X126880952Y-100480952D01*
X126785714Y-100528571D01*
X126738095Y-100576190D01*
X126690476Y-100671428D01*
X126690476Y-100861904D01*
X126738095Y-100957142D01*
X126785714Y-101004761D01*
X126880952Y-101052380D01*
X127071428Y-101052380D01*
X127166666Y-101004761D01*
X127214285Y-100957142D01*
X127261904Y-100861904D01*
X127261904Y-100671428D01*
X127214285Y-100576190D01*
X127166666Y-100528571D01*
X127071428Y-100480952D01*
%TO.C,U5*%
X115238095Y-81852380D02*
X115238095Y-82661904D01*
X115285714Y-82757142D01*
X115333333Y-82804761D01*
X115428571Y-82852380D01*
X115619047Y-82852380D01*
X115714285Y-82804761D01*
X115761904Y-82757142D01*
X115809523Y-82661904D01*
X115809523Y-81852380D01*
X116761904Y-81852380D02*
X116285714Y-81852380D01*
X116238095Y-82328571D01*
X116285714Y-82280952D01*
X116380952Y-82233333D01*
X116619047Y-82233333D01*
X116714285Y-82280952D01*
X116761904Y-82328571D01*
X116809523Y-82423809D01*
X116809523Y-82661904D01*
X116761904Y-82757142D01*
X116714285Y-82804761D01*
X116619047Y-82852380D01*
X116380952Y-82852380D01*
X116285714Y-82804761D01*
X116238095Y-82757142D01*
%TO.C,R22*%
X122057142Y-110152380D02*
X121723809Y-109676190D01*
X121485714Y-110152380D02*
X121485714Y-109152380D01*
X121866666Y-109152380D01*
X121961904Y-109200000D01*
X122009523Y-109247619D01*
X122057142Y-109342857D01*
X122057142Y-109485714D01*
X122009523Y-109580952D01*
X121961904Y-109628571D01*
X121866666Y-109676190D01*
X121485714Y-109676190D01*
X122438095Y-109247619D02*
X122485714Y-109200000D01*
X122580952Y-109152380D01*
X122819047Y-109152380D01*
X122914285Y-109200000D01*
X122961904Y-109247619D01*
X123009523Y-109342857D01*
X123009523Y-109438095D01*
X122961904Y-109580952D01*
X122390476Y-110152380D01*
X123009523Y-110152380D01*
X123390476Y-109247619D02*
X123438095Y-109200000D01*
X123533333Y-109152380D01*
X123771428Y-109152380D01*
X123866666Y-109200000D01*
X123914285Y-109247619D01*
X123961904Y-109342857D01*
X123961904Y-109438095D01*
X123914285Y-109580952D01*
X123342857Y-110152380D01*
X123961904Y-110152380D01*
%TO.C,R8*%
X125133333Y-80152380D02*
X124800000Y-79676190D01*
X124561904Y-80152380D02*
X124561904Y-79152380D01*
X124942857Y-79152380D01*
X125038095Y-79200000D01*
X125085714Y-79247619D01*
X125133333Y-79342857D01*
X125133333Y-79485714D01*
X125085714Y-79580952D01*
X125038095Y-79628571D01*
X124942857Y-79676190D01*
X124561904Y-79676190D01*
X125704761Y-79580952D02*
X125609523Y-79533333D01*
X125561904Y-79485714D01*
X125514285Y-79390476D01*
X125514285Y-79342857D01*
X125561904Y-79247619D01*
X125609523Y-79200000D01*
X125704761Y-79152380D01*
X125895238Y-79152380D01*
X125990476Y-79200000D01*
X126038095Y-79247619D01*
X126085714Y-79342857D01*
X126085714Y-79390476D01*
X126038095Y-79485714D01*
X125990476Y-79533333D01*
X125895238Y-79580952D01*
X125704761Y-79580952D01*
X125609523Y-79628571D01*
X125561904Y-79676190D01*
X125514285Y-79771428D01*
X125514285Y-79961904D01*
X125561904Y-80057142D01*
X125609523Y-80104761D01*
X125704761Y-80152380D01*
X125895238Y-80152380D01*
X125990476Y-80104761D01*
X126038095Y-80057142D01*
X126085714Y-79961904D01*
X126085714Y-79771428D01*
X126038095Y-79676190D01*
X125990476Y-79628571D01*
X125895238Y-79580952D01*
%TO.C,R11*%
X118369642Y-129852380D02*
X118036309Y-129376190D01*
X117798214Y-129852380D02*
X117798214Y-128852380D01*
X118179166Y-128852380D01*
X118274404Y-128900000D01*
X118322023Y-128947619D01*
X118369642Y-129042857D01*
X118369642Y-129185714D01*
X118322023Y-129280952D01*
X118274404Y-129328571D01*
X118179166Y-129376190D01*
X117798214Y-129376190D01*
X119322023Y-129852380D02*
X118750595Y-129852380D01*
X119036309Y-129852380D02*
X119036309Y-128852380D01*
X118941071Y-128995238D01*
X118845833Y-129090476D01*
X118750595Y-129138095D01*
X120274404Y-129852380D02*
X119702976Y-129852380D01*
X119988690Y-129852380D02*
X119988690Y-128852380D01*
X119893452Y-128995238D01*
X119798214Y-129090476D01*
X119702976Y-129138095D01*
%TO.C,C12*%
X127457142Y-102457142D02*
X127409523Y-102504761D01*
X127266666Y-102552380D01*
X127171428Y-102552380D01*
X127028571Y-102504761D01*
X126933333Y-102409523D01*
X126885714Y-102314285D01*
X126838095Y-102123809D01*
X126838095Y-101980952D01*
X126885714Y-101790476D01*
X126933333Y-101695238D01*
X127028571Y-101600000D01*
X127171428Y-101552380D01*
X127266666Y-101552380D01*
X127409523Y-101600000D01*
X127457142Y-101647619D01*
X128409523Y-102552380D02*
X127838095Y-102552380D01*
X128123809Y-102552380D02*
X128123809Y-101552380D01*
X128028571Y-101695238D01*
X127933333Y-101790476D01*
X127838095Y-101838095D01*
X128790476Y-101647619D02*
X128838095Y-101600000D01*
X128933333Y-101552380D01*
X129171428Y-101552380D01*
X129266666Y-101600000D01*
X129314285Y-101647619D01*
X129361904Y-101742857D01*
X129361904Y-101838095D01*
X129314285Y-101980952D01*
X128742857Y-102552380D01*
X129361904Y-102552380D01*
%TO.C,R23*%
X108657142Y-105652380D02*
X108323809Y-105176190D01*
X108085714Y-105652380D02*
X108085714Y-104652380D01*
X108466666Y-104652380D01*
X108561904Y-104700000D01*
X108609523Y-104747619D01*
X108657142Y-104842857D01*
X108657142Y-104985714D01*
X108609523Y-105080952D01*
X108561904Y-105128571D01*
X108466666Y-105176190D01*
X108085714Y-105176190D01*
X109038095Y-104747619D02*
X109085714Y-104700000D01*
X109180952Y-104652380D01*
X109419047Y-104652380D01*
X109514285Y-104700000D01*
X109561904Y-104747619D01*
X109609523Y-104842857D01*
X109609523Y-104938095D01*
X109561904Y-105080952D01*
X108990476Y-105652380D01*
X109609523Y-105652380D01*
X109942857Y-104652380D02*
X110561904Y-104652380D01*
X110228571Y-105033333D01*
X110371428Y-105033333D01*
X110466666Y-105080952D01*
X110514285Y-105128571D01*
X110561904Y-105223809D01*
X110561904Y-105461904D01*
X110514285Y-105557142D01*
X110466666Y-105604761D01*
X110371428Y-105652380D01*
X110085714Y-105652380D01*
X109990476Y-105604761D01*
X109942857Y-105557142D01*
%TO.C,R18*%
X128169642Y-121552380D02*
X127836309Y-121076190D01*
X127598214Y-121552380D02*
X127598214Y-120552380D01*
X127979166Y-120552380D01*
X128074404Y-120600000D01*
X128122023Y-120647619D01*
X128169642Y-120742857D01*
X128169642Y-120885714D01*
X128122023Y-120980952D01*
X128074404Y-121028571D01*
X127979166Y-121076190D01*
X127598214Y-121076190D01*
X129122023Y-121552380D02*
X128550595Y-121552380D01*
X128836309Y-121552380D02*
X128836309Y-120552380D01*
X128741071Y-120695238D01*
X128645833Y-120790476D01*
X128550595Y-120838095D01*
X129693452Y-120980952D02*
X129598214Y-120933333D01*
X129550595Y-120885714D01*
X129502976Y-120790476D01*
X129502976Y-120742857D01*
X129550595Y-120647619D01*
X129598214Y-120600000D01*
X129693452Y-120552380D01*
X129883928Y-120552380D01*
X129979166Y-120600000D01*
X130026785Y-120647619D01*
X130074404Y-120742857D01*
X130074404Y-120790476D01*
X130026785Y-120885714D01*
X129979166Y-120933333D01*
X129883928Y-120980952D01*
X129693452Y-120980952D01*
X129598214Y-121028571D01*
X129550595Y-121076190D01*
X129502976Y-121171428D01*
X129502976Y-121361904D01*
X129550595Y-121457142D01*
X129598214Y-121504761D01*
X129693452Y-121552380D01*
X129883928Y-121552380D01*
X129979166Y-121504761D01*
X130026785Y-121457142D01*
X130074404Y-121361904D01*
X130074404Y-121171428D01*
X130026785Y-121076190D01*
X129979166Y-121028571D01*
X129883928Y-120980952D01*
%TO.C,R49*%
X133069642Y-121522380D02*
X132736309Y-121046190D01*
X132498214Y-121522380D02*
X132498214Y-120522380D01*
X132879166Y-120522380D01*
X132974404Y-120570000D01*
X133022023Y-120617619D01*
X133069642Y-120712857D01*
X133069642Y-120855714D01*
X133022023Y-120950952D01*
X132974404Y-120998571D01*
X132879166Y-121046190D01*
X132498214Y-121046190D01*
X133926785Y-120855714D02*
X133926785Y-121522380D01*
X133688690Y-120474761D02*
X133450595Y-121189047D01*
X134069642Y-121189047D01*
X134498214Y-121522380D02*
X134688690Y-121522380D01*
X134783928Y-121474761D01*
X134831547Y-121427142D01*
X134926785Y-121284285D01*
X134974404Y-121093809D01*
X134974404Y-120712857D01*
X134926785Y-120617619D01*
X134879166Y-120570000D01*
X134783928Y-120522380D01*
X134593452Y-120522380D01*
X134498214Y-120570000D01*
X134450595Y-120617619D01*
X134402976Y-120712857D01*
X134402976Y-120950952D01*
X134450595Y-121046190D01*
X134498214Y-121093809D01*
X134593452Y-121141428D01*
X134783928Y-121141428D01*
X134879166Y-121093809D01*
X134926785Y-121046190D01*
X134974404Y-120950952D01*
%TO.C,R37*%
X133557142Y-90852380D02*
X133223809Y-90376190D01*
X132985714Y-90852380D02*
X132985714Y-89852380D01*
X133366666Y-89852380D01*
X133461904Y-89900000D01*
X133509523Y-89947619D01*
X133557142Y-90042857D01*
X133557142Y-90185714D01*
X133509523Y-90280952D01*
X133461904Y-90328571D01*
X133366666Y-90376190D01*
X132985714Y-90376190D01*
X133890476Y-89852380D02*
X134509523Y-89852380D01*
X134176190Y-90233333D01*
X134319047Y-90233333D01*
X134414285Y-90280952D01*
X134461904Y-90328571D01*
X134509523Y-90423809D01*
X134509523Y-90661904D01*
X134461904Y-90757142D01*
X134414285Y-90804761D01*
X134319047Y-90852380D01*
X134033333Y-90852380D01*
X133938095Y-90804761D01*
X133890476Y-90757142D01*
X134842857Y-89852380D02*
X135509523Y-89852380D01*
X135080952Y-90852380D01*
%TO.C,R56*%
X125357142Y-92552380D02*
X125023809Y-92076190D01*
X124785714Y-92552380D02*
X124785714Y-91552380D01*
X125166666Y-91552380D01*
X125261904Y-91600000D01*
X125309523Y-91647619D01*
X125357142Y-91742857D01*
X125357142Y-91885714D01*
X125309523Y-91980952D01*
X125261904Y-92028571D01*
X125166666Y-92076190D01*
X124785714Y-92076190D01*
X126261904Y-91552380D02*
X125785714Y-91552380D01*
X125738095Y-92028571D01*
X125785714Y-91980952D01*
X125880952Y-91933333D01*
X126119047Y-91933333D01*
X126214285Y-91980952D01*
X126261904Y-92028571D01*
X126309523Y-92123809D01*
X126309523Y-92361904D01*
X126261904Y-92457142D01*
X126214285Y-92504761D01*
X126119047Y-92552380D01*
X125880952Y-92552380D01*
X125785714Y-92504761D01*
X125738095Y-92457142D01*
X127166666Y-91552380D02*
X126976190Y-91552380D01*
X126880952Y-91600000D01*
X126833333Y-91647619D01*
X126738095Y-91790476D01*
X126690476Y-91980952D01*
X126690476Y-92361904D01*
X126738095Y-92457142D01*
X126785714Y-92504761D01*
X126880952Y-92552380D01*
X127071428Y-92552380D01*
X127166666Y-92504761D01*
X127214285Y-92457142D01*
X127261904Y-92361904D01*
X127261904Y-92123809D01*
X127214285Y-92028571D01*
X127166666Y-91980952D01*
X127071428Y-91933333D01*
X126880952Y-91933333D01*
X126785714Y-91980952D01*
X126738095Y-92028571D01*
X126690476Y-92123809D01*
%TO.C,D1*%
X115902380Y-54888095D02*
X114902380Y-54888095D01*
X114902380Y-54650000D01*
X114950000Y-54507142D01*
X115045238Y-54411904D01*
X115140476Y-54364285D01*
X115330952Y-54316666D01*
X115473809Y-54316666D01*
X115664285Y-54364285D01*
X115759523Y-54411904D01*
X115854761Y-54507142D01*
X115902380Y-54650000D01*
X115902380Y-54888095D01*
X115902380Y-53364285D02*
X115902380Y-53935714D01*
X115902380Y-53650000D02*
X114902380Y-53650000D01*
X115045238Y-53745238D01*
X115140476Y-53840476D01*
X115188095Y-53935714D01*
%TO.C,R54*%
X105357142Y-92552380D02*
X105023809Y-92076190D01*
X104785714Y-92552380D02*
X104785714Y-91552380D01*
X105166666Y-91552380D01*
X105261904Y-91600000D01*
X105309523Y-91647619D01*
X105357142Y-91742857D01*
X105357142Y-91885714D01*
X105309523Y-91980952D01*
X105261904Y-92028571D01*
X105166666Y-92076190D01*
X104785714Y-92076190D01*
X106261904Y-91552380D02*
X105785714Y-91552380D01*
X105738095Y-92028571D01*
X105785714Y-91980952D01*
X105880952Y-91933333D01*
X106119047Y-91933333D01*
X106214285Y-91980952D01*
X106261904Y-92028571D01*
X106309523Y-92123809D01*
X106309523Y-92361904D01*
X106261904Y-92457142D01*
X106214285Y-92504761D01*
X106119047Y-92552380D01*
X105880952Y-92552380D01*
X105785714Y-92504761D01*
X105738095Y-92457142D01*
X107166666Y-91885714D02*
X107166666Y-92552380D01*
X106928571Y-91504761D02*
X106690476Y-92219047D01*
X107309523Y-92219047D01*
%TO.C,R10*%
X113469642Y-129852380D02*
X113136309Y-129376190D01*
X112898214Y-129852380D02*
X112898214Y-128852380D01*
X113279166Y-128852380D01*
X113374404Y-128900000D01*
X113422023Y-128947619D01*
X113469642Y-129042857D01*
X113469642Y-129185714D01*
X113422023Y-129280952D01*
X113374404Y-129328571D01*
X113279166Y-129376190D01*
X112898214Y-129376190D01*
X114422023Y-129852380D02*
X113850595Y-129852380D01*
X114136309Y-129852380D02*
X114136309Y-128852380D01*
X114041071Y-128995238D01*
X113945833Y-129090476D01*
X113850595Y-129138095D01*
X115041071Y-128852380D02*
X115136309Y-128852380D01*
X115231547Y-128900000D01*
X115279166Y-128947619D01*
X115326785Y-129042857D01*
X115374404Y-129233333D01*
X115374404Y-129471428D01*
X115326785Y-129661904D01*
X115279166Y-129757142D01*
X115231547Y-129804761D01*
X115136309Y-129852380D01*
X115041071Y-129852380D01*
X114945833Y-129804761D01*
X114898214Y-129757142D01*
X114850595Y-129661904D01*
X114802976Y-129471428D01*
X114802976Y-129233333D01*
X114850595Y-129042857D01*
X114898214Y-128947619D01*
X114945833Y-128900000D01*
X115041071Y-128852380D01*
%TO.C,R47*%
X131457142Y-71152380D02*
X131123809Y-70676190D01*
X130885714Y-71152380D02*
X130885714Y-70152380D01*
X131266666Y-70152380D01*
X131361904Y-70200000D01*
X131409523Y-70247619D01*
X131457142Y-70342857D01*
X131457142Y-70485714D01*
X131409523Y-70580952D01*
X131361904Y-70628571D01*
X131266666Y-70676190D01*
X130885714Y-70676190D01*
X132314285Y-70485714D02*
X132314285Y-71152380D01*
X132076190Y-70104761D02*
X131838095Y-70819047D01*
X132457142Y-70819047D01*
X132742857Y-70152380D02*
X133409523Y-70152380D01*
X132980952Y-71152380D01*
%TO.C,J7*%
X148619047Y-115670000D02*
X148523809Y-115622380D01*
X148380952Y-115622380D01*
X148238094Y-115670000D01*
X148142856Y-115765238D01*
X148095237Y-115860476D01*
X148047618Y-116050952D01*
X148047618Y-116193809D01*
X148095237Y-116384285D01*
X148142856Y-116479523D01*
X148238094Y-116574761D01*
X148380952Y-116622380D01*
X148476190Y-116622380D01*
X148619047Y-116574761D01*
X148666666Y-116527142D01*
X148666666Y-116193809D01*
X148476190Y-116193809D01*
X149095237Y-116622380D02*
X149095237Y-115622380D01*
X149666666Y-116622380D01*
X149666666Y-115622380D01*
X150142856Y-116622380D02*
X150142856Y-115622380D01*
X150380952Y-115622380D01*
X150523809Y-115670000D01*
X150619047Y-115765238D01*
X150666666Y-115860476D01*
X150714285Y-116050952D01*
X150714285Y-116193809D01*
X150666666Y-116384285D01*
X150619047Y-116479523D01*
X150523809Y-116574761D01*
X150380952Y-116622380D01*
X150142856Y-116622380D01*
X148904761Y-111457142D02*
X148857142Y-111504761D01*
X148714285Y-111552380D01*
X148619047Y-111552380D01*
X148476190Y-111504761D01*
X148380952Y-111409523D01*
X148333333Y-111314285D01*
X148285714Y-111123809D01*
X148285714Y-110980952D01*
X148333333Y-110790476D01*
X148380952Y-110695238D01*
X148476190Y-110600000D01*
X148619047Y-110552380D01*
X148714285Y-110552380D01*
X148857142Y-110600000D01*
X148904761Y-110647619D01*
X149809523Y-111552380D02*
X149333333Y-111552380D01*
X149333333Y-110552380D01*
X150142857Y-111552380D02*
X150142857Y-110552380D01*
X150714285Y-111552380D02*
X150285714Y-110980952D01*
X150714285Y-110552380D02*
X150142857Y-111123809D01*
X147809523Y-118162380D02*
X148428571Y-118162380D01*
X148095237Y-118543333D01*
X148238094Y-118543333D01*
X148333333Y-118590952D01*
X148380952Y-118638571D01*
X148428571Y-118733809D01*
X148428571Y-118971904D01*
X148380952Y-119067142D01*
X148333333Y-119114761D01*
X148238094Y-119162380D01*
X147952380Y-119162380D01*
X147857142Y-119114761D01*
X147809523Y-119067142D01*
X148857142Y-119067142D02*
X148904761Y-119114761D01*
X148857142Y-119162380D01*
X148809523Y-119114761D01*
X148857142Y-119067142D01*
X148857142Y-119162380D01*
X149238094Y-118162380D02*
X149857142Y-118162380D01*
X149523809Y-118543333D01*
X149666666Y-118543333D01*
X149761904Y-118590952D01*
X149809523Y-118638571D01*
X149857142Y-118733809D01*
X149857142Y-118971904D01*
X149809523Y-119067142D01*
X149761904Y-119114761D01*
X149666666Y-119162380D01*
X149380952Y-119162380D01*
X149285714Y-119114761D01*
X149238094Y-119067142D01*
X150142856Y-118162380D02*
X150476190Y-119162380D01*
X150809523Y-118162380D01*
X149619047Y-114082380D02*
X149619047Y-113082380D01*
X150285714Y-113082380D02*
X150476190Y-113082380D01*
X150571428Y-113130000D01*
X150666666Y-113225238D01*
X150714285Y-113415714D01*
X150714285Y-113749047D01*
X150666666Y-113939523D01*
X150571428Y-114034761D01*
X150476190Y-114082380D01*
X150285714Y-114082380D01*
X150190476Y-114034761D01*
X150095237Y-113939523D01*
X150047618Y-113749047D01*
X150047618Y-113415714D01*
X150095237Y-113225238D01*
X150190476Y-113130000D01*
X150285714Y-113082380D01*
%TO.C,R40*%
X150357142Y-78752380D02*
X150023809Y-78276190D01*
X149785714Y-78752380D02*
X149785714Y-77752380D01*
X150166666Y-77752380D01*
X150261904Y-77800000D01*
X150309523Y-77847619D01*
X150357142Y-77942857D01*
X150357142Y-78085714D01*
X150309523Y-78180952D01*
X150261904Y-78228571D01*
X150166666Y-78276190D01*
X149785714Y-78276190D01*
X151214285Y-78085714D02*
X151214285Y-78752380D01*
X150976190Y-77704761D02*
X150738095Y-78419047D01*
X151357142Y-78419047D01*
X151928571Y-77752380D02*
X152023809Y-77752380D01*
X152119047Y-77800000D01*
X152166666Y-77847619D01*
X152214285Y-77942857D01*
X152261904Y-78133333D01*
X152261904Y-78371428D01*
X152214285Y-78561904D01*
X152166666Y-78657142D01*
X152119047Y-78704761D01*
X152023809Y-78752380D01*
X151928571Y-78752380D01*
X151833333Y-78704761D01*
X151785714Y-78657142D01*
X151738095Y-78561904D01*
X151690476Y-78371428D01*
X151690476Y-78133333D01*
X151738095Y-77942857D01*
X151785714Y-77847619D01*
X151833333Y-77800000D01*
X151928571Y-77752380D01*
%TO.C,R38*%
X131457142Y-78852380D02*
X131123809Y-78376190D01*
X130885714Y-78852380D02*
X130885714Y-77852380D01*
X131266666Y-77852380D01*
X131361904Y-77900000D01*
X131409523Y-77947619D01*
X131457142Y-78042857D01*
X131457142Y-78185714D01*
X131409523Y-78280952D01*
X131361904Y-78328571D01*
X131266666Y-78376190D01*
X130885714Y-78376190D01*
X131790476Y-77852380D02*
X132409523Y-77852380D01*
X132076190Y-78233333D01*
X132219047Y-78233333D01*
X132314285Y-78280952D01*
X132361904Y-78328571D01*
X132409523Y-78423809D01*
X132409523Y-78661904D01*
X132361904Y-78757142D01*
X132314285Y-78804761D01*
X132219047Y-78852380D01*
X131933333Y-78852380D01*
X131838095Y-78804761D01*
X131790476Y-78757142D01*
X132980952Y-78280952D02*
X132885714Y-78233333D01*
X132838095Y-78185714D01*
X132790476Y-78090476D01*
X132790476Y-78042857D01*
X132838095Y-77947619D01*
X132885714Y-77900000D01*
X132980952Y-77852380D01*
X133171428Y-77852380D01*
X133266666Y-77900000D01*
X133314285Y-77947619D01*
X133361904Y-78042857D01*
X133361904Y-78090476D01*
X133314285Y-78185714D01*
X133266666Y-78233333D01*
X133171428Y-78280952D01*
X132980952Y-78280952D01*
X132885714Y-78328571D01*
X132838095Y-78376190D01*
X132790476Y-78471428D01*
X132790476Y-78661904D01*
X132838095Y-78757142D01*
X132885714Y-78804761D01*
X132980952Y-78852380D01*
X133171428Y-78852380D01*
X133266666Y-78804761D01*
X133314285Y-78757142D01*
X133361904Y-78661904D01*
X133361904Y-78471428D01*
X133314285Y-78376190D01*
X133266666Y-78328571D01*
X133171428Y-78280952D01*
%TO.C,C10*%
X142257142Y-114357142D02*
X142209523Y-114404761D01*
X142066666Y-114452380D01*
X141971428Y-114452380D01*
X141828571Y-114404761D01*
X141733333Y-114309523D01*
X141685714Y-114214285D01*
X141638095Y-114023809D01*
X141638095Y-113880952D01*
X141685714Y-113690476D01*
X141733333Y-113595238D01*
X141828571Y-113500000D01*
X141971428Y-113452380D01*
X142066666Y-113452380D01*
X142209523Y-113500000D01*
X142257142Y-113547619D01*
X143209523Y-114452380D02*
X142638095Y-114452380D01*
X142923809Y-114452380D02*
X142923809Y-113452380D01*
X142828571Y-113595238D01*
X142733333Y-113690476D01*
X142638095Y-113738095D01*
X143828571Y-113452380D02*
X143923809Y-113452380D01*
X144019047Y-113500000D01*
X144066666Y-113547619D01*
X144114285Y-113642857D01*
X144161904Y-113833333D01*
X144161904Y-114071428D01*
X144114285Y-114261904D01*
X144066666Y-114357142D01*
X144019047Y-114404761D01*
X143923809Y-114452380D01*
X143828571Y-114452380D01*
X143733333Y-114404761D01*
X143685714Y-114357142D01*
X143638095Y-114261904D01*
X143590476Y-114071428D01*
X143590476Y-113833333D01*
X143638095Y-113642857D01*
X143685714Y-113547619D01*
X143733333Y-113500000D01*
X143828571Y-113452380D01*
%TO.C,C27*%
X125357142Y-95857142D02*
X125309523Y-95904761D01*
X125166666Y-95952380D01*
X125071428Y-95952380D01*
X124928571Y-95904761D01*
X124833333Y-95809523D01*
X124785714Y-95714285D01*
X124738095Y-95523809D01*
X124738095Y-95380952D01*
X124785714Y-95190476D01*
X124833333Y-95095238D01*
X124928571Y-95000000D01*
X125071428Y-94952380D01*
X125166666Y-94952380D01*
X125309523Y-95000000D01*
X125357142Y-95047619D01*
X125738095Y-95047619D02*
X125785714Y-95000000D01*
X125880952Y-94952380D01*
X126119047Y-94952380D01*
X126214285Y-95000000D01*
X126261904Y-95047619D01*
X126309523Y-95142857D01*
X126309523Y-95238095D01*
X126261904Y-95380952D01*
X125690476Y-95952380D01*
X126309523Y-95952380D01*
X126642857Y-94952380D02*
X127309523Y-94952380D01*
X126880952Y-95952380D01*
%TO.C,R5*%
X125133333Y-73352380D02*
X124800000Y-72876190D01*
X124561904Y-73352380D02*
X124561904Y-72352380D01*
X124942857Y-72352380D01*
X125038095Y-72400000D01*
X125085714Y-72447619D01*
X125133333Y-72542857D01*
X125133333Y-72685714D01*
X125085714Y-72780952D01*
X125038095Y-72828571D01*
X124942857Y-72876190D01*
X124561904Y-72876190D01*
X126038095Y-72352380D02*
X125561904Y-72352380D01*
X125514285Y-72828571D01*
X125561904Y-72780952D01*
X125657142Y-72733333D01*
X125895238Y-72733333D01*
X125990476Y-72780952D01*
X126038095Y-72828571D01*
X126085714Y-72923809D01*
X126085714Y-73161904D01*
X126038095Y-73257142D01*
X125990476Y-73304761D01*
X125895238Y-73352380D01*
X125657142Y-73352380D01*
X125561904Y-73304761D01*
X125514285Y-73257142D01*
%TO.C,R30*%
X105357142Y-99352380D02*
X105023809Y-98876190D01*
X104785714Y-99352380D02*
X104785714Y-98352380D01*
X105166666Y-98352380D01*
X105261904Y-98400000D01*
X105309523Y-98447619D01*
X105357142Y-98542857D01*
X105357142Y-98685714D01*
X105309523Y-98780952D01*
X105261904Y-98828571D01*
X105166666Y-98876190D01*
X104785714Y-98876190D01*
X105690476Y-98352380D02*
X106309523Y-98352380D01*
X105976190Y-98733333D01*
X106119047Y-98733333D01*
X106214285Y-98780952D01*
X106261904Y-98828571D01*
X106309523Y-98923809D01*
X106309523Y-99161904D01*
X106261904Y-99257142D01*
X106214285Y-99304761D01*
X106119047Y-99352380D01*
X105833333Y-99352380D01*
X105738095Y-99304761D01*
X105690476Y-99257142D01*
X106928571Y-98352380D02*
X107023809Y-98352380D01*
X107119047Y-98400000D01*
X107166666Y-98447619D01*
X107214285Y-98542857D01*
X107261904Y-98733333D01*
X107261904Y-98971428D01*
X107214285Y-99161904D01*
X107166666Y-99257142D01*
X107119047Y-99304761D01*
X107023809Y-99352380D01*
X106928571Y-99352380D01*
X106833333Y-99304761D01*
X106785714Y-99257142D01*
X106738095Y-99161904D01*
X106690476Y-98971428D01*
X106690476Y-98733333D01*
X106738095Y-98542857D01*
X106785714Y-98447619D01*
X106833333Y-98400000D01*
X106928571Y-98352380D01*
%TO.C,C30*%
X125357142Y-94157142D02*
X125309523Y-94204761D01*
X125166666Y-94252380D01*
X125071428Y-94252380D01*
X124928571Y-94204761D01*
X124833333Y-94109523D01*
X124785714Y-94014285D01*
X124738095Y-93823809D01*
X124738095Y-93680952D01*
X124785714Y-93490476D01*
X124833333Y-93395238D01*
X124928571Y-93300000D01*
X125071428Y-93252380D01*
X125166666Y-93252380D01*
X125309523Y-93300000D01*
X125357142Y-93347619D01*
X125690476Y-93252380D02*
X126309523Y-93252380D01*
X125976190Y-93633333D01*
X126119047Y-93633333D01*
X126214285Y-93680952D01*
X126261904Y-93728571D01*
X126309523Y-93823809D01*
X126309523Y-94061904D01*
X126261904Y-94157142D01*
X126214285Y-94204761D01*
X126119047Y-94252380D01*
X125833333Y-94252380D01*
X125738095Y-94204761D01*
X125690476Y-94157142D01*
X126928571Y-93252380D02*
X127023809Y-93252380D01*
X127119047Y-93300000D01*
X127166666Y-93347619D01*
X127214285Y-93442857D01*
X127261904Y-93633333D01*
X127261904Y-93871428D01*
X127214285Y-94061904D01*
X127166666Y-94157142D01*
X127119047Y-94204761D01*
X127023809Y-94252380D01*
X126928571Y-94252380D01*
X126833333Y-94204761D01*
X126785714Y-94157142D01*
X126738095Y-94061904D01*
X126690476Y-93871428D01*
X126690476Y-93633333D01*
X126738095Y-93442857D01*
X126785714Y-93347619D01*
X126833333Y-93300000D01*
X126928571Y-93252380D01*
%TO.C,C25*%
X137757142Y-92342857D02*
X137804761Y-92390476D01*
X137852380Y-92533333D01*
X137852380Y-92628571D01*
X137804761Y-92771428D01*
X137709523Y-92866666D01*
X137614285Y-92914285D01*
X137423809Y-92961904D01*
X137280952Y-92961904D01*
X137090476Y-92914285D01*
X136995238Y-92866666D01*
X136900000Y-92771428D01*
X136852380Y-92628571D01*
X136852380Y-92533333D01*
X136900000Y-92390476D01*
X136947619Y-92342857D01*
X136947619Y-91961904D02*
X136900000Y-91914285D01*
X136852380Y-91819047D01*
X136852380Y-91580952D01*
X136900000Y-91485714D01*
X136947619Y-91438095D01*
X137042857Y-91390476D01*
X137138095Y-91390476D01*
X137280952Y-91438095D01*
X137852380Y-92009523D01*
X137852380Y-91390476D01*
X136852380Y-90485714D02*
X136852380Y-90961904D01*
X137328571Y-91009523D01*
X137280952Y-90961904D01*
X137233333Y-90866666D01*
X137233333Y-90628571D01*
X137280952Y-90533333D01*
X137328571Y-90485714D01*
X137423809Y-90438095D01*
X137661904Y-90438095D01*
X137757142Y-90485714D01*
X137804761Y-90533333D01*
X137852380Y-90628571D01*
X137852380Y-90866666D01*
X137804761Y-90961904D01*
X137757142Y-91009523D01*
%TO.C,C15*%
X127457142Y-109457142D02*
X127409523Y-109504761D01*
X127266666Y-109552380D01*
X127171428Y-109552380D01*
X127028571Y-109504761D01*
X126933333Y-109409523D01*
X126885714Y-109314285D01*
X126838095Y-109123809D01*
X126838095Y-108980952D01*
X126885714Y-108790476D01*
X126933333Y-108695238D01*
X127028571Y-108600000D01*
X127171428Y-108552380D01*
X127266666Y-108552380D01*
X127409523Y-108600000D01*
X127457142Y-108647619D01*
X128409523Y-109552380D02*
X127838095Y-109552380D01*
X128123809Y-109552380D02*
X128123809Y-108552380D01*
X128028571Y-108695238D01*
X127933333Y-108790476D01*
X127838095Y-108838095D01*
X129314285Y-108552380D02*
X128838095Y-108552380D01*
X128790476Y-109028571D01*
X128838095Y-108980952D01*
X128933333Y-108933333D01*
X129171428Y-108933333D01*
X129266666Y-108980952D01*
X129314285Y-109028571D01*
X129361904Y-109123809D01*
X129361904Y-109361904D01*
X129314285Y-109457142D01*
X129266666Y-109504761D01*
X129171428Y-109552380D01*
X128933333Y-109552380D01*
X128838095Y-109504761D01*
X128790476Y-109457142D01*
%TO.C,R9*%
X151120833Y-103282380D02*
X150787500Y-102806190D01*
X150549404Y-103282380D02*
X150549404Y-102282380D01*
X150930357Y-102282380D01*
X151025595Y-102330000D01*
X151073214Y-102377619D01*
X151120833Y-102472857D01*
X151120833Y-102615714D01*
X151073214Y-102710952D01*
X151025595Y-102758571D01*
X150930357Y-102806190D01*
X150549404Y-102806190D01*
X151597023Y-103282380D02*
X151787500Y-103282380D01*
X151882738Y-103234761D01*
X151930357Y-103187142D01*
X152025595Y-103044285D01*
X152073214Y-102853809D01*
X152073214Y-102472857D01*
X152025595Y-102377619D01*
X151977976Y-102330000D01*
X151882738Y-102282380D01*
X151692261Y-102282380D01*
X151597023Y-102330000D01*
X151549404Y-102377619D01*
X151501785Y-102472857D01*
X151501785Y-102710952D01*
X151549404Y-102806190D01*
X151597023Y-102853809D01*
X151692261Y-102901428D01*
X151882738Y-102901428D01*
X151977976Y-102853809D01*
X152025595Y-102806190D01*
X152073214Y-102710952D01*
%TO.C,C5*%
X106533333Y-76657142D02*
X106485714Y-76704761D01*
X106342857Y-76752380D01*
X106247619Y-76752380D01*
X106104761Y-76704761D01*
X106009523Y-76609523D01*
X105961904Y-76514285D01*
X105914285Y-76323809D01*
X105914285Y-76180952D01*
X105961904Y-75990476D01*
X106009523Y-75895238D01*
X106104761Y-75800000D01*
X106247619Y-75752380D01*
X106342857Y-75752380D01*
X106485714Y-75800000D01*
X106533333Y-75847619D01*
X107438095Y-75752380D02*
X106961904Y-75752380D01*
X106914285Y-76228571D01*
X106961904Y-76180952D01*
X107057142Y-76133333D01*
X107295238Y-76133333D01*
X107390476Y-76180952D01*
X107438095Y-76228571D01*
X107485714Y-76323809D01*
X107485714Y-76561904D01*
X107438095Y-76657142D01*
X107390476Y-76704761D01*
X107295238Y-76752380D01*
X107057142Y-76752380D01*
X106961904Y-76704761D01*
X106914285Y-76657142D01*
%TO.C,R2*%
X106533333Y-75052380D02*
X106200000Y-74576190D01*
X105961904Y-75052380D02*
X105961904Y-74052380D01*
X106342857Y-74052380D01*
X106438095Y-74100000D01*
X106485714Y-74147619D01*
X106533333Y-74242857D01*
X106533333Y-74385714D01*
X106485714Y-74480952D01*
X106438095Y-74528571D01*
X106342857Y-74576190D01*
X105961904Y-74576190D01*
X106914285Y-74147619D02*
X106961904Y-74100000D01*
X107057142Y-74052380D01*
X107295238Y-74052380D01*
X107390476Y-74100000D01*
X107438095Y-74147619D01*
X107485714Y-74242857D01*
X107485714Y-74338095D01*
X107438095Y-74480952D01*
X106866666Y-75052380D01*
X107485714Y-75052380D01*
%TO.C,R58*%
X131457142Y-83752380D02*
X131123809Y-83276190D01*
X130885714Y-83752380D02*
X130885714Y-82752380D01*
X131266666Y-82752380D01*
X131361904Y-82800000D01*
X131409523Y-82847619D01*
X131457142Y-82942857D01*
X131457142Y-83085714D01*
X131409523Y-83180952D01*
X131361904Y-83228571D01*
X131266666Y-83276190D01*
X130885714Y-83276190D01*
X132361904Y-82752380D02*
X131885714Y-82752380D01*
X131838095Y-83228571D01*
X131885714Y-83180952D01*
X131980952Y-83133333D01*
X132219047Y-83133333D01*
X132314285Y-83180952D01*
X132361904Y-83228571D01*
X132409523Y-83323809D01*
X132409523Y-83561904D01*
X132361904Y-83657142D01*
X132314285Y-83704761D01*
X132219047Y-83752380D01*
X131980952Y-83752380D01*
X131885714Y-83704761D01*
X131838095Y-83657142D01*
X132980952Y-83180952D02*
X132885714Y-83133333D01*
X132838095Y-83085714D01*
X132790476Y-82990476D01*
X132790476Y-82942857D01*
X132838095Y-82847619D01*
X132885714Y-82800000D01*
X132980952Y-82752380D01*
X133171428Y-82752380D01*
X133266666Y-82800000D01*
X133314285Y-82847619D01*
X133361904Y-82942857D01*
X133361904Y-82990476D01*
X133314285Y-83085714D01*
X133266666Y-83133333D01*
X133171428Y-83180952D01*
X132980952Y-83180952D01*
X132885714Y-83228571D01*
X132838095Y-83276190D01*
X132790476Y-83371428D01*
X132790476Y-83561904D01*
X132838095Y-83657142D01*
X132885714Y-83704761D01*
X132980952Y-83752380D01*
X133171428Y-83752380D01*
X133266666Y-83704761D01*
X133314285Y-83657142D01*
X133361904Y-83561904D01*
X133361904Y-83371428D01*
X133314285Y-83276190D01*
X133266666Y-83228571D01*
X133171428Y-83180952D01*
%TO.C,R33*%
X125357142Y-89152380D02*
X125023809Y-88676190D01*
X124785714Y-89152380D02*
X124785714Y-88152380D01*
X125166666Y-88152380D01*
X125261904Y-88200000D01*
X125309523Y-88247619D01*
X125357142Y-88342857D01*
X125357142Y-88485714D01*
X125309523Y-88580952D01*
X125261904Y-88628571D01*
X125166666Y-88676190D01*
X124785714Y-88676190D01*
X125690476Y-88152380D02*
X126309523Y-88152380D01*
X125976190Y-88533333D01*
X126119047Y-88533333D01*
X126214285Y-88580952D01*
X126261904Y-88628571D01*
X126309523Y-88723809D01*
X126309523Y-88961904D01*
X126261904Y-89057142D01*
X126214285Y-89104761D01*
X126119047Y-89152380D01*
X125833333Y-89152380D01*
X125738095Y-89104761D01*
X125690476Y-89057142D01*
X126642857Y-88152380D02*
X127261904Y-88152380D01*
X126928571Y-88533333D01*
X127071428Y-88533333D01*
X127166666Y-88580952D01*
X127214285Y-88628571D01*
X127261904Y-88723809D01*
X127261904Y-88961904D01*
X127214285Y-89057142D01*
X127166666Y-89104761D01*
X127071428Y-89152380D01*
X126785714Y-89152380D01*
X126690476Y-89104761D01*
X126642857Y-89057142D01*
%TO.C,C13*%
X127457142Y-103957142D02*
X127409523Y-104004761D01*
X127266666Y-104052380D01*
X127171428Y-104052380D01*
X127028571Y-104004761D01*
X126933333Y-103909523D01*
X126885714Y-103814285D01*
X126838095Y-103623809D01*
X126838095Y-103480952D01*
X126885714Y-103290476D01*
X126933333Y-103195238D01*
X127028571Y-103100000D01*
X127171428Y-103052380D01*
X127266666Y-103052380D01*
X127409523Y-103100000D01*
X127457142Y-103147619D01*
X128409523Y-104052380D02*
X127838095Y-104052380D01*
X128123809Y-104052380D02*
X128123809Y-103052380D01*
X128028571Y-103195238D01*
X127933333Y-103290476D01*
X127838095Y-103338095D01*
X128742857Y-103052380D02*
X129361904Y-103052380D01*
X129028571Y-103433333D01*
X129171428Y-103433333D01*
X129266666Y-103480952D01*
X129314285Y-103528571D01*
X129361904Y-103623809D01*
X129361904Y-103861904D01*
X129314285Y-103957142D01*
X129266666Y-104004761D01*
X129171428Y-104052380D01*
X128885714Y-104052380D01*
X128790476Y-104004761D01*
X128742857Y-103957142D01*
%TO.C,R13*%
X128332142Y-129839880D02*
X127998809Y-129363690D01*
X127760714Y-129839880D02*
X127760714Y-128839880D01*
X128141666Y-128839880D01*
X128236904Y-128887500D01*
X128284523Y-128935119D01*
X128332142Y-129030357D01*
X128332142Y-129173214D01*
X128284523Y-129268452D01*
X128236904Y-129316071D01*
X128141666Y-129363690D01*
X127760714Y-129363690D01*
X129284523Y-129839880D02*
X128713095Y-129839880D01*
X128998809Y-129839880D02*
X128998809Y-128839880D01*
X128903571Y-128982738D01*
X128808333Y-129077976D01*
X128713095Y-129125595D01*
X129617857Y-128839880D02*
X130236904Y-128839880D01*
X129903571Y-129220833D01*
X130046428Y-129220833D01*
X130141666Y-129268452D01*
X130189285Y-129316071D01*
X130236904Y-129411309D01*
X130236904Y-129649404D01*
X130189285Y-129744642D01*
X130141666Y-129792261D01*
X130046428Y-129839880D01*
X129760714Y-129839880D01*
X129665476Y-129792261D01*
X129617857Y-129744642D01*
%TO.C,C16*%
X122057142Y-104157142D02*
X122009523Y-104204761D01*
X121866666Y-104252380D01*
X121771428Y-104252380D01*
X121628571Y-104204761D01*
X121533333Y-104109523D01*
X121485714Y-104014285D01*
X121438095Y-103823809D01*
X121438095Y-103680952D01*
X121485714Y-103490476D01*
X121533333Y-103395238D01*
X121628571Y-103300000D01*
X121771428Y-103252380D01*
X121866666Y-103252380D01*
X122009523Y-103300000D01*
X122057142Y-103347619D01*
X123009523Y-104252380D02*
X122438095Y-104252380D01*
X122723809Y-104252380D02*
X122723809Y-103252380D01*
X122628571Y-103395238D01*
X122533333Y-103490476D01*
X122438095Y-103538095D01*
X123866666Y-103252380D02*
X123676190Y-103252380D01*
X123580952Y-103300000D01*
X123533333Y-103347619D01*
X123438095Y-103490476D01*
X123390476Y-103680952D01*
X123390476Y-104061904D01*
X123438095Y-104157142D01*
X123485714Y-104204761D01*
X123580952Y-104252380D01*
X123771428Y-104252380D01*
X123866666Y-104204761D01*
X123914285Y-104157142D01*
X123961904Y-104061904D01*
X123961904Y-103823809D01*
X123914285Y-103728571D01*
X123866666Y-103680952D01*
X123771428Y-103633333D01*
X123580952Y-103633333D01*
X123485714Y-103680952D01*
X123438095Y-103728571D01*
X123390476Y-103823809D01*
%TO.C,R25*%
X122057142Y-116752380D02*
X121723809Y-116276190D01*
X121485714Y-116752380D02*
X121485714Y-115752380D01*
X121866666Y-115752380D01*
X121961904Y-115800000D01*
X122009523Y-115847619D01*
X122057142Y-115942857D01*
X122057142Y-116085714D01*
X122009523Y-116180952D01*
X121961904Y-116228571D01*
X121866666Y-116276190D01*
X121485714Y-116276190D01*
X122438095Y-115847619D02*
X122485714Y-115800000D01*
X122580952Y-115752380D01*
X122819047Y-115752380D01*
X122914285Y-115800000D01*
X122961904Y-115847619D01*
X123009523Y-115942857D01*
X123009523Y-116038095D01*
X122961904Y-116180952D01*
X122390476Y-116752380D01*
X123009523Y-116752380D01*
X123914285Y-115752380D02*
X123438095Y-115752380D01*
X123390476Y-116228571D01*
X123438095Y-116180952D01*
X123533333Y-116133333D01*
X123771428Y-116133333D01*
X123866666Y-116180952D01*
X123914285Y-116228571D01*
X123961904Y-116323809D01*
X123961904Y-116561904D01*
X123914285Y-116657142D01*
X123866666Y-116704761D01*
X123771428Y-116752380D01*
X123533333Y-116752380D01*
X123438095Y-116704761D01*
X123390476Y-116657142D01*
%TO.C,R27*%
X125357142Y-99352380D02*
X125023809Y-98876190D01*
X124785714Y-99352380D02*
X124785714Y-98352380D01*
X125166666Y-98352380D01*
X125261904Y-98400000D01*
X125309523Y-98447619D01*
X125357142Y-98542857D01*
X125357142Y-98685714D01*
X125309523Y-98780952D01*
X125261904Y-98828571D01*
X125166666Y-98876190D01*
X124785714Y-98876190D01*
X125738095Y-98447619D02*
X125785714Y-98400000D01*
X125880952Y-98352380D01*
X126119047Y-98352380D01*
X126214285Y-98400000D01*
X126261904Y-98447619D01*
X126309523Y-98542857D01*
X126309523Y-98638095D01*
X126261904Y-98780952D01*
X125690476Y-99352380D01*
X126309523Y-99352380D01*
X126642857Y-98352380D02*
X127309523Y-98352380D01*
X126880952Y-99352380D01*
%TO.C,C7*%
X125133333Y-78357142D02*
X125085714Y-78404761D01*
X124942857Y-78452380D01*
X124847619Y-78452380D01*
X124704761Y-78404761D01*
X124609523Y-78309523D01*
X124561904Y-78214285D01*
X124514285Y-78023809D01*
X124514285Y-77880952D01*
X124561904Y-77690476D01*
X124609523Y-77595238D01*
X124704761Y-77500000D01*
X124847619Y-77452380D01*
X124942857Y-77452380D01*
X125085714Y-77500000D01*
X125133333Y-77547619D01*
X125466666Y-77452380D02*
X126133333Y-77452380D01*
X125704761Y-78452380D01*
%TO.C,C9*%
X151133333Y-98657142D02*
X151085714Y-98704761D01*
X150942857Y-98752380D01*
X150847619Y-98752380D01*
X150704761Y-98704761D01*
X150609523Y-98609523D01*
X150561904Y-98514285D01*
X150514285Y-98323809D01*
X150514285Y-98180952D01*
X150561904Y-97990476D01*
X150609523Y-97895238D01*
X150704761Y-97800000D01*
X150847619Y-97752380D01*
X150942857Y-97752380D01*
X151085714Y-97800000D01*
X151133333Y-97847619D01*
X151609523Y-98752380D02*
X151800000Y-98752380D01*
X151895238Y-98704761D01*
X151942857Y-98657142D01*
X152038095Y-98514285D01*
X152085714Y-98323809D01*
X152085714Y-97942857D01*
X152038095Y-97847619D01*
X151990476Y-97800000D01*
X151895238Y-97752380D01*
X151704761Y-97752380D01*
X151609523Y-97800000D01*
X151561904Y-97847619D01*
X151514285Y-97942857D01*
X151514285Y-98180952D01*
X151561904Y-98276190D01*
X151609523Y-98323809D01*
X151704761Y-98371428D01*
X151895238Y-98371428D01*
X151990476Y-98323809D01*
X152038095Y-98276190D01*
X152085714Y-98180952D01*
%TO.C,C6*%
X106533333Y-78357142D02*
X106485714Y-78404761D01*
X106342857Y-78452380D01*
X106247619Y-78452380D01*
X106104761Y-78404761D01*
X106009523Y-78309523D01*
X105961904Y-78214285D01*
X105914285Y-78023809D01*
X105914285Y-77880952D01*
X105961904Y-77690476D01*
X106009523Y-77595238D01*
X106104761Y-77500000D01*
X106247619Y-77452380D01*
X106342857Y-77452380D01*
X106485714Y-77500000D01*
X106533333Y-77547619D01*
X107390476Y-77452380D02*
X107200000Y-77452380D01*
X107104761Y-77500000D01*
X107057142Y-77547619D01*
X106961904Y-77690476D01*
X106914285Y-77880952D01*
X106914285Y-78261904D01*
X106961904Y-78357142D01*
X107009523Y-78404761D01*
X107104761Y-78452380D01*
X107295238Y-78452380D01*
X107390476Y-78404761D01*
X107438095Y-78357142D01*
X107485714Y-78261904D01*
X107485714Y-78023809D01*
X107438095Y-77928571D01*
X107390476Y-77880952D01*
X107295238Y-77833333D01*
X107104761Y-77833333D01*
X107009523Y-77880952D01*
X106961904Y-77928571D01*
X106914285Y-78023809D01*
%TO.C,C19*%
X108657142Y-104057142D02*
X108609523Y-104104761D01*
X108466666Y-104152380D01*
X108371428Y-104152380D01*
X108228571Y-104104761D01*
X108133333Y-104009523D01*
X108085714Y-103914285D01*
X108038095Y-103723809D01*
X108038095Y-103580952D01*
X108085714Y-103390476D01*
X108133333Y-103295238D01*
X108228571Y-103200000D01*
X108371428Y-103152380D01*
X108466666Y-103152380D01*
X108609523Y-103200000D01*
X108657142Y-103247619D01*
X109609523Y-104152380D02*
X109038095Y-104152380D01*
X109323809Y-104152380D02*
X109323809Y-103152380D01*
X109228571Y-103295238D01*
X109133333Y-103390476D01*
X109038095Y-103438095D01*
X110085714Y-104152380D02*
X110276190Y-104152380D01*
X110371428Y-104104761D01*
X110419047Y-104057142D01*
X110514285Y-103914285D01*
X110561904Y-103723809D01*
X110561904Y-103342857D01*
X110514285Y-103247619D01*
X110466666Y-103200000D01*
X110371428Y-103152380D01*
X110180952Y-103152380D01*
X110085714Y-103200000D01*
X110038095Y-103247619D01*
X109990476Y-103342857D01*
X109990476Y-103580952D01*
X110038095Y-103676190D01*
X110085714Y-103723809D01*
X110180952Y-103771428D01*
X110371428Y-103771428D01*
X110466666Y-103723809D01*
X110514285Y-103676190D01*
X110561904Y-103580952D01*
%TO.C,C14*%
X127457142Y-107957142D02*
X127409523Y-108004761D01*
X127266666Y-108052380D01*
X127171428Y-108052380D01*
X127028571Y-108004761D01*
X126933333Y-107909523D01*
X126885714Y-107814285D01*
X126838095Y-107623809D01*
X126838095Y-107480952D01*
X126885714Y-107290476D01*
X126933333Y-107195238D01*
X127028571Y-107100000D01*
X127171428Y-107052380D01*
X127266666Y-107052380D01*
X127409523Y-107100000D01*
X127457142Y-107147619D01*
X128409523Y-108052380D02*
X127838095Y-108052380D01*
X128123809Y-108052380D02*
X128123809Y-107052380D01*
X128028571Y-107195238D01*
X127933333Y-107290476D01*
X127838095Y-107338095D01*
X129266666Y-107385714D02*
X129266666Y-108052380D01*
X129028571Y-107004761D02*
X128790476Y-107719047D01*
X129409523Y-107719047D01*
%TO.C,C17*%
X125357142Y-87357142D02*
X125309523Y-87404761D01*
X125166666Y-87452380D01*
X125071428Y-87452380D01*
X124928571Y-87404761D01*
X124833333Y-87309523D01*
X124785714Y-87214285D01*
X124738095Y-87023809D01*
X124738095Y-86880952D01*
X124785714Y-86690476D01*
X124833333Y-86595238D01*
X124928571Y-86500000D01*
X125071428Y-86452380D01*
X125166666Y-86452380D01*
X125309523Y-86500000D01*
X125357142Y-86547619D01*
X126309523Y-87452380D02*
X125738095Y-87452380D01*
X126023809Y-87452380D02*
X126023809Y-86452380D01*
X125928571Y-86595238D01*
X125833333Y-86690476D01*
X125738095Y-86738095D01*
X126642857Y-86452380D02*
X127309523Y-86452380D01*
X126880952Y-87452380D01*
%TO.C,R15*%
X113469642Y-121522380D02*
X113136309Y-121046190D01*
X112898214Y-121522380D02*
X112898214Y-120522380D01*
X113279166Y-120522380D01*
X113374404Y-120570000D01*
X113422023Y-120617619D01*
X113469642Y-120712857D01*
X113469642Y-120855714D01*
X113422023Y-120950952D01*
X113374404Y-120998571D01*
X113279166Y-121046190D01*
X112898214Y-121046190D01*
X114422023Y-121522380D02*
X113850595Y-121522380D01*
X114136309Y-121522380D02*
X114136309Y-120522380D01*
X114041071Y-120665238D01*
X113945833Y-120760476D01*
X113850595Y-120808095D01*
X115326785Y-120522380D02*
X114850595Y-120522380D01*
X114802976Y-120998571D01*
X114850595Y-120950952D01*
X114945833Y-120903333D01*
X115183928Y-120903333D01*
X115279166Y-120950952D01*
X115326785Y-120998571D01*
X115374404Y-121093809D01*
X115374404Y-121331904D01*
X115326785Y-121427142D01*
X115279166Y-121474761D01*
X115183928Y-121522380D01*
X114945833Y-121522380D01*
X114850595Y-121474761D01*
X114802976Y-121427142D01*
%TO.C,R17*%
X123269642Y-121522380D02*
X122936309Y-121046190D01*
X122698214Y-121522380D02*
X122698214Y-120522380D01*
X123079166Y-120522380D01*
X123174404Y-120570000D01*
X123222023Y-120617619D01*
X123269642Y-120712857D01*
X123269642Y-120855714D01*
X123222023Y-120950952D01*
X123174404Y-120998571D01*
X123079166Y-121046190D01*
X122698214Y-121046190D01*
X124222023Y-121522380D02*
X123650595Y-121522380D01*
X123936309Y-121522380D02*
X123936309Y-120522380D01*
X123841071Y-120665238D01*
X123745833Y-120760476D01*
X123650595Y-120808095D01*
X124555357Y-120522380D02*
X125222023Y-120522380D01*
X124793452Y-121522380D01*
%TO.C,C8*%
X125133333Y-76657142D02*
X125085714Y-76704761D01*
X124942857Y-76752380D01*
X124847619Y-76752380D01*
X124704761Y-76704761D01*
X124609523Y-76609523D01*
X124561904Y-76514285D01*
X124514285Y-76323809D01*
X124514285Y-76180952D01*
X124561904Y-75990476D01*
X124609523Y-75895238D01*
X124704761Y-75800000D01*
X124847619Y-75752380D01*
X124942857Y-75752380D01*
X125085714Y-75800000D01*
X125133333Y-75847619D01*
X125704761Y-76180952D02*
X125609523Y-76133333D01*
X125561904Y-76085714D01*
X125514285Y-75990476D01*
X125514285Y-75942857D01*
X125561904Y-75847619D01*
X125609523Y-75800000D01*
X125704761Y-75752380D01*
X125895238Y-75752380D01*
X125990476Y-75800000D01*
X126038095Y-75847619D01*
X126085714Y-75942857D01*
X126085714Y-75990476D01*
X126038095Y-76085714D01*
X125990476Y-76133333D01*
X125895238Y-76180952D01*
X125704761Y-76180952D01*
X125609523Y-76228571D01*
X125561904Y-76276190D01*
X125514285Y-76371428D01*
X125514285Y-76561904D01*
X125561904Y-76657142D01*
X125609523Y-76704761D01*
X125704761Y-76752380D01*
X125895238Y-76752380D01*
X125990476Y-76704761D01*
X126038095Y-76657142D01*
X126085714Y-76561904D01*
X126085714Y-76371428D01*
X126038095Y-76276190D01*
X125990476Y-76228571D01*
X125895238Y-76180952D01*
%TO.C,R57*%
X131457142Y-72852380D02*
X131123809Y-72376190D01*
X130885714Y-72852380D02*
X130885714Y-71852380D01*
X131266666Y-71852380D01*
X131361904Y-71900000D01*
X131409523Y-71947619D01*
X131457142Y-72042857D01*
X131457142Y-72185714D01*
X131409523Y-72280952D01*
X131361904Y-72328571D01*
X131266666Y-72376190D01*
X130885714Y-72376190D01*
X132361904Y-71852380D02*
X131885714Y-71852380D01*
X131838095Y-72328571D01*
X131885714Y-72280952D01*
X131980952Y-72233333D01*
X132219047Y-72233333D01*
X132314285Y-72280952D01*
X132361904Y-72328571D01*
X132409523Y-72423809D01*
X132409523Y-72661904D01*
X132361904Y-72757142D01*
X132314285Y-72804761D01*
X132219047Y-72852380D01*
X131980952Y-72852380D01*
X131885714Y-72804761D01*
X131838095Y-72757142D01*
X132742857Y-71852380D02*
X133409523Y-71852380D01*
X132980952Y-72852380D01*
%TO.C,U4*%
X115238095Y-115452380D02*
X115238095Y-116261904D01*
X115285714Y-116357142D01*
X115333333Y-116404761D01*
X115428571Y-116452380D01*
X115619047Y-116452380D01*
X115714285Y-116404761D01*
X115761904Y-116357142D01*
X115809523Y-116261904D01*
X115809523Y-115452380D01*
X116714285Y-115785714D02*
X116714285Y-116452380D01*
X116476190Y-115404761D02*
X116238095Y-116119047D01*
X116857142Y-116119047D01*
%TO.C,R42*%
X150357142Y-76252380D02*
X150023809Y-75776190D01*
X149785714Y-76252380D02*
X149785714Y-75252380D01*
X150166666Y-75252380D01*
X150261904Y-75300000D01*
X150309523Y-75347619D01*
X150357142Y-75442857D01*
X150357142Y-75585714D01*
X150309523Y-75680952D01*
X150261904Y-75728571D01*
X150166666Y-75776190D01*
X149785714Y-75776190D01*
X151214285Y-75585714D02*
X151214285Y-76252380D01*
X150976190Y-75204761D02*
X150738095Y-75919047D01*
X151357142Y-75919047D01*
X151690476Y-75347619D02*
X151738095Y-75300000D01*
X151833333Y-75252380D01*
X152071428Y-75252380D01*
X152166666Y-75300000D01*
X152214285Y-75347619D01*
X152261904Y-75442857D01*
X152261904Y-75538095D01*
X152214285Y-75680952D01*
X151642857Y-76252380D01*
X152261904Y-76252380D01*
%TO.C,C26*%
X133457142Y-111457142D02*
X133409523Y-111504761D01*
X133266666Y-111552380D01*
X133171428Y-111552380D01*
X133028571Y-111504761D01*
X132933333Y-111409523D01*
X132885714Y-111314285D01*
X132838095Y-111123809D01*
X132838095Y-110980952D01*
X132885714Y-110790476D01*
X132933333Y-110695238D01*
X133028571Y-110600000D01*
X133171428Y-110552380D01*
X133266666Y-110552380D01*
X133409523Y-110600000D01*
X133457142Y-110647619D01*
X133838095Y-110647619D02*
X133885714Y-110600000D01*
X133980952Y-110552380D01*
X134219047Y-110552380D01*
X134314285Y-110600000D01*
X134361904Y-110647619D01*
X134409523Y-110742857D01*
X134409523Y-110838095D01*
X134361904Y-110980952D01*
X133790476Y-111552380D01*
X134409523Y-111552380D01*
X135266666Y-110552380D02*
X135076190Y-110552380D01*
X134980952Y-110600000D01*
X134933333Y-110647619D01*
X134838095Y-110790476D01*
X134790476Y-110980952D01*
X134790476Y-111361904D01*
X134838095Y-111457142D01*
X134885714Y-111504761D01*
X134980952Y-111552380D01*
X135171428Y-111552380D01*
X135266666Y-111504761D01*
X135314285Y-111457142D01*
X135361904Y-111361904D01*
X135361904Y-111123809D01*
X135314285Y-111028571D01*
X135266666Y-110980952D01*
X135171428Y-110933333D01*
X134980952Y-110933333D01*
X134885714Y-110980952D01*
X134838095Y-111028571D01*
X134790476Y-111123809D01*
%TO.C,R53*%
X125357142Y-97652380D02*
X125023809Y-97176190D01*
X124785714Y-97652380D02*
X124785714Y-96652380D01*
X125166666Y-96652380D01*
X125261904Y-96700000D01*
X125309523Y-96747619D01*
X125357142Y-96842857D01*
X125357142Y-96985714D01*
X125309523Y-97080952D01*
X125261904Y-97128571D01*
X125166666Y-97176190D01*
X124785714Y-97176190D01*
X126261904Y-96652380D02*
X125785714Y-96652380D01*
X125738095Y-97128571D01*
X125785714Y-97080952D01*
X125880952Y-97033333D01*
X126119047Y-97033333D01*
X126214285Y-97080952D01*
X126261904Y-97128571D01*
X126309523Y-97223809D01*
X126309523Y-97461904D01*
X126261904Y-97557142D01*
X126214285Y-97604761D01*
X126119047Y-97652380D01*
X125880952Y-97652380D01*
X125785714Y-97604761D01*
X125738095Y-97557142D01*
X126642857Y-96652380D02*
X127261904Y-96652380D01*
X126928571Y-97033333D01*
X127071428Y-97033333D01*
X127166666Y-97080952D01*
X127214285Y-97128571D01*
X127261904Y-97223809D01*
X127261904Y-97461904D01*
X127214285Y-97557142D01*
X127166666Y-97604761D01*
X127071428Y-97652380D01*
X126785714Y-97652380D01*
X126690476Y-97604761D01*
X126642857Y-97557142D01*
%TO.C,C22*%
X119157142Y-88442857D02*
X119204761Y-88490476D01*
X119252380Y-88633333D01*
X119252380Y-88728571D01*
X119204761Y-88871428D01*
X119109523Y-88966666D01*
X119014285Y-89014285D01*
X118823809Y-89061904D01*
X118680952Y-89061904D01*
X118490476Y-89014285D01*
X118395238Y-88966666D01*
X118300000Y-88871428D01*
X118252380Y-88728571D01*
X118252380Y-88633333D01*
X118300000Y-88490476D01*
X118347619Y-88442857D01*
X118347619Y-88061904D02*
X118300000Y-88014285D01*
X118252380Y-87919047D01*
X118252380Y-87680952D01*
X118300000Y-87585714D01*
X118347619Y-87538095D01*
X118442857Y-87490476D01*
X118538095Y-87490476D01*
X118680952Y-87538095D01*
X119252380Y-88109523D01*
X119252380Y-87490476D01*
X118347619Y-87109523D02*
X118300000Y-87061904D01*
X118252380Y-86966666D01*
X118252380Y-86728571D01*
X118300000Y-86633333D01*
X118347619Y-86585714D01*
X118442857Y-86538095D01*
X118538095Y-86538095D01*
X118680952Y-86585714D01*
X119252380Y-87157142D01*
X119252380Y-86538095D01*
%TO.C,C29*%
X105357142Y-95857142D02*
X105309523Y-95904761D01*
X105166666Y-95952380D01*
X105071428Y-95952380D01*
X104928571Y-95904761D01*
X104833333Y-95809523D01*
X104785714Y-95714285D01*
X104738095Y-95523809D01*
X104738095Y-95380952D01*
X104785714Y-95190476D01*
X104833333Y-95095238D01*
X104928571Y-95000000D01*
X105071428Y-94952380D01*
X105166666Y-94952380D01*
X105309523Y-95000000D01*
X105357142Y-95047619D01*
X105738095Y-95047619D02*
X105785714Y-95000000D01*
X105880952Y-94952380D01*
X106119047Y-94952380D01*
X106214285Y-95000000D01*
X106261904Y-95047619D01*
X106309523Y-95142857D01*
X106309523Y-95238095D01*
X106261904Y-95380952D01*
X105690476Y-95952380D01*
X106309523Y-95952380D01*
X106785714Y-95952380D02*
X106976190Y-95952380D01*
X107071428Y-95904761D01*
X107119047Y-95857142D01*
X107214285Y-95714285D01*
X107261904Y-95523809D01*
X107261904Y-95142857D01*
X107214285Y-95047619D01*
X107166666Y-95000000D01*
X107071428Y-94952380D01*
X106880952Y-94952380D01*
X106785714Y-95000000D01*
X106738095Y-95047619D01*
X106690476Y-95142857D01*
X106690476Y-95380952D01*
X106738095Y-95476190D01*
X106785714Y-95523809D01*
X106880952Y-95571428D01*
X107071428Y-95571428D01*
X107166666Y-95523809D01*
X107214285Y-95476190D01*
X107261904Y-95380952D01*
%TO.C,D2*%
X151761904Y-51352380D02*
X151761904Y-50352380D01*
X152000000Y-50352380D01*
X152142857Y-50400000D01*
X152238095Y-50495238D01*
X152285714Y-50590476D01*
X152333333Y-50780952D01*
X152333333Y-50923809D01*
X152285714Y-51114285D01*
X152238095Y-51209523D01*
X152142857Y-51304761D01*
X152000000Y-51352380D01*
X151761904Y-51352380D01*
X152714285Y-50447619D02*
X152761904Y-50400000D01*
X152857142Y-50352380D01*
X153095238Y-50352380D01*
X153190476Y-50400000D01*
X153238095Y-50447619D01*
X153285714Y-50542857D01*
X153285714Y-50638095D01*
X153238095Y-50780952D01*
X152666666Y-51352380D01*
X153285714Y-51352380D01*
%TO.C,R7*%
X125133333Y-81852380D02*
X124800000Y-81376190D01*
X124561904Y-81852380D02*
X124561904Y-80852380D01*
X124942857Y-80852380D01*
X125038095Y-80900000D01*
X125085714Y-80947619D01*
X125133333Y-81042857D01*
X125133333Y-81185714D01*
X125085714Y-81280952D01*
X125038095Y-81328571D01*
X124942857Y-81376190D01*
X124561904Y-81376190D01*
X125466666Y-80852380D02*
X126133333Y-80852380D01*
X125704761Y-81852380D01*
%TO.C,R50*%
X131457142Y-82152380D02*
X131123809Y-81676190D01*
X130885714Y-82152380D02*
X130885714Y-81152380D01*
X131266666Y-81152380D01*
X131361904Y-81200000D01*
X131409523Y-81247619D01*
X131457142Y-81342857D01*
X131457142Y-81485714D01*
X131409523Y-81580952D01*
X131361904Y-81628571D01*
X131266666Y-81676190D01*
X130885714Y-81676190D01*
X132361904Y-81152380D02*
X131885714Y-81152380D01*
X131838095Y-81628571D01*
X131885714Y-81580952D01*
X131980952Y-81533333D01*
X132219047Y-81533333D01*
X132314285Y-81580952D01*
X132361904Y-81628571D01*
X132409523Y-81723809D01*
X132409523Y-81961904D01*
X132361904Y-82057142D01*
X132314285Y-82104761D01*
X132219047Y-82152380D01*
X131980952Y-82152380D01*
X131885714Y-82104761D01*
X131838095Y-82057142D01*
X133028571Y-81152380D02*
X133123809Y-81152380D01*
X133219047Y-81200000D01*
X133266666Y-81247619D01*
X133314285Y-81342857D01*
X133361904Y-81533333D01*
X133361904Y-81771428D01*
X133314285Y-81961904D01*
X133266666Y-82057142D01*
X133219047Y-82104761D01*
X133123809Y-82152380D01*
X133028571Y-82152380D01*
X132933333Y-82104761D01*
X132885714Y-82057142D01*
X132838095Y-81961904D01*
X132790476Y-81771428D01*
X132790476Y-81533333D01*
X132838095Y-81342857D01*
X132885714Y-81247619D01*
X132933333Y-81200000D01*
X133028571Y-81152380D01*
D12*
%TO.C,Q5*%
X133712500Y-123640000D02*
X133062500Y-123640000D01*
X133712500Y-123640000D02*
X134362500Y-123640000D01*
X133712500Y-126760000D02*
X133062500Y-126760000D01*
X133712500Y-126760000D02*
X135387500Y-126760000D01*
%TO.C,Q4*%
X128812500Y-123640000D02*
X128162500Y-123640000D01*
X128812500Y-123640000D02*
X129462500Y-123640000D01*
X128812500Y-126760000D02*
X128162500Y-126760000D01*
X128812500Y-126760000D02*
X130487500Y-126760000D01*
%TO.C,Q3*%
X123912500Y-123640000D02*
X123262500Y-123640000D01*
X123912500Y-123640000D02*
X124562500Y-123640000D01*
X123912500Y-126760000D02*
X123262500Y-126760000D01*
X123912500Y-126760000D02*
X125587500Y-126760000D01*
%TO.C,Q2*%
X119012500Y-123640000D02*
X118362500Y-123640000D01*
X119012500Y-123640000D02*
X119662500Y-123640000D01*
X119012500Y-126760000D02*
X118362500Y-126760000D01*
X119012500Y-126760000D02*
X120687500Y-126760000D01*
%TO.C,Q1*%
X114112500Y-123640000D02*
X113462500Y-123640000D01*
X114112500Y-123640000D02*
X114762500Y-123640000D01*
X114112500Y-126760000D02*
X113462500Y-126760000D01*
X114112500Y-126760000D02*
X115787500Y-126760000D01*
%TO.C,C4*%
X154760000Y-55740000D02*
X153560000Y-55740000D01*
X150940000Y-61000000D02*
X150940000Y-60500000D01*
X153695563Y-60260000D02*
X153560000Y-60260000D01*
X150240000Y-55740000D02*
X151440000Y-55740000D01*
X150690000Y-60750000D02*
X151190000Y-60750000D01*
X153695563Y-60260000D02*
X154760000Y-59195563D01*
X151304437Y-60260000D02*
X150240000Y-59195563D01*
X150240000Y-59195563D02*
X150240000Y-55740000D01*
X154760000Y-59195563D02*
X154760000Y-55740000D01*
X151304437Y-60260000D02*
X151440000Y-60260000D01*
%TO.C,C18*%
X109153733Y-87510000D02*
X109446267Y-87510000D01*
X109153733Y-86490000D02*
X109446267Y-86490000D01*
%TO.C,R60*%
X147845276Y-70177500D02*
X148354724Y-70177500D01*
X147845276Y-71222500D02*
X148354724Y-71222500D01*
%TO.C,R6*%
X122954724Y-75122500D02*
X122445276Y-75122500D01*
X122954724Y-74077500D02*
X122445276Y-74077500D01*
%TO.C,R59*%
X147745276Y-81177500D02*
X148254724Y-81177500D01*
X147745276Y-82222500D02*
X148254724Y-82222500D01*
%TO.C,C21*%
X120510000Y-101453733D02*
X120510000Y-101746267D01*
X119490000Y-101453733D02*
X119490000Y-101746267D01*
%TO.C,R51*%
X147745276Y-83922500D02*
X148254724Y-83922500D01*
X147745276Y-82877500D02*
X148254724Y-82877500D01*
%TO.C,R4*%
X109045276Y-80222500D02*
X109554724Y-80222500D01*
X109045276Y-79177500D02*
X109554724Y-79177500D01*
%TO.C,R46*%
X147745276Y-74622500D02*
X148254724Y-74622500D01*
X147745276Y-73577500D02*
X148254724Y-73577500D01*
%TO.C,C24*%
X148060000Y-91553733D02*
X148060000Y-91846267D01*
X147040000Y-91553733D02*
X147040000Y-91846267D01*
%TO.C,R12*%
X123657776Y-127377500D02*
X124167224Y-127377500D01*
X123657776Y-128422500D02*
X124167224Y-128422500D01*
%TO.C,L1*%
X130689758Y-105040000D02*
X131510242Y-105040000D01*
X130689758Y-106160000D02*
X131510242Y-106160000D01*
%TO.C,R19*%
X109554724Y-108722500D02*
X109045276Y-108722500D01*
X109554724Y-107677500D02*
X109045276Y-107677500D01*
%TO.C,C20*%
X109153733Y-83090000D02*
X109446267Y-83090000D01*
X109153733Y-84110000D02*
X109446267Y-84110000D01*
%TO.C,C28*%
X109153733Y-94310000D02*
X109446267Y-94310000D01*
X109153733Y-93290000D02*
X109446267Y-93290000D01*
%TO.C,R21*%
X122445276Y-113722500D02*
X122954724Y-113722500D01*
X122445276Y-112677500D02*
X122954724Y-112677500D01*
%TO.C,R3*%
X109045276Y-81922500D02*
X109554724Y-81922500D01*
X109045276Y-80877500D02*
X109554724Y-80877500D01*
%TO.C,U6*%
X141600000Y-81535000D02*
X143550000Y-81535000D01*
X141600000Y-72665000D02*
X138150000Y-72665000D01*
X141600000Y-72665000D02*
X143550000Y-72665000D01*
X141600000Y-81535000D02*
X139650000Y-81535000D01*
%TO.C,J8*%
X144850000Y-125120000D02*
X153550000Y-125120000D01*
X153550000Y-125120000D02*
X153550000Y-131530000D01*
X153550000Y-130300000D02*
X144850000Y-130300000D01*
X144850000Y-131530000D02*
X144850000Y-125120000D01*
X144850000Y-131530000D02*
X153550000Y-131530000D01*
%TO.C,C3*%
X119110000Y-60150000D02*
X118610000Y-60150000D01*
X118860000Y-59900000D02*
X118860000Y-60400000D01*
X115040000Y-61704437D02*
X115040000Y-65160000D01*
X119560000Y-61704437D02*
X119560000Y-65160000D01*
X116104437Y-60640000D02*
X115040000Y-61704437D01*
X116104437Y-60640000D02*
X116240000Y-60640000D01*
X118495563Y-60640000D02*
X119560000Y-61704437D01*
X115040000Y-65160000D02*
X116240000Y-65160000D01*
X119560000Y-65160000D02*
X118360000Y-65160000D01*
X118495563Y-60640000D02*
X118360000Y-60640000D01*
%TO.C,R29*%
X109045276Y-89222500D02*
X109554724Y-89222500D01*
X109045276Y-88177500D02*
X109554724Y-88177500D01*
%TO.C,U2*%
X116000000Y-89640000D02*
X117950000Y-89640000D01*
X116000000Y-99760000D02*
X117950000Y-99760000D01*
X116000000Y-99760000D02*
X114050000Y-99760000D01*
X116000000Y-89640000D02*
X112550000Y-89640000D01*
%TO.C,R43*%
X135454724Y-74622500D02*
X134945276Y-74622500D01*
X135454724Y-73577500D02*
X134945276Y-73577500D01*
%TO.C,R32*%
X122445276Y-89877500D02*
X122954724Y-89877500D01*
X122445276Y-90922500D02*
X122954724Y-90922500D01*
%TO.C,R26*%
X122445276Y-107022500D02*
X122954724Y-107022500D01*
X122445276Y-105977500D02*
X122954724Y-105977500D01*
%TO.C,R45*%
X147745276Y-80522500D02*
X148254724Y-80522500D01*
X147745276Y-79477500D02*
X148254724Y-79477500D01*
%TO.C,R34*%
X109554724Y-90922500D02*
X109045276Y-90922500D01*
X109554724Y-89877500D02*
X109045276Y-89877500D01*
%TO.C,R20*%
X109554724Y-112677500D02*
X109045276Y-112677500D01*
X109554724Y-113722500D02*
X109045276Y-113722500D01*
%TO.C,C2*%
X110804437Y-60640000D02*
X110940000Y-60640000D01*
X113560000Y-59900000D02*
X113560000Y-60400000D01*
X113810000Y-60150000D02*
X113310000Y-60150000D01*
X114260000Y-65160000D02*
X113060000Y-65160000D01*
X114260000Y-61704437D02*
X114260000Y-65160000D01*
X113195563Y-60640000D02*
X113060000Y-60640000D01*
X109740000Y-65160000D02*
X110940000Y-65160000D01*
X110804437Y-60640000D02*
X109740000Y-61704437D01*
X109740000Y-61704437D02*
X109740000Y-65160000D01*
X113195563Y-60640000D02*
X114260000Y-61704437D01*
%TO.C,R1*%
X109045276Y-73422500D02*
X109554724Y-73422500D01*
X109045276Y-72377500D02*
X109554724Y-72377500D01*
%TO.C,R39*%
X131354724Y-91577500D02*
X130845276Y-91577500D01*
X131354724Y-92622500D02*
X130845276Y-92622500D01*
%TO.C,R52*%
X147745276Y-72922500D02*
X148254724Y-72922500D01*
X147745276Y-71877500D02*
X148254724Y-71877500D01*
%TO.C,C23*%
X135890000Y-95953733D02*
X135890000Y-96246267D01*
X136910000Y-95953733D02*
X136910000Y-96246267D01*
%TO.C,R24*%
X109554724Y-114377500D02*
X109045276Y-114377500D01*
X109554724Y-115422500D02*
X109045276Y-115422500D01*
%TO.C,C11*%
X146346267Y-111690000D02*
X146053733Y-111690000D01*
X146346267Y-112710000D02*
X146053733Y-112710000D01*
D11*
%TO.C,J5*%
X147050000Y-60000000D02*
X136600000Y-60000000D01*
X148250000Y-61300000D02*
X120330000Y-61300000D01*
X132100000Y-60000000D02*
X121530000Y-60000000D01*
X120330000Y-61300000D02*
X120330000Y-52360000D01*
X121530000Y-53660000D02*
X147050000Y-53660000D01*
X120330000Y-52360000D02*
X148250000Y-52360000D01*
X132155000Y-61300000D02*
X132155000Y-60000000D01*
X147050000Y-53660000D02*
X147050000Y-60000000D01*
X148250000Y-52360000D02*
X148250000Y-61300000D01*
X121530000Y-60000000D02*
X121530000Y-53660000D01*
X136605000Y-60000000D02*
X136605000Y-61300000D01*
X120955000Y-51750000D02*
X124130000Y-51750000D01*
X124130000Y-51750000D02*
X124130000Y-61910000D01*
X124130000Y-61910000D02*
X120955000Y-61910000D01*
X120955000Y-61910000D02*
X120955000Y-51750000D01*
G36*
X124130000Y-61910000D02*
G01*
X120955000Y-61910000D01*
X120955000Y-51750000D01*
X124130000Y-51750000D01*
X124130000Y-61910000D01*
G37*
X124130000Y-61910000D02*
X120955000Y-61910000D01*
X120955000Y-51750000D01*
X124130000Y-51750000D01*
X124130000Y-61910000D01*
D12*
%TO.C,R44*%
X135454724Y-79477500D02*
X134945276Y-79477500D01*
X135454724Y-80522500D02*
X134945276Y-80522500D01*
%TO.C,R41*%
X131354724Y-88177500D02*
X130845276Y-88177500D01*
X131354724Y-89222500D02*
X130845276Y-89222500D01*
%TO.C,R36*%
X135454724Y-76322500D02*
X134945276Y-76322500D01*
X135454724Y-75277500D02*
X134945276Y-75277500D01*
%TO.C,R31*%
X109045276Y-84777500D02*
X109554724Y-84777500D01*
X109045276Y-85822500D02*
X109554724Y-85822500D01*
%TO.C,R14*%
X109045276Y-101122500D02*
X109554724Y-101122500D01*
X109045276Y-100077500D02*
X109554724Y-100077500D01*
%TO.C,R48*%
X133457776Y-127377500D02*
X133967224Y-127377500D01*
X133457776Y-128422500D02*
X133967224Y-128422500D01*
%TO.C,R16*%
X118757776Y-121977500D02*
X119267224Y-121977500D01*
X118757776Y-123022500D02*
X119267224Y-123022500D01*
%TO.C,R55*%
X109554724Y-97722500D02*
X109045276Y-97722500D01*
X109554724Y-96677500D02*
X109045276Y-96677500D01*
%TO.C,C1*%
X108410000Y-60150000D02*
X107910000Y-60150000D01*
X108860000Y-61704437D02*
X108860000Y-65160000D01*
X105404437Y-60640000D02*
X104340000Y-61704437D01*
X108160000Y-59900000D02*
X108160000Y-60400000D01*
X107795563Y-60640000D02*
X107660000Y-60640000D01*
X104340000Y-61704437D02*
X104340000Y-65160000D01*
X107795563Y-60640000D02*
X108860000Y-61704437D01*
X108860000Y-65160000D02*
X107660000Y-65160000D01*
X104340000Y-65160000D02*
X105540000Y-65160000D01*
X105404437Y-60640000D02*
X105540000Y-60640000D01*
%TO.C,R35*%
X131354724Y-93277500D02*
X130845276Y-93277500D01*
X131354724Y-94322500D02*
X130845276Y-94322500D01*
%TO.C,U1*%
X146710000Y-108710000D02*
X145760000Y-108710000D01*
X136490000Y-108710000D02*
X137440000Y-108710000D01*
X136490000Y-99440000D02*
X136490000Y-98490000D01*
X146710000Y-98490000D02*
X145760000Y-98490000D01*
X136490000Y-107760000D02*
X136490000Y-108710000D01*
X146710000Y-107760000D02*
X146710000Y-108710000D01*
X146710000Y-99440000D02*
X146710000Y-98490000D01*
X145760000Y-98490000D02*
X145760000Y-97150000D01*
X136490000Y-98490000D02*
X137440000Y-98490000D01*
%TO.C,Y1*%
X139750000Y-93650000D02*
X146300000Y-93650000D01*
X146300000Y-89750000D02*
X139750000Y-89750000D01*
X139750000Y-89750000D02*
X139750000Y-93650000D01*
%TO.C,R28*%
X122954724Y-101122500D02*
X122445276Y-101122500D01*
X122954724Y-100077500D02*
X122445276Y-100077500D01*
%TO.C,U5*%
X116000000Y-72665000D02*
X112550000Y-72665000D01*
X116000000Y-72665000D02*
X117950000Y-72665000D01*
X116000000Y-81535000D02*
X117950000Y-81535000D01*
X116000000Y-81535000D02*
X114050000Y-81535000D01*
%TO.C,R22*%
X122445276Y-107677500D02*
X122954724Y-107677500D01*
X122445276Y-108722500D02*
X122954724Y-108722500D01*
%TO.C,R8*%
X122954724Y-80222500D02*
X122445276Y-80222500D01*
X122954724Y-79177500D02*
X122445276Y-79177500D01*
%TO.C,R11*%
X118757776Y-128422500D02*
X119267224Y-128422500D01*
X118757776Y-127377500D02*
X119267224Y-127377500D01*
%TO.C,C12*%
X130953733Y-101590000D02*
X131246267Y-101590000D01*
X130953733Y-102610000D02*
X131246267Y-102610000D01*
%TO.C,R23*%
X109554724Y-107022500D02*
X109045276Y-107022500D01*
X109554724Y-105977500D02*
X109045276Y-105977500D01*
%TO.C,R18*%
X129067224Y-123022500D02*
X128557776Y-123022500D01*
X129067224Y-121977500D02*
X128557776Y-121977500D01*
%TO.C,R49*%
X133457776Y-123022500D02*
X133967224Y-123022500D01*
X133457776Y-121977500D02*
X133967224Y-121977500D01*
%TO.C,R37*%
X131342224Y-89877500D02*
X130832776Y-89877500D01*
X131342224Y-90922500D02*
X130832776Y-90922500D01*
%TO.C,R56*%
X122445276Y-92622500D02*
X122954724Y-92622500D01*
X122445276Y-91577500D02*
X122954724Y-91577500D01*
%TO.C,D1*%
X116450000Y-56400000D02*
X118450000Y-56400000D01*
X116450000Y-56400000D02*
X116450000Y-52500000D01*
X118450000Y-56400000D02*
X118450000Y-52500000D01*
%TO.C,R54*%
X109554724Y-92622500D02*
X109045276Y-92622500D01*
X109554724Y-91577500D02*
X109045276Y-91577500D01*
%TO.C,R10*%
X113857776Y-127377500D02*
X114367224Y-127377500D01*
X113857776Y-128422500D02*
X114367224Y-128422500D01*
%TO.C,R47*%
X135454724Y-70177500D02*
X134945276Y-70177500D01*
X135454724Y-71222500D02*
X134945276Y-71222500D01*
D11*
%TO.C,J7*%
X153770000Y-119980000D02*
X153770000Y-109820000D01*
X151230000Y-119980000D02*
X153770000Y-119980000D01*
X151230000Y-109820000D02*
X151230000Y-119980000D01*
X153770000Y-109820000D02*
X151230000Y-109820000D01*
D12*
%TO.C,R40*%
X147745276Y-78822500D02*
X148254724Y-78822500D01*
X147745276Y-77777500D02*
X148254724Y-77777500D01*
%TO.C,R38*%
X135454724Y-78822500D02*
X134945276Y-78822500D01*
X135454724Y-77777500D02*
X134945276Y-77777500D01*
%TO.C,C10*%
X146346267Y-113490000D02*
X146053733Y-113490000D01*
X146346267Y-114510000D02*
X146053733Y-114510000D01*
%TO.C,C27*%
X122846267Y-96010000D02*
X122553733Y-96010000D01*
X122846267Y-94990000D02*
X122553733Y-94990000D01*
%TO.C,R5*%
X122954724Y-72377500D02*
X122445276Y-72377500D01*
X122954724Y-73422500D02*
X122445276Y-73422500D01*
%TO.C,R30*%
X109554724Y-99422500D02*
X109045276Y-99422500D01*
X109554724Y-98377500D02*
X109045276Y-98377500D01*
%TO.C,C30*%
X122846267Y-94310000D02*
X122553733Y-94310000D01*
X122846267Y-93290000D02*
X122553733Y-93290000D01*
%TO.C,J6*%
X159305000Y-94370000D02*
X159305000Y-95700000D01*
X157975000Y-94370000D02*
X159305000Y-94370000D01*
X156705000Y-94370000D02*
X154105000Y-94370000D01*
X154105000Y-94370000D02*
X154105000Y-97030000D01*
X156705000Y-94370000D02*
X156705000Y-97030000D01*
X156705000Y-97030000D02*
X154105000Y-97030000D01*
%TO.C,C25*%
X139210000Y-91553733D02*
X139210000Y-91846267D01*
X138190000Y-91553733D02*
X138190000Y-91846267D01*
%TO.C,C15*%
X130953733Y-108590000D02*
X131246267Y-108590000D01*
X130953733Y-109610000D02*
X131246267Y-109610000D01*
%TO.C,R9*%
X151542224Y-100877500D02*
X151032776Y-100877500D01*
X151542224Y-101922500D02*
X151032776Y-101922500D01*
%TO.C,C5*%
X109446267Y-76810000D02*
X109153733Y-76810000D01*
X109446267Y-75790000D02*
X109153733Y-75790000D01*
%TO.C,R2*%
X109045276Y-75122500D02*
X109554724Y-75122500D01*
X109045276Y-74077500D02*
X109554724Y-74077500D01*
%TO.C,R58*%
X134945276Y-83922500D02*
X135454724Y-83922500D01*
X134945276Y-82877500D02*
X135454724Y-82877500D01*
%TO.C,R33*%
X122954724Y-88177500D02*
X122445276Y-88177500D01*
X122954724Y-89222500D02*
X122445276Y-89222500D01*
%TO.C,C13*%
X130953733Y-104110000D02*
X131246267Y-104110000D01*
X130953733Y-103090000D02*
X131246267Y-103090000D01*
%TO.C,U3*%
X113750000Y-58460000D02*
X107740000Y-58460000D01*
X111500000Y-51640000D02*
X107740000Y-51640000D01*
X107740000Y-51640000D02*
X107740000Y-52900000D01*
X107740000Y-58460000D02*
X107740000Y-57200000D01*
%TO.C,R13*%
X128557776Y-128422500D02*
X129067224Y-128422500D01*
X128557776Y-127377500D02*
X129067224Y-127377500D01*
%TO.C,C16*%
X122846267Y-101790000D02*
X122553733Y-101790000D01*
X122846267Y-102810000D02*
X122553733Y-102810000D01*
%TO.C,R25*%
X122445276Y-114377500D02*
X122954724Y-114377500D01*
X122445276Y-115422500D02*
X122954724Y-115422500D01*
%TO.C,R27*%
X122445276Y-98377500D02*
X122954724Y-98377500D01*
X122445276Y-99422500D02*
X122954724Y-99422500D01*
%TO.C,C7*%
X122553733Y-77490000D02*
X122846267Y-77490000D01*
X122553733Y-78510000D02*
X122846267Y-78510000D01*
%TO.C,C9*%
X151446267Y-99190000D02*
X151153733Y-99190000D01*
X151446267Y-100210000D02*
X151153733Y-100210000D01*
%TO.C,RESET1*%
X153500000Y-85050000D02*
X153500000Y-91750000D01*
X155400000Y-91750000D02*
X157800000Y-91750000D01*
X153500000Y-85050000D02*
X153700000Y-85050000D01*
X153500000Y-91750000D02*
X153700000Y-91750000D01*
X159700000Y-91750000D02*
X159700000Y-85050000D01*
X155400000Y-85050000D02*
X157800000Y-85050000D01*
X159700000Y-91750000D02*
X159500000Y-91750000D01*
X159700000Y-85050000D02*
X159500000Y-85050000D01*
%TO.C,C6*%
X109446267Y-78510000D02*
X109153733Y-78510000D01*
X109446267Y-77490000D02*
X109153733Y-77490000D01*
%TO.C,C19*%
X109153733Y-101790000D02*
X109446267Y-101790000D01*
X109153733Y-102810000D02*
X109446267Y-102810000D01*
%TO.C,C14*%
X130953733Y-108110000D02*
X131246267Y-108110000D01*
X130953733Y-107090000D02*
X131246267Y-107090000D01*
%TO.C,C17*%
X122846267Y-86490000D02*
X122553733Y-86490000D01*
X122846267Y-87510000D02*
X122553733Y-87510000D01*
%TO.C,R15*%
X113857776Y-121977500D02*
X114367224Y-121977500D01*
X113857776Y-123022500D02*
X114367224Y-123022500D01*
%TO.C,R17*%
X123657776Y-123022500D02*
X124167224Y-123022500D01*
X123657776Y-121977500D02*
X124167224Y-121977500D01*
%TO.C,C8*%
X122553733Y-75790000D02*
X122846267Y-75790000D01*
X122553733Y-76810000D02*
X122846267Y-76810000D01*
%TO.C,R57*%
X134945276Y-71877500D02*
X135454724Y-71877500D01*
X134945276Y-72922500D02*
X135454724Y-72922500D01*
%TO.C,U4*%
X116000000Y-106265000D02*
X117950000Y-106265000D01*
X116000000Y-115135000D02*
X117950000Y-115135000D01*
X116000000Y-106265000D02*
X112550000Y-106265000D01*
X116000000Y-115135000D02*
X114050000Y-115135000D01*
%TO.C,R42*%
X147745276Y-75277500D02*
X148254724Y-75277500D01*
X147745276Y-76322500D02*
X148254724Y-76322500D01*
%TO.C,C26*%
X135890000Y-111246267D02*
X135890000Y-110953733D01*
X136910000Y-111246267D02*
X136910000Y-110953733D01*
%TO.C,R53*%
X122445276Y-96677500D02*
X122954724Y-96677500D01*
X122445276Y-97722500D02*
X122954724Y-97722500D01*
%TO.C,C22*%
X120610000Y-87653733D02*
X120610000Y-87946267D01*
X119590000Y-87653733D02*
X119590000Y-87946267D01*
%TO.C,C29*%
X109153733Y-96010000D02*
X109446267Y-96010000D01*
X109153733Y-94990000D02*
X109446267Y-94990000D01*
%TO.C,D2*%
X150250000Y-51900000D02*
X154150000Y-51900000D01*
X150250000Y-53900000D02*
X154150000Y-53900000D01*
X150250000Y-51900000D02*
X150250000Y-53900000D01*
%TO.C,R7*%
X122954724Y-81922500D02*
X122445276Y-81922500D01*
X122954724Y-80877500D02*
X122445276Y-80877500D01*
%TO.C,R50*%
X134945276Y-81177500D02*
X135454724Y-81177500D01*
X134945276Y-82222500D02*
X135454724Y-82222500D01*
%TD*%
M02*
