%TF.GenerationSoftware,KiCad,Pcbnew,(5.99.0-12348-g4b436fb86d)*%
%TF.CreationDate,2021-09-23T11:19:06+01:00*%
%TF.ProjectId,Ampelope_Components,416d7065-6c6f-4706-955f-436f6d706f6e,rev?*%
%TF.SameCoordinates,Original*%
%TF.FileFunction,Soldermask,Bot*%
%TF.FilePolarity,Negative*%
%FSLAX46Y46*%
G04 Gerber Fmt 4.6, Leading zero omitted, Abs format (unit mm)*
G04 Created by KiCad (PCBNEW (5.99.0-12348-g4b436fb86d)) date 2021-09-23 11:19:06*
%MOMM*%
%LPD*%
G01*
G04 APERTURE LIST*
%ADD10C,0.100000*%
%ADD11O,1.250000X0.950000*%
%ADD12O,1.000000X1.550000*%
%ADD13R,1.700000X1.700000*%
%ADD14O,1.700000X1.700000*%
%ADD15C,1.700000*%
%ADD16C,2.000000*%
G04 APERTURE END LIST*
D10*
%TO.C,FID1*%
X103000000Y-86600000D02*
X103000000Y-94600000D01*
X103000000Y-94600000D02*
X101000000Y-94600000D01*
X101000000Y-94600000D02*
X101000000Y-86600000D01*
X101000000Y-86600000D02*
X103000000Y-86600000D01*
G36*
X103000000Y-94600000D02*
G01*
X101000000Y-94600000D01*
X101000000Y-86600000D01*
X103000000Y-86600000D01*
X103000000Y-94600000D01*
G37*
X103000000Y-94600000D02*
X101000000Y-94600000D01*
X101000000Y-86600000D01*
X103000000Y-86600000D01*
X103000000Y-94600000D01*
%TD*%
D11*
%TO.C,J8*%
X151700000Y-126150000D03*
D12*
X152700000Y-128850000D03*
D11*
X146700000Y-126150000D03*
D12*
X145700000Y-128850000D03*
%TD*%
D13*
%TO.C,J9*%
X147225000Y-67500000D03*
D14*
X149765000Y-67500000D03*
%TD*%
D13*
%TO.C,J5*%
X125400000Y-58100000D03*
D15*
X125400000Y-55560000D03*
X127940000Y-58100000D03*
X127940000Y-55560000D03*
X130480000Y-58100000D03*
X130480000Y-55560000D03*
X133020000Y-58100000D03*
X133020000Y-55560000D03*
X135560000Y-58100000D03*
X135560000Y-55560000D03*
X138100000Y-58100000D03*
X138100000Y-55560000D03*
X140640000Y-58100000D03*
X140640000Y-55560000D03*
X143180000Y-58100000D03*
X143180000Y-55560000D03*
%TD*%
D16*
%TO.C,TP2*%
X125400000Y-67000000D03*
%TD*%
%TO.C,TP4*%
X138600000Y-67000000D03*
%TD*%
%TO.C,TP3*%
X129800000Y-67000000D03*
%TD*%
D13*
%TO.C,J7*%
X152500000Y-118710000D03*
D15*
X152500000Y-116170000D03*
X152500000Y-113630000D03*
X152500000Y-111090000D03*
%TD*%
D13*
%TO.C,J6*%
X157975000Y-95700000D03*
D14*
X155435000Y-95700000D03*
%TD*%
D16*
%TO.C,TP1*%
X134200000Y-67000000D03*
%TD*%
%TO.C,TP5*%
X140400000Y-127100000D03*
%TD*%
D13*
%TO.C,J4*%
X158500000Y-101100000D03*
D14*
X158500000Y-103640000D03*
X158500000Y-106180000D03*
X158500000Y-108720000D03*
X158500000Y-111260000D03*
X158500000Y-113800000D03*
X158500000Y-116340000D03*
X158500000Y-118880000D03*
X158500000Y-121420000D03*
X158500000Y-123960000D03*
X158500000Y-126500000D03*
X158500000Y-129040000D03*
%TD*%
D13*
%TO.C,J2*%
X102000000Y-101100000D03*
D14*
X102000000Y-103640000D03*
X102000000Y-106180000D03*
X102000000Y-108720000D03*
X102000000Y-111260000D03*
X102000000Y-113800000D03*
X102000000Y-116340000D03*
X102000000Y-118880000D03*
X102000000Y-121420000D03*
X102000000Y-123960000D03*
X102000000Y-126500000D03*
X102000000Y-129040000D03*
%TD*%
D13*
%TO.C,J1*%
X102000000Y-52100000D03*
D14*
X102000000Y-54640000D03*
X102000000Y-57180000D03*
X102000000Y-59720000D03*
X102000000Y-62260000D03*
X102000000Y-64800000D03*
X102000000Y-67340000D03*
X102000000Y-69880000D03*
X102000000Y-72420000D03*
X102000000Y-74960000D03*
X102000000Y-77500000D03*
X102000000Y-80040000D03*
%TD*%
D13*
%TO.C,J3*%
X158500000Y-52100000D03*
D14*
X158500000Y-54640000D03*
X158500000Y-57180000D03*
X158500000Y-59720000D03*
X158500000Y-62260000D03*
X158500000Y-64800000D03*
X158500000Y-67340000D03*
X158500000Y-69880000D03*
X158500000Y-72420000D03*
X158500000Y-74960000D03*
X158500000Y-77500000D03*
X158500000Y-80040000D03*
%TD*%
M02*
