%TF.GenerationSoftware,KiCad,Pcbnew,(5.99.0-12348-g4b436fb86d)*%
%TF.CreationDate,2021-09-23T11:19:06+01:00*%
%TF.ProjectId,Ampelope_Components,416d7065-6c6f-4706-955f-436f6d706f6e,rev?*%
%TF.SameCoordinates,Original*%
%TF.FileFunction,Legend,Bot*%
%TF.FilePolarity,Positive*%
%FSLAX46Y46*%
G04 Gerber Fmt 4.6, Leading zero omitted, Abs format (unit mm)*
G04 Created by KiCad (PCBNEW (5.99.0-12348-g4b436fb86d)) date 2021-09-23 11:19:06*
%MOMM*%
%LPD*%
G01*
G04 APERTURE LIST*
%ADD10C,0.150000*%
%ADD11C,0.120000*%
G04 APERTURE END LIST*
D10*
%TO.C,J4*%
X158833333Y-98222380D02*
X158833333Y-98936666D01*
X158880952Y-99079523D01*
X158976190Y-99174761D01*
X159119047Y-99222380D01*
X159214285Y-99222380D01*
X157928571Y-98555714D02*
X157928571Y-99222380D01*
X158166666Y-98174761D02*
X158404761Y-98889047D01*
X157785714Y-98889047D01*
%TO.C,J2*%
X102333333Y-98222380D02*
X102333333Y-98936666D01*
X102380952Y-99079523D01*
X102476190Y-99174761D01*
X102619047Y-99222380D01*
X102714285Y-99222380D01*
X101904761Y-98317619D02*
X101857142Y-98270000D01*
X101761904Y-98222380D01*
X101523809Y-98222380D01*
X101428571Y-98270000D01*
X101380952Y-98317619D01*
X101333333Y-98412857D01*
X101333333Y-98508095D01*
X101380952Y-98650952D01*
X101952380Y-99222380D01*
X101333333Y-99222380D01*
%TO.C,J1*%
X102333333Y-82152380D02*
X102333333Y-82866666D01*
X102380952Y-83009523D01*
X102476190Y-83104761D01*
X102619047Y-83152380D01*
X102714285Y-83152380D01*
X101333333Y-83152380D02*
X101904761Y-83152380D01*
X101619047Y-83152380D02*
X101619047Y-82152380D01*
X101714285Y-82295238D01*
X101809523Y-82390476D01*
X101904761Y-82438095D01*
%TO.C,J3*%
X158833333Y-81952380D02*
X158833333Y-82666666D01*
X158880952Y-82809523D01*
X158976190Y-82904761D01*
X159119047Y-82952380D01*
X159214285Y-82952380D01*
X158452380Y-81952380D02*
X157833333Y-81952380D01*
X158166666Y-82333333D01*
X158023809Y-82333333D01*
X157928571Y-82380952D01*
X157880952Y-82428571D01*
X157833333Y-82523809D01*
X157833333Y-82761904D01*
X157880952Y-82857142D01*
X157928571Y-82904761D01*
X158023809Y-82952380D01*
X158309523Y-82952380D01*
X158404761Y-82904761D01*
X158452380Y-82857142D01*
D11*
%TO.C,J4*%
X159830000Y-99770000D02*
X158500000Y-99770000D01*
X159830000Y-102370000D02*
X157170000Y-102370000D01*
X159830000Y-130370000D02*
X157170000Y-130370000D01*
X157170000Y-102370000D02*
X157170000Y-130370000D01*
X159830000Y-102370000D02*
X159830000Y-130370000D01*
X159830000Y-101100000D02*
X159830000Y-99770000D01*
%TO.C,J2*%
X103330000Y-102370000D02*
X100670000Y-102370000D01*
X103330000Y-102370000D02*
X103330000Y-130370000D01*
X103330000Y-130370000D02*
X100670000Y-130370000D01*
X103330000Y-101100000D02*
X103330000Y-99770000D01*
X100670000Y-102370000D02*
X100670000Y-130370000D01*
X103330000Y-99770000D02*
X102000000Y-99770000D01*
%TO.C,J1*%
X103330000Y-81370000D02*
X100670000Y-81370000D01*
X103330000Y-50770000D02*
X102000000Y-50770000D01*
X103330000Y-53370000D02*
X103330000Y-81370000D01*
X100670000Y-53370000D02*
X100670000Y-81370000D01*
X103330000Y-52100000D02*
X103330000Y-50770000D01*
X103330000Y-53370000D02*
X100670000Y-53370000D01*
%TO.C,J3*%
X159830000Y-53370000D02*
X159830000Y-81370000D01*
X159830000Y-53370000D02*
X157170000Y-53370000D01*
X159830000Y-52100000D02*
X159830000Y-50770000D01*
X157170000Y-53370000D02*
X157170000Y-81370000D01*
X159830000Y-50770000D02*
X158500000Y-50770000D01*
X159830000Y-81370000D02*
X157170000Y-81370000D01*
%TD*%
M02*
