%TF.GenerationSoftware,KiCad,Pcbnew,(5.99.0-12348-g4b436fb86d)*%
%TF.CreationDate,2021-09-22T22:38:01+01:00*%
%TF.ProjectId,Ampelope_Panel,416d7065-6c6f-4706-955f-50616e656c2e,rev?*%
%TF.SameCoordinates,Original*%
%TF.FileFunction,Soldermask,Top*%
%TF.FilePolarity,Negative*%
%FSLAX46Y46*%
G04 Gerber Fmt 4.6, Leading zero omitted, Abs format (unit mm)*
G04 Created by KiCad (PCBNEW (5.99.0-12348-g4b436fb86d)) date 2021-09-22 22:38:01*
%MOMM*%
%LPD*%
G01*
G04 APERTURE LIST*
%ADD10C,0.200000*%
%ADD11C,0.600000*%
%ADD12C,0.800000*%
%ADD13C,0.100000*%
%ADD14C,0.300000*%
%ADD15C,5.000000*%
%ADD16C,7.000000*%
%ADD17O,5.000000X3.200000*%
%ADD18C,6.000000*%
%ADD19C,3.000000*%
G04 APERTURE END LIST*
D10*
X138300000Y-70900000D02*
X141700000Y-68100000D01*
X150500000Y-96100000D02*
X155700000Y-89700000D01*
D11*
X130300000Y-82401777D02*
X130300000Y-82198222D01*
D10*
X120200000Y-126550000D02*
X120200000Y-138650000D01*
D11*
X131100000Y-76500000D02*
X130300000Y-75800000D01*
D12*
X109700000Y-143300000D02*
X100700000Y-143300000D01*
X100700000Y-143300000D02*
X100700000Y-134200000D01*
X100700000Y-134200000D02*
X109700000Y-134200000D01*
X109700000Y-134200000D02*
X109700000Y-143300000D01*
G36*
X109700000Y-143300000D02*
G01*
X100700000Y-143300000D01*
X100700000Y-134200000D01*
X109700000Y-134200000D01*
X109700000Y-143300000D01*
G37*
X109700000Y-143300000D02*
X100700000Y-143300000D01*
X100700000Y-134200000D01*
X109700000Y-134200000D01*
X109700000Y-143300000D01*
D10*
X150500000Y-76700000D02*
X155700000Y-70300000D01*
D12*
X109700000Y-157200000D02*
X100700000Y-157200000D01*
X100700000Y-157200000D02*
X100700000Y-148100000D01*
X100700000Y-148100000D02*
X109700000Y-148100000D01*
X109700000Y-148100000D02*
X109700000Y-157200000D01*
G36*
X109700000Y-157200000D02*
G01*
X100700000Y-157200000D01*
X100700000Y-148100000D01*
X109700000Y-148100000D01*
X109700000Y-157200000D01*
G37*
X109700000Y-157200000D02*
X100700000Y-157200000D01*
X100700000Y-148100000D01*
X109700000Y-148100000D01*
X109700000Y-157200000D01*
X125300000Y-138700000D02*
X105250000Y-138700000D01*
D10*
X124000000Y-79100000D02*
X124000000Y-74100000D01*
X107100000Y-130200000D02*
G75*
G03*
X107100000Y-130200000I-1920937J0D01*
G01*
X110100000Y-57300000D02*
X104900000Y-50900000D01*
D12*
X144500000Y-130800000D02*
X136100000Y-130800000D01*
X136100000Y-130800000D02*
X136100000Y-122400000D01*
X136100000Y-122400000D02*
X144500000Y-122400000D01*
X144500000Y-122400000D02*
X144500000Y-130800000D01*
G36*
X144500000Y-130800000D02*
G01*
X136100000Y-130800000D01*
X136100000Y-122400000D01*
X144500000Y-122400000D01*
X144500000Y-130800000D01*
G37*
X144500000Y-130800000D02*
X136100000Y-130800000D01*
X136100000Y-122400000D01*
X144500000Y-122400000D01*
X144500000Y-130800000D01*
X159700000Y-143350000D02*
X150700000Y-143350000D01*
X150700000Y-143350000D02*
X150700000Y-134250000D01*
X150700000Y-134250000D02*
X159700000Y-134250000D01*
X159700000Y-134250000D02*
X159700000Y-143350000D01*
G36*
X159700000Y-143350000D02*
G01*
X150700000Y-143350000D01*
X150700000Y-134250000D01*
X159700000Y-134250000D01*
X159700000Y-143350000D01*
G37*
X159700000Y-143350000D02*
X150700000Y-143350000D01*
X150700000Y-134250000D01*
X159700000Y-134250000D01*
X159700000Y-143350000D01*
D11*
X131837500Y-95450000D02*
X128762500Y-95450000D01*
D10*
X159000000Y-68700000D02*
G75*
G03*
X159000000Y-68700000I-2000000J0D01*
G01*
X110100000Y-115500000D02*
X104900000Y-109100000D01*
D11*
X130465602Y-82403555D02*
X130134398Y-82400000D01*
D10*
X105600000Y-68700000D02*
G75*
G03*
X105600000Y-68700000I-2000000J0D01*
G01*
X159000000Y-88100000D02*
G75*
G03*
X159000000Y-88100000I-2000000J0D01*
G01*
D12*
X124400000Y-130800000D02*
X116000000Y-130800000D01*
X116000000Y-130800000D02*
X116000000Y-122400000D01*
X116000000Y-122400000D02*
X124400000Y-122400000D01*
X124400000Y-122400000D02*
X124400000Y-130800000D01*
G36*
X124400000Y-130800000D02*
G01*
X116000000Y-130800000D01*
X116000000Y-122400000D01*
X124400000Y-122400000D01*
X124400000Y-130800000D01*
G37*
X124400000Y-130800000D02*
X116000000Y-130800000D01*
X116000000Y-122400000D01*
X124400000Y-122400000D01*
X124400000Y-130800000D01*
D10*
X150500000Y-115500000D02*
X155700000Y-109100000D01*
D12*
X155200000Y-138700000D02*
X135300000Y-138700000D01*
D10*
X155200000Y-153379063D02*
X155200000Y-158579063D01*
D12*
X155200000Y-152600000D02*
X135300000Y-152600000D01*
D10*
X107100000Y-160400000D02*
G75*
G03*
X107100000Y-160400000I-1920937J0D01*
G01*
D11*
X131837500Y-79450000D02*
X130300000Y-78750000D01*
D10*
X142988338Y-48400000D02*
X117383764Y-48400000D01*
X112877449Y-43900000D02*
X117383764Y-48400000D01*
D11*
X131100000Y-92500000D02*
X129500000Y-92500000D01*
D10*
X105200000Y-132100000D02*
X105200000Y-137300000D01*
X105600000Y-107500000D02*
G75*
G03*
X105600000Y-107500000I-2000000J0D01*
G01*
X159000000Y-107500000D02*
G75*
G03*
X159000000Y-107500000I-2000000J0D01*
G01*
D11*
X129065602Y-98401777D02*
X129065602Y-98198222D01*
X129100000Y-82401777D02*
X129100000Y-82198222D01*
X131837500Y-95450000D02*
X130300000Y-94750000D01*
D10*
X138300000Y-103600000D02*
X141700000Y-106400000D01*
X157120937Y-160500000D02*
G75*
G03*
X157120937Y-160500000I-1920937J0D01*
G01*
X105600000Y-88100000D02*
G75*
G03*
X105600000Y-88100000I-2000000J0D01*
G01*
D11*
X130300000Y-98401777D02*
X130300000Y-98198222D01*
D13*
X130300000Y-133800000D02*
X130300000Y-133800000D01*
D11*
X131100000Y-76500000D02*
X129500000Y-76500000D01*
X130300000Y-75800000D02*
X129500000Y-76500000D01*
D10*
X157120937Y-130400000D02*
G75*
G03*
X157120937Y-130400000I-1920937J0D01*
G01*
D11*
X131665602Y-98403555D02*
X131334398Y-98400000D01*
D10*
X147688338Y-43900000D02*
X142988338Y-48400000D01*
D11*
X130300000Y-94750000D02*
X128762500Y-95450000D01*
D10*
X112877449Y-43900000D02*
X99900000Y-43900000D01*
X140300000Y-126400000D02*
X140300000Y-138700000D01*
D11*
X130300000Y-91800000D02*
X129500000Y-92500000D01*
D10*
X138700000Y-102400000D02*
G75*
G03*
X138700000Y-102400000I-2000000J0D01*
G01*
X117597713Y-161900000D02*
X143202287Y-161900000D01*
X136700000Y-79300000D02*
X136700000Y-74100000D01*
D11*
X130465602Y-98403555D02*
X130134398Y-98400000D01*
D10*
X99886051Y-166400000D02*
X112897713Y-166400000D01*
D12*
X159700000Y-157250000D02*
X150700000Y-157250000D01*
X150700000Y-157250000D02*
X150700000Y-148150000D01*
X150700000Y-148150000D02*
X159700000Y-148150000D01*
X159700000Y-148150000D02*
X159700000Y-157250000D01*
G36*
X159700000Y-157250000D02*
G01*
X150700000Y-157250000D01*
X150700000Y-148150000D01*
X159700000Y-148150000D01*
X159700000Y-157250000D01*
G37*
X159700000Y-157250000D02*
X150700000Y-157250000D01*
X150700000Y-148150000D01*
X159700000Y-148150000D01*
X159700000Y-157250000D01*
D10*
X118900000Y-68100000D02*
X122400000Y-70900000D01*
X123900000Y-95200000D02*
X123900000Y-100400000D01*
X159000000Y-49300000D02*
G75*
G03*
X159000000Y-49300000I-2000000J0D01*
G01*
D11*
X131665602Y-82403555D02*
X131334398Y-82400000D01*
D12*
X125200000Y-152600000D02*
X105250000Y-152600000D01*
D11*
X131837500Y-79450000D02*
X128762500Y-79450000D01*
D10*
X110100000Y-96100000D02*
X104900000Y-89700000D01*
X155200000Y-132320937D02*
X155200000Y-137520937D01*
X118900000Y-106400000D02*
X122300000Y-103600000D01*
X110100000Y-76700000D02*
X104900000Y-70300000D01*
X150500000Y-57300000D02*
X155700000Y-50900000D01*
D11*
X130300000Y-78750000D02*
X128762500Y-79450000D01*
X131500000Y-82401777D02*
X131500000Y-82198222D01*
D10*
X138700000Y-72100000D02*
G75*
G03*
X138700000Y-72100000I-2000000J0D01*
G01*
X112897713Y-166400000D02*
X117597713Y-161900000D01*
D11*
X131100000Y-92500000D02*
X130300000Y-91800000D01*
X129231204Y-98403555D02*
X128900000Y-98400000D01*
D10*
X105179063Y-153279063D02*
X105179063Y-158479063D01*
X105600000Y-49300000D02*
G75*
G03*
X105600000Y-49300000I-2000000J0D01*
G01*
D11*
X129265602Y-82403555D02*
X128934398Y-82400000D01*
D10*
X136700000Y-95200000D02*
X136700000Y-100400000D01*
X160700000Y-43900000D02*
X147688338Y-43900000D01*
X126000000Y-72100000D02*
G75*
G03*
X126000000Y-72100000I-2000000J0D01*
G01*
D11*
X131500000Y-98401777D02*
X131500000Y-98198222D01*
D10*
X147708602Y-166400000D02*
X160686051Y-166400000D01*
X147708602Y-166400000D02*
X143202287Y-161900000D01*
X125900000Y-102400000D02*
G75*
G03*
X125900000Y-102400000I-2000000J0D01*
G01*
D14*
X103123809Y-49633333D02*
X104076190Y-49633333D01*
X102933333Y-50204761D02*
X103600000Y-48204761D01*
X104266666Y-50204761D01*
X103076190Y-69604761D02*
X103076190Y-67604761D01*
X103552380Y-67604761D01*
X103838095Y-67700000D01*
X104028571Y-67890476D01*
X104123809Y-68080952D01*
X104219047Y-68461904D01*
X104219047Y-68747619D01*
X104123809Y-69128571D01*
X104028571Y-69319047D01*
X103838095Y-69509523D01*
X103552380Y-69604761D01*
X103076190Y-69604761D01*
X105871428Y-131204761D02*
X104728571Y-131204761D01*
X105300000Y-131204761D02*
X105300000Y-129204761D01*
X105109523Y-129490476D01*
X104919047Y-129680952D01*
X104728571Y-129776190D01*
X103489131Y-144704761D02*
X103870083Y-144704761D01*
X104060559Y-144800000D01*
X104251036Y-144990476D01*
X104346274Y-145371428D01*
X104346274Y-146038095D01*
X104251036Y-146419047D01*
X104060559Y-146609523D01*
X103870083Y-146704761D01*
X103489131Y-146704761D01*
X103298655Y-146609523D01*
X103108178Y-146419047D01*
X103012940Y-146038095D01*
X103012940Y-145371428D01*
X103108178Y-144990476D01*
X103298655Y-144800000D01*
X103489131Y-144704761D01*
X106060559Y-145371428D02*
X106060559Y-146704761D01*
X105203417Y-145371428D02*
X105203417Y-146419047D01*
X105298655Y-146609523D01*
X105489131Y-146704761D01*
X105774845Y-146704761D01*
X105965321Y-146609523D01*
X106060559Y-146514285D01*
X106727226Y-145371428D02*
X107489131Y-145371428D01*
X107012940Y-144704761D02*
X107012940Y-146419047D01*
X107108178Y-146609523D01*
X107298655Y-146704761D01*
X107489131Y-146704761D01*
X136133333Y-71104761D02*
X137371428Y-71104761D01*
X136704761Y-71866666D01*
X136990476Y-71866666D01*
X137180952Y-71961904D01*
X137276190Y-72057142D01*
X137371428Y-72247619D01*
X137371428Y-72723809D01*
X137276190Y-72914285D01*
X137180952Y-73009523D01*
X136990476Y-73104761D01*
X136419047Y-73104761D01*
X136228571Y-73009523D01*
X136133333Y-72914285D01*
X155480952Y-160071428D02*
X155480952Y-161404761D01*
X155004761Y-159309523D02*
X154528571Y-160738095D01*
X155766666Y-160738095D01*
X104707634Y-159495238D02*
X104802872Y-159400000D01*
X104993348Y-159304761D01*
X105469539Y-159304761D01*
X105660015Y-159400000D01*
X105755253Y-159495238D01*
X105850491Y-159685714D01*
X105850491Y-159876190D01*
X105755253Y-160161904D01*
X104612396Y-161304761D01*
X105850491Y-161304761D01*
X123328571Y-101495238D02*
X123423809Y-101400000D01*
X123614285Y-101304761D01*
X124090476Y-101304761D01*
X124280952Y-101400000D01*
X124376190Y-101495238D01*
X124471428Y-101685714D01*
X124471428Y-101876190D01*
X124376190Y-102161904D01*
X123233333Y-103304761D01*
X124471428Y-103304761D01*
X156428571Y-88909523D02*
X156714285Y-89004761D01*
X157190476Y-89004761D01*
X157380952Y-88909523D01*
X157476190Y-88814285D01*
X157571428Y-88623809D01*
X157571428Y-88433333D01*
X157476190Y-88242857D01*
X157380952Y-88147619D01*
X157190476Y-88052380D01*
X156809523Y-87957142D01*
X156619047Y-87861904D01*
X156523809Y-87766666D01*
X156428571Y-87576190D01*
X156428571Y-87385714D01*
X156523809Y-87195238D01*
X156619047Y-87100000D01*
X156809523Y-87004761D01*
X157285714Y-87004761D01*
X157571428Y-87100000D01*
X104219047Y-108404761D02*
X103552380Y-107452380D01*
X103076190Y-108404761D02*
X103076190Y-106404761D01*
X103838095Y-106404761D01*
X104028571Y-106500000D01*
X104123809Y-106595238D01*
X104219047Y-106785714D01*
X104219047Y-107071428D01*
X104123809Y-107261904D01*
X104028571Y-107357142D01*
X103838095Y-107452380D01*
X103076190Y-107452380D01*
X157619047Y-108404761D02*
X156952380Y-107452380D01*
X156476190Y-108404761D02*
X156476190Y-106404761D01*
X157238095Y-106404761D01*
X157428571Y-106500000D01*
X157523809Y-106595238D01*
X157619047Y-106785714D01*
X157619047Y-107071428D01*
X157523809Y-107261904D01*
X157428571Y-107357142D01*
X157238095Y-107452380D01*
X156476190Y-107452380D01*
X128204761Y-126457142D02*
X128871428Y-126457142D01*
X129157142Y-127504761D02*
X128204761Y-127504761D01*
X128204761Y-125504761D01*
X129157142Y-125504761D01*
X130014285Y-126171428D02*
X130014285Y-127504761D01*
X130014285Y-126361904D02*
X130109523Y-126266666D01*
X130300000Y-126171428D01*
X130585714Y-126171428D01*
X130776190Y-126266666D01*
X130871428Y-126457142D01*
X130871428Y-127504761D01*
X131633333Y-126171428D02*
X132109523Y-127504761D01*
X132585714Y-126171428D01*
X124585714Y-51304761D02*
X125728571Y-51304761D01*
X125157142Y-53304761D02*
X125157142Y-51304761D01*
X126395238Y-53304761D02*
X126395238Y-51971428D01*
X126395238Y-52352380D02*
X126490476Y-52161904D01*
X126585714Y-52066666D01*
X126776190Y-51971428D01*
X126966666Y-51971428D01*
X128395238Y-53209523D02*
X128204761Y-53304761D01*
X127823809Y-53304761D01*
X127633333Y-53209523D01*
X127538095Y-53019047D01*
X127538095Y-52257142D01*
X127633333Y-52066666D01*
X127823809Y-51971428D01*
X128204761Y-51971428D01*
X128395238Y-52066666D01*
X128490476Y-52257142D01*
X128490476Y-52447619D01*
X127538095Y-52638095D01*
X129347619Y-53304761D02*
X129347619Y-51971428D01*
X129347619Y-52161904D02*
X129442857Y-52066666D01*
X129633333Y-51971428D01*
X129919047Y-51971428D01*
X130109523Y-52066666D01*
X130204761Y-52257142D01*
X130204761Y-53304761D01*
X130204761Y-52257142D02*
X130300000Y-52066666D01*
X130490476Y-51971428D01*
X130776190Y-51971428D01*
X130966666Y-52066666D01*
X131061904Y-52257142D01*
X131061904Y-53304761D01*
X132300000Y-53304761D02*
X132109523Y-53209523D01*
X132014285Y-53114285D01*
X131919047Y-52923809D01*
X131919047Y-52352380D01*
X132014285Y-52161904D01*
X132109523Y-52066666D01*
X132300000Y-51971428D01*
X132585714Y-51971428D01*
X132776190Y-52066666D01*
X132871428Y-52161904D01*
X132966666Y-52352380D01*
X132966666Y-52923809D01*
X132871428Y-53114285D01*
X132776190Y-53209523D01*
X132585714Y-53304761D01*
X132300000Y-53304761D01*
X134109523Y-53304761D02*
X133919047Y-53209523D01*
X133823809Y-53019047D01*
X133823809Y-51304761D01*
X135157142Y-53304761D02*
X134966666Y-53209523D01*
X134871428Y-53114285D01*
X134776190Y-52923809D01*
X134776190Y-52352380D01*
X134871428Y-52161904D01*
X134966666Y-52066666D01*
X135157142Y-51971428D01*
X135442857Y-51971428D01*
X135633333Y-52066666D01*
X135728571Y-52161904D01*
X135823809Y-52352380D01*
X135823809Y-52923809D01*
X135728571Y-53114285D01*
X135633333Y-53209523D01*
X135442857Y-53304761D01*
X135157142Y-53304761D01*
X156476190Y-69604761D02*
X156476190Y-67604761D01*
X156952380Y-67604761D01*
X157238095Y-67700000D01*
X157428571Y-67890476D01*
X157523809Y-68080952D01*
X157619047Y-68461904D01*
X157619047Y-68747619D01*
X157523809Y-69128571D01*
X157428571Y-69319047D01*
X157238095Y-69509523D01*
X156952380Y-69604761D01*
X156476190Y-69604761D01*
X137080952Y-101971428D02*
X137080952Y-103304761D01*
X136604761Y-101209523D02*
X136128571Y-102638095D01*
X137366666Y-102638095D01*
X156523809Y-49633333D02*
X157476190Y-49633333D01*
X156333333Y-50204761D02*
X157000000Y-48204761D01*
X157666666Y-50204761D01*
X154633333Y-129504761D02*
X155871428Y-129504761D01*
X155204761Y-130266666D01*
X155490476Y-130266666D01*
X155680952Y-130361904D01*
X155776190Y-130457142D01*
X155871428Y-130647619D01*
X155871428Y-131123809D01*
X155776190Y-131314285D01*
X155680952Y-131409523D01*
X155490476Y-131504761D01*
X154919047Y-131504761D01*
X154728571Y-131409523D01*
X154633333Y-131314285D01*
X124671428Y-73004761D02*
X123528571Y-73004761D01*
X124100000Y-73004761D02*
X124100000Y-71004761D01*
X123909523Y-71290476D01*
X123719047Y-71480952D01*
X123528571Y-71576190D01*
X153533333Y-144704761D02*
X153914285Y-144704761D01*
X154104761Y-144800000D01*
X154295238Y-144990476D01*
X154390476Y-145371428D01*
X154390476Y-146038095D01*
X154295238Y-146419047D01*
X154104761Y-146609523D01*
X153914285Y-146704761D01*
X153533333Y-146704761D01*
X153342857Y-146609523D01*
X153152380Y-146419047D01*
X153057142Y-146038095D01*
X153057142Y-145371428D01*
X153152380Y-144990476D01*
X153342857Y-144800000D01*
X153533333Y-144704761D01*
X156104761Y-145371428D02*
X156104761Y-146704761D01*
X155247619Y-145371428D02*
X155247619Y-146419047D01*
X155342857Y-146609523D01*
X155533333Y-146704761D01*
X155819047Y-146704761D01*
X156009523Y-146609523D01*
X156104761Y-146514285D01*
X156771428Y-145371428D02*
X157533333Y-145371428D01*
X157057142Y-144704761D02*
X157057142Y-146419047D01*
X157152380Y-146609523D01*
X157342857Y-146704761D01*
X157533333Y-146704761D01*
X128590476Y-144800000D02*
X128400000Y-144704761D01*
X128114285Y-144704761D01*
X127828571Y-144800000D01*
X127638095Y-144990476D01*
X127542857Y-145180952D01*
X127447619Y-145561904D01*
X127447619Y-145847619D01*
X127542857Y-146228571D01*
X127638095Y-146419047D01*
X127828571Y-146609523D01*
X128114285Y-146704761D01*
X128304761Y-146704761D01*
X128590476Y-146609523D01*
X128685714Y-146514285D01*
X128685714Y-145847619D01*
X128304761Y-145847619D01*
X130400000Y-146704761D02*
X130400000Y-145657142D01*
X130304761Y-145466666D01*
X130114285Y-145371428D01*
X129733333Y-145371428D01*
X129542857Y-145466666D01*
X130400000Y-146609523D02*
X130209523Y-146704761D01*
X129733333Y-146704761D01*
X129542857Y-146609523D01*
X129447619Y-146419047D01*
X129447619Y-146228571D01*
X129542857Y-146038095D01*
X129733333Y-145942857D01*
X130209523Y-145942857D01*
X130400000Y-145847619D01*
X131066666Y-145371428D02*
X131828571Y-145371428D01*
X131352380Y-144704761D02*
X131352380Y-146419047D01*
X131447619Y-146609523D01*
X131638095Y-146704761D01*
X131828571Y-146704761D01*
X133257142Y-146609523D02*
X133066666Y-146704761D01*
X132685714Y-146704761D01*
X132495238Y-146609523D01*
X132400000Y-146419047D01*
X132400000Y-145657142D01*
X132495238Y-145466666D01*
X132685714Y-145371428D01*
X133066666Y-145371428D01*
X133257142Y-145466666D01*
X133352380Y-145657142D01*
X133352380Y-145847619D01*
X132400000Y-146038095D01*
D10*
X120728571Y-166378571D02*
X120728571Y-164878571D01*
X121228571Y-165950000D01*
X121728571Y-164878571D01*
X121728571Y-166378571D01*
X122657142Y-166378571D02*
X122514285Y-166307142D01*
X122442857Y-166235714D01*
X122371428Y-166092857D01*
X122371428Y-165664285D01*
X122442857Y-165521428D01*
X122514285Y-165450000D01*
X122657142Y-165378571D01*
X122871428Y-165378571D01*
X123014285Y-165450000D01*
X123085714Y-165521428D01*
X123157142Y-165664285D01*
X123157142Y-166092857D01*
X123085714Y-166235714D01*
X123014285Y-166307142D01*
X122871428Y-166378571D01*
X122657142Y-166378571D01*
X124442857Y-165378571D02*
X124442857Y-166378571D01*
X123800000Y-165378571D02*
X123800000Y-166164285D01*
X123871428Y-166307142D01*
X124014285Y-166378571D01*
X124228571Y-166378571D01*
X124371428Y-166307142D01*
X124442857Y-166235714D01*
X125157142Y-165378571D02*
X125157142Y-166378571D01*
X125157142Y-165521428D02*
X125228571Y-165450000D01*
X125371428Y-165378571D01*
X125585714Y-165378571D01*
X125728571Y-165450000D01*
X125800000Y-165592857D01*
X125800000Y-166378571D01*
X126300000Y-165378571D02*
X126871428Y-165378571D01*
X126514285Y-164878571D02*
X126514285Y-166164285D01*
X126585714Y-166307142D01*
X126728571Y-166378571D01*
X126871428Y-166378571D01*
X127371428Y-165378571D02*
X127371428Y-166664285D01*
X127300000Y-166807142D01*
X127157142Y-166878571D01*
X127085714Y-166878571D01*
X127371428Y-164878571D02*
X127300000Y-164950000D01*
X127371428Y-165021428D01*
X127442857Y-164950000D01*
X127371428Y-164878571D01*
X127371428Y-165021428D01*
X128300000Y-166378571D02*
X128157142Y-166307142D01*
X128085714Y-166235714D01*
X128014285Y-166092857D01*
X128014285Y-165664285D01*
X128085714Y-165521428D01*
X128157142Y-165450000D01*
X128300000Y-165378571D01*
X128514285Y-165378571D01*
X128657142Y-165450000D01*
X128728571Y-165521428D01*
X128800000Y-165664285D01*
X128800000Y-166092857D01*
X128728571Y-166235714D01*
X128657142Y-166307142D01*
X128514285Y-166378571D01*
X128300000Y-166378571D01*
X129300000Y-165378571D02*
X129657142Y-166378571D01*
X130014285Y-165378571D02*
X129657142Y-166378571D01*
X129514285Y-166735714D01*
X129442857Y-166807142D01*
X129300000Y-166878571D01*
X131728571Y-166378571D02*
X131728571Y-164878571D01*
X132228571Y-165950000D01*
X132728571Y-164878571D01*
X132728571Y-166378571D01*
X133657142Y-166378571D02*
X133514285Y-166307142D01*
X133442857Y-166235714D01*
X133371428Y-166092857D01*
X133371428Y-165664285D01*
X133442857Y-165521428D01*
X133514285Y-165450000D01*
X133657142Y-165378571D01*
X133871428Y-165378571D01*
X134014285Y-165450000D01*
X134085714Y-165521428D01*
X134157142Y-165664285D01*
X134157142Y-166092857D01*
X134085714Y-166235714D01*
X134014285Y-166307142D01*
X133871428Y-166378571D01*
X133657142Y-166378571D01*
X135442857Y-166378571D02*
X135442857Y-164878571D01*
X135442857Y-166307142D02*
X135300000Y-166378571D01*
X135014285Y-166378571D01*
X134871428Y-166307142D01*
X134800000Y-166235714D01*
X134728571Y-166092857D01*
X134728571Y-165664285D01*
X134800000Y-165521428D01*
X134871428Y-165450000D01*
X135014285Y-165378571D01*
X135300000Y-165378571D01*
X135442857Y-165450000D01*
X136800000Y-165378571D02*
X136800000Y-166378571D01*
X136157142Y-165378571D02*
X136157142Y-166164285D01*
X136228571Y-166307142D01*
X136371428Y-166378571D01*
X136585714Y-166378571D01*
X136728571Y-166307142D01*
X136800000Y-166235714D01*
X137728571Y-166378571D02*
X137585714Y-166307142D01*
X137514285Y-166164285D01*
X137514285Y-164878571D01*
X138942857Y-166378571D02*
X138942857Y-165592857D01*
X138871428Y-165450000D01*
X138728571Y-165378571D01*
X138442857Y-165378571D01*
X138300000Y-165450000D01*
X138942857Y-166307142D02*
X138800000Y-166378571D01*
X138442857Y-166378571D01*
X138300000Y-166307142D01*
X138228571Y-166164285D01*
X138228571Y-166021428D01*
X138300000Y-165878571D01*
X138442857Y-165807142D01*
X138800000Y-165807142D01*
X138942857Y-165735714D01*
X139657142Y-166378571D02*
X139657142Y-165378571D01*
X139657142Y-165664285D02*
X139728571Y-165521428D01*
X139800000Y-165450000D01*
X139942857Y-165378571D01*
X140085714Y-165378571D01*
D14*
X114295238Y-146604761D02*
X114295238Y-144604761D01*
X115247619Y-145271428D02*
X115247619Y-146604761D01*
X115247619Y-145461904D02*
X115342857Y-145366666D01*
X115533333Y-145271428D01*
X115819047Y-145271428D01*
X116009523Y-145366666D01*
X116104761Y-145557142D01*
X116104761Y-146604761D01*
X144295238Y-146604761D02*
X144295238Y-144604761D01*
X145247619Y-145271428D02*
X145247619Y-146604761D01*
X145247619Y-145461904D02*
X145342857Y-145366666D01*
X145533333Y-145271428D01*
X145819047Y-145271428D01*
X146009523Y-145366666D01*
X146104761Y-145557142D01*
X146104761Y-146604761D01*
X127823809Y-109614285D02*
X127728571Y-109709523D01*
X127442857Y-109804761D01*
X127252380Y-109804761D01*
X126966666Y-109709523D01*
X126776190Y-109519047D01*
X126680952Y-109328571D01*
X126585714Y-108947619D01*
X126585714Y-108661904D01*
X126680952Y-108280952D01*
X126776190Y-108090476D01*
X126966666Y-107900000D01*
X127252380Y-107804761D01*
X127442857Y-107804761D01*
X127728571Y-107900000D01*
X127823809Y-107995238D01*
X128966666Y-109804761D02*
X128776190Y-109709523D01*
X128680952Y-109519047D01*
X128680952Y-107804761D01*
X130014285Y-109804761D02*
X129823809Y-109709523D01*
X129728571Y-109614285D01*
X129633333Y-109423809D01*
X129633333Y-108852380D01*
X129728571Y-108661904D01*
X129823809Y-108566666D01*
X130014285Y-108471428D01*
X130300000Y-108471428D01*
X130490476Y-108566666D01*
X130585714Y-108661904D01*
X130680952Y-108852380D01*
X130680952Y-109423809D01*
X130585714Y-109614285D01*
X130490476Y-109709523D01*
X130300000Y-109804761D01*
X130014285Y-109804761D01*
X132395238Y-109709523D02*
X132204761Y-109804761D01*
X131823809Y-109804761D01*
X131633333Y-109709523D01*
X131538095Y-109614285D01*
X131442857Y-109423809D01*
X131442857Y-108852380D01*
X131538095Y-108661904D01*
X131633333Y-108566666D01*
X131823809Y-108471428D01*
X132204761Y-108471428D01*
X132395238Y-108566666D01*
X133252380Y-109804761D02*
X133252380Y-107804761D01*
X133442857Y-109042857D02*
X134014285Y-109804761D01*
X134014285Y-108471428D02*
X133252380Y-109233333D01*
X103028571Y-88909523D02*
X103314285Y-89004761D01*
X103790476Y-89004761D01*
X103980952Y-88909523D01*
X104076190Y-88814285D01*
X104171428Y-88623809D01*
X104171428Y-88433333D01*
X104076190Y-88242857D01*
X103980952Y-88147619D01*
X103790476Y-88052380D01*
X103409523Y-87957142D01*
X103219047Y-87861904D01*
X103123809Y-87766666D01*
X103028571Y-87576190D01*
X103028571Y-87385714D01*
X103123809Y-87195238D01*
X103219047Y-87100000D01*
X103409523Y-87004761D01*
X103885714Y-87004761D01*
X104171428Y-87100000D01*
%TO.C,G\u002A\u002A\u002A*%
G36*
X131957046Y-44381291D02*
G01*
X131909272Y-45591737D01*
X132279987Y-45560995D01*
X132650702Y-45530252D01*
X132612180Y-45722863D01*
X132584092Y-45891653D01*
X132573658Y-46004795D01*
X132548819Y-46042161D01*
X132462573Y-46067961D01*
X132297332Y-46084008D01*
X132035502Y-46092114D01*
X131706741Y-46094117D01*
X130839824Y-46094117D01*
X130794800Y-44728780D01*
X130779638Y-44316050D01*
X130763037Y-43944118D01*
X130746164Y-43633770D01*
X130730183Y-43405788D01*
X130716261Y-43280956D01*
X130712823Y-43267143D01*
X130714140Y-43223190D01*
X130772045Y-43194716D01*
X130906771Y-43178616D01*
X131138548Y-43171785D01*
X131340345Y-43170844D01*
X132004821Y-43170844D01*
X131957046Y-44381291D01*
G37*
G36*
X135504038Y-44228912D02*
G01*
X135490928Y-43854119D01*
X135482283Y-43543304D01*
X135478591Y-43315428D01*
X135480338Y-43189456D01*
X135483177Y-43170844D01*
X135554161Y-43157835D01*
X135727838Y-43147308D01*
X135976984Y-43140442D01*
X136233253Y-43138363D01*
X136558134Y-43140735D01*
X136787415Y-43151832D01*
X136955390Y-43177625D01*
X137096352Y-43224086D01*
X137244595Y-43297187D01*
X137290743Y-43322502D01*
X137604064Y-43547046D01*
X137799483Y-43815642D01*
X137886082Y-44144870D01*
X137887455Y-44411743D01*
X137801442Y-44794795D01*
X137611785Y-45109403D01*
X137331550Y-45341128D01*
X136973803Y-45475533D01*
X136914986Y-45486292D01*
X136746346Y-45528945D01*
X136674999Y-45599387D01*
X136665354Y-45663929D01*
X136654824Y-45869073D01*
X136609784Y-45996116D01*
X136505226Y-46063594D01*
X136316144Y-46090043D01*
X136084982Y-46094117D01*
X135583837Y-46094117D01*
X135522907Y-44689748D01*
X136666241Y-44689748D01*
X136666241Y-45047973D01*
X136861517Y-44979899D01*
X137037548Y-44864317D01*
X137098449Y-44745858D01*
X137099487Y-44541569D01*
X136993463Y-44403621D01*
X136838333Y-44352079D01*
X136740069Y-44347338D01*
X136688829Y-44383432D01*
X136669318Y-44490369D01*
X136666241Y-44689748D01*
X135522907Y-44689748D01*
X135521127Y-44648721D01*
X135504038Y-44228912D01*
G37*
G36*
X139994845Y-43641816D02*
G01*
X139979509Y-43958638D01*
X139959341Y-44167251D01*
X139922123Y-44289159D01*
X139855637Y-44345865D01*
X139747663Y-44358872D01*
X139592382Y-44350124D01*
X139399171Y-44341060D01*
X139302246Y-44358393D01*
X139268490Y-44416895D01*
X139264706Y-44496288D01*
X139274087Y-44595400D01*
X139324187Y-44645408D01*
X139447949Y-44662999D01*
X139597635Y-44664961D01*
X139930563Y-44664961D01*
X139889962Y-44867966D01*
X139861412Y-45027243D01*
X139849363Y-45127279D01*
X139849361Y-45127813D01*
X139791284Y-45161716D01*
X139644345Y-45182049D01*
X139557034Y-45184654D01*
X139377325Y-45190141D01*
X139292214Y-45222770D01*
X139266408Y-45306796D01*
X139264706Y-45385552D01*
X139264706Y-45586449D01*
X139979262Y-45541943D01*
X139938260Y-45769309D01*
X139903515Y-45934568D01*
X139872555Y-46039173D01*
X139869476Y-46045396D01*
X139797686Y-46063711D01*
X139621380Y-46078883D01*
X139365954Y-46089473D01*
X139056803Y-46094040D01*
X139009907Y-46094117D01*
X138178121Y-46094117D01*
X138130557Y-44719075D01*
X138114879Y-44305645D01*
X138098165Y-43933700D01*
X138081547Y-43623749D01*
X138066159Y-43396301D01*
X138053136Y-43271868D01*
X138049764Y-43257438D01*
X138059802Y-43223596D01*
X138130574Y-43199463D01*
X138277981Y-43183613D01*
X138517920Y-43174623D01*
X138866290Y-43171068D01*
X139016274Y-43170844D01*
X140016012Y-43170844D01*
X139994845Y-43641816D01*
G37*
G36*
X130510446Y-43641816D02*
G01*
X130495110Y-43958638D01*
X130474942Y-44167251D01*
X130437724Y-44289159D01*
X130371238Y-44345865D01*
X130263264Y-44358872D01*
X130107983Y-44350124D01*
X129914772Y-44341060D01*
X129817847Y-44358393D01*
X129784091Y-44416895D01*
X129780307Y-44496288D01*
X129789688Y-44595400D01*
X129839788Y-44645408D01*
X129963550Y-44662999D01*
X130113236Y-44664961D01*
X130446164Y-44664961D01*
X130405563Y-44867966D01*
X130377013Y-45027243D01*
X130364964Y-45127279D01*
X130364962Y-45127813D01*
X130306885Y-45161716D01*
X130159946Y-45182049D01*
X130072635Y-45184654D01*
X129892926Y-45190141D01*
X129807815Y-45222770D01*
X129782009Y-45306796D01*
X129780307Y-45385552D01*
X129780307Y-45586449D01*
X130494863Y-45541943D01*
X130453862Y-45769309D01*
X130419116Y-45934568D01*
X130388156Y-46039173D01*
X130385077Y-46045396D01*
X130313287Y-46063711D01*
X130136981Y-46078883D01*
X129881555Y-46089473D01*
X129572404Y-46094040D01*
X129525508Y-46094117D01*
X128693722Y-46094117D01*
X128646158Y-44719075D01*
X128630480Y-44305645D01*
X128613766Y-43933700D01*
X128597148Y-43623749D01*
X128581760Y-43396301D01*
X128568737Y-43271868D01*
X128565365Y-43257438D01*
X128575403Y-43223596D01*
X128646175Y-43199463D01*
X128793582Y-43183613D01*
X129033521Y-43174623D01*
X129381891Y-43171068D01*
X129531875Y-43170844D01*
X130531613Y-43170844D01*
X130510446Y-43641816D01*
G37*
G36*
X126019639Y-44228912D02*
G01*
X126006529Y-43854119D01*
X125997884Y-43543304D01*
X125994192Y-43315428D01*
X125995939Y-43189456D01*
X125998778Y-43170844D01*
X126069762Y-43157835D01*
X126243439Y-43147308D01*
X126492585Y-43140442D01*
X126748854Y-43138363D01*
X127073735Y-43140735D01*
X127303016Y-43151832D01*
X127470991Y-43177625D01*
X127611953Y-43224086D01*
X127760196Y-43297187D01*
X127806344Y-43322502D01*
X128119665Y-43547046D01*
X128315084Y-43815642D01*
X128401683Y-44144870D01*
X128403056Y-44411743D01*
X128317043Y-44794795D01*
X128127386Y-45109403D01*
X127847151Y-45341128D01*
X127489404Y-45475533D01*
X127430587Y-45486292D01*
X127261947Y-45528945D01*
X127190600Y-45599387D01*
X127180955Y-45663929D01*
X127170425Y-45869073D01*
X127125385Y-45996116D01*
X127020827Y-46063594D01*
X126831745Y-46090043D01*
X126600583Y-46094117D01*
X126099438Y-46094117D01*
X126038508Y-44689748D01*
X127181842Y-44689748D01*
X127181842Y-45047973D01*
X127377118Y-44979899D01*
X127553149Y-44864317D01*
X127614050Y-44745858D01*
X127615088Y-44541569D01*
X127509064Y-44403621D01*
X127353934Y-44352079D01*
X127255670Y-44347338D01*
X127204430Y-44383432D01*
X127184919Y-44490369D01*
X127181842Y-44689748D01*
X126038508Y-44689748D01*
X126036728Y-44648721D01*
X126019639Y-44228912D01*
G37*
G36*
X120417468Y-45194699D02*
G01*
X120452659Y-45045867D01*
X120540541Y-44666727D01*
X120624741Y-44286937D01*
X120696743Y-43945998D01*
X120748031Y-43683408D01*
X120755390Y-43641816D01*
X120836409Y-43170844D01*
X121975700Y-43170844D01*
X122051610Y-43544373D01*
X122095408Y-43751822D01*
X122157547Y-44035522D01*
X122232122Y-44369639D01*
X122313230Y-44728335D01*
X122394969Y-45085776D01*
X122471434Y-45416126D01*
X122536721Y-45693548D01*
X122584929Y-45892208D01*
X122608247Y-45980434D01*
X122612881Y-46036617D01*
X122568459Y-46070612D01*
X122451370Y-46087840D01*
X122238001Y-46093725D01*
X122113130Y-46094117D01*
X121848843Y-46091042D01*
X121686734Y-46077512D01*
X121599118Y-46047074D01*
X121558310Y-45993275D01*
X121548561Y-45962508D01*
X121521512Y-45882649D01*
X121474532Y-45866762D01*
X121371351Y-45915685D01*
X121280615Y-45968684D01*
X121133223Y-46040017D01*
X121039784Y-46055868D01*
X121026443Y-46044544D01*
X120973978Y-45945443D01*
X120920317Y-45865712D01*
X120856094Y-45793612D01*
X120818728Y-45826277D01*
X120791498Y-45921461D01*
X120745610Y-46034454D01*
X120655774Y-46083691D01*
X120489556Y-46094117D01*
X120327275Y-46081285D01*
X120237340Y-46049245D01*
X120230947Y-46036532D01*
X120245272Y-45955929D01*
X120284692Y-45772860D01*
X120340553Y-45525832D01*
X120946624Y-45525832D01*
X120986022Y-45566221D01*
X121114191Y-45548613D01*
X121147077Y-45541619D01*
X121302298Y-45503417D01*
X121390684Y-45472444D01*
X121394520Y-45469716D01*
X121394099Y-45396931D01*
X121356916Y-45253778D01*
X121299499Y-45088381D01*
X121238374Y-44948866D01*
X121193777Y-44885161D01*
X121136822Y-44915142D01*
X121068525Y-45044076D01*
X121001645Y-45243245D01*
X120963706Y-45403044D01*
X120946624Y-45525832D01*
X120340553Y-45525832D01*
X120343869Y-45511169D01*
X120417468Y-45194699D01*
G37*
G36*
X123958054Y-43528502D02*
G01*
X124063835Y-43747461D01*
X124164549Y-43936247D01*
X124218783Y-44024630D01*
X124268620Y-44085477D01*
X124313770Y-44093099D01*
X124369960Y-44031071D01*
X124452921Y-43882967D01*
X124561261Y-43666971D01*
X124806752Y-43170844D01*
X125772736Y-43170844D01*
X125730494Y-43999105D01*
X125713206Y-44393248D01*
X125699288Y-44815467D01*
X125690387Y-45209085D01*
X125687988Y-45460741D01*
X125687724Y-46094117D01*
X124979082Y-46094117D01*
X124959874Y-45663025D01*
X124940665Y-45231933D01*
X124621496Y-45695506D01*
X124477601Y-45903368D01*
X124365595Y-46063014D01*
X124302662Y-46150047D01*
X124295006Y-46159079D01*
X124255489Y-46110997D01*
X124155701Y-45982142D01*
X124013433Y-45795599D01*
X123932078Y-45688107D01*
X123576471Y-45217135D01*
X123557263Y-45655626D01*
X123538054Y-46094117D01*
X122902335Y-46094117D01*
X122868714Y-45818030D01*
X122855025Y-45659469D01*
X122838957Y-45400029D01*
X122822038Y-45068697D01*
X122805796Y-44694459D01*
X122796644Y-44450998D01*
X122781757Y-44082258D01*
X122764997Y-43755194D01*
X122747861Y-43493537D01*
X122731844Y-43321020D01*
X122721892Y-43265448D01*
X122724616Y-43218851D01*
X122790578Y-43190147D01*
X122941033Y-43175456D01*
X123197233Y-43170895D01*
X123239951Y-43170844D01*
X123794313Y-43170844D01*
X123958054Y-43528502D01*
G37*
G36*
X132806399Y-44272793D02*
G01*
X132824120Y-44066787D01*
X132864373Y-43908452D01*
X132935230Y-43756741D01*
X132977006Y-43683512D01*
X133168554Y-43415664D01*
X133390835Y-43239371D01*
X133686438Y-43123980D01*
X133790855Y-43097785D01*
X134181332Y-43069897D01*
X134546555Y-43160716D01*
X134863916Y-43359052D01*
X135110806Y-43653714D01*
X135179940Y-43785292D01*
X135264885Y-44076944D01*
X135302263Y-44439017D01*
X135292495Y-44821196D01*
X135236000Y-45173165D01*
X135166665Y-45379539D01*
X134960245Y-45739136D01*
X134713203Y-45981867D01*
X134410552Y-46118236D01*
X134054761Y-46158836D01*
X133711511Y-46118073D01*
X133484269Y-46020690D01*
X133307582Y-45900805D01*
X133174523Y-45770743D01*
X133049596Y-45590227D01*
X132947836Y-45412020D01*
X132874351Y-45252072D01*
X132830232Y-45075480D01*
X132808717Y-44842780D01*
X132808245Y-44819491D01*
X133720362Y-44819491D01*
X133732336Y-45047859D01*
X133793083Y-45261880D01*
X133895973Y-45426495D01*
X134034373Y-45506644D01*
X134067775Y-45509463D01*
X134191770Y-45458751D01*
X134304471Y-45341937D01*
X134393242Y-45124724D01*
X134417661Y-44875967D01*
X134379781Y-44643086D01*
X134281653Y-44473504D01*
X134266291Y-44459953D01*
X134143833Y-44373475D01*
X134067775Y-44340153D01*
X133985452Y-44377256D01*
X133869260Y-44459953D01*
X133763793Y-44611836D01*
X133720362Y-44819491D01*
X132808245Y-44819491D01*
X132803136Y-44567519D01*
X132806399Y-44272793D01*
G37*
%TD*%
D15*
%TO.C,TYPE*%
X123900000Y-79300000D03*
%TD*%
D16*
%TO.C,MIX*%
X150500000Y-115500000D03*
%TD*%
D17*
%TO.C,Ref\u002A\u002A*%
X107400000Y-43900000D03*
%TD*%
%TO.C,Ref\u002A\u002A*%
X153200000Y-166400000D03*
%TD*%
D15*
%TO.C,TYPE*%
X123900000Y-95200000D03*
%TD*%
D16*
%TO.C,MIX*%
X150500000Y-96100000D03*
%TD*%
D17*
%TO.C,Ref\u002A\u002A*%
X153200000Y-43900000D03*
%TD*%
D15*
%TO.C,TYPE*%
X136700000Y-79300000D03*
%TD*%
D18*
%TO.C,Ref\u002A\u002A*%
X155200000Y-152600000D03*
%TD*%
%TO.C,Ref\u002A\u002A*%
X135200000Y-152600000D03*
%TD*%
%TO.C,Ref\u002A\u002A*%
X115220000Y-138700000D03*
%TD*%
D17*
%TO.C,Ref\u002A\u002A*%
X107400000Y-166400000D03*
%TD*%
D18*
%TO.C,Ref\u002A\u002A*%
X155300000Y-138700000D03*
%TD*%
%TO.C,Ref\u002A\u002A*%
X115200000Y-152600000D03*
%TD*%
%TO.C,Ref\u002A\u002A*%
X120200000Y-126600000D03*
%TD*%
D16*
%TO.C,MIX*%
X130300000Y-61400000D03*
%TD*%
D15*
%TO.C,TYPE*%
X136700000Y-95200000D03*
%TD*%
D16*
%TO.C,MIX*%
X150500000Y-76700000D03*
%TD*%
D18*
%TO.C,Ref\u002A\u002A*%
X135260000Y-138700000D03*
%TD*%
D16*
%TO.C,MIX*%
X110100000Y-96100000D03*
%TD*%
D19*
%TO.C,Ref\u002A\u002A*%
X141700000Y-68100000D03*
%TD*%
D16*
%TO.C,MIX*%
X110100000Y-57300000D03*
%TD*%
D18*
%TO.C,Ref\u002A\u002A*%
X145200000Y-152600000D03*
%TD*%
D16*
%TO.C,MIX*%
X110100000Y-76700000D03*
%TD*%
%TO.C,MIX*%
X150500000Y-57300000D03*
%TD*%
D18*
%TO.C,Ref\u002A\u002A*%
X105200000Y-138700000D03*
%TD*%
D19*
%TO.C,LED_L*%
X118900000Y-68100000D03*
%TD*%
D18*
%TO.C,Ref\u002A\u002A*%
X125200000Y-152600000D03*
%TD*%
%TO.C,Ref\u002A\u002A*%
X130300000Y-115500000D03*
%TD*%
D19*
%TO.C,LED_L*%
X141700000Y-106400000D03*
%TD*%
D18*
%TO.C,Ref\u002A\u002A*%
X105200000Y-152600000D03*
%TD*%
%TO.C,Ref\u002A\u002A*%
X140300000Y-126600000D03*
%TD*%
D16*
%TO.C,MIX*%
X110100000Y-115500000D03*
%TD*%
D18*
%TO.C,Ref\u002A\u002A*%
X125200000Y-138700000D03*
%TD*%
D19*
%TO.C,LED_L*%
X118900000Y-106400000D03*
%TD*%
D18*
%TO.C,Ref\u002A\u002A*%
X145280000Y-138700000D03*
%TD*%
M02*
