M48
; DRILL file {KiCad (5.99.0-12348-g4b436fb86d)} date Wed Sep 22 22:38:05 2021
; FORMAT={-:-/ absolute / metric / decimal}
; #@! TF.CreationDate,2021-09-22T22:38:05+01:00
; #@! TF.GenerationSoftware,Kicad,Pcbnew,(5.99.0-12348-g4b436fb86d)
; #@! TF.FileFunction,NonPlated,1,2,NPTH
FMAT,2
METRIC
; #@! TA.AperFunction,NonPlated,NPTH,ComponentDrill
T1C3.000
; #@! TA.AperFunction,NonPlated,NPTH,ComponentDrill
T2C3.200
; #@! TA.AperFunction,NonPlated,NPTH,ComponentDrill
T3C5.000
; #@! TA.AperFunction,NonPlated,NPTH,ComponentDrill
T4C6.000
; #@! TA.AperFunction,NonPlated,NPTH,ComponentDrill
T5C7.000
%
G90
G05
T1
X118.9Y-68.1
X118.9Y-106.4
X141.7Y-68.1
X141.7Y-106.4
T3
X123.9Y-79.3
X123.9Y-95.2
X136.7Y-79.3
X136.7Y-95.2
T4
X105.2Y-138.7
X105.2Y-152.6
X115.2Y-152.6
X115.22Y-138.7
X120.2Y-126.6
X125.2Y-138.7
X125.2Y-152.6
X130.3Y-115.5
X135.2Y-152.6
X135.26Y-138.7
X140.3Y-126.6
X145.2Y-152.6
X145.28Y-138.7
X155.2Y-152.6
X155.3Y-138.7
T5
X110.1Y-57.3
X110.1Y-76.7
X110.1Y-96.1
X110.1Y-115.5
X130.3Y-61.4
X150.5Y-57.3
X150.5Y-76.7
X150.5Y-96.1
X150.5Y-115.5
T2
G00X106.5Y-43.9
M15
G01X108.3Y-43.9
M16
G05
G00X106.5Y-166.4
M15
G01X108.3Y-166.4
M16
G05
G00X152.3Y-43.9
M15
G01X154.1Y-43.9
M16
G05
G00X152.3Y-166.4
M15
G01X154.1Y-166.4
M16
G05
T0
M30
