%TF.GenerationSoftware,KiCad,Pcbnew,(5.99.0-12348-g4b436fb86d)*%
%TF.CreationDate,2021-09-23T15:14:05+01:00*%
%TF.ProjectId,Ampelope_Panel,416d7065-6c6f-4706-955f-50616e656c2e,rev?*%
%TF.SameCoordinates,Original*%
%TF.FileFunction,Legend,Bot*%
%TF.FilePolarity,Positive*%
%FSLAX46Y46*%
G04 Gerber Fmt 4.6, Leading zero omitted, Abs format (unit mm)*
G04 Created by KiCad (PCBNEW (5.99.0-12348-g4b436fb86d)) date 2021-09-23 15:14:05*
%MOMM*%
%LPD*%
G01*
G04 APERTURE LIST*
%ADD10C,0.300000*%
%ADD11C,0.150000*%
G04 APERTURE END LIST*
D10*
X141714285Y-45042500D02*
X141000000Y-45042500D01*
X141857142Y-45471071D02*
X141357142Y-43971071D01*
X140857142Y-45471071D01*
X140357142Y-45471071D02*
X140357142Y-44471071D01*
X140357142Y-44613928D02*
X140285714Y-44542500D01*
X140142857Y-44471071D01*
X139928571Y-44471071D01*
X139785714Y-44542500D01*
X139714285Y-44685357D01*
X139714285Y-45471071D01*
X139714285Y-44685357D02*
X139642857Y-44542500D01*
X139500000Y-44471071D01*
X139285714Y-44471071D01*
X139142857Y-44542500D01*
X139071428Y-44685357D01*
X139071428Y-45471071D01*
X138357142Y-44471071D02*
X138357142Y-45971071D01*
X138357142Y-44542500D02*
X138214285Y-44471071D01*
X137928571Y-44471071D01*
X137785714Y-44542500D01*
X137714285Y-44613928D01*
X137642857Y-44756785D01*
X137642857Y-45185357D01*
X137714285Y-45328214D01*
X137785714Y-45399642D01*
X137928571Y-45471071D01*
X138214285Y-45471071D01*
X138357142Y-45399642D01*
X136428571Y-45399642D02*
X136571428Y-45471071D01*
X136857142Y-45471071D01*
X137000000Y-45399642D01*
X137071428Y-45256785D01*
X137071428Y-44685357D01*
X137000000Y-44542500D01*
X136857142Y-44471071D01*
X136571428Y-44471071D01*
X136428571Y-44542500D01*
X136357142Y-44685357D01*
X136357142Y-44828214D01*
X137071428Y-44971071D01*
X135500000Y-45471071D02*
X135642857Y-45399642D01*
X135714285Y-45256785D01*
X135714285Y-43971071D01*
X134714285Y-45471071D02*
X134857142Y-45399642D01*
X134928571Y-45328214D01*
X135000000Y-45185357D01*
X135000000Y-44756785D01*
X134928571Y-44613928D01*
X134857142Y-44542500D01*
X134714285Y-44471071D01*
X134500000Y-44471071D01*
X134357142Y-44542500D01*
X134285714Y-44613928D01*
X134214285Y-44756785D01*
X134214285Y-45185357D01*
X134285714Y-45328214D01*
X134357142Y-45399642D01*
X134500000Y-45471071D01*
X134714285Y-45471071D01*
X133571428Y-44471071D02*
X133571428Y-45971071D01*
X133571428Y-44542500D02*
X133428571Y-44471071D01*
X133142857Y-44471071D01*
X133000000Y-44542500D01*
X132928571Y-44613928D01*
X132857142Y-44756785D01*
X132857142Y-45185357D01*
X132928571Y-45328214D01*
X133000000Y-45399642D01*
X133142857Y-45471071D01*
X133428571Y-45471071D01*
X133571428Y-45399642D01*
X131642857Y-45399642D02*
X131785714Y-45471071D01*
X132071428Y-45471071D01*
X132214285Y-45399642D01*
X132285714Y-45256785D01*
X132285714Y-44685357D01*
X132214285Y-44542500D01*
X132071428Y-44471071D01*
X131785714Y-44471071D01*
X131642857Y-44542500D01*
X131571428Y-44685357D01*
X131571428Y-44828214D01*
X132285714Y-44971071D01*
X129785714Y-45471071D02*
X129785714Y-43971071D01*
X129214285Y-43971071D01*
X129071428Y-44042500D01*
X129000000Y-44113928D01*
X128928571Y-44256785D01*
X128928571Y-44471071D01*
X129000000Y-44613928D01*
X129071428Y-44685357D01*
X129214285Y-44756785D01*
X129785714Y-44756785D01*
X127642857Y-45471071D02*
X127642857Y-44685357D01*
X127714285Y-44542500D01*
X127857142Y-44471071D01*
X128142857Y-44471071D01*
X128285714Y-44542500D01*
X127642857Y-45399642D02*
X127785714Y-45471071D01*
X128142857Y-45471071D01*
X128285714Y-45399642D01*
X128357142Y-45256785D01*
X128357142Y-45113928D01*
X128285714Y-44971071D01*
X128142857Y-44899642D01*
X127785714Y-44899642D01*
X127642857Y-44828214D01*
X126928571Y-44471071D02*
X126928571Y-45471071D01*
X126928571Y-44613928D02*
X126857142Y-44542500D01*
X126714285Y-44471071D01*
X126500000Y-44471071D01*
X126357142Y-44542500D01*
X126285714Y-44685357D01*
X126285714Y-45471071D01*
X125000000Y-45399642D02*
X125142857Y-45471071D01*
X125428571Y-45471071D01*
X125571428Y-45399642D01*
X125642857Y-45256785D01*
X125642857Y-44685357D01*
X125571428Y-44542500D01*
X125428571Y-44471071D01*
X125142857Y-44471071D01*
X125000000Y-44542500D01*
X124928571Y-44685357D01*
X124928571Y-44828214D01*
X125642857Y-44971071D01*
X124071428Y-45471071D02*
X124214285Y-45399642D01*
X124285714Y-45256785D01*
X124285714Y-43971071D01*
X122500000Y-44471071D02*
X122142857Y-45471071D01*
X121785714Y-44471071D01*
X120428571Y-45471071D02*
X121285714Y-45471071D01*
X120857142Y-45471071D02*
X120857142Y-43971071D01*
X121000000Y-44185357D01*
X121142857Y-44328214D01*
X121285714Y-44399642D01*
X119785714Y-45328214D02*
X119714285Y-45399642D01*
X119785714Y-45471071D01*
X119857142Y-45399642D01*
X119785714Y-45328214D01*
X119785714Y-45471071D01*
X118785714Y-43971071D02*
X118642857Y-43971071D01*
X118500000Y-44042500D01*
X118428571Y-44113928D01*
X118357142Y-44256785D01*
X118285714Y-44542500D01*
X118285714Y-44899642D01*
X118357142Y-45185357D01*
X118428571Y-45328214D01*
X118500000Y-45399642D01*
X118642857Y-45471071D01*
X118785714Y-45471071D01*
X118928571Y-45399642D01*
X119000000Y-45328214D01*
X119071428Y-45185357D01*
X119142857Y-44899642D01*
X119142857Y-44542500D01*
X119071428Y-44256785D01*
X119000000Y-44113928D01*
X118928571Y-44042500D01*
X118785714Y-43971071D01*
X143000000Y-47886071D02*
X143000000Y-46386071D01*
X142500000Y-47457500D01*
X142000000Y-46386071D01*
X142000000Y-47886071D01*
X141071428Y-47886071D02*
X141214285Y-47814642D01*
X141285714Y-47743214D01*
X141357142Y-47600357D01*
X141357142Y-47171785D01*
X141285714Y-47028928D01*
X141214285Y-46957500D01*
X141071428Y-46886071D01*
X140857142Y-46886071D01*
X140714285Y-46957500D01*
X140642857Y-47028928D01*
X140571428Y-47171785D01*
X140571428Y-47600357D01*
X140642857Y-47743214D01*
X140714285Y-47814642D01*
X140857142Y-47886071D01*
X141071428Y-47886071D01*
X139285714Y-46886071D02*
X139285714Y-47886071D01*
X139928571Y-46886071D02*
X139928571Y-47671785D01*
X139857142Y-47814642D01*
X139714285Y-47886071D01*
X139500000Y-47886071D01*
X139357142Y-47814642D01*
X139285714Y-47743214D01*
X138571428Y-46886071D02*
X138571428Y-47886071D01*
X138571428Y-47028928D02*
X138500000Y-46957500D01*
X138357142Y-46886071D01*
X138142857Y-46886071D01*
X138000000Y-46957500D01*
X137928571Y-47100357D01*
X137928571Y-47886071D01*
X137428571Y-46886071D02*
X136857142Y-46886071D01*
X137214285Y-46386071D02*
X137214285Y-47671785D01*
X137142857Y-47814642D01*
X137000000Y-47886071D01*
X136857142Y-47886071D01*
X136357142Y-46886071D02*
X136357142Y-48171785D01*
X136428571Y-48314642D01*
X136571428Y-48386071D01*
X136642857Y-48386071D01*
X136357142Y-46386071D02*
X136428571Y-46457500D01*
X136357142Y-46528928D01*
X136285714Y-46457500D01*
X136357142Y-46386071D01*
X136357142Y-46528928D01*
X135428571Y-47886071D02*
X135571428Y-47814642D01*
X135642857Y-47743214D01*
X135714285Y-47600357D01*
X135714285Y-47171785D01*
X135642857Y-47028928D01*
X135571428Y-46957500D01*
X135428571Y-46886071D01*
X135214285Y-46886071D01*
X135071428Y-46957500D01*
X135000000Y-47028928D01*
X134928571Y-47171785D01*
X134928571Y-47600357D01*
X135000000Y-47743214D01*
X135071428Y-47814642D01*
X135214285Y-47886071D01*
X135428571Y-47886071D01*
X134428571Y-46886071D02*
X134071428Y-47886071D01*
X133714285Y-46886071D02*
X134071428Y-47886071D01*
X134214285Y-48243214D01*
X134285714Y-48314642D01*
X134428571Y-48386071D01*
X132000000Y-47886071D02*
X132000000Y-46386071D01*
X131500000Y-47457500D01*
X131000000Y-46386071D01*
X131000000Y-47886071D01*
X130071428Y-47886071D02*
X130214285Y-47814642D01*
X130285714Y-47743214D01*
X130357142Y-47600357D01*
X130357142Y-47171785D01*
X130285714Y-47028928D01*
X130214285Y-46957500D01*
X130071428Y-46886071D01*
X129857142Y-46886071D01*
X129714285Y-46957500D01*
X129642857Y-47028928D01*
X129571428Y-47171785D01*
X129571428Y-47600357D01*
X129642857Y-47743214D01*
X129714285Y-47814642D01*
X129857142Y-47886071D01*
X130071428Y-47886071D01*
X128285714Y-47886071D02*
X128285714Y-46386071D01*
X128285714Y-47814642D02*
X128428571Y-47886071D01*
X128714285Y-47886071D01*
X128857142Y-47814642D01*
X128928571Y-47743214D01*
X129000000Y-47600357D01*
X129000000Y-47171785D01*
X128928571Y-47028928D01*
X128857142Y-46957500D01*
X128714285Y-46886071D01*
X128428571Y-46886071D01*
X128285714Y-46957500D01*
X126928571Y-46886071D02*
X126928571Y-47886071D01*
X127571428Y-46886071D02*
X127571428Y-47671785D01*
X127500000Y-47814642D01*
X127357142Y-47886071D01*
X127142857Y-47886071D01*
X127000000Y-47814642D01*
X126928571Y-47743214D01*
X126000000Y-47886071D02*
X126142857Y-47814642D01*
X126214285Y-47671785D01*
X126214285Y-46386071D01*
X124785714Y-47886071D02*
X124785714Y-47100357D01*
X124857142Y-46957500D01*
X125000000Y-46886071D01*
X125285714Y-46886071D01*
X125428571Y-46957500D01*
X124785714Y-47814642D02*
X124928571Y-47886071D01*
X125285714Y-47886071D01*
X125428571Y-47814642D01*
X125500000Y-47671785D01*
X125500000Y-47528928D01*
X125428571Y-47386071D01*
X125285714Y-47314642D01*
X124928571Y-47314642D01*
X124785714Y-47243214D01*
X124071428Y-47886071D02*
X124071428Y-46886071D01*
X124071428Y-47171785D02*
X124000000Y-47028928D01*
X123928571Y-46957500D01*
X123785714Y-46886071D01*
X123642857Y-46886071D01*
X122071428Y-46528928D02*
X122000000Y-46457500D01*
X121857142Y-46386071D01*
X121500000Y-46386071D01*
X121357142Y-46457500D01*
X121285714Y-46528928D01*
X121214285Y-46671785D01*
X121214285Y-46814642D01*
X121285714Y-47028928D01*
X122142857Y-47886071D01*
X121214285Y-47886071D01*
X120285714Y-46386071D02*
X120142857Y-46386071D01*
X120000000Y-46457500D01*
X119928571Y-46528928D01*
X119857142Y-46671785D01*
X119785714Y-46957500D01*
X119785714Y-47314642D01*
X119857142Y-47600357D01*
X119928571Y-47743214D01*
X120000000Y-47814642D01*
X120142857Y-47886071D01*
X120285714Y-47886071D01*
X120428571Y-47814642D01*
X120500000Y-47743214D01*
X120571428Y-47600357D01*
X120642857Y-47314642D01*
X120642857Y-46957500D01*
X120571428Y-46671785D01*
X120500000Y-46528928D01*
X120428571Y-46457500D01*
X120285714Y-46386071D01*
X119214285Y-46528928D02*
X119142857Y-46457500D01*
X119000000Y-46386071D01*
X118642857Y-46386071D01*
X118500000Y-46457500D01*
X118428571Y-46528928D01*
X118357142Y-46671785D01*
X118357142Y-46814642D01*
X118428571Y-47028928D01*
X119285714Y-47886071D01*
X118357142Y-47886071D01*
X116928571Y-47886071D02*
X117785714Y-47886071D01*
X117357142Y-47886071D02*
X117357142Y-46386071D01*
X117500000Y-46600357D01*
X117642857Y-46743214D01*
X117785714Y-46814642D01*
D11*
X135619047Y-165452380D02*
X135619047Y-166166666D01*
X135666666Y-166309523D01*
X135761904Y-166404761D01*
X135904761Y-166452380D01*
X136000000Y-166452380D01*
X134666666Y-166452380D02*
X135142857Y-166452380D01*
X135142857Y-165452380D01*
X133761904Y-166357142D02*
X133809523Y-166404761D01*
X133952380Y-166452380D01*
X134047619Y-166452380D01*
X134190476Y-166404761D01*
X134285714Y-166309523D01*
X134333333Y-166214285D01*
X134380952Y-166023809D01*
X134380952Y-165880952D01*
X134333333Y-165690476D01*
X134285714Y-165595238D01*
X134190476Y-165500000D01*
X134047619Y-165452380D01*
X133952380Y-165452380D01*
X133809523Y-165500000D01*
X133761904Y-165547619D01*
X133047619Y-165452380D02*
X133047619Y-166166666D01*
X133095238Y-166309523D01*
X133190476Y-166404761D01*
X133333333Y-166452380D01*
X133428571Y-166452380D01*
X132095238Y-166452380D02*
X132571428Y-166452380D01*
X132571428Y-165452380D01*
X131190476Y-166357142D02*
X131238095Y-166404761D01*
X131380952Y-166452380D01*
X131476190Y-166452380D01*
X131619047Y-166404761D01*
X131714285Y-166309523D01*
X131761904Y-166214285D01*
X131809523Y-166023809D01*
X131809523Y-165880952D01*
X131761904Y-165690476D01*
X131714285Y-165595238D01*
X131619047Y-165500000D01*
X131476190Y-165452380D01*
X131380952Y-165452380D01*
X131238095Y-165500000D01*
X131190476Y-165547619D01*
X130476190Y-165452380D02*
X130476190Y-166166666D01*
X130523809Y-166309523D01*
X130619047Y-166404761D01*
X130761904Y-166452380D01*
X130857142Y-166452380D01*
X129523809Y-166452380D02*
X130000000Y-166452380D01*
X130000000Y-165452380D01*
X128619047Y-166357142D02*
X128666666Y-166404761D01*
X128809523Y-166452380D01*
X128904761Y-166452380D01*
X129047619Y-166404761D01*
X129142857Y-166309523D01*
X129190476Y-166214285D01*
X129238095Y-166023809D01*
X129238095Y-165880952D01*
X129190476Y-165690476D01*
X129142857Y-165595238D01*
X129047619Y-165500000D01*
X128904761Y-165452380D01*
X128809523Y-165452380D01*
X128666666Y-165500000D01*
X128619047Y-165547619D01*
X127904761Y-165452380D02*
X127904761Y-166166666D01*
X127952380Y-166309523D01*
X128047619Y-166404761D01*
X128190476Y-166452380D01*
X128285714Y-166452380D01*
X126952380Y-166452380D02*
X127428571Y-166452380D01*
X127428571Y-165452380D01*
X126047619Y-166357142D02*
X126095238Y-166404761D01*
X126238095Y-166452380D01*
X126333333Y-166452380D01*
X126476190Y-166404761D01*
X126571428Y-166309523D01*
X126619047Y-166214285D01*
X126666666Y-166023809D01*
X126666666Y-165880952D01*
X126619047Y-165690476D01*
X126571428Y-165595238D01*
X126476190Y-165500000D01*
X126333333Y-165452380D01*
X126238095Y-165452380D01*
X126095238Y-165500000D01*
X126047619Y-165547619D01*
M02*
