%TF.GenerationSoftware,KiCad,Pcbnew,(6.0.11)*%
%TF.CreationDate,2023-03-02T18:35:56+00:00*%
%TF.ProjectId,Ampelope_Adapter,416d7065-6c6f-4706-955f-416461707465,rev?*%
%TF.SameCoordinates,Original*%
%TF.FileFunction,Legend,Bot*%
%TF.FilePolarity,Positive*%
%FSLAX46Y46*%
G04 Gerber Fmt 4.6, Leading zero omitted, Abs format (unit mm)*
G04 Created by KiCad (PCBNEW (6.0.11)) date 2023-03-02 18:35:56*
%MOMM*%
%LPD*%
G01*
G04 APERTURE LIST*
%ADD10C,0.150000*%
%ADD11C,0.300000*%
%ADD12C,0.120000*%
G04 APERTURE END LIST*
D10*
X113400000Y-135000000D02*
X112500000Y-135000000D01*
X112500000Y-135050000D02*
X112500000Y-135950000D01*
X110000000Y-148900000D02*
X110900000Y-148900000D01*
X109950000Y-148000000D02*
X109950000Y-148900000D01*
X156066666Y-52552380D02*
X156066666Y-51552380D01*
X155828571Y-51552380D01*
X155685714Y-51600000D01*
X155590476Y-51695238D01*
X155542857Y-51790476D01*
X155495238Y-51980952D01*
X155495238Y-52123809D01*
X155542857Y-52314285D01*
X155590476Y-52409523D01*
X155685714Y-52504761D01*
X155828571Y-52552380D01*
X156066666Y-52552380D01*
X154876190Y-51552380D02*
X154685714Y-51552380D01*
X154590476Y-51600000D01*
X154495238Y-51695238D01*
X154447619Y-51885714D01*
X154447619Y-52219047D01*
X154495238Y-52409523D01*
X154590476Y-52504761D01*
X154685714Y-52552380D01*
X154876190Y-52552380D01*
X154971428Y-52504761D01*
X155066666Y-52409523D01*
X155114285Y-52219047D01*
X155114285Y-51885714D01*
X155066666Y-51695238D01*
X154971428Y-51600000D01*
X154876190Y-51552380D01*
X153257142Y-52552380D02*
X153257142Y-51552380D01*
X152685714Y-52552380D01*
X152685714Y-51552380D01*
X152019047Y-51552380D02*
X151828571Y-51552380D01*
X151733333Y-51600000D01*
X151638095Y-51695238D01*
X151590476Y-51885714D01*
X151590476Y-52219047D01*
X151638095Y-52409523D01*
X151733333Y-52504761D01*
X151828571Y-52552380D01*
X152019047Y-52552380D01*
X152114285Y-52504761D01*
X152209523Y-52409523D01*
X152257142Y-52219047D01*
X152257142Y-51885714D01*
X152209523Y-51695238D01*
X152114285Y-51600000D01*
X152019047Y-51552380D01*
X151304761Y-51552380D02*
X150733333Y-51552380D01*
X151019047Y-52552380D02*
X151019047Y-51552380D01*
X149066666Y-52457142D02*
X149114285Y-52504761D01*
X149257142Y-52552380D01*
X149352380Y-52552380D01*
X149495238Y-52504761D01*
X149590476Y-52409523D01*
X149638095Y-52314285D01*
X149685714Y-52123809D01*
X149685714Y-51980952D01*
X149638095Y-51790476D01*
X149590476Y-51695238D01*
X149495238Y-51600000D01*
X149352380Y-51552380D01*
X149257142Y-51552380D01*
X149114285Y-51600000D01*
X149066666Y-51647619D01*
X148447619Y-51552380D02*
X148257142Y-51552380D01*
X148161904Y-51600000D01*
X148066666Y-51695238D01*
X148019047Y-51885714D01*
X148019047Y-52219047D01*
X148066666Y-52409523D01*
X148161904Y-52504761D01*
X148257142Y-52552380D01*
X148447619Y-52552380D01*
X148542857Y-52504761D01*
X148638095Y-52409523D01*
X148685714Y-52219047D01*
X148685714Y-51885714D01*
X148638095Y-51695238D01*
X148542857Y-51600000D01*
X148447619Y-51552380D01*
X147590476Y-52552380D02*
X147590476Y-51552380D01*
X147019047Y-52552380D01*
X147019047Y-51552380D01*
X146542857Y-52552380D02*
X146542857Y-51552380D01*
X145971428Y-52552380D01*
X145971428Y-51552380D01*
X145495238Y-52028571D02*
X145161904Y-52028571D01*
X145019047Y-52552380D02*
X145495238Y-52552380D01*
X145495238Y-51552380D01*
X145019047Y-51552380D01*
X144019047Y-52457142D02*
X144066666Y-52504761D01*
X144209523Y-52552380D01*
X144304761Y-52552380D01*
X144447619Y-52504761D01*
X144542857Y-52409523D01*
X144590476Y-52314285D01*
X144638095Y-52123809D01*
X144638095Y-51980952D01*
X144590476Y-51790476D01*
X144542857Y-51695238D01*
X144447619Y-51600000D01*
X144304761Y-51552380D01*
X144209523Y-51552380D01*
X144066666Y-51600000D01*
X144019047Y-51647619D01*
X143733333Y-51552380D02*
X143161904Y-51552380D01*
X143447619Y-52552380D02*
X143447619Y-51552380D01*
X141542857Y-51600000D02*
X141638095Y-51552380D01*
X141780952Y-51552380D01*
X141923809Y-51600000D01*
X142019047Y-51695238D01*
X142066666Y-51790476D01*
X142114285Y-51980952D01*
X142114285Y-52123809D01*
X142066666Y-52314285D01*
X142019047Y-52409523D01*
X141923809Y-52504761D01*
X141780952Y-52552380D01*
X141685714Y-52552380D01*
X141542857Y-52504761D01*
X141495238Y-52457142D01*
X141495238Y-52123809D01*
X141685714Y-52123809D01*
X141114285Y-52266666D02*
X140638095Y-52266666D01*
X141209523Y-52552380D02*
X140876190Y-51552380D01*
X140542857Y-52552380D01*
X140352380Y-51552380D02*
X139780952Y-51552380D01*
X140066666Y-52552380D02*
X140066666Y-51552380D01*
X139447619Y-52028571D02*
X139114285Y-52028571D01*
X138971428Y-52552380D02*
X139447619Y-52552380D01*
X139447619Y-51552380D01*
X138971428Y-51552380D01*
X137780952Y-52552380D02*
X137780952Y-51552380D01*
X137304761Y-52552380D02*
X137304761Y-51552380D01*
X136733333Y-52552380D01*
X136733333Y-51552380D01*
X125323809Y-53961666D02*
X124847619Y-53961666D01*
X125419047Y-54247380D02*
X125085714Y-53247380D01*
X124752380Y-54247380D01*
X124419047Y-54247380D02*
X124419047Y-53580714D01*
X124419047Y-53675952D02*
X124371428Y-53628333D01*
X124276190Y-53580714D01*
X124133333Y-53580714D01*
X124038095Y-53628333D01*
X123990476Y-53723571D01*
X123990476Y-54247380D01*
X123990476Y-53723571D02*
X123942857Y-53628333D01*
X123847619Y-53580714D01*
X123704761Y-53580714D01*
X123609523Y-53628333D01*
X123561904Y-53723571D01*
X123561904Y-54247380D01*
X123085714Y-53580714D02*
X123085714Y-54580714D01*
X123085714Y-53628333D02*
X122990476Y-53580714D01*
X122800000Y-53580714D01*
X122704761Y-53628333D01*
X122657142Y-53675952D01*
X122609523Y-53771190D01*
X122609523Y-54056904D01*
X122657142Y-54152142D01*
X122704761Y-54199761D01*
X122800000Y-54247380D01*
X122990476Y-54247380D01*
X123085714Y-54199761D01*
X121800000Y-54199761D02*
X121895238Y-54247380D01*
X122085714Y-54247380D01*
X122180952Y-54199761D01*
X122228571Y-54104523D01*
X122228571Y-53723571D01*
X122180952Y-53628333D01*
X122085714Y-53580714D01*
X121895238Y-53580714D01*
X121800000Y-53628333D01*
X121752380Y-53723571D01*
X121752380Y-53818809D01*
X122228571Y-53914047D01*
X121180952Y-54247380D02*
X121276190Y-54199761D01*
X121323809Y-54104523D01*
X121323809Y-53247380D01*
X120657142Y-54247380D02*
X120752380Y-54199761D01*
X120800000Y-54152142D01*
X120847619Y-54056904D01*
X120847619Y-53771190D01*
X120800000Y-53675952D01*
X120752380Y-53628333D01*
X120657142Y-53580714D01*
X120514285Y-53580714D01*
X120419047Y-53628333D01*
X120371428Y-53675952D01*
X120323809Y-53771190D01*
X120323809Y-54056904D01*
X120371428Y-54152142D01*
X120419047Y-54199761D01*
X120514285Y-54247380D01*
X120657142Y-54247380D01*
X119895238Y-53580714D02*
X119895238Y-54580714D01*
X119895238Y-53628333D02*
X119800000Y-53580714D01*
X119609523Y-53580714D01*
X119514285Y-53628333D01*
X119466666Y-53675952D01*
X119419047Y-53771190D01*
X119419047Y-54056904D01*
X119466666Y-54152142D01*
X119514285Y-54199761D01*
X119609523Y-54247380D01*
X119800000Y-54247380D01*
X119895238Y-54199761D01*
X118609523Y-54199761D02*
X118704761Y-54247380D01*
X118895238Y-54247380D01*
X118990476Y-54199761D01*
X119038095Y-54104523D01*
X119038095Y-53723571D01*
X118990476Y-53628333D01*
X118895238Y-53580714D01*
X118704761Y-53580714D01*
X118609523Y-53628333D01*
X118561904Y-53723571D01*
X118561904Y-53818809D01*
X119038095Y-53914047D01*
X117419047Y-53961666D02*
X116942857Y-53961666D01*
X117514285Y-54247380D02*
X117180952Y-53247380D01*
X116847619Y-54247380D01*
X116085714Y-54247380D02*
X116085714Y-53247380D01*
X116085714Y-54199761D02*
X116180952Y-54247380D01*
X116371428Y-54247380D01*
X116466666Y-54199761D01*
X116514285Y-54152142D01*
X116561904Y-54056904D01*
X116561904Y-53771190D01*
X116514285Y-53675952D01*
X116466666Y-53628333D01*
X116371428Y-53580714D01*
X116180952Y-53580714D01*
X116085714Y-53628333D01*
X115180952Y-54247380D02*
X115180952Y-53723571D01*
X115228571Y-53628333D01*
X115323809Y-53580714D01*
X115514285Y-53580714D01*
X115609523Y-53628333D01*
X115180952Y-54199761D02*
X115276190Y-54247380D01*
X115514285Y-54247380D01*
X115609523Y-54199761D01*
X115657142Y-54104523D01*
X115657142Y-54009285D01*
X115609523Y-53914047D01*
X115514285Y-53866428D01*
X115276190Y-53866428D01*
X115180952Y-53818809D01*
X114704761Y-53580714D02*
X114704761Y-54580714D01*
X114704761Y-53628333D02*
X114609523Y-53580714D01*
X114419047Y-53580714D01*
X114323809Y-53628333D01*
X114276190Y-53675952D01*
X114228571Y-53771190D01*
X114228571Y-54056904D01*
X114276190Y-54152142D01*
X114323809Y-54199761D01*
X114419047Y-54247380D01*
X114609523Y-54247380D01*
X114704761Y-54199761D01*
X113942857Y-53580714D02*
X113561904Y-53580714D01*
X113800000Y-53247380D02*
X113800000Y-54104523D01*
X113752380Y-54199761D01*
X113657142Y-54247380D01*
X113561904Y-54247380D01*
X112847619Y-54199761D02*
X112942857Y-54247380D01*
X113133333Y-54247380D01*
X113228571Y-54199761D01*
X113276190Y-54104523D01*
X113276190Y-53723571D01*
X113228571Y-53628333D01*
X113133333Y-53580714D01*
X112942857Y-53580714D01*
X112847619Y-53628333D01*
X112800000Y-53723571D01*
X112800000Y-53818809D01*
X113276190Y-53914047D01*
X112371428Y-54247380D02*
X112371428Y-53580714D01*
X112371428Y-53771190D02*
X112323809Y-53675952D01*
X112276190Y-53628333D01*
X112180952Y-53580714D01*
X112085714Y-53580714D01*
X111085714Y-53580714D02*
X110847619Y-54247380D01*
X110609523Y-53580714D01*
X109704761Y-54247380D02*
X110276190Y-54247380D01*
X109990476Y-54247380D02*
X109990476Y-53247380D01*
X110085714Y-53390238D01*
X110180952Y-53485476D01*
X110276190Y-53533095D01*
X109276190Y-54152142D02*
X109228571Y-54199761D01*
X109276190Y-54247380D01*
X109323809Y-54199761D01*
X109276190Y-54152142D01*
X109276190Y-54247380D01*
X108609523Y-53247380D02*
X108514285Y-53247380D01*
X108419047Y-53295000D01*
X108371428Y-53342619D01*
X108323809Y-53437857D01*
X108276190Y-53628333D01*
X108276190Y-53866428D01*
X108323809Y-54056904D01*
X108371428Y-54152142D01*
X108419047Y-54199761D01*
X108514285Y-54247380D01*
X108609523Y-54247380D01*
X108704761Y-54199761D01*
X108752380Y-54152142D01*
X108800000Y-54056904D01*
X108847619Y-53866428D01*
X108847619Y-53628333D01*
X108800000Y-53437857D01*
X108752380Y-53342619D01*
X108704761Y-53295000D01*
X108609523Y-53247380D01*
X125466666Y-55857380D02*
X125466666Y-54857380D01*
X125133333Y-55571666D01*
X124800000Y-54857380D01*
X124800000Y-55857380D01*
X124180952Y-55857380D02*
X124276190Y-55809761D01*
X124323809Y-55762142D01*
X124371428Y-55666904D01*
X124371428Y-55381190D01*
X124323809Y-55285952D01*
X124276190Y-55238333D01*
X124180952Y-55190714D01*
X124038095Y-55190714D01*
X123942857Y-55238333D01*
X123895238Y-55285952D01*
X123847619Y-55381190D01*
X123847619Y-55666904D01*
X123895238Y-55762142D01*
X123942857Y-55809761D01*
X124038095Y-55857380D01*
X124180952Y-55857380D01*
X122990476Y-55190714D02*
X122990476Y-55857380D01*
X123419047Y-55190714D02*
X123419047Y-55714523D01*
X123371428Y-55809761D01*
X123276190Y-55857380D01*
X123133333Y-55857380D01*
X123038095Y-55809761D01*
X122990476Y-55762142D01*
X122514285Y-55190714D02*
X122514285Y-55857380D01*
X122514285Y-55285952D02*
X122466666Y-55238333D01*
X122371428Y-55190714D01*
X122228571Y-55190714D01*
X122133333Y-55238333D01*
X122085714Y-55333571D01*
X122085714Y-55857380D01*
X121752380Y-55190714D02*
X121371428Y-55190714D01*
X121609523Y-54857380D02*
X121609523Y-55714523D01*
X121561904Y-55809761D01*
X121466666Y-55857380D01*
X121371428Y-55857380D01*
X121038095Y-55190714D02*
X121038095Y-56047857D01*
X121085714Y-56143095D01*
X121180952Y-56190714D01*
X121228571Y-56190714D01*
X121038095Y-54857380D02*
X121085714Y-54905000D01*
X121038095Y-54952619D01*
X120990476Y-54905000D01*
X121038095Y-54857380D01*
X121038095Y-54952619D01*
X120419047Y-55857380D02*
X120514285Y-55809761D01*
X120561904Y-55762142D01*
X120609523Y-55666904D01*
X120609523Y-55381190D01*
X120561904Y-55285952D01*
X120514285Y-55238333D01*
X120419047Y-55190714D01*
X120276190Y-55190714D01*
X120180952Y-55238333D01*
X120133333Y-55285952D01*
X120085714Y-55381190D01*
X120085714Y-55666904D01*
X120133333Y-55762142D01*
X120180952Y-55809761D01*
X120276190Y-55857380D01*
X120419047Y-55857380D01*
X119752380Y-55190714D02*
X119514285Y-55857380D01*
X119276190Y-55190714D02*
X119514285Y-55857380D01*
X119609523Y-56095476D01*
X119657142Y-56143095D01*
X119752380Y-56190714D01*
X118133333Y-55857380D02*
X118133333Y-54857380D01*
X117800000Y-55571666D01*
X117466666Y-54857380D01*
X117466666Y-55857380D01*
X116847619Y-55857380D02*
X116942857Y-55809761D01*
X116990476Y-55762142D01*
X117038095Y-55666904D01*
X117038095Y-55381190D01*
X116990476Y-55285952D01*
X116942857Y-55238333D01*
X116847619Y-55190714D01*
X116704761Y-55190714D01*
X116609523Y-55238333D01*
X116561904Y-55285952D01*
X116514285Y-55381190D01*
X116514285Y-55666904D01*
X116561904Y-55762142D01*
X116609523Y-55809761D01*
X116704761Y-55857380D01*
X116847619Y-55857380D01*
X115657142Y-55857380D02*
X115657142Y-54857380D01*
X115657142Y-55809761D02*
X115752380Y-55857380D01*
X115942857Y-55857380D01*
X116038095Y-55809761D01*
X116085714Y-55762142D01*
X116133333Y-55666904D01*
X116133333Y-55381190D01*
X116085714Y-55285952D01*
X116038095Y-55238333D01*
X115942857Y-55190714D01*
X115752380Y-55190714D01*
X115657142Y-55238333D01*
X114752380Y-55190714D02*
X114752380Y-55857380D01*
X115180952Y-55190714D02*
X115180952Y-55714523D01*
X115133333Y-55809761D01*
X115038095Y-55857380D01*
X114895238Y-55857380D01*
X114800000Y-55809761D01*
X114752380Y-55762142D01*
X114133333Y-55857380D02*
X114228571Y-55809761D01*
X114276190Y-55714523D01*
X114276190Y-54857380D01*
X113323809Y-55857380D02*
X113323809Y-55333571D01*
X113371428Y-55238333D01*
X113466666Y-55190714D01*
X113657142Y-55190714D01*
X113752380Y-55238333D01*
X113323809Y-55809761D02*
X113419047Y-55857380D01*
X113657142Y-55857380D01*
X113752380Y-55809761D01*
X113800000Y-55714523D01*
X113800000Y-55619285D01*
X113752380Y-55524047D01*
X113657142Y-55476428D01*
X113419047Y-55476428D01*
X113323809Y-55428809D01*
X112847619Y-55857380D02*
X112847619Y-55190714D01*
X112847619Y-55381190D02*
X112800000Y-55285952D01*
X112752380Y-55238333D01*
X112657142Y-55190714D01*
X112561904Y-55190714D01*
X111514285Y-54952619D02*
X111466666Y-54905000D01*
X111371428Y-54857380D01*
X111133333Y-54857380D01*
X111038095Y-54905000D01*
X110990476Y-54952619D01*
X110942857Y-55047857D01*
X110942857Y-55143095D01*
X110990476Y-55285952D01*
X111561904Y-55857380D01*
X110942857Y-55857380D01*
X110323809Y-54857380D02*
X110228571Y-54857380D01*
X110133333Y-54905000D01*
X110085714Y-54952619D01*
X110038095Y-55047857D01*
X109990476Y-55238333D01*
X109990476Y-55476428D01*
X110038095Y-55666904D01*
X110085714Y-55762142D01*
X110133333Y-55809761D01*
X110228571Y-55857380D01*
X110323809Y-55857380D01*
X110419047Y-55809761D01*
X110466666Y-55762142D01*
X110514285Y-55666904D01*
X110561904Y-55476428D01*
X110561904Y-55238333D01*
X110514285Y-55047857D01*
X110466666Y-54952619D01*
X110419047Y-54905000D01*
X110323809Y-54857380D01*
X109609523Y-54952619D02*
X109561904Y-54905000D01*
X109466666Y-54857380D01*
X109228571Y-54857380D01*
X109133333Y-54905000D01*
X109085714Y-54952619D01*
X109038095Y-55047857D01*
X109038095Y-55143095D01*
X109085714Y-55285952D01*
X109657142Y-55857380D01*
X109038095Y-55857380D01*
X108704761Y-54857380D02*
X108085714Y-54857380D01*
X108419047Y-55238333D01*
X108276190Y-55238333D01*
X108180952Y-55285952D01*
X108133333Y-55333571D01*
X108085714Y-55428809D01*
X108085714Y-55666904D01*
X108133333Y-55762142D01*
X108180952Y-55809761D01*
X108276190Y-55857380D01*
X108561904Y-55857380D01*
X108657142Y-55809761D01*
X108704761Y-55762142D01*
D11*
X106814285Y-145478571D02*
X106814285Y-146478571D01*
X107171428Y-144907142D02*
X107528571Y-145978571D01*
X106600000Y-145978571D01*
X120357142Y-149050000D02*
X119642857Y-149050000D01*
X120500000Y-149478571D02*
X120000000Y-147978571D01*
X119500000Y-149478571D01*
X118357142Y-148478571D02*
X118357142Y-149478571D01*
X119000000Y-148478571D02*
X119000000Y-149264285D01*
X118928571Y-149407142D01*
X118785714Y-149478571D01*
X118571428Y-149478571D01*
X118428571Y-149407142D01*
X118357142Y-149335714D01*
X117000000Y-149478571D02*
X117000000Y-147978571D01*
X117000000Y-149407142D02*
X117142857Y-149478571D01*
X117428571Y-149478571D01*
X117571428Y-149407142D01*
X117642857Y-149335714D01*
X117714285Y-149192857D01*
X117714285Y-148764285D01*
X117642857Y-148621428D01*
X117571428Y-148550000D01*
X117428571Y-148478571D01*
X117142857Y-148478571D01*
X117000000Y-148550000D01*
X116285714Y-149478571D02*
X116285714Y-148478571D01*
X116285714Y-147978571D02*
X116357142Y-148050000D01*
X116285714Y-148121428D01*
X116214285Y-148050000D01*
X116285714Y-147978571D01*
X116285714Y-148121428D01*
X115357142Y-149478571D02*
X115500000Y-149407142D01*
X115571428Y-149335714D01*
X115642857Y-149192857D01*
X115642857Y-148764285D01*
X115571428Y-148621428D01*
X115500000Y-148550000D01*
X115357142Y-148478571D01*
X115142857Y-148478571D01*
X115000000Y-148550000D01*
X114928571Y-148621428D01*
X114857142Y-148764285D01*
X114857142Y-149192857D01*
X114928571Y-149335714D01*
X115000000Y-149407142D01*
X115142857Y-149478571D01*
X115357142Y-149478571D01*
X113071428Y-149478571D02*
X113071428Y-147978571D01*
X112357142Y-148478571D02*
X112357142Y-149478571D01*
X112357142Y-148621428D02*
X112285714Y-148550000D01*
X112142857Y-148478571D01*
X111928571Y-148478571D01*
X111785714Y-148550000D01*
X111714285Y-148692857D01*
X111714285Y-149478571D01*
X151314285Y-137758571D02*
X151314285Y-138758571D01*
X151671428Y-137187142D02*
X152028571Y-138258571D01*
X151100000Y-138258571D01*
X106571428Y-138878571D02*
X107428571Y-138878571D01*
X107000000Y-138878571D02*
X107000000Y-137378571D01*
X107142857Y-137592857D01*
X107285714Y-137735714D01*
X107428571Y-137807142D01*
X118057142Y-134150000D02*
X118200000Y-134078571D01*
X118414285Y-134078571D01*
X118628571Y-134150000D01*
X118771428Y-134292857D01*
X118842857Y-134435714D01*
X118914285Y-134721428D01*
X118914285Y-134935714D01*
X118842857Y-135221428D01*
X118771428Y-135364285D01*
X118628571Y-135507142D01*
X118414285Y-135578571D01*
X118271428Y-135578571D01*
X118057142Y-135507142D01*
X117985714Y-135435714D01*
X117985714Y-134935714D01*
X118271428Y-134935714D01*
X116700000Y-135578571D02*
X116700000Y-134792857D01*
X116771428Y-134650000D01*
X116914285Y-134578571D01*
X117200000Y-134578571D01*
X117342857Y-134650000D01*
X116700000Y-135507142D02*
X116842857Y-135578571D01*
X117200000Y-135578571D01*
X117342857Y-135507142D01*
X117414285Y-135364285D01*
X117414285Y-135221428D01*
X117342857Y-135078571D01*
X117200000Y-135007142D01*
X116842857Y-135007142D01*
X116700000Y-134935714D01*
X116200000Y-134578571D02*
X115628571Y-134578571D01*
X115985714Y-134078571D02*
X115985714Y-135364285D01*
X115914285Y-135507142D01*
X115771428Y-135578571D01*
X115628571Y-135578571D01*
X114557142Y-135507142D02*
X114700000Y-135578571D01*
X114985714Y-135578571D01*
X115128571Y-135507142D01*
X115200000Y-135364285D01*
X115200000Y-134792857D01*
X115128571Y-134650000D01*
X114985714Y-134578571D01*
X114700000Y-134578571D01*
X114557142Y-134650000D01*
X114485714Y-134792857D01*
X114485714Y-134935714D01*
X115200000Y-135078571D01*
X145550000Y-136685714D02*
X145550000Y-137400000D01*
X145978571Y-136542857D02*
X144478571Y-137042857D01*
X145978571Y-137542857D01*
X144978571Y-138685714D02*
X145978571Y-138685714D01*
X144978571Y-138042857D02*
X145764285Y-138042857D01*
X145907142Y-138114285D01*
X145978571Y-138257142D01*
X145978571Y-138471428D01*
X145907142Y-138614285D01*
X145835714Y-138685714D01*
X145978571Y-140042857D02*
X144478571Y-140042857D01*
X145907142Y-140042857D02*
X145978571Y-139900000D01*
X145978571Y-139614285D01*
X145907142Y-139471428D01*
X145835714Y-139400000D01*
X145692857Y-139328571D01*
X145264285Y-139328571D01*
X145121428Y-139400000D01*
X145050000Y-139471428D01*
X144978571Y-139614285D01*
X144978571Y-139900000D01*
X145050000Y-140042857D01*
X145978571Y-140757142D02*
X144978571Y-140757142D01*
X144478571Y-140757142D02*
X144550000Y-140685714D01*
X144621428Y-140757142D01*
X144550000Y-140828571D01*
X144478571Y-140757142D01*
X144621428Y-140757142D01*
X145978571Y-141685714D02*
X145907142Y-141542857D01*
X145835714Y-141471428D01*
X145692857Y-141400000D01*
X145264285Y-141400000D01*
X145121428Y-141471428D01*
X145050000Y-141542857D01*
X144978571Y-141685714D01*
X144978571Y-141900000D01*
X145050000Y-142042857D01*
X145121428Y-142114285D01*
X145264285Y-142185714D01*
X145692857Y-142185714D01*
X145835714Y-142114285D01*
X145907142Y-142042857D01*
X145978571Y-141900000D01*
X145978571Y-141685714D01*
X144478571Y-144257142D02*
X144478571Y-144542857D01*
X144550000Y-144685714D01*
X144692857Y-144828571D01*
X144978571Y-144900000D01*
X145478571Y-144900000D01*
X145764285Y-144828571D01*
X145907142Y-144685714D01*
X145978571Y-144542857D01*
X145978571Y-144257142D01*
X145907142Y-144114285D01*
X145764285Y-143971428D01*
X145478571Y-143900000D01*
X144978571Y-143900000D01*
X144692857Y-143971428D01*
X144550000Y-144114285D01*
X144478571Y-144257142D01*
X144978571Y-146185714D02*
X145978571Y-146185714D01*
X144978571Y-145542857D02*
X145764285Y-145542857D01*
X145907142Y-145614285D01*
X145978571Y-145757142D01*
X145978571Y-145971428D01*
X145907142Y-146114285D01*
X145835714Y-146185714D01*
X144978571Y-146685714D02*
X144978571Y-147257142D01*
X144478571Y-146900000D02*
X145764285Y-146900000D01*
X145907142Y-146971428D01*
X145978571Y-147114285D01*
X145978571Y-147257142D01*
X150971428Y-146358571D02*
X151828571Y-146358571D01*
X151400000Y-146358571D02*
X151400000Y-144858571D01*
X151542857Y-145072857D01*
X151685714Y-145215714D01*
X151828571Y-145287142D01*
D10*
X158933333Y-131252380D02*
X158933333Y-131966666D01*
X158980952Y-132109523D01*
X159076190Y-132204761D01*
X159219047Y-132252380D01*
X159314285Y-132252380D01*
X158504761Y-131347619D02*
X158457142Y-131300000D01*
X158361904Y-131252380D01*
X158123809Y-131252380D01*
X158028571Y-131300000D01*
X157980952Y-131347619D01*
X157933333Y-131442857D01*
X157933333Y-131538095D01*
X157980952Y-131680952D01*
X158552380Y-132252380D01*
X157933333Y-132252380D01*
X102333333Y-131052380D02*
X102333333Y-131766666D01*
X102380952Y-131909523D01*
X102476190Y-132004761D01*
X102619047Y-132052380D01*
X102714285Y-132052380D01*
X101428571Y-131385714D02*
X101428571Y-132052380D01*
X101666666Y-131004761D02*
X101904761Y-131719047D01*
X101285714Y-131719047D01*
X158833333Y-82352380D02*
X158833333Y-83066666D01*
X158880952Y-83209523D01*
X158976190Y-83304761D01*
X159119047Y-83352380D01*
X159214285Y-83352380D01*
X157833333Y-83352380D02*
X158404761Y-83352380D01*
X158119047Y-83352380D02*
X158119047Y-82352380D01*
X158214285Y-82495238D01*
X158309523Y-82590476D01*
X158404761Y-82638095D01*
X102333333Y-82252380D02*
X102333333Y-82966666D01*
X102380952Y-83109523D01*
X102476190Y-83204761D01*
X102619047Y-83252380D01*
X102714285Y-83252380D01*
X101952380Y-82252380D02*
X101333333Y-82252380D01*
X101666666Y-82633333D01*
X101523809Y-82633333D01*
X101428571Y-82680952D01*
X101380952Y-82728571D01*
X101333333Y-82823809D01*
X101333333Y-83061904D01*
X101380952Y-83157142D01*
X101428571Y-83204761D01*
X101523809Y-83252380D01*
X101809523Y-83252380D01*
X101904761Y-83204761D01*
X101952380Y-83157142D01*
D12*
X161914214Y-50000000D02*
G75*
G03*
X161914214Y-50000000I-1414214J0D01*
G01*
X147470000Y-147010000D02*
X148800000Y-147010000D01*
X147470000Y-144410000D02*
X150130000Y-144410000D01*
X147470000Y-145680000D02*
X147470000Y-147010000D01*
X147470000Y-136730000D02*
X150130000Y-136730000D01*
X150130000Y-144410000D02*
X150130000Y-136730000D01*
X147470000Y-144410000D02*
X147470000Y-136730000D01*
X108570000Y-136830000D02*
X108570000Y-147110000D01*
X113770000Y-139430000D02*
X113770000Y-147110000D01*
X111170000Y-139430000D02*
X111170000Y-136830000D01*
X111170000Y-136830000D02*
X108570000Y-136830000D01*
X113770000Y-138160000D02*
X113770000Y-136830000D01*
X113770000Y-136830000D02*
X112440000Y-136830000D01*
X113770000Y-147110000D02*
X108570000Y-147110000D01*
X113770000Y-139430000D02*
X111170000Y-139430000D01*
X159830000Y-102370000D02*
X157170000Y-102370000D01*
X159830000Y-130370000D02*
X157170000Y-130370000D01*
X158500000Y-99770000D02*
X157170000Y-99770000D01*
X157170000Y-102370000D02*
X157170000Y-130370000D01*
X159830000Y-102370000D02*
X159830000Y-130370000D01*
X157170000Y-99770000D02*
X157170000Y-101100000D01*
X103330000Y-102370000D02*
X103330000Y-130370000D01*
X100670000Y-102370000D02*
X100670000Y-130370000D01*
X103330000Y-130370000D02*
X100670000Y-130370000D01*
X100670000Y-99770000D02*
X100670000Y-101100000D01*
X102000000Y-99770000D02*
X100670000Y-99770000D01*
X103330000Y-102370000D02*
X100670000Y-102370000D01*
X159830000Y-53370000D02*
X157170000Y-53370000D01*
X157170000Y-50770000D02*
X157170000Y-52100000D01*
X158500000Y-50770000D02*
X157170000Y-50770000D01*
X157170000Y-53370000D02*
X157170000Y-81370000D01*
X159830000Y-81370000D02*
X157170000Y-81370000D01*
X159830000Y-53370000D02*
X159830000Y-81370000D01*
X103330000Y-81370000D02*
X100670000Y-81370000D01*
X102000000Y-50770000D02*
X100670000Y-50770000D01*
X100670000Y-50770000D02*
X100670000Y-52100000D01*
X100670000Y-53370000D02*
X100670000Y-81370000D01*
X103330000Y-53370000D02*
X100670000Y-53370000D01*
X103330000Y-53370000D02*
X103330000Y-81370000D01*
M02*
