M48
; DRILL file {KiCad (6.0.11)} date Thu Mar  2 18:35:58 2023
; FORMAT={-:-/ absolute / inch / decimal}
; #@! TF.CreationDate,2023-03-02T18:35:58+00:00
; #@! TF.GenerationSoftware,Kicad,Pcbnew,(6.0.11)
; #@! TF.FileFunction,Plated,1,2,PTH
FMAT,2
INCH
; #@! TA.AperFunction,Plated,PTH,ComponentDrill
T1C0.0394
%
G90
G05
T1
X4.0157Y-2.0512
X4.0157Y-2.1512
X4.0157Y-2.2512
X4.0157Y-2.3512
X4.0157Y-2.4512
X4.0157Y-2.5512
X4.0157Y-2.6512
X4.0157Y-2.7512
X4.0157Y-2.8512
X4.0157Y-2.9512
X4.0157Y-3.0512
X4.0157Y-3.1512
X4.0157Y-3.9803
X4.0157Y-4.0803
X4.0157Y-4.1803
X4.0157Y-4.2803
X4.0157Y-4.3803
X4.0157Y-4.4803
X4.0157Y-4.5803
X4.0157Y-4.6803
X4.0157Y-4.7803
X4.0157Y-4.8803
X4.0157Y-4.9803
X4.0157Y-5.0803
X4.3268Y-5.4394
X4.3268Y-5.5394
X4.3268Y-5.6394
X4.3268Y-5.7394
X4.4268Y-5.4394
X4.4268Y-5.5394
X4.4268Y-5.6394
X4.4268Y-5.7394
X5.8583Y-5.4354
X5.8583Y-5.5354
X5.8583Y-5.6354
X5.8583Y-5.7354
X6.2402Y-2.0512
X6.2402Y-2.1512
X6.2402Y-2.2512
X6.2402Y-2.3512
X6.2402Y-2.4512
X6.2402Y-2.5512
X6.2402Y-2.6512
X6.2402Y-2.7512
X6.2402Y-2.8512
X6.2402Y-2.9512
X6.2402Y-3.0512
X6.2402Y-3.1512
X6.2402Y-3.9803
X6.2402Y-4.0803
X6.2402Y-4.1803
X6.2402Y-4.2803
X6.2402Y-4.3803
X6.2402Y-4.4803
X6.2402Y-4.5803
X6.2402Y-4.6803
X6.2402Y-4.7803
X6.2402Y-4.8803
X6.2402Y-4.9803
X6.2402Y-5.0803
T0
M30
