%TF.GenerationSoftware,KiCad,Pcbnew,(6.0.11)*%
%TF.CreationDate,2023-03-02T18:35:56+00:00*%
%TF.ProjectId,Ampelope_Adapter,416d7065-6c6f-4706-955f-416461707465,rev?*%
%TF.SameCoordinates,Original*%
%TF.FileFunction,Copper,L2,Bot*%
%TF.FilePolarity,Positive*%
%FSLAX46Y46*%
G04 Gerber Fmt 4.6, Leading zero omitted, Abs format (unit mm)*
G04 Created by KiCad (PCBNEW (6.0.11)) date 2023-03-02 18:35:56*
%MOMM*%
%LPD*%
G01*
G04 APERTURE LIST*
%TA.AperFunction,ComponentPad*%
%ADD10O,1.700000X1.700000*%
%TD*%
%TA.AperFunction,ComponentPad*%
%ADD11R,1.700000X1.700000*%
%TD*%
%TA.AperFunction,Conductor*%
%ADD12C,0.300000*%
%TD*%
G04 APERTURE END LIST*
D10*
X148800000Y-138060000D03*
X148800000Y-140600000D03*
X148800000Y-143140000D03*
D11*
X148800000Y-145680000D03*
D10*
X109900000Y-145780000D03*
X112440000Y-145780000D03*
X109900000Y-143240000D03*
X112440000Y-143240000D03*
X109900000Y-140700000D03*
X112440000Y-140700000D03*
X109900000Y-138160000D03*
D11*
X112440000Y-138160000D03*
X158500000Y-101100000D03*
D10*
X158500000Y-103640000D03*
X158500000Y-106180000D03*
X158500000Y-108720000D03*
X158500000Y-111260000D03*
X158500000Y-113800000D03*
X158500000Y-116340000D03*
X158500000Y-118880000D03*
X158500000Y-121420000D03*
X158500000Y-123960000D03*
X158500000Y-126500000D03*
X158500000Y-129040000D03*
D11*
X102000000Y-101100000D03*
D10*
X102000000Y-103640000D03*
X102000000Y-106180000D03*
X102000000Y-108720000D03*
X102000000Y-111260000D03*
X102000000Y-113800000D03*
X102000000Y-116340000D03*
X102000000Y-118880000D03*
X102000000Y-121420000D03*
X102000000Y-123960000D03*
X102000000Y-126500000D03*
X102000000Y-129040000D03*
D11*
X158500000Y-52100000D03*
D10*
X158500000Y-54640000D03*
X158500000Y-57180000D03*
X158500000Y-59720000D03*
X158500000Y-62260000D03*
X158500000Y-64800000D03*
X158500000Y-67340000D03*
X158500000Y-69880000D03*
X158500000Y-72420000D03*
X158500000Y-74960000D03*
X158500000Y-77500000D03*
X158500000Y-80040000D03*
D11*
X102000000Y-52100000D03*
D10*
X102000000Y-54640000D03*
X102000000Y-57180000D03*
X102000000Y-59720000D03*
X102000000Y-62260000D03*
X102000000Y-64800000D03*
X102000000Y-67340000D03*
X102000000Y-69880000D03*
X102000000Y-72420000D03*
X102000000Y-74960000D03*
X102000000Y-77500000D03*
X102000000Y-80040000D03*
D12*
X111200000Y-139400000D02*
X109900000Y-140700000D01*
X114200000Y-139400000D02*
X111200000Y-139400000D01*
X147420000Y-106180000D02*
X114200000Y-139400000D01*
X158500000Y-106180000D02*
X147420000Y-106180000D01*
X111140000Y-142000000D02*
X109900000Y-143240000D01*
X114200000Y-142000000D02*
X111140000Y-142000000D01*
X148320000Y-108720000D02*
X148300000Y-108700000D01*
X148300000Y-108700000D02*
X147500000Y-108700000D01*
X158500000Y-108720000D02*
X148320000Y-108720000D01*
X147500000Y-108700000D02*
X114200000Y-142000000D01*
X147340000Y-111260000D02*
X158500000Y-111260000D01*
X114100000Y-144500000D02*
X147340000Y-111260000D01*
X111180000Y-144500000D02*
X114100000Y-144500000D01*
X109900000Y-145780000D02*
X111180000Y-144500000D01*
X139220000Y-145780000D02*
X112440000Y-145780000D01*
X158500000Y-126500000D02*
X139220000Y-145780000D01*
X144420000Y-103640000D02*
X109900000Y-138160000D01*
X158500000Y-103640000D02*
X144420000Y-103640000D01*
%TA.AperFunction,Conductor*%
G36*
X157552300Y-50528502D02*
G01*
X157598793Y-50582158D01*
X157608897Y-50652432D01*
X157579403Y-50717012D01*
X157528408Y-50752482D01*
X157411705Y-50796232D01*
X157411704Y-50796233D01*
X157403295Y-50799385D01*
X157286739Y-50886739D01*
X157199385Y-51003295D01*
X157148255Y-51139684D01*
X157141500Y-51201866D01*
X157141500Y-52998134D01*
X157148255Y-53060316D01*
X157199385Y-53196705D01*
X157286739Y-53313261D01*
X157403295Y-53400615D01*
X157411704Y-53403767D01*
X157411705Y-53403768D01*
X157520451Y-53444535D01*
X157577216Y-53487176D01*
X157601916Y-53553738D01*
X157586709Y-53623087D01*
X157567316Y-53649568D01*
X157440629Y-53782138D01*
X157437715Y-53786410D01*
X157437714Y-53786411D01*
X157425409Y-53804450D01*
X157314743Y-53966680D01*
X157299003Y-54000589D01*
X157223465Y-54163323D01*
X157220688Y-54169305D01*
X157160989Y-54384570D01*
X157137251Y-54606695D01*
X157150110Y-54829715D01*
X157151247Y-54834761D01*
X157151248Y-54834767D01*
X157164597Y-54894000D01*
X157199222Y-55047639D01*
X157283266Y-55254616D01*
X157399987Y-55445088D01*
X157546250Y-55613938D01*
X157718126Y-55756632D01*
X157788595Y-55797811D01*
X157791445Y-55799476D01*
X157840169Y-55851114D01*
X157853240Y-55920897D01*
X157826509Y-55986669D01*
X157786055Y-56020027D01*
X157773607Y-56026507D01*
X157769474Y-56029610D01*
X157769471Y-56029612D01*
X157745247Y-56047800D01*
X157594965Y-56160635D01*
X157440629Y-56322138D01*
X157314743Y-56506680D01*
X157299003Y-56540589D01*
X157228449Y-56692586D01*
X157220688Y-56709305D01*
X157160989Y-56924570D01*
X157137251Y-57146695D01*
X157137548Y-57151848D01*
X157137548Y-57151851D01*
X157143011Y-57246590D01*
X157150110Y-57369715D01*
X157151247Y-57374761D01*
X157151248Y-57374767D01*
X157171119Y-57462939D01*
X157199222Y-57587639D01*
X157237461Y-57681811D01*
X157270492Y-57763156D01*
X157283266Y-57794616D01*
X157399987Y-57985088D01*
X157546250Y-58153938D01*
X157718126Y-58296632D01*
X157788595Y-58337811D01*
X157791445Y-58339476D01*
X157840169Y-58391114D01*
X157853240Y-58460897D01*
X157826509Y-58526669D01*
X157786055Y-58560027D01*
X157773607Y-58566507D01*
X157769474Y-58569610D01*
X157769471Y-58569612D01*
X157745247Y-58587800D01*
X157594965Y-58700635D01*
X157440629Y-58862138D01*
X157314743Y-59046680D01*
X157299003Y-59080589D01*
X157228449Y-59232586D01*
X157220688Y-59249305D01*
X157160989Y-59464570D01*
X157137251Y-59686695D01*
X157137548Y-59691848D01*
X157137548Y-59691851D01*
X157143011Y-59786590D01*
X157150110Y-59909715D01*
X157151247Y-59914761D01*
X157151248Y-59914767D01*
X157171119Y-60002939D01*
X157199222Y-60127639D01*
X157237461Y-60221811D01*
X157270492Y-60303156D01*
X157283266Y-60334616D01*
X157399987Y-60525088D01*
X157546250Y-60693938D01*
X157718126Y-60836632D01*
X157788595Y-60877811D01*
X157791445Y-60879476D01*
X157840169Y-60931114D01*
X157853240Y-61000897D01*
X157826509Y-61066669D01*
X157786055Y-61100027D01*
X157773607Y-61106507D01*
X157769474Y-61109610D01*
X157769471Y-61109612D01*
X157745247Y-61127800D01*
X157594965Y-61240635D01*
X157440629Y-61402138D01*
X157314743Y-61586680D01*
X157299003Y-61620589D01*
X157228449Y-61772586D01*
X157220688Y-61789305D01*
X157160989Y-62004570D01*
X157137251Y-62226695D01*
X157137548Y-62231848D01*
X157137548Y-62231851D01*
X157143011Y-62326590D01*
X157150110Y-62449715D01*
X157151247Y-62454761D01*
X157151248Y-62454767D01*
X157171119Y-62542939D01*
X157199222Y-62667639D01*
X157237461Y-62761811D01*
X157270492Y-62843156D01*
X157283266Y-62874616D01*
X157399987Y-63065088D01*
X157546250Y-63233938D01*
X157718126Y-63376632D01*
X157791445Y-63419476D01*
X157791955Y-63419774D01*
X157840679Y-63471412D01*
X157853750Y-63541195D01*
X157827019Y-63606967D01*
X157786562Y-63640327D01*
X157778457Y-63644546D01*
X157769738Y-63650036D01*
X157599433Y-63777905D01*
X157591726Y-63784748D01*
X157444590Y-63938717D01*
X157438104Y-63946727D01*
X157318098Y-64122649D01*
X157313000Y-64131623D01*
X157223338Y-64324783D01*
X157219775Y-64334470D01*
X157164389Y-64534183D01*
X157165912Y-64542607D01*
X157178292Y-64546000D01*
X158628000Y-64546000D01*
X158696121Y-64566002D01*
X158742614Y-64619658D01*
X158754000Y-64672000D01*
X158754000Y-64928000D01*
X158733998Y-64996121D01*
X158680342Y-65042614D01*
X158628000Y-65054000D01*
X157183225Y-65054000D01*
X157169694Y-65057973D01*
X157168257Y-65067966D01*
X157198565Y-65202446D01*
X157201645Y-65212275D01*
X157281770Y-65409603D01*
X157286413Y-65418794D01*
X157397694Y-65600388D01*
X157403777Y-65608699D01*
X157543213Y-65769667D01*
X157550580Y-65776883D01*
X157714434Y-65912916D01*
X157722881Y-65918831D01*
X157791969Y-65959203D01*
X157840693Y-66010842D01*
X157853764Y-66080625D01*
X157827033Y-66146396D01*
X157786584Y-66179752D01*
X157773607Y-66186507D01*
X157769474Y-66189610D01*
X157769471Y-66189612D01*
X157745247Y-66207800D01*
X157594965Y-66320635D01*
X157440629Y-66482138D01*
X157314743Y-66666680D01*
X157299003Y-66700589D01*
X157228449Y-66852586D01*
X157220688Y-66869305D01*
X157160989Y-67084570D01*
X157137251Y-67306695D01*
X157137548Y-67311848D01*
X157137548Y-67311851D01*
X157143011Y-67406590D01*
X157150110Y-67529715D01*
X157151247Y-67534761D01*
X157151248Y-67534767D01*
X157171119Y-67622939D01*
X157199222Y-67747639D01*
X157237461Y-67841811D01*
X157270492Y-67923156D01*
X157283266Y-67954616D01*
X157399987Y-68145088D01*
X157546250Y-68313938D01*
X157718126Y-68456632D01*
X157788595Y-68497811D01*
X157791445Y-68499476D01*
X157840169Y-68551114D01*
X157853240Y-68620897D01*
X157826509Y-68686669D01*
X157786055Y-68720027D01*
X157773607Y-68726507D01*
X157769474Y-68729610D01*
X157769471Y-68729612D01*
X157745247Y-68747800D01*
X157594965Y-68860635D01*
X157440629Y-69022138D01*
X157314743Y-69206680D01*
X157299003Y-69240589D01*
X157228449Y-69392586D01*
X157220688Y-69409305D01*
X157160989Y-69624570D01*
X157137251Y-69846695D01*
X157137548Y-69851848D01*
X157137548Y-69851851D01*
X157143011Y-69946590D01*
X157150110Y-70069715D01*
X157151247Y-70074761D01*
X157151248Y-70074767D01*
X157171119Y-70162939D01*
X157199222Y-70287639D01*
X157237461Y-70381811D01*
X157270492Y-70463156D01*
X157283266Y-70494616D01*
X157399987Y-70685088D01*
X157546250Y-70853938D01*
X157718126Y-70996632D01*
X157788595Y-71037811D01*
X157791445Y-71039476D01*
X157840169Y-71091114D01*
X157853240Y-71160897D01*
X157826509Y-71226669D01*
X157786055Y-71260027D01*
X157773607Y-71266507D01*
X157769474Y-71269610D01*
X157769471Y-71269612D01*
X157745247Y-71287800D01*
X157594965Y-71400635D01*
X157440629Y-71562138D01*
X157314743Y-71746680D01*
X157299003Y-71780589D01*
X157228449Y-71932586D01*
X157220688Y-71949305D01*
X157160989Y-72164570D01*
X157137251Y-72386695D01*
X157137548Y-72391848D01*
X157137548Y-72391851D01*
X157143011Y-72486590D01*
X157150110Y-72609715D01*
X157151247Y-72614761D01*
X157151248Y-72614767D01*
X157171119Y-72702939D01*
X157199222Y-72827639D01*
X157237461Y-72921811D01*
X157270492Y-73003156D01*
X157283266Y-73034616D01*
X157399987Y-73225088D01*
X157546250Y-73393938D01*
X157718126Y-73536632D01*
X157791445Y-73579476D01*
X157791955Y-73579774D01*
X157840679Y-73631412D01*
X157853750Y-73701195D01*
X157827019Y-73766967D01*
X157786562Y-73800327D01*
X157778457Y-73804546D01*
X157769738Y-73810036D01*
X157599433Y-73937905D01*
X157591726Y-73944748D01*
X157444590Y-74098717D01*
X157438104Y-74106727D01*
X157318098Y-74282649D01*
X157313000Y-74291623D01*
X157223338Y-74484783D01*
X157219775Y-74494470D01*
X157164389Y-74694183D01*
X157165912Y-74702607D01*
X157178292Y-74706000D01*
X158628000Y-74706000D01*
X158696121Y-74726002D01*
X158742614Y-74779658D01*
X158754000Y-74832000D01*
X158754000Y-77628000D01*
X158733998Y-77696121D01*
X158680342Y-77742614D01*
X158628000Y-77754000D01*
X157183225Y-77754000D01*
X157169694Y-77757973D01*
X157168257Y-77767966D01*
X157198565Y-77902446D01*
X157201645Y-77912275D01*
X157281770Y-78109603D01*
X157286413Y-78118794D01*
X157397694Y-78300388D01*
X157403777Y-78308699D01*
X157543213Y-78469667D01*
X157550580Y-78476883D01*
X157714434Y-78612916D01*
X157722881Y-78618831D01*
X157791969Y-78659203D01*
X157840693Y-78710842D01*
X157853764Y-78780625D01*
X157827033Y-78846396D01*
X157786584Y-78879752D01*
X157773607Y-78886507D01*
X157769474Y-78889610D01*
X157769471Y-78889612D01*
X157745247Y-78907800D01*
X157594965Y-79020635D01*
X157440629Y-79182138D01*
X157314743Y-79366680D01*
X157299003Y-79400589D01*
X157228449Y-79552586D01*
X157220688Y-79569305D01*
X157160989Y-79784570D01*
X157137251Y-80006695D01*
X157137548Y-80011848D01*
X157137548Y-80011851D01*
X157143011Y-80106590D01*
X157150110Y-80229715D01*
X157151247Y-80234761D01*
X157151248Y-80234767D01*
X157171119Y-80322939D01*
X157199222Y-80447639D01*
X157237461Y-80541811D01*
X157270492Y-80623156D01*
X157283266Y-80654616D01*
X157399987Y-80845088D01*
X157546250Y-81013938D01*
X157718126Y-81156632D01*
X157911000Y-81269338D01*
X158119692Y-81349030D01*
X158124760Y-81350061D01*
X158124763Y-81350062D01*
X158232017Y-81371883D01*
X158338597Y-81393567D01*
X158343772Y-81393757D01*
X158343774Y-81393757D01*
X158556673Y-81401564D01*
X158556677Y-81401564D01*
X158561837Y-81401753D01*
X158566957Y-81401097D01*
X158566959Y-81401097D01*
X158778288Y-81374025D01*
X158778289Y-81374025D01*
X158783416Y-81373368D01*
X158788366Y-81371883D01*
X158992429Y-81310661D01*
X158992434Y-81310659D01*
X158997384Y-81309174D01*
X159197994Y-81210896D01*
X159379860Y-81081173D01*
X159538096Y-80923489D01*
X159597594Y-80840689D01*
X159665435Y-80746277D01*
X159668453Y-80742077D01*
X159749075Y-80578951D01*
X159752543Y-80571933D01*
X159800656Y-80519726D01*
X159869358Y-80501819D01*
X159936834Y-80523897D01*
X159981662Y-80578951D01*
X159991500Y-80627760D01*
X159991500Y-99880608D01*
X159971498Y-99948729D01*
X159917842Y-99995222D01*
X159847568Y-100005326D01*
X159782988Y-99975832D01*
X159764674Y-99956173D01*
X159718285Y-99894276D01*
X159705724Y-99881715D01*
X159603649Y-99805214D01*
X159588054Y-99796676D01*
X159467606Y-99751522D01*
X159452351Y-99747895D01*
X159401486Y-99742369D01*
X159394672Y-99742000D01*
X158772115Y-99742000D01*
X158756876Y-99746475D01*
X158755671Y-99747865D01*
X158754000Y-99755548D01*
X158754000Y-101228000D01*
X158733998Y-101296121D01*
X158680342Y-101342614D01*
X158628000Y-101354000D01*
X157160116Y-101354000D01*
X157144877Y-101358475D01*
X157143672Y-101359865D01*
X157142001Y-101367548D01*
X157142001Y-101994669D01*
X157142371Y-102001490D01*
X157147895Y-102052352D01*
X157151521Y-102067604D01*
X157196676Y-102188054D01*
X157205214Y-102203649D01*
X157281715Y-102305724D01*
X157294276Y-102318285D01*
X157396351Y-102394786D01*
X157411946Y-102403324D01*
X157520827Y-102444142D01*
X157577591Y-102486784D01*
X157602291Y-102553345D01*
X157587083Y-102622694D01*
X157567691Y-102649175D01*
X157444200Y-102778401D01*
X157440629Y-102782138D01*
X157437715Y-102786410D01*
X157437714Y-102786411D01*
X157342149Y-102926504D01*
X157287238Y-102971507D01*
X157238061Y-102981500D01*
X144502056Y-102981500D01*
X144490200Y-102980941D01*
X144490197Y-102980941D01*
X144482463Y-102979212D01*
X144427446Y-102980941D01*
X144411631Y-102981438D01*
X144407673Y-102981500D01*
X144378568Y-102981500D01*
X144374168Y-102982056D01*
X144362336Y-102982988D01*
X144316169Y-102984438D01*
X144295579Y-102990420D01*
X144276218Y-102994430D01*
X144269230Y-102995312D01*
X144262796Y-102996125D01*
X144262795Y-102996125D01*
X144254936Y-102997118D01*
X144247571Y-103000034D01*
X144247567Y-103000035D01*
X144211979Y-103014126D01*
X144200769Y-103017965D01*
X144156400Y-103030855D01*
X144137943Y-103041771D01*
X144120193Y-103050466D01*
X144100244Y-103058365D01*
X144093833Y-103063023D01*
X144093831Y-103063024D01*
X144062864Y-103085523D01*
X144052946Y-103092038D01*
X144013193Y-103115548D01*
X143998036Y-103130705D01*
X143983003Y-103143546D01*
X143965643Y-103156159D01*
X143960591Y-103162266D01*
X143936193Y-103191758D01*
X143928203Y-103200538D01*
X110327335Y-136801405D01*
X110265023Y-136835431D01*
X110216145Y-136836357D01*
X110170874Y-136828293D01*
X110033373Y-136803800D01*
X110033367Y-136803799D01*
X110028284Y-136802894D01*
X109954452Y-136801992D01*
X109810081Y-136800228D01*
X109810079Y-136800228D01*
X109804911Y-136800165D01*
X109584091Y-136833955D01*
X109371756Y-136903357D01*
X109173607Y-137006507D01*
X109169474Y-137009610D01*
X109169471Y-137009612D01*
X108999100Y-137137530D01*
X108994965Y-137140635D01*
X108840629Y-137302138D01*
X108714743Y-137486680D01*
X108620688Y-137689305D01*
X108560989Y-137904570D01*
X108537251Y-138126695D01*
X108550110Y-138349715D01*
X108551247Y-138354761D01*
X108551248Y-138354767D01*
X108570138Y-138438585D01*
X108599222Y-138567639D01*
X108683266Y-138774616D01*
X108685965Y-138779020D01*
X108788987Y-138947137D01*
X108799987Y-138965088D01*
X108946250Y-139133938D01*
X109000819Y-139179242D01*
X109111480Y-139271114D01*
X109118126Y-139276632D01*
X109139870Y-139289338D01*
X109191445Y-139319476D01*
X109240169Y-139371114D01*
X109253240Y-139440897D01*
X109226509Y-139506669D01*
X109186055Y-139540027D01*
X109173607Y-139546507D01*
X109169474Y-139549610D01*
X109169471Y-139549612D01*
X108999100Y-139677530D01*
X108994965Y-139680635D01*
X108840629Y-139842138D01*
X108837715Y-139846410D01*
X108837714Y-139846411D01*
X108782958Y-139926680D01*
X108714743Y-140026680D01*
X108699973Y-140058500D01*
X108650864Y-140164297D01*
X108620688Y-140229305D01*
X108560989Y-140444570D01*
X108537251Y-140666695D01*
X108537548Y-140671848D01*
X108537548Y-140671851D01*
X108543011Y-140766590D01*
X108550110Y-140889715D01*
X108551247Y-140894761D01*
X108551248Y-140894767D01*
X108571119Y-140982939D01*
X108599222Y-141107639D01*
X108683266Y-141314616D01*
X108699755Y-141341524D01*
X108788987Y-141487137D01*
X108799987Y-141505088D01*
X108946250Y-141673938D01*
X109000819Y-141719242D01*
X109111480Y-141811114D01*
X109118126Y-141816632D01*
X109139870Y-141829338D01*
X109191445Y-141859476D01*
X109240169Y-141911114D01*
X109253240Y-141980897D01*
X109226509Y-142046669D01*
X109186055Y-142080027D01*
X109173607Y-142086507D01*
X109169474Y-142089610D01*
X109169471Y-142089612D01*
X108999100Y-142217530D01*
X108994965Y-142220635D01*
X108840629Y-142382138D01*
X108714743Y-142566680D01*
X108620688Y-142769305D01*
X108560989Y-142984570D01*
X108537251Y-143206695D01*
X108537548Y-143211848D01*
X108537548Y-143211851D01*
X108543011Y-143306590D01*
X108550110Y-143429715D01*
X108551247Y-143434761D01*
X108551248Y-143434767D01*
X108571119Y-143522939D01*
X108599222Y-143647639D01*
X108683266Y-143854616D01*
X108685965Y-143859020D01*
X108788987Y-144027137D01*
X108799987Y-144045088D01*
X108946250Y-144213938D01*
X109118126Y-144356632D01*
X109157063Y-144379385D01*
X109191445Y-144399476D01*
X109240169Y-144451114D01*
X109253240Y-144520897D01*
X109226509Y-144586669D01*
X109186055Y-144620027D01*
X109173607Y-144626507D01*
X109169474Y-144629610D01*
X109169471Y-144629612D01*
X109039043Y-144727540D01*
X108994965Y-144760635D01*
X108840629Y-144922138D01*
X108714743Y-145106680D01*
X108620688Y-145309305D01*
X108560989Y-145524570D01*
X108537251Y-145746695D01*
X108550110Y-145969715D01*
X108551247Y-145974761D01*
X108551248Y-145974767D01*
X108575304Y-146081508D01*
X108599222Y-146187639D01*
X108644377Y-146298842D01*
X108676612Y-146378228D01*
X108683266Y-146394616D01*
X108734942Y-146478944D01*
X108797291Y-146580688D01*
X108799987Y-146585088D01*
X108946250Y-146753938D01*
X109118126Y-146896632D01*
X109311000Y-147009338D01*
X109315825Y-147011180D01*
X109315826Y-147011181D01*
X109369678Y-147031745D01*
X109519692Y-147089030D01*
X109524760Y-147090061D01*
X109524763Y-147090062D01*
X109632017Y-147111883D01*
X109738597Y-147133567D01*
X109743772Y-147133757D01*
X109743774Y-147133757D01*
X109956673Y-147141564D01*
X109956677Y-147141564D01*
X109961837Y-147141753D01*
X109966957Y-147141097D01*
X109966959Y-147141097D01*
X110178288Y-147114025D01*
X110178289Y-147114025D01*
X110183416Y-147113368D01*
X110188366Y-147111883D01*
X110392429Y-147050661D01*
X110392434Y-147050659D01*
X110397384Y-147049174D01*
X110597994Y-146950896D01*
X110779860Y-146821173D01*
X110938096Y-146663489D01*
X110954748Y-146640316D01*
X111068453Y-146482077D01*
X111069776Y-146483028D01*
X111116645Y-146439857D01*
X111186580Y-146427625D01*
X111252026Y-146455144D01*
X111279875Y-146486994D01*
X111339987Y-146585088D01*
X111486250Y-146753938D01*
X111658126Y-146896632D01*
X111851000Y-147009338D01*
X111855825Y-147011180D01*
X111855826Y-147011181D01*
X111909678Y-147031745D01*
X112059692Y-147089030D01*
X112064760Y-147090061D01*
X112064763Y-147090062D01*
X112172017Y-147111883D01*
X112278597Y-147133567D01*
X112283772Y-147133757D01*
X112283774Y-147133757D01*
X112496673Y-147141564D01*
X112496677Y-147141564D01*
X112501837Y-147141753D01*
X112506957Y-147141097D01*
X112506959Y-147141097D01*
X112718288Y-147114025D01*
X112718289Y-147114025D01*
X112723416Y-147113368D01*
X112728366Y-147111883D01*
X112932429Y-147050661D01*
X112932434Y-147050659D01*
X112937384Y-147049174D01*
X113137994Y-146950896D01*
X113319860Y-146821173D01*
X113478096Y-146663489D01*
X113494748Y-146640316D01*
X113602060Y-146490974D01*
X113658055Y-146447326D01*
X113704383Y-146438500D01*
X139137944Y-146438500D01*
X139149800Y-146439059D01*
X139149803Y-146439059D01*
X139157537Y-146440788D01*
X139228369Y-146438562D01*
X139232327Y-146438500D01*
X139261432Y-146438500D01*
X139265832Y-146437944D01*
X139277664Y-146437012D01*
X139323831Y-146435562D01*
X139344421Y-146429580D01*
X139363782Y-146425570D01*
X139370770Y-146424688D01*
X139377204Y-146423875D01*
X139377205Y-146423875D01*
X139385064Y-146422882D01*
X139392429Y-146419966D01*
X139392433Y-146419965D01*
X139428021Y-146405874D01*
X139439231Y-146402035D01*
X139483600Y-146389145D01*
X139502065Y-146378225D01*
X139519805Y-146369534D01*
X139539756Y-146361635D01*
X139577129Y-146334482D01*
X139587048Y-146327967D01*
X139619977Y-146308493D01*
X139619981Y-146308490D01*
X139626807Y-146304453D01*
X139641971Y-146289289D01*
X139657005Y-146276448D01*
X139667943Y-146268501D01*
X139674357Y-146263841D01*
X139703803Y-146228247D01*
X139711792Y-146219468D01*
X143491792Y-142439468D01*
X147354586Y-138576673D01*
X147416898Y-138542647D01*
X147487713Y-138547712D01*
X147544549Y-138590259D01*
X147560423Y-138618363D01*
X147581319Y-138669823D01*
X147581323Y-138669831D01*
X147583266Y-138674616D01*
X147699987Y-138865088D01*
X147846250Y-139033938D01*
X148018126Y-139176632D01*
X148088595Y-139217811D01*
X148091445Y-139219476D01*
X148140169Y-139271114D01*
X148153240Y-139340897D01*
X148126509Y-139406669D01*
X148086055Y-139440027D01*
X148073607Y-139446507D01*
X148069474Y-139449610D01*
X148069471Y-139449612D01*
X147899100Y-139577530D01*
X147894965Y-139580635D01*
X147740629Y-139742138D01*
X147614743Y-139926680D01*
X147520688Y-140129305D01*
X147460989Y-140344570D01*
X147437251Y-140566695D01*
X147437548Y-140571848D01*
X147437548Y-140571851D01*
X147443011Y-140666590D01*
X147450110Y-140789715D01*
X147451247Y-140794761D01*
X147451248Y-140794767D01*
X147471119Y-140882939D01*
X147499222Y-141007639D01*
X147541771Y-141112425D01*
X147576344Y-141197568D01*
X147583266Y-141214616D01*
X147699987Y-141405088D01*
X147846250Y-141573938D01*
X148018126Y-141716632D01*
X148088595Y-141757811D01*
X148091445Y-141759476D01*
X148140169Y-141811114D01*
X148153240Y-141880897D01*
X148126509Y-141946669D01*
X148086055Y-141980027D01*
X148073607Y-141986507D01*
X148069474Y-141989610D01*
X148069471Y-141989612D01*
X147899100Y-142117530D01*
X147894965Y-142120635D01*
X147740629Y-142282138D01*
X147614743Y-142466680D01*
X147577011Y-142547967D01*
X147525392Y-142659172D01*
X147520688Y-142669305D01*
X147460989Y-142884570D01*
X147437251Y-143106695D01*
X147437548Y-143111848D01*
X147437548Y-143111851D01*
X147443011Y-143206590D01*
X147450110Y-143329715D01*
X147451247Y-143334761D01*
X147451248Y-143334767D01*
X147471119Y-143422939D01*
X147499222Y-143547639D01*
X147541771Y-143652425D01*
X147572329Y-143727680D01*
X147583266Y-143754616D01*
X147699987Y-143945088D01*
X147846250Y-144113938D01*
X147850230Y-144117242D01*
X147854981Y-144121187D01*
X147894616Y-144180090D01*
X147896113Y-144251071D01*
X147858997Y-144311593D01*
X147818725Y-144336112D01*
X147757026Y-144359242D01*
X147703295Y-144379385D01*
X147586739Y-144466739D01*
X147499385Y-144583295D01*
X147448255Y-144719684D01*
X147441500Y-144781866D01*
X147441500Y-146578134D01*
X147448255Y-146640316D01*
X147499385Y-146776705D01*
X147586739Y-146893261D01*
X147703295Y-146980615D01*
X147839684Y-147031745D01*
X147901866Y-147038500D01*
X149698134Y-147038500D01*
X149760316Y-147031745D01*
X149896705Y-146980615D01*
X150013261Y-146893261D01*
X150100615Y-146776705D01*
X150151745Y-146640316D01*
X150158500Y-146578134D01*
X150158500Y-144781866D01*
X150151745Y-144719684D01*
X150100615Y-144583295D01*
X150013261Y-144466739D01*
X149896705Y-144379385D01*
X149842974Y-144359242D01*
X149778203Y-144334960D01*
X149721439Y-144292318D01*
X149696739Y-144225756D01*
X149711947Y-144156408D01*
X149733493Y-144127727D01*
X149834435Y-144027137D01*
X149838096Y-144023489D01*
X149897594Y-143940689D01*
X149965435Y-143846277D01*
X149968453Y-143842077D01*
X150023822Y-143730047D01*
X150065136Y-143646453D01*
X150065137Y-143646451D01*
X150067430Y-143641811D01*
X150132370Y-143428069D01*
X150161529Y-143206590D01*
X150163156Y-143140000D01*
X150144852Y-142917361D01*
X150090431Y-142700702D01*
X150001354Y-142495840D01*
X149880014Y-142308277D01*
X149729670Y-142143051D01*
X149725619Y-142139852D01*
X149725615Y-142139848D01*
X149558414Y-142007800D01*
X149558410Y-142007798D01*
X149554359Y-142004598D01*
X149513053Y-141981796D01*
X149463084Y-141931364D01*
X149448312Y-141861921D01*
X149473428Y-141795516D01*
X149500780Y-141768909D01*
X149544603Y-141737650D01*
X149679860Y-141641173D01*
X149838096Y-141483489D01*
X149897594Y-141400689D01*
X149965435Y-141306277D01*
X149968453Y-141302077D01*
X150029345Y-141178872D01*
X150065136Y-141106453D01*
X150065137Y-141106451D01*
X150067430Y-141101811D01*
X150132370Y-140888069D01*
X150161529Y-140666590D01*
X150163156Y-140600000D01*
X150144852Y-140377361D01*
X150090431Y-140160702D01*
X150001354Y-139955840D01*
X149880014Y-139768277D01*
X149729670Y-139603051D01*
X149725619Y-139599852D01*
X149725615Y-139599848D01*
X149558414Y-139467800D01*
X149558410Y-139467798D01*
X149554359Y-139464598D01*
X149513053Y-139441796D01*
X149463084Y-139391364D01*
X149448312Y-139321921D01*
X149473428Y-139255516D01*
X149500780Y-139228909D01*
X149544603Y-139197650D01*
X149679860Y-139101173D01*
X149838096Y-138943489D01*
X149897594Y-138860689D01*
X149965435Y-138766277D01*
X149968453Y-138762077D01*
X150006989Y-138684106D01*
X150065136Y-138566453D01*
X150065137Y-138566451D01*
X150067430Y-138561811D01*
X150132370Y-138348069D01*
X150161529Y-138126590D01*
X150163156Y-138060000D01*
X150144852Y-137837361D01*
X150090431Y-137620702D01*
X150001354Y-137415840D01*
X149925379Y-137298401D01*
X149882822Y-137232617D01*
X149882820Y-137232614D01*
X149880014Y-137228277D01*
X149729670Y-137063051D01*
X149725619Y-137059852D01*
X149725615Y-137059848D01*
X149558414Y-136927800D01*
X149558410Y-136927798D01*
X149554359Y-136924598D01*
X149358789Y-136816638D01*
X149356097Y-136815685D01*
X149302672Y-136769956D01*
X149282257Y-136701958D01*
X149301846Y-136633717D01*
X149319160Y-136612099D01*
X156926947Y-129004312D01*
X156989259Y-128970286D01*
X157060074Y-128975351D01*
X157116910Y-129017898D01*
X157141832Y-129086154D01*
X157150110Y-129229715D01*
X157151247Y-129234761D01*
X157151248Y-129234767D01*
X157171119Y-129322939D01*
X157199222Y-129447639D01*
X157237461Y-129541811D01*
X157270492Y-129623156D01*
X157283266Y-129654616D01*
X157399987Y-129845088D01*
X157546250Y-130013938D01*
X157718126Y-130156632D01*
X157911000Y-130269338D01*
X158119692Y-130349030D01*
X158124760Y-130350061D01*
X158124763Y-130350062D01*
X158232017Y-130371883D01*
X158338597Y-130393567D01*
X158343772Y-130393757D01*
X158343774Y-130393757D01*
X158556673Y-130401564D01*
X158556677Y-130401564D01*
X158561837Y-130401753D01*
X158566957Y-130401097D01*
X158566959Y-130401097D01*
X158778288Y-130374025D01*
X158778289Y-130374025D01*
X158783416Y-130373368D01*
X158788366Y-130371883D01*
X158992429Y-130310661D01*
X158992434Y-130310659D01*
X158997384Y-130309174D01*
X159197994Y-130210896D01*
X159379860Y-130081173D01*
X159538096Y-129923489D01*
X159597594Y-129840689D01*
X159665435Y-129746277D01*
X159668453Y-129742077D01*
X159749075Y-129578951D01*
X159752543Y-129571933D01*
X159800656Y-129519726D01*
X159869358Y-129501819D01*
X159936834Y-129523897D01*
X159981662Y-129578951D01*
X159991500Y-129627760D01*
X159991500Y-149365500D01*
X159971498Y-149433621D01*
X159917842Y-149480114D01*
X159865500Y-149491500D01*
X104634500Y-149491500D01*
X104566379Y-149471498D01*
X104519886Y-149417842D01*
X104508500Y-149365500D01*
X104508500Y-134508623D01*
X104508502Y-134507853D01*
X104508921Y-134439254D01*
X104508976Y-134430279D01*
X104500850Y-134401847D01*
X104497272Y-134385085D01*
X104494352Y-134364698D01*
X104493080Y-134355813D01*
X104482451Y-134332436D01*
X104476004Y-134314913D01*
X104471416Y-134298862D01*
X104468949Y-134290229D01*
X104464156Y-134282632D01*
X104453170Y-134265220D01*
X104445030Y-134250135D01*
X104432792Y-134223218D01*
X104416030Y-134203765D01*
X104404927Y-134188761D01*
X104391224Y-134167042D01*
X104384499Y-134161103D01*
X104384496Y-134161099D01*
X104369062Y-134147468D01*
X104357018Y-134135276D01*
X104343573Y-134119673D01*
X104343570Y-134119671D01*
X104337713Y-134112873D01*
X104316165Y-134098906D01*
X104301291Y-134087615D01*
X104288783Y-134076569D01*
X104288782Y-134076568D01*
X104282049Y-134070622D01*
X104255287Y-134058057D01*
X104240309Y-134049737D01*
X104223017Y-134038529D01*
X104223012Y-134038527D01*
X104215485Y-134033648D01*
X104206892Y-134031078D01*
X104206887Y-134031076D01*
X104190880Y-134026289D01*
X104173436Y-134019628D01*
X104158324Y-134012533D01*
X104158322Y-134012532D01*
X104150200Y-134008719D01*
X104141333Y-134007338D01*
X104141332Y-134007338D01*
X104131690Y-134005837D01*
X104120983Y-134004170D01*
X104104268Y-134000387D01*
X104084534Y-133994485D01*
X104084528Y-133994484D01*
X104075934Y-133991914D01*
X104066963Y-133991859D01*
X104066962Y-133991859D01*
X104056903Y-133991798D01*
X104041494Y-133991704D01*
X104040711Y-133991671D01*
X104039614Y-133991500D01*
X104008623Y-133991500D01*
X104007853Y-133991498D01*
X103934215Y-133991048D01*
X103934214Y-133991048D01*
X103930279Y-133991024D01*
X103928935Y-133991408D01*
X103927590Y-133991500D01*
X100634106Y-133991500D01*
X100565985Y-133971498D01*
X100519492Y-133917842D01*
X100508106Y-133865449D01*
X100508484Y-132939771D01*
X100508487Y-132939699D01*
X100508500Y-132939614D01*
X100508500Y-132900452D01*
X100508515Y-132863695D01*
X100508503Y-132863609D01*
X100508500Y-132863534D01*
X100508500Y-129623156D01*
X100528502Y-129555035D01*
X100582158Y-129508542D01*
X100652432Y-129498438D01*
X100717012Y-129527932D01*
X100751243Y-129575752D01*
X100770492Y-129623156D01*
X100783266Y-129654616D01*
X100899987Y-129845088D01*
X101046250Y-130013938D01*
X101218126Y-130156632D01*
X101411000Y-130269338D01*
X101619692Y-130349030D01*
X101624760Y-130350061D01*
X101624763Y-130350062D01*
X101732017Y-130371883D01*
X101838597Y-130393567D01*
X101843772Y-130393757D01*
X101843774Y-130393757D01*
X102056673Y-130401564D01*
X102056677Y-130401564D01*
X102061837Y-130401753D01*
X102066957Y-130401097D01*
X102066959Y-130401097D01*
X102278288Y-130374025D01*
X102278289Y-130374025D01*
X102283416Y-130373368D01*
X102288366Y-130371883D01*
X102492429Y-130310661D01*
X102492434Y-130310659D01*
X102497384Y-130309174D01*
X102697994Y-130210896D01*
X102879860Y-130081173D01*
X103038096Y-129923489D01*
X103097594Y-129840689D01*
X103165435Y-129746277D01*
X103168453Y-129742077D01*
X103249075Y-129578951D01*
X103265136Y-129546453D01*
X103265137Y-129546451D01*
X103267430Y-129541811D01*
X103332370Y-129328069D01*
X103361529Y-129106590D01*
X103363156Y-129040000D01*
X103344852Y-128817361D01*
X103290431Y-128600702D01*
X103201354Y-128395840D01*
X103080014Y-128208277D01*
X102929670Y-128043051D01*
X102925619Y-128039852D01*
X102925615Y-128039848D01*
X102758414Y-127907800D01*
X102758410Y-127907798D01*
X102754359Y-127904598D01*
X102713053Y-127881796D01*
X102663084Y-127831364D01*
X102648312Y-127761921D01*
X102673428Y-127695516D01*
X102700780Y-127668909D01*
X102744603Y-127637650D01*
X102879860Y-127541173D01*
X103038096Y-127383489D01*
X103097594Y-127300689D01*
X103165435Y-127206277D01*
X103168453Y-127202077D01*
X103249075Y-127038951D01*
X103265136Y-127006453D01*
X103265137Y-127006451D01*
X103267430Y-127001811D01*
X103332370Y-126788069D01*
X103361529Y-126566590D01*
X103363156Y-126500000D01*
X103344852Y-126277361D01*
X103290431Y-126060702D01*
X103201354Y-125855840D01*
X103080014Y-125668277D01*
X102929670Y-125503051D01*
X102925619Y-125499852D01*
X102925615Y-125499848D01*
X102758414Y-125367800D01*
X102758410Y-125367798D01*
X102754359Y-125364598D01*
X102713053Y-125341796D01*
X102663084Y-125291364D01*
X102648312Y-125221921D01*
X102673428Y-125155516D01*
X102700780Y-125128909D01*
X102744603Y-125097650D01*
X102879860Y-125001173D01*
X103038096Y-124843489D01*
X103097594Y-124760689D01*
X103165435Y-124666277D01*
X103168453Y-124662077D01*
X103249075Y-124498951D01*
X103265136Y-124466453D01*
X103265137Y-124466451D01*
X103267430Y-124461811D01*
X103332370Y-124248069D01*
X103361529Y-124026590D01*
X103363156Y-123960000D01*
X103344852Y-123737361D01*
X103290431Y-123520702D01*
X103201354Y-123315840D01*
X103080014Y-123128277D01*
X102929670Y-122963051D01*
X102925619Y-122959852D01*
X102925615Y-122959848D01*
X102758414Y-122827800D01*
X102758410Y-122827798D01*
X102754359Y-122824598D01*
X102713053Y-122801796D01*
X102663084Y-122751364D01*
X102648312Y-122681921D01*
X102673428Y-122615516D01*
X102700780Y-122588909D01*
X102744603Y-122557650D01*
X102879860Y-122461173D01*
X103038096Y-122303489D01*
X103097594Y-122220689D01*
X103165435Y-122126277D01*
X103168453Y-122122077D01*
X103249075Y-121958951D01*
X103265136Y-121926453D01*
X103265137Y-121926451D01*
X103267430Y-121921811D01*
X103332370Y-121708069D01*
X103361529Y-121486590D01*
X103363156Y-121420000D01*
X103344852Y-121197361D01*
X103290431Y-120980702D01*
X103201354Y-120775840D01*
X103080014Y-120588277D01*
X102929670Y-120423051D01*
X102925619Y-120419852D01*
X102925615Y-120419848D01*
X102758414Y-120287800D01*
X102758410Y-120287798D01*
X102754359Y-120284598D01*
X102713053Y-120261796D01*
X102663084Y-120211364D01*
X102648312Y-120141921D01*
X102673428Y-120075516D01*
X102700780Y-120048909D01*
X102744603Y-120017650D01*
X102879860Y-119921173D01*
X103038096Y-119763489D01*
X103097594Y-119680689D01*
X103165435Y-119586277D01*
X103168453Y-119582077D01*
X103249075Y-119418951D01*
X103265136Y-119386453D01*
X103265137Y-119386451D01*
X103267430Y-119381811D01*
X103332370Y-119168069D01*
X103361529Y-118946590D01*
X103363156Y-118880000D01*
X103344852Y-118657361D01*
X103290431Y-118440702D01*
X103201354Y-118235840D01*
X103080014Y-118048277D01*
X102929670Y-117883051D01*
X102925619Y-117879852D01*
X102925615Y-117879848D01*
X102758414Y-117747800D01*
X102758410Y-117747798D01*
X102754359Y-117744598D01*
X102713053Y-117721796D01*
X102663084Y-117671364D01*
X102648312Y-117601921D01*
X102673428Y-117535516D01*
X102700780Y-117508909D01*
X102744603Y-117477650D01*
X102879860Y-117381173D01*
X103038096Y-117223489D01*
X103097594Y-117140689D01*
X103165435Y-117046277D01*
X103168453Y-117042077D01*
X103249075Y-116878951D01*
X103265136Y-116846453D01*
X103265137Y-116846451D01*
X103267430Y-116841811D01*
X103332370Y-116628069D01*
X103361529Y-116406590D01*
X103363156Y-116340000D01*
X103344852Y-116117361D01*
X103290431Y-115900702D01*
X103201354Y-115695840D01*
X103080014Y-115508277D01*
X102929670Y-115343051D01*
X102925619Y-115339852D01*
X102925615Y-115339848D01*
X102758414Y-115207800D01*
X102758410Y-115207798D01*
X102754359Y-115204598D01*
X102713053Y-115181796D01*
X102663084Y-115131364D01*
X102648312Y-115061921D01*
X102673428Y-114995516D01*
X102700780Y-114968909D01*
X102744603Y-114937650D01*
X102879860Y-114841173D01*
X103038096Y-114683489D01*
X103097594Y-114600689D01*
X103165435Y-114506277D01*
X103168453Y-114502077D01*
X103249075Y-114338951D01*
X103265136Y-114306453D01*
X103265137Y-114306451D01*
X103267430Y-114301811D01*
X103332370Y-114088069D01*
X103361529Y-113866590D01*
X103363156Y-113800000D01*
X103344852Y-113577361D01*
X103290431Y-113360702D01*
X103201354Y-113155840D01*
X103080014Y-112968277D01*
X102929670Y-112803051D01*
X102925619Y-112799852D01*
X102925615Y-112799848D01*
X102758414Y-112667800D01*
X102758410Y-112667798D01*
X102754359Y-112664598D01*
X102712569Y-112641529D01*
X102662598Y-112591097D01*
X102647826Y-112521654D01*
X102672942Y-112455248D01*
X102700294Y-112428641D01*
X102875328Y-112303792D01*
X102883200Y-112297139D01*
X103034052Y-112146812D01*
X103040730Y-112138965D01*
X103165003Y-111966020D01*
X103170313Y-111957183D01*
X103264670Y-111766267D01*
X103268469Y-111756672D01*
X103330377Y-111552910D01*
X103332555Y-111542837D01*
X103333986Y-111531962D01*
X103331775Y-111517778D01*
X103318617Y-111514000D01*
X101872000Y-111514000D01*
X101803879Y-111493998D01*
X101757386Y-111440342D01*
X101746000Y-111388000D01*
X101746000Y-111132000D01*
X101766002Y-111063879D01*
X101819658Y-111017386D01*
X101872000Y-111006000D01*
X103318344Y-111006000D01*
X103331875Y-111002027D01*
X103333180Y-110992947D01*
X103291214Y-110825875D01*
X103287894Y-110816124D01*
X103202972Y-110620814D01*
X103198105Y-110611739D01*
X103082426Y-110432926D01*
X103076136Y-110424757D01*
X102932806Y-110267240D01*
X102925273Y-110260215D01*
X102758139Y-110128222D01*
X102749556Y-110122520D01*
X102712602Y-110102120D01*
X102662631Y-110051687D01*
X102647859Y-109982245D01*
X102672975Y-109915839D01*
X102700327Y-109889232D01*
X102723797Y-109872491D01*
X102879860Y-109761173D01*
X103038096Y-109603489D01*
X103097594Y-109520689D01*
X103165435Y-109426277D01*
X103168453Y-109422077D01*
X103180105Y-109398502D01*
X103265136Y-109226453D01*
X103265137Y-109226451D01*
X103267430Y-109221811D01*
X103332370Y-109008069D01*
X103361529Y-108786590D01*
X103363156Y-108720000D01*
X103344852Y-108497361D01*
X103290431Y-108280702D01*
X103201354Y-108075840D01*
X103080014Y-107888277D01*
X102929670Y-107723051D01*
X102925619Y-107719852D01*
X102925615Y-107719848D01*
X102758414Y-107587800D01*
X102758410Y-107587798D01*
X102754359Y-107584598D01*
X102713053Y-107561796D01*
X102663084Y-107511364D01*
X102648312Y-107441921D01*
X102673428Y-107375516D01*
X102700780Y-107348909D01*
X102744603Y-107317650D01*
X102879860Y-107221173D01*
X103038096Y-107063489D01*
X103097594Y-106980689D01*
X103165435Y-106886277D01*
X103168453Y-106882077D01*
X103171751Y-106875405D01*
X103265136Y-106686453D01*
X103265137Y-106686451D01*
X103267430Y-106681811D01*
X103332370Y-106468069D01*
X103361529Y-106246590D01*
X103363156Y-106180000D01*
X103344852Y-105957361D01*
X103290431Y-105740702D01*
X103201354Y-105535840D01*
X103080014Y-105348277D01*
X102929670Y-105183051D01*
X102925619Y-105179852D01*
X102925615Y-105179848D01*
X102758414Y-105047800D01*
X102758410Y-105047798D01*
X102754359Y-105044598D01*
X102713053Y-105021796D01*
X102663084Y-104971364D01*
X102648312Y-104901921D01*
X102673428Y-104835516D01*
X102700780Y-104808909D01*
X102744603Y-104777650D01*
X102879860Y-104681173D01*
X103038096Y-104523489D01*
X103097594Y-104440689D01*
X103165435Y-104346277D01*
X103168453Y-104342077D01*
X103171751Y-104335405D01*
X103265136Y-104146453D01*
X103265137Y-104146451D01*
X103267430Y-104141811D01*
X103332370Y-103928069D01*
X103361529Y-103706590D01*
X103363156Y-103640000D01*
X103344852Y-103417361D01*
X103290431Y-103200702D01*
X103201354Y-102995840D01*
X103080014Y-102808277D01*
X103076532Y-102804450D01*
X102932798Y-102646488D01*
X102901746Y-102582642D01*
X102910141Y-102512143D01*
X102955317Y-102457375D01*
X102981761Y-102443706D01*
X103088297Y-102403767D01*
X103096705Y-102400615D01*
X103213261Y-102313261D01*
X103300615Y-102196705D01*
X103351745Y-102060316D01*
X103358500Y-101998134D01*
X103358500Y-100827885D01*
X157142000Y-100827885D01*
X157146475Y-100843124D01*
X157147865Y-100844329D01*
X157155548Y-100846000D01*
X158227885Y-100846000D01*
X158243124Y-100841525D01*
X158244329Y-100840135D01*
X158246000Y-100832452D01*
X158246000Y-99760116D01*
X158241525Y-99744877D01*
X158240135Y-99743672D01*
X158232452Y-99742001D01*
X157605331Y-99742001D01*
X157598510Y-99742371D01*
X157547648Y-99747895D01*
X157532396Y-99751521D01*
X157411946Y-99796676D01*
X157396351Y-99805214D01*
X157294276Y-99881715D01*
X157281715Y-99894276D01*
X157205214Y-99996351D01*
X157196676Y-100011946D01*
X157151522Y-100132394D01*
X157147895Y-100147649D01*
X157142369Y-100198514D01*
X157142000Y-100205328D01*
X157142000Y-100827885D01*
X103358500Y-100827885D01*
X103358500Y-100201866D01*
X103351745Y-100139684D01*
X103300615Y-100003295D01*
X103213261Y-99886739D01*
X103096705Y-99799385D01*
X102960316Y-99748255D01*
X102898134Y-99741500D01*
X101101866Y-99741500D01*
X101039684Y-99748255D01*
X100903295Y-99799385D01*
X100786739Y-99886739D01*
X100781358Y-99893919D01*
X100781357Y-99893920D01*
X100735326Y-99955339D01*
X100678467Y-99997854D01*
X100607648Y-100002880D01*
X100545355Y-99968820D01*
X100511365Y-99906489D01*
X100508500Y-99879774D01*
X100508500Y-80623156D01*
X100528502Y-80555035D01*
X100582158Y-80508542D01*
X100652432Y-80498438D01*
X100717012Y-80527932D01*
X100751243Y-80575752D01*
X100770492Y-80623156D01*
X100783266Y-80654616D01*
X100899987Y-80845088D01*
X101046250Y-81013938D01*
X101218126Y-81156632D01*
X101411000Y-81269338D01*
X101619692Y-81349030D01*
X101624760Y-81350061D01*
X101624763Y-81350062D01*
X101732017Y-81371883D01*
X101838597Y-81393567D01*
X101843772Y-81393757D01*
X101843774Y-81393757D01*
X102056673Y-81401564D01*
X102056677Y-81401564D01*
X102061837Y-81401753D01*
X102066957Y-81401097D01*
X102066959Y-81401097D01*
X102278288Y-81374025D01*
X102278289Y-81374025D01*
X102283416Y-81373368D01*
X102288366Y-81371883D01*
X102492429Y-81310661D01*
X102492434Y-81310659D01*
X102497384Y-81309174D01*
X102697994Y-81210896D01*
X102879860Y-81081173D01*
X103038096Y-80923489D01*
X103097594Y-80840689D01*
X103165435Y-80746277D01*
X103168453Y-80742077D01*
X103249075Y-80578951D01*
X103265136Y-80546453D01*
X103265137Y-80546451D01*
X103267430Y-80541811D01*
X103332370Y-80328069D01*
X103361529Y-80106590D01*
X103363156Y-80040000D01*
X103344852Y-79817361D01*
X103290431Y-79600702D01*
X103201354Y-79395840D01*
X103080014Y-79208277D01*
X102929670Y-79043051D01*
X102925619Y-79039852D01*
X102925615Y-79039848D01*
X102758414Y-78907800D01*
X102758410Y-78907798D01*
X102754359Y-78904598D01*
X102713053Y-78881796D01*
X102663084Y-78831364D01*
X102648312Y-78761921D01*
X102673428Y-78695516D01*
X102700780Y-78668909D01*
X102744603Y-78637650D01*
X102879860Y-78541173D01*
X103038096Y-78383489D01*
X103097594Y-78300689D01*
X103165435Y-78206277D01*
X103168453Y-78202077D01*
X103249632Y-78037824D01*
X103265136Y-78006453D01*
X103265137Y-78006451D01*
X103267430Y-78001811D01*
X103332370Y-77788069D01*
X103361529Y-77566590D01*
X103363156Y-77500000D01*
X103344852Y-77277361D01*
X103334006Y-77234183D01*
X157164389Y-77234183D01*
X157165912Y-77242607D01*
X157178292Y-77246000D01*
X158227885Y-77246000D01*
X158243124Y-77241525D01*
X158244329Y-77240135D01*
X158246000Y-77232452D01*
X158246000Y-75232115D01*
X158241525Y-75216876D01*
X158240135Y-75215671D01*
X158232452Y-75214000D01*
X157183225Y-75214000D01*
X157169694Y-75217973D01*
X157168257Y-75227966D01*
X157198565Y-75362446D01*
X157201645Y-75372275D01*
X157281770Y-75569603D01*
X157286413Y-75578794D01*
X157397694Y-75760388D01*
X157403777Y-75768699D01*
X157543213Y-75929667D01*
X157550580Y-75936883D01*
X157714434Y-76072916D01*
X157722881Y-76078831D01*
X157792479Y-76119501D01*
X157841203Y-76171140D01*
X157854274Y-76240923D01*
X157827543Y-76306694D01*
X157787087Y-76340053D01*
X157778462Y-76344542D01*
X157769738Y-76350036D01*
X157599433Y-76477905D01*
X157591726Y-76484748D01*
X157444590Y-76638717D01*
X157438104Y-76646727D01*
X157318098Y-76822649D01*
X157313000Y-76831623D01*
X157223338Y-77024783D01*
X157219775Y-77034470D01*
X157164389Y-77234183D01*
X103334006Y-77234183D01*
X103290431Y-77060702D01*
X103201354Y-76855840D01*
X103080014Y-76668277D01*
X102929670Y-76503051D01*
X102925619Y-76499852D01*
X102925615Y-76499848D01*
X102758414Y-76367800D01*
X102758410Y-76367798D01*
X102754359Y-76364598D01*
X102713053Y-76341796D01*
X102663084Y-76291364D01*
X102648312Y-76221921D01*
X102673428Y-76155516D01*
X102700780Y-76128909D01*
X102744603Y-76097650D01*
X102879860Y-76001173D01*
X103038096Y-75843489D01*
X103097594Y-75760689D01*
X103165435Y-75666277D01*
X103168453Y-75662077D01*
X103249632Y-75497824D01*
X103265136Y-75466453D01*
X103265137Y-75466451D01*
X103267430Y-75461811D01*
X103332370Y-75248069D01*
X103361529Y-75026590D01*
X103363156Y-74960000D01*
X103344852Y-74737361D01*
X103290431Y-74520702D01*
X103201354Y-74315840D01*
X103080014Y-74128277D01*
X102929670Y-73963051D01*
X102925619Y-73959852D01*
X102925615Y-73959848D01*
X102758414Y-73827800D01*
X102758410Y-73827798D01*
X102754359Y-73824598D01*
X102713053Y-73801796D01*
X102663084Y-73751364D01*
X102648312Y-73681921D01*
X102673428Y-73615516D01*
X102700780Y-73588909D01*
X102744603Y-73557650D01*
X102879860Y-73461173D01*
X103038096Y-73303489D01*
X103097594Y-73220689D01*
X103165435Y-73126277D01*
X103168453Y-73122077D01*
X103249075Y-72958951D01*
X103265136Y-72926453D01*
X103265137Y-72926451D01*
X103267430Y-72921811D01*
X103332370Y-72708069D01*
X103361529Y-72486590D01*
X103363156Y-72420000D01*
X103344852Y-72197361D01*
X103290431Y-71980702D01*
X103201354Y-71775840D01*
X103080014Y-71588277D01*
X102929670Y-71423051D01*
X102925619Y-71419852D01*
X102925615Y-71419848D01*
X102758414Y-71287800D01*
X102758410Y-71287798D01*
X102754359Y-71284598D01*
X102713053Y-71261796D01*
X102663084Y-71211364D01*
X102648312Y-71141921D01*
X102673428Y-71075516D01*
X102700780Y-71048909D01*
X102744603Y-71017650D01*
X102879860Y-70921173D01*
X103038096Y-70763489D01*
X103097594Y-70680689D01*
X103165435Y-70586277D01*
X103168453Y-70582077D01*
X103249075Y-70418951D01*
X103265136Y-70386453D01*
X103265137Y-70386451D01*
X103267430Y-70381811D01*
X103332370Y-70168069D01*
X103361529Y-69946590D01*
X103363156Y-69880000D01*
X103344852Y-69657361D01*
X103290431Y-69440702D01*
X103201354Y-69235840D01*
X103080014Y-69048277D01*
X102929670Y-68883051D01*
X102925619Y-68879852D01*
X102925615Y-68879848D01*
X102758414Y-68747800D01*
X102758410Y-68747798D01*
X102754359Y-68744598D01*
X102713053Y-68721796D01*
X102663084Y-68671364D01*
X102648312Y-68601921D01*
X102673428Y-68535516D01*
X102700780Y-68508909D01*
X102744603Y-68477650D01*
X102879860Y-68381173D01*
X103038096Y-68223489D01*
X103097594Y-68140689D01*
X103165435Y-68046277D01*
X103168453Y-68042077D01*
X103249075Y-67878951D01*
X103265136Y-67846453D01*
X103265137Y-67846451D01*
X103267430Y-67841811D01*
X103332370Y-67628069D01*
X103361529Y-67406590D01*
X103363156Y-67340000D01*
X103344852Y-67117361D01*
X103290431Y-66900702D01*
X103201354Y-66695840D01*
X103080014Y-66508277D01*
X102929670Y-66343051D01*
X102925619Y-66339852D01*
X102925615Y-66339848D01*
X102758414Y-66207800D01*
X102758410Y-66207798D01*
X102754359Y-66204598D01*
X102713053Y-66181796D01*
X102663084Y-66131364D01*
X102648312Y-66061921D01*
X102673428Y-65995516D01*
X102700780Y-65968909D01*
X102744603Y-65937650D01*
X102879860Y-65841173D01*
X103038096Y-65683489D01*
X103097594Y-65600689D01*
X103165435Y-65506277D01*
X103168453Y-65502077D01*
X103249632Y-65337824D01*
X103265136Y-65306453D01*
X103265137Y-65306451D01*
X103267430Y-65301811D01*
X103332370Y-65088069D01*
X103361529Y-64866590D01*
X103363156Y-64800000D01*
X103344852Y-64577361D01*
X103290431Y-64360702D01*
X103201354Y-64155840D01*
X103080014Y-63968277D01*
X102929670Y-63803051D01*
X102925619Y-63799852D01*
X102925615Y-63799848D01*
X102758414Y-63667800D01*
X102758410Y-63667798D01*
X102754359Y-63664598D01*
X102713053Y-63641796D01*
X102663084Y-63591364D01*
X102648312Y-63521921D01*
X102673428Y-63455516D01*
X102700780Y-63428909D01*
X102744603Y-63397650D01*
X102879860Y-63301173D01*
X103038096Y-63143489D01*
X103097594Y-63060689D01*
X103165435Y-62966277D01*
X103168453Y-62962077D01*
X103249075Y-62798951D01*
X103265136Y-62766453D01*
X103265137Y-62766451D01*
X103267430Y-62761811D01*
X103332370Y-62548069D01*
X103361529Y-62326590D01*
X103363156Y-62260000D01*
X103344852Y-62037361D01*
X103290431Y-61820702D01*
X103201354Y-61615840D01*
X103080014Y-61428277D01*
X102929670Y-61263051D01*
X102925619Y-61259852D01*
X102925615Y-61259848D01*
X102758414Y-61127800D01*
X102758410Y-61127798D01*
X102754359Y-61124598D01*
X102713053Y-61101796D01*
X102663084Y-61051364D01*
X102648312Y-60981921D01*
X102673428Y-60915516D01*
X102700780Y-60888909D01*
X102744603Y-60857650D01*
X102879860Y-60761173D01*
X103038096Y-60603489D01*
X103097594Y-60520689D01*
X103165435Y-60426277D01*
X103168453Y-60422077D01*
X103249075Y-60258951D01*
X103265136Y-60226453D01*
X103265137Y-60226451D01*
X103267430Y-60221811D01*
X103332370Y-60008069D01*
X103361529Y-59786590D01*
X103363156Y-59720000D01*
X103344852Y-59497361D01*
X103290431Y-59280702D01*
X103201354Y-59075840D01*
X103080014Y-58888277D01*
X102929670Y-58723051D01*
X102925619Y-58719852D01*
X102925615Y-58719848D01*
X102758414Y-58587800D01*
X102758410Y-58587798D01*
X102754359Y-58584598D01*
X102713053Y-58561796D01*
X102663084Y-58511364D01*
X102648312Y-58441921D01*
X102673428Y-58375516D01*
X102700780Y-58348909D01*
X102744603Y-58317650D01*
X102879860Y-58221173D01*
X103038096Y-58063489D01*
X103097594Y-57980689D01*
X103165435Y-57886277D01*
X103168453Y-57882077D01*
X103249075Y-57718951D01*
X103265136Y-57686453D01*
X103265137Y-57686451D01*
X103267430Y-57681811D01*
X103332370Y-57468069D01*
X103361529Y-57246590D01*
X103363156Y-57180000D01*
X103344852Y-56957361D01*
X103290431Y-56740702D01*
X103201354Y-56535840D01*
X103080014Y-56348277D01*
X102929670Y-56183051D01*
X102925619Y-56179852D01*
X102925615Y-56179848D01*
X102758414Y-56047800D01*
X102758410Y-56047798D01*
X102754359Y-56044598D01*
X102712569Y-56021529D01*
X102662598Y-55971097D01*
X102647826Y-55901654D01*
X102672942Y-55835248D01*
X102700294Y-55808641D01*
X102875328Y-55683792D01*
X102883200Y-55677139D01*
X103034052Y-55526812D01*
X103040730Y-55518965D01*
X103165003Y-55346020D01*
X103170313Y-55337183D01*
X103264670Y-55146267D01*
X103268469Y-55136672D01*
X103330377Y-54932910D01*
X103332555Y-54922837D01*
X103333986Y-54911962D01*
X103331775Y-54897778D01*
X103318617Y-54894000D01*
X101872000Y-54894000D01*
X101803879Y-54873998D01*
X101757386Y-54820342D01*
X101746000Y-54768000D01*
X101746000Y-54367885D01*
X102254000Y-54367885D01*
X102258475Y-54383124D01*
X102259865Y-54384329D01*
X102267548Y-54386000D01*
X103318344Y-54386000D01*
X103331875Y-54382027D01*
X103333180Y-54372947D01*
X103291214Y-54205875D01*
X103287894Y-54196124D01*
X103202972Y-54000814D01*
X103198105Y-53991739D01*
X103082426Y-53812926D01*
X103076136Y-53804757D01*
X102931931Y-53646279D01*
X102900879Y-53582433D01*
X102909273Y-53511934D01*
X102954450Y-53457166D01*
X102980894Y-53443497D01*
X103088054Y-53403324D01*
X103103649Y-53394786D01*
X103205724Y-53318285D01*
X103218285Y-53305724D01*
X103294786Y-53203649D01*
X103303324Y-53188054D01*
X103348478Y-53067606D01*
X103352105Y-53052351D01*
X103357631Y-53001486D01*
X103358000Y-52994672D01*
X103358000Y-52372115D01*
X103353525Y-52356876D01*
X103352135Y-52355671D01*
X103344452Y-52354000D01*
X102272115Y-52354000D01*
X102256876Y-52358475D01*
X102255671Y-52359865D01*
X102254000Y-52367548D01*
X102254000Y-54367885D01*
X101746000Y-54367885D01*
X101746000Y-51972000D01*
X101766002Y-51903879D01*
X101819658Y-51857386D01*
X101872000Y-51846000D01*
X103339884Y-51846000D01*
X103355123Y-51841525D01*
X103356328Y-51840135D01*
X103357999Y-51832452D01*
X103357999Y-51205331D01*
X103357629Y-51198510D01*
X103352105Y-51147648D01*
X103348479Y-51132396D01*
X103303324Y-51011946D01*
X103294786Y-50996351D01*
X103218285Y-50894276D01*
X103205724Y-50881715D01*
X103103649Y-50805214D01*
X103088054Y-50796676D01*
X102970167Y-50752482D01*
X102913403Y-50709840D01*
X102888703Y-50643279D01*
X102903910Y-50573930D01*
X102954196Y-50523812D01*
X103014397Y-50508500D01*
X157484179Y-50508500D01*
X157552300Y-50528502D01*
G37*
%TD.AperFunction*%
M02*
