G04 #@! TF.GenerationSoftware,KiCad,Pcbnew,(5.99.0-9650-gad505e29c0)*
G04 #@! TF.CreationDate,2021-03-17T10:46:37+00:00*
G04 #@! TF.ProjectId,Ampelope,416d7065-6c6f-4706-952e-6b696361645f,rev?*
G04 #@! TF.SameCoordinates,Original*
G04 #@! TF.FileFunction,Copper,L1,Top*
G04 #@! TF.FilePolarity,Positive*
%FSLAX46Y46*%
G04 Gerber Fmt 4.6, Leading zero omitted, Abs format (unit mm)*
G04 Created by KiCad (PCBNEW (5.99.0-9650-gad505e29c0)) date 2021-03-17 10:46:37*
%MOMM*%
%LPD*%
G01*
G04 APERTURE LIST*
G04 Aperture macros list*
%AMRoundRect*
0 Rectangle with rounded corners*
0 $1 Rounding radius*
0 $2 $3 $4 $5 $6 $7 $8 $9 X,Y pos of 4 corners*
0 Add a 4 corners polygon primitive as box body*
4,1,4,$2,$3,$4,$5,$6,$7,$8,$9,$2,$3,0*
0 Add four circle primitives for the rounded corners*
1,1,$1+$1,$2,$3*
1,1,$1+$1,$4,$5*
1,1,$1+$1,$6,$7*
1,1,$1+$1,$8,$9*
0 Add four rect primitives between the rounded corners*
20,1,$1+$1,$2,$3,$4,$5,0*
20,1,$1+$1,$4,$5,$6,$7,0*
20,1,$1+$1,$6,$7,$8,$9,0*
20,1,$1+$1,$8,$9,$2,$3,0*%
G04 Aperture macros list end*
G04 #@! TA.AperFunction,SMDPad,CuDef*
%ADD10RoundRect,0.237500X0.250000X0.237500X-0.250000X0.237500X-0.250000X-0.237500X0.250000X-0.237500X0*%
G04 #@! TD*
G04 #@! TA.AperFunction,SMDPad,CuDef*
%ADD11RoundRect,0.150000X-0.825000X-0.150000X0.825000X-0.150000X0.825000X0.150000X-0.825000X0.150000X0*%
G04 #@! TD*
G04 #@! TA.AperFunction,SMDPad,CuDef*
%ADD12RoundRect,0.237500X-0.250000X-0.237500X0.250000X-0.237500X0.250000X0.237500X-0.250000X0.237500X0*%
G04 #@! TD*
G04 #@! TA.AperFunction,SMDPad,CuDef*
%ADD13RoundRect,0.250000X0.550000X-1.050000X0.550000X1.050000X-0.550000X1.050000X-0.550000X-1.050000X0*%
G04 #@! TD*
G04 #@! TA.AperFunction,SMDPad,CuDef*
%ADD14RoundRect,0.225000X0.225000X0.375000X-0.225000X0.375000X-0.225000X-0.375000X0.225000X-0.375000X0*%
G04 #@! TD*
G04 #@! TA.AperFunction,SMDPad,CuDef*
%ADD15RoundRect,0.150000X0.825000X0.150000X-0.825000X0.150000X-0.825000X-0.150000X0.825000X-0.150000X0*%
G04 #@! TD*
G04 #@! TA.AperFunction,ComponentPad*
%ADD16R,1.700000X1.700000*%
G04 #@! TD*
G04 #@! TA.AperFunction,ComponentPad*
%ADD17C,1.700000*%
G04 #@! TD*
G04 #@! TA.AperFunction,ComponentPad*
%ADD18R,1.550000X1.550000*%
G04 #@! TD*
G04 #@! TA.AperFunction,ComponentPad*
%ADD19C,1.550000*%
G04 #@! TD*
G04 #@! TA.AperFunction,SMDPad,CuDef*
%ADD20RoundRect,0.225000X-0.225000X-0.375000X0.225000X-0.375000X0.225000X0.375000X-0.225000X0.375000X0*%
G04 #@! TD*
G04 #@! TA.AperFunction,SMDPad,CuDef*
%ADD21RoundRect,0.250000X1.250000X0.550000X-1.250000X0.550000X-1.250000X-0.550000X1.250000X-0.550000X0*%
G04 #@! TD*
G04 #@! TA.AperFunction,ComponentPad*
%ADD22R,1.000000X2.500000*%
G04 #@! TD*
G04 #@! TA.AperFunction,WasherPad*
%ADD23C,4.000000*%
G04 #@! TD*
G04 #@! TA.AperFunction,ComponentPad*
%ADD24C,1.800000*%
G04 #@! TD*
G04 #@! TA.AperFunction,ViaPad*
%ADD25C,0.800000*%
G04 #@! TD*
G04 #@! TA.AperFunction,Conductor*
%ADD26C,0.300000*%
G04 #@! TD*
G04 #@! TA.AperFunction,Conductor*
%ADD27C,0.500000*%
G04 #@! TD*
G04 #@! TA.AperFunction,Conductor*
%ADD28C,0.250000*%
G04 #@! TD*
G04 APERTURE END LIST*
D10*
X139812500Y-102000000D03*
X137987500Y-102000000D03*
D11*
X143025000Y-79590000D03*
X143025000Y-80860000D03*
X143025000Y-82130000D03*
X143025000Y-83400000D03*
X143025000Y-84670000D03*
X143025000Y-85940000D03*
X143025000Y-87210000D03*
X147975000Y-87210000D03*
X147975000Y-85940000D03*
X147975000Y-84670000D03*
X147975000Y-83400000D03*
X147975000Y-82130000D03*
X147975000Y-80860000D03*
X147975000Y-79590000D03*
D12*
X151087500Y-91800000D03*
X152912500Y-91800000D03*
X137987500Y-79800000D03*
X139812500Y-79800000D03*
X151087500Y-103400000D03*
X152912500Y-103400000D03*
D10*
X152912500Y-105500000D03*
X151087500Y-105500000D03*
X139812500Y-98000000D03*
X137987500Y-98000000D03*
D12*
X151087500Y-83800000D03*
X152912500Y-83800000D03*
D13*
X150800000Y-76200000D03*
X150800000Y-72600000D03*
D14*
X152450000Y-57900000D03*
X149150000Y-57900000D03*
D12*
X137987500Y-104000000D03*
X139812500Y-104000000D03*
D15*
X147975000Y-105610000D03*
X147975000Y-104340000D03*
X147975000Y-103070000D03*
X147975000Y-101800000D03*
X147975000Y-100530000D03*
X147975000Y-99260000D03*
X147975000Y-97990000D03*
X143025000Y-97990000D03*
X143025000Y-99260000D03*
X143025000Y-100530000D03*
X143025000Y-101800000D03*
X143025000Y-103070000D03*
X143025000Y-104340000D03*
X143025000Y-105610000D03*
D16*
X142362500Y-72800000D03*
D17*
X139822500Y-72800000D03*
X142362500Y-70260000D03*
X139822500Y-70260000D03*
X142362500Y-67720000D03*
X139822500Y-67720000D03*
X142362500Y-65180000D03*
X139822500Y-65180000D03*
X142362500Y-62640000D03*
X139822500Y-62640000D03*
D10*
X152912500Y-81800000D03*
X151087500Y-81800000D03*
X137987500Y-100000000D03*
X139812500Y-100000000D03*
D13*
X150800000Y-65200000D03*
X150800000Y-61600000D03*
D18*
X137975000Y-119400000D03*
D19*
X142975000Y-116900000D03*
X137975000Y-114400000D03*
D10*
X139812500Y-91800000D03*
X137987500Y-91800000D03*
D18*
X153025000Y-114500000D03*
D19*
X148025000Y-117000000D03*
X153025000Y-119500000D03*
D12*
X137987500Y-89800000D03*
X139812500Y-89800000D03*
D20*
X149150000Y-68900000D03*
X152450000Y-68900000D03*
D10*
X152912500Y-87800000D03*
X151087500Y-87800000D03*
D12*
X151087500Y-97300000D03*
X152912500Y-97300000D03*
D10*
X152912500Y-101400000D03*
X151087500Y-101400000D03*
D12*
X151087500Y-89800000D03*
X152912500Y-89800000D03*
X137987500Y-81900000D03*
X139812500Y-81900000D03*
D10*
X152912500Y-93900000D03*
X151087500Y-93900000D03*
D12*
X137987500Y-83800000D03*
X139812500Y-83800000D03*
D21*
X147700000Y-92800000D03*
X143300000Y-92800000D03*
D10*
X139812500Y-87800000D03*
X137987500Y-87800000D03*
X152912500Y-99300000D03*
X151087500Y-99300000D03*
X152912500Y-85800000D03*
X151087500Y-85800000D03*
X152912500Y-79800000D03*
X151087500Y-79800000D03*
D12*
X137987500Y-85800000D03*
X139812500Y-85800000D03*
D22*
X139020000Y-138500000D03*
X142120000Y-138500000D03*
X150420000Y-138500000D03*
X151980000Y-124400000D03*
X148880000Y-124400000D03*
X140580000Y-124400000D03*
X151980000Y-110500000D03*
X148880000Y-110500000D03*
X140580000Y-110500000D03*
D23*
X149900000Y-48500000D03*
X141100000Y-48500000D03*
D24*
X143000000Y-55500000D03*
X145500000Y-55500000D03*
X148000000Y-55500000D03*
D25*
X149100000Y-72600000D03*
X150800000Y-70500000D03*
X150800000Y-67300000D03*
X152400000Y-65200000D03*
X149100000Y-65200000D03*
X143900000Y-77800000D03*
X141000000Y-78300000D03*
X137700000Y-77000000D03*
X145400000Y-116700000D03*
X149200000Y-115000000D03*
X149200000Y-118600000D03*
X144600000Y-107000000D03*
X147200000Y-94700000D03*
X145400000Y-79800000D03*
X146000000Y-83600000D03*
X141000000Y-93000000D03*
X138700000Y-89100000D03*
X138700000Y-87000000D03*
X138700000Y-85200000D03*
X138100000Y-109900000D03*
X138200000Y-96300000D03*
X144100000Y-100900000D03*
X138100000Y-106400000D03*
X140000000Y-94600000D03*
X137125000Y-81900000D03*
X152100000Y-95900000D03*
X148500000Y-96500000D03*
X149800000Y-82900000D03*
X143100000Y-114300000D03*
X149600000Y-101800000D03*
X152950000Y-98450000D03*
X153000000Y-78500000D03*
X144700011Y-101800000D03*
X140800000Y-119200000D03*
X138100000Y-78700000D03*
X149232500Y-78332500D03*
X141500000Y-101800000D03*
X145000000Y-105600000D03*
X151100000Y-106500000D03*
X141200000Y-98000000D03*
D26*
X138700000Y-89100000D02*
X138687500Y-89100000D01*
X138687500Y-89100000D02*
X137987500Y-89800000D01*
D27*
X150800000Y-61600000D02*
X153350020Y-64150020D01*
X153350020Y-64150020D02*
X153350020Y-78149980D01*
X153350020Y-78149980D02*
X152912500Y-78587500D01*
X152912500Y-78587500D02*
X152912500Y-79800000D01*
D28*
X139812500Y-79800000D02*
X141800000Y-79800000D01*
X141800000Y-79800000D02*
X142010000Y-79590000D01*
X142010000Y-79590000D02*
X143025000Y-79590000D01*
D26*
X142915000Y-79700000D02*
X143025000Y-79590000D01*
D28*
X139812500Y-83800000D02*
X141875000Y-83800000D01*
X141875000Y-83800000D02*
X142275000Y-83400000D01*
X142275000Y-83400000D02*
X143025000Y-83400000D01*
X137987500Y-102000000D02*
X138900000Y-101087500D01*
X138900000Y-101087500D02*
X138900000Y-99629476D01*
X138900000Y-99629476D02*
X138270524Y-99000000D01*
X137174980Y-98674980D02*
X137174980Y-92612520D01*
X138270524Y-99000000D02*
X137500000Y-99000000D01*
X137500000Y-99000000D02*
X137174980Y-98674980D01*
X137174980Y-92612520D02*
X137987500Y-91800000D01*
X140580000Y-110500000D02*
X137000000Y-106920000D01*
X137000000Y-106920000D02*
X137000000Y-100987500D01*
X137000000Y-100987500D02*
X137987500Y-100000000D01*
D26*
X140800000Y-119200000D02*
X140700000Y-119300000D01*
X138075000Y-119300000D02*
X137975000Y-119400000D01*
X140700000Y-119300000D02*
X138075000Y-119300000D01*
D28*
X152912500Y-105500000D02*
X152000000Y-104587500D01*
X152000000Y-104587500D02*
X152000000Y-102312500D01*
X152000000Y-102312500D02*
X151087500Y-101400000D01*
X151087500Y-95625000D02*
X152000000Y-94712500D01*
X152000000Y-94712500D02*
X152000000Y-92712500D01*
X152000000Y-92712500D02*
X152912500Y-91800000D01*
X147700000Y-92800000D02*
X148200000Y-92800000D01*
X148200000Y-92800000D02*
X151025000Y-95625000D01*
X151025000Y-95625000D02*
X151087500Y-95625000D01*
D27*
X142362500Y-62640000D02*
X144560000Y-62640000D01*
X144560000Y-62640000D02*
X149150000Y-58050000D01*
X149150000Y-58050000D02*
X149150000Y-57900000D01*
X152450000Y-57900000D02*
X150800000Y-59550000D01*
X150800000Y-59550000D02*
X150800000Y-61600000D01*
X152450000Y-68900000D02*
X152450000Y-75115000D01*
X152450000Y-75115000D02*
X149232500Y-78332500D01*
X149150000Y-68900000D02*
X146262500Y-68900000D01*
X146262500Y-68900000D02*
X142362500Y-72800000D01*
X147975000Y-79590000D02*
X149232500Y-78332500D01*
X148010000Y-79590000D02*
X147975000Y-79590000D01*
D28*
X136400000Y-85387500D02*
X137987500Y-83800000D01*
X138700000Y-87000000D02*
X138700000Y-87087500D01*
X138700000Y-87087500D02*
X137987500Y-87800000D01*
X136400000Y-112825000D02*
X136400000Y-85387500D01*
X137975000Y-114400000D02*
X136400000Y-112825000D01*
D26*
X146649980Y-100179980D02*
X146649980Y-97632884D01*
X148400000Y-96600000D02*
X148500000Y-96500000D01*
X147682864Y-96600000D02*
X148400000Y-96600000D01*
X147000000Y-100530000D02*
X146649980Y-100179980D01*
X150700000Y-83800000D02*
X149800000Y-82900000D01*
X147975000Y-104340000D02*
X147000000Y-104340000D01*
X151087500Y-83800000D02*
X150700000Y-83800000D01*
X147000000Y-100530000D02*
X147975000Y-100530000D01*
X146649980Y-103989980D02*
X146649980Y-100880020D01*
X146649980Y-97632884D02*
X147682864Y-96600000D01*
X146649980Y-100880020D02*
X147000000Y-100530000D01*
X147000000Y-104340000D02*
X146649980Y-103989980D01*
D28*
X152912500Y-91800000D02*
X152912500Y-89800000D01*
X151087500Y-97300000D02*
X151087500Y-99300000D01*
X151087500Y-97300000D02*
X151087500Y-95625000D01*
X146934980Y-86565020D02*
X149852520Y-86565020D01*
X145874980Y-87625020D02*
X146934980Y-86565020D01*
X145875031Y-107124969D02*
X145875031Y-100465590D01*
X140580000Y-110500000D02*
X142500000Y-110500000D01*
X145875031Y-100465590D02*
X145874980Y-100465539D01*
X145874980Y-100465539D02*
X145874980Y-87625020D01*
X142500000Y-110500000D02*
X145875031Y-107124969D01*
X149852520Y-86565020D02*
X151087500Y-87800000D01*
D27*
X139822500Y-62640000D02*
X142362500Y-62640000D01*
D28*
X152912500Y-99300000D02*
X152912500Y-98487500D01*
X139812500Y-93112500D02*
X139812500Y-91800000D01*
X144974940Y-101525071D02*
X144974940Y-98274940D01*
D26*
X147975000Y-101800000D02*
X149600000Y-101800000D01*
D28*
X144974940Y-98274940D02*
X139812500Y-93112500D01*
X144700011Y-101800000D02*
X144974940Y-101525071D01*
X152912500Y-98487500D02*
X152950000Y-98450000D01*
X151087500Y-89625000D02*
X152912500Y-87800000D01*
X151087500Y-85800000D02*
X149957500Y-84670000D01*
X149957500Y-84670000D02*
X147975000Y-84670000D01*
X151087500Y-85975000D02*
X152912500Y-87800000D01*
X154500000Y-113025000D02*
X154500000Y-87387500D01*
X153025000Y-114500000D02*
X154500000Y-113025000D01*
X154500000Y-87387500D02*
X152912500Y-85800000D01*
X151087500Y-93800000D02*
X151087500Y-91800000D01*
X147975000Y-88687500D02*
X147975000Y-87210000D01*
X151087500Y-91800000D02*
X147975000Y-88687500D01*
X151154989Y-117629989D02*
X151154989Y-108645011D01*
X154000000Y-94987500D02*
X152912500Y-93900000D01*
X151154989Y-108645011D02*
X154000000Y-105800000D01*
X153025000Y-119500000D02*
X151154989Y-117629989D01*
X154000000Y-105800000D02*
X154000000Y-94987500D01*
X140112500Y-104300000D02*
X142985000Y-104300000D01*
X139812500Y-104000000D02*
X140112500Y-104300000D01*
X139812500Y-102000000D02*
X139812500Y-104000000D01*
X142985000Y-104300000D02*
X143025000Y-104340000D01*
X142050000Y-85940000D02*
X143025000Y-85940000D01*
X140400000Y-90800000D02*
X141724980Y-89475020D01*
X138987500Y-90800000D02*
X140400000Y-90800000D01*
X141724980Y-86265020D02*
X142050000Y-85940000D01*
X137987500Y-91800000D02*
X138987500Y-90800000D01*
X141724980Y-89475020D02*
X141724980Y-86265020D01*
X151087500Y-79800000D02*
X151087500Y-81800000D01*
X151087500Y-79800000D02*
X148757500Y-82130000D01*
X150900000Y-101400000D02*
X148760000Y-99260000D01*
X152912500Y-101400000D02*
X151912500Y-100400000D01*
X152912500Y-103400000D02*
X152912500Y-101400000D01*
X151912500Y-100400000D02*
X150761780Y-100400000D01*
X150761780Y-100400000D02*
X148351780Y-97990000D01*
X152112500Y-84600000D02*
X152912500Y-83800000D01*
X145130000Y-103070000D02*
X145425011Y-102774989D01*
X150604476Y-84600000D02*
X152112500Y-84600000D01*
X145424960Y-85573260D02*
X146973200Y-84025020D01*
X145425011Y-100651994D02*
X145424960Y-100651943D01*
X152912500Y-81800000D02*
X152912500Y-83800000D01*
X145424960Y-100651943D02*
X145424960Y-85573260D01*
X145425011Y-102774989D02*
X145425011Y-100651994D01*
X146973200Y-84025020D02*
X150029496Y-84025020D01*
X143025000Y-103070000D02*
X145130000Y-103070000D01*
X150029496Y-84025020D02*
X150604476Y-84600000D01*
X139812500Y-83800000D02*
X139812500Y-85800000D01*
X139812500Y-87800000D02*
X139812500Y-85800000D01*
X141200000Y-88412500D02*
X141200000Y-85520000D01*
X139812500Y-89800000D02*
X141200000Y-88412500D01*
X141200000Y-85520000D02*
X142050000Y-84670000D01*
X142050000Y-84670000D02*
X143025000Y-84670000D01*
X139812500Y-81800000D02*
X139812500Y-79800000D01*
D26*
X137987500Y-78812500D02*
X138100000Y-78700000D01*
X137987500Y-79800000D02*
X137987500Y-78812500D01*
D27*
X141500000Y-101800000D02*
X143025000Y-101800000D01*
D28*
X143025000Y-80860000D02*
X143025000Y-82130000D01*
D27*
X139822500Y-72800000D02*
X142362500Y-72800000D01*
D28*
X151087500Y-103400000D02*
X150274980Y-104212520D01*
X150274980Y-104212520D02*
X150274980Y-138354980D01*
X137987500Y-104000000D02*
X138475000Y-104000000D01*
X140085000Y-105610000D02*
X143025000Y-105610000D01*
X138475000Y-104000000D02*
X140085000Y-105610000D01*
X145000000Y-105600000D02*
X143035000Y-105600000D01*
X151100000Y-106500000D02*
X151100000Y-105512500D01*
X138100000Y-97900000D02*
X139812500Y-99612500D01*
X139812500Y-99612500D02*
X139812500Y-100000000D01*
X139812500Y-99987500D02*
X140540000Y-99260000D01*
X139812500Y-100000000D02*
X139812500Y-99987500D01*
X140540000Y-99260000D02*
X143025000Y-99260000D01*
X143025000Y-99260000D02*
X144000000Y-99260000D01*
X141200000Y-98000000D02*
X143015000Y-98000000D01*
X139812500Y-98000000D02*
X141200000Y-98000000D01*
X149500000Y-105060000D02*
X149500000Y-103600000D01*
X148970000Y-103070000D02*
X147975000Y-103070000D01*
X148950000Y-105610000D02*
X149500000Y-105060000D01*
X149500000Y-103600000D02*
X148970000Y-103070000D01*
X147975000Y-105610000D02*
X148950000Y-105610000D01*
G04 #@! TA.AperFunction,Conductor*
G36*
X149559512Y-106000560D02*
G01*
X149616348Y-106043107D01*
X149641159Y-106109627D01*
X149641480Y-106118616D01*
X149641480Y-108629183D01*
X149621478Y-108697304D01*
X149567822Y-108743797D01*
X149497548Y-108753900D01*
X149384459Y-108737640D01*
X149375505Y-108737000D01*
X149152115Y-108737000D01*
X149136876Y-108741475D01*
X149135671Y-108742865D01*
X149134000Y-108750548D01*
X149134000Y-112244885D01*
X149138475Y-112260124D01*
X149139865Y-112261329D01*
X149147548Y-112263000D01*
X149377743Y-112263000D01*
X149382250Y-112262839D01*
X149446269Y-112258260D01*
X149459494Y-112255874D01*
X149479983Y-112249858D01*
X149550979Y-112249858D01*
X149610705Y-112288242D01*
X149640198Y-112352824D01*
X149641480Y-112370754D01*
X149641480Y-122529183D01*
X149621478Y-122597304D01*
X149567822Y-122643797D01*
X149497548Y-122653900D01*
X149384459Y-122637640D01*
X149375505Y-122637000D01*
X149152115Y-122637000D01*
X149136876Y-122641475D01*
X149135671Y-122642865D01*
X149134000Y-122650548D01*
X149134000Y-126144885D01*
X149138475Y-126160124D01*
X149139865Y-126161329D01*
X149147548Y-126163000D01*
X149377743Y-126163000D01*
X149382250Y-126162839D01*
X149446269Y-126158260D01*
X149459494Y-126155874D01*
X149479983Y-126149858D01*
X149550979Y-126149858D01*
X149610705Y-126188242D01*
X149640198Y-126252824D01*
X149641480Y-126270754D01*
X149641480Y-136756036D01*
X149621478Y-136824157D01*
X149597993Y-136851260D01*
X149591310Y-136857051D01*
X149583729Y-136861923D01*
X149577828Y-136868733D01*
X149493918Y-136965569D01*
X149493916Y-136965572D01*
X149488016Y-136972381D01*
X149427300Y-137105330D01*
X149426018Y-137114245D01*
X149426018Y-137114246D01*
X149407139Y-137245552D01*
X149407139Y-137245554D01*
X149406500Y-137250000D01*
X149406500Y-139750000D01*
X149411727Y-139823079D01*
X149452904Y-139963316D01*
X149457775Y-139970895D01*
X149527051Y-140078691D01*
X149527053Y-140078694D01*
X149531923Y-140086271D01*
X149538733Y-140092172D01*
X149635569Y-140176082D01*
X149635572Y-140176084D01*
X149642381Y-140181984D01*
X149650579Y-140185728D01*
X149691207Y-140204282D01*
X149775330Y-140242700D01*
X149784245Y-140243982D01*
X149784246Y-140243982D01*
X149915552Y-140262861D01*
X149915559Y-140262862D01*
X149920000Y-140263500D01*
X150920000Y-140263500D01*
X150993079Y-140258273D01*
X151079904Y-140232779D01*
X151124670Y-140219635D01*
X151124672Y-140219634D01*
X151133316Y-140217096D01*
X151210610Y-140167422D01*
X151248691Y-140142949D01*
X151248694Y-140142947D01*
X151256271Y-140138077D01*
X151274331Y-140117235D01*
X151346082Y-140034431D01*
X151346084Y-140034428D01*
X151351984Y-140027619D01*
X151412700Y-139894670D01*
X151423972Y-139816269D01*
X151432861Y-139754448D01*
X151432862Y-139754441D01*
X151433500Y-139750000D01*
X151433500Y-137250000D01*
X151428273Y-137176921D01*
X151387096Y-137036684D01*
X151351039Y-136980579D01*
X151312949Y-136921309D01*
X151312947Y-136921306D01*
X151308077Y-136913729D01*
X151256587Y-136869112D01*
X151204431Y-136823918D01*
X151204428Y-136823916D01*
X151197619Y-136818016D01*
X151131401Y-136787775D01*
X151072864Y-136761042D01*
X151072863Y-136761042D01*
X151064670Y-136757300D01*
X151055754Y-136756018D01*
X151055747Y-136756016D01*
X151016548Y-136750380D01*
X150951967Y-136720887D01*
X150913584Y-136661161D01*
X150908480Y-136625663D01*
X150908480Y-126102565D01*
X150928482Y-126034444D01*
X150982138Y-125987951D01*
X151052412Y-125977847D01*
X151116992Y-126007340D01*
X151195840Y-126075661D01*
X151210848Y-126085307D01*
X151327275Y-126138477D01*
X151344388Y-126143502D01*
X151475554Y-126162361D01*
X151484495Y-126163000D01*
X151707885Y-126163000D01*
X151723124Y-126158525D01*
X151724329Y-126157135D01*
X151726000Y-126149452D01*
X151726000Y-124667548D01*
X152234000Y-124667548D01*
X152234000Y-126144885D01*
X152238475Y-126160124D01*
X152239865Y-126161329D01*
X152247548Y-126163000D01*
X152477743Y-126163000D01*
X152482250Y-126162839D01*
X152546269Y-126158260D01*
X152559491Y-126155874D01*
X152684458Y-126119181D01*
X152700692Y-126111767D01*
X152808360Y-126042574D01*
X152821847Y-126030888D01*
X152905662Y-125934160D01*
X152915307Y-125919152D01*
X152968477Y-125802725D01*
X152973502Y-125785612D01*
X152992361Y-125654446D01*
X152993000Y-125645503D01*
X152993000Y-124672115D01*
X152988525Y-124656876D01*
X152987135Y-124655671D01*
X152979452Y-124654000D01*
X152252115Y-124654000D01*
X152236876Y-124658475D01*
X152235671Y-124659865D01*
X152234000Y-124667548D01*
X151726000Y-124667548D01*
X151726000Y-122655115D01*
X151724659Y-122650548D01*
X152234000Y-122650548D01*
X152234000Y-124127885D01*
X152238475Y-124143124D01*
X152239865Y-124144329D01*
X152247548Y-124146000D01*
X152974885Y-124146000D01*
X152990124Y-124141525D01*
X152991329Y-124140135D01*
X152993000Y-124132452D01*
X152993000Y-123152257D01*
X152992839Y-123147750D01*
X152988260Y-123083731D01*
X152985874Y-123070509D01*
X152949181Y-122945542D01*
X152941767Y-122929308D01*
X152872574Y-122821640D01*
X152860888Y-122808153D01*
X152764160Y-122724338D01*
X152749152Y-122714693D01*
X152632725Y-122661523D01*
X152615612Y-122656498D01*
X152484446Y-122637639D01*
X152475505Y-122637000D01*
X152252115Y-122637000D01*
X152236876Y-122641475D01*
X152235671Y-122642865D01*
X152234000Y-122650548D01*
X151724659Y-122650548D01*
X151721525Y-122639876D01*
X151720135Y-122638671D01*
X151712452Y-122637000D01*
X151482257Y-122637000D01*
X151477750Y-122637161D01*
X151413731Y-122641740D01*
X151400509Y-122644126D01*
X151275542Y-122680819D01*
X151259308Y-122688233D01*
X151151640Y-122757426D01*
X151138153Y-122769112D01*
X151129705Y-122778862D01*
X151069979Y-122817246D01*
X150998982Y-122817246D01*
X150939256Y-122778863D01*
X150909763Y-122714282D01*
X150908480Y-122696350D01*
X150908480Y-118583574D01*
X150928482Y-118515453D01*
X150982138Y-118468960D01*
X151052412Y-118458856D01*
X151116992Y-118488350D01*
X151123575Y-118494479D01*
X151736182Y-119107086D01*
X151770208Y-119169398D01*
X151768793Y-119228790D01*
X151756075Y-119276254D01*
X151736500Y-119500000D01*
X151756075Y-119723746D01*
X151814206Y-119940693D01*
X151816529Y-119945674D01*
X151816529Y-119945675D01*
X151906800Y-120139263D01*
X151906803Y-120139268D01*
X151909126Y-120144250D01*
X151933772Y-120179448D01*
X152034790Y-120323716D01*
X152037952Y-120328232D01*
X152196768Y-120487048D01*
X152201276Y-120490205D01*
X152201279Y-120490207D01*
X152231362Y-120511271D01*
X152380750Y-120615874D01*
X152385732Y-120618197D01*
X152385737Y-120618200D01*
X152536152Y-120688339D01*
X152584307Y-120710794D01*
X152589615Y-120712216D01*
X152589617Y-120712217D01*
X152656941Y-120730256D01*
X152801254Y-120768925D01*
X153025000Y-120788500D01*
X153248746Y-120768925D01*
X153393059Y-120730256D01*
X153460383Y-120712217D01*
X153460385Y-120712216D01*
X153465693Y-120710794D01*
X153513848Y-120688339D01*
X153664263Y-120618200D01*
X153664268Y-120618197D01*
X153669250Y-120615874D01*
X153818638Y-120511271D01*
X153848721Y-120490207D01*
X153848724Y-120490205D01*
X153853232Y-120487048D01*
X154012048Y-120328232D01*
X154015207Y-120323721D01*
X154015211Y-120323716D01*
X154062787Y-120255770D01*
X154118244Y-120211441D01*
X154188863Y-120204132D01*
X154252224Y-120236162D01*
X154288209Y-120297364D01*
X154292000Y-120328040D01*
X154292000Y-146366000D01*
X154271998Y-146434121D01*
X154218342Y-146480614D01*
X154166000Y-146492000D01*
X136634000Y-146492000D01*
X136565879Y-146471998D01*
X136519386Y-146418342D01*
X136508000Y-146366000D01*
X136508000Y-138767548D01*
X138007000Y-138767548D01*
X138007000Y-139747743D01*
X138007161Y-139752250D01*
X138011740Y-139816269D01*
X138014126Y-139829491D01*
X138050819Y-139954458D01*
X138058233Y-139970692D01*
X138127426Y-140078360D01*
X138139112Y-140091847D01*
X138235840Y-140175662D01*
X138250848Y-140185307D01*
X138367275Y-140238477D01*
X138384388Y-140243502D01*
X138515554Y-140262361D01*
X138524495Y-140263000D01*
X138747885Y-140263000D01*
X138763124Y-140258525D01*
X138764329Y-140257135D01*
X138766000Y-140249452D01*
X138766000Y-138772115D01*
X138764659Y-138767548D01*
X139274000Y-138767548D01*
X139274000Y-140244885D01*
X139278475Y-140260124D01*
X139279865Y-140261329D01*
X139287548Y-140263000D01*
X139517743Y-140263000D01*
X139522250Y-140262839D01*
X139586269Y-140258260D01*
X139599491Y-140255874D01*
X139724458Y-140219181D01*
X139740692Y-140211767D01*
X139848360Y-140142574D01*
X139861847Y-140130888D01*
X139945662Y-140034160D01*
X139955307Y-140019152D01*
X140008477Y-139902725D01*
X140013502Y-139885612D01*
X140032361Y-139754446D01*
X140033000Y-139745503D01*
X140033000Y-138772115D01*
X140028525Y-138756876D01*
X140027135Y-138755671D01*
X140019452Y-138754000D01*
X139292115Y-138754000D01*
X139276876Y-138758475D01*
X139275671Y-138759865D01*
X139274000Y-138767548D01*
X138764659Y-138767548D01*
X138761525Y-138756876D01*
X138760135Y-138755671D01*
X138752452Y-138754000D01*
X138025115Y-138754000D01*
X138009876Y-138758475D01*
X138008671Y-138759865D01*
X138007000Y-138767548D01*
X136508000Y-138767548D01*
X136508000Y-137254495D01*
X138007000Y-137254495D01*
X138007000Y-138227885D01*
X138011475Y-138243124D01*
X138012865Y-138244329D01*
X138020548Y-138246000D01*
X138747885Y-138246000D01*
X138763124Y-138241525D01*
X138764329Y-138240135D01*
X138766000Y-138232452D01*
X138766000Y-136755115D01*
X138764659Y-136750548D01*
X139274000Y-136750548D01*
X139274000Y-138227885D01*
X139278475Y-138243124D01*
X139279865Y-138244329D01*
X139287548Y-138246000D01*
X140014885Y-138246000D01*
X140030124Y-138241525D01*
X140031329Y-138240135D01*
X140033000Y-138232452D01*
X140033000Y-137252257D01*
X140032919Y-137250000D01*
X141106500Y-137250000D01*
X141106500Y-139750000D01*
X141111727Y-139823079D01*
X141152904Y-139963316D01*
X141157775Y-139970895D01*
X141227051Y-140078691D01*
X141227053Y-140078694D01*
X141231923Y-140086271D01*
X141238733Y-140092172D01*
X141335569Y-140176082D01*
X141335572Y-140176084D01*
X141342381Y-140181984D01*
X141350579Y-140185728D01*
X141391207Y-140204282D01*
X141475330Y-140242700D01*
X141484245Y-140243982D01*
X141484246Y-140243982D01*
X141615552Y-140262861D01*
X141615559Y-140262862D01*
X141620000Y-140263500D01*
X142620000Y-140263500D01*
X142693079Y-140258273D01*
X142779904Y-140232779D01*
X142824670Y-140219635D01*
X142824672Y-140219634D01*
X142833316Y-140217096D01*
X142910610Y-140167422D01*
X142948691Y-140142949D01*
X142948694Y-140142947D01*
X142956271Y-140138077D01*
X142974331Y-140117235D01*
X143046082Y-140034431D01*
X143046084Y-140034428D01*
X143051984Y-140027619D01*
X143112700Y-139894670D01*
X143123972Y-139816269D01*
X143132861Y-139754448D01*
X143132862Y-139754441D01*
X143133500Y-139750000D01*
X143133500Y-138453837D01*
X143737104Y-138453837D01*
X143749645Y-138714917D01*
X143800638Y-138971275D01*
X143888963Y-139217280D01*
X144012679Y-139447528D01*
X144015474Y-139451271D01*
X144015476Y-139451274D01*
X144166278Y-139653222D01*
X144166283Y-139653228D01*
X144169070Y-139656960D01*
X144172379Y-139660240D01*
X144172384Y-139660246D01*
X144329846Y-139816340D01*
X144354698Y-139840976D01*
X144358460Y-139843734D01*
X144358463Y-139843737D01*
X144531608Y-139970692D01*
X144565487Y-139995533D01*
X144569618Y-139997707D01*
X144569619Y-139997707D01*
X144792671Y-140115060D01*
X144792677Y-140115062D01*
X144796806Y-140117235D01*
X144801213Y-140118774D01*
X144801220Y-140118777D01*
X145039157Y-140201868D01*
X145043573Y-140203410D01*
X145048166Y-140204282D01*
X145295777Y-140251293D01*
X145295780Y-140251293D01*
X145300366Y-140252164D01*
X145430955Y-140257295D01*
X145556877Y-140262243D01*
X145556883Y-140262243D01*
X145561545Y-140262426D01*
X145663199Y-140251293D01*
X145816719Y-140234480D01*
X145816724Y-140234479D01*
X145821372Y-140233970D01*
X146074139Y-140167422D01*
X146196016Y-140115060D01*
X146309991Y-140066093D01*
X146309994Y-140066091D01*
X146314294Y-140064244D01*
X146465471Y-139970692D01*
X146532586Y-139929160D01*
X146532590Y-139929157D01*
X146536559Y-139926701D01*
X146637822Y-139840976D01*
X146732487Y-139760836D01*
X146732488Y-139760835D01*
X146736053Y-139757817D01*
X146827781Y-139653222D01*
X146905312Y-139564816D01*
X146905316Y-139564811D01*
X146908394Y-139561301D01*
X146910924Y-139557368D01*
X147047266Y-139345400D01*
X147047269Y-139345395D01*
X147049794Y-139341469D01*
X147157148Y-139103153D01*
X147228097Y-138851585D01*
X147261083Y-138592294D01*
X147263500Y-138500000D01*
X147244129Y-138239338D01*
X147186443Y-137984402D01*
X147171108Y-137944968D01*
X147093402Y-137745147D01*
X147093401Y-137745145D01*
X147091709Y-137740794D01*
X147089391Y-137736738D01*
X146964327Y-137517920D01*
X146964325Y-137517918D01*
X146962008Y-137513863D01*
X146800189Y-137308597D01*
X146609807Y-137129503D01*
X146395044Y-136980517D01*
X146169138Y-136869112D01*
X146164805Y-136866975D01*
X146164801Y-136866974D01*
X146160619Y-136864911D01*
X145911681Y-136785226D01*
X145907074Y-136784476D01*
X145907071Y-136784475D01*
X145658310Y-136743962D01*
X145658311Y-136743962D01*
X145653699Y-136743211D01*
X145521111Y-136741475D01*
X145397018Y-136739850D01*
X145397015Y-136739850D01*
X145392341Y-136739789D01*
X145269568Y-136756498D01*
X145137982Y-136774406D01*
X145137978Y-136774407D01*
X145133348Y-136775037D01*
X144882409Y-136848179D01*
X144878156Y-136850140D01*
X144878155Y-136850140D01*
X144852596Y-136861923D01*
X144645038Y-136957608D01*
X144613243Y-136978454D01*
X144430362Y-137098355D01*
X144430357Y-137098359D01*
X144426449Y-137100921D01*
X144422957Y-137104038D01*
X144256892Y-137252257D01*
X144231444Y-137274970D01*
X144064307Y-137475930D01*
X143928710Y-137699388D01*
X143926901Y-137703702D01*
X143926900Y-137703704D01*
X143909522Y-137745147D01*
X143827631Y-137940433D01*
X143763292Y-138193771D01*
X143737104Y-138453837D01*
X143133500Y-138453837D01*
X143133500Y-137250000D01*
X143128273Y-137176921D01*
X143087096Y-137036684D01*
X143051039Y-136980579D01*
X143012949Y-136921309D01*
X143012947Y-136921306D01*
X143008077Y-136913729D01*
X142956587Y-136869112D01*
X142904431Y-136823918D01*
X142904428Y-136823916D01*
X142897619Y-136818016D01*
X142831401Y-136787775D01*
X142772864Y-136761042D01*
X142772863Y-136761042D01*
X142764670Y-136757300D01*
X142755755Y-136756018D01*
X142755754Y-136756018D01*
X142624448Y-136737139D01*
X142624441Y-136737138D01*
X142620000Y-136736500D01*
X141620000Y-136736500D01*
X141546921Y-136741727D01*
X141493884Y-136757300D01*
X141415330Y-136780365D01*
X141415328Y-136780366D01*
X141406684Y-136782904D01*
X141399105Y-136787775D01*
X141291309Y-136857051D01*
X141291306Y-136857053D01*
X141283729Y-136861923D01*
X141277828Y-136868733D01*
X141193918Y-136965569D01*
X141193916Y-136965572D01*
X141188016Y-136972381D01*
X141127300Y-137105330D01*
X141126018Y-137114245D01*
X141126018Y-137114246D01*
X141107139Y-137245552D01*
X141107139Y-137245554D01*
X141106500Y-137250000D01*
X140032919Y-137250000D01*
X140032839Y-137247750D01*
X140028260Y-137183731D01*
X140025874Y-137170509D01*
X139989181Y-137045542D01*
X139981767Y-137029308D01*
X139912574Y-136921640D01*
X139900888Y-136908153D01*
X139804160Y-136824338D01*
X139789152Y-136814693D01*
X139672725Y-136761523D01*
X139655612Y-136756498D01*
X139524446Y-136737639D01*
X139515505Y-136737000D01*
X139292115Y-136737000D01*
X139276876Y-136741475D01*
X139275671Y-136742865D01*
X139274000Y-136750548D01*
X138764659Y-136750548D01*
X138761525Y-136739876D01*
X138760135Y-136738671D01*
X138752452Y-136737000D01*
X138522257Y-136737000D01*
X138517750Y-136737161D01*
X138453731Y-136741740D01*
X138440509Y-136744126D01*
X138315542Y-136780819D01*
X138299308Y-136788233D01*
X138191640Y-136857426D01*
X138178153Y-136869112D01*
X138094338Y-136965840D01*
X138084693Y-136980848D01*
X138031523Y-137097275D01*
X138026498Y-137114388D01*
X138007639Y-137245554D01*
X138007000Y-137254495D01*
X136508000Y-137254495D01*
X136508000Y-123150000D01*
X139566500Y-123150000D01*
X139566500Y-125650000D01*
X139571727Y-125723079D01*
X139612904Y-125863316D01*
X139617775Y-125870895D01*
X139687051Y-125978691D01*
X139687053Y-125978694D01*
X139691923Y-125986271D01*
X139698733Y-125992172D01*
X139795569Y-126076082D01*
X139795572Y-126076084D01*
X139802381Y-126081984D01*
X139810579Y-126085728D01*
X139851207Y-126104282D01*
X139935330Y-126142700D01*
X139944245Y-126143982D01*
X139944246Y-126143982D01*
X140075552Y-126162861D01*
X140075559Y-126162862D01*
X140080000Y-126163500D01*
X141080000Y-126163500D01*
X141153079Y-126158273D01*
X141239904Y-126132779D01*
X141284670Y-126119635D01*
X141284672Y-126119634D01*
X141293316Y-126117096D01*
X141370610Y-126067422D01*
X141408691Y-126042949D01*
X141408694Y-126042947D01*
X141416271Y-126038077D01*
X141434331Y-126017235D01*
X141506082Y-125934431D01*
X141506084Y-125934428D01*
X141511984Y-125927619D01*
X141572700Y-125794670D01*
X141583972Y-125716269D01*
X141592861Y-125654448D01*
X141592862Y-125654441D01*
X141593500Y-125650000D01*
X141593500Y-124353837D01*
X143737104Y-124353837D01*
X143749645Y-124614917D01*
X143800638Y-124871275D01*
X143888963Y-125117280D01*
X144012679Y-125347528D01*
X144015474Y-125351271D01*
X144015476Y-125351274D01*
X144166278Y-125553222D01*
X144166283Y-125553228D01*
X144169070Y-125556960D01*
X144172379Y-125560240D01*
X144172384Y-125560246D01*
X144329846Y-125716340D01*
X144354698Y-125740976D01*
X144358460Y-125743734D01*
X144358463Y-125743737D01*
X144531608Y-125870692D01*
X144565487Y-125895533D01*
X144569618Y-125897707D01*
X144569619Y-125897707D01*
X144792671Y-126015060D01*
X144792677Y-126015062D01*
X144796806Y-126017235D01*
X144801213Y-126018774D01*
X144801220Y-126018777D01*
X145039157Y-126101868D01*
X145043573Y-126103410D01*
X145048166Y-126104282D01*
X145295777Y-126151293D01*
X145295780Y-126151293D01*
X145300366Y-126152164D01*
X145430955Y-126157295D01*
X145556877Y-126162243D01*
X145556883Y-126162243D01*
X145561545Y-126162426D01*
X145663199Y-126151293D01*
X145816719Y-126134480D01*
X145816724Y-126134479D01*
X145821372Y-126133970D01*
X146074139Y-126067422D01*
X146213985Y-126007340D01*
X146309991Y-125966093D01*
X146309994Y-125966091D01*
X146314294Y-125964244D01*
X146465471Y-125870692D01*
X146532586Y-125829160D01*
X146532590Y-125829157D01*
X146536559Y-125826701D01*
X146637822Y-125740976D01*
X146732487Y-125660836D01*
X146732488Y-125660835D01*
X146736053Y-125657817D01*
X146827781Y-125553222D01*
X146905312Y-125464816D01*
X146905316Y-125464811D01*
X146908394Y-125461301D01*
X146910924Y-125457368D01*
X147047266Y-125245400D01*
X147047269Y-125245395D01*
X147049794Y-125241469D01*
X147157148Y-125003153D01*
X147228097Y-124751585D01*
X147238788Y-124667548D01*
X147867000Y-124667548D01*
X147867000Y-125647743D01*
X147867161Y-125652250D01*
X147871740Y-125716269D01*
X147874126Y-125729491D01*
X147910819Y-125854458D01*
X147918233Y-125870692D01*
X147987426Y-125978360D01*
X147999112Y-125991847D01*
X148095840Y-126075662D01*
X148110848Y-126085307D01*
X148227275Y-126138477D01*
X148244388Y-126143502D01*
X148375554Y-126162361D01*
X148384495Y-126163000D01*
X148607885Y-126163000D01*
X148623124Y-126158525D01*
X148624329Y-126157135D01*
X148626000Y-126149452D01*
X148626000Y-124672115D01*
X148621525Y-124656876D01*
X148620135Y-124655671D01*
X148612452Y-124654000D01*
X147885115Y-124654000D01*
X147869876Y-124658475D01*
X147868671Y-124659865D01*
X147867000Y-124667548D01*
X147238788Y-124667548D01*
X147261083Y-124492294D01*
X147263500Y-124400000D01*
X147244129Y-124139338D01*
X147186443Y-123884402D01*
X147171108Y-123844968D01*
X147093402Y-123645147D01*
X147093401Y-123645145D01*
X147091709Y-123640794D01*
X147089391Y-123636738D01*
X146964327Y-123417920D01*
X146964325Y-123417918D01*
X146962008Y-123413863D01*
X146800189Y-123208597D01*
X146742677Y-123154495D01*
X147867000Y-123154495D01*
X147867000Y-124127885D01*
X147871475Y-124143124D01*
X147872865Y-124144329D01*
X147880548Y-124146000D01*
X148607885Y-124146000D01*
X148623124Y-124141525D01*
X148624329Y-124140135D01*
X148626000Y-124132452D01*
X148626000Y-122655115D01*
X148621525Y-122639876D01*
X148620135Y-122638671D01*
X148612452Y-122637000D01*
X148382257Y-122637000D01*
X148377750Y-122637161D01*
X148313731Y-122641740D01*
X148300509Y-122644126D01*
X148175542Y-122680819D01*
X148159308Y-122688233D01*
X148051640Y-122757426D01*
X148038153Y-122769112D01*
X147954338Y-122865840D01*
X147944693Y-122880848D01*
X147891523Y-122997275D01*
X147886498Y-123014388D01*
X147867639Y-123145554D01*
X147867000Y-123154495D01*
X146742677Y-123154495D01*
X146609807Y-123029503D01*
X146395044Y-122880517D01*
X146169138Y-122769112D01*
X146164805Y-122766975D01*
X146164801Y-122766974D01*
X146160619Y-122764911D01*
X145911681Y-122685226D01*
X145907074Y-122684476D01*
X145907071Y-122684475D01*
X145658310Y-122643962D01*
X145658311Y-122643962D01*
X145653699Y-122643211D01*
X145521111Y-122641475D01*
X145397018Y-122639850D01*
X145397015Y-122639850D01*
X145392341Y-122639789D01*
X145279730Y-122655115D01*
X145137982Y-122674406D01*
X145137978Y-122674407D01*
X145133348Y-122675037D01*
X144882409Y-122748179D01*
X144878156Y-122750140D01*
X144878155Y-122750140D01*
X144852596Y-122761923D01*
X144645038Y-122857608D01*
X144613243Y-122878454D01*
X144430362Y-122998355D01*
X144430357Y-122998359D01*
X144426449Y-123000921D01*
X144422957Y-123004038D01*
X144256892Y-123152257D01*
X144231444Y-123174970D01*
X144064307Y-123375930D01*
X143928710Y-123599388D01*
X143926901Y-123603702D01*
X143926900Y-123603704D01*
X143909522Y-123645147D01*
X143827631Y-123840433D01*
X143763292Y-124093771D01*
X143737104Y-124353837D01*
X141593500Y-124353837D01*
X141593500Y-123150000D01*
X141588273Y-123076921D01*
X141547096Y-122936684D01*
X141511039Y-122880579D01*
X141472949Y-122821309D01*
X141472947Y-122821306D01*
X141468077Y-122813729D01*
X141416587Y-122769112D01*
X141364431Y-122723918D01*
X141364428Y-122723916D01*
X141357619Y-122718016D01*
X141291401Y-122687775D01*
X141232864Y-122661042D01*
X141232863Y-122661042D01*
X141224670Y-122657300D01*
X141215755Y-122656018D01*
X141215754Y-122656018D01*
X141084448Y-122637139D01*
X141084441Y-122637138D01*
X141080000Y-122636500D01*
X140080000Y-122636500D01*
X140006921Y-122641727D01*
X139953884Y-122657300D01*
X139875330Y-122680365D01*
X139875328Y-122680366D01*
X139866684Y-122682904D01*
X139859105Y-122687775D01*
X139751309Y-122757051D01*
X139751306Y-122757053D01*
X139743729Y-122761923D01*
X139737828Y-122768733D01*
X139653918Y-122865569D01*
X139653916Y-122865572D01*
X139648016Y-122872381D01*
X139587300Y-123005330D01*
X139586018Y-123014245D01*
X139586018Y-123014246D01*
X139567139Y-123145552D01*
X139567139Y-123145554D01*
X139566500Y-123150000D01*
X136508000Y-123150000D01*
X136508000Y-120467475D01*
X136528002Y-120399354D01*
X136581658Y-120352861D01*
X136651932Y-120342757D01*
X136716512Y-120372251D01*
X136739998Y-120399354D01*
X136807051Y-120503691D01*
X136807053Y-120503694D01*
X136811923Y-120511271D01*
X136818733Y-120517172D01*
X136915569Y-120601082D01*
X136915572Y-120601084D01*
X136922381Y-120606984D01*
X136930579Y-120610728D01*
X136946941Y-120618200D01*
X137055330Y-120667700D01*
X137064245Y-120668982D01*
X137064246Y-120668982D01*
X137195552Y-120687861D01*
X137195559Y-120687862D01*
X137200000Y-120688500D01*
X138750000Y-120688500D01*
X138823079Y-120683273D01*
X138901165Y-120660345D01*
X138954670Y-120644635D01*
X138954672Y-120644634D01*
X138963316Y-120642096D01*
X139027135Y-120601082D01*
X139078691Y-120567949D01*
X139078694Y-120567947D01*
X139086271Y-120563077D01*
X139126048Y-120517172D01*
X139176082Y-120459431D01*
X139176084Y-120459428D01*
X139181984Y-120452619D01*
X139227542Y-120352861D01*
X139238958Y-120327864D01*
X139238958Y-120327863D01*
X139242700Y-120319670D01*
X139245907Y-120297364D01*
X139262861Y-120179448D01*
X139262862Y-120179441D01*
X139263500Y-120175000D01*
X139263500Y-120084500D01*
X139283502Y-120016379D01*
X139337158Y-119969886D01*
X139389500Y-119958500D01*
X140257420Y-119958500D01*
X140331479Y-119982562D01*
X140343250Y-119991114D01*
X140349277Y-119993797D01*
X140349278Y-119993798D01*
X140349281Y-119993799D01*
X140517713Y-120068790D01*
X140591622Y-120084500D01*
X140698056Y-120107124D01*
X140698061Y-120107124D01*
X140704513Y-120108496D01*
X140895487Y-120108496D01*
X140901939Y-120107124D01*
X140901944Y-120107124D01*
X141008378Y-120084500D01*
X141082287Y-120068790D01*
X141200004Y-120016379D01*
X141250720Y-119993799D01*
X141250722Y-119993798D01*
X141256750Y-119991114D01*
X141333458Y-119935383D01*
X141405907Y-119882746D01*
X141405909Y-119882744D01*
X141411251Y-119878863D01*
X141539037Y-119736942D01*
X141634524Y-119571554D01*
X141693538Y-119389927D01*
X141706241Y-119269070D01*
X141712810Y-119206565D01*
X141713500Y-119200000D01*
X141693538Y-119010073D01*
X141634524Y-118828446D01*
X141539037Y-118663058D01*
X141515620Y-118637050D01*
X141415673Y-118526048D01*
X141415672Y-118526047D01*
X141411251Y-118521137D01*
X141405909Y-118517256D01*
X141405907Y-118517254D01*
X141262092Y-118412767D01*
X141262091Y-118412766D01*
X141256750Y-118408886D01*
X141250722Y-118406202D01*
X141250720Y-118406201D01*
X141088318Y-118333895D01*
X141088317Y-118333895D01*
X141082287Y-118331210D01*
X140988887Y-118311357D01*
X140901944Y-118292876D01*
X140901939Y-118292876D01*
X140895487Y-118291504D01*
X140704513Y-118291504D01*
X140698061Y-118292876D01*
X140698056Y-118292876D01*
X140611113Y-118311357D01*
X140517713Y-118331210D01*
X140511683Y-118333895D01*
X140511682Y-118333895D01*
X140349280Y-118406201D01*
X140349278Y-118406202D01*
X140343250Y-118408886D01*
X140337909Y-118412766D01*
X140337908Y-118412767D01*
X140194093Y-118517254D01*
X140194091Y-118517256D01*
X140188749Y-118521137D01*
X140117910Y-118599812D01*
X140057467Y-118637050D01*
X140024276Y-118641500D01*
X139378898Y-118641500D01*
X139310777Y-118621498D01*
X139264284Y-118567842D01*
X139258002Y-118550998D01*
X139219635Y-118420330D01*
X139219634Y-118420328D01*
X139217096Y-118411684D01*
X139171393Y-118340569D01*
X139142949Y-118296309D01*
X139142947Y-118296306D01*
X139138077Y-118288729D01*
X139107947Y-118262621D01*
X139034431Y-118198918D01*
X139034428Y-118198916D01*
X139027619Y-118193016D01*
X139019421Y-118189272D01*
X138902864Y-118136042D01*
X138902863Y-118136042D01*
X138894670Y-118132300D01*
X138885755Y-118131018D01*
X138885754Y-118131018D01*
X138754448Y-118112139D01*
X138754441Y-118112138D01*
X138750000Y-118111500D01*
X137200000Y-118111500D01*
X137126921Y-118116727D01*
X137073884Y-118132300D01*
X136995330Y-118155365D01*
X136995328Y-118155366D01*
X136986684Y-118157904D01*
X136979105Y-118162775D01*
X136871309Y-118232051D01*
X136871306Y-118232053D01*
X136863729Y-118236923D01*
X136857828Y-118243733D01*
X136773918Y-118340569D01*
X136773916Y-118340572D01*
X136768016Y-118347381D01*
X136764272Y-118355578D01*
X136764270Y-118355582D01*
X136748613Y-118389866D01*
X136702120Y-118443521D01*
X136633999Y-118463523D01*
X136565879Y-118443521D01*
X136519386Y-118389865D01*
X136508000Y-118337523D01*
X136508000Y-116900000D01*
X141686500Y-116900000D01*
X141706075Y-117123746D01*
X141764206Y-117340693D01*
X141766529Y-117345674D01*
X141766529Y-117345675D01*
X141856800Y-117539263D01*
X141856803Y-117539268D01*
X141859126Y-117544250D01*
X141987952Y-117728232D01*
X142146768Y-117887048D01*
X142151276Y-117890205D01*
X142151279Y-117890207D01*
X142227863Y-117943831D01*
X142330750Y-118015874D01*
X142335732Y-118018197D01*
X142335737Y-118018200D01*
X142529325Y-118108471D01*
X142534307Y-118110794D01*
X142539615Y-118112216D01*
X142539617Y-118112217D01*
X142554650Y-118116245D01*
X142751254Y-118168925D01*
X142975000Y-118188500D01*
X143198746Y-118168925D01*
X143395350Y-118116245D01*
X143410383Y-118112217D01*
X143410385Y-118112216D01*
X143415693Y-118110794D01*
X143420675Y-118108471D01*
X143614263Y-118018200D01*
X143614268Y-118018197D01*
X143619250Y-118015874D01*
X143722137Y-117943831D01*
X143798721Y-117890207D01*
X143798724Y-117890205D01*
X143803232Y-117887048D01*
X143962048Y-117728232D01*
X144090874Y-117544250D01*
X144093197Y-117539268D01*
X144093200Y-117539263D01*
X144183471Y-117345675D01*
X144183471Y-117345674D01*
X144185794Y-117340693D01*
X144243925Y-117123746D01*
X144254751Y-117000000D01*
X146736500Y-117000000D01*
X146756075Y-117223746D01*
X146814206Y-117440693D01*
X146816529Y-117445674D01*
X146816529Y-117445675D01*
X146906800Y-117639263D01*
X146906803Y-117639268D01*
X146909126Y-117644250D01*
X147037952Y-117828232D01*
X147196768Y-117987048D01*
X147201276Y-117990205D01*
X147201279Y-117990207D01*
X147277863Y-118043831D01*
X147380750Y-118115874D01*
X147385732Y-118118197D01*
X147385737Y-118118200D01*
X147579325Y-118208471D01*
X147584307Y-118210794D01*
X147589615Y-118212216D01*
X147589617Y-118212217D01*
X147656941Y-118230256D01*
X147801254Y-118268925D01*
X148025000Y-118288500D01*
X148248746Y-118268925D01*
X148393059Y-118230256D01*
X148460383Y-118212217D01*
X148460385Y-118212216D01*
X148465693Y-118210794D01*
X148470675Y-118208471D01*
X148664263Y-118118200D01*
X148664268Y-118118197D01*
X148669250Y-118115874D01*
X148772137Y-118043831D01*
X148848721Y-117990207D01*
X148848724Y-117990205D01*
X148853232Y-117987048D01*
X149012048Y-117828232D01*
X149140874Y-117644250D01*
X149143197Y-117639268D01*
X149143200Y-117639263D01*
X149233471Y-117445675D01*
X149233471Y-117445674D01*
X149235794Y-117440693D01*
X149293925Y-117223746D01*
X149313500Y-117000000D01*
X149293925Y-116776254D01*
X149235794Y-116559307D01*
X149233471Y-116554325D01*
X149143200Y-116360737D01*
X149143197Y-116360732D01*
X149140874Y-116355750D01*
X149012048Y-116171768D01*
X148853232Y-116012952D01*
X148848724Y-116009795D01*
X148848721Y-116009793D01*
X148715983Y-115916849D01*
X148669250Y-115884126D01*
X148664268Y-115881803D01*
X148664263Y-115881800D01*
X148470675Y-115791529D01*
X148470674Y-115791529D01*
X148465693Y-115789206D01*
X148460385Y-115787784D01*
X148460383Y-115787783D01*
X148385432Y-115767700D01*
X148248746Y-115731075D01*
X148025000Y-115711500D01*
X147801254Y-115731075D01*
X147664568Y-115767700D01*
X147589617Y-115787783D01*
X147589615Y-115787784D01*
X147584307Y-115789206D01*
X147579326Y-115791529D01*
X147579325Y-115791529D01*
X147385737Y-115881800D01*
X147385732Y-115881803D01*
X147380750Y-115884126D01*
X147334017Y-115916849D01*
X147201279Y-116009793D01*
X147201276Y-116009795D01*
X147196768Y-116012952D01*
X147037952Y-116171768D01*
X146909126Y-116355750D01*
X146906803Y-116360732D01*
X146906800Y-116360737D01*
X146816529Y-116554325D01*
X146814206Y-116559307D01*
X146756075Y-116776254D01*
X146736500Y-117000000D01*
X144254751Y-117000000D01*
X144263500Y-116900000D01*
X144243925Y-116676254D01*
X144185794Y-116459307D01*
X144135403Y-116351242D01*
X144093200Y-116260737D01*
X144093197Y-116260732D01*
X144090874Y-116255750D01*
X143962048Y-116071768D01*
X143803232Y-115912952D01*
X143798724Y-115909795D01*
X143798721Y-115909793D01*
X143667671Y-115818031D01*
X143619250Y-115784126D01*
X143614268Y-115781803D01*
X143614263Y-115781800D01*
X143420675Y-115691529D01*
X143420674Y-115691529D01*
X143415693Y-115689206D01*
X143410385Y-115687784D01*
X143410383Y-115687783D01*
X143334689Y-115667501D01*
X143198746Y-115631075D01*
X142975000Y-115611500D01*
X142751254Y-115631075D01*
X142615311Y-115667501D01*
X142539617Y-115687783D01*
X142539615Y-115687784D01*
X142534307Y-115689206D01*
X142529326Y-115691529D01*
X142529325Y-115691529D01*
X142335737Y-115781800D01*
X142335732Y-115781803D01*
X142330750Y-115784126D01*
X142282329Y-115818031D01*
X142151279Y-115909793D01*
X142151276Y-115909795D01*
X142146768Y-115912952D01*
X141987952Y-116071768D01*
X141859126Y-116255750D01*
X141856803Y-116260732D01*
X141856800Y-116260737D01*
X141814597Y-116351242D01*
X141764206Y-116459307D01*
X141706075Y-116676254D01*
X141686500Y-116900000D01*
X136508000Y-116900000D01*
X136508000Y-114841585D01*
X136528002Y-114773464D01*
X136581658Y-114726971D01*
X136651932Y-114716867D01*
X136716512Y-114746361D01*
X136755707Y-114808974D01*
X136764206Y-114840693D01*
X136766529Y-114845674D01*
X136766529Y-114845675D01*
X136856800Y-115039263D01*
X136856803Y-115039268D01*
X136859126Y-115044250D01*
X136987952Y-115228232D01*
X137146768Y-115387048D01*
X137151276Y-115390205D01*
X137151279Y-115390207D01*
X137195546Y-115421203D01*
X137330750Y-115515874D01*
X137335732Y-115518197D01*
X137335737Y-115518200D01*
X137529325Y-115608471D01*
X137534307Y-115610794D01*
X137539615Y-115612216D01*
X137539617Y-115612217D01*
X137606941Y-115630256D01*
X137751254Y-115668925D01*
X137975000Y-115688500D01*
X138198746Y-115668925D01*
X138343059Y-115630256D01*
X138410383Y-115612217D01*
X138410385Y-115612216D01*
X138415693Y-115610794D01*
X138420675Y-115608471D01*
X138614263Y-115518200D01*
X138614268Y-115518197D01*
X138619250Y-115515874D01*
X138754454Y-115421203D01*
X138798721Y-115390207D01*
X138798724Y-115390205D01*
X138803232Y-115387048D01*
X138962048Y-115228232D01*
X139090874Y-115044250D01*
X139093197Y-115039268D01*
X139093200Y-115039263D01*
X139183471Y-114845675D01*
X139183471Y-114845674D01*
X139185794Y-114840693D01*
X139243925Y-114623746D01*
X139263500Y-114400000D01*
X139243925Y-114176254D01*
X139185794Y-113959307D01*
X139183471Y-113954325D01*
X139093200Y-113760737D01*
X139093197Y-113760732D01*
X139090874Y-113755750D01*
X138962048Y-113571768D01*
X138803232Y-113412952D01*
X138798724Y-113409795D01*
X138798721Y-113409793D01*
X138694652Y-113336923D01*
X138619250Y-113284126D01*
X138614268Y-113281803D01*
X138614263Y-113281800D01*
X138420675Y-113191529D01*
X138420674Y-113191529D01*
X138415693Y-113189206D01*
X138410385Y-113187784D01*
X138410383Y-113187783D01*
X138316477Y-113162621D01*
X138198746Y-113131075D01*
X137975000Y-113111500D01*
X137751254Y-113131075D01*
X137745941Y-113132499D01*
X137745939Y-113132499D01*
X137738903Y-113134384D01*
X137703791Y-113143793D01*
X137632818Y-113142105D01*
X137582086Y-113111182D01*
X137070405Y-112599501D01*
X137036379Y-112537189D01*
X137033500Y-112510406D01*
X137033500Y-108153594D01*
X137053502Y-108085473D01*
X137107158Y-108038980D01*
X137177432Y-108028876D01*
X137242012Y-108058370D01*
X137248595Y-108064499D01*
X139529595Y-110345499D01*
X139563621Y-110407811D01*
X139566500Y-110434594D01*
X139566500Y-111750000D01*
X139571727Y-111823079D01*
X139612904Y-111963316D01*
X139617775Y-111970895D01*
X139687051Y-112078691D01*
X139687053Y-112078694D01*
X139691923Y-112086271D01*
X139698733Y-112092172D01*
X139795569Y-112176082D01*
X139795572Y-112176084D01*
X139802381Y-112181984D01*
X139810579Y-112185728D01*
X139851207Y-112204282D01*
X139935330Y-112242700D01*
X139944245Y-112243982D01*
X139944246Y-112243982D01*
X140075552Y-112262861D01*
X140075559Y-112262862D01*
X140080000Y-112263500D01*
X141080000Y-112263500D01*
X141153079Y-112258273D01*
X141239904Y-112232779D01*
X141284670Y-112219635D01*
X141284672Y-112219634D01*
X141293316Y-112217096D01*
X141370610Y-112167422D01*
X141408691Y-112142949D01*
X141408694Y-112142947D01*
X141416271Y-112138077D01*
X141434331Y-112117235D01*
X141506082Y-112034431D01*
X141506084Y-112034428D01*
X141511984Y-112027619D01*
X141572700Y-111894670D01*
X141583972Y-111816269D01*
X141592861Y-111754448D01*
X141592862Y-111754441D01*
X141593500Y-111750000D01*
X141593500Y-111259500D01*
X141613502Y-111191379D01*
X141667158Y-111144886D01*
X141719500Y-111133500D01*
X142421616Y-111133500D01*
X142432520Y-111134014D01*
X142439911Y-111135666D01*
X142447837Y-111135417D01*
X142447838Y-111135417D01*
X142506866Y-111133562D01*
X142510823Y-111133500D01*
X142539578Y-111133500D01*
X142543845Y-111132961D01*
X142555687Y-111132028D01*
X142587335Y-111131033D01*
X142591960Y-111130888D01*
X142599883Y-111130639D01*
X142619334Y-111124988D01*
X142638695Y-111120978D01*
X142641420Y-111120634D01*
X142650930Y-111119433D01*
X142650933Y-111119432D01*
X142658788Y-111118440D01*
X142666153Y-111115524D01*
X142666157Y-111115523D01*
X142699901Y-111102163D01*
X142711130Y-111098318D01*
X142753578Y-111085986D01*
X142760406Y-111081948D01*
X142771011Y-111075677D01*
X142788762Y-111066981D01*
X142800226Y-111062442D01*
X142800229Y-111062440D01*
X142807600Y-111059522D01*
X142843368Y-111033535D01*
X142853291Y-111027016D01*
X142891341Y-111004514D01*
X142891759Y-111004145D01*
X142905842Y-110990062D01*
X142920867Y-110977228D01*
X142937083Y-110965446D01*
X142965030Y-110931664D01*
X142973019Y-110922885D01*
X143522290Y-110373614D01*
X143584602Y-110339588D01*
X143655417Y-110344653D01*
X143712253Y-110387200D01*
X143737240Y-110456663D01*
X143749645Y-110714917D01*
X143800638Y-110971275D01*
X143888963Y-111217280D01*
X144012679Y-111447528D01*
X144015474Y-111451271D01*
X144015476Y-111451274D01*
X144166278Y-111653222D01*
X144166283Y-111653228D01*
X144169070Y-111656960D01*
X144172379Y-111660240D01*
X144172384Y-111660246D01*
X144329846Y-111816340D01*
X144354698Y-111840976D01*
X144358460Y-111843734D01*
X144358463Y-111843737D01*
X144531608Y-111970692D01*
X144565487Y-111995533D01*
X144569618Y-111997707D01*
X144569619Y-111997707D01*
X144792671Y-112115060D01*
X144792677Y-112115062D01*
X144796806Y-112117235D01*
X144801213Y-112118774D01*
X144801220Y-112118777D01*
X145039157Y-112201868D01*
X145043573Y-112203410D01*
X145048166Y-112204282D01*
X145295777Y-112251293D01*
X145295780Y-112251293D01*
X145300366Y-112252164D01*
X145430955Y-112257295D01*
X145556877Y-112262243D01*
X145556883Y-112262243D01*
X145561545Y-112262426D01*
X145663199Y-112251293D01*
X145816719Y-112234480D01*
X145816724Y-112234479D01*
X145821372Y-112233970D01*
X146074139Y-112167422D01*
X146196016Y-112115060D01*
X146309991Y-112066093D01*
X146309994Y-112066091D01*
X146314294Y-112064244D01*
X146465471Y-111970692D01*
X146532586Y-111929160D01*
X146532590Y-111929157D01*
X146536559Y-111926701D01*
X146637822Y-111840976D01*
X146732487Y-111760836D01*
X146732488Y-111760835D01*
X146736053Y-111757817D01*
X146827781Y-111653222D01*
X146905312Y-111564816D01*
X146905316Y-111564811D01*
X146908394Y-111561301D01*
X146910924Y-111557368D01*
X147047266Y-111345400D01*
X147047269Y-111345395D01*
X147049794Y-111341469D01*
X147157148Y-111103153D01*
X147228097Y-110851585D01*
X147238788Y-110767548D01*
X147867000Y-110767548D01*
X147867000Y-111747743D01*
X147867161Y-111752250D01*
X147871740Y-111816269D01*
X147874126Y-111829491D01*
X147910819Y-111954458D01*
X147918233Y-111970692D01*
X147987426Y-112078360D01*
X147999112Y-112091847D01*
X148095840Y-112175662D01*
X148110848Y-112185307D01*
X148227275Y-112238477D01*
X148244388Y-112243502D01*
X148375554Y-112262361D01*
X148384495Y-112263000D01*
X148607885Y-112263000D01*
X148623124Y-112258525D01*
X148624329Y-112257135D01*
X148626000Y-112249452D01*
X148626000Y-110772115D01*
X148621525Y-110756876D01*
X148620135Y-110755671D01*
X148612452Y-110754000D01*
X147885115Y-110754000D01*
X147869876Y-110758475D01*
X147868671Y-110759865D01*
X147867000Y-110767548D01*
X147238788Y-110767548D01*
X147261083Y-110592294D01*
X147263500Y-110500000D01*
X147252018Y-110345499D01*
X147244475Y-110243990D01*
X147244474Y-110243986D01*
X147244129Y-110239338D01*
X147186443Y-109984402D01*
X147184750Y-109980048D01*
X147093402Y-109745147D01*
X147093401Y-109745145D01*
X147091709Y-109740794D01*
X146962008Y-109513863D01*
X146800189Y-109308597D01*
X146742677Y-109254495D01*
X147867000Y-109254495D01*
X147867000Y-110227885D01*
X147871475Y-110243124D01*
X147872865Y-110244329D01*
X147880548Y-110246000D01*
X148607885Y-110246000D01*
X148623124Y-110241525D01*
X148624329Y-110240135D01*
X148626000Y-110232452D01*
X148626000Y-108755115D01*
X148621525Y-108739876D01*
X148620135Y-108738671D01*
X148612452Y-108737000D01*
X148382257Y-108737000D01*
X148377750Y-108737161D01*
X148313731Y-108741740D01*
X148300509Y-108744126D01*
X148175542Y-108780819D01*
X148159308Y-108788233D01*
X148051640Y-108857426D01*
X148038153Y-108869112D01*
X147954338Y-108965840D01*
X147944693Y-108980848D01*
X147891523Y-109097275D01*
X147886498Y-109114388D01*
X147867639Y-109245554D01*
X147867000Y-109254495D01*
X146742677Y-109254495D01*
X146609807Y-109129503D01*
X146395044Y-108980517D01*
X146169138Y-108869112D01*
X146164805Y-108866975D01*
X146164801Y-108866974D01*
X146160619Y-108864911D01*
X145911681Y-108785226D01*
X145907074Y-108784476D01*
X145907071Y-108784475D01*
X145658310Y-108743962D01*
X145658311Y-108743962D01*
X145653699Y-108743211D01*
X145457787Y-108740646D01*
X145389934Y-108719754D01*
X145344148Y-108665494D01*
X145334965Y-108595094D01*
X145365301Y-108530905D01*
X145370342Y-108525562D01*
X146267544Y-107628360D01*
X146275632Y-107621000D01*
X146282026Y-107616942D01*
X146327901Y-107568090D01*
X146330655Y-107565249D01*
X146350969Y-107544935D01*
X146353614Y-107541524D01*
X146361320Y-107532502D01*
X146386164Y-107506046D01*
X146391588Y-107500270D01*
X146395407Y-107493324D01*
X146401349Y-107482516D01*
X146412203Y-107465992D01*
X146419754Y-107456258D01*
X146419755Y-107456256D01*
X146424614Y-107449992D01*
X146442177Y-107409408D01*
X146447384Y-107398779D01*
X146468693Y-107360017D01*
X146473732Y-107340391D01*
X146480133Y-107321697D01*
X146485030Y-107310381D01*
X146488179Y-107303104D01*
X146495095Y-107259438D01*
X146497502Y-107247813D01*
X146507019Y-107210746D01*
X146508496Y-107204994D01*
X146508531Y-107204438D01*
X146508531Y-107184522D01*
X146510082Y-107164811D01*
X146511976Y-107152853D01*
X146513216Y-107145024D01*
X146509090Y-107101375D01*
X146508531Y-107089518D01*
X146508531Y-106351419D01*
X146528533Y-106283298D01*
X146582189Y-106236805D01*
X146652463Y-106226701D01*
X146714847Y-106254334D01*
X146794479Y-106320212D01*
X146801652Y-106323587D01*
X146801653Y-106323588D01*
X146825960Y-106335026D01*
X146944967Y-106391026D01*
X146952750Y-106392511D01*
X146952754Y-106392512D01*
X147083148Y-106417386D01*
X147083151Y-106417386D01*
X147088989Y-106418500D01*
X148839579Y-106418500D01*
X148898693Y-106411032D01*
X148957141Y-106403649D01*
X148957144Y-106403648D01*
X148965006Y-106402655D01*
X148972372Y-106399738D01*
X148972374Y-106399738D01*
X149112275Y-106344347D01*
X149112277Y-106344346D01*
X149119644Y-106341429D01*
X149254197Y-106243671D01*
X149360212Y-106115521D01*
X149363637Y-106108243D01*
X149363772Y-106108057D01*
X149367835Y-106101655D01*
X149368238Y-106101911D01*
X149387322Y-106075644D01*
X149387083Y-106075446D01*
X149415029Y-106041666D01*
X149423018Y-106032888D01*
X149426385Y-106029521D01*
X149488697Y-105995495D01*
X149559512Y-106000560D01*
G37*
G04 #@! TD.AperFunction*
G04 #@! TA.AperFunction,Conductor*
G36*
X153784532Y-107015538D02*
G01*
X153841368Y-107058085D01*
X153866179Y-107124605D01*
X153866500Y-107133594D01*
X153866500Y-112710406D01*
X153846498Y-112778527D01*
X153829595Y-112799501D01*
X153454501Y-113174595D01*
X153392189Y-113208621D01*
X153365406Y-113211500D01*
X152250000Y-113211500D01*
X152176921Y-113216727D01*
X152101062Y-113239001D01*
X152045330Y-113255365D01*
X152045328Y-113255366D01*
X152036684Y-113257904D01*
X152029103Y-113262776D01*
X151982611Y-113292655D01*
X151914490Y-113312658D01*
X151846369Y-113292657D01*
X151799876Y-113239001D01*
X151788489Y-113186658D01*
X151788489Y-110767548D01*
X152234000Y-110767548D01*
X152234000Y-112244885D01*
X152238475Y-112260124D01*
X152239865Y-112261329D01*
X152247548Y-112263000D01*
X152477743Y-112263000D01*
X152482250Y-112262839D01*
X152546269Y-112258260D01*
X152559491Y-112255874D01*
X152684458Y-112219181D01*
X152700692Y-112211767D01*
X152808360Y-112142574D01*
X152821847Y-112130888D01*
X152905662Y-112034160D01*
X152915307Y-112019152D01*
X152968477Y-111902725D01*
X152973502Y-111885612D01*
X152992361Y-111754446D01*
X152993000Y-111745503D01*
X152993000Y-110772115D01*
X152988525Y-110756876D01*
X152987135Y-110755671D01*
X152979452Y-110754000D01*
X152252115Y-110754000D01*
X152236876Y-110758475D01*
X152235671Y-110759865D01*
X152234000Y-110767548D01*
X151788489Y-110767548D01*
X151788489Y-110372000D01*
X151808491Y-110303879D01*
X151862147Y-110257386D01*
X151914489Y-110246000D01*
X152974885Y-110246000D01*
X152990124Y-110241525D01*
X152991329Y-110240135D01*
X152993000Y-110232452D01*
X152993000Y-109252257D01*
X152992839Y-109247750D01*
X152988260Y-109183731D01*
X152985874Y-109170509D01*
X152949181Y-109045542D01*
X152941767Y-109029308D01*
X152872574Y-108921640D01*
X152860888Y-108908153D01*
X152764160Y-108824338D01*
X152749152Y-108814693D01*
X152632725Y-108761523D01*
X152615612Y-108756498D01*
X152484446Y-108737639D01*
X152475505Y-108737000D01*
X152263094Y-108737000D01*
X152194973Y-108716998D01*
X152148480Y-108663342D01*
X152138376Y-108593068D01*
X152167870Y-108528488D01*
X152173999Y-108521905D01*
X153651405Y-107044499D01*
X153713717Y-107010473D01*
X153784532Y-107015538D01*
G37*
G04 #@! TD.AperFunction*
G04 #@! TA.AperFunction,Conductor*
G36*
X138567624Y-104988528D02*
G01*
X139581609Y-106002513D01*
X139588969Y-106010601D01*
X139593027Y-106016995D01*
X139598804Y-106022420D01*
X139641878Y-106062869D01*
X139644720Y-106065624D01*
X139665034Y-106085938D01*
X139668445Y-106088583D01*
X139677465Y-106096287D01*
X139709699Y-106126557D01*
X139716643Y-106130374D01*
X139716645Y-106130376D01*
X139727453Y-106136318D01*
X139743977Y-106147172D01*
X139759977Y-106159583D01*
X139767248Y-106162730D01*
X139767249Y-106162730D01*
X139800551Y-106177141D01*
X139811207Y-106182362D01*
X139849952Y-106203662D01*
X139857635Y-106205634D01*
X139857636Y-106205635D01*
X139869568Y-106208699D01*
X139888272Y-106215103D01*
X139899585Y-106219999D01*
X139899592Y-106220001D01*
X139906864Y-106223148D01*
X139914688Y-106224387D01*
X139914691Y-106224388D01*
X139950535Y-106230065D01*
X139962156Y-106232472D01*
X139999218Y-106241987D01*
X140004975Y-106243465D01*
X140005531Y-106243500D01*
X140025452Y-106243500D01*
X140045162Y-106245051D01*
X140057114Y-106246944D01*
X140057115Y-106246944D01*
X140064944Y-106248184D01*
X140072836Y-106247438D01*
X140108582Y-106244059D01*
X140120440Y-106243500D01*
X141706387Y-106243500D01*
X141774508Y-106263502D01*
X141786702Y-106272415D01*
X141801141Y-106284360D01*
X141844479Y-106320212D01*
X141851652Y-106323587D01*
X141851653Y-106323588D01*
X141875960Y-106335026D01*
X141994967Y-106391026D01*
X142002750Y-106392511D01*
X142002754Y-106392512D01*
X142133148Y-106417386D01*
X142133151Y-106417386D01*
X142138989Y-106418500D01*
X143889579Y-106418500D01*
X143948693Y-106411032D01*
X144007141Y-106403649D01*
X144007144Y-106403648D01*
X144015006Y-106402655D01*
X144022372Y-106399738D01*
X144022374Y-106399738D01*
X144162275Y-106344347D01*
X144162277Y-106344346D01*
X144169644Y-106341429D01*
X144248193Y-106284360D01*
X144315061Y-106260501D01*
X144384213Y-106276582D01*
X144396315Y-106284360D01*
X144468452Y-106336770D01*
X144543250Y-106391114D01*
X144549278Y-106393798D01*
X144549280Y-106393799D01*
X144711682Y-106466105D01*
X144717713Y-106468790D01*
X144811113Y-106488643D01*
X144898056Y-106507124D01*
X144898061Y-106507124D01*
X144904513Y-106508496D01*
X145095487Y-106508496D01*
X145101937Y-106507125D01*
X145102365Y-106507080D01*
X145172203Y-106519854D01*
X145224048Y-106568358D01*
X145241531Y-106632390D01*
X145241531Y-106810375D01*
X145221529Y-106878496D01*
X145204626Y-106899470D01*
X142274501Y-109829595D01*
X142212189Y-109863621D01*
X142185406Y-109866500D01*
X141719500Y-109866500D01*
X141651379Y-109846498D01*
X141604886Y-109792842D01*
X141593500Y-109740500D01*
X141593500Y-109250000D01*
X141588273Y-109176921D01*
X141547096Y-109036684D01*
X141511212Y-108980848D01*
X141472949Y-108921309D01*
X141472947Y-108921306D01*
X141468077Y-108913729D01*
X141416587Y-108869112D01*
X141364431Y-108823918D01*
X141364428Y-108823916D01*
X141357619Y-108818016D01*
X141292404Y-108788233D01*
X141232864Y-108761042D01*
X141232863Y-108761042D01*
X141224670Y-108757300D01*
X141215755Y-108756018D01*
X141215754Y-108756018D01*
X141084448Y-108737139D01*
X141084441Y-108737138D01*
X141080000Y-108736500D01*
X140080000Y-108736500D01*
X140006921Y-108741727D01*
X139866684Y-108782904D01*
X139866509Y-108782308D01*
X139802905Y-108791455D01*
X139738323Y-108761965D01*
X139731737Y-108755832D01*
X137670405Y-106694501D01*
X137636380Y-106632189D01*
X137633500Y-106605406D01*
X137633500Y-105109500D01*
X137653502Y-105041379D01*
X137707158Y-104994886D01*
X137759500Y-104983500D01*
X138280385Y-104983500D01*
X138284019Y-104983076D01*
X138284024Y-104983076D01*
X138372965Y-104972706D01*
X138410267Y-104968357D01*
X138417150Y-104965859D01*
X138417153Y-104965858D01*
X138435539Y-104959184D01*
X138506397Y-104954743D01*
X138567624Y-104988528D01*
G37*
G04 #@! TD.AperFunction*
G04 #@! TA.AperFunction,Conductor*
G36*
X141571548Y-99913502D02*
G01*
X141618041Y-99967158D01*
X141628145Y-100037432D01*
X141617435Y-100073148D01*
X141572827Y-100167945D01*
X141567964Y-100182913D01*
X141553600Y-100258206D01*
X141554871Y-100271245D01*
X141569793Y-100276000D01*
X143153000Y-100276000D01*
X143221121Y-100296002D01*
X143267614Y-100349658D01*
X143279000Y-100402000D01*
X143279000Y-100658000D01*
X143258998Y-100726121D01*
X143205342Y-100772614D01*
X143153000Y-100784000D01*
X141568253Y-100784000D01*
X141553074Y-100788457D01*
X141524878Y-100848827D01*
X141464826Y-100886699D01*
X141430362Y-100891504D01*
X141404513Y-100891504D01*
X141398061Y-100892876D01*
X141398056Y-100892876D01*
X141311113Y-100911357D01*
X141217713Y-100931210D01*
X141211683Y-100933895D01*
X141211682Y-100933895D01*
X141049280Y-101006201D01*
X141049278Y-101006202D01*
X141043250Y-101008886D01*
X141037909Y-101012766D01*
X141037908Y-101012767D01*
X140894093Y-101117254D01*
X140894091Y-101117256D01*
X140888749Y-101121137D01*
X140782518Y-101239119D01*
X140722075Y-101276357D01*
X140651091Y-101275005D01*
X140602231Y-101246280D01*
X140517683Y-101166187D01*
X140517684Y-101166187D01*
X140512367Y-101161151D01*
X140506038Y-101157475D01*
X140506033Y-101157471D01*
X140424625Y-101110186D01*
X140375766Y-101058675D01*
X140362512Y-100988927D01*
X140389071Y-100923085D01*
X140418825Y-100895860D01*
X140490561Y-100848827D01*
X140544229Y-100813641D01*
X140663849Y-100687367D01*
X140751212Y-100536961D01*
X140754630Y-100525678D01*
X140799756Y-100376681D01*
X140801631Y-100370491D01*
X140808500Y-100293525D01*
X140808500Y-100019500D01*
X140828502Y-99951379D01*
X140882158Y-99904886D01*
X140934500Y-99893500D01*
X141503427Y-99893500D01*
X141571548Y-99913502D01*
G37*
G04 #@! TD.AperFunction*
G04 #@! TA.AperFunction,Conductor*
G36*
X148628527Y-94128502D02*
G01*
X148649501Y-94145405D01*
X150417095Y-95912999D01*
X150451121Y-95975311D01*
X150454000Y-96002094D01*
X150454000Y-96353900D01*
X150433998Y-96422021D01*
X150397087Y-96459271D01*
X150355771Y-96486359D01*
X150236151Y-96612633D01*
X150148788Y-96763039D01*
X150098369Y-96929509D01*
X150097794Y-96935948D01*
X150097794Y-96935950D01*
X150093275Y-96986590D01*
X150091500Y-97006475D01*
X150091500Y-97580385D01*
X150091924Y-97584019D01*
X150091924Y-97584024D01*
X150103447Y-97682859D01*
X150106643Y-97710267D01*
X150109141Y-97717149D01*
X150128738Y-97771137D01*
X150165990Y-97873767D01*
X150261359Y-98019229D01*
X150387633Y-98138849D01*
X150393964Y-98142526D01*
X150399824Y-98146910D01*
X150398543Y-98148623D01*
X150440141Y-98192475D01*
X150454000Y-98249924D01*
X150454000Y-98353900D01*
X150433998Y-98422021D01*
X150397087Y-98459271D01*
X150355771Y-98486359D01*
X150236151Y-98612633D01*
X150229740Y-98623671D01*
X150183985Y-98702443D01*
X150132474Y-98751301D01*
X150062725Y-98764555D01*
X149996884Y-98737995D01*
X149985936Y-98728252D01*
X149495405Y-98237721D01*
X149461379Y-98175409D01*
X149458500Y-98148626D01*
X149458500Y-97800421D01*
X149451032Y-97741307D01*
X149443649Y-97682859D01*
X149443648Y-97682856D01*
X149442655Y-97674994D01*
X149439738Y-97667626D01*
X149384347Y-97527725D01*
X149384346Y-97527723D01*
X149381429Y-97520356D01*
X149354743Y-97483625D01*
X149288331Y-97392217D01*
X149283671Y-97385803D01*
X149155521Y-97279788D01*
X149005033Y-97208974D01*
X148997250Y-97207489D01*
X148997246Y-97207488D01*
X148866852Y-97182614D01*
X148866849Y-97182614D01*
X148861011Y-97181500D01*
X147110421Y-97181500D01*
X147051307Y-97188968D01*
X146992859Y-97196351D01*
X146992856Y-97196352D01*
X146984994Y-97197345D01*
X146977628Y-97200262D01*
X146977626Y-97200262D01*
X146837725Y-97255653D01*
X146837723Y-97255654D01*
X146830356Y-97258571D01*
X146823945Y-97263229D01*
X146823943Y-97263230D01*
X146708541Y-97347074D01*
X146641673Y-97370933D01*
X146572521Y-97354852D01*
X146523041Y-97303938D01*
X146508480Y-97245138D01*
X146508480Y-94234500D01*
X146528482Y-94166379D01*
X146582138Y-94119886D01*
X146634480Y-94108500D01*
X148560406Y-94108500D01*
X148628527Y-94128502D01*
G37*
G04 #@! TD.AperFunction*
G04 #@! TA.AperFunction,Conductor*
G36*
X153016027Y-94903502D02*
G01*
X153037001Y-94920405D01*
X153329595Y-95212999D01*
X153363621Y-95275311D01*
X153366500Y-95302094D01*
X153366500Y-96192461D01*
X153346498Y-96260582D01*
X153292842Y-96307075D01*
X153229294Y-96317962D01*
X153221305Y-96317249D01*
X153215723Y-96317000D01*
X153184615Y-96317000D01*
X153169376Y-96321475D01*
X153168171Y-96322865D01*
X153166500Y-96330548D01*
X153166500Y-97415504D01*
X153146498Y-97483625D01*
X153092842Y-97530118D01*
X153040500Y-97541504D01*
X152854513Y-97541504D01*
X152848055Y-97542877D01*
X152848052Y-97542877D01*
X152810699Y-97550817D01*
X152739908Y-97545416D01*
X152683275Y-97502600D01*
X152658780Y-97435963D01*
X152658500Y-97427571D01*
X152658500Y-96335115D01*
X152654025Y-96319876D01*
X152652635Y-96318671D01*
X152644952Y-96317000D01*
X152623277Y-96317000D01*
X152615973Y-96317425D01*
X152497120Y-96331281D01*
X152482968Y-96334626D01*
X152333336Y-96388940D01*
X152320337Y-96395450D01*
X152187212Y-96482731D01*
X152176060Y-96492055D01*
X152094026Y-96578652D01*
X152032657Y-96614350D01*
X151961730Y-96611203D01*
X151915142Y-96579186D01*
X151913641Y-96580771D01*
X151792681Y-96466185D01*
X151787367Y-96461151D01*
X151781036Y-96457474D01*
X151775176Y-96453090D01*
X151776457Y-96451377D01*
X151734859Y-96407525D01*
X151721000Y-96350076D01*
X151721000Y-95939594D01*
X151741002Y-95871473D01*
X151757905Y-95850499D01*
X152392513Y-95215891D01*
X152400601Y-95208531D01*
X152406995Y-95204473D01*
X152452870Y-95155621D01*
X152455624Y-95152780D01*
X152475938Y-95132466D01*
X152478583Y-95129055D01*
X152486289Y-95120033D01*
X152511133Y-95093577D01*
X152516557Y-95087801D01*
X152520376Y-95080855D01*
X152526318Y-95070047D01*
X152537172Y-95053523D01*
X152544725Y-95043786D01*
X152544725Y-95043785D01*
X152549583Y-95037523D01*
X152567142Y-94996947D01*
X152572364Y-94986290D01*
X152592975Y-94948799D01*
X152643320Y-94898740D01*
X152703389Y-94883500D01*
X152947906Y-94883500D01*
X153016027Y-94903502D01*
G37*
G04 #@! TD.AperFunction*
G04 #@! TA.AperFunction,Conductor*
G36*
X138938591Y-92489181D02*
G01*
X138984765Y-92520912D01*
X138986359Y-92519229D01*
X139112633Y-92638849D01*
X139118964Y-92642526D01*
X139124824Y-92646910D01*
X139123543Y-92648623D01*
X139165141Y-92692475D01*
X139179000Y-92749924D01*
X139179000Y-93034116D01*
X139178486Y-93045020D01*
X139176834Y-93052411D01*
X139177083Y-93060337D01*
X139177083Y-93060338D01*
X139178938Y-93119366D01*
X139179000Y-93123323D01*
X139179000Y-93152078D01*
X139179496Y-93156003D01*
X139179496Y-93156004D01*
X139179539Y-93156343D01*
X139180472Y-93168187D01*
X139181861Y-93212383D01*
X139184073Y-93219995D01*
X139187512Y-93231833D01*
X139191522Y-93251195D01*
X139194060Y-93271288D01*
X139196976Y-93278653D01*
X139196977Y-93278657D01*
X139210337Y-93312401D01*
X139214181Y-93323628D01*
X139226514Y-93366078D01*
X139230552Y-93372906D01*
X139236823Y-93383511D01*
X139245519Y-93401262D01*
X139250058Y-93412726D01*
X139252978Y-93420100D01*
X139257639Y-93426515D01*
X139278965Y-93455867D01*
X139285483Y-93465790D01*
X139307986Y-93503841D01*
X139308355Y-93504259D01*
X139322438Y-93518342D01*
X139335272Y-93533367D01*
X139347054Y-93549583D01*
X139380835Y-93577529D01*
X139389615Y-93585519D01*
X142770501Y-96966405D01*
X142804527Y-97028717D01*
X142799462Y-97099532D01*
X142756915Y-97156368D01*
X142690395Y-97181179D01*
X142681406Y-97181500D01*
X142160421Y-97181500D01*
X142101307Y-97188968D01*
X142042859Y-97196351D01*
X142042856Y-97196352D01*
X142034994Y-97197345D01*
X142027628Y-97200262D01*
X142027626Y-97200262D01*
X141887725Y-97255653D01*
X141887723Y-97255654D01*
X141880356Y-97258571D01*
X141873944Y-97263230D01*
X141866997Y-97267049D01*
X141865893Y-97265041D01*
X141809951Y-97285008D01*
X141740798Y-97268934D01*
X141728685Y-97261150D01*
X141725136Y-97258571D01*
X141656750Y-97208886D01*
X141650722Y-97206202D01*
X141650720Y-97206201D01*
X141488318Y-97133895D01*
X141488317Y-97133895D01*
X141482287Y-97131210D01*
X141388887Y-97111357D01*
X141301944Y-97092876D01*
X141301939Y-97092876D01*
X141295487Y-97091504D01*
X141104513Y-97091504D01*
X141098061Y-97092876D01*
X141098056Y-97092876D01*
X141011113Y-97111357D01*
X140917713Y-97131210D01*
X140911683Y-97133895D01*
X140911682Y-97133895D01*
X140749280Y-97206201D01*
X140749278Y-97206202D01*
X140743250Y-97208886D01*
X140725803Y-97221562D01*
X140658935Y-97245419D01*
X140589783Y-97229337D01*
X140565091Y-97211097D01*
X140561282Y-97207488D01*
X140512367Y-97161151D01*
X140391576Y-97090990D01*
X140368290Y-97077464D01*
X140368289Y-97077463D01*
X140361961Y-97073788D01*
X140354957Y-97071667D01*
X140354953Y-97071665D01*
X140231057Y-97034141D01*
X140195491Y-97023369D01*
X140189052Y-97022794D01*
X140189050Y-97022794D01*
X140121318Y-97016749D01*
X140121312Y-97016749D01*
X140118525Y-97016500D01*
X139519615Y-97016500D01*
X139515981Y-97016924D01*
X139515976Y-97016924D01*
X139414829Y-97028717D01*
X139389733Y-97031643D01*
X139226233Y-97090990D01*
X139080771Y-97186359D01*
X139075739Y-97191671D01*
X138993705Y-97278268D01*
X138932336Y-97313966D01*
X138861409Y-97310819D01*
X138815235Y-97279088D01*
X138813641Y-97280771D01*
X138787126Y-97255653D01*
X138687367Y-97161151D01*
X138566576Y-97090990D01*
X138543290Y-97077464D01*
X138543289Y-97077463D01*
X138536961Y-97073788D01*
X138529957Y-97071667D01*
X138529953Y-97071665D01*
X138406057Y-97034141D01*
X138370491Y-97023369D01*
X138364052Y-97022794D01*
X138364050Y-97022794D01*
X138296318Y-97016749D01*
X138296312Y-97016749D01*
X138293525Y-97016500D01*
X137934480Y-97016500D01*
X137866359Y-96996498D01*
X137819866Y-96942842D01*
X137808480Y-96890500D01*
X137808480Y-92927114D01*
X137828482Y-92858993D01*
X137845385Y-92838019D01*
X137862999Y-92820405D01*
X137925311Y-92786379D01*
X137952094Y-92783500D01*
X138280385Y-92783500D01*
X138284019Y-92783076D01*
X138284024Y-92783076D01*
X138402994Y-92769205D01*
X138410267Y-92768357D01*
X138573767Y-92709010D01*
X138719229Y-92613641D01*
X138806295Y-92521732D01*
X138867664Y-92486034D01*
X138938591Y-92489181D01*
G37*
G04 #@! TD.AperFunction*
G04 #@! TA.AperFunction,Conductor*
G36*
X154234121Y-37528002D02*
G01*
X154280614Y-37581658D01*
X154292000Y-37634000D01*
X154292000Y-63799257D01*
X154271998Y-63867378D01*
X154218342Y-63913871D01*
X154148068Y-63923975D01*
X154083488Y-63894481D01*
X154050846Y-63845203D01*
X154049525Y-63845808D01*
X154046477Y-63839150D01*
X154044222Y-63832190D01*
X154040427Y-63825935D01*
X154037919Y-63820458D01*
X154035205Y-63815039D01*
X154032707Y-63808156D01*
X153992675Y-63747097D01*
X153990338Y-63743393D01*
X153955398Y-63685812D01*
X153955395Y-63685808D01*
X153952486Y-63681014D01*
X153944269Y-63671710D01*
X153942048Y-63669126D01*
X153939765Y-63666396D01*
X153935751Y-63660273D01*
X153883888Y-63611143D01*
X153881446Y-63608765D01*
X152145405Y-61872724D01*
X152111379Y-61810412D01*
X152108500Y-61783629D01*
X152108500Y-60507114D01*
X152093022Y-60374357D01*
X152032687Y-60208136D01*
X151935731Y-60060253D01*
X151807355Y-59938642D01*
X151744440Y-59902098D01*
X151695582Y-59850589D01*
X151682328Y-59780840D01*
X151708887Y-59714998D01*
X151718631Y-59704050D01*
X152377276Y-59045405D01*
X152439588Y-59011379D01*
X152466371Y-59008500D01*
X152717887Y-59008500D01*
X152814863Y-58997194D01*
X152837620Y-58994541D01*
X152837622Y-58994541D01*
X152844892Y-58993693D01*
X152851769Y-58991197D01*
X152851772Y-58991196D01*
X152998791Y-58937830D01*
X153005670Y-58935333D01*
X153148711Y-58841551D01*
X153266340Y-58717379D01*
X153352249Y-58569476D01*
X153401828Y-58405777D01*
X153408500Y-58331022D01*
X153408500Y-57482113D01*
X153393693Y-57355108D01*
X153335333Y-57194330D01*
X153241551Y-57051289D01*
X153117379Y-56933660D01*
X152969476Y-56847751D01*
X152805777Y-56798172D01*
X152799341Y-56797598D01*
X152799338Y-56797597D01*
X152733815Y-56791749D01*
X152733809Y-56791749D01*
X152731022Y-56791500D01*
X152182113Y-56791500D01*
X152093490Y-56801832D01*
X152062380Y-56805459D01*
X152062378Y-56805459D01*
X152055108Y-56806307D01*
X152048231Y-56808803D01*
X152048228Y-56808804D01*
X152014354Y-56821100D01*
X151894330Y-56864667D01*
X151751289Y-56958449D01*
X151633660Y-57082621D01*
X151547751Y-57230524D01*
X151498172Y-57394223D01*
X151491500Y-57468978D01*
X151491500Y-57733629D01*
X151471498Y-57801750D01*
X151454595Y-57822724D01*
X150310322Y-58966997D01*
X150295911Y-58979382D01*
X150279294Y-58991611D01*
X150274551Y-58997194D01*
X150246382Y-59030351D01*
X150239452Y-59037867D01*
X150233335Y-59043984D01*
X150231062Y-59046857D01*
X150231054Y-59046866D01*
X150214854Y-59067343D01*
X150212063Y-59070747D01*
X150169545Y-59120794D01*
X150164803Y-59126376D01*
X150161475Y-59132894D01*
X150158123Y-59137919D01*
X150154946Y-59143064D01*
X150150406Y-59148802D01*
X150147307Y-59155433D01*
X150119511Y-59214905D01*
X150117580Y-59218855D01*
X150087714Y-59277345D01*
X150084385Y-59283865D01*
X150082646Y-59290972D01*
X150080544Y-59296623D01*
X150078631Y-59302373D01*
X150075533Y-59309002D01*
X150074044Y-59316162D01*
X150074040Y-59316173D01*
X150060661Y-59380493D01*
X150059691Y-59384780D01*
X150043690Y-59450172D01*
X150043689Y-59450178D01*
X150042355Y-59455630D01*
X150042007Y-59461234D01*
X150042007Y-59461236D01*
X150041586Y-59468024D01*
X150041329Y-59471421D01*
X150041013Y-59474961D01*
X150039522Y-59482129D01*
X150039720Y-59489446D01*
X150041454Y-59553516D01*
X150041500Y-59556925D01*
X150041500Y-59730596D01*
X150021498Y-59798717D01*
X149967842Y-59845210D01*
X149958492Y-59849034D01*
X149908136Y-59867313D01*
X149760253Y-59964269D01*
X149638642Y-60092645D01*
X149549825Y-60245555D01*
X149498567Y-60414796D01*
X149491500Y-60493978D01*
X149491500Y-62692886D01*
X149506978Y-62825643D01*
X149567313Y-62991864D01*
X149664269Y-63139747D01*
X149792645Y-63261358D01*
X149827255Y-63281461D01*
X149844518Y-63291488D01*
X149893377Y-63342998D01*
X149906631Y-63412747D01*
X149880072Y-63478589D01*
X149850318Y-63505814D01*
X149766694Y-63560641D01*
X149755542Y-63569965D01*
X149644078Y-63687629D01*
X149635365Y-63699276D01*
X149553957Y-63839429D01*
X149548163Y-63852754D01*
X149500932Y-64008700D01*
X149498484Y-64021323D01*
X149492249Y-64091184D01*
X149492000Y-64096779D01*
X149492000Y-64927885D01*
X149496475Y-64943124D01*
X149497865Y-64944329D01*
X149505548Y-64946000D01*
X152089885Y-64946000D01*
X152105124Y-64941525D01*
X152106329Y-64940135D01*
X152108000Y-64932452D01*
X152108000Y-64284871D01*
X152128002Y-64216750D01*
X152181658Y-64170257D01*
X152251932Y-64160153D01*
X152316512Y-64189647D01*
X152323095Y-64195776D01*
X152554615Y-64427296D01*
X152588641Y-64489608D01*
X152591520Y-64516391D01*
X152591520Y-67665500D01*
X152571518Y-67733621D01*
X152517862Y-67780114D01*
X152465520Y-67791500D01*
X152182113Y-67791500D01*
X152093490Y-67801832D01*
X152062380Y-67805459D01*
X152062378Y-67805459D01*
X152055108Y-67806307D01*
X152048231Y-67808803D01*
X152048228Y-67808804D01*
X151946773Y-67845631D01*
X151894330Y-67864667D01*
X151751289Y-67958449D01*
X151633660Y-68082621D01*
X151547751Y-68230524D01*
X151498172Y-68394223D01*
X151497598Y-68400659D01*
X151497597Y-68400662D01*
X151491749Y-68466185D01*
X151491500Y-68468978D01*
X151491500Y-69317887D01*
X151506307Y-69444892D01*
X151564667Y-69605670D01*
X151658449Y-69748711D01*
X151662457Y-69752508D01*
X151690514Y-69816917D01*
X151691500Y-69832653D01*
X151691500Y-70691752D01*
X151671498Y-70759873D01*
X151617842Y-70806366D01*
X151547568Y-70816470D01*
X151528977Y-70812343D01*
X151491300Y-70800932D01*
X151478677Y-70798484D01*
X151408816Y-70792249D01*
X151403221Y-70792000D01*
X151072115Y-70792000D01*
X151056876Y-70796475D01*
X151055671Y-70797865D01*
X151054000Y-70805548D01*
X151054000Y-72728000D01*
X151033998Y-72796121D01*
X150980342Y-72842614D01*
X150928000Y-72854000D01*
X149510115Y-72854000D01*
X149494876Y-72858475D01*
X149493671Y-72859865D01*
X149492000Y-72867548D01*
X149492000Y-73689223D01*
X149492424Y-73696524D01*
X149506617Y-73818255D01*
X149509963Y-73832410D01*
X149565263Y-73984761D01*
X149571773Y-73997760D01*
X149660641Y-74133306D01*
X149669965Y-74144458D01*
X149787629Y-74255922D01*
X149799276Y-74264635D01*
X149844502Y-74290905D01*
X149893360Y-74342416D01*
X149906614Y-74412165D01*
X149880054Y-74478007D01*
X149850301Y-74505231D01*
X149760253Y-74564269D01*
X149638642Y-74692645D01*
X149549825Y-74845555D01*
X149498567Y-75014796D01*
X149491500Y-75093978D01*
X149491500Y-76948629D01*
X149471498Y-77016750D01*
X149454595Y-77037724D01*
X149076163Y-77416156D01*
X149013266Y-77450308D01*
X148950213Y-77463710D01*
X148944183Y-77466395D01*
X148944182Y-77466395D01*
X148781780Y-77538701D01*
X148781778Y-77538702D01*
X148775750Y-77541386D01*
X148770409Y-77545266D01*
X148770408Y-77545267D01*
X148626593Y-77649754D01*
X148626591Y-77649756D01*
X148621249Y-77653637D01*
X148616828Y-77658547D01*
X148616827Y-77658548D01*
X148578582Y-77701024D01*
X148493463Y-77795558D01*
X148397976Y-77960946D01*
X148378419Y-78021137D01*
X148343119Y-78129779D01*
X148312381Y-78179938D01*
X147747724Y-78744595D01*
X147685412Y-78778621D01*
X147658629Y-78781500D01*
X147110421Y-78781500D01*
X147051307Y-78788968D01*
X146992859Y-78796351D01*
X146992856Y-78796352D01*
X146984994Y-78797345D01*
X146977628Y-78800262D01*
X146977626Y-78800262D01*
X146837725Y-78855653D01*
X146837723Y-78855654D01*
X146830356Y-78858571D01*
X146823945Y-78863229D01*
X146823943Y-78863230D01*
X146760581Y-78909265D01*
X146695803Y-78956329D01*
X146589788Y-79084479D01*
X146586413Y-79091652D01*
X146586412Y-79091653D01*
X146573561Y-79118964D01*
X146518974Y-79234967D01*
X146517489Y-79242750D01*
X146517488Y-79242754D01*
X146512282Y-79270047D01*
X146491500Y-79378989D01*
X146491500Y-79779579D01*
X146507345Y-79905006D01*
X146510262Y-79912372D01*
X146510262Y-79912374D01*
X146511709Y-79916027D01*
X146568571Y-80059644D01*
X146573229Y-80066055D01*
X146573230Y-80066057D01*
X146635092Y-80151203D01*
X146658951Y-80218071D01*
X146642870Y-80287223D01*
X146630241Y-80305579D01*
X146604280Y-80336961D01*
X146589788Y-80354479D01*
X146518974Y-80504967D01*
X146517489Y-80512750D01*
X146517488Y-80512754D01*
X146493434Y-80638849D01*
X146491500Y-80648989D01*
X146491500Y-81049579D01*
X146496866Y-81092055D01*
X146499466Y-81112633D01*
X146507345Y-81175006D01*
X146510262Y-81182372D01*
X146510262Y-81182374D01*
X146523195Y-81215037D01*
X146568571Y-81329644D01*
X146573229Y-81336055D01*
X146573230Y-81336057D01*
X146635092Y-81421203D01*
X146658951Y-81488071D01*
X146642870Y-81557223D01*
X146630241Y-81575579D01*
X146606993Y-81603682D01*
X146589788Y-81624479D01*
X146518974Y-81774967D01*
X146517489Y-81782750D01*
X146517488Y-81782754D01*
X146511338Y-81814994D01*
X146491500Y-81918989D01*
X146491500Y-82319579D01*
X146498968Y-82378693D01*
X146506329Y-82436961D01*
X146507345Y-82445006D01*
X146510262Y-82452372D01*
X146510262Y-82452374D01*
X146561204Y-82581036D01*
X146568571Y-82599644D01*
X146573229Y-82606055D01*
X146573230Y-82606057D01*
X146635092Y-82691203D01*
X146658951Y-82758071D01*
X146642870Y-82827223D01*
X146630241Y-82845579D01*
X146606905Y-82873788D01*
X146589788Y-82894479D01*
X146586413Y-82901652D01*
X146586412Y-82901653D01*
X146584529Y-82905654D01*
X146518974Y-83044967D01*
X146517489Y-83052750D01*
X146517488Y-83052754D01*
X146496478Y-83162892D01*
X146491500Y-83188989D01*
X146491500Y-83558626D01*
X146471498Y-83626747D01*
X146454595Y-83647721D01*
X145032447Y-85069869D01*
X145024359Y-85077229D01*
X145017965Y-85081287D01*
X145012540Y-85087064D01*
X144972091Y-85130138D01*
X144969336Y-85132980D01*
X144949022Y-85153294D01*
X144946377Y-85156705D01*
X144938673Y-85165725D01*
X144908403Y-85197959D01*
X144904586Y-85204903D01*
X144904584Y-85204905D01*
X144898642Y-85215713D01*
X144887788Y-85232237D01*
X144875377Y-85248237D01*
X144872230Y-85255508D01*
X144872230Y-85255509D01*
X144857819Y-85288811D01*
X144852598Y-85299467D01*
X144831298Y-85338212D01*
X144829326Y-85345895D01*
X144829325Y-85345896D01*
X144826261Y-85357828D01*
X144819857Y-85376532D01*
X144814961Y-85387845D01*
X144814959Y-85387852D01*
X144811812Y-85395124D01*
X144810573Y-85402948D01*
X144810572Y-85402951D01*
X144804895Y-85438795D01*
X144802488Y-85450416D01*
X144797369Y-85470356D01*
X144791495Y-85493235D01*
X144791460Y-85493791D01*
X144791460Y-85513712D01*
X144789909Y-85533422D01*
X144786776Y-85553204D01*
X144787522Y-85561096D01*
X144790901Y-85596842D01*
X144791460Y-85608700D01*
X144791460Y-91370804D01*
X144771458Y-91438925D01*
X144717802Y-91485418D01*
X144654259Y-91496305D01*
X144608816Y-91492249D01*
X144603221Y-91492000D01*
X143572115Y-91492000D01*
X143556876Y-91496475D01*
X143555671Y-91497865D01*
X143554000Y-91505548D01*
X143554000Y-94089885D01*
X143558475Y-94105124D01*
X143559865Y-94106329D01*
X143567548Y-94108000D01*
X144589223Y-94108000D01*
X144596527Y-94107576D01*
X144650869Y-94101240D01*
X144720848Y-94113219D01*
X144773241Y-94161129D01*
X144791460Y-94226392D01*
X144791460Y-96891366D01*
X144771458Y-96959487D01*
X144717802Y-97005980D01*
X144647528Y-97016084D01*
X144582948Y-96986590D01*
X144576365Y-96980461D01*
X141918999Y-94323095D01*
X141884973Y-94260783D01*
X141890038Y-94189968D01*
X141932585Y-94133132D01*
X141999105Y-94108321D01*
X142008094Y-94108000D01*
X143027885Y-94108000D01*
X143043124Y-94103525D01*
X143044329Y-94102135D01*
X143046000Y-94094452D01*
X143046000Y-93072115D01*
X143041525Y-93056876D01*
X143040135Y-93055671D01*
X143032452Y-93054000D01*
X141310115Y-93054000D01*
X141294876Y-93058475D01*
X141293671Y-93059865D01*
X141292000Y-93067548D01*
X141292000Y-93391906D01*
X141271998Y-93460027D01*
X141218342Y-93506520D01*
X141148068Y-93516624D01*
X141083488Y-93487130D01*
X141076905Y-93481001D01*
X140482905Y-92887001D01*
X140448879Y-92824689D01*
X140446000Y-92797906D01*
X140446000Y-92746100D01*
X140466002Y-92677979D01*
X140502913Y-92640729D01*
X140544229Y-92613641D01*
X140663849Y-92487367D01*
X140751212Y-92336961D01*
X140793669Y-92196779D01*
X141292000Y-92196779D01*
X141292000Y-92527885D01*
X141296475Y-92543124D01*
X141297865Y-92544329D01*
X141305548Y-92546000D01*
X143027885Y-92546000D01*
X143043124Y-92541525D01*
X143044329Y-92540135D01*
X143046000Y-92532452D01*
X143046000Y-91510115D01*
X143041525Y-91494876D01*
X143040135Y-91493671D01*
X143032452Y-91492000D01*
X142010777Y-91492000D01*
X142003476Y-91492424D01*
X141881745Y-91506617D01*
X141867590Y-91509963D01*
X141715239Y-91565263D01*
X141702240Y-91571773D01*
X141566694Y-91660641D01*
X141555542Y-91669965D01*
X141444078Y-91787629D01*
X141435365Y-91799276D01*
X141353957Y-91939429D01*
X141348163Y-91952754D01*
X141300932Y-92108700D01*
X141298484Y-92121323D01*
X141292249Y-92191184D01*
X141292000Y-92196779D01*
X140793669Y-92196779D01*
X140801631Y-92170491D01*
X140808500Y-92093525D01*
X140808500Y-91519615D01*
X140807393Y-91510115D01*
X140794205Y-91397005D01*
X140794205Y-91397004D01*
X140793357Y-91389733D01*
X140793201Y-91389303D01*
X140796843Y-91321225D01*
X140829416Y-91271283D01*
X140830670Y-91270105D01*
X140837083Y-91265446D01*
X140865030Y-91231664D01*
X140873019Y-91222885D01*
X142117493Y-89978411D01*
X142125581Y-89971051D01*
X142131975Y-89966993D01*
X142177850Y-89918141D01*
X142180604Y-89915300D01*
X142200918Y-89894986D01*
X142203563Y-89891575D01*
X142211269Y-89882553D01*
X142236113Y-89856097D01*
X142241537Y-89850321D01*
X142245356Y-89843375D01*
X142251298Y-89832567D01*
X142262152Y-89816043D01*
X142269705Y-89806306D01*
X142269705Y-89806305D01*
X142274563Y-89800043D01*
X142292122Y-89759467D01*
X142297343Y-89748810D01*
X142318642Y-89710068D01*
X142320615Y-89702384D01*
X142323679Y-89690452D01*
X142330083Y-89671748D01*
X142334978Y-89660437D01*
X142334980Y-89660430D01*
X142338128Y-89653156D01*
X142345045Y-89609482D01*
X142347453Y-89597857D01*
X142356967Y-89560802D01*
X142356967Y-89560800D01*
X142358445Y-89555045D01*
X142358480Y-89554489D01*
X142358480Y-89534573D01*
X142360031Y-89514863D01*
X142361925Y-89502904D01*
X142363165Y-89495075D01*
X142359039Y-89451426D01*
X142358480Y-89439569D01*
X142358480Y-88144500D01*
X142378482Y-88076379D01*
X142432138Y-88029886D01*
X142484480Y-88018500D01*
X143889579Y-88018500D01*
X143948693Y-88011032D01*
X144007141Y-88003649D01*
X144007144Y-88003648D01*
X144015006Y-88002655D01*
X144022372Y-87999738D01*
X144022374Y-87999738D01*
X144162275Y-87944347D01*
X144162277Y-87944346D01*
X144169644Y-87941429D01*
X144304197Y-87843671D01*
X144410212Y-87715521D01*
X144481026Y-87565033D01*
X144482511Y-87557250D01*
X144482512Y-87557246D01*
X144507386Y-87426852D01*
X144507386Y-87426849D01*
X144508500Y-87421011D01*
X144508500Y-87020421D01*
X144495455Y-86917157D01*
X144493649Y-86902859D01*
X144493648Y-86902856D01*
X144492655Y-86894994D01*
X144485377Y-86876611D01*
X144434347Y-86747725D01*
X144434346Y-86747723D01*
X144431429Y-86740356D01*
X144394488Y-86689510D01*
X144364908Y-86648797D01*
X144341049Y-86581929D01*
X144357130Y-86512777D01*
X144369759Y-86494421D01*
X144405159Y-86451629D01*
X144410212Y-86445521D01*
X144481026Y-86295033D01*
X144482511Y-86287250D01*
X144482512Y-86287246D01*
X144507386Y-86156852D01*
X144507386Y-86156849D01*
X144508500Y-86151011D01*
X144508500Y-85750421D01*
X144501032Y-85691307D01*
X144493649Y-85632859D01*
X144493648Y-85632856D01*
X144492655Y-85624994D01*
X144489738Y-85617626D01*
X144434347Y-85477725D01*
X144434346Y-85477723D01*
X144431429Y-85470356D01*
X144412762Y-85444662D01*
X144364908Y-85378797D01*
X144341049Y-85311929D01*
X144357130Y-85242777D01*
X144369759Y-85224421D01*
X144405159Y-85181629D01*
X144410212Y-85175521D01*
X144481026Y-85025033D01*
X144482511Y-85017250D01*
X144482512Y-85017246D01*
X144507386Y-84886852D01*
X144507386Y-84886849D01*
X144508500Y-84881011D01*
X144508500Y-84480421D01*
X144496441Y-84384963D01*
X144493649Y-84362859D01*
X144493648Y-84362856D01*
X144492655Y-84354994D01*
X144485515Y-84336961D01*
X144434347Y-84207725D01*
X144434346Y-84207723D01*
X144431429Y-84200356D01*
X144405052Y-84164050D01*
X144364908Y-84108797D01*
X144341049Y-84041929D01*
X144357130Y-83972777D01*
X144369759Y-83954421D01*
X144405159Y-83911629D01*
X144410212Y-83905521D01*
X144481026Y-83755033D01*
X144482511Y-83747250D01*
X144482512Y-83747246D01*
X144507386Y-83616852D01*
X144507386Y-83616849D01*
X144508500Y-83611011D01*
X144508500Y-83210421D01*
X144497997Y-83127277D01*
X144493649Y-83092859D01*
X144493648Y-83092856D01*
X144492655Y-83084994D01*
X144479890Y-83052754D01*
X144434347Y-82937725D01*
X144434346Y-82937723D01*
X144431429Y-82930356D01*
X144425796Y-82922602D01*
X144364908Y-82838797D01*
X144341049Y-82771929D01*
X144357130Y-82702777D01*
X144369759Y-82684421D01*
X144405159Y-82641629D01*
X144410212Y-82635521D01*
X144417879Y-82619229D01*
X144433679Y-82585650D01*
X144481026Y-82485033D01*
X144482511Y-82477250D01*
X144482512Y-82477246D01*
X144507386Y-82346852D01*
X144507386Y-82346849D01*
X144508500Y-82341011D01*
X144508500Y-81940421D01*
X144492655Y-81814994D01*
X144476807Y-81774967D01*
X144434347Y-81667725D01*
X144434346Y-81667723D01*
X144431429Y-81660356D01*
X144418910Y-81643124D01*
X144364908Y-81568797D01*
X144341049Y-81501929D01*
X144357130Y-81432777D01*
X144369759Y-81414421D01*
X144405159Y-81371629D01*
X144410212Y-81365521D01*
X144481026Y-81215033D01*
X144482511Y-81207250D01*
X144482512Y-81207246D01*
X144507386Y-81076852D01*
X144507386Y-81076849D01*
X144508500Y-81071011D01*
X144508500Y-80670421D01*
X144492655Y-80544994D01*
X144473967Y-80497794D01*
X144434347Y-80397725D01*
X144434346Y-80397723D01*
X144431429Y-80390356D01*
X144419377Y-80373767D01*
X144364908Y-80298797D01*
X144341049Y-80231929D01*
X144357130Y-80162777D01*
X144369759Y-80144421D01*
X144405159Y-80101629D01*
X144410212Y-80095521D01*
X144417335Y-80080385D01*
X144430562Y-80052275D01*
X144481026Y-79945033D01*
X144482511Y-79937250D01*
X144482512Y-79937246D01*
X144507386Y-79806852D01*
X144507386Y-79806849D01*
X144508500Y-79801011D01*
X144508500Y-79400421D01*
X144492655Y-79274994D01*
X144468916Y-79215037D01*
X144434347Y-79127725D01*
X144434346Y-79127723D01*
X144431429Y-79120356D01*
X144424500Y-79110818D01*
X144338331Y-78992217D01*
X144333671Y-78985803D01*
X144205521Y-78879788D01*
X144192771Y-78873788D01*
X144160432Y-78858571D01*
X144055033Y-78808974D01*
X144047250Y-78807489D01*
X144047246Y-78807488D01*
X143916852Y-78782614D01*
X143916849Y-78782614D01*
X143911011Y-78781500D01*
X142160421Y-78781500D01*
X142101307Y-78788968D01*
X142042859Y-78796351D01*
X142042856Y-78796352D01*
X142034994Y-78797345D01*
X142027628Y-78800262D01*
X142027626Y-78800262D01*
X141887725Y-78855653D01*
X141887723Y-78855654D01*
X141880356Y-78858571D01*
X141873945Y-78863229D01*
X141873943Y-78863230D01*
X141810581Y-78909265D01*
X141745803Y-78956329D01*
X141672409Y-79045046D01*
X141639468Y-79073179D01*
X141618659Y-79085486D01*
X141618241Y-79085855D01*
X141604158Y-79099938D01*
X141589133Y-79112772D01*
X141572917Y-79124554D01*
X141567862Y-79130664D01*
X141566068Y-79132349D01*
X141502718Y-79164401D01*
X141479814Y-79166500D01*
X140762904Y-79166500D01*
X140694783Y-79146498D01*
X140657531Y-79109584D01*
X140656042Y-79107312D01*
X140638641Y-79080771D01*
X140512367Y-78961151D01*
X140398485Y-78895003D01*
X140368290Y-78877464D01*
X140368289Y-78877463D01*
X140361961Y-78873788D01*
X140354957Y-78871667D01*
X140354953Y-78871665D01*
X140231057Y-78834141D01*
X140195491Y-78823369D01*
X140189052Y-78822794D01*
X140189050Y-78822794D01*
X140121318Y-78816749D01*
X140121312Y-78816749D01*
X140118525Y-78816500D01*
X139519615Y-78816500D01*
X139515981Y-78816924D01*
X139515976Y-78816924D01*
X139397006Y-78830795D01*
X139389733Y-78831643D01*
X139226233Y-78890990D01*
X139198359Y-78909265D01*
X139130423Y-78929887D01*
X139062123Y-78910506D01*
X139015143Y-78857277D01*
X139003965Y-78790722D01*
X139012810Y-78706566D01*
X139012810Y-78706565D01*
X139013500Y-78700000D01*
X138996181Y-78535221D01*
X138994228Y-78516637D01*
X138994228Y-78516636D01*
X138993538Y-78510073D01*
X138985412Y-78485062D01*
X138936566Y-78334731D01*
X138934524Y-78328446D01*
X138839037Y-78163058D01*
X138711251Y-78021137D01*
X138705909Y-78017256D01*
X138705907Y-78017254D01*
X138562092Y-77912767D01*
X138562091Y-77912766D01*
X138556750Y-77908886D01*
X138550722Y-77906202D01*
X138550720Y-77906201D01*
X138388318Y-77833895D01*
X138388317Y-77833895D01*
X138382287Y-77831210D01*
X138288887Y-77811357D01*
X138201944Y-77792876D01*
X138201939Y-77792876D01*
X138195487Y-77791504D01*
X138004513Y-77791504D01*
X137998061Y-77792876D01*
X137998056Y-77792876D01*
X137911113Y-77811357D01*
X137817713Y-77831210D01*
X137811683Y-77833895D01*
X137811682Y-77833895D01*
X137649280Y-77906201D01*
X137649278Y-77906202D01*
X137643250Y-77908886D01*
X137637909Y-77912766D01*
X137637908Y-77912767D01*
X137494093Y-78017254D01*
X137494091Y-78017256D01*
X137488749Y-78021137D01*
X137360963Y-78163058D01*
X137265476Y-78328446D01*
X137263434Y-78334731D01*
X137214589Y-78485062D01*
X137206462Y-78510073D01*
X137205772Y-78516636D01*
X137205772Y-78516637D01*
X137203819Y-78535221D01*
X137186500Y-78700000D01*
X137187190Y-78706565D01*
X137205042Y-78876412D01*
X137206462Y-78889927D01*
X137208502Y-78896204D01*
X137208502Y-78896206D01*
X137219244Y-78929266D01*
X137221271Y-79000234D01*
X137190884Y-79054854D01*
X137141190Y-79107312D01*
X137141184Y-79107320D01*
X137136151Y-79112633D01*
X137100218Y-79174496D01*
X137065094Y-79234967D01*
X137048788Y-79263039D01*
X136998369Y-79429509D01*
X136991500Y-79506475D01*
X136991500Y-80080385D01*
X136991924Y-80084019D01*
X136991924Y-80084024D01*
X137002005Y-80170491D01*
X137006643Y-80210267D01*
X137009141Y-80217149D01*
X137054928Y-80343290D01*
X137065990Y-80373767D01*
X137161359Y-80519229D01*
X137287633Y-80638849D01*
X137438039Y-80726212D01*
X137453916Y-80731021D01*
X137513313Y-80769910D01*
X137542255Y-80834739D01*
X137531554Y-80904925D01*
X137484607Y-80958183D01*
X137460381Y-80970049D01*
X137408335Y-80988940D01*
X137395337Y-80995450D01*
X137262212Y-81082731D01*
X137251060Y-81092055D01*
X137141587Y-81207617D01*
X137132874Y-81219264D01*
X137052922Y-81356910D01*
X137047123Y-81370247D01*
X137000736Y-81523407D01*
X136998286Y-81536039D01*
X136992249Y-81603682D01*
X136992000Y-81609277D01*
X136992000Y-81627885D01*
X136996475Y-81643124D01*
X136997865Y-81644329D01*
X137005548Y-81646000D01*
X138115500Y-81646000D01*
X138183621Y-81666002D01*
X138230114Y-81719658D01*
X138241500Y-81772000D01*
X138241500Y-82028000D01*
X138221498Y-82096121D01*
X138167842Y-82142614D01*
X138115500Y-82154000D01*
X137010115Y-82154000D01*
X136994876Y-82158475D01*
X136993671Y-82159865D01*
X136992000Y-82167548D01*
X136992000Y-82176723D01*
X136992425Y-82184027D01*
X137006281Y-82302880D01*
X137009626Y-82317032D01*
X137063940Y-82466664D01*
X137070450Y-82479663D01*
X137157731Y-82612788D01*
X137167055Y-82623940D01*
X137282617Y-82733413D01*
X137294264Y-82742127D01*
X137294964Y-82742533D01*
X137295346Y-82742936D01*
X137300125Y-82746511D01*
X137299513Y-82747329D01*
X137343823Y-82794044D01*
X137357078Y-82863792D01*
X137330519Y-82929634D01*
X137300764Y-82956860D01*
X137261894Y-82982344D01*
X137261891Y-82982347D01*
X137255771Y-82986359D01*
X137136151Y-83112633D01*
X137048788Y-83263039D01*
X137046667Y-83270043D01*
X137046665Y-83270047D01*
X137019658Y-83359218D01*
X136998369Y-83429509D01*
X136997794Y-83435948D01*
X136997794Y-83435950D01*
X136996048Y-83455520D01*
X136991500Y-83506475D01*
X136991500Y-83847906D01*
X136971498Y-83916027D01*
X136954595Y-83937001D01*
X136723095Y-84168501D01*
X136660783Y-84202527D01*
X136589968Y-84197462D01*
X136533132Y-84154915D01*
X136508321Y-84088395D01*
X136508000Y-84079406D01*
X136508000Y-72902233D01*
X138462838Y-72902233D01*
X138499502Y-73129861D01*
X138573994Y-73348056D01*
X138684185Y-73550580D01*
X138826924Y-73731644D01*
X138880039Y-73779553D01*
X138994159Y-73882489D01*
X138994165Y-73882494D01*
X138998129Y-73886069D01*
X139192906Y-74009439D01*
X139405684Y-74098228D01*
X139410887Y-74099425D01*
X139410892Y-74099426D01*
X139625178Y-74148701D01*
X139625183Y-74148702D01*
X139630381Y-74149897D01*
X139635709Y-74150200D01*
X139635712Y-74150200D01*
X139786377Y-74158755D01*
X139860571Y-74162968D01*
X139865878Y-74162368D01*
X139865880Y-74162368D01*
X139986772Y-74148701D01*
X140089673Y-74137068D01*
X140094788Y-74135587D01*
X140094792Y-74135586D01*
X140223798Y-74098228D01*
X140311135Y-74072937D01*
X140518625Y-73972409D01*
X140522963Y-73969309D01*
X140522968Y-73969306D01*
X140701870Y-73841459D01*
X140706211Y-73838357D01*
X140811989Y-73731653D01*
X140874152Y-73697356D01*
X140944990Y-73702113D01*
X141002010Y-73744411D01*
X141022367Y-73784860D01*
X141045404Y-73863316D01*
X141050275Y-73870895D01*
X141119551Y-73978691D01*
X141119553Y-73978694D01*
X141124423Y-73986271D01*
X141131233Y-73992172D01*
X141228069Y-74076082D01*
X141228072Y-74076084D01*
X141234881Y-74081984D01*
X141243079Y-74085728D01*
X141355498Y-74137068D01*
X141367830Y-74142700D01*
X141376745Y-74143982D01*
X141376746Y-74143982D01*
X141508052Y-74162861D01*
X141508059Y-74162862D01*
X141512500Y-74163500D01*
X143212500Y-74163500D01*
X143285579Y-74158273D01*
X143363665Y-74135345D01*
X143417170Y-74119635D01*
X143417172Y-74119634D01*
X143425816Y-74117096D01*
X143492221Y-74074420D01*
X143541191Y-74042949D01*
X143541194Y-74042947D01*
X143548771Y-74038077D01*
X143573586Y-74009439D01*
X143638582Y-73934431D01*
X143638584Y-73934428D01*
X143644484Y-73927619D01*
X143705200Y-73794670D01*
X143712426Y-73744411D01*
X143725361Y-73654448D01*
X143725362Y-73654441D01*
X143726000Y-73650000D01*
X143726000Y-72561371D01*
X143746002Y-72493250D01*
X143762905Y-72472276D01*
X144738402Y-71496779D01*
X149492000Y-71496779D01*
X149492000Y-72327885D01*
X149496475Y-72343124D01*
X149497865Y-72344329D01*
X149505548Y-72346000D01*
X150527885Y-72346000D01*
X150543124Y-72341525D01*
X150544329Y-72340135D01*
X150546000Y-72332452D01*
X150546000Y-70810115D01*
X150541525Y-70794876D01*
X150540135Y-70793671D01*
X150532452Y-70792000D01*
X150210777Y-70792000D01*
X150203476Y-70792424D01*
X150081745Y-70806617D01*
X150067590Y-70809963D01*
X149915239Y-70865263D01*
X149902240Y-70871773D01*
X149766694Y-70960641D01*
X149755542Y-70969965D01*
X149644078Y-71087629D01*
X149635365Y-71099276D01*
X149553957Y-71239429D01*
X149548163Y-71252754D01*
X149500932Y-71408700D01*
X149498484Y-71421323D01*
X149492249Y-71491184D01*
X149492000Y-71496779D01*
X144738402Y-71496779D01*
X146539776Y-69695405D01*
X146602088Y-69661379D01*
X146628871Y-69658500D01*
X148231247Y-69658500D01*
X148299368Y-69678502D01*
X148336619Y-69715415D01*
X148358449Y-69748711D01*
X148482621Y-69866340D01*
X148630524Y-69952249D01*
X148794223Y-70001828D01*
X148800659Y-70002402D01*
X148800662Y-70002403D01*
X148866185Y-70008251D01*
X148866191Y-70008251D01*
X148868978Y-70008500D01*
X149417887Y-70008500D01*
X149506510Y-69998168D01*
X149537620Y-69994541D01*
X149537622Y-69994541D01*
X149544892Y-69993693D01*
X149551769Y-69991197D01*
X149551772Y-69991196D01*
X149698791Y-69937830D01*
X149705670Y-69935333D01*
X149848711Y-69841551D01*
X149966340Y-69717379D01*
X150052249Y-69569476D01*
X150101828Y-69405777D01*
X150108500Y-69331022D01*
X150108500Y-68482113D01*
X150093693Y-68355108D01*
X150080799Y-68319584D01*
X150037830Y-68201209D01*
X150035333Y-68194330D01*
X149941551Y-68051289D01*
X149817379Y-67933660D01*
X149669476Y-67847751D01*
X149505777Y-67798172D01*
X149499341Y-67797598D01*
X149499338Y-67797597D01*
X149433815Y-67791749D01*
X149433809Y-67791749D01*
X149431022Y-67791500D01*
X148882113Y-67791500D01*
X148793490Y-67801832D01*
X148762380Y-67805459D01*
X148762378Y-67805459D01*
X148755108Y-67806307D01*
X148748231Y-67808803D01*
X148748228Y-67808804D01*
X148646773Y-67845631D01*
X148594330Y-67864667D01*
X148451289Y-67958449D01*
X148333660Y-68082621D01*
X148329982Y-68088952D01*
X148328467Y-68090978D01*
X148271644Y-68133542D01*
X148227575Y-68141500D01*
X146328487Y-68141500D01*
X146309537Y-68140067D01*
X146296380Y-68138065D01*
X146296376Y-68138065D01*
X146289146Y-68136965D01*
X146281854Y-68137558D01*
X146281851Y-68137558D01*
X146238490Y-68141085D01*
X146228276Y-68141500D01*
X146219614Y-68141500D01*
X146215980Y-68141924D01*
X146215976Y-68141924D01*
X146190017Y-68144951D01*
X146185638Y-68145384D01*
X146176853Y-68146099D01*
X146112895Y-68151300D01*
X146105932Y-68153556D01*
X146100044Y-68154732D01*
X146094127Y-68156130D01*
X146086857Y-68156978D01*
X146018233Y-68181887D01*
X146014105Y-68183304D01*
X145951632Y-68203542D01*
X145951627Y-68203544D01*
X145944670Y-68205798D01*
X145938416Y-68209593D01*
X145932938Y-68212101D01*
X145927519Y-68214815D01*
X145920636Y-68217313D01*
X145859577Y-68257345D01*
X145855888Y-68259672D01*
X145850718Y-68262810D01*
X145798292Y-68294622D01*
X145798288Y-68294625D01*
X145793494Y-68297534D01*
X145789288Y-68301249D01*
X145784190Y-68305751D01*
X145781606Y-68307972D01*
X145778876Y-68310255D01*
X145772753Y-68314269D01*
X145767718Y-68319584D01*
X145723623Y-68366132D01*
X145721245Y-68368574D01*
X143925380Y-70164439D01*
X143863068Y-70198465D01*
X143792253Y-70193400D01*
X143735417Y-70150853D01*
X143710736Y-70085997D01*
X143706465Y-70035669D01*
X143704673Y-70025181D01*
X143649452Y-69812427D01*
X143645920Y-69802399D01*
X143555647Y-69601998D01*
X143550467Y-69592692D01*
X143495624Y-69511231D01*
X143485617Y-69502927D01*
X143471556Y-69510154D01*
X141610999Y-71370711D01*
X141610590Y-71371460D01*
X141560386Y-71421661D01*
X141508994Y-71436751D01*
X141439421Y-71441727D01*
X141361335Y-71464655D01*
X141307830Y-71480365D01*
X141307828Y-71480366D01*
X141299184Y-71482904D01*
X141277594Y-71496779D01*
X141183809Y-71557051D01*
X141183806Y-71557053D01*
X141176229Y-71561923D01*
X141170328Y-71568733D01*
X141086418Y-71665569D01*
X141086416Y-71665572D01*
X141080516Y-71672381D01*
X141019800Y-71805330D01*
X141018715Y-71812875D01*
X140980709Y-71872011D01*
X140916128Y-71901504D01*
X140845854Y-71891399D01*
X140807028Y-71863757D01*
X140729667Y-71782661D01*
X140729662Y-71782656D01*
X140725982Y-71778799D01*
X140541004Y-71641171D01*
X140536250Y-71638754D01*
X140532465Y-71636407D01*
X140485111Y-71583509D01*
X140473873Y-71513407D01*
X140502319Y-71448359D01*
X140525606Y-71426807D01*
X140571810Y-71393789D01*
X140580212Y-71383068D01*
X140573232Y-71369942D01*
X139835312Y-70632022D01*
X139821368Y-70624408D01*
X139819535Y-70624539D01*
X139812920Y-70628790D01*
X139071001Y-71370709D01*
X139064241Y-71383089D01*
X139070312Y-71391199D01*
X139121216Y-71423441D01*
X139168062Y-71476789D01*
X139178629Y-71546995D01*
X139149562Y-71611769D01*
X139119162Y-71637605D01*
X139061854Y-71672381D01*
X139019131Y-71698306D01*
X139015101Y-71701803D01*
X138887780Y-71812286D01*
X138844992Y-71849415D01*
X138841609Y-71853541D01*
X138841605Y-71853545D01*
X138810567Y-71891399D01*
X138698804Y-72027705D01*
X138584745Y-72228077D01*
X138506078Y-72444802D01*
X138465051Y-72671683D01*
X138462838Y-72902233D01*
X136508000Y-72902233D01*
X136508000Y-70356854D01*
X138463388Y-70356854D01*
X138464186Y-70367468D01*
X138499138Y-70584471D01*
X138501712Y-70594793D01*
X138572730Y-70802810D01*
X138576997Y-70812533D01*
X138682054Y-71005622D01*
X138686516Y-71012388D01*
X138697823Y-71020419D01*
X138709359Y-71013931D01*
X139450478Y-70272812D01*
X139456856Y-70261132D01*
X140186908Y-70261132D01*
X140187039Y-70262965D01*
X140191290Y-70269580D01*
X140932786Y-71011076D01*
X140944578Y-71017515D01*
X140956572Y-71008245D01*
X140990187Y-70960327D01*
X141045683Y-70916047D01*
X141116309Y-70908800D01*
X141179641Y-70940886D01*
X141204016Y-70972469D01*
X141222054Y-71005622D01*
X141226516Y-71012388D01*
X141237823Y-71020419D01*
X141249359Y-71013931D01*
X141990478Y-70272812D01*
X141998092Y-70258868D01*
X141997961Y-70257035D01*
X141993710Y-70250420D01*
X141249149Y-69505859D01*
X141236769Y-69499099D01*
X141230013Y-69504157D01*
X141202652Y-69552222D01*
X141151569Y-69601528D01*
X141081938Y-69615389D01*
X141015868Y-69589405D01*
X140988630Y-69560256D01*
X140955624Y-69511231D01*
X140945617Y-69502927D01*
X140931556Y-69510154D01*
X140194522Y-70247188D01*
X140186908Y-70261132D01*
X139456856Y-70261132D01*
X139458092Y-70258868D01*
X139457961Y-70257035D01*
X139453710Y-70250420D01*
X138709149Y-69505859D01*
X138696769Y-69499099D01*
X138690013Y-69504157D01*
X138587840Y-69683647D01*
X138583377Y-69693307D01*
X138508382Y-69899916D01*
X138505611Y-69910184D01*
X138466499Y-70126476D01*
X138465498Y-70137070D01*
X138463388Y-70356854D01*
X136508000Y-70356854D01*
X136508000Y-69136693D01*
X139063366Y-69136693D01*
X139067047Y-69145337D01*
X139809688Y-69887978D01*
X139823632Y-69895592D01*
X139825465Y-69895461D01*
X139832080Y-69891210D01*
X140574346Y-69148944D01*
X140581036Y-69136693D01*
X141603366Y-69136693D01*
X141607047Y-69145337D01*
X142349688Y-69887978D01*
X142363632Y-69895592D01*
X142365465Y-69895461D01*
X142372080Y-69891210D01*
X143114346Y-69148944D01*
X143121076Y-69136619D01*
X143112549Y-69125262D01*
X143085015Y-69104776D01*
X143072028Y-69096724D01*
X143024672Y-69043829D01*
X143013431Y-68973728D01*
X143041875Y-68908678D01*
X143065165Y-68887122D01*
X143111810Y-68853789D01*
X143120212Y-68843068D01*
X143113232Y-68829942D01*
X142375312Y-68092022D01*
X142361368Y-68084408D01*
X142359535Y-68084539D01*
X142352920Y-68088790D01*
X141611001Y-68830709D01*
X141604241Y-68843089D01*
X141610313Y-68851200D01*
X141661687Y-68883740D01*
X141708532Y-68937088D01*
X141719099Y-69007294D01*
X141690032Y-69072067D01*
X141659632Y-69097903D01*
X141612871Y-69126279D01*
X141603366Y-69136693D01*
X140581036Y-69136693D01*
X140581076Y-69136619D01*
X140572549Y-69125262D01*
X140545015Y-69104776D01*
X140532028Y-69096724D01*
X140484672Y-69043829D01*
X140473431Y-68973728D01*
X140501875Y-68908678D01*
X140525165Y-68887122D01*
X140571810Y-68853789D01*
X140580212Y-68843068D01*
X140573232Y-68829942D01*
X139835312Y-68092022D01*
X139821368Y-68084408D01*
X139819535Y-68084539D01*
X139812920Y-68088790D01*
X139071001Y-68830709D01*
X139064241Y-68843089D01*
X139070313Y-68851200D01*
X139121687Y-68883740D01*
X139168532Y-68937088D01*
X139179099Y-69007294D01*
X139150032Y-69072067D01*
X139119632Y-69097903D01*
X139072871Y-69126279D01*
X139063366Y-69136693D01*
X136508000Y-69136693D01*
X136508000Y-67816854D01*
X138463388Y-67816854D01*
X138464186Y-67827468D01*
X138499138Y-68044471D01*
X138501712Y-68054793D01*
X138572730Y-68262810D01*
X138576997Y-68272533D01*
X138682054Y-68465622D01*
X138686516Y-68472388D01*
X138697823Y-68480419D01*
X138709359Y-68473931D01*
X139450478Y-67732812D01*
X139456856Y-67721132D01*
X140186908Y-67721132D01*
X140187039Y-67722965D01*
X140191290Y-67729580D01*
X140932786Y-68471076D01*
X140944578Y-68477515D01*
X140956572Y-68468245D01*
X140990187Y-68420327D01*
X141045683Y-68376047D01*
X141116309Y-68368800D01*
X141179641Y-68400886D01*
X141204016Y-68432469D01*
X141222054Y-68465622D01*
X141226516Y-68472388D01*
X141237823Y-68480419D01*
X141249359Y-68473931D01*
X141990478Y-67732812D01*
X141996856Y-67721132D01*
X142726908Y-67721132D01*
X142727039Y-67722965D01*
X142731290Y-67729580D01*
X143472786Y-68471076D01*
X143484578Y-68477515D01*
X143496572Y-68468245D01*
X143537440Y-68409987D01*
X143542795Y-68400787D01*
X143636899Y-68202156D01*
X143640623Y-68192197D01*
X143699917Y-67980543D01*
X143701912Y-67970087D01*
X143724942Y-67749116D01*
X143725277Y-67743200D01*
X143725472Y-67722963D01*
X143725250Y-67717051D01*
X143706465Y-67495669D01*
X143704673Y-67485181D01*
X143649452Y-67272427D01*
X143645920Y-67262399D01*
X143555647Y-67061998D01*
X143550467Y-67052692D01*
X143495624Y-66971231D01*
X143485617Y-66962927D01*
X143471556Y-66970154D01*
X142734522Y-67707188D01*
X142726908Y-67721132D01*
X141996856Y-67721132D01*
X141998092Y-67718868D01*
X141997961Y-67717035D01*
X141993710Y-67710420D01*
X141249149Y-66965859D01*
X141236769Y-66959099D01*
X141230013Y-66964157D01*
X141202652Y-67012222D01*
X141151569Y-67061528D01*
X141081938Y-67075389D01*
X141015868Y-67049405D01*
X140988630Y-67020256D01*
X140955624Y-66971231D01*
X140945617Y-66962927D01*
X140931556Y-66970154D01*
X140194522Y-67707188D01*
X140186908Y-67721132D01*
X139456856Y-67721132D01*
X139458092Y-67718868D01*
X139457961Y-67717035D01*
X139453710Y-67710420D01*
X138709149Y-66965859D01*
X138696769Y-66959099D01*
X138690013Y-66964157D01*
X138587840Y-67143647D01*
X138583377Y-67153307D01*
X138508382Y-67359916D01*
X138505611Y-67370184D01*
X138466499Y-67586476D01*
X138465498Y-67597070D01*
X138463388Y-67816854D01*
X136508000Y-67816854D01*
X136508000Y-66596693D01*
X139063366Y-66596693D01*
X139067047Y-66605337D01*
X139809688Y-67347978D01*
X139823632Y-67355592D01*
X139825465Y-67355461D01*
X139832080Y-67351210D01*
X140574346Y-66608944D01*
X140581036Y-66596693D01*
X141603366Y-66596693D01*
X141607047Y-66605337D01*
X142349688Y-67347978D01*
X142363632Y-67355592D01*
X142365465Y-67355461D01*
X142372080Y-67351210D01*
X143114346Y-66608944D01*
X143121076Y-66596619D01*
X143112549Y-66585262D01*
X143085015Y-66564776D01*
X143072028Y-66556724D01*
X143024672Y-66503829D01*
X143013431Y-66433728D01*
X143041875Y-66368678D01*
X143065165Y-66347122D01*
X143111810Y-66313789D01*
X143120212Y-66303068D01*
X143113232Y-66289942D01*
X142375312Y-65552022D01*
X142361368Y-65544408D01*
X142359535Y-65544539D01*
X142352920Y-65548790D01*
X141611001Y-66290709D01*
X141604241Y-66303089D01*
X141610313Y-66311200D01*
X141661687Y-66343740D01*
X141708532Y-66397088D01*
X141719099Y-66467294D01*
X141690032Y-66532067D01*
X141659632Y-66557903D01*
X141612871Y-66586279D01*
X141603366Y-66596693D01*
X140581036Y-66596693D01*
X140581076Y-66596619D01*
X140572549Y-66585262D01*
X140545015Y-66564776D01*
X140532028Y-66556724D01*
X140484672Y-66503829D01*
X140473431Y-66433728D01*
X140501875Y-66368678D01*
X140525165Y-66347122D01*
X140571810Y-66313789D01*
X140580212Y-66303068D01*
X140573232Y-66289942D01*
X139835312Y-65552022D01*
X139821368Y-65544408D01*
X139819535Y-65544539D01*
X139812920Y-65548790D01*
X139071001Y-66290709D01*
X139064241Y-66303089D01*
X139070313Y-66311200D01*
X139121687Y-66343740D01*
X139168532Y-66397088D01*
X139179099Y-66467294D01*
X139150032Y-66532067D01*
X139119632Y-66557903D01*
X139072871Y-66586279D01*
X139063366Y-66596693D01*
X136508000Y-66596693D01*
X136508000Y-65276854D01*
X138463388Y-65276854D01*
X138464186Y-65287468D01*
X138499138Y-65504471D01*
X138501712Y-65514793D01*
X138572730Y-65722810D01*
X138576997Y-65732533D01*
X138682054Y-65925622D01*
X138686516Y-65932388D01*
X138697823Y-65940419D01*
X138709359Y-65933931D01*
X139450478Y-65192812D01*
X139456856Y-65181132D01*
X140186908Y-65181132D01*
X140187039Y-65182965D01*
X140191290Y-65189580D01*
X140932786Y-65931076D01*
X140944578Y-65937515D01*
X140956572Y-65928245D01*
X140990187Y-65880327D01*
X141045683Y-65836047D01*
X141116309Y-65828800D01*
X141179641Y-65860886D01*
X141204016Y-65892469D01*
X141222054Y-65925622D01*
X141226516Y-65932388D01*
X141237823Y-65940419D01*
X141249359Y-65933931D01*
X141990478Y-65192812D01*
X141996856Y-65181132D01*
X142726908Y-65181132D01*
X142727039Y-65182965D01*
X142731290Y-65189580D01*
X143472786Y-65931076D01*
X143484578Y-65937515D01*
X143496572Y-65928245D01*
X143537440Y-65869987D01*
X143542795Y-65860787D01*
X143636899Y-65662156D01*
X143640623Y-65652197D01*
X143692352Y-65467548D01*
X149492000Y-65467548D01*
X149492000Y-66289223D01*
X149492424Y-66296524D01*
X149506617Y-66418255D01*
X149509963Y-66432410D01*
X149565263Y-66584761D01*
X149571773Y-66597760D01*
X149660641Y-66733306D01*
X149669965Y-66744458D01*
X149787629Y-66855922D01*
X149799276Y-66864635D01*
X149939429Y-66946043D01*
X149952754Y-66951837D01*
X150108700Y-66999068D01*
X150121323Y-67001516D01*
X150191184Y-67007751D01*
X150196779Y-67008000D01*
X150527885Y-67008000D01*
X150543124Y-67003525D01*
X150544329Y-67002135D01*
X150546000Y-66994452D01*
X150546000Y-65472115D01*
X150544659Y-65467548D01*
X151054000Y-65467548D01*
X151054000Y-66989885D01*
X151058475Y-67005124D01*
X151059865Y-67006329D01*
X151067548Y-67008000D01*
X151389223Y-67008000D01*
X151396524Y-67007576D01*
X151518255Y-66993383D01*
X151532410Y-66990037D01*
X151684761Y-66934737D01*
X151697760Y-66928227D01*
X151833306Y-66839359D01*
X151844458Y-66830035D01*
X151955922Y-66712371D01*
X151964635Y-66700724D01*
X152046043Y-66560571D01*
X152051837Y-66547246D01*
X152099068Y-66391300D01*
X152101516Y-66378677D01*
X152107751Y-66308816D01*
X152108000Y-66303221D01*
X152108000Y-65472115D01*
X152103525Y-65456876D01*
X152102135Y-65455671D01*
X152094452Y-65454000D01*
X151072115Y-65454000D01*
X151056876Y-65458475D01*
X151055671Y-65459865D01*
X151054000Y-65467548D01*
X150544659Y-65467548D01*
X150541525Y-65456876D01*
X150540135Y-65455671D01*
X150532452Y-65454000D01*
X149510115Y-65454000D01*
X149494876Y-65458475D01*
X149493671Y-65459865D01*
X149492000Y-65467548D01*
X143692352Y-65467548D01*
X143699917Y-65440543D01*
X143701912Y-65430087D01*
X143724942Y-65209116D01*
X143725277Y-65203200D01*
X143725472Y-65182963D01*
X143725250Y-65177051D01*
X143706465Y-64955669D01*
X143704673Y-64945181D01*
X143649452Y-64732427D01*
X143645920Y-64722399D01*
X143555647Y-64521998D01*
X143550467Y-64512692D01*
X143495624Y-64431231D01*
X143485617Y-64422927D01*
X143471556Y-64430154D01*
X142734522Y-65167188D01*
X142726908Y-65181132D01*
X141996856Y-65181132D01*
X141998092Y-65178868D01*
X141997961Y-65177035D01*
X141993710Y-65170420D01*
X141249149Y-64425859D01*
X141236769Y-64419099D01*
X141230013Y-64424157D01*
X141202652Y-64472222D01*
X141151569Y-64521528D01*
X141081938Y-64535389D01*
X141015868Y-64509405D01*
X140988630Y-64480256D01*
X140955624Y-64431231D01*
X140945617Y-64422927D01*
X140931556Y-64430154D01*
X140194522Y-65167188D01*
X140186908Y-65181132D01*
X139456856Y-65181132D01*
X139458092Y-65178868D01*
X139457961Y-65177035D01*
X139453710Y-65170420D01*
X138709149Y-64425859D01*
X138696769Y-64419099D01*
X138690013Y-64424157D01*
X138587840Y-64603647D01*
X138583377Y-64613307D01*
X138508382Y-64819916D01*
X138505611Y-64830184D01*
X138466499Y-65046476D01*
X138465498Y-65057070D01*
X138463388Y-65276854D01*
X136508000Y-65276854D01*
X136508000Y-62742233D01*
X138462838Y-62742233D01*
X138499502Y-62969861D01*
X138573994Y-63188056D01*
X138576544Y-63192743D01*
X138576545Y-63192745D01*
X138603598Y-63242466D01*
X138684185Y-63390580D01*
X138826924Y-63571644D01*
X138830889Y-63575220D01*
X138994159Y-63722489D01*
X138994165Y-63722494D01*
X138998129Y-63726069D01*
X139002642Y-63728928D01*
X139002644Y-63728929D01*
X139121212Y-63804029D01*
X139168057Y-63857377D01*
X139178624Y-63927583D01*
X139149557Y-63992357D01*
X139119156Y-64018192D01*
X139072872Y-64046278D01*
X139063366Y-64056693D01*
X139067047Y-64065337D01*
X139809688Y-64807978D01*
X139823632Y-64815592D01*
X139825465Y-64815461D01*
X139832080Y-64811210D01*
X140574346Y-64068944D01*
X140581076Y-64056619D01*
X140572549Y-64045262D01*
X140545021Y-64024780D01*
X140532484Y-64017007D01*
X140485130Y-63964110D01*
X140473891Y-63894008D01*
X140502336Y-63828959D01*
X140525622Y-63807409D01*
X140706211Y-63678357D01*
X140868530Y-63514617D01*
X140912359Y-63452139D01*
X140967855Y-63407859D01*
X141015509Y-63398500D01*
X141169314Y-63398500D01*
X141237435Y-63418502D01*
X141268264Y-63446494D01*
X141366924Y-63571644D01*
X141370889Y-63575220D01*
X141534159Y-63722489D01*
X141534165Y-63722494D01*
X141538129Y-63726069D01*
X141542642Y-63728928D01*
X141542644Y-63728929D01*
X141661212Y-63804029D01*
X141708057Y-63857377D01*
X141718624Y-63927583D01*
X141689557Y-63992357D01*
X141659156Y-64018192D01*
X141612872Y-64046278D01*
X141603366Y-64056693D01*
X141607047Y-64065337D01*
X142349688Y-64807978D01*
X142363632Y-64815592D01*
X142365465Y-64815461D01*
X142372080Y-64811210D01*
X143114346Y-64068944D01*
X143121076Y-64056619D01*
X143112549Y-64045262D01*
X143085021Y-64024780D01*
X143072484Y-64017007D01*
X143025130Y-63964110D01*
X143013891Y-63894008D01*
X143042336Y-63828959D01*
X143065622Y-63807409D01*
X143246211Y-63678357D01*
X143408530Y-63514617D01*
X143452359Y-63452139D01*
X143507855Y-63407859D01*
X143555509Y-63398500D01*
X144494013Y-63398500D01*
X144512963Y-63399933D01*
X144526120Y-63401935D01*
X144526124Y-63401935D01*
X144533354Y-63403035D01*
X144540646Y-63402442D01*
X144540649Y-63402442D01*
X144584010Y-63398915D01*
X144594224Y-63398500D01*
X144602886Y-63398500D01*
X144606520Y-63398076D01*
X144606524Y-63398076D01*
X144632483Y-63395049D01*
X144636862Y-63394616D01*
X144649649Y-63393576D01*
X144709605Y-63388700D01*
X144716568Y-63386444D01*
X144722456Y-63385268D01*
X144728373Y-63383870D01*
X144735643Y-63383022D01*
X144804267Y-63358113D01*
X144808395Y-63356696D01*
X144870868Y-63336458D01*
X144870873Y-63336456D01*
X144877830Y-63334202D01*
X144884084Y-63330407D01*
X144889562Y-63327899D01*
X144894981Y-63325185D01*
X144901864Y-63322687D01*
X144962923Y-63282655D01*
X144966612Y-63280328D01*
X145006169Y-63256324D01*
X145024208Y-63245378D01*
X145024212Y-63245375D01*
X145029006Y-63242466D01*
X145038310Y-63234249D01*
X145040894Y-63232028D01*
X145043624Y-63229745D01*
X145049747Y-63225731D01*
X145098877Y-63173868D01*
X145101255Y-63171426D01*
X149227276Y-59045405D01*
X149289588Y-59011379D01*
X149316371Y-59008500D01*
X149417887Y-59008500D01*
X149514863Y-58997194D01*
X149537620Y-58994541D01*
X149537622Y-58994541D01*
X149544892Y-58993693D01*
X149551769Y-58991197D01*
X149551772Y-58991196D01*
X149698791Y-58937830D01*
X149705670Y-58935333D01*
X149848711Y-58841551D01*
X149966340Y-58717379D01*
X150052249Y-58569476D01*
X150101828Y-58405777D01*
X150108500Y-58331022D01*
X150108500Y-57482113D01*
X150093693Y-57355108D01*
X150035333Y-57194330D01*
X149941551Y-57051289D01*
X149817379Y-56933660D01*
X149669476Y-56847751D01*
X149505777Y-56798172D01*
X149499341Y-56797598D01*
X149499338Y-56797597D01*
X149433815Y-56791749D01*
X149433809Y-56791749D01*
X149431022Y-56791500D01*
X149005177Y-56791500D01*
X148937056Y-56771498D01*
X148890563Y-56717842D01*
X148880459Y-56647568D01*
X148909953Y-56582988D01*
X148916341Y-56576656D01*
X148916117Y-56576434D01*
X149080635Y-56410475D01*
X149080636Y-56410474D01*
X149084388Y-56406689D01*
X149177880Y-56273416D01*
X149218588Y-56215387D01*
X149218589Y-56215385D01*
X149221652Y-56211019D01*
X149323986Y-55995018D01*
X149388463Y-55764863D01*
X149405023Y-55605982D01*
X149412933Y-55530083D01*
X149412933Y-55530080D01*
X149413240Y-55527136D01*
X149413500Y-55500000D01*
X149393292Y-55261840D01*
X149391951Y-55256672D01*
X149334586Y-55035655D01*
X149334584Y-55035650D01*
X149333245Y-55030490D01*
X149275577Y-54902472D01*
X149237267Y-54817426D01*
X149237266Y-54817423D01*
X149235077Y-54812565D01*
X149101594Y-54614296D01*
X148936613Y-54441351D01*
X148744852Y-54298677D01*
X148740101Y-54296261D01*
X148740097Y-54296259D01*
X148536549Y-54192770D01*
X148536548Y-54192770D01*
X148531793Y-54190352D01*
X148303528Y-54119474D01*
X148282210Y-54116648D01*
X148071868Y-54088769D01*
X148071865Y-54088769D01*
X148066585Y-54088069D01*
X148061256Y-54088269D01*
X148061255Y-54088269D01*
X147964684Y-54091895D01*
X147827738Y-54097036D01*
X147741316Y-54115169D01*
X147599043Y-54145021D01*
X147599040Y-54145022D01*
X147593816Y-54146118D01*
X147371508Y-54233911D01*
X147366944Y-54236680D01*
X147366945Y-54236680D01*
X147171732Y-54355138D01*
X147171729Y-54355140D01*
X147167171Y-54357906D01*
X146986647Y-54514557D01*
X146983264Y-54518683D01*
X146983259Y-54518688D01*
X146845709Y-54686444D01*
X146787050Y-54726438D01*
X146716079Y-54728370D01*
X146655331Y-54691626D01*
X146643755Y-54676920D01*
X146604574Y-54618723D01*
X146601594Y-54614296D01*
X146436613Y-54441351D01*
X146244852Y-54298677D01*
X146240101Y-54296261D01*
X146240097Y-54296259D01*
X146036549Y-54192770D01*
X146036548Y-54192770D01*
X146031793Y-54190352D01*
X145803528Y-54119474D01*
X145782210Y-54116648D01*
X145571868Y-54088769D01*
X145571865Y-54088769D01*
X145566585Y-54088069D01*
X145561256Y-54088269D01*
X145561255Y-54088269D01*
X145464684Y-54091895D01*
X145327738Y-54097036D01*
X145241316Y-54115169D01*
X145099043Y-54145021D01*
X145099040Y-54145022D01*
X145093816Y-54146118D01*
X144871508Y-54233911D01*
X144866944Y-54236680D01*
X144866945Y-54236680D01*
X144671732Y-54355138D01*
X144671729Y-54355140D01*
X144667171Y-54357906D01*
X144486647Y-54514557D01*
X144483264Y-54518683D01*
X144483259Y-54518688D01*
X144345709Y-54686444D01*
X144287050Y-54726438D01*
X144216079Y-54728370D01*
X144155331Y-54691626D01*
X144143755Y-54676920D01*
X144104574Y-54618723D01*
X144101594Y-54614296D01*
X143936613Y-54441351D01*
X143744852Y-54298677D01*
X143740101Y-54296261D01*
X143740097Y-54296259D01*
X143536549Y-54192770D01*
X143536548Y-54192770D01*
X143531793Y-54190352D01*
X143303528Y-54119474D01*
X143282210Y-54116648D01*
X143071868Y-54088769D01*
X143071865Y-54088769D01*
X143066585Y-54088069D01*
X143061256Y-54088269D01*
X143061255Y-54088269D01*
X142964684Y-54091895D01*
X142827738Y-54097036D01*
X142741316Y-54115169D01*
X142599043Y-54145021D01*
X142599040Y-54145022D01*
X142593816Y-54146118D01*
X142371508Y-54233911D01*
X142366944Y-54236680D01*
X142366945Y-54236680D01*
X142171732Y-54355138D01*
X142171729Y-54355140D01*
X142167171Y-54357906D01*
X141986647Y-54514557D01*
X141983264Y-54518683D01*
X141983259Y-54518688D01*
X141904866Y-54614296D01*
X141835098Y-54699385D01*
X141832459Y-54704021D01*
X141832457Y-54704024D01*
X141774575Y-54805709D01*
X141716857Y-54907104D01*
X141635304Y-55131777D01*
X141592773Y-55366978D01*
X141592722Y-55372318D01*
X141591525Y-55497052D01*
X141590479Y-55605982D01*
X141591328Y-55611252D01*
X141591328Y-55611254D01*
X141616070Y-55764863D01*
X141628487Y-55841957D01*
X141630212Y-55847009D01*
X141630212Y-55847010D01*
X141678989Y-55989881D01*
X141705711Y-56068153D01*
X141819943Y-56278105D01*
X141967916Y-56465807D01*
X142145399Y-56625895D01*
X142347318Y-56753790D01*
X142567900Y-56845835D01*
X142667249Y-56868680D01*
X142795629Y-56898201D01*
X142795633Y-56898202D01*
X142800836Y-56899398D01*
X142806169Y-56899701D01*
X142806170Y-56899701D01*
X142913257Y-56905782D01*
X143039467Y-56912949D01*
X143044774Y-56912349D01*
X143044776Y-56912349D01*
X143210982Y-56893559D01*
X143276970Y-56886099D01*
X143282085Y-56884618D01*
X143282089Y-56884617D01*
X143501430Y-56821100D01*
X143501435Y-56821098D01*
X143506553Y-56819616D01*
X143721652Y-56715401D01*
X143916117Y-56576434D01*
X144084388Y-56406689D01*
X144145775Y-56319182D01*
X144201271Y-56274902D01*
X144271897Y-56267655D01*
X144335229Y-56299741D01*
X144347875Y-56313537D01*
X144417871Y-56402326D01*
X144467916Y-56465807D01*
X144645399Y-56625895D01*
X144847318Y-56753790D01*
X145067900Y-56845835D01*
X145167249Y-56868680D01*
X145295629Y-56898201D01*
X145295633Y-56898202D01*
X145300836Y-56899398D01*
X145306169Y-56899701D01*
X145306170Y-56899701D01*
X145413257Y-56905782D01*
X145539467Y-56912949D01*
X145544774Y-56912349D01*
X145544776Y-56912349D01*
X145710982Y-56893559D01*
X145776970Y-56886099D01*
X145782085Y-56884618D01*
X145782089Y-56884617D01*
X146001430Y-56821100D01*
X146001435Y-56821098D01*
X146006553Y-56819616D01*
X146221652Y-56715401D01*
X146416117Y-56576434D01*
X146584388Y-56406689D01*
X146645775Y-56319182D01*
X146701271Y-56274902D01*
X146771897Y-56267655D01*
X146835229Y-56299741D01*
X146847875Y-56313537D01*
X146917871Y-56402326D01*
X146967916Y-56465807D01*
X147145399Y-56625895D01*
X147347318Y-56753790D01*
X147567900Y-56845835D01*
X147667249Y-56868680D01*
X147795629Y-56898201D01*
X147795633Y-56898202D01*
X147800836Y-56899398D01*
X147806169Y-56899701D01*
X147806170Y-56899701D01*
X147913257Y-56905782D01*
X148039467Y-56912949D01*
X148044774Y-56912349D01*
X148044776Y-56912349D01*
X148169921Y-56898201D01*
X148210981Y-56893559D01*
X148280917Y-56905782D01*
X148333143Y-56953875D01*
X148351077Y-57022569D01*
X148330702Y-57080903D01*
X148333660Y-57082621D01*
X148247751Y-57230524D01*
X148198172Y-57394223D01*
X148191500Y-57468978D01*
X148191500Y-57883629D01*
X148171498Y-57951750D01*
X148154595Y-57972724D01*
X144282724Y-61844595D01*
X144220412Y-61878621D01*
X144193629Y-61881500D01*
X143556739Y-61881500D01*
X143488618Y-61861498D01*
X143452219Y-61825867D01*
X143428107Y-61790053D01*
X143425127Y-61785626D01*
X143265982Y-61618799D01*
X143081004Y-61481171D01*
X143076253Y-61478755D01*
X143076249Y-61478753D01*
X142880240Y-61379097D01*
X142880239Y-61379097D01*
X142875482Y-61376678D01*
X142734533Y-61332912D01*
X142660395Y-61309891D01*
X142660389Y-61309890D01*
X142655292Y-61308307D01*
X142550298Y-61294391D01*
X142432015Y-61278714D01*
X142432010Y-61278714D01*
X142426730Y-61278014D01*
X142421400Y-61278214D01*
X142421399Y-61278214D01*
X142311530Y-61282339D01*
X142196331Y-61286663D01*
X142113868Y-61303966D01*
X141975911Y-61332912D01*
X141975908Y-61332913D01*
X141970684Y-61334009D01*
X141756240Y-61418697D01*
X141559131Y-61538306D01*
X141555101Y-61541803D01*
X141461926Y-61622656D01*
X141384992Y-61689415D01*
X141381609Y-61693541D01*
X141381605Y-61693545D01*
X141265300Y-61835391D01*
X141206641Y-61875385D01*
X141167866Y-61881500D01*
X141016739Y-61881500D01*
X140948618Y-61861498D01*
X140912219Y-61825867D01*
X140888107Y-61790053D01*
X140885127Y-61785626D01*
X140725982Y-61618799D01*
X140541004Y-61481171D01*
X140536253Y-61478755D01*
X140536249Y-61478753D01*
X140340240Y-61379097D01*
X140340239Y-61379097D01*
X140335482Y-61376678D01*
X140194533Y-61332912D01*
X140120395Y-61309891D01*
X140120389Y-61309890D01*
X140115292Y-61308307D01*
X140010298Y-61294391D01*
X139892015Y-61278714D01*
X139892010Y-61278714D01*
X139886730Y-61278014D01*
X139881400Y-61278214D01*
X139881399Y-61278214D01*
X139771530Y-61282339D01*
X139656331Y-61286663D01*
X139573868Y-61303966D01*
X139435911Y-61332912D01*
X139435908Y-61332913D01*
X139430684Y-61334009D01*
X139216240Y-61418697D01*
X139019131Y-61538306D01*
X139015101Y-61541803D01*
X138921926Y-61622656D01*
X138844992Y-61689415D01*
X138841609Y-61693541D01*
X138841605Y-61693545D01*
X138769268Y-61781767D01*
X138698804Y-61867705D01*
X138584745Y-62068077D01*
X138506078Y-62284802D01*
X138465051Y-62511683D01*
X138462838Y-62742233D01*
X136508000Y-62742233D01*
X136508000Y-48500000D01*
X138586500Y-48500000D01*
X138606320Y-48815025D01*
X138665466Y-49125082D01*
X138763007Y-49425281D01*
X138764694Y-49428867D01*
X138764696Y-49428871D01*
X138895715Y-49707302D01*
X138895719Y-49707309D01*
X138897403Y-49710888D01*
X139066536Y-49977398D01*
X139267737Y-50220609D01*
X139497835Y-50436685D01*
X139753199Y-50622218D01*
X140029804Y-50774283D01*
X140323286Y-50890481D01*
X140629017Y-50968979D01*
X140942176Y-51008540D01*
X141257824Y-51008540D01*
X141570983Y-50968979D01*
X141876714Y-50890481D01*
X142170196Y-50774283D01*
X142446801Y-50622218D01*
X142702165Y-50436685D01*
X142932263Y-50220609D01*
X143133464Y-49977398D01*
X143302597Y-49710888D01*
X143304281Y-49707309D01*
X143304285Y-49707302D01*
X143435304Y-49428871D01*
X143435306Y-49428867D01*
X143436993Y-49425281D01*
X143534534Y-49125082D01*
X143593680Y-48815025D01*
X143613500Y-48500000D01*
X147386500Y-48500000D01*
X147406320Y-48815025D01*
X147465466Y-49125082D01*
X147563007Y-49425281D01*
X147564694Y-49428867D01*
X147564696Y-49428871D01*
X147695715Y-49707302D01*
X147695719Y-49707309D01*
X147697403Y-49710888D01*
X147866536Y-49977398D01*
X148067737Y-50220609D01*
X148297835Y-50436685D01*
X148553199Y-50622218D01*
X148829804Y-50774283D01*
X149123286Y-50890481D01*
X149429017Y-50968979D01*
X149742176Y-51008540D01*
X150057824Y-51008540D01*
X150370983Y-50968979D01*
X150676714Y-50890481D01*
X150970196Y-50774283D01*
X151246801Y-50622218D01*
X151502165Y-50436685D01*
X151732263Y-50220609D01*
X151933464Y-49977398D01*
X152102597Y-49710888D01*
X152104281Y-49707309D01*
X152104285Y-49707302D01*
X152235304Y-49428871D01*
X152235306Y-49428867D01*
X152236993Y-49425281D01*
X152334534Y-49125082D01*
X152393680Y-48815025D01*
X152413500Y-48500000D01*
X152393680Y-48184975D01*
X152334534Y-47874918D01*
X152236993Y-47574719D01*
X152235304Y-47571129D01*
X152104285Y-47292698D01*
X152104281Y-47292691D01*
X152102597Y-47289112D01*
X151933464Y-47022602D01*
X151732263Y-46779391D01*
X151502165Y-46563315D01*
X151246801Y-46377782D01*
X150970196Y-46225717D01*
X150676714Y-46109519D01*
X150370983Y-46031021D01*
X150057824Y-45991460D01*
X149742176Y-45991460D01*
X149429017Y-46031021D01*
X149123286Y-46109519D01*
X148829804Y-46225717D01*
X148553199Y-46377782D01*
X148297835Y-46563315D01*
X148067737Y-46779391D01*
X147866536Y-47022602D01*
X147697403Y-47289112D01*
X147695719Y-47292691D01*
X147695715Y-47292698D01*
X147564696Y-47571129D01*
X147563007Y-47574719D01*
X147465466Y-47874918D01*
X147406320Y-48184975D01*
X147386500Y-48500000D01*
X143613500Y-48500000D01*
X143593680Y-48184975D01*
X143534534Y-47874918D01*
X143436993Y-47574719D01*
X143435304Y-47571129D01*
X143304285Y-47292698D01*
X143304281Y-47292691D01*
X143302597Y-47289112D01*
X143133464Y-47022602D01*
X142932263Y-46779391D01*
X142702165Y-46563315D01*
X142446801Y-46377782D01*
X142170196Y-46225717D01*
X141876714Y-46109519D01*
X141570983Y-46031021D01*
X141257824Y-45991460D01*
X140942176Y-45991460D01*
X140629017Y-46031021D01*
X140323286Y-46109519D01*
X140029804Y-46225717D01*
X139753199Y-46377782D01*
X139497835Y-46563315D01*
X139267737Y-46779391D01*
X139066536Y-47022602D01*
X138897403Y-47289112D01*
X138895719Y-47292691D01*
X138895715Y-47292698D01*
X138764696Y-47571129D01*
X138763007Y-47574719D01*
X138665466Y-47874918D01*
X138606320Y-48184975D01*
X138586500Y-48500000D01*
X136508000Y-48500000D01*
X136508000Y-37634000D01*
X136528002Y-37565879D01*
X136581658Y-37519386D01*
X136634000Y-37508000D01*
X154166000Y-37508000D01*
X154234121Y-37528002D01*
G37*
G04 #@! TD.AperFunction*
G04 #@! TA.AperFunction,Conductor*
G36*
X138938591Y-88489181D02*
G01*
X138984765Y-88520912D01*
X138986359Y-88519229D01*
X139112633Y-88638849D01*
X139118962Y-88642525D01*
X139118967Y-88642529D01*
X139200375Y-88689814D01*
X139249234Y-88741325D01*
X139262488Y-88811073D01*
X139235929Y-88876915D01*
X139206175Y-88904140D01*
X139161446Y-88933466D01*
X139080771Y-88986359D01*
X139070925Y-88996753D01*
X138993358Y-89078634D01*
X138931989Y-89114332D01*
X138861062Y-89111184D01*
X138814843Y-89079417D01*
X138813257Y-89081092D01*
X138692383Y-88966587D01*
X138680733Y-88957871D01*
X138599160Y-88910490D01*
X138550301Y-88858979D01*
X138537047Y-88789231D01*
X138563607Y-88723389D01*
X138593360Y-88696164D01*
X138594787Y-88695229D01*
X138661201Y-88651686D01*
X138713110Y-88617653D01*
X138713111Y-88617652D01*
X138719229Y-88613641D01*
X138806295Y-88521732D01*
X138867664Y-88486034D01*
X138938591Y-88489181D01*
G37*
G04 #@! TD.AperFunction*
G04 #@! TA.AperFunction,Conductor*
G36*
X138938591Y-84489181D02*
G01*
X138984765Y-84520912D01*
X138986359Y-84519229D01*
X139112633Y-84638849D01*
X139118964Y-84642526D01*
X139124824Y-84646910D01*
X139123543Y-84648623D01*
X139165141Y-84692475D01*
X139179000Y-84749924D01*
X139179000Y-84853900D01*
X139158998Y-84922021D01*
X139122087Y-84959271D01*
X139080771Y-84986359D01*
X139075739Y-84991671D01*
X138993358Y-85078634D01*
X138931989Y-85114332D01*
X138861062Y-85111184D01*
X138814843Y-85079417D01*
X138813257Y-85081092D01*
X138692383Y-84966587D01*
X138680733Y-84957871D01*
X138599160Y-84910490D01*
X138550301Y-84858979D01*
X138537047Y-84789231D01*
X138563607Y-84723389D01*
X138593360Y-84696164D01*
X138621000Y-84678043D01*
X138675956Y-84642012D01*
X138713110Y-84617653D01*
X138713114Y-84617650D01*
X138719229Y-84613641D01*
X138806295Y-84521732D01*
X138867664Y-84486034D01*
X138938591Y-84489181D01*
G37*
G04 #@! TD.AperFunction*
G04 #@! TA.AperFunction,Conductor*
G36*
X150009532Y-81878038D02*
G01*
X150066368Y-81920585D01*
X150091179Y-81987105D01*
X150091500Y-81996094D01*
X150091500Y-82080385D01*
X150091924Y-82084019D01*
X150091924Y-82084024D01*
X150101662Y-82167548D01*
X150106643Y-82210267D01*
X150109141Y-82217149D01*
X150154928Y-82343290D01*
X150165990Y-82373767D01*
X150261359Y-82519229D01*
X150387633Y-82638849D01*
X150393962Y-82642525D01*
X150393967Y-82642529D01*
X150475856Y-82690093D01*
X150524715Y-82741603D01*
X150537969Y-82811352D01*
X150511410Y-82877194D01*
X150481656Y-82904419D01*
X150362212Y-82982731D01*
X150351060Y-82992055D01*
X150241587Y-83107617D01*
X150232874Y-83119264D01*
X150152922Y-83256910D01*
X150147126Y-83270241D01*
X150138168Y-83299819D01*
X150099279Y-83359218D01*
X150029434Y-83388738D01*
X150018905Y-83389733D01*
X150005912Y-83390961D01*
X149994056Y-83391520D01*
X149584500Y-83391520D01*
X149516379Y-83371518D01*
X149469886Y-83317862D01*
X149458500Y-83265520D01*
X149458500Y-83210421D01*
X149447997Y-83127277D01*
X149443649Y-83092859D01*
X149443648Y-83092856D01*
X149442655Y-83084994D01*
X149429890Y-83052754D01*
X149384347Y-82937725D01*
X149384346Y-82937723D01*
X149381429Y-82930356D01*
X149375796Y-82922602D01*
X149314908Y-82838797D01*
X149291049Y-82771929D01*
X149307130Y-82702777D01*
X149319759Y-82684421D01*
X149355159Y-82641629D01*
X149360212Y-82635521D01*
X149367879Y-82619229D01*
X149383679Y-82585650D01*
X149431026Y-82485033D01*
X149455034Y-82359181D01*
X149489707Y-82293697D01*
X149876405Y-81906999D01*
X149938717Y-81872973D01*
X150009532Y-81878038D01*
G37*
G04 #@! TD.AperFunction*
M02*
