M48
; DRILL file {KiCad (5.99.0-9650-gad505e29c0)} date 03/17/21 10:46:39
; FORMAT={-:-/ absolute / inch / decimal}
; #@! TF.CreationDate,2021-03-17T10:46:39+00:00
; #@! TF.GenerationSoftware,Kicad,Pcbnew,(5.99.0-9650-gad505e29c0)
; #@! TF.FileFunction,Plated,1,2,PTH
FMAT,2
INCH
; #@! TA.AperFunction,ViaDrill
T1C0.0157
; #@! TA.AperFunction,ComponentDrill
T2C0.0197
; #@! TA.AperFunction,ComponentDrill
T3C0.0394
%
G90
G05
T1
; via hole
X5.3986Y-3.2244
X5.4213Y-3.0315
X5.437Y-3.0984
X5.437Y-4.189
X5.437Y-4.3268
X5.4409Y-3.7913
X5.4606Y-3.3543
X5.4606Y-3.4252
X5.4606Y-3.5079
X5.5118Y-3.7244
X5.5433Y-4.6929
X5.5512Y-3.0827
X5.5512Y-3.6614
X5.5591Y-3.8583
X5.5709Y-4.0079
X5.6339Y-4.5
X5.6654Y-3.063
X5.6732Y-3.9724
X5.6929Y-4.2126
X5.6969Y-4.0079
X5.7087Y-4.1575
X5.7244Y-3.1417
X5.7244Y-4.5945
X5.748Y-3.2913
X5.7953Y-3.7283
X5.8465Y-3.7992
X5.8701Y-2.5669
X5.8701Y-2.8583
X5.874Y-4.5276
X5.874Y-4.6693
X5.8753Y-3.084
X5.8898Y-4.0079
X5.8976Y-3.2638
X5.937Y-2.6496
X5.937Y-2.7756
X5.9488Y-4.1929
X5.9882Y-3.7756
X6.0Y-2.5669
X6.0217Y-3.876
X6.0236Y-3.0906
T3
; pad hole
X5.4321Y-4.5039
X5.4321Y-4.7008
X5.5048Y-2.4661
X5.5048Y-2.5661
X5.5048Y-2.6661
X5.5048Y-2.7661
X5.5048Y-2.8661
X5.6048Y-2.4661
X5.6048Y-2.5661
X5.6048Y-2.6661
X5.6048Y-2.7661
X5.6048Y-2.8661
X5.6289Y-4.6024
X5.6299Y-2.185
X5.7283Y-2.185
X5.8268Y-2.185
X5.8278Y-4.6063
X6.0246Y-4.5079
X6.0246Y-4.7047
T2
; pad hole
G00X5.4732Y-5.4724
M15
G01X5.4732Y-5.4331
M16
G05
G00X5.5346Y-4.3307
M15
G01X5.5346Y-4.3701
M16
G05
G00X5.5346Y-4.878
M15
G01X5.5346Y-4.9173
M16
G05
G00X5.5953Y-5.4724
M15
G01X5.5953Y-5.4331
M16
G05
G00X5.8614Y-4.3307
M15
G01X5.8614Y-4.3701
M16
G05
G00X5.8614Y-4.878
M15
G01X5.8614Y-4.9173
M16
G05
G00X5.922Y-5.4724
M15
G01X5.922Y-5.4331
M16
G05
G00X5.9835Y-4.3307
M15
G01X5.9835Y-4.3701
M16
G05
G00X5.9835Y-4.878
M15
G01X5.9835Y-4.9173
M16
G05
T0
M30
