G04 #@! TF.GenerationSoftware,KiCad,Pcbnew,(5.99.0-9650-gad505e29c0)*
G04 #@! TF.CreationDate,2021-03-17T10:46:37+00:00*
G04 #@! TF.ProjectId,Ampelope,416d7065-6c6f-4706-952e-6b696361645f,rev?*
G04 #@! TF.SameCoordinates,Original*
G04 #@! TF.FileFunction,Soldermask,Top*
G04 #@! TF.FilePolarity,Negative*
%FSLAX46Y46*%
G04 Gerber Fmt 4.6, Leading zero omitted, Abs format (unit mm)*
G04 Created by KiCad (PCBNEW (5.99.0-9650-gad505e29c0)) date 2021-03-17 10:46:37*
%MOMM*%
%LPD*%
G01*
G04 APERTURE LIST*
G04 Aperture macros list*
%AMRoundRect*
0 Rectangle with rounded corners*
0 $1 Rounding radius*
0 $2 $3 $4 $5 $6 $7 $8 $9 X,Y pos of 4 corners*
0 Add a 4 corners polygon primitive as box body*
4,1,4,$2,$3,$4,$5,$6,$7,$8,$9,$2,$3,0*
0 Add four circle primitives for the rounded corners*
1,1,$1+$1,$2,$3*
1,1,$1+$1,$4,$5*
1,1,$1+$1,$6,$7*
1,1,$1+$1,$8,$9*
0 Add four rect primitives between the rounded corners*
20,1,$1+$1,$2,$3,$4,$5,0*
20,1,$1+$1,$4,$5,$6,$7,0*
20,1,$1+$1,$6,$7,$8,$9,0*
20,1,$1+$1,$8,$9,$2,$3,0*%
G04 Aperture macros list end*
%ADD10RoundRect,0.237500X0.250000X0.237500X-0.250000X0.237500X-0.250000X-0.237500X0.250000X-0.237500X0*%
%ADD11RoundRect,0.150000X-0.825000X-0.150000X0.825000X-0.150000X0.825000X0.150000X-0.825000X0.150000X0*%
%ADD12RoundRect,0.237500X-0.250000X-0.237500X0.250000X-0.237500X0.250000X0.237500X-0.250000X0.237500X0*%
%ADD13RoundRect,0.250000X0.550000X-1.050000X0.550000X1.050000X-0.550000X1.050000X-0.550000X-1.050000X0*%
%ADD14RoundRect,0.225000X0.225000X0.375000X-0.225000X0.375000X-0.225000X-0.375000X0.225000X-0.375000X0*%
%ADD15RoundRect,0.150000X0.825000X0.150000X-0.825000X0.150000X-0.825000X-0.150000X0.825000X-0.150000X0*%
%ADD16R,1.700000X1.700000*%
%ADD17C,1.700000*%
%ADD18R,1.550000X1.550000*%
%ADD19C,1.550000*%
%ADD20RoundRect,0.225000X-0.225000X-0.375000X0.225000X-0.375000X0.225000X0.375000X-0.225000X0.375000X0*%
%ADD21RoundRect,0.250000X1.250000X0.550000X-1.250000X0.550000X-1.250000X-0.550000X1.250000X-0.550000X0*%
%ADD22C,2.500000*%
%ADD23R,1.000000X2.500000*%
%ADD24C,4.000000*%
%ADD25C,1.800000*%
G04 APERTURE END LIST*
D10*
X139812500Y-102000000D03*
X137987500Y-102000000D03*
D11*
X143025000Y-79590000D03*
X143025000Y-80860000D03*
X143025000Y-82130000D03*
X143025000Y-83400000D03*
X143025000Y-84670000D03*
X143025000Y-85940000D03*
X143025000Y-87210000D03*
X147975000Y-87210000D03*
X147975000Y-85940000D03*
X147975000Y-84670000D03*
X147975000Y-83400000D03*
X147975000Y-82130000D03*
X147975000Y-80860000D03*
X147975000Y-79590000D03*
D12*
X151087500Y-91800000D03*
X152912500Y-91800000D03*
X137987500Y-79800000D03*
X139812500Y-79800000D03*
X151087500Y-103400000D03*
X152912500Y-103400000D03*
D10*
X152912500Y-105500000D03*
X151087500Y-105500000D03*
X139812500Y-98000000D03*
X137987500Y-98000000D03*
D12*
X151087500Y-83800000D03*
X152912500Y-83800000D03*
D13*
X150800000Y-76200000D03*
X150800000Y-72600000D03*
D14*
X152450000Y-57900000D03*
X149150000Y-57900000D03*
D12*
X137987500Y-104000000D03*
X139812500Y-104000000D03*
D15*
X147975000Y-105610000D03*
X147975000Y-104340000D03*
X147975000Y-103070000D03*
X147975000Y-101800000D03*
X147975000Y-100530000D03*
X147975000Y-99260000D03*
X147975000Y-97990000D03*
X143025000Y-97990000D03*
X143025000Y-99260000D03*
X143025000Y-100530000D03*
X143025000Y-101800000D03*
X143025000Y-103070000D03*
X143025000Y-104340000D03*
X143025000Y-105610000D03*
D16*
X142362500Y-72800000D03*
D17*
X139822500Y-72800000D03*
X142362500Y-70260000D03*
X139822500Y-70260000D03*
X142362500Y-67720000D03*
X139822500Y-67720000D03*
X142362500Y-65180000D03*
X139822500Y-65180000D03*
X142362500Y-62640000D03*
X139822500Y-62640000D03*
D10*
X152912500Y-81800000D03*
X151087500Y-81800000D03*
X137987500Y-100000000D03*
X139812500Y-100000000D03*
D13*
X150800000Y-65200000D03*
X150800000Y-61600000D03*
D18*
X137975000Y-119400000D03*
D19*
X142975000Y-116900000D03*
X137975000Y-114400000D03*
D10*
X139812500Y-91800000D03*
X137987500Y-91800000D03*
D18*
X153025000Y-114500000D03*
D19*
X148025000Y-117000000D03*
X153025000Y-119500000D03*
D12*
X137987500Y-89800000D03*
X139812500Y-89800000D03*
D20*
X149150000Y-68900000D03*
X152450000Y-68900000D03*
D10*
X152912500Y-87800000D03*
X151087500Y-87800000D03*
D12*
X151087500Y-97300000D03*
X152912500Y-97300000D03*
D10*
X152912500Y-101400000D03*
X151087500Y-101400000D03*
D12*
X151087500Y-89800000D03*
X152912500Y-89800000D03*
X137987500Y-81900000D03*
X139812500Y-81900000D03*
D10*
X152912500Y-93900000D03*
X151087500Y-93900000D03*
D12*
X137987500Y-83800000D03*
X139812500Y-83800000D03*
D21*
X147700000Y-92800000D03*
X143300000Y-92800000D03*
D10*
X139812500Y-87800000D03*
X137987500Y-87800000D03*
X152912500Y-99300000D03*
X151087500Y-99300000D03*
X152912500Y-85800000D03*
X151087500Y-85800000D03*
X152912500Y-79800000D03*
X151087500Y-79800000D03*
D12*
X137987500Y-85800000D03*
X139812500Y-85800000D03*
D22*
X145500000Y-138500000D03*
D23*
X139020000Y-138500000D03*
X142120000Y-138500000D03*
X150420000Y-138500000D03*
D22*
X145500000Y-124400000D03*
D23*
X151980000Y-124400000D03*
X148880000Y-124400000D03*
X140580000Y-124400000D03*
D22*
X145500000Y-110500000D03*
D23*
X151980000Y-110500000D03*
X148880000Y-110500000D03*
X140580000Y-110500000D03*
D24*
X149900000Y-48500000D03*
X141100000Y-48500000D03*
D25*
X143000000Y-55500000D03*
X145500000Y-55500000D03*
X148000000Y-55500000D03*
M02*
