G04 #@! TF.GenerationSoftware,KiCad,Pcbnew,(5.99.0-9650-gad505e29c0)*
G04 #@! TF.CreationDate,2021-03-17T10:46:37+00:00*
G04 #@! TF.ProjectId,Ampelope,416d7065-6c6f-4706-952e-6b696361645f,rev?*
G04 #@! TF.SameCoordinates,Original*
G04 #@! TF.FileFunction,Legend,Top*
G04 #@! TF.FilePolarity,Positive*
%FSLAX46Y46*%
G04 Gerber Fmt 4.6, Leading zero omitted, Abs format (unit mm)*
G04 Created by KiCad (PCBNEW (5.99.0-9650-gad505e29c0)) date 2021-03-17 10:46:37*
%MOMM*%
%LPD*%
G01*
G04 APERTURE LIST*
%ADD10C,0.300000*%
%ADD11C,0.150000*%
%ADD12C,0.120000*%
%ADD13C,0.100000*%
G04 APERTURE END LIST*
D10*
X141570660Y-79100000D02*
G75*
G03*
X141570660Y-79100000I-170660J0D01*
G01*
X149770660Y-106500000D02*
G75*
G03*
X149770660Y-106500000I-170660J0D01*
G01*
D11*
X148385714Y-121866666D02*
X148861904Y-121866666D01*
X148290476Y-122152380D02*
X148623809Y-121152380D01*
X148957142Y-122152380D01*
X149909523Y-121152380D02*
X150480952Y-121152380D01*
X150195238Y-122152380D02*
X150195238Y-121152380D01*
X150814285Y-122152380D02*
X150814285Y-121485714D01*
X150814285Y-121676190D02*
X150861904Y-121580952D01*
X150909523Y-121533333D01*
X151004761Y-121485714D01*
X151100000Y-121485714D01*
X151433333Y-122152380D02*
X151433333Y-121485714D01*
X151433333Y-121152380D02*
X151385714Y-121200000D01*
X151433333Y-121247619D01*
X151480952Y-121200000D01*
X151433333Y-121152380D01*
X151433333Y-121247619D01*
X151909523Y-122152380D02*
X151909523Y-121485714D01*
X151909523Y-121580952D02*
X151957142Y-121533333D01*
X152052380Y-121485714D01*
X152195238Y-121485714D01*
X152290476Y-121533333D01*
X152338095Y-121628571D01*
X152338095Y-122152380D01*
X152338095Y-121628571D02*
X152385714Y-121533333D01*
X152480952Y-121485714D01*
X152623809Y-121485714D01*
X152719047Y-121533333D01*
X152766666Y-121628571D01*
X152766666Y-122152380D01*
X138495238Y-121628571D02*
X138638095Y-121676190D01*
X138685714Y-121723809D01*
X138733333Y-121819047D01*
X138733333Y-121961904D01*
X138685714Y-122057142D01*
X138638095Y-122104761D01*
X138542857Y-122152380D01*
X138161904Y-122152380D01*
X138161904Y-121152380D01*
X138495238Y-121152380D01*
X138590476Y-121200000D01*
X138638095Y-121247619D01*
X138685714Y-121342857D01*
X138685714Y-121438095D01*
X138638095Y-121533333D01*
X138590476Y-121580952D01*
X138495238Y-121628571D01*
X138161904Y-121628571D01*
X139780952Y-121152380D02*
X140352380Y-121152380D01*
X140066666Y-122152380D02*
X140066666Y-121152380D01*
X140685714Y-122152380D02*
X140685714Y-121485714D01*
X140685714Y-121676190D02*
X140733333Y-121580952D01*
X140780952Y-121533333D01*
X140876190Y-121485714D01*
X140971428Y-121485714D01*
X141304761Y-122152380D02*
X141304761Y-121485714D01*
X141304761Y-121152380D02*
X141257142Y-121200000D01*
X141304761Y-121247619D01*
X141352380Y-121200000D01*
X141304761Y-121152380D01*
X141304761Y-121247619D01*
X141780952Y-122152380D02*
X141780952Y-121485714D01*
X141780952Y-121580952D02*
X141828571Y-121533333D01*
X141923809Y-121485714D01*
X142066666Y-121485714D01*
X142161904Y-121533333D01*
X142209523Y-121628571D01*
X142209523Y-122152380D01*
X142209523Y-121628571D02*
X142257142Y-121533333D01*
X142352380Y-121485714D01*
X142495238Y-121485714D01*
X142590476Y-121533333D01*
X142638095Y-121628571D01*
X142638095Y-122152380D01*
X147071428Y-75161904D02*
X147071428Y-74400000D01*
X147452380Y-73400000D02*
X147452380Y-73971428D01*
X147452380Y-73685714D02*
X146452380Y-73685714D01*
X146595238Y-73780952D01*
X146690476Y-73876190D01*
X146738095Y-73971428D01*
X146547619Y-73019047D02*
X146500000Y-72971428D01*
X146452380Y-72876190D01*
X146452380Y-72638095D01*
X146500000Y-72542857D01*
X146547619Y-72495238D01*
X146642857Y-72447619D01*
X146738095Y-72447619D01*
X146880952Y-72495238D01*
X147452380Y-73066666D01*
X147452380Y-72447619D01*
X146452380Y-72161904D02*
X147452380Y-71828571D01*
X146452380Y-71495238D01*
D12*
X139154724Y-102522500D02*
X138645276Y-102522500D01*
X139154724Y-101477500D02*
X138645276Y-101477500D01*
X145500000Y-78965000D02*
X147450000Y-78965000D01*
X145500000Y-87835000D02*
X147450000Y-87835000D01*
X145500000Y-78965000D02*
X142050000Y-78965000D01*
X145500000Y-87835000D02*
X143550000Y-87835000D01*
X151745276Y-92322500D02*
X152254724Y-92322500D01*
X151745276Y-91277500D02*
X152254724Y-91277500D01*
X138645276Y-79277500D02*
X139154724Y-79277500D01*
X138645276Y-80322500D02*
X139154724Y-80322500D01*
X151745276Y-103922500D02*
X152254724Y-103922500D01*
X151745276Y-102877500D02*
X152254724Y-102877500D01*
X152254724Y-106022500D02*
X151745276Y-106022500D01*
X152254724Y-104977500D02*
X151745276Y-104977500D01*
X139154724Y-98522500D02*
X138645276Y-98522500D01*
X139154724Y-97477500D02*
X138645276Y-97477500D01*
X151745276Y-83277500D02*
X152254724Y-83277500D01*
X151745276Y-84322500D02*
X152254724Y-84322500D01*
X148540000Y-72140000D02*
X149740000Y-72140000D01*
X153060000Y-75595563D02*
X153060000Y-72140000D01*
X151995563Y-76660000D02*
X151860000Y-76660000D01*
X149604437Y-76660000D02*
X148540000Y-75595563D01*
X149604437Y-76660000D02*
X149740000Y-76660000D01*
X148540000Y-75595563D02*
X148540000Y-72140000D01*
X149240000Y-77400000D02*
X149240000Y-76900000D01*
X148990000Y-77150000D02*
X149490000Y-77150000D01*
X153060000Y-72140000D02*
X151860000Y-72140000D01*
X151995563Y-76660000D02*
X153060000Y-75595563D01*
X153050000Y-56900000D02*
X149150000Y-56900000D01*
X153050000Y-58900000D02*
X153050000Y-56900000D01*
X153050000Y-58900000D02*
X149150000Y-58900000D01*
X138645276Y-104522500D02*
X139154724Y-104522500D01*
X138645276Y-103477500D02*
X139154724Y-103477500D01*
X145500000Y-106235000D02*
X143550000Y-106235000D01*
X145500000Y-97365000D02*
X147450000Y-97365000D01*
X145500000Y-106235000D02*
X148950000Y-106235000D01*
X145500000Y-97365000D02*
X143550000Y-97365000D01*
D11*
X136422500Y-60490000D02*
X136422500Y-59990000D01*
X136522500Y-60490000D02*
X136522500Y-59990000D01*
X144262500Y-69945000D02*
X144262500Y-76670000D01*
X136422500Y-59990000D02*
X136622500Y-59990000D01*
X137922500Y-76670000D02*
X137922500Y-58770000D01*
X144262500Y-65495000D02*
X145562500Y-65495000D01*
X137922500Y-58770000D02*
X144262500Y-58770000D01*
X136622500Y-60490000D02*
X136422500Y-60490000D01*
X144262500Y-58770000D02*
X144262500Y-65495000D01*
X136422500Y-74950000D02*
X136622500Y-74950000D01*
X145562500Y-69945000D02*
X144262500Y-69945000D01*
X136622500Y-77870000D02*
X136622500Y-57570000D01*
X136622500Y-75450000D02*
X136422500Y-75450000D01*
X136622500Y-57570000D02*
X145562500Y-57570000D01*
X136522500Y-67970000D02*
X136522500Y-67470000D01*
X136422500Y-67970000D02*
X136422500Y-67470000D01*
X144262500Y-76670000D02*
X137922500Y-76670000D01*
X136522500Y-75450000D02*
X136522500Y-74950000D01*
X145562500Y-57570000D02*
X145562500Y-77870000D01*
X136422500Y-75450000D02*
X136422500Y-74950000D01*
X145562500Y-77870000D02*
X136622500Y-77870000D01*
X136422500Y-67470000D02*
X136622500Y-67470000D01*
X136622500Y-67970000D02*
X136422500Y-67970000D01*
D13*
X136162500Y-73800000D02*
X136162500Y-71800000D01*
X136162500Y-71800000D02*
X146062500Y-71800000D01*
X146062500Y-71800000D02*
X146062500Y-73800000D01*
X146062500Y-73800000D02*
X136162500Y-73800000D01*
G36*
X146062500Y-73800000D02*
G01*
X136162500Y-73800000D01*
X136162500Y-71800000D01*
X146062500Y-71800000D01*
X146062500Y-73800000D01*
G37*
X146062500Y-73800000D02*
X136162500Y-73800000D01*
X136162500Y-71800000D01*
X146062500Y-71800000D01*
X146062500Y-73800000D01*
D12*
X152254724Y-82322500D02*
X151745276Y-82322500D01*
X152254724Y-81277500D02*
X151745276Y-81277500D01*
X139154724Y-100522500D02*
X138645276Y-100522500D01*
X139154724Y-99477500D02*
X138645276Y-99477500D01*
X148990000Y-66150000D02*
X149490000Y-66150000D01*
X151995563Y-65660000D02*
X153060000Y-64595563D01*
X149604437Y-65660000D02*
X149740000Y-65660000D01*
X153060000Y-64595563D02*
X153060000Y-61140000D01*
X148540000Y-64595563D02*
X148540000Y-61140000D01*
X148540000Y-61140000D02*
X149740000Y-61140000D01*
X151995563Y-65660000D02*
X151860000Y-65660000D01*
X149604437Y-65660000D02*
X148540000Y-64595563D01*
X153060000Y-61140000D02*
X151860000Y-61140000D01*
X149240000Y-66400000D02*
X149240000Y-65900000D01*
X136765000Y-120210000D02*
X137015000Y-120210000D01*
X143785000Y-117410000D02*
X143785000Y-118900000D01*
X136765000Y-118690000D02*
X136565000Y-118690000D01*
X138495000Y-113590000D02*
X142475000Y-113590000D01*
X136765000Y-115110000D02*
X136565000Y-115110000D01*
X136765000Y-113690000D02*
X136765000Y-113590000D01*
X142475000Y-120210000D02*
X138935000Y-120210000D01*
X136765000Y-113590000D02*
X137455000Y-113590000D01*
X143785000Y-114900000D02*
X143785000Y-116390000D01*
X136765000Y-120110000D02*
X136765000Y-120210000D01*
X136565000Y-113690000D02*
X136765000Y-113690000D01*
X136565000Y-120110000D02*
X136765000Y-120110000D01*
X136565000Y-120110000D02*
X136565000Y-118690000D01*
X136565000Y-115110000D02*
X136565000Y-113690000D01*
X136765000Y-118690000D02*
X136765000Y-115110000D01*
X142475000Y-113590000D02*
G75*
G02*
X143785000Y-114900000I0J-1310000D01*
G01*
X143785000Y-118900000D02*
G75*
G02*
X142475000Y-120210000I-1310000J0D01*
G01*
X139154724Y-92322500D02*
X138645276Y-92322500D01*
X139154724Y-91277500D02*
X138645276Y-91277500D01*
X148525000Y-113690000D02*
X152065000Y-113690000D01*
X154235000Y-113690000D02*
X153985000Y-113690000D01*
X154235000Y-118790000D02*
X154435000Y-118790000D01*
X154435000Y-120210000D02*
X154235000Y-120210000D01*
X154435000Y-118790000D02*
X154435000Y-120210000D01*
X154235000Y-115210000D02*
X154235000Y-118790000D01*
X154235000Y-120210000D02*
X154235000Y-120310000D01*
X154435000Y-113790000D02*
X154435000Y-115210000D01*
X147215000Y-119000000D02*
X147215000Y-117510000D01*
X154435000Y-113790000D02*
X154235000Y-113790000D01*
X147215000Y-116490000D02*
X147215000Y-115000000D01*
X154235000Y-113790000D02*
X154235000Y-113690000D01*
X154235000Y-120310000D02*
X153545000Y-120310000D01*
X152505000Y-120310000D02*
X148525000Y-120310000D01*
X154235000Y-115210000D02*
X154435000Y-115210000D01*
X148525000Y-120310000D02*
G75*
G02*
X147215000Y-119000000I0J1310000D01*
G01*
X147215000Y-115000000D02*
G75*
G02*
X148525000Y-113690000I1310000J0D01*
G01*
X138645276Y-89277500D02*
X139154724Y-89277500D01*
X138645276Y-90322500D02*
X139154724Y-90322500D01*
X148550000Y-69900000D02*
X152450000Y-69900000D01*
X148550000Y-67900000D02*
X148550000Y-69900000D01*
X148550000Y-67900000D02*
X152450000Y-67900000D01*
X152254724Y-87277500D02*
X151745276Y-87277500D01*
X152254724Y-88322500D02*
X151745276Y-88322500D01*
X151745276Y-96777500D02*
X152254724Y-96777500D01*
X151745276Y-97822500D02*
X152254724Y-97822500D01*
X152254724Y-101922500D02*
X151745276Y-101922500D01*
X152254724Y-100877500D02*
X151745276Y-100877500D01*
X151745276Y-89277500D02*
X152254724Y-89277500D01*
X151745276Y-90322500D02*
X152254724Y-90322500D01*
X138645276Y-82422500D02*
X139154724Y-82422500D01*
X138645276Y-81377500D02*
X139154724Y-81377500D01*
X152254724Y-94422500D02*
X151745276Y-94422500D01*
X152254724Y-93377500D02*
X151745276Y-93377500D01*
X138645276Y-84322500D02*
X139154724Y-84322500D01*
X138645276Y-83277500D02*
X139154724Y-83277500D01*
X142740000Y-95560000D02*
X142740000Y-93860000D01*
X147195563Y-95560000D02*
X142740000Y-95560000D01*
X148260000Y-91104437D02*
X148260000Y-91740000D01*
X148260000Y-91104437D02*
X147195563Y-90040000D01*
X142740000Y-90040000D02*
X142740000Y-91740000D01*
X148260000Y-94495563D02*
X148260000Y-93860000D01*
X149125000Y-94485000D02*
X148500000Y-94485000D01*
X148260000Y-94495563D02*
X147195563Y-95560000D01*
X147195563Y-90040000D02*
X142740000Y-90040000D01*
X148812500Y-94797500D02*
X148812500Y-94172500D01*
X139154724Y-88322500D02*
X138645276Y-88322500D01*
X139154724Y-87277500D02*
X138645276Y-87277500D01*
X152254724Y-99822500D02*
X151745276Y-99822500D01*
X152254724Y-98777500D02*
X151745276Y-98777500D01*
X152254724Y-86322500D02*
X151745276Y-86322500D01*
X152254724Y-85277500D02*
X151745276Y-85277500D01*
X152254724Y-80322500D02*
X151745276Y-80322500D01*
X152254724Y-79277500D02*
X151745276Y-79277500D01*
X138645276Y-85277500D02*
X139154724Y-85277500D01*
X138645276Y-86322500D02*
X139154724Y-86322500D01*
M02*
