G04 #@! TF.GenerationSoftware,KiCad,Pcbnew,(5.99.0-9650-gad505e29c0)*
G04 #@! TF.CreationDate,2021-03-17T10:46:37+00:00*
G04 #@! TF.ProjectId,Ampelope,416d7065-6c6f-4706-952e-6b696361645f,rev?*
G04 #@! TF.SameCoordinates,Original*
G04 #@! TF.FileFunction,Legend,Bot*
G04 #@! TF.FilePolarity,Positive*
%FSLAX46Y46*%
G04 Gerber Fmt 4.6, Leading zero omitted, Abs format (unit mm)*
G04 Created by KiCad (PCBNEW (5.99.0-9650-gad505e29c0)) date 2021-03-17 10:46:37*
%MOMM*%
%LPD*%
G01*
G04 APERTURE LIST*
%ADD10C,0.300000*%
%ADD11C,0.150000*%
%ADD12C,0.120000*%
%ADD13R,1.000000X2.500000*%
G04 APERTURE END LIST*
D10*
X148042500Y-72050000D02*
X148042500Y-72764285D01*
X148471071Y-71907142D02*
X146971071Y-72407142D01*
X148471071Y-72907142D01*
X148471071Y-73407142D02*
X147471071Y-73407142D01*
X147613928Y-73407142D02*
X147542500Y-73478571D01*
X147471071Y-73621428D01*
X147471071Y-73835714D01*
X147542500Y-73978571D01*
X147685357Y-74050000D01*
X148471071Y-74050000D01*
X147685357Y-74050000D02*
X147542500Y-74121428D01*
X147471071Y-74264285D01*
X147471071Y-74478571D01*
X147542500Y-74621428D01*
X147685357Y-74692857D01*
X148471071Y-74692857D01*
X147471071Y-75407142D02*
X148971071Y-75407142D01*
X147542500Y-75407142D02*
X147471071Y-75550000D01*
X147471071Y-75835714D01*
X147542500Y-75978571D01*
X147613928Y-76050000D01*
X147756785Y-76121428D01*
X148185357Y-76121428D01*
X148328214Y-76050000D01*
X148399642Y-75978571D01*
X148471071Y-75835714D01*
X148471071Y-75550000D01*
X148399642Y-75407142D01*
X148399642Y-77335714D02*
X148471071Y-77192857D01*
X148471071Y-76907142D01*
X148399642Y-76764285D01*
X148256785Y-76692857D01*
X147685357Y-76692857D01*
X147542500Y-76764285D01*
X147471071Y-76907142D01*
X147471071Y-77192857D01*
X147542500Y-77335714D01*
X147685357Y-77407142D01*
X147828214Y-77407142D01*
X147971071Y-76692857D01*
X148471071Y-78264285D02*
X148399642Y-78121428D01*
X148256785Y-78050000D01*
X146971071Y-78050000D01*
X148471071Y-79050000D02*
X148399642Y-78907142D01*
X148328214Y-78835714D01*
X148185357Y-78764285D01*
X147756785Y-78764285D01*
X147613928Y-78835714D01*
X147542500Y-78907142D01*
X147471071Y-79050000D01*
X147471071Y-79264285D01*
X147542500Y-79407142D01*
X147613928Y-79478571D01*
X147756785Y-79550000D01*
X148185357Y-79550000D01*
X148328214Y-79478571D01*
X148399642Y-79407142D01*
X148471071Y-79264285D01*
X148471071Y-79050000D01*
X147471071Y-80192857D02*
X148971071Y-80192857D01*
X147542500Y-80192857D02*
X147471071Y-80335714D01*
X147471071Y-80621428D01*
X147542500Y-80764285D01*
X147613928Y-80835714D01*
X147756785Y-80907142D01*
X148185357Y-80907142D01*
X148328214Y-80835714D01*
X148399642Y-80764285D01*
X148471071Y-80621428D01*
X148471071Y-80335714D01*
X148399642Y-80192857D01*
X148399642Y-82121428D02*
X148471071Y-81978571D01*
X148471071Y-81692857D01*
X148399642Y-81550000D01*
X148256785Y-81478571D01*
X147685357Y-81478571D01*
X147542500Y-81550000D01*
X147471071Y-81692857D01*
X147471071Y-81978571D01*
X147542500Y-82121428D01*
X147685357Y-82192857D01*
X147828214Y-82192857D01*
X147971071Y-81478571D01*
X148471071Y-84835714D02*
X147756785Y-84335714D01*
X148471071Y-83978571D02*
X146971071Y-83978571D01*
X146971071Y-84550000D01*
X147042500Y-84692857D01*
X147113928Y-84764285D01*
X147256785Y-84835714D01*
X147471071Y-84835714D01*
X147613928Y-84764285D01*
X147685357Y-84692857D01*
X147756785Y-84550000D01*
X147756785Y-83978571D01*
X148471071Y-85478571D02*
X147471071Y-85478571D01*
X146971071Y-85478571D02*
X147042500Y-85407142D01*
X147113928Y-85478571D01*
X147042500Y-85550000D01*
X146971071Y-85478571D01*
X147113928Y-85478571D01*
X147471071Y-86192857D02*
X148471071Y-86192857D01*
X147613928Y-86192857D02*
X147542500Y-86264285D01*
X147471071Y-86407142D01*
X147471071Y-86621428D01*
X147542500Y-86764285D01*
X147685357Y-86835714D01*
X148471071Y-86835714D01*
X147471071Y-88192857D02*
X148685357Y-88192857D01*
X148828214Y-88121428D01*
X148899642Y-88050000D01*
X148971071Y-87907142D01*
X148971071Y-87692857D01*
X148899642Y-87550000D01*
X148399642Y-88192857D02*
X148471071Y-88050000D01*
X148471071Y-87764285D01*
X148399642Y-87621428D01*
X148328214Y-87550000D01*
X148185357Y-87478571D01*
X147756785Y-87478571D01*
X147613928Y-87550000D01*
X147542500Y-87621428D01*
X147471071Y-87764285D01*
X147471071Y-88050000D01*
X147542500Y-88192857D01*
X148471071Y-90050000D02*
X146971071Y-90050000D01*
X148042500Y-90550000D01*
X146971071Y-91050000D01*
X148471071Y-91050000D01*
X148471071Y-91978571D02*
X148399642Y-91835714D01*
X148328214Y-91764285D01*
X148185357Y-91692857D01*
X147756785Y-91692857D01*
X147613928Y-91764285D01*
X147542500Y-91835714D01*
X147471071Y-91978571D01*
X147471071Y-92192857D01*
X147542500Y-92335714D01*
X147613928Y-92407142D01*
X147756785Y-92478571D01*
X148185357Y-92478571D01*
X148328214Y-92407142D01*
X148399642Y-92335714D01*
X148471071Y-92192857D01*
X148471071Y-91978571D01*
X148471071Y-93764285D02*
X146971071Y-93764285D01*
X148399642Y-93764285D02*
X148471071Y-93621428D01*
X148471071Y-93335714D01*
X148399642Y-93192857D01*
X148328214Y-93121428D01*
X148185357Y-93050000D01*
X147756785Y-93050000D01*
X147613928Y-93121428D01*
X147542500Y-93192857D01*
X147471071Y-93335714D01*
X147471071Y-93621428D01*
X147542500Y-93764285D01*
X147471071Y-95478571D02*
X148471071Y-95835714D01*
X147471071Y-96192857D01*
X148471071Y-97550000D02*
X148471071Y-96692857D01*
X148471071Y-97121428D02*
X146971071Y-97121428D01*
X147185357Y-96978571D01*
X147328214Y-96835714D01*
X147399642Y-96692857D01*
X150886071Y-75228571D02*
X149386071Y-75228571D01*
X150457500Y-75728571D01*
X149386071Y-76228571D01*
X150886071Y-76228571D01*
X150886071Y-77157142D02*
X150814642Y-77014285D01*
X150743214Y-76942857D01*
X150600357Y-76871428D01*
X150171785Y-76871428D01*
X150028928Y-76942857D01*
X149957500Y-77014285D01*
X149886071Y-77157142D01*
X149886071Y-77371428D01*
X149957500Y-77514285D01*
X150028928Y-77585714D01*
X150171785Y-77657142D01*
X150600357Y-77657142D01*
X150743214Y-77585714D01*
X150814642Y-77514285D01*
X150886071Y-77371428D01*
X150886071Y-77157142D01*
X149886071Y-78942857D02*
X150886071Y-78942857D01*
X149886071Y-78300000D02*
X150671785Y-78300000D01*
X150814642Y-78371428D01*
X150886071Y-78514285D01*
X150886071Y-78728571D01*
X150814642Y-78871428D01*
X150743214Y-78942857D01*
X149886071Y-79657142D02*
X150886071Y-79657142D01*
X150028928Y-79657142D02*
X149957500Y-79728571D01*
X149886071Y-79871428D01*
X149886071Y-80085714D01*
X149957500Y-80228571D01*
X150100357Y-80300000D01*
X150886071Y-80300000D01*
X149886071Y-80800000D02*
X149886071Y-81371428D01*
X149386071Y-81014285D02*
X150671785Y-81014285D01*
X150814642Y-81085714D01*
X150886071Y-81228571D01*
X150886071Y-81371428D01*
X149886071Y-81871428D02*
X151171785Y-81871428D01*
X151314642Y-81800000D01*
X151386071Y-81657142D01*
X151386071Y-81585714D01*
X149386071Y-81871428D02*
X149457500Y-81800000D01*
X149528928Y-81871428D01*
X149457500Y-81942857D01*
X149386071Y-81871428D01*
X149528928Y-81871428D01*
X150886071Y-82800000D02*
X150814642Y-82657142D01*
X150743214Y-82585714D01*
X150600357Y-82514285D01*
X150171785Y-82514285D01*
X150028928Y-82585714D01*
X149957500Y-82657142D01*
X149886071Y-82800000D01*
X149886071Y-83014285D01*
X149957500Y-83157142D01*
X150028928Y-83228571D01*
X150171785Y-83300000D01*
X150600357Y-83300000D01*
X150743214Y-83228571D01*
X150814642Y-83157142D01*
X150886071Y-83014285D01*
X150886071Y-82800000D01*
X149886071Y-83800000D02*
X150886071Y-84157142D01*
X149886071Y-84514285D02*
X150886071Y-84157142D01*
X151243214Y-84014285D01*
X151314642Y-83942857D01*
X151386071Y-83800000D01*
X150886071Y-86228571D02*
X149386071Y-86228571D01*
X150457500Y-86728571D01*
X149386071Y-87228571D01*
X150886071Y-87228571D01*
X150886071Y-88157142D02*
X150814642Y-88014285D01*
X150743214Y-87942857D01*
X150600357Y-87871428D01*
X150171785Y-87871428D01*
X150028928Y-87942857D01*
X149957500Y-88014285D01*
X149886071Y-88157142D01*
X149886071Y-88371428D01*
X149957500Y-88514285D01*
X150028928Y-88585714D01*
X150171785Y-88657142D01*
X150600357Y-88657142D01*
X150743214Y-88585714D01*
X150814642Y-88514285D01*
X150886071Y-88371428D01*
X150886071Y-88157142D01*
X150886071Y-89942857D02*
X149386071Y-89942857D01*
X150814642Y-89942857D02*
X150886071Y-89800000D01*
X150886071Y-89514285D01*
X150814642Y-89371428D01*
X150743214Y-89300000D01*
X150600357Y-89228571D01*
X150171785Y-89228571D01*
X150028928Y-89300000D01*
X149957500Y-89371428D01*
X149886071Y-89514285D01*
X149886071Y-89800000D01*
X149957500Y-89942857D01*
X149886071Y-91300000D02*
X150886071Y-91300000D01*
X149886071Y-90657142D02*
X150671785Y-90657142D01*
X150814642Y-90728571D01*
X150886071Y-90871428D01*
X150886071Y-91085714D01*
X150814642Y-91228571D01*
X150743214Y-91300000D01*
X150886071Y-92228571D02*
X150814642Y-92085714D01*
X150671785Y-92014285D01*
X149386071Y-92014285D01*
X150886071Y-93442857D02*
X150100357Y-93442857D01*
X149957500Y-93371428D01*
X149886071Y-93228571D01*
X149886071Y-92942857D01*
X149957500Y-92800000D01*
X150814642Y-93442857D02*
X150886071Y-93300000D01*
X150886071Y-92942857D01*
X150814642Y-92800000D01*
X150671785Y-92728571D01*
X150528928Y-92728571D01*
X150386071Y-92800000D01*
X150314642Y-92942857D01*
X150314642Y-93300000D01*
X150243214Y-93442857D01*
X150886071Y-94157142D02*
X149886071Y-94157142D01*
X150171785Y-94157142D02*
X150028928Y-94228571D01*
X149957500Y-94300000D01*
X149886071Y-94442857D01*
X149886071Y-94585714D01*
D11*
X146135238Y-58492380D02*
X146468571Y-58016190D01*
X146706666Y-58492380D02*
X146706666Y-57492380D01*
X146325714Y-57492380D01*
X146230476Y-57540000D01*
X146182857Y-57587619D01*
X146135238Y-57682857D01*
X146135238Y-57825714D01*
X146182857Y-57920952D01*
X146230476Y-57968571D01*
X146325714Y-58016190D01*
X146706666Y-58016190D01*
X145849523Y-57492380D02*
X145516190Y-58492380D01*
X145182857Y-57492380D01*
X144944761Y-57492380D02*
X144325714Y-57492380D01*
X144659047Y-57873333D01*
X144516190Y-57873333D01*
X144420952Y-57920952D01*
X144373333Y-57968571D01*
X144325714Y-58063809D01*
X144325714Y-58301904D01*
X144373333Y-58397142D01*
X144420952Y-58444761D01*
X144516190Y-58492380D01*
X144801904Y-58492380D01*
X144897142Y-58444761D01*
X144944761Y-58397142D01*
X141055000Y-140405000D02*
X141055000Y-136595000D01*
X147405000Y-140405000D02*
X147405000Y-136595000D01*
X151500000Y-143000000D02*
X141000000Y-143000000D01*
X143595000Y-136595000D02*
X143595000Y-140405000D01*
X141690000Y-142945000D02*
X141690000Y-140405000D01*
X151500000Y-134000000D02*
X141000000Y-134000000D01*
X151500000Y-143000000D02*
X151500000Y-134000000D01*
X141055000Y-136595000D02*
X141690000Y-136595000D01*
X141000000Y-143000000D02*
X141000000Y-134000000D01*
X141690000Y-136595000D02*
X141690000Y-134055000D01*
X141690000Y-140405000D02*
X141055000Y-140405000D01*
X143595000Y-136595000D02*
G75*
G02*
X147405000Y-136595000I1905000J-1905000D01*
G01*
X147405000Y-140405000D02*
G75*
G02*
X143595000Y-140405000I-1905000J1905000D01*
G01*
X146800000Y-138500000D02*
G75*
G03*
X146800000Y-138500000I-1300000J0D01*
G01*
X147296051Y-138500000D02*
G75*
G03*
X147296051Y-138500000I-1796051J0D01*
G01*
X139500000Y-119900000D02*
X150000000Y-119900000D01*
X149310000Y-122495000D02*
X149945000Y-122495000D01*
X139500000Y-128900000D02*
X150000000Y-128900000D01*
X143595000Y-122495000D02*
X143595000Y-126305000D01*
X149945000Y-126305000D02*
X149310000Y-126305000D01*
X149310000Y-126305000D02*
X149310000Y-128845000D01*
X149310000Y-119955000D02*
X149310000Y-122495000D01*
X150000000Y-119900000D02*
X150000000Y-128900000D01*
X147405000Y-126305000D02*
X147405000Y-122495000D01*
X149945000Y-122495000D02*
X149945000Y-126305000D01*
X139500000Y-119900000D02*
X139500000Y-128900000D01*
X143595000Y-122495000D02*
G75*
G02*
X147405000Y-122495000I1905000J-1905000D01*
G01*
X147405000Y-126305000D02*
G75*
G02*
X143595000Y-126305000I-1905000J1905000D01*
G01*
X146800000Y-124400000D02*
G75*
G03*
X146800000Y-124400000I-1300000J0D01*
G01*
X147296051Y-124400000D02*
G75*
G03*
X147296051Y-124400000I-1796051J0D01*
G01*
X143595000Y-108595000D02*
X143595000Y-112405000D01*
X150000000Y-106000000D02*
X150000000Y-115000000D01*
X149945000Y-108595000D02*
X149945000Y-112405000D01*
X149310000Y-112405000D02*
X149310000Y-114945000D01*
X139500000Y-106000000D02*
X139500000Y-115000000D01*
X149945000Y-112405000D02*
X149310000Y-112405000D01*
X139500000Y-115000000D02*
X150000000Y-115000000D01*
X149310000Y-108595000D02*
X149945000Y-108595000D01*
X139500000Y-106000000D02*
X150000000Y-106000000D01*
X147405000Y-112405000D02*
X147405000Y-108595000D01*
X149310000Y-106055000D02*
X149310000Y-108595000D01*
X147405000Y-112405000D02*
G75*
G02*
X143595000Y-112405000I-1905000J1905000D01*
G01*
X143595000Y-108595000D02*
G75*
G02*
X147405000Y-108595000I1905000J-1905000D01*
G01*
X146800000Y-110500000D02*
G75*
G03*
X146800000Y-110500000I-1300000J0D01*
G01*
X147296051Y-110500000D02*
G75*
G03*
X147296051Y-110500000I-1796051J0D01*
G01*
D12*
X140540000Y-54560000D02*
X140540000Y-50694000D01*
X142175000Y-54560000D02*
X140540000Y-54560000D01*
X147175000Y-54560000D02*
X146325000Y-54560000D01*
X150461000Y-54560000D02*
X148825000Y-54560000D01*
X150461000Y-42440000D02*
X140540000Y-42440000D01*
X150461000Y-46305000D02*
X150461000Y-42440000D01*
X150461000Y-54560000D02*
X150461000Y-50694000D01*
X140540000Y-46305000D02*
X140540000Y-42440000D01*
X144675000Y-54560000D02*
X143825000Y-54560000D01*
X143202247Y-49928295D02*
G75*
G03*
X147798000Y-49928000I2297753J1928295D01*
G01*
X148262432Y-46828018D02*
G75*
G03*
X142738000Y-46827000I-2762432J-1171982D01*
G01*
D13*
X139020000Y-138500000D03*
X142120000Y-138500000D03*
X150420000Y-138500000D03*
X151980000Y-124400000D03*
X148880000Y-124400000D03*
X140580000Y-124400000D03*
X151980000Y-110500000D03*
X148880000Y-110500000D03*
X140580000Y-110500000D03*
M02*
