%TF.GenerationSoftware,KiCad,Pcbnew,(5.99.0-12348-g4b436fb86d)*%
%TF.CreationDate,2021-09-22T21:55:13+01:00*%
%TF.ProjectId,Ampelope_Controls,416d7065-6c6f-4706-955f-436f6e74726f,rev?*%
%TF.SameCoordinates,Original*%
%TF.FileFunction,Legend,Bot*%
%TF.FilePolarity,Positive*%
%FSLAX46Y46*%
G04 Gerber Fmt 4.6, Leading zero omitted, Abs format (unit mm)*
G04 Created by KiCad (PCBNEW (5.99.0-12348-g4b436fb86d)) date 2021-09-22 21:55:13*
%MOMM*%
%LPD*%
G01*
G04 APERTURE LIST*
%ADD10C,0.150000*%
%ADD11C,0.120000*%
G04 APERTURE END LIST*
D10*
X139333333Y-52261666D02*
X138857142Y-52261666D01*
X139428571Y-52547380D02*
X139095238Y-51547380D01*
X138761904Y-52547380D01*
X138428571Y-52547380D02*
X138428571Y-51880714D01*
X138428571Y-51975952D02*
X138380952Y-51928333D01*
X138285714Y-51880714D01*
X138142857Y-51880714D01*
X138047619Y-51928333D01*
X138000000Y-52023571D01*
X138000000Y-52547380D01*
X138000000Y-52023571D02*
X137952380Y-51928333D01*
X137857142Y-51880714D01*
X137714285Y-51880714D01*
X137619047Y-51928333D01*
X137571428Y-52023571D01*
X137571428Y-52547380D01*
X137095238Y-51880714D02*
X137095238Y-52880714D01*
X137095238Y-51928333D02*
X137000000Y-51880714D01*
X136809523Y-51880714D01*
X136714285Y-51928333D01*
X136666666Y-51975952D01*
X136619047Y-52071190D01*
X136619047Y-52356904D01*
X136666666Y-52452142D01*
X136714285Y-52499761D01*
X136809523Y-52547380D01*
X137000000Y-52547380D01*
X137095238Y-52499761D01*
X135809523Y-52499761D02*
X135904761Y-52547380D01*
X136095238Y-52547380D01*
X136190476Y-52499761D01*
X136238095Y-52404523D01*
X136238095Y-52023571D01*
X136190476Y-51928333D01*
X136095238Y-51880714D01*
X135904761Y-51880714D01*
X135809523Y-51928333D01*
X135761904Y-52023571D01*
X135761904Y-52118809D01*
X136238095Y-52214047D01*
X135190476Y-52547380D02*
X135285714Y-52499761D01*
X135333333Y-52404523D01*
X135333333Y-51547380D01*
X134666666Y-52547380D02*
X134761904Y-52499761D01*
X134809523Y-52452142D01*
X134857142Y-52356904D01*
X134857142Y-52071190D01*
X134809523Y-51975952D01*
X134761904Y-51928333D01*
X134666666Y-51880714D01*
X134523809Y-51880714D01*
X134428571Y-51928333D01*
X134380952Y-51975952D01*
X134333333Y-52071190D01*
X134333333Y-52356904D01*
X134380952Y-52452142D01*
X134428571Y-52499761D01*
X134523809Y-52547380D01*
X134666666Y-52547380D01*
X133904761Y-51880714D02*
X133904761Y-52880714D01*
X133904761Y-51928333D02*
X133809523Y-51880714D01*
X133619047Y-51880714D01*
X133523809Y-51928333D01*
X133476190Y-51975952D01*
X133428571Y-52071190D01*
X133428571Y-52356904D01*
X133476190Y-52452142D01*
X133523809Y-52499761D01*
X133619047Y-52547380D01*
X133809523Y-52547380D01*
X133904761Y-52499761D01*
X132619047Y-52499761D02*
X132714285Y-52547380D01*
X132904761Y-52547380D01*
X133000000Y-52499761D01*
X133047619Y-52404523D01*
X133047619Y-52023571D01*
X133000000Y-51928333D01*
X132904761Y-51880714D01*
X132714285Y-51880714D01*
X132619047Y-51928333D01*
X132571428Y-52023571D01*
X132571428Y-52118809D01*
X133047619Y-52214047D01*
X130809523Y-52452142D02*
X130857142Y-52499761D01*
X131000000Y-52547380D01*
X131095238Y-52547380D01*
X131238095Y-52499761D01*
X131333333Y-52404523D01*
X131380952Y-52309285D01*
X131428571Y-52118809D01*
X131428571Y-51975952D01*
X131380952Y-51785476D01*
X131333333Y-51690238D01*
X131238095Y-51595000D01*
X131095238Y-51547380D01*
X131000000Y-51547380D01*
X130857142Y-51595000D01*
X130809523Y-51642619D01*
X130238095Y-52547380D02*
X130333333Y-52499761D01*
X130380952Y-52452142D01*
X130428571Y-52356904D01*
X130428571Y-52071190D01*
X130380952Y-51975952D01*
X130333333Y-51928333D01*
X130238095Y-51880714D01*
X130095238Y-51880714D01*
X130000000Y-51928333D01*
X129952380Y-51975952D01*
X129904761Y-52071190D01*
X129904761Y-52356904D01*
X129952380Y-52452142D01*
X130000000Y-52499761D01*
X130095238Y-52547380D01*
X130238095Y-52547380D01*
X129476190Y-51880714D02*
X129476190Y-52547380D01*
X129476190Y-51975952D02*
X129428571Y-51928333D01*
X129333333Y-51880714D01*
X129190476Y-51880714D01*
X129095238Y-51928333D01*
X129047619Y-52023571D01*
X129047619Y-52547380D01*
X128714285Y-51880714D02*
X128333333Y-51880714D01*
X128571428Y-51547380D02*
X128571428Y-52404523D01*
X128523809Y-52499761D01*
X128428571Y-52547380D01*
X128333333Y-52547380D01*
X128000000Y-52547380D02*
X128000000Y-51880714D01*
X128000000Y-52071190D02*
X127952380Y-51975952D01*
X127904761Y-51928333D01*
X127809523Y-51880714D01*
X127714285Y-51880714D01*
X127238095Y-52547380D02*
X127333333Y-52499761D01*
X127380952Y-52452142D01*
X127428571Y-52356904D01*
X127428571Y-52071190D01*
X127380952Y-51975952D01*
X127333333Y-51928333D01*
X127238095Y-51880714D01*
X127095238Y-51880714D01*
X127000000Y-51928333D01*
X126952380Y-51975952D01*
X126904761Y-52071190D01*
X126904761Y-52356904D01*
X126952380Y-52452142D01*
X127000000Y-52499761D01*
X127095238Y-52547380D01*
X127238095Y-52547380D01*
X126333333Y-52547380D02*
X126428571Y-52499761D01*
X126476190Y-52404523D01*
X126476190Y-51547380D01*
X126000000Y-52499761D02*
X125904761Y-52547380D01*
X125714285Y-52547380D01*
X125619047Y-52499761D01*
X125571428Y-52404523D01*
X125571428Y-52356904D01*
X125619047Y-52261666D01*
X125714285Y-52214047D01*
X125857142Y-52214047D01*
X125952380Y-52166428D01*
X126000000Y-52071190D01*
X126000000Y-52023571D01*
X125952380Y-51928333D01*
X125857142Y-51880714D01*
X125714285Y-51880714D01*
X125619047Y-51928333D01*
X124476190Y-51880714D02*
X124238095Y-52547380D01*
X124000000Y-51880714D01*
X123095238Y-52547380D02*
X123666666Y-52547380D01*
X123380952Y-52547380D02*
X123380952Y-51547380D01*
X123476190Y-51690238D01*
X123571428Y-51785476D01*
X123666666Y-51833095D01*
X122666666Y-52452142D02*
X122619047Y-52499761D01*
X122666666Y-52547380D01*
X122714285Y-52499761D01*
X122666666Y-52452142D01*
X122666666Y-52547380D01*
X122000000Y-51547380D02*
X121904761Y-51547380D01*
X121809523Y-51595000D01*
X121761904Y-51642619D01*
X121714285Y-51737857D01*
X121666666Y-51928333D01*
X121666666Y-52166428D01*
X121714285Y-52356904D01*
X121761904Y-52452142D01*
X121809523Y-52499761D01*
X121904761Y-52547380D01*
X122000000Y-52547380D01*
X122095238Y-52499761D01*
X122142857Y-52452142D01*
X122190476Y-52356904D01*
X122238095Y-52166428D01*
X122238095Y-51928333D01*
X122190476Y-51737857D01*
X122142857Y-51642619D01*
X122095238Y-51595000D01*
X122000000Y-51547380D01*
X139166666Y-54157380D02*
X139166666Y-53157380D01*
X138833333Y-53871666D01*
X138500000Y-53157380D01*
X138500000Y-54157380D01*
X137880952Y-54157380D02*
X137976190Y-54109761D01*
X138023809Y-54062142D01*
X138071428Y-53966904D01*
X138071428Y-53681190D01*
X138023809Y-53585952D01*
X137976190Y-53538333D01*
X137880952Y-53490714D01*
X137738095Y-53490714D01*
X137642857Y-53538333D01*
X137595238Y-53585952D01*
X137547619Y-53681190D01*
X137547619Y-53966904D01*
X137595238Y-54062142D01*
X137642857Y-54109761D01*
X137738095Y-54157380D01*
X137880952Y-54157380D01*
X136690476Y-53490714D02*
X136690476Y-54157380D01*
X137119047Y-53490714D02*
X137119047Y-54014523D01*
X137071428Y-54109761D01*
X136976190Y-54157380D01*
X136833333Y-54157380D01*
X136738095Y-54109761D01*
X136690476Y-54062142D01*
X136214285Y-53490714D02*
X136214285Y-54157380D01*
X136214285Y-53585952D02*
X136166666Y-53538333D01*
X136071428Y-53490714D01*
X135928571Y-53490714D01*
X135833333Y-53538333D01*
X135785714Y-53633571D01*
X135785714Y-54157380D01*
X135452380Y-53490714D02*
X135071428Y-53490714D01*
X135309523Y-53157380D02*
X135309523Y-54014523D01*
X135261904Y-54109761D01*
X135166666Y-54157380D01*
X135071428Y-54157380D01*
X134738095Y-53490714D02*
X134738095Y-54347857D01*
X134785714Y-54443095D01*
X134880952Y-54490714D01*
X134928571Y-54490714D01*
X134738095Y-53157380D02*
X134785714Y-53205000D01*
X134738095Y-53252619D01*
X134690476Y-53205000D01*
X134738095Y-53157380D01*
X134738095Y-53252619D01*
X134119047Y-54157380D02*
X134214285Y-54109761D01*
X134261904Y-54062142D01*
X134309523Y-53966904D01*
X134309523Y-53681190D01*
X134261904Y-53585952D01*
X134214285Y-53538333D01*
X134119047Y-53490714D01*
X133976190Y-53490714D01*
X133880952Y-53538333D01*
X133833333Y-53585952D01*
X133785714Y-53681190D01*
X133785714Y-53966904D01*
X133833333Y-54062142D01*
X133880952Y-54109761D01*
X133976190Y-54157380D01*
X134119047Y-54157380D01*
X133452380Y-53490714D02*
X133214285Y-54157380D01*
X132976190Y-53490714D02*
X133214285Y-54157380D01*
X133309523Y-54395476D01*
X133357142Y-54443095D01*
X133452380Y-54490714D01*
X131833333Y-54157380D02*
X131833333Y-53157380D01*
X131500000Y-53871666D01*
X131166666Y-53157380D01*
X131166666Y-54157380D01*
X130547619Y-54157380D02*
X130642857Y-54109761D01*
X130690476Y-54062142D01*
X130738095Y-53966904D01*
X130738095Y-53681190D01*
X130690476Y-53585952D01*
X130642857Y-53538333D01*
X130547619Y-53490714D01*
X130404761Y-53490714D01*
X130309523Y-53538333D01*
X130261904Y-53585952D01*
X130214285Y-53681190D01*
X130214285Y-53966904D01*
X130261904Y-54062142D01*
X130309523Y-54109761D01*
X130404761Y-54157380D01*
X130547619Y-54157380D01*
X129357142Y-54157380D02*
X129357142Y-53157380D01*
X129357142Y-54109761D02*
X129452380Y-54157380D01*
X129642857Y-54157380D01*
X129738095Y-54109761D01*
X129785714Y-54062142D01*
X129833333Y-53966904D01*
X129833333Y-53681190D01*
X129785714Y-53585952D01*
X129738095Y-53538333D01*
X129642857Y-53490714D01*
X129452380Y-53490714D01*
X129357142Y-53538333D01*
X128452380Y-53490714D02*
X128452380Y-54157380D01*
X128880952Y-53490714D02*
X128880952Y-54014523D01*
X128833333Y-54109761D01*
X128738095Y-54157380D01*
X128595238Y-54157380D01*
X128500000Y-54109761D01*
X128452380Y-54062142D01*
X127833333Y-54157380D02*
X127928571Y-54109761D01*
X127976190Y-54014523D01*
X127976190Y-53157380D01*
X127023809Y-54157380D02*
X127023809Y-53633571D01*
X127071428Y-53538333D01*
X127166666Y-53490714D01*
X127357142Y-53490714D01*
X127452380Y-53538333D01*
X127023809Y-54109761D02*
X127119047Y-54157380D01*
X127357142Y-54157380D01*
X127452380Y-54109761D01*
X127500000Y-54014523D01*
X127500000Y-53919285D01*
X127452380Y-53824047D01*
X127357142Y-53776428D01*
X127119047Y-53776428D01*
X127023809Y-53728809D01*
X126547619Y-54157380D02*
X126547619Y-53490714D01*
X126547619Y-53681190D02*
X126500000Y-53585952D01*
X126452380Y-53538333D01*
X126357142Y-53490714D01*
X126261904Y-53490714D01*
X125214285Y-53252619D02*
X125166666Y-53205000D01*
X125071428Y-53157380D01*
X124833333Y-53157380D01*
X124738095Y-53205000D01*
X124690476Y-53252619D01*
X124642857Y-53347857D01*
X124642857Y-53443095D01*
X124690476Y-53585952D01*
X125261904Y-54157380D01*
X124642857Y-54157380D01*
X124023809Y-53157380D02*
X123928571Y-53157380D01*
X123833333Y-53205000D01*
X123785714Y-53252619D01*
X123738095Y-53347857D01*
X123690476Y-53538333D01*
X123690476Y-53776428D01*
X123738095Y-53966904D01*
X123785714Y-54062142D01*
X123833333Y-54109761D01*
X123928571Y-54157380D01*
X124023809Y-54157380D01*
X124119047Y-54109761D01*
X124166666Y-54062142D01*
X124214285Y-53966904D01*
X124261904Y-53776428D01*
X124261904Y-53538333D01*
X124214285Y-53347857D01*
X124166666Y-53252619D01*
X124119047Y-53205000D01*
X124023809Y-53157380D01*
X123309523Y-53252619D02*
X123261904Y-53205000D01*
X123166666Y-53157380D01*
X122928571Y-53157380D01*
X122833333Y-53205000D01*
X122785714Y-53252619D01*
X122738095Y-53347857D01*
X122738095Y-53443095D01*
X122785714Y-53585952D01*
X123357142Y-54157380D01*
X122738095Y-54157380D01*
X121785714Y-54157380D02*
X122357142Y-54157380D01*
X122071428Y-54157380D02*
X122071428Y-53157380D01*
X122166666Y-53300238D01*
X122261904Y-53395476D01*
X122357142Y-53443095D01*
%TO.C,J2*%
X158833333Y-98222380D02*
X158833333Y-98936666D01*
X158880952Y-99079523D01*
X158976190Y-99174761D01*
X159119047Y-99222380D01*
X159214285Y-99222380D01*
X158404761Y-98317619D02*
X158357142Y-98270000D01*
X158261904Y-98222380D01*
X158023809Y-98222380D01*
X157928571Y-98270000D01*
X157880952Y-98317619D01*
X157833333Y-98412857D01*
X157833333Y-98508095D01*
X157880952Y-98650952D01*
X158452380Y-99222380D01*
X157833333Y-99222380D01*
%TO.C,J4*%
X102333333Y-98222380D02*
X102333333Y-98936666D01*
X102380952Y-99079523D01*
X102476190Y-99174761D01*
X102619047Y-99222380D01*
X102714285Y-99222380D01*
X101428571Y-98555714D02*
X101428571Y-99222380D01*
X101666666Y-98174761D02*
X101904761Y-98889047D01*
X101285714Y-98889047D01*
%TO.C,J1*%
X158833333Y-82552380D02*
X158833333Y-83266666D01*
X158880952Y-83409523D01*
X158976190Y-83504761D01*
X159119047Y-83552380D01*
X159214285Y-83552380D01*
X157833333Y-83552380D02*
X158404761Y-83552380D01*
X158119047Y-83552380D02*
X158119047Y-82552380D01*
X158214285Y-82695238D01*
X158309523Y-82790476D01*
X158404761Y-82838095D01*
%TO.C,J3*%
X102333333Y-82552380D02*
X102333333Y-83266666D01*
X102380952Y-83409523D01*
X102476190Y-83504761D01*
X102619047Y-83552380D01*
X102714285Y-83552380D01*
X101952380Y-82552380D02*
X101333333Y-82552380D01*
X101666666Y-82933333D01*
X101523809Y-82933333D01*
X101428571Y-82980952D01*
X101380952Y-83028571D01*
X101333333Y-83123809D01*
X101333333Y-83361904D01*
X101380952Y-83457142D01*
X101428571Y-83504761D01*
X101523809Y-83552380D01*
X101809523Y-83552380D01*
X101904761Y-83504761D01*
X101952380Y-83457142D01*
D11*
%TO.C,J2*%
X159830000Y-101100000D02*
X159830000Y-99770000D01*
X159830000Y-102370000D02*
X157170000Y-102370000D01*
X157170000Y-102370000D02*
X157170000Y-130370000D01*
X159830000Y-99770000D02*
X158500000Y-99770000D01*
X159830000Y-130370000D02*
X157170000Y-130370000D01*
X159830000Y-102370000D02*
X159830000Y-130370000D01*
%TO.C,J4*%
X100670000Y-102370000D02*
X100670000Y-130370000D01*
X103330000Y-102370000D02*
X103330000Y-130370000D01*
X103330000Y-130370000D02*
X100670000Y-130370000D01*
X103330000Y-99770000D02*
X102000000Y-99770000D01*
X103330000Y-102370000D02*
X100670000Y-102370000D01*
X103330000Y-101100000D02*
X103330000Y-99770000D01*
%TO.C,J1*%
X159830000Y-53370000D02*
X159830000Y-81370000D01*
X159830000Y-53370000D02*
X157170000Y-53370000D01*
X159830000Y-50770000D02*
X158500000Y-50770000D01*
X159830000Y-52100000D02*
X159830000Y-50770000D01*
X157170000Y-53370000D02*
X157170000Y-81370000D01*
X159830000Y-81370000D02*
X157170000Y-81370000D01*
%TO.C,J3*%
X103330000Y-53370000D02*
X100670000Y-53370000D01*
X103330000Y-50770000D02*
X102000000Y-50770000D01*
X103330000Y-52100000D02*
X103330000Y-50770000D01*
X103330000Y-81370000D02*
X100670000Y-81370000D01*
X103330000Y-53370000D02*
X103330000Y-81370000D01*
X100670000Y-53370000D02*
X100670000Y-81370000D01*
%TD*%
M02*
