M48
; DRILL file {KiCad (5.99.0-12348-g4b436fb86d)} date Thu Sep 23 15:10:37 2021
; FORMAT={-:-/ absolute / metric / decimal}
; #@! TF.CreationDate,2021-09-23T15:10:37+01:00
; #@! TF.GenerationSoftware,Kicad,Pcbnew,(5.99.0-12348-g4b436fb86d)
; #@! TF.FileFunction,NonPlated,1,2,NPTH
FMAT,2
METRIC
; #@! TA.AperFunction,NonPlated,NPTH,ComponentDrill
T1C2.000
; #@! TA.AperFunction,NonPlated,NPTH,ComponentDrill
T2C2.500
%
G90
G05
T1
X105.7Y-57.8
X105.7Y-77.2
X105.7Y-96.6
X105.7Y-116.0
X114.5Y-57.8
X114.5Y-77.2
X114.5Y-96.6
X114.5Y-116.0
X125.9Y-61.9
X134.7Y-61.9
X146.1Y-57.8
X146.1Y-77.2
X146.1Y-96.6
X146.1Y-116.0
X154.9Y-57.8
X154.9Y-77.2
X154.9Y-96.6
X154.9Y-116.0
T2
X105.2Y-138.7
X105.2Y-152.6
X115.2Y-138.7
X115.2Y-152.6
X120.2Y-126.6
X125.2Y-138.6
X125.2Y-152.6
X130.3Y-115.5
X135.2Y-138.6
X135.2Y-152.6
X140.3Y-126.6
X145.2Y-138.6
X145.2Y-152.6
X155.2Y-138.6
X155.2Y-152.6
T0
M30
