%TF.GenerationSoftware,KiCad,Pcbnew,(5.99.0-12348-g4b436fb86d)*%
%TF.CreationDate,2021-09-23T15:10:33+01:00*%
%TF.ProjectId,Ampelope_Controls,416d7065-6c6f-4706-955f-436f6e74726f,rev?*%
%TF.SameCoordinates,Original*%
%TF.FileFunction,Legend,Top*%
%TF.FilePolarity,Positive*%
%FSLAX46Y46*%
G04 Gerber Fmt 4.6, Leading zero omitted, Abs format (unit mm)*
G04 Created by KiCad (PCBNEW (5.99.0-12348-g4b436fb86d)) date 2021-09-23 15:10:33*
%MOMM*%
%LPD*%
G01*
G04 APERTURE LIST*
%ADD10C,0.150000*%
%ADD11C,0.120000*%
%ADD12R,2.500000X1.000000*%
%ADD13R,1.000000X2.500000*%
G04 APERTURE END LIST*
D10*
X145793333Y-106068571D02*
X146126666Y-106068571D01*
X146269523Y-106592380D02*
X145793333Y-106592380D01*
X145793333Y-105592380D01*
X146269523Y-105592380D01*
X146698095Y-105925714D02*
X146698095Y-106592380D01*
X146698095Y-106020952D02*
X146745714Y-105973333D01*
X146840952Y-105925714D01*
X146983809Y-105925714D01*
X147079047Y-105973333D01*
X147126666Y-106068571D01*
X147126666Y-106592380D01*
X147507619Y-105925714D02*
X147745714Y-106592380D01*
X147983809Y-105925714D01*
X148698095Y-106068571D02*
X148840952Y-106116190D01*
X148888571Y-106163809D01*
X148936190Y-106259047D01*
X148936190Y-106401904D01*
X148888571Y-106497142D01*
X148840952Y-106544761D01*
X148745714Y-106592380D01*
X148364761Y-106592380D01*
X148364761Y-105592380D01*
X148698095Y-105592380D01*
X148793333Y-105640000D01*
X148840952Y-105687619D01*
X148888571Y-105782857D01*
X148888571Y-105878095D01*
X148840952Y-105973333D01*
X148793333Y-106020952D01*
X148698095Y-106068571D01*
X148364761Y-106068571D01*
X149126666Y-106687619D02*
X149888571Y-106687619D01*
X150079047Y-106544761D02*
X150221904Y-106592380D01*
X150460000Y-106592380D01*
X150555238Y-106544761D01*
X150602857Y-106497142D01*
X150650476Y-106401904D01*
X150650476Y-106306666D01*
X150602857Y-106211428D01*
X150555238Y-106163809D01*
X150460000Y-106116190D01*
X150269523Y-106068571D01*
X150174285Y-106020952D01*
X150126666Y-105973333D01*
X150079047Y-105878095D01*
X150079047Y-105782857D01*
X150126666Y-105687619D01*
X150174285Y-105640000D01*
X150269523Y-105592380D01*
X150507619Y-105592380D01*
X150650476Y-105640000D01*
X150840952Y-106687619D02*
X151602857Y-106687619D01*
X151840952Y-106592380D02*
X151840952Y-105592380D01*
X152221904Y-105592380D01*
X152317142Y-105640000D01*
X152364761Y-105687619D01*
X152412380Y-105782857D01*
X152412380Y-105925714D01*
X152364761Y-106020952D01*
X152317142Y-106068571D01*
X152221904Y-106116190D01*
X151840952Y-106116190D01*
X153031428Y-105592380D02*
X153221904Y-105592380D01*
X153317142Y-105640000D01*
X153412380Y-105735238D01*
X153460000Y-105925714D01*
X153460000Y-106259047D01*
X153412380Y-106449523D01*
X153317142Y-106544761D01*
X153221904Y-106592380D01*
X153031428Y-106592380D01*
X152936190Y-106544761D01*
X152840952Y-106449523D01*
X152793333Y-106259047D01*
X152793333Y-105925714D01*
X152840952Y-105735238D01*
X152936190Y-105640000D01*
X153031428Y-105592380D01*
X153745714Y-105592380D02*
X154317142Y-105592380D01*
X154031428Y-106592380D02*
X154031428Y-105592380D01*
X155174285Y-106592380D02*
X154602857Y-106592380D01*
X154888571Y-106592380D02*
X154888571Y-105592380D01*
X154793333Y-105735238D01*
X154698095Y-105830476D01*
X154602857Y-105878095D01*
X141819047Y-141766666D02*
X142295238Y-141766666D01*
X141723809Y-142052380D02*
X142057142Y-141052380D01*
X142390476Y-142052380D01*
X143152380Y-141385714D02*
X143152380Y-142052380D01*
X142723809Y-141385714D02*
X142723809Y-141909523D01*
X142771428Y-142004761D01*
X142866666Y-142052380D01*
X143009523Y-142052380D01*
X143104761Y-142004761D01*
X143152380Y-141957142D01*
X144057142Y-142052380D02*
X144057142Y-141052380D01*
X144057142Y-142004761D02*
X143961904Y-142052380D01*
X143771428Y-142052380D01*
X143676190Y-142004761D01*
X143628571Y-141957142D01*
X143580952Y-141861904D01*
X143580952Y-141576190D01*
X143628571Y-141480952D01*
X143676190Y-141433333D01*
X143771428Y-141385714D01*
X143961904Y-141385714D01*
X144057142Y-141433333D01*
X144533333Y-142052380D02*
X144533333Y-141385714D01*
X144533333Y-141052380D02*
X144485714Y-141100000D01*
X144533333Y-141147619D01*
X144580952Y-141100000D01*
X144533333Y-141052380D01*
X144533333Y-141147619D01*
X145152380Y-142052380D02*
X145057142Y-142004761D01*
X145009523Y-141957142D01*
X144961904Y-141861904D01*
X144961904Y-141576190D01*
X145009523Y-141480952D01*
X145057142Y-141433333D01*
X145152380Y-141385714D01*
X145295238Y-141385714D01*
X145390476Y-141433333D01*
X145438095Y-141480952D01*
X145485714Y-141576190D01*
X145485714Y-141861904D01*
X145438095Y-141957142D01*
X145390476Y-142004761D01*
X145295238Y-142052380D01*
X145152380Y-142052380D01*
X145819047Y-141052380D02*
X146438095Y-141052380D01*
X146104761Y-141433333D01*
X146247619Y-141433333D01*
X146342857Y-141480952D01*
X146390476Y-141528571D01*
X146438095Y-141623809D01*
X146438095Y-141861904D01*
X146390476Y-141957142D01*
X146342857Y-142004761D01*
X146247619Y-142052380D01*
X145961904Y-142052380D01*
X145866666Y-142004761D01*
X145819047Y-141957142D01*
X146628571Y-142147619D02*
X147390476Y-142147619D01*
X147628571Y-142052380D02*
X147628571Y-141052380D01*
X148104761Y-141385714D02*
X148104761Y-142052380D01*
X148104761Y-141480952D02*
X148152380Y-141433333D01*
X148247619Y-141385714D01*
X148390476Y-141385714D01*
X148485714Y-141433333D01*
X148533333Y-141528571D01*
X148533333Y-142052380D01*
X120228571Y-98795238D02*
X120228571Y-98461904D01*
X120752380Y-98319047D02*
X120752380Y-98795238D01*
X119752380Y-98795238D01*
X119752380Y-98319047D01*
X119847619Y-97938095D02*
X119800000Y-97890476D01*
X119752380Y-97795238D01*
X119752380Y-97557142D01*
X119800000Y-97461904D01*
X119847619Y-97414285D01*
X119942857Y-97366666D01*
X120038095Y-97366666D01*
X120180952Y-97414285D01*
X120752380Y-97985714D01*
X120752380Y-97366666D01*
X120847619Y-97176190D02*
X120847619Y-96414285D01*
X120752380Y-96176190D02*
X119752380Y-96176190D01*
X120466666Y-95842857D01*
X119752380Y-95509523D01*
X120752380Y-95509523D01*
X119752380Y-94842857D02*
X119752380Y-94652380D01*
X119800000Y-94557142D01*
X119895238Y-94461904D01*
X120085714Y-94414285D01*
X120419047Y-94414285D01*
X120609523Y-94461904D01*
X120704761Y-94557142D01*
X120752380Y-94652380D01*
X120752380Y-94842857D01*
X120704761Y-94938095D01*
X120609523Y-95033333D01*
X120419047Y-95080952D01*
X120085714Y-95080952D01*
X119895238Y-95033333D01*
X119800000Y-94938095D01*
X119752380Y-94842857D01*
X120752380Y-93985714D02*
X119752380Y-93985714D01*
X119752380Y-93747619D01*
X119800000Y-93604761D01*
X119895238Y-93509523D01*
X119990476Y-93461904D01*
X120180952Y-93414285D01*
X120323809Y-93414285D01*
X120514285Y-93461904D01*
X120609523Y-93509523D01*
X120704761Y-93604761D01*
X120752380Y-93747619D01*
X120752380Y-93985714D01*
X120228571Y-92985714D02*
X120228571Y-92652380D01*
X120752380Y-92509523D02*
X120752380Y-92985714D01*
X119752380Y-92985714D01*
X119752380Y-92509523D01*
X120752380Y-91557142D02*
X120752380Y-92128571D01*
X120752380Y-91842857D02*
X119752380Y-91842857D01*
X119895238Y-91938095D01*
X119990476Y-92033333D01*
X120038095Y-92128571D01*
X148309523Y-125468571D02*
X148642857Y-125468571D01*
X148785714Y-125992380D02*
X148309523Y-125992380D01*
X148309523Y-124992380D01*
X148785714Y-124992380D01*
X149214285Y-125325714D02*
X149214285Y-125992380D01*
X149214285Y-125420952D02*
X149261904Y-125373333D01*
X149357142Y-125325714D01*
X149500000Y-125325714D01*
X149595238Y-125373333D01*
X149642857Y-125468571D01*
X149642857Y-125992380D01*
X150023809Y-125325714D02*
X150261904Y-125992380D01*
X150500000Y-125325714D01*
X151214285Y-125468571D02*
X151357142Y-125516190D01*
X151404761Y-125563809D01*
X151452380Y-125659047D01*
X151452380Y-125801904D01*
X151404761Y-125897142D01*
X151357142Y-125944761D01*
X151261904Y-125992380D01*
X150880952Y-125992380D01*
X150880952Y-124992380D01*
X151214285Y-124992380D01*
X151309523Y-125040000D01*
X151357142Y-125087619D01*
X151404761Y-125182857D01*
X151404761Y-125278095D01*
X151357142Y-125373333D01*
X151309523Y-125420952D01*
X151214285Y-125468571D01*
X150880952Y-125468571D01*
X151642857Y-126087619D02*
X152404761Y-126087619D01*
X153214285Y-125992380D02*
X152880952Y-125516190D01*
X152642857Y-125992380D02*
X152642857Y-124992380D01*
X153023809Y-124992380D01*
X153119047Y-125040000D01*
X153166666Y-125087619D01*
X153214285Y-125182857D01*
X153214285Y-125325714D01*
X153166666Y-125420952D01*
X153119047Y-125468571D01*
X153023809Y-125516190D01*
X152642857Y-125516190D01*
X153404761Y-126087619D02*
X154166666Y-126087619D01*
X154404761Y-125992380D02*
X154404761Y-124992380D01*
X154785714Y-124992380D01*
X154880952Y-125040000D01*
X154928571Y-125087619D01*
X154976190Y-125182857D01*
X154976190Y-125325714D01*
X154928571Y-125420952D01*
X154880952Y-125468571D01*
X154785714Y-125516190D01*
X154404761Y-125516190D01*
X155595238Y-124992380D02*
X155785714Y-124992380D01*
X155880952Y-125040000D01*
X155976190Y-125135238D01*
X156023809Y-125325714D01*
X156023809Y-125659047D01*
X155976190Y-125849523D01*
X155880952Y-125944761D01*
X155785714Y-125992380D01*
X155595238Y-125992380D01*
X155500000Y-125944761D01*
X155404761Y-125849523D01*
X155357142Y-125659047D01*
X155357142Y-125325714D01*
X155404761Y-125135238D01*
X155500000Y-125040000D01*
X155595238Y-124992380D01*
X156309523Y-124992380D02*
X156880952Y-124992380D01*
X156595238Y-125992380D02*
X156595238Y-124992380D01*
X157738095Y-125992380D02*
X157166666Y-125992380D01*
X157452380Y-125992380D02*
X157452380Y-124992380D01*
X157357142Y-125135238D01*
X157261904Y-125230476D01*
X157166666Y-125278095D01*
X151247619Y-155766666D02*
X151723809Y-155766666D01*
X151152380Y-156052380D02*
X151485714Y-155052380D01*
X151819047Y-156052380D01*
X152580952Y-155385714D02*
X152580952Y-156052380D01*
X152152380Y-155385714D02*
X152152380Y-155909523D01*
X152200000Y-156004761D01*
X152295238Y-156052380D01*
X152438095Y-156052380D01*
X152533333Y-156004761D01*
X152580952Y-155957142D01*
X153485714Y-156052380D02*
X153485714Y-155052380D01*
X153485714Y-156004761D02*
X153390476Y-156052380D01*
X153200000Y-156052380D01*
X153104761Y-156004761D01*
X153057142Y-155957142D01*
X153009523Y-155861904D01*
X153009523Y-155576190D01*
X153057142Y-155480952D01*
X153104761Y-155433333D01*
X153200000Y-155385714D01*
X153390476Y-155385714D01*
X153485714Y-155433333D01*
X153961904Y-156052380D02*
X153961904Y-155385714D01*
X153961904Y-155052380D02*
X153914285Y-155100000D01*
X153961904Y-155147619D01*
X154009523Y-155100000D01*
X153961904Y-155052380D01*
X153961904Y-155147619D01*
X154580952Y-156052380D02*
X154485714Y-156004761D01*
X154438095Y-155957142D01*
X154390476Y-155861904D01*
X154390476Y-155576190D01*
X154438095Y-155480952D01*
X154485714Y-155433333D01*
X154580952Y-155385714D01*
X154723809Y-155385714D01*
X154819047Y-155433333D01*
X154866666Y-155480952D01*
X154914285Y-155576190D01*
X154914285Y-155861904D01*
X154866666Y-155957142D01*
X154819047Y-156004761D01*
X154723809Y-156052380D01*
X154580952Y-156052380D01*
X155771428Y-155385714D02*
X155771428Y-156052380D01*
X155533333Y-155004761D02*
X155295238Y-155719047D01*
X155914285Y-155719047D01*
X156057142Y-156147619D02*
X156819047Y-156147619D01*
X157247619Y-155052380D02*
X157438095Y-155052380D01*
X157533333Y-155100000D01*
X157628571Y-155195238D01*
X157676190Y-155385714D01*
X157676190Y-155719047D01*
X157628571Y-155909523D01*
X157533333Y-156004761D01*
X157438095Y-156052380D01*
X157247619Y-156052380D01*
X157152380Y-156004761D01*
X157057142Y-155909523D01*
X157009523Y-155719047D01*
X157009523Y-155385714D01*
X157057142Y-155195238D01*
X157152380Y-155100000D01*
X157247619Y-155052380D01*
X158533333Y-155385714D02*
X158533333Y-156052380D01*
X158104761Y-155385714D02*
X158104761Y-155909523D01*
X158152380Y-156004761D01*
X158247619Y-156052380D01*
X158390476Y-156052380D01*
X158485714Y-156004761D01*
X158533333Y-155957142D01*
X158866666Y-155385714D02*
X159247619Y-155385714D01*
X159009523Y-155052380D02*
X159009523Y-155909523D01*
X159057142Y-156004761D01*
X159152380Y-156052380D01*
X159247619Y-156052380D01*
X122747619Y-155100000D02*
X122652380Y-155052380D01*
X122509523Y-155052380D01*
X122366666Y-155100000D01*
X122271428Y-155195238D01*
X122223809Y-155290476D01*
X122176190Y-155480952D01*
X122176190Y-155623809D01*
X122223809Y-155814285D01*
X122271428Y-155909523D01*
X122366666Y-156004761D01*
X122509523Y-156052380D01*
X122604761Y-156052380D01*
X122747619Y-156004761D01*
X122795238Y-155957142D01*
X122795238Y-155623809D01*
X122604761Y-155623809D01*
X123652380Y-156052380D02*
X123652380Y-155528571D01*
X123604761Y-155433333D01*
X123509523Y-155385714D01*
X123319047Y-155385714D01*
X123223809Y-155433333D01*
X123652380Y-156004761D02*
X123557142Y-156052380D01*
X123319047Y-156052380D01*
X123223809Y-156004761D01*
X123176190Y-155909523D01*
X123176190Y-155814285D01*
X123223809Y-155719047D01*
X123319047Y-155671428D01*
X123557142Y-155671428D01*
X123652380Y-155623809D01*
X123985714Y-155385714D02*
X124366666Y-155385714D01*
X124128571Y-155052380D02*
X124128571Y-155909523D01*
X124176190Y-156004761D01*
X124271428Y-156052380D01*
X124366666Y-156052380D01*
X125080952Y-156004761D02*
X124985714Y-156052380D01*
X124795238Y-156052380D01*
X124700000Y-156004761D01*
X124652380Y-155909523D01*
X124652380Y-155528571D01*
X124700000Y-155433333D01*
X124795238Y-155385714D01*
X124985714Y-155385714D01*
X125080952Y-155433333D01*
X125128571Y-155528571D01*
X125128571Y-155623809D01*
X124652380Y-155719047D01*
X125509523Y-155147619D02*
X125557142Y-155100000D01*
X125652380Y-155052380D01*
X125890476Y-155052380D01*
X125985714Y-155100000D01*
X126033333Y-155147619D01*
X126080952Y-155242857D01*
X126080952Y-155338095D01*
X126033333Y-155480952D01*
X125461904Y-156052380D01*
X126080952Y-156052380D01*
X126271428Y-156147619D02*
X127033333Y-156147619D01*
X127271428Y-156052380D02*
X127271428Y-155052380D01*
X127747619Y-155385714D02*
X127747619Y-156052380D01*
X127747619Y-155480952D02*
X127795238Y-155433333D01*
X127890476Y-155385714D01*
X128033333Y-155385714D01*
X128128571Y-155433333D01*
X128176190Y-155528571D01*
X128176190Y-156052380D01*
X111819047Y-155766666D02*
X112295238Y-155766666D01*
X111723809Y-156052380D02*
X112057142Y-155052380D01*
X112390476Y-156052380D01*
X113152380Y-155385714D02*
X113152380Y-156052380D01*
X112723809Y-155385714D02*
X112723809Y-155909523D01*
X112771428Y-156004761D01*
X112866666Y-156052380D01*
X113009523Y-156052380D01*
X113104761Y-156004761D01*
X113152380Y-155957142D01*
X114057142Y-156052380D02*
X114057142Y-155052380D01*
X114057142Y-156004761D02*
X113961904Y-156052380D01*
X113771428Y-156052380D01*
X113676190Y-156004761D01*
X113628571Y-155957142D01*
X113580952Y-155861904D01*
X113580952Y-155576190D01*
X113628571Y-155480952D01*
X113676190Y-155433333D01*
X113771428Y-155385714D01*
X113961904Y-155385714D01*
X114057142Y-155433333D01*
X114533333Y-156052380D02*
X114533333Y-155385714D01*
X114533333Y-155052380D02*
X114485714Y-155100000D01*
X114533333Y-155147619D01*
X114580952Y-155100000D01*
X114533333Y-155052380D01*
X114533333Y-155147619D01*
X115152380Y-156052380D02*
X115057142Y-156004761D01*
X115009523Y-155957142D01*
X114961904Y-155861904D01*
X114961904Y-155576190D01*
X115009523Y-155480952D01*
X115057142Y-155433333D01*
X115152380Y-155385714D01*
X115295238Y-155385714D01*
X115390476Y-155433333D01*
X115438095Y-155480952D01*
X115485714Y-155576190D01*
X115485714Y-155861904D01*
X115438095Y-155957142D01*
X115390476Y-156004761D01*
X115295238Y-156052380D01*
X115152380Y-156052380D01*
X115866666Y-155147619D02*
X115914285Y-155100000D01*
X116009523Y-155052380D01*
X116247619Y-155052380D01*
X116342857Y-155100000D01*
X116390476Y-155147619D01*
X116438095Y-155242857D01*
X116438095Y-155338095D01*
X116390476Y-155480952D01*
X115819047Y-156052380D01*
X116438095Y-156052380D01*
X116628571Y-156147619D02*
X117390476Y-156147619D01*
X117628571Y-156052380D02*
X117628571Y-155052380D01*
X118104761Y-155385714D02*
X118104761Y-156052380D01*
X118104761Y-155480952D02*
X118152380Y-155433333D01*
X118247619Y-155385714D01*
X118390476Y-155385714D01*
X118485714Y-155433333D01*
X118533333Y-155528571D01*
X118533333Y-156052380D01*
X117780952Y-103892380D02*
X117304761Y-103892380D01*
X117304761Y-102892380D01*
X118114285Y-103368571D02*
X118447619Y-103368571D01*
X118590476Y-103892380D02*
X118114285Y-103892380D01*
X118114285Y-102892380D01*
X118590476Y-102892380D01*
X119019047Y-103892380D02*
X119019047Y-102892380D01*
X119257142Y-102892380D01*
X119400000Y-102940000D01*
X119495238Y-103035238D01*
X119542857Y-103130476D01*
X119590476Y-103320952D01*
X119590476Y-103463809D01*
X119542857Y-103654285D01*
X119495238Y-103749523D01*
X119400000Y-103844761D01*
X119257142Y-103892380D01*
X119019047Y-103892380D01*
X119971428Y-102987619D02*
X120019047Y-102940000D01*
X120114285Y-102892380D01*
X120352380Y-102892380D01*
X120447619Y-102940000D01*
X120495238Y-102987619D01*
X120542857Y-103082857D01*
X120542857Y-103178095D01*
X120495238Y-103320952D01*
X119923809Y-103892380D01*
X120542857Y-103892380D01*
X101247619Y-141866666D02*
X101723809Y-141866666D01*
X101152380Y-142152380D02*
X101485714Y-141152380D01*
X101819047Y-142152380D01*
X102580952Y-141485714D02*
X102580952Y-142152380D01*
X102152380Y-141485714D02*
X102152380Y-142009523D01*
X102200000Y-142104761D01*
X102295238Y-142152380D01*
X102438095Y-142152380D01*
X102533333Y-142104761D01*
X102580952Y-142057142D01*
X103485714Y-142152380D02*
X103485714Y-141152380D01*
X103485714Y-142104761D02*
X103390476Y-142152380D01*
X103200000Y-142152380D01*
X103104761Y-142104761D01*
X103057142Y-142057142D01*
X103009523Y-141961904D01*
X103009523Y-141676190D01*
X103057142Y-141580952D01*
X103104761Y-141533333D01*
X103200000Y-141485714D01*
X103390476Y-141485714D01*
X103485714Y-141533333D01*
X103961904Y-142152380D02*
X103961904Y-141485714D01*
X103961904Y-141152380D02*
X103914285Y-141200000D01*
X103961904Y-141247619D01*
X104009523Y-141200000D01*
X103961904Y-141152380D01*
X103961904Y-141247619D01*
X104580952Y-142152380D02*
X104485714Y-142104761D01*
X104438095Y-142057142D01*
X104390476Y-141961904D01*
X104390476Y-141676190D01*
X104438095Y-141580952D01*
X104485714Y-141533333D01*
X104580952Y-141485714D01*
X104723809Y-141485714D01*
X104819047Y-141533333D01*
X104866666Y-141580952D01*
X104914285Y-141676190D01*
X104914285Y-141961904D01*
X104866666Y-142057142D01*
X104819047Y-142104761D01*
X104723809Y-142152380D01*
X104580952Y-142152380D01*
X105866666Y-142152380D02*
X105295238Y-142152380D01*
X105580952Y-142152380D02*
X105580952Y-141152380D01*
X105485714Y-141295238D01*
X105390476Y-141390476D01*
X105295238Y-141438095D01*
X106057142Y-142247619D02*
X106819047Y-142247619D01*
X107247619Y-141152380D02*
X107438095Y-141152380D01*
X107533333Y-141200000D01*
X107628571Y-141295238D01*
X107676190Y-141485714D01*
X107676190Y-141819047D01*
X107628571Y-142009523D01*
X107533333Y-142104761D01*
X107438095Y-142152380D01*
X107247619Y-142152380D01*
X107152380Y-142104761D01*
X107057142Y-142009523D01*
X107009523Y-141819047D01*
X107009523Y-141485714D01*
X107057142Y-141295238D01*
X107152380Y-141200000D01*
X107247619Y-141152380D01*
X108533333Y-141485714D02*
X108533333Y-142152380D01*
X108104761Y-141485714D02*
X108104761Y-142009523D01*
X108152380Y-142104761D01*
X108247619Y-142152380D01*
X108390476Y-142152380D01*
X108485714Y-142104761D01*
X108533333Y-142057142D01*
X108866666Y-141485714D02*
X109247619Y-141485714D01*
X109009523Y-141152380D02*
X109009523Y-142009523D01*
X109057142Y-142104761D01*
X109152380Y-142152380D01*
X109247619Y-142152380D01*
X132747619Y-141100000D02*
X132652380Y-141052380D01*
X132509523Y-141052380D01*
X132366666Y-141100000D01*
X132271428Y-141195238D01*
X132223809Y-141290476D01*
X132176190Y-141480952D01*
X132176190Y-141623809D01*
X132223809Y-141814285D01*
X132271428Y-141909523D01*
X132366666Y-142004761D01*
X132509523Y-142052380D01*
X132604761Y-142052380D01*
X132747619Y-142004761D01*
X132795238Y-141957142D01*
X132795238Y-141623809D01*
X132604761Y-141623809D01*
X133652380Y-142052380D02*
X133652380Y-141528571D01*
X133604761Y-141433333D01*
X133509523Y-141385714D01*
X133319047Y-141385714D01*
X133223809Y-141433333D01*
X133652380Y-142004761D02*
X133557142Y-142052380D01*
X133319047Y-142052380D01*
X133223809Y-142004761D01*
X133176190Y-141909523D01*
X133176190Y-141814285D01*
X133223809Y-141719047D01*
X133319047Y-141671428D01*
X133557142Y-141671428D01*
X133652380Y-141623809D01*
X133985714Y-141385714D02*
X134366666Y-141385714D01*
X134128571Y-141052380D02*
X134128571Y-141909523D01*
X134176190Y-142004761D01*
X134271428Y-142052380D01*
X134366666Y-142052380D01*
X135080952Y-142004761D02*
X134985714Y-142052380D01*
X134795238Y-142052380D01*
X134700000Y-142004761D01*
X134652380Y-141909523D01*
X134652380Y-141528571D01*
X134700000Y-141433333D01*
X134795238Y-141385714D01*
X134985714Y-141385714D01*
X135080952Y-141433333D01*
X135128571Y-141528571D01*
X135128571Y-141623809D01*
X134652380Y-141719047D01*
X135461904Y-141052380D02*
X136080952Y-141052380D01*
X135747619Y-141433333D01*
X135890476Y-141433333D01*
X135985714Y-141480952D01*
X136033333Y-141528571D01*
X136080952Y-141623809D01*
X136080952Y-141861904D01*
X136033333Y-141957142D01*
X135985714Y-142004761D01*
X135890476Y-142052380D01*
X135604761Y-142052380D01*
X135509523Y-142004761D01*
X135461904Y-141957142D01*
X136271428Y-142147619D02*
X137033333Y-142147619D01*
X137271428Y-142052380D02*
X137271428Y-141052380D01*
X137747619Y-141385714D02*
X137747619Y-142052380D01*
X137747619Y-141480952D02*
X137795238Y-141433333D01*
X137890476Y-141385714D01*
X138033333Y-141385714D01*
X138128571Y-141433333D01*
X138176190Y-141528571D01*
X138176190Y-142052380D01*
X117780952Y-65592380D02*
X117304761Y-65592380D01*
X117304761Y-64592380D01*
X118114285Y-65068571D02*
X118447619Y-65068571D01*
X118590476Y-65592380D02*
X118114285Y-65592380D01*
X118114285Y-64592380D01*
X118590476Y-64592380D01*
X119019047Y-65592380D02*
X119019047Y-64592380D01*
X119257142Y-64592380D01*
X119400000Y-64640000D01*
X119495238Y-64735238D01*
X119542857Y-64830476D01*
X119590476Y-65020952D01*
X119590476Y-65163809D01*
X119542857Y-65354285D01*
X119495238Y-65449523D01*
X119400000Y-65544761D01*
X119257142Y-65592380D01*
X119019047Y-65592380D01*
X120542857Y-65592380D02*
X119971428Y-65592380D01*
X120257142Y-65592380D02*
X120257142Y-64592380D01*
X120161904Y-64735238D01*
X120066666Y-64830476D01*
X119971428Y-64878095D01*
X117783333Y-120928571D02*
X118116666Y-120928571D01*
X118259523Y-121452380D02*
X117783333Y-121452380D01*
X117783333Y-120452380D01*
X118259523Y-120452380D01*
X118688095Y-120785714D02*
X118688095Y-121452380D01*
X118688095Y-120880952D02*
X118735714Y-120833333D01*
X118830952Y-120785714D01*
X118973809Y-120785714D01*
X119069047Y-120833333D01*
X119116666Y-120928571D01*
X119116666Y-121452380D01*
X119497619Y-120785714D02*
X119735714Y-121452380D01*
X119973809Y-120785714D01*
X120878571Y-121452380D02*
X120307142Y-121452380D01*
X120592857Y-121452380D02*
X120592857Y-120452380D01*
X120497619Y-120595238D01*
X120402380Y-120690476D01*
X120307142Y-120738095D01*
X121069047Y-121547619D02*
X121830952Y-121547619D01*
X122259523Y-120452380D02*
X122450000Y-120452380D01*
X122545238Y-120500000D01*
X122640476Y-120595238D01*
X122688095Y-120785714D01*
X122688095Y-121119047D01*
X122640476Y-121309523D01*
X122545238Y-121404761D01*
X122450000Y-121452380D01*
X122259523Y-121452380D01*
X122164285Y-121404761D01*
X122069047Y-121309523D01*
X122021428Y-121119047D01*
X122021428Y-120785714D01*
X122069047Y-120595238D01*
X122164285Y-120500000D01*
X122259523Y-120452380D01*
X123545238Y-120785714D02*
X123545238Y-121452380D01*
X123116666Y-120785714D02*
X123116666Y-121309523D01*
X123164285Y-121404761D01*
X123259523Y-121452380D01*
X123402380Y-121452380D01*
X123497619Y-121404761D01*
X123545238Y-121357142D01*
X123878571Y-120785714D02*
X124259523Y-120785714D01*
X124021428Y-120452380D02*
X124021428Y-121309523D01*
X124069047Y-121404761D01*
X124164285Y-121452380D01*
X124259523Y-121452380D01*
X105512380Y-67268571D02*
X105845714Y-67268571D01*
X105988571Y-67792380D02*
X105512380Y-67792380D01*
X105512380Y-66792380D01*
X105988571Y-66792380D01*
X106417142Y-67125714D02*
X106417142Y-67792380D01*
X106417142Y-67220952D02*
X106464761Y-67173333D01*
X106560000Y-67125714D01*
X106702857Y-67125714D01*
X106798095Y-67173333D01*
X106845714Y-67268571D01*
X106845714Y-67792380D01*
X107226666Y-67125714D02*
X107464761Y-67792380D01*
X107702857Y-67125714D01*
X108036190Y-67506666D02*
X108512380Y-67506666D01*
X107940952Y-67792380D02*
X108274285Y-66792380D01*
X108607619Y-67792380D01*
X108702857Y-67887619D02*
X109464761Y-67887619D01*
X109655238Y-67506666D02*
X110131428Y-67506666D01*
X109560000Y-67792380D02*
X109893333Y-66792380D01*
X110226666Y-67792380D01*
X110321904Y-67887619D02*
X111083809Y-67887619D01*
X111321904Y-67792380D02*
X111321904Y-66792380D01*
X111702857Y-66792380D01*
X111798095Y-66840000D01*
X111845714Y-66887619D01*
X111893333Y-66982857D01*
X111893333Y-67125714D01*
X111845714Y-67220952D01*
X111798095Y-67268571D01*
X111702857Y-67316190D01*
X111321904Y-67316190D01*
X112512380Y-66792380D02*
X112702857Y-66792380D01*
X112798095Y-66840000D01*
X112893333Y-66935238D01*
X112940952Y-67125714D01*
X112940952Y-67459047D01*
X112893333Y-67649523D01*
X112798095Y-67744761D01*
X112702857Y-67792380D01*
X112512380Y-67792380D01*
X112417142Y-67744761D01*
X112321904Y-67649523D01*
X112274285Y-67459047D01*
X112274285Y-67125714D01*
X112321904Y-66935238D01*
X112417142Y-66840000D01*
X112512380Y-66792380D01*
X113226666Y-66792380D02*
X113798095Y-66792380D01*
X113512380Y-67792380D02*
X113512380Y-66792380D01*
X114655238Y-67792380D02*
X114083809Y-67792380D01*
X114369523Y-67792380D02*
X114369523Y-66792380D01*
X114274285Y-66935238D01*
X114179047Y-67030476D01*
X114083809Y-67078095D01*
X141819047Y-155766666D02*
X142295238Y-155766666D01*
X141723809Y-156052380D02*
X142057142Y-155052380D01*
X142390476Y-156052380D01*
X143152380Y-155385714D02*
X143152380Y-156052380D01*
X142723809Y-155385714D02*
X142723809Y-155909523D01*
X142771428Y-156004761D01*
X142866666Y-156052380D01*
X143009523Y-156052380D01*
X143104761Y-156004761D01*
X143152380Y-155957142D01*
X144057142Y-156052380D02*
X144057142Y-155052380D01*
X144057142Y-156004761D02*
X143961904Y-156052380D01*
X143771428Y-156052380D01*
X143676190Y-156004761D01*
X143628571Y-155957142D01*
X143580952Y-155861904D01*
X143580952Y-155576190D01*
X143628571Y-155480952D01*
X143676190Y-155433333D01*
X143771428Y-155385714D01*
X143961904Y-155385714D01*
X144057142Y-155433333D01*
X144533333Y-156052380D02*
X144533333Y-155385714D01*
X144533333Y-155052380D02*
X144485714Y-155100000D01*
X144533333Y-155147619D01*
X144580952Y-155100000D01*
X144533333Y-155052380D01*
X144533333Y-155147619D01*
X145152380Y-156052380D02*
X145057142Y-156004761D01*
X145009523Y-155957142D01*
X144961904Y-155861904D01*
X144961904Y-155576190D01*
X145009523Y-155480952D01*
X145057142Y-155433333D01*
X145152380Y-155385714D01*
X145295238Y-155385714D01*
X145390476Y-155433333D01*
X145438095Y-155480952D01*
X145485714Y-155576190D01*
X145485714Y-155861904D01*
X145438095Y-155957142D01*
X145390476Y-156004761D01*
X145295238Y-156052380D01*
X145152380Y-156052380D01*
X146342857Y-155385714D02*
X146342857Y-156052380D01*
X146104761Y-155004761D02*
X145866666Y-155719047D01*
X146485714Y-155719047D01*
X146628571Y-156147619D02*
X147390476Y-156147619D01*
X147628571Y-156052380D02*
X147628571Y-155052380D01*
X148104761Y-155385714D02*
X148104761Y-156052380D01*
X148104761Y-155480952D02*
X148152380Y-155433333D01*
X148247619Y-155385714D01*
X148390476Y-155385714D01*
X148485714Y-155433333D01*
X148533333Y-155528571D01*
X148533333Y-156052380D01*
X122747619Y-141100000D02*
X122652380Y-141052380D01*
X122509523Y-141052380D01*
X122366666Y-141100000D01*
X122271428Y-141195238D01*
X122223809Y-141290476D01*
X122176190Y-141480952D01*
X122176190Y-141623809D01*
X122223809Y-141814285D01*
X122271428Y-141909523D01*
X122366666Y-142004761D01*
X122509523Y-142052380D01*
X122604761Y-142052380D01*
X122747619Y-142004761D01*
X122795238Y-141957142D01*
X122795238Y-141623809D01*
X122604761Y-141623809D01*
X123652380Y-142052380D02*
X123652380Y-141528571D01*
X123604761Y-141433333D01*
X123509523Y-141385714D01*
X123319047Y-141385714D01*
X123223809Y-141433333D01*
X123652380Y-142004761D02*
X123557142Y-142052380D01*
X123319047Y-142052380D01*
X123223809Y-142004761D01*
X123176190Y-141909523D01*
X123176190Y-141814285D01*
X123223809Y-141719047D01*
X123319047Y-141671428D01*
X123557142Y-141671428D01*
X123652380Y-141623809D01*
X123985714Y-141385714D02*
X124366666Y-141385714D01*
X124128571Y-141052380D02*
X124128571Y-141909523D01*
X124176190Y-142004761D01*
X124271428Y-142052380D01*
X124366666Y-142052380D01*
X125080952Y-142004761D02*
X124985714Y-142052380D01*
X124795238Y-142052380D01*
X124700000Y-142004761D01*
X124652380Y-141909523D01*
X124652380Y-141528571D01*
X124700000Y-141433333D01*
X124795238Y-141385714D01*
X124985714Y-141385714D01*
X125080952Y-141433333D01*
X125128571Y-141528571D01*
X125128571Y-141623809D01*
X124652380Y-141719047D01*
X126080952Y-142052380D02*
X125509523Y-142052380D01*
X125795238Y-142052380D02*
X125795238Y-141052380D01*
X125700000Y-141195238D01*
X125604761Y-141290476D01*
X125509523Y-141338095D01*
X126271428Y-142147619D02*
X127033333Y-142147619D01*
X127271428Y-142052380D02*
X127271428Y-141052380D01*
X127747619Y-141385714D02*
X127747619Y-142052380D01*
X127747619Y-141480952D02*
X127795238Y-141433333D01*
X127890476Y-141385714D01*
X128033333Y-141385714D01*
X128128571Y-141433333D01*
X128176190Y-141528571D01*
X128176190Y-142052380D01*
X136833333Y-120928571D02*
X137166666Y-120928571D01*
X137309523Y-121452380D02*
X136833333Y-121452380D01*
X136833333Y-120452380D01*
X137309523Y-120452380D01*
X137738095Y-120785714D02*
X137738095Y-121452380D01*
X137738095Y-120880952D02*
X137785714Y-120833333D01*
X137880952Y-120785714D01*
X138023809Y-120785714D01*
X138119047Y-120833333D01*
X138166666Y-120928571D01*
X138166666Y-121452380D01*
X138547619Y-120785714D02*
X138785714Y-121452380D01*
X139023809Y-120785714D01*
X139309523Y-120452380D02*
X139928571Y-120452380D01*
X139595238Y-120833333D01*
X139738095Y-120833333D01*
X139833333Y-120880952D01*
X139880952Y-120928571D01*
X139928571Y-121023809D01*
X139928571Y-121261904D01*
X139880952Y-121357142D01*
X139833333Y-121404761D01*
X139738095Y-121452380D01*
X139452380Y-121452380D01*
X139357142Y-121404761D01*
X139309523Y-121357142D01*
X140119047Y-121547619D02*
X140880952Y-121547619D01*
X141309523Y-120452380D02*
X141500000Y-120452380D01*
X141595238Y-120500000D01*
X141690476Y-120595238D01*
X141738095Y-120785714D01*
X141738095Y-121119047D01*
X141690476Y-121309523D01*
X141595238Y-121404761D01*
X141500000Y-121452380D01*
X141309523Y-121452380D01*
X141214285Y-121404761D01*
X141119047Y-121309523D01*
X141071428Y-121119047D01*
X141071428Y-120785714D01*
X141119047Y-120595238D01*
X141214285Y-120500000D01*
X141309523Y-120452380D01*
X142595238Y-120785714D02*
X142595238Y-121452380D01*
X142166666Y-120785714D02*
X142166666Y-121309523D01*
X142214285Y-121404761D01*
X142309523Y-121452380D01*
X142452380Y-121452380D01*
X142547619Y-121404761D01*
X142595238Y-121357142D01*
X142928571Y-120785714D02*
X143309523Y-120785714D01*
X143071428Y-120452380D02*
X143071428Y-121309523D01*
X143119047Y-121404761D01*
X143214285Y-121452380D01*
X143309523Y-121452380D01*
X120228571Y-82895238D02*
X120228571Y-82561904D01*
X120752380Y-82419047D02*
X120752380Y-82895238D01*
X119752380Y-82895238D01*
X119752380Y-82419047D01*
X120752380Y-81466666D02*
X120752380Y-82038095D01*
X120752380Y-81752380D02*
X119752380Y-81752380D01*
X119895238Y-81847619D01*
X119990476Y-81942857D01*
X120038095Y-82038095D01*
X120847619Y-81276190D02*
X120847619Y-80514285D01*
X120752380Y-80276190D02*
X119752380Y-80276190D01*
X120466666Y-79942857D01*
X119752380Y-79609523D01*
X120752380Y-79609523D01*
X119752380Y-78942857D02*
X119752380Y-78752380D01*
X119800000Y-78657142D01*
X119895238Y-78561904D01*
X120085714Y-78514285D01*
X120419047Y-78514285D01*
X120609523Y-78561904D01*
X120704761Y-78657142D01*
X120752380Y-78752380D01*
X120752380Y-78942857D01*
X120704761Y-79038095D01*
X120609523Y-79133333D01*
X120419047Y-79180952D01*
X120085714Y-79180952D01*
X119895238Y-79133333D01*
X119800000Y-79038095D01*
X119752380Y-78942857D01*
X120752380Y-78085714D02*
X119752380Y-78085714D01*
X119752380Y-77847619D01*
X119800000Y-77704761D01*
X119895238Y-77609523D01*
X119990476Y-77561904D01*
X120180952Y-77514285D01*
X120323809Y-77514285D01*
X120514285Y-77561904D01*
X120609523Y-77609523D01*
X120704761Y-77704761D01*
X120752380Y-77847619D01*
X120752380Y-78085714D01*
X120228571Y-77085714D02*
X120228571Y-76752380D01*
X120752380Y-76609523D02*
X120752380Y-77085714D01*
X119752380Y-77085714D01*
X119752380Y-76609523D01*
X120752380Y-75657142D02*
X120752380Y-76228571D01*
X120752380Y-75942857D02*
X119752380Y-75942857D01*
X119895238Y-76038095D01*
X119990476Y-76133333D01*
X120038095Y-76228571D01*
X127355238Y-71892380D02*
X126879047Y-71892380D01*
X126879047Y-70892380D01*
X128021904Y-71368571D02*
X127688571Y-71368571D01*
X127688571Y-71892380D02*
X127688571Y-70892380D01*
X128164761Y-70892380D01*
X128736190Y-70892380D02*
X128926666Y-70892380D01*
X129021904Y-70940000D01*
X129117142Y-71035238D01*
X129164761Y-71225714D01*
X129164761Y-71559047D01*
X129117142Y-71749523D01*
X129021904Y-71844761D01*
X128926666Y-71892380D01*
X128736190Y-71892380D01*
X128640952Y-71844761D01*
X128545714Y-71749523D01*
X128498095Y-71559047D01*
X128498095Y-71225714D01*
X128545714Y-71035238D01*
X128640952Y-70940000D01*
X128736190Y-70892380D01*
X129355238Y-71987619D02*
X130117142Y-71987619D01*
X130355238Y-71892380D02*
X130355238Y-70892380D01*
X130736190Y-70892380D01*
X130831428Y-70940000D01*
X130879047Y-70987619D01*
X130926666Y-71082857D01*
X130926666Y-71225714D01*
X130879047Y-71320952D01*
X130831428Y-71368571D01*
X130736190Y-71416190D01*
X130355238Y-71416190D01*
X131545714Y-70892380D02*
X131736190Y-70892380D01*
X131831428Y-70940000D01*
X131926666Y-71035238D01*
X131974285Y-71225714D01*
X131974285Y-71559047D01*
X131926666Y-71749523D01*
X131831428Y-71844761D01*
X131736190Y-71892380D01*
X131545714Y-71892380D01*
X131450476Y-71844761D01*
X131355238Y-71749523D01*
X131307619Y-71559047D01*
X131307619Y-71225714D01*
X131355238Y-71035238D01*
X131450476Y-70940000D01*
X131545714Y-70892380D01*
X132260000Y-70892380D02*
X132831428Y-70892380D01*
X132545714Y-71892380D02*
X132545714Y-70892380D01*
X133688571Y-71892380D02*
X133117142Y-71892380D01*
X133402857Y-71892380D02*
X133402857Y-70892380D01*
X133307619Y-71035238D01*
X133212380Y-71130476D01*
X133117142Y-71178095D01*
X103380952Y-125468571D02*
X103714285Y-125468571D01*
X103857142Y-125992380D02*
X103380952Y-125992380D01*
X103380952Y-124992380D01*
X103857142Y-124992380D01*
X104285714Y-125325714D02*
X104285714Y-125992380D01*
X104285714Y-125420952D02*
X104333333Y-125373333D01*
X104428571Y-125325714D01*
X104571428Y-125325714D01*
X104666666Y-125373333D01*
X104714285Y-125468571D01*
X104714285Y-125992380D01*
X105095238Y-125325714D02*
X105333333Y-125992380D01*
X105571428Y-125325714D01*
X105904761Y-125706666D02*
X106380952Y-125706666D01*
X105809523Y-125992380D02*
X106142857Y-124992380D01*
X106476190Y-125992380D01*
X106571428Y-126087619D02*
X107333333Y-126087619D01*
X108142857Y-125992380D02*
X107809523Y-125516190D01*
X107571428Y-125992380D02*
X107571428Y-124992380D01*
X107952380Y-124992380D01*
X108047619Y-125040000D01*
X108095238Y-125087619D01*
X108142857Y-125182857D01*
X108142857Y-125325714D01*
X108095238Y-125420952D01*
X108047619Y-125468571D01*
X107952380Y-125516190D01*
X107571428Y-125516190D01*
X108333333Y-126087619D02*
X109095238Y-126087619D01*
X109333333Y-125992380D02*
X109333333Y-124992380D01*
X109714285Y-124992380D01*
X109809523Y-125040000D01*
X109857142Y-125087619D01*
X109904761Y-125182857D01*
X109904761Y-125325714D01*
X109857142Y-125420952D01*
X109809523Y-125468571D01*
X109714285Y-125516190D01*
X109333333Y-125516190D01*
X110523809Y-124992380D02*
X110714285Y-124992380D01*
X110809523Y-125040000D01*
X110904761Y-125135238D01*
X110952380Y-125325714D01*
X110952380Y-125659047D01*
X110904761Y-125849523D01*
X110809523Y-125944761D01*
X110714285Y-125992380D01*
X110523809Y-125992380D01*
X110428571Y-125944761D01*
X110333333Y-125849523D01*
X110285714Y-125659047D01*
X110285714Y-125325714D01*
X110333333Y-125135238D01*
X110428571Y-125040000D01*
X110523809Y-124992380D01*
X111238095Y-124992380D02*
X111809523Y-124992380D01*
X111523809Y-125992380D02*
X111523809Y-124992380D01*
X112666666Y-125992380D02*
X112095238Y-125992380D01*
X112380952Y-125992380D02*
X112380952Y-124992380D01*
X112285714Y-125135238D01*
X112190476Y-125230476D01*
X112095238Y-125278095D01*
X145769523Y-86668571D02*
X146102857Y-86668571D01*
X146245714Y-87192380D02*
X145769523Y-87192380D01*
X145769523Y-86192380D01*
X146245714Y-86192380D01*
X146674285Y-86525714D02*
X146674285Y-87192380D01*
X146674285Y-86620952D02*
X146721904Y-86573333D01*
X146817142Y-86525714D01*
X146960000Y-86525714D01*
X147055238Y-86573333D01*
X147102857Y-86668571D01*
X147102857Y-87192380D01*
X147483809Y-86525714D02*
X147721904Y-87192380D01*
X147960000Y-86525714D01*
X148674285Y-86668571D02*
X148817142Y-86716190D01*
X148864761Y-86763809D01*
X148912380Y-86859047D01*
X148912380Y-87001904D01*
X148864761Y-87097142D01*
X148817142Y-87144761D01*
X148721904Y-87192380D01*
X148340952Y-87192380D01*
X148340952Y-86192380D01*
X148674285Y-86192380D01*
X148769523Y-86240000D01*
X148817142Y-86287619D01*
X148864761Y-86382857D01*
X148864761Y-86478095D01*
X148817142Y-86573333D01*
X148769523Y-86620952D01*
X148674285Y-86668571D01*
X148340952Y-86668571D01*
X149102857Y-87287619D02*
X149864761Y-87287619D01*
X150102857Y-87192380D02*
X150102857Y-86192380D01*
X150340952Y-86192380D01*
X150483809Y-86240000D01*
X150579047Y-86335238D01*
X150626666Y-86430476D01*
X150674285Y-86620952D01*
X150674285Y-86763809D01*
X150626666Y-86954285D01*
X150579047Y-87049523D01*
X150483809Y-87144761D01*
X150340952Y-87192380D01*
X150102857Y-87192380D01*
X150864761Y-87287619D02*
X151626666Y-87287619D01*
X151864761Y-87192380D02*
X151864761Y-86192380D01*
X152245714Y-86192380D01*
X152340952Y-86240000D01*
X152388571Y-86287619D01*
X152436190Y-86382857D01*
X152436190Y-86525714D01*
X152388571Y-86620952D01*
X152340952Y-86668571D01*
X152245714Y-86716190D01*
X151864761Y-86716190D01*
X153055238Y-86192380D02*
X153245714Y-86192380D01*
X153340952Y-86240000D01*
X153436190Y-86335238D01*
X153483809Y-86525714D01*
X153483809Y-86859047D01*
X153436190Y-87049523D01*
X153340952Y-87144761D01*
X153245714Y-87192380D01*
X153055238Y-87192380D01*
X152960000Y-87144761D01*
X152864761Y-87049523D01*
X152817142Y-86859047D01*
X152817142Y-86525714D01*
X152864761Y-86335238D01*
X152960000Y-86240000D01*
X153055238Y-86192380D01*
X153769523Y-86192380D02*
X154340952Y-86192380D01*
X154055238Y-87192380D02*
X154055238Y-86192380D01*
X155198095Y-87192380D02*
X154626666Y-87192380D01*
X154912380Y-87192380D02*
X154912380Y-86192380D01*
X154817142Y-86335238D01*
X154721904Y-86430476D01*
X154626666Y-86478095D01*
X105464761Y-106068571D02*
X105798095Y-106068571D01*
X105940952Y-106592380D02*
X105464761Y-106592380D01*
X105464761Y-105592380D01*
X105940952Y-105592380D01*
X106369523Y-105925714D02*
X106369523Y-106592380D01*
X106369523Y-106020952D02*
X106417142Y-105973333D01*
X106512380Y-105925714D01*
X106655238Y-105925714D01*
X106750476Y-105973333D01*
X106798095Y-106068571D01*
X106798095Y-106592380D01*
X107179047Y-105925714D02*
X107417142Y-106592380D01*
X107655238Y-105925714D01*
X107988571Y-106306666D02*
X108464761Y-106306666D01*
X107893333Y-106592380D02*
X108226666Y-105592380D01*
X108560000Y-106592380D01*
X108655238Y-106687619D02*
X109417142Y-106687619D01*
X109607619Y-106544761D02*
X109750476Y-106592380D01*
X109988571Y-106592380D01*
X110083809Y-106544761D01*
X110131428Y-106497142D01*
X110179047Y-106401904D01*
X110179047Y-106306666D01*
X110131428Y-106211428D01*
X110083809Y-106163809D01*
X109988571Y-106116190D01*
X109798095Y-106068571D01*
X109702857Y-106020952D01*
X109655238Y-105973333D01*
X109607619Y-105878095D01*
X109607619Y-105782857D01*
X109655238Y-105687619D01*
X109702857Y-105640000D01*
X109798095Y-105592380D01*
X110036190Y-105592380D01*
X110179047Y-105640000D01*
X110369523Y-106687619D02*
X111131428Y-106687619D01*
X111369523Y-106592380D02*
X111369523Y-105592380D01*
X111750476Y-105592380D01*
X111845714Y-105640000D01*
X111893333Y-105687619D01*
X111940952Y-105782857D01*
X111940952Y-105925714D01*
X111893333Y-106020952D01*
X111845714Y-106068571D01*
X111750476Y-106116190D01*
X111369523Y-106116190D01*
X112560000Y-105592380D02*
X112750476Y-105592380D01*
X112845714Y-105640000D01*
X112940952Y-105735238D01*
X112988571Y-105925714D01*
X112988571Y-106259047D01*
X112940952Y-106449523D01*
X112845714Y-106544761D01*
X112750476Y-106592380D01*
X112560000Y-106592380D01*
X112464761Y-106544761D01*
X112369523Y-106449523D01*
X112321904Y-106259047D01*
X112321904Y-105925714D01*
X112369523Y-105735238D01*
X112464761Y-105640000D01*
X112560000Y-105592380D01*
X113274285Y-105592380D02*
X113845714Y-105592380D01*
X113560000Y-106592380D02*
X113560000Y-105592380D01*
X114702857Y-106592380D02*
X114131428Y-106592380D01*
X114417142Y-106592380D02*
X114417142Y-105592380D01*
X114321904Y-105735238D01*
X114226666Y-105830476D01*
X114131428Y-105878095D01*
X105440952Y-86668571D02*
X105774285Y-86668571D01*
X105917142Y-87192380D02*
X105440952Y-87192380D01*
X105440952Y-86192380D01*
X105917142Y-86192380D01*
X106345714Y-86525714D02*
X106345714Y-87192380D01*
X106345714Y-86620952D02*
X106393333Y-86573333D01*
X106488571Y-86525714D01*
X106631428Y-86525714D01*
X106726666Y-86573333D01*
X106774285Y-86668571D01*
X106774285Y-87192380D01*
X107155238Y-86525714D02*
X107393333Y-87192380D01*
X107631428Y-86525714D01*
X107964761Y-86906666D02*
X108440952Y-86906666D01*
X107869523Y-87192380D02*
X108202857Y-86192380D01*
X108536190Y-87192380D01*
X108631428Y-87287619D02*
X109393333Y-87287619D01*
X109631428Y-87192380D02*
X109631428Y-86192380D01*
X109869523Y-86192380D01*
X110012380Y-86240000D01*
X110107619Y-86335238D01*
X110155238Y-86430476D01*
X110202857Y-86620952D01*
X110202857Y-86763809D01*
X110155238Y-86954285D01*
X110107619Y-87049523D01*
X110012380Y-87144761D01*
X109869523Y-87192380D01*
X109631428Y-87192380D01*
X110393333Y-87287619D02*
X111155238Y-87287619D01*
X111393333Y-87192380D02*
X111393333Y-86192380D01*
X111774285Y-86192380D01*
X111869523Y-86240000D01*
X111917142Y-86287619D01*
X111964761Y-86382857D01*
X111964761Y-86525714D01*
X111917142Y-86620952D01*
X111869523Y-86668571D01*
X111774285Y-86716190D01*
X111393333Y-86716190D01*
X112583809Y-86192380D02*
X112774285Y-86192380D01*
X112869523Y-86240000D01*
X112964761Y-86335238D01*
X113012380Y-86525714D01*
X113012380Y-86859047D01*
X112964761Y-87049523D01*
X112869523Y-87144761D01*
X112774285Y-87192380D01*
X112583809Y-87192380D01*
X112488571Y-87144761D01*
X112393333Y-87049523D01*
X112345714Y-86859047D01*
X112345714Y-86525714D01*
X112393333Y-86335238D01*
X112488571Y-86240000D01*
X112583809Y-86192380D01*
X113298095Y-86192380D02*
X113869523Y-86192380D01*
X113583809Y-87192380D02*
X113583809Y-86192380D01*
X114726666Y-87192380D02*
X114155238Y-87192380D01*
X114440952Y-87192380D02*
X114440952Y-86192380D01*
X114345714Y-86335238D01*
X114250476Y-86430476D01*
X114155238Y-86478095D01*
X133028571Y-82895238D02*
X133028571Y-82561904D01*
X133552380Y-82419047D02*
X133552380Y-82895238D01*
X132552380Y-82895238D01*
X132552380Y-82419047D01*
X132552380Y-82085714D02*
X132552380Y-81466666D01*
X132933333Y-81800000D01*
X132933333Y-81657142D01*
X132980952Y-81561904D01*
X133028571Y-81514285D01*
X133123809Y-81466666D01*
X133361904Y-81466666D01*
X133457142Y-81514285D01*
X133504761Y-81561904D01*
X133552380Y-81657142D01*
X133552380Y-81942857D01*
X133504761Y-82038095D01*
X133457142Y-82085714D01*
X133647619Y-81276190D02*
X133647619Y-80514285D01*
X133552380Y-80276190D02*
X132552380Y-80276190D01*
X133266666Y-79942857D01*
X132552380Y-79609523D01*
X133552380Y-79609523D01*
X132552380Y-78942857D02*
X132552380Y-78752380D01*
X132600000Y-78657142D01*
X132695238Y-78561904D01*
X132885714Y-78514285D01*
X133219047Y-78514285D01*
X133409523Y-78561904D01*
X133504761Y-78657142D01*
X133552380Y-78752380D01*
X133552380Y-78942857D01*
X133504761Y-79038095D01*
X133409523Y-79133333D01*
X133219047Y-79180952D01*
X132885714Y-79180952D01*
X132695238Y-79133333D01*
X132600000Y-79038095D01*
X132552380Y-78942857D01*
X133552380Y-78085714D02*
X132552380Y-78085714D01*
X132552380Y-77847619D01*
X132600000Y-77704761D01*
X132695238Y-77609523D01*
X132790476Y-77561904D01*
X132980952Y-77514285D01*
X133123809Y-77514285D01*
X133314285Y-77561904D01*
X133409523Y-77609523D01*
X133504761Y-77704761D01*
X133552380Y-77847619D01*
X133552380Y-78085714D01*
X133028571Y-77085714D02*
X133028571Y-76752380D01*
X133552380Y-76609523D02*
X133552380Y-77085714D01*
X132552380Y-77085714D01*
X132552380Y-76609523D01*
X133552380Y-75657142D02*
X133552380Y-76228571D01*
X133552380Y-75942857D02*
X132552380Y-75942857D01*
X132695238Y-76038095D01*
X132790476Y-76133333D01*
X132838095Y-76228571D01*
X140580952Y-65592380D02*
X140104761Y-65592380D01*
X140104761Y-64592380D01*
X140914285Y-65068571D02*
X141247619Y-65068571D01*
X141390476Y-65592380D02*
X140914285Y-65592380D01*
X140914285Y-64592380D01*
X141390476Y-64592380D01*
X141819047Y-65592380D02*
X141819047Y-64592380D01*
X142057142Y-64592380D01*
X142200000Y-64640000D01*
X142295238Y-64735238D01*
X142342857Y-64830476D01*
X142390476Y-65020952D01*
X142390476Y-65163809D01*
X142342857Y-65354285D01*
X142295238Y-65449523D01*
X142200000Y-65544761D01*
X142057142Y-65592380D01*
X141819047Y-65592380D01*
X142723809Y-64592380D02*
X143342857Y-64592380D01*
X143009523Y-64973333D01*
X143152380Y-64973333D01*
X143247619Y-65020952D01*
X143295238Y-65068571D01*
X143342857Y-65163809D01*
X143342857Y-65401904D01*
X143295238Y-65497142D01*
X143247619Y-65544761D01*
X143152380Y-65592380D01*
X142866666Y-65592380D01*
X142771428Y-65544761D01*
X142723809Y-65497142D01*
X101247619Y-155766666D02*
X101723809Y-155766666D01*
X101152380Y-156052380D02*
X101485714Y-155052380D01*
X101819047Y-156052380D01*
X102580952Y-155385714D02*
X102580952Y-156052380D01*
X102152380Y-155385714D02*
X102152380Y-155909523D01*
X102200000Y-156004761D01*
X102295238Y-156052380D01*
X102438095Y-156052380D01*
X102533333Y-156004761D01*
X102580952Y-155957142D01*
X103485714Y-156052380D02*
X103485714Y-155052380D01*
X103485714Y-156004761D02*
X103390476Y-156052380D01*
X103200000Y-156052380D01*
X103104761Y-156004761D01*
X103057142Y-155957142D01*
X103009523Y-155861904D01*
X103009523Y-155576190D01*
X103057142Y-155480952D01*
X103104761Y-155433333D01*
X103200000Y-155385714D01*
X103390476Y-155385714D01*
X103485714Y-155433333D01*
X103961904Y-156052380D02*
X103961904Y-155385714D01*
X103961904Y-155052380D02*
X103914285Y-155100000D01*
X103961904Y-155147619D01*
X104009523Y-155100000D01*
X103961904Y-155052380D01*
X103961904Y-155147619D01*
X104580952Y-156052380D02*
X104485714Y-156004761D01*
X104438095Y-155957142D01*
X104390476Y-155861904D01*
X104390476Y-155576190D01*
X104438095Y-155480952D01*
X104485714Y-155433333D01*
X104580952Y-155385714D01*
X104723809Y-155385714D01*
X104819047Y-155433333D01*
X104866666Y-155480952D01*
X104914285Y-155576190D01*
X104914285Y-155861904D01*
X104866666Y-155957142D01*
X104819047Y-156004761D01*
X104723809Y-156052380D01*
X104580952Y-156052380D01*
X105295238Y-155147619D02*
X105342857Y-155100000D01*
X105438095Y-155052380D01*
X105676190Y-155052380D01*
X105771428Y-155100000D01*
X105819047Y-155147619D01*
X105866666Y-155242857D01*
X105866666Y-155338095D01*
X105819047Y-155480952D01*
X105247619Y-156052380D01*
X105866666Y-156052380D01*
X106057142Y-156147619D02*
X106819047Y-156147619D01*
X107247619Y-155052380D02*
X107438095Y-155052380D01*
X107533333Y-155100000D01*
X107628571Y-155195238D01*
X107676190Y-155385714D01*
X107676190Y-155719047D01*
X107628571Y-155909523D01*
X107533333Y-156004761D01*
X107438095Y-156052380D01*
X107247619Y-156052380D01*
X107152380Y-156004761D01*
X107057142Y-155909523D01*
X107009523Y-155719047D01*
X107009523Y-155385714D01*
X107057142Y-155195238D01*
X107152380Y-155100000D01*
X107247619Y-155052380D01*
X108533333Y-155385714D02*
X108533333Y-156052380D01*
X108104761Y-155385714D02*
X108104761Y-155909523D01*
X108152380Y-156004761D01*
X108247619Y-156052380D01*
X108390476Y-156052380D01*
X108485714Y-156004761D01*
X108533333Y-155957142D01*
X108866666Y-155385714D02*
X109247619Y-155385714D01*
X109009523Y-155052380D02*
X109009523Y-155909523D01*
X109057142Y-156004761D01*
X109152380Y-156052380D01*
X109247619Y-156052380D01*
X127990476Y-108237142D02*
X127942857Y-108284761D01*
X127800000Y-108332380D01*
X127704761Y-108332380D01*
X127561904Y-108284761D01*
X127466666Y-108189523D01*
X127419047Y-108094285D01*
X127371428Y-107903809D01*
X127371428Y-107760952D01*
X127419047Y-107570476D01*
X127466666Y-107475238D01*
X127561904Y-107380000D01*
X127704761Y-107332380D01*
X127800000Y-107332380D01*
X127942857Y-107380000D01*
X127990476Y-107427619D01*
X128561904Y-108332380D02*
X128466666Y-108284761D01*
X128419047Y-108189523D01*
X128419047Y-107332380D01*
X129085714Y-108332380D02*
X128990476Y-108284761D01*
X128942857Y-108237142D01*
X128895238Y-108141904D01*
X128895238Y-107856190D01*
X128942857Y-107760952D01*
X128990476Y-107713333D01*
X129085714Y-107665714D01*
X129228571Y-107665714D01*
X129323809Y-107713333D01*
X129371428Y-107760952D01*
X129419047Y-107856190D01*
X129419047Y-108141904D01*
X129371428Y-108237142D01*
X129323809Y-108284761D01*
X129228571Y-108332380D01*
X129085714Y-108332380D01*
X130276190Y-108284761D02*
X130180952Y-108332380D01*
X129990476Y-108332380D01*
X129895238Y-108284761D01*
X129847619Y-108237142D01*
X129800000Y-108141904D01*
X129800000Y-107856190D01*
X129847619Y-107760952D01*
X129895238Y-107713333D01*
X129990476Y-107665714D01*
X130180952Y-107665714D01*
X130276190Y-107713333D01*
X130704761Y-108332380D02*
X130704761Y-107332380D01*
X130800000Y-107951428D02*
X131085714Y-108332380D01*
X131085714Y-107665714D02*
X130704761Y-108046666D01*
X131276190Y-108427619D02*
X132038095Y-108427619D01*
X132276190Y-108332380D02*
X132276190Y-107332380D01*
X132752380Y-107665714D02*
X132752380Y-108332380D01*
X132752380Y-107760952D02*
X132800000Y-107713333D01*
X132895238Y-107665714D01*
X133038095Y-107665714D01*
X133133333Y-107713333D01*
X133180952Y-107808571D01*
X133180952Y-108332380D01*
X133028571Y-98795238D02*
X133028571Y-98461904D01*
X133552380Y-98319047D02*
X133552380Y-98795238D01*
X132552380Y-98795238D01*
X132552380Y-98319047D01*
X132885714Y-97461904D02*
X133552380Y-97461904D01*
X132504761Y-97700000D02*
X133219047Y-97938095D01*
X133219047Y-97319047D01*
X133647619Y-97176190D02*
X133647619Y-96414285D01*
X133552380Y-96176190D02*
X132552380Y-96176190D01*
X133266666Y-95842857D01*
X132552380Y-95509523D01*
X133552380Y-95509523D01*
X132552380Y-94842857D02*
X132552380Y-94652380D01*
X132600000Y-94557142D01*
X132695238Y-94461904D01*
X132885714Y-94414285D01*
X133219047Y-94414285D01*
X133409523Y-94461904D01*
X133504761Y-94557142D01*
X133552380Y-94652380D01*
X133552380Y-94842857D01*
X133504761Y-94938095D01*
X133409523Y-95033333D01*
X133219047Y-95080952D01*
X132885714Y-95080952D01*
X132695238Y-95033333D01*
X132600000Y-94938095D01*
X132552380Y-94842857D01*
X133552380Y-93985714D02*
X132552380Y-93985714D01*
X132552380Y-93747619D01*
X132600000Y-93604761D01*
X132695238Y-93509523D01*
X132790476Y-93461904D01*
X132980952Y-93414285D01*
X133123809Y-93414285D01*
X133314285Y-93461904D01*
X133409523Y-93509523D01*
X133504761Y-93604761D01*
X133552380Y-93747619D01*
X133552380Y-93985714D01*
X133028571Y-92985714D02*
X133028571Y-92652380D01*
X133552380Y-92509523D02*
X133552380Y-92985714D01*
X132552380Y-92985714D01*
X132552380Y-92509523D01*
X133552380Y-91557142D02*
X133552380Y-92128571D01*
X133552380Y-91842857D02*
X132552380Y-91842857D01*
X132695238Y-91938095D01*
X132790476Y-92033333D01*
X132838095Y-92128571D01*
X145840952Y-67268571D02*
X146174285Y-67268571D01*
X146317142Y-67792380D02*
X145840952Y-67792380D01*
X145840952Y-66792380D01*
X146317142Y-66792380D01*
X146745714Y-67125714D02*
X146745714Y-67792380D01*
X146745714Y-67220952D02*
X146793333Y-67173333D01*
X146888571Y-67125714D01*
X147031428Y-67125714D01*
X147126666Y-67173333D01*
X147174285Y-67268571D01*
X147174285Y-67792380D01*
X147555238Y-67125714D02*
X147793333Y-67792380D01*
X148031428Y-67125714D01*
X148745714Y-67268571D02*
X148888571Y-67316190D01*
X148936190Y-67363809D01*
X148983809Y-67459047D01*
X148983809Y-67601904D01*
X148936190Y-67697142D01*
X148888571Y-67744761D01*
X148793333Y-67792380D01*
X148412380Y-67792380D01*
X148412380Y-66792380D01*
X148745714Y-66792380D01*
X148840952Y-66840000D01*
X148888571Y-66887619D01*
X148936190Y-66982857D01*
X148936190Y-67078095D01*
X148888571Y-67173333D01*
X148840952Y-67220952D01*
X148745714Y-67268571D01*
X148412380Y-67268571D01*
X149174285Y-67887619D02*
X149936190Y-67887619D01*
X150126666Y-67506666D02*
X150602857Y-67506666D01*
X150031428Y-67792380D02*
X150364761Y-66792380D01*
X150698095Y-67792380D01*
X150793333Y-67887619D02*
X151555238Y-67887619D01*
X151793333Y-67792380D02*
X151793333Y-66792380D01*
X152174285Y-66792380D01*
X152269523Y-66840000D01*
X152317142Y-66887619D01*
X152364761Y-66982857D01*
X152364761Y-67125714D01*
X152317142Y-67220952D01*
X152269523Y-67268571D01*
X152174285Y-67316190D01*
X151793333Y-67316190D01*
X152983809Y-66792380D02*
X153174285Y-66792380D01*
X153269523Y-66840000D01*
X153364761Y-66935238D01*
X153412380Y-67125714D01*
X153412380Y-67459047D01*
X153364761Y-67649523D01*
X153269523Y-67744761D01*
X153174285Y-67792380D01*
X152983809Y-67792380D01*
X152888571Y-67744761D01*
X152793333Y-67649523D01*
X152745714Y-67459047D01*
X152745714Y-67125714D01*
X152793333Y-66935238D01*
X152888571Y-66840000D01*
X152983809Y-66792380D01*
X153698095Y-66792380D02*
X154269523Y-66792380D01*
X153983809Y-67792380D02*
X153983809Y-66792380D01*
X155126666Y-67792380D02*
X154555238Y-67792380D01*
X154840952Y-67792380D02*
X154840952Y-66792380D01*
X154745714Y-66935238D01*
X154650476Y-67030476D01*
X154555238Y-67078095D01*
X151247619Y-141766666D02*
X151723809Y-141766666D01*
X151152380Y-142052380D02*
X151485714Y-141052380D01*
X151819047Y-142052380D01*
X152580952Y-141385714D02*
X152580952Y-142052380D01*
X152152380Y-141385714D02*
X152152380Y-141909523D01*
X152200000Y-142004761D01*
X152295238Y-142052380D01*
X152438095Y-142052380D01*
X152533333Y-142004761D01*
X152580952Y-141957142D01*
X153485714Y-142052380D02*
X153485714Y-141052380D01*
X153485714Y-142004761D02*
X153390476Y-142052380D01*
X153200000Y-142052380D01*
X153104761Y-142004761D01*
X153057142Y-141957142D01*
X153009523Y-141861904D01*
X153009523Y-141576190D01*
X153057142Y-141480952D01*
X153104761Y-141433333D01*
X153200000Y-141385714D01*
X153390476Y-141385714D01*
X153485714Y-141433333D01*
X153961904Y-142052380D02*
X153961904Y-141385714D01*
X153961904Y-141052380D02*
X153914285Y-141100000D01*
X153961904Y-141147619D01*
X154009523Y-141100000D01*
X153961904Y-141052380D01*
X153961904Y-141147619D01*
X154580952Y-142052380D02*
X154485714Y-142004761D01*
X154438095Y-141957142D01*
X154390476Y-141861904D01*
X154390476Y-141576190D01*
X154438095Y-141480952D01*
X154485714Y-141433333D01*
X154580952Y-141385714D01*
X154723809Y-141385714D01*
X154819047Y-141433333D01*
X154866666Y-141480952D01*
X154914285Y-141576190D01*
X154914285Y-141861904D01*
X154866666Y-141957142D01*
X154819047Y-142004761D01*
X154723809Y-142052380D01*
X154580952Y-142052380D01*
X155247619Y-141052380D02*
X155866666Y-141052380D01*
X155533333Y-141433333D01*
X155676190Y-141433333D01*
X155771428Y-141480952D01*
X155819047Y-141528571D01*
X155866666Y-141623809D01*
X155866666Y-141861904D01*
X155819047Y-141957142D01*
X155771428Y-142004761D01*
X155676190Y-142052380D01*
X155390476Y-142052380D01*
X155295238Y-142004761D01*
X155247619Y-141957142D01*
X156057142Y-142147619D02*
X156819047Y-142147619D01*
X157247619Y-141052380D02*
X157438095Y-141052380D01*
X157533333Y-141100000D01*
X157628571Y-141195238D01*
X157676190Y-141385714D01*
X157676190Y-141719047D01*
X157628571Y-141909523D01*
X157533333Y-142004761D01*
X157438095Y-142052380D01*
X157247619Y-142052380D01*
X157152380Y-142004761D01*
X157057142Y-141909523D01*
X157009523Y-141719047D01*
X157009523Y-141385714D01*
X157057142Y-141195238D01*
X157152380Y-141100000D01*
X157247619Y-141052380D01*
X158533333Y-141385714D02*
X158533333Y-142052380D01*
X158104761Y-141385714D02*
X158104761Y-141909523D01*
X158152380Y-142004761D01*
X158247619Y-142052380D01*
X158390476Y-142052380D01*
X158485714Y-142004761D01*
X158533333Y-141957142D01*
X158866666Y-141385714D02*
X159247619Y-141385714D01*
X159009523Y-141052380D02*
X159009523Y-141909523D01*
X159057142Y-142004761D01*
X159152380Y-142052380D01*
X159247619Y-142052380D01*
X140580952Y-103892380D02*
X140104761Y-103892380D01*
X140104761Y-102892380D01*
X140914285Y-103368571D02*
X141247619Y-103368571D01*
X141390476Y-103892380D02*
X140914285Y-103892380D01*
X140914285Y-102892380D01*
X141390476Y-102892380D01*
X141819047Y-103892380D02*
X141819047Y-102892380D01*
X142057142Y-102892380D01*
X142200000Y-102940000D01*
X142295238Y-103035238D01*
X142342857Y-103130476D01*
X142390476Y-103320952D01*
X142390476Y-103463809D01*
X142342857Y-103654285D01*
X142295238Y-103749523D01*
X142200000Y-103844761D01*
X142057142Y-103892380D01*
X141819047Y-103892380D01*
X143247619Y-103225714D02*
X143247619Y-103892380D01*
X143009523Y-102844761D02*
X142771428Y-103559047D01*
X143390476Y-103559047D01*
X111819047Y-141866666D02*
X112295238Y-141866666D01*
X111723809Y-142152380D02*
X112057142Y-141152380D01*
X112390476Y-142152380D01*
X113152380Y-141485714D02*
X113152380Y-142152380D01*
X112723809Y-141485714D02*
X112723809Y-142009523D01*
X112771428Y-142104761D01*
X112866666Y-142152380D01*
X113009523Y-142152380D01*
X113104761Y-142104761D01*
X113152380Y-142057142D01*
X114057142Y-142152380D02*
X114057142Y-141152380D01*
X114057142Y-142104761D02*
X113961904Y-142152380D01*
X113771428Y-142152380D01*
X113676190Y-142104761D01*
X113628571Y-142057142D01*
X113580952Y-141961904D01*
X113580952Y-141676190D01*
X113628571Y-141580952D01*
X113676190Y-141533333D01*
X113771428Y-141485714D01*
X113961904Y-141485714D01*
X114057142Y-141533333D01*
X114533333Y-142152380D02*
X114533333Y-141485714D01*
X114533333Y-141152380D02*
X114485714Y-141200000D01*
X114533333Y-141247619D01*
X114580952Y-141200000D01*
X114533333Y-141152380D01*
X114533333Y-141247619D01*
X115152380Y-142152380D02*
X115057142Y-142104761D01*
X115009523Y-142057142D01*
X114961904Y-141961904D01*
X114961904Y-141676190D01*
X115009523Y-141580952D01*
X115057142Y-141533333D01*
X115152380Y-141485714D01*
X115295238Y-141485714D01*
X115390476Y-141533333D01*
X115438095Y-141580952D01*
X115485714Y-141676190D01*
X115485714Y-141961904D01*
X115438095Y-142057142D01*
X115390476Y-142104761D01*
X115295238Y-142152380D01*
X115152380Y-142152380D01*
X116438095Y-142152380D02*
X115866666Y-142152380D01*
X116152380Y-142152380D02*
X116152380Y-141152380D01*
X116057142Y-141295238D01*
X115961904Y-141390476D01*
X115866666Y-141438095D01*
X116628571Y-142247619D02*
X117390476Y-142247619D01*
X117628571Y-142152380D02*
X117628571Y-141152380D01*
X118104761Y-141485714D02*
X118104761Y-142152380D01*
X118104761Y-141580952D02*
X118152380Y-141533333D01*
X118247619Y-141485714D01*
X118390476Y-141485714D01*
X118485714Y-141533333D01*
X118533333Y-141628571D01*
X118533333Y-142152380D01*
X132747619Y-155100000D02*
X132652380Y-155052380D01*
X132509523Y-155052380D01*
X132366666Y-155100000D01*
X132271428Y-155195238D01*
X132223809Y-155290476D01*
X132176190Y-155480952D01*
X132176190Y-155623809D01*
X132223809Y-155814285D01*
X132271428Y-155909523D01*
X132366666Y-156004761D01*
X132509523Y-156052380D01*
X132604761Y-156052380D01*
X132747619Y-156004761D01*
X132795238Y-155957142D01*
X132795238Y-155623809D01*
X132604761Y-155623809D01*
X133652380Y-156052380D02*
X133652380Y-155528571D01*
X133604761Y-155433333D01*
X133509523Y-155385714D01*
X133319047Y-155385714D01*
X133223809Y-155433333D01*
X133652380Y-156004761D02*
X133557142Y-156052380D01*
X133319047Y-156052380D01*
X133223809Y-156004761D01*
X133176190Y-155909523D01*
X133176190Y-155814285D01*
X133223809Y-155719047D01*
X133319047Y-155671428D01*
X133557142Y-155671428D01*
X133652380Y-155623809D01*
X133985714Y-155385714D02*
X134366666Y-155385714D01*
X134128571Y-155052380D02*
X134128571Y-155909523D01*
X134176190Y-156004761D01*
X134271428Y-156052380D01*
X134366666Y-156052380D01*
X135080952Y-156004761D02*
X134985714Y-156052380D01*
X134795238Y-156052380D01*
X134700000Y-156004761D01*
X134652380Y-155909523D01*
X134652380Y-155528571D01*
X134700000Y-155433333D01*
X134795238Y-155385714D01*
X134985714Y-155385714D01*
X135080952Y-155433333D01*
X135128571Y-155528571D01*
X135128571Y-155623809D01*
X134652380Y-155719047D01*
X135985714Y-155385714D02*
X135985714Y-156052380D01*
X135747619Y-155004761D02*
X135509523Y-155719047D01*
X136128571Y-155719047D01*
X136271428Y-156147619D02*
X137033333Y-156147619D01*
X137271428Y-156052380D02*
X137271428Y-155052380D01*
X137747619Y-155385714D02*
X137747619Y-156052380D01*
X137747619Y-155480952D02*
X137795238Y-155433333D01*
X137890476Y-155385714D01*
X138033333Y-155385714D01*
X138128571Y-155433333D01*
X138176190Y-155528571D01*
X138176190Y-156052380D01*
D11*
X148825000Y-102660000D02*
X149675000Y-102660000D01*
X155460000Y-102660000D02*
X155460000Y-98794000D01*
X151325000Y-102660000D02*
X152175000Y-102660000D01*
X145539000Y-102660000D02*
X147175000Y-102660000D01*
X145539000Y-94405000D02*
X145539000Y-90540000D01*
X153825000Y-102660000D02*
X155460000Y-102660000D01*
X145539000Y-90540000D02*
X155460000Y-90540000D01*
X145539000Y-102660000D02*
X145539000Y-98794000D01*
X155460000Y-94405000D02*
X155460000Y-90540000D01*
X152797753Y-98028295D02*
G75*
G02*
X148202000Y-98028000I-2297753J1928295D01*
G01*
X147737568Y-94928018D02*
G75*
G02*
X153262000Y-94927000I2762432J-1171982D01*
G01*
D10*
X143295000Y-134790000D02*
X140755000Y-134790000D01*
X140700000Y-144600000D02*
X140700000Y-134100000D01*
X147105000Y-134790000D02*
X147105000Y-134155000D01*
X147105000Y-140505000D02*
X143295000Y-140505000D01*
X143295000Y-134155000D02*
X143295000Y-134790000D01*
X147105000Y-134155000D02*
X143295000Y-134155000D01*
X143295000Y-136695000D02*
X147105000Y-136695000D01*
X149700000Y-134100000D02*
X140700000Y-134100000D01*
X149700000Y-144600000D02*
X149700000Y-134100000D01*
X149700000Y-144600000D02*
X140700000Y-144600000D01*
X149645000Y-134790000D02*
X147105000Y-134790000D01*
X143295000Y-136695000D02*
G75*
G03*
X143295000Y-140505000I1905000J-1905000D01*
G01*
X147105000Y-140505000D02*
G75*
G03*
X147105000Y-136695000I-1905000J1905000D01*
G01*
X146996051Y-138600000D02*
G75*
G03*
X146996051Y-138600000I-1796051J0D01*
G01*
X146500000Y-138600000D02*
G75*
G03*
X146500000Y-138600000I-1300000J0D01*
G01*
X126581000Y-93486000D02*
X126581000Y-91186000D01*
X121219000Y-99303400D02*
X121219000Y-91136000D01*
X126581000Y-99278000D02*
X126581000Y-97078000D01*
D11*
X155460000Y-122060000D02*
X155460000Y-118194000D01*
X145539000Y-109940000D02*
X155460000Y-109940000D01*
X148825000Y-122060000D02*
X149675000Y-122060000D01*
X145539000Y-122060000D02*
X147175000Y-122060000D01*
X145539000Y-113805000D02*
X145539000Y-109940000D01*
X155460000Y-113805000D02*
X155460000Y-109940000D01*
X153825000Y-122060000D02*
X155460000Y-122060000D01*
X151325000Y-122060000D02*
X152175000Y-122060000D01*
X145539000Y-122060000D02*
X145539000Y-118194000D01*
X152797753Y-117428295D02*
G75*
G02*
X148202000Y-117428000I-2297753J1928295D01*
G01*
X147737568Y-114328018D02*
G75*
G02*
X153262000Y-114327000I2762432J-1171982D01*
G01*
D10*
X159645000Y-148790000D02*
X157105000Y-148790000D01*
X153295000Y-148790000D02*
X150755000Y-148790000D01*
X150700000Y-158600000D02*
X150700000Y-148100000D01*
X159700000Y-158600000D02*
X159700000Y-148100000D01*
X153295000Y-150695000D02*
X157105000Y-150695000D01*
X157105000Y-148790000D02*
X157105000Y-148155000D01*
X159700000Y-158600000D02*
X150700000Y-158600000D01*
X153295000Y-148155000D02*
X153295000Y-148790000D01*
X157105000Y-148155000D02*
X153295000Y-148155000D01*
X157105000Y-154505000D02*
X153295000Y-154505000D01*
X159700000Y-148100000D02*
X150700000Y-148100000D01*
X157105000Y-154505000D02*
G75*
G03*
X157105000Y-150695000I-1905000J1905000D01*
G01*
X153295000Y-150695000D02*
G75*
G03*
X153295000Y-154505000I1905000J-1905000D01*
G01*
X156996051Y-152600000D02*
G75*
G03*
X156996051Y-152600000I-1796051J0D01*
G01*
X156500000Y-152600000D02*
G75*
G03*
X156500000Y-152600000I-1300000J0D01*
G01*
X123295000Y-150695000D02*
X127105000Y-150695000D01*
X129645000Y-148790000D02*
X127105000Y-148790000D01*
X127105000Y-148155000D02*
X123295000Y-148155000D01*
X129700000Y-158600000D02*
X129700000Y-148100000D01*
X129700000Y-148100000D02*
X120700000Y-148100000D01*
X127105000Y-148790000D02*
X127105000Y-148155000D01*
X123295000Y-148155000D02*
X123295000Y-148790000D01*
X127105000Y-154505000D02*
X123295000Y-154505000D01*
X123295000Y-148790000D02*
X120755000Y-148790000D01*
X129700000Y-158600000D02*
X120700000Y-158600000D01*
X120700000Y-158600000D02*
X120700000Y-148100000D01*
X123295000Y-150695000D02*
G75*
G03*
X123295000Y-154505000I1905000J-1905000D01*
G01*
X127105000Y-154505000D02*
G75*
G03*
X127105000Y-150695000I-1905000J1905000D01*
G01*
X126996051Y-152600000D02*
G75*
G03*
X126996051Y-152600000I-1796051J0D01*
G01*
X126500000Y-152600000D02*
G75*
G03*
X126500000Y-152600000I-1300000J0D01*
G01*
X117105000Y-154505000D02*
X113295000Y-154505000D01*
X119700000Y-158600000D02*
X119700000Y-148100000D01*
X117105000Y-148790000D02*
X117105000Y-148155000D01*
X119700000Y-158600000D02*
X110700000Y-158600000D01*
X119645000Y-148790000D02*
X117105000Y-148790000D01*
X119700000Y-148100000D02*
X110700000Y-148100000D01*
X113295000Y-148155000D02*
X113295000Y-148790000D01*
X110700000Y-158600000D02*
X110700000Y-148100000D01*
X117105000Y-148155000D02*
X113295000Y-148155000D01*
X113295000Y-148790000D02*
X110755000Y-148790000D01*
X113295000Y-150695000D02*
X117105000Y-150695000D01*
X117105000Y-154505000D02*
G75*
G03*
X117105000Y-150695000I-1905000J1905000D01*
G01*
X113295000Y-150695000D02*
G75*
G03*
X113295000Y-154505000I1905000J-1905000D01*
G01*
X116996051Y-152600000D02*
G75*
G03*
X116996051Y-152600000I-1796051J0D01*
G01*
X116500000Y-152600000D02*
G75*
G03*
X116500000Y-152600000I-1300000J0D01*
G01*
D11*
X117340000Y-107480000D02*
X117340000Y-107636000D01*
X117340000Y-105164000D02*
X117340000Y-105320000D01*
X120572335Y-105321392D02*
G75*
G03*
X117340000Y-105164484I-1672335J-1078608D01*
G01*
X119941130Y-107479837D02*
G75*
G02*
X117859039Y-107480000I-1041130J1079837D01*
G01*
X120572335Y-107478608D02*
G75*
G02*
X117340000Y-107635516I-1672335J1078608D01*
G01*
X119941130Y-105320163D02*
G75*
G03*
X117859039Y-105320000I-1041130J-1079837D01*
G01*
D10*
X103295000Y-134255000D02*
X103295000Y-134890000D01*
X107105000Y-134890000D02*
X107105000Y-134255000D01*
X109700000Y-144700000D02*
X109700000Y-134200000D01*
X100700000Y-144700000D02*
X100700000Y-134200000D01*
X109700000Y-134200000D02*
X100700000Y-134200000D01*
X107105000Y-134255000D02*
X103295000Y-134255000D01*
X109700000Y-144700000D02*
X100700000Y-144700000D01*
X107105000Y-140605000D02*
X103295000Y-140605000D01*
X109645000Y-134890000D02*
X107105000Y-134890000D01*
X103295000Y-134890000D02*
X100755000Y-134890000D01*
X103295000Y-136795000D02*
X107105000Y-136795000D01*
X103295000Y-136795000D02*
G75*
G03*
X103295000Y-140605000I1905000J-1905000D01*
G01*
X107105000Y-140605000D02*
G75*
G03*
X107105000Y-136795000I-1905000J1905000D01*
G01*
X106500000Y-138700000D02*
G75*
G03*
X106500000Y-138700000I-1300000J0D01*
G01*
X106996051Y-138700000D02*
G75*
G03*
X106996051Y-138700000I-1796051J0D01*
G01*
X133295000Y-136695000D02*
X137105000Y-136695000D01*
X139645000Y-134790000D02*
X137105000Y-134790000D01*
X139700000Y-144600000D02*
X130700000Y-144600000D01*
X139700000Y-134100000D02*
X130700000Y-134100000D01*
X133295000Y-134155000D02*
X133295000Y-134790000D01*
X133295000Y-134790000D02*
X130755000Y-134790000D01*
X130700000Y-144600000D02*
X130700000Y-134100000D01*
X139700000Y-144600000D02*
X139700000Y-134100000D01*
X137105000Y-140505000D02*
X133295000Y-140505000D01*
X137105000Y-134790000D02*
X137105000Y-134155000D01*
X137105000Y-134155000D02*
X133295000Y-134155000D01*
X137105000Y-140505000D02*
G75*
G03*
X137105000Y-136695000I-1905000J1905000D01*
G01*
X133295000Y-136695000D02*
G75*
G03*
X133295000Y-140505000I1905000J-1905000D01*
G01*
X136500000Y-138600000D02*
G75*
G03*
X136500000Y-138600000I-1300000J0D01*
G01*
X136996051Y-138600000D02*
G75*
G03*
X136996051Y-138600000I-1796051J0D01*
G01*
D11*
X117340000Y-66864000D02*
X117340000Y-67020000D01*
X117340000Y-69180000D02*
X117340000Y-69336000D01*
X119941130Y-69179837D02*
G75*
G02*
X117859039Y-69180000I-1041130J1079837D01*
G01*
X119941130Y-67020163D02*
G75*
G03*
X117859039Y-67020000I-1041130J-1079837D01*
G01*
X120572335Y-69178608D02*
G75*
G02*
X117340000Y-69335516I-1672335J1078608D01*
G01*
X120572335Y-67021392D02*
G75*
G03*
X117340000Y-66864484I-1672335J-1078608D01*
G01*
D10*
X115755000Y-128505000D02*
X116390000Y-128505000D01*
X116390000Y-124695000D02*
X115755000Y-124695000D01*
X115700000Y-122100000D02*
X115700000Y-131100000D01*
X126200000Y-131100000D02*
X115700000Y-131100000D01*
X126200000Y-122100000D02*
X126200000Y-131100000D01*
X115755000Y-124695000D02*
X115755000Y-128505000D01*
X116390000Y-128505000D02*
X116390000Y-131045000D01*
X122105000Y-124695000D02*
X122105000Y-128505000D01*
X126200000Y-122100000D02*
X115700000Y-122100000D01*
X116390000Y-122155000D02*
X116390000Y-124695000D01*
X118295000Y-128505000D02*
X118295000Y-124695000D01*
X118295000Y-128505000D02*
G75*
G03*
X122105000Y-128505000I1905000J1905000D01*
G01*
X122105000Y-124695000D02*
G75*
G03*
X118295000Y-124695000I-1905000J-1905000D01*
G01*
X121996051Y-126600000D02*
G75*
G03*
X121996051Y-126600000I-1796051J0D01*
G01*
X121500000Y-126600000D02*
G75*
G03*
X121500000Y-126600000I-1300000J0D01*
G01*
D11*
X115060000Y-63860000D02*
X115060000Y-59994000D01*
X105139000Y-63860000D02*
X105139000Y-59994000D01*
X105139000Y-51740000D02*
X115060000Y-51740000D01*
X115060000Y-55605000D02*
X115060000Y-51740000D01*
X105139000Y-55605000D02*
X105139000Y-51740000D01*
X108425000Y-63860000D02*
X109275000Y-63860000D01*
X105139000Y-63860000D02*
X106775000Y-63860000D01*
X113425000Y-63860000D02*
X115060000Y-63860000D01*
X110925000Y-63860000D02*
X111775000Y-63860000D01*
X107337568Y-56128018D02*
G75*
G02*
X112862000Y-56127000I2762432J-1171982D01*
G01*
X112397753Y-59228295D02*
G75*
G02*
X107802000Y-59228000I-2297753J1928295D01*
G01*
D10*
X147105000Y-154505000D02*
X143295000Y-154505000D01*
X149700000Y-158600000D02*
X140700000Y-158600000D01*
X149700000Y-158600000D02*
X149700000Y-148100000D01*
X149645000Y-148790000D02*
X147105000Y-148790000D01*
X143295000Y-150695000D02*
X147105000Y-150695000D01*
X147105000Y-148155000D02*
X143295000Y-148155000D01*
X140700000Y-158600000D02*
X140700000Y-148100000D01*
X149700000Y-148100000D02*
X140700000Y-148100000D01*
X143295000Y-148790000D02*
X140755000Y-148790000D01*
X143295000Y-148155000D02*
X143295000Y-148790000D01*
X147105000Y-148790000D02*
X147105000Y-148155000D01*
X143295000Y-150695000D02*
G75*
G03*
X143295000Y-154505000I1905000J-1905000D01*
G01*
X147105000Y-154505000D02*
G75*
G03*
X147105000Y-150695000I-1905000J1905000D01*
G01*
X146500000Y-152600000D02*
G75*
G03*
X146500000Y-152600000I-1300000J0D01*
G01*
X146996051Y-152600000D02*
G75*
G03*
X146996051Y-152600000I-1796051J0D01*
G01*
X129700000Y-144600000D02*
X129700000Y-134100000D01*
X123295000Y-134155000D02*
X123295000Y-134790000D01*
X127105000Y-134790000D02*
X127105000Y-134155000D01*
X123295000Y-136695000D02*
X127105000Y-136695000D01*
X129700000Y-144600000D02*
X120700000Y-144600000D01*
X127105000Y-140505000D02*
X123295000Y-140505000D01*
X120700000Y-144600000D02*
X120700000Y-134100000D01*
X123295000Y-134790000D02*
X120755000Y-134790000D01*
X129645000Y-134790000D02*
X127105000Y-134790000D01*
X129700000Y-134100000D02*
X120700000Y-134100000D01*
X127105000Y-134155000D02*
X123295000Y-134155000D01*
X123295000Y-136695000D02*
G75*
G03*
X123295000Y-140505000I1905000J-1905000D01*
G01*
X127105000Y-140505000D02*
G75*
G03*
X127105000Y-136695000I-1905000J1905000D01*
G01*
X126500000Y-138600000D02*
G75*
G03*
X126500000Y-138600000I-1300000J0D01*
G01*
X126996051Y-138600000D02*
G75*
G03*
X126996051Y-138600000I-1796051J0D01*
G01*
X138395000Y-128505000D02*
X138395000Y-124695000D01*
X144110000Y-128505000D02*
X144745000Y-128505000D01*
X134300000Y-131100000D02*
X144800000Y-131100000D01*
X144745000Y-128505000D02*
X144745000Y-124695000D01*
X134300000Y-122100000D02*
X144800000Y-122100000D01*
X144800000Y-131100000D02*
X144800000Y-122100000D01*
X134300000Y-131100000D02*
X134300000Y-122100000D01*
X142205000Y-124695000D02*
X142205000Y-128505000D01*
X144110000Y-124695000D02*
X144110000Y-122155000D01*
X144745000Y-124695000D02*
X144110000Y-124695000D01*
X144110000Y-131045000D02*
X144110000Y-128505000D01*
X142205000Y-124695000D02*
G75*
G03*
X138395000Y-124695000I-1905000J-1905000D01*
G01*
X138395000Y-128505000D02*
G75*
G03*
X142205000Y-128505000I1905000J1905000D01*
G01*
X142096051Y-126600000D02*
G75*
G03*
X142096051Y-126600000I-1796051J0D01*
G01*
X141600000Y-126600000D02*
G75*
G03*
X141600000Y-126600000I-1300000J0D01*
G01*
X126581000Y-77586000D02*
X126581000Y-75286000D01*
X126581000Y-83378000D02*
X126581000Y-81178000D01*
X121219000Y-83403400D02*
X121219000Y-75236000D01*
D11*
X125339000Y-59705000D02*
X125339000Y-55840000D01*
X135260000Y-67960000D02*
X135260000Y-64094000D01*
X131125000Y-67960000D02*
X131975000Y-67960000D01*
X125339000Y-67960000D02*
X126975000Y-67960000D01*
X125339000Y-55840000D02*
X135260000Y-55840000D01*
X128625000Y-67960000D02*
X129475000Y-67960000D01*
X135260000Y-59705000D02*
X135260000Y-55840000D01*
X125339000Y-67960000D02*
X125339000Y-64094000D01*
X133625000Y-67960000D02*
X135260000Y-67960000D01*
X127537568Y-60228018D02*
G75*
G02*
X133062000Y-60227000I2762432J-1171982D01*
G01*
X132597753Y-63328295D02*
G75*
G02*
X128002000Y-63328000I-2297753J1928295D01*
G01*
X110925000Y-122060000D02*
X111775000Y-122060000D01*
X115060000Y-122060000D02*
X115060000Y-118194000D01*
X105139000Y-109940000D02*
X115060000Y-109940000D01*
X105139000Y-122060000D02*
X105139000Y-118194000D01*
X105139000Y-122060000D02*
X106775000Y-122060000D01*
X108425000Y-122060000D02*
X109275000Y-122060000D01*
X105139000Y-113805000D02*
X105139000Y-109940000D01*
X115060000Y-113805000D02*
X115060000Y-109940000D01*
X113425000Y-122060000D02*
X115060000Y-122060000D01*
X112397753Y-117428295D02*
G75*
G02*
X107802000Y-117428000I-2297753J1928295D01*
G01*
X107337568Y-114328018D02*
G75*
G02*
X112862000Y-114327000I2762432J-1171982D01*
G01*
X155460000Y-83260000D02*
X155460000Y-79394000D01*
X151325000Y-83260000D02*
X152175000Y-83260000D01*
X145539000Y-83260000D02*
X145539000Y-79394000D01*
X153825000Y-83260000D02*
X155460000Y-83260000D01*
X145539000Y-83260000D02*
X147175000Y-83260000D01*
X145539000Y-75005000D02*
X145539000Y-71140000D01*
X148825000Y-83260000D02*
X149675000Y-83260000D01*
X155460000Y-75005000D02*
X155460000Y-71140000D01*
X145539000Y-71140000D02*
X155460000Y-71140000D01*
X147737568Y-75528018D02*
G75*
G02*
X153262000Y-75527000I2762432J-1171982D01*
G01*
X152797753Y-78628295D02*
G75*
G02*
X148202000Y-78628000I-2297753J1928295D01*
G01*
X108425000Y-102660000D02*
X109275000Y-102660000D01*
X115060000Y-94405000D02*
X115060000Y-90540000D01*
X113425000Y-102660000D02*
X115060000Y-102660000D01*
X105139000Y-94405000D02*
X105139000Y-90540000D01*
X110925000Y-102660000D02*
X111775000Y-102660000D01*
X105139000Y-102660000D02*
X105139000Y-98794000D01*
X115060000Y-102660000D02*
X115060000Y-98794000D01*
X105139000Y-102660000D02*
X106775000Y-102660000D01*
X105139000Y-90540000D02*
X115060000Y-90540000D01*
X107337568Y-94928018D02*
G75*
G02*
X112862000Y-94927000I2762432J-1171982D01*
G01*
X112397753Y-98028295D02*
G75*
G02*
X107802000Y-98028000I-2297753J1928295D01*
G01*
X108425000Y-83260000D02*
X109275000Y-83260000D01*
X105139000Y-83260000D02*
X105139000Y-79394000D01*
X105139000Y-71140000D02*
X115060000Y-71140000D01*
X113425000Y-83260000D02*
X115060000Y-83260000D01*
X110925000Y-83260000D02*
X111775000Y-83260000D01*
X105139000Y-75005000D02*
X105139000Y-71140000D01*
X115060000Y-83260000D02*
X115060000Y-79394000D01*
X105139000Y-83260000D02*
X106775000Y-83260000D01*
X115060000Y-75005000D02*
X115060000Y-71140000D01*
X107337568Y-75528018D02*
G75*
G02*
X112862000Y-75527000I2762432J-1171982D01*
G01*
X112397753Y-78628295D02*
G75*
G02*
X107802000Y-78628000I-2297753J1928295D01*
G01*
D10*
X139381000Y-77586000D02*
X139381000Y-75286000D01*
X134019000Y-83403400D02*
X134019000Y-75236000D01*
X139381000Y-83378000D02*
X139381000Y-81178000D01*
D11*
X140140000Y-66864000D02*
X140140000Y-67020000D01*
X140140000Y-69180000D02*
X140140000Y-69336000D01*
X142741130Y-69179837D02*
G75*
G02*
X140659039Y-69180000I-1041130J1079837D01*
G01*
X143372335Y-67021392D02*
G75*
G03*
X140140000Y-66864484I-1672335J-1078608D01*
G01*
X143372335Y-69178608D02*
G75*
G02*
X140140000Y-69335516I-1672335J1078608D01*
G01*
X142741130Y-67020163D02*
G75*
G03*
X140659039Y-67020000I-1041130J-1079837D01*
G01*
D10*
X103295000Y-150695000D02*
X107105000Y-150695000D01*
X109645000Y-148790000D02*
X107105000Y-148790000D01*
X107105000Y-148155000D02*
X103295000Y-148155000D01*
X109700000Y-158600000D02*
X109700000Y-148100000D01*
X107105000Y-148790000D02*
X107105000Y-148155000D01*
X109700000Y-148100000D02*
X100700000Y-148100000D01*
X100700000Y-158600000D02*
X100700000Y-148100000D01*
X109700000Y-158600000D02*
X100700000Y-158600000D01*
X107105000Y-154505000D02*
X103295000Y-154505000D01*
X103295000Y-148155000D02*
X103295000Y-148790000D01*
X103295000Y-148790000D02*
X100755000Y-148790000D01*
X107105000Y-154505000D02*
G75*
G03*
X107105000Y-150695000I-1905000J1905000D01*
G01*
X103295000Y-150695000D02*
G75*
G03*
X103295000Y-154505000I1905000J-1905000D01*
G01*
X106500000Y-152600000D02*
G75*
G03*
X106500000Y-152600000I-1300000J0D01*
G01*
X106996051Y-152600000D02*
G75*
G03*
X106996051Y-152600000I-1796051J0D01*
G01*
X134800000Y-109500000D02*
X134800000Y-120000000D01*
X128395000Y-119310000D02*
X128395000Y-119945000D01*
X132205000Y-119945000D02*
X132205000Y-119310000D01*
X128395000Y-113595000D02*
X132205000Y-113595000D01*
X125855000Y-119310000D02*
X128395000Y-119310000D01*
X125800000Y-109500000D02*
X125800000Y-120000000D01*
X125800000Y-120000000D02*
X134800000Y-120000000D01*
X125800000Y-109500000D02*
X134800000Y-109500000D01*
X132205000Y-117405000D02*
X128395000Y-117405000D01*
X128395000Y-119945000D02*
X132205000Y-119945000D01*
X132205000Y-119310000D02*
X134745000Y-119310000D01*
X132205000Y-117405000D02*
G75*
G03*
X132205000Y-113595000I-1905000J1905000D01*
G01*
X128395000Y-113595000D02*
G75*
G03*
X128395000Y-117405000I1905000J-1905000D01*
G01*
X132096051Y-115500000D02*
G75*
G03*
X132096051Y-115500000I-1796051J0D01*
G01*
X131600000Y-115500000D02*
G75*
G03*
X131600000Y-115500000I-1300000J0D01*
G01*
X139381000Y-93486000D02*
X139381000Y-91186000D01*
X139381000Y-99278000D02*
X139381000Y-97078000D01*
X134019000Y-99303400D02*
X134019000Y-91136000D01*
D11*
X148825000Y-63860000D02*
X149675000Y-63860000D01*
X153825000Y-63860000D02*
X155460000Y-63860000D01*
X145539000Y-63860000D02*
X147175000Y-63860000D01*
X155460000Y-55605000D02*
X155460000Y-51740000D01*
X145539000Y-55605000D02*
X145539000Y-51740000D01*
X145539000Y-51740000D02*
X155460000Y-51740000D01*
X155460000Y-63860000D02*
X155460000Y-59994000D01*
X145539000Y-63860000D02*
X145539000Y-59994000D01*
X151325000Y-63860000D02*
X152175000Y-63860000D01*
X152797753Y-59228295D02*
G75*
G02*
X148202000Y-59228000I-2297753J1928295D01*
G01*
X147737568Y-56128018D02*
G75*
G02*
X153262000Y-56127000I2762432J-1171982D01*
G01*
D10*
X159700000Y-134100000D02*
X150700000Y-134100000D01*
X157105000Y-134790000D02*
X157105000Y-134155000D01*
X159645000Y-134790000D02*
X157105000Y-134790000D01*
X157105000Y-140505000D02*
X153295000Y-140505000D01*
X153295000Y-136695000D02*
X157105000Y-136695000D01*
X159700000Y-144600000D02*
X159700000Y-134100000D01*
X150700000Y-144600000D02*
X150700000Y-134100000D01*
X157105000Y-134155000D02*
X153295000Y-134155000D01*
X153295000Y-134790000D02*
X150755000Y-134790000D01*
X159700000Y-144600000D02*
X150700000Y-144600000D01*
X153295000Y-134155000D02*
X153295000Y-134790000D01*
X153295000Y-136695000D02*
G75*
G03*
X153295000Y-140505000I1905000J-1905000D01*
G01*
X157105000Y-140505000D02*
G75*
G03*
X157105000Y-136695000I-1905000J1905000D01*
G01*
X156500000Y-138600000D02*
G75*
G03*
X156500000Y-138600000I-1300000J0D01*
G01*
X156996051Y-138600000D02*
G75*
G03*
X156996051Y-138600000I-1796051J0D01*
G01*
D11*
X140140000Y-107480000D02*
X140140000Y-107636000D01*
X140140000Y-105164000D02*
X140140000Y-105320000D01*
X142741130Y-107479837D02*
G75*
G02*
X140659039Y-107480000I-1041130J1079837D01*
G01*
X142741130Y-105320163D02*
G75*
G03*
X140659039Y-105320000I-1041130J-1079837D01*
G01*
X143372335Y-105321392D02*
G75*
G03*
X140140000Y-105164484I-1672335J-1078608D01*
G01*
X143372335Y-107478608D02*
G75*
G02*
X140140000Y-107635516I-1672335J1078608D01*
G01*
D10*
X119700000Y-144700000D02*
X119700000Y-134200000D01*
X119700000Y-134200000D02*
X110700000Y-134200000D01*
X113295000Y-134890000D02*
X110755000Y-134890000D01*
X117105000Y-134890000D02*
X117105000Y-134255000D01*
X117105000Y-140605000D02*
X113295000Y-140605000D01*
X119645000Y-134890000D02*
X117105000Y-134890000D01*
X113295000Y-134255000D02*
X113295000Y-134890000D01*
X119700000Y-144700000D02*
X110700000Y-144700000D01*
X110700000Y-144700000D02*
X110700000Y-134200000D01*
X117105000Y-134255000D02*
X113295000Y-134255000D01*
X113295000Y-136795000D02*
X117105000Y-136795000D01*
X113295000Y-136795000D02*
G75*
G03*
X113295000Y-140605000I1905000J-1905000D01*
G01*
X117105000Y-140605000D02*
G75*
G03*
X117105000Y-136795000I-1905000J1905000D01*
G01*
X116500000Y-138700000D02*
G75*
G03*
X116500000Y-138700000I-1300000J0D01*
G01*
X116996051Y-138700000D02*
G75*
G03*
X116996051Y-138700000I-1796051J0D01*
G01*
X133295000Y-148790000D02*
X130755000Y-148790000D01*
X137105000Y-148790000D02*
X137105000Y-148155000D01*
X130700000Y-158600000D02*
X130700000Y-148100000D01*
X133295000Y-148155000D02*
X133295000Y-148790000D01*
X137105000Y-154505000D02*
X133295000Y-154505000D01*
X139700000Y-158600000D02*
X130700000Y-158600000D01*
X139700000Y-148100000D02*
X130700000Y-148100000D01*
X133295000Y-150695000D02*
X137105000Y-150695000D01*
X137105000Y-148155000D02*
X133295000Y-148155000D01*
X139645000Y-148790000D02*
X137105000Y-148790000D01*
X139700000Y-158600000D02*
X139700000Y-148100000D01*
X133295000Y-150695000D02*
G75*
G03*
X133295000Y-154505000I1905000J-1905000D01*
G01*
X137105000Y-154505000D02*
G75*
G03*
X137105000Y-150695000I-1905000J1905000D01*
G01*
X136996051Y-152600000D02*
G75*
G03*
X136996051Y-152600000I-1796051J0D01*
G01*
X136500000Y-152600000D02*
G75*
G03*
X136500000Y-152600000I-1300000J0D01*
G01*
D12*
X145200000Y-132120000D03*
X145200000Y-135220000D03*
X145200000Y-143520000D03*
X155200000Y-146120000D03*
X155200000Y-149220000D03*
X155200000Y-157520000D03*
X125200000Y-146120000D03*
X125200000Y-149220000D03*
X125200000Y-157520000D03*
X115200000Y-146120000D03*
X115200000Y-149220000D03*
X115200000Y-157520000D03*
X105200000Y-132220000D03*
X105200000Y-135320000D03*
X105200000Y-143620000D03*
X135200000Y-132120000D03*
X135200000Y-135220000D03*
X135200000Y-143520000D03*
D13*
X113720000Y-126600000D03*
X116820000Y-126600000D03*
X125120000Y-126600000D03*
D12*
X145200000Y-146120000D03*
X145200000Y-149220000D03*
X145200000Y-157520000D03*
X125200000Y-132120000D03*
X125200000Y-135220000D03*
X125200000Y-143520000D03*
D13*
X146780000Y-126600000D03*
X143680000Y-126600000D03*
X135380000Y-126600000D03*
D12*
X105200000Y-146120000D03*
X105200000Y-149220000D03*
X105200000Y-157520000D03*
X130300000Y-121980000D03*
X130300000Y-118880000D03*
X130300000Y-110580000D03*
X155200000Y-132120000D03*
X155200000Y-135220000D03*
X155200000Y-143520000D03*
X115200000Y-132220000D03*
X115200000Y-135320000D03*
X115200000Y-143620000D03*
X135200000Y-146120000D03*
X135200000Y-149220000D03*
X135200000Y-157520000D03*
M02*
