M48
; DRILL file {KiCad (5.99.0-12348-g4b436fb86d)} date Thu Sep 23 15:10:37 2021
; FORMAT={-:-/ absolute / metric / decimal}
; #@! TF.CreationDate,2021-09-23T15:10:37+01:00
; #@! TF.GenerationSoftware,Kicad,Pcbnew,(5.99.0-12348-g4b436fb86d)
; #@! TF.FileFunction,Plated,1,2,PTH
FMAT,2
METRIC
; #@! TA.AperFunction,Plated,PTH,ViaDrill
T1C0.400
; #@! TA.AperFunction,Plated,PTH,ComponentDrill
T2C0.500
; #@! TA.AperFunction,Plated,PTH,ComponentDrill
T3C0.900
; #@! TA.AperFunction,Plated,PTH,ComponentDrill
T4C1.000
; #@! TA.AperFunction,Plated,PTH,ComponentDrill
T5C1.092
%
G90
G05
T1
X106.0Y-70.0
X106.1Y-63.5
X109.1Y-66.2
X110.0Y-79.0
X112.9Y-74.825
X113.0Y-73.0
X113.7Y-81.6
X114.0Y-52.0
X114.0Y-68.0
X114.8Y-74.1
X116.8Y-110.8
X119.8Y-74.1
X125.3Y-55.0
X125.5Y-71.2
X128.7Y-73.7
X132.6Y-76.3
X135.2Y-55.0
X138.7Y-120.0
X141.0Y-77.0
X141.0Y-94.0
X141.5Y-115.7
X145.5Y-100.9
X145.5Y-120.1
X146.1Y-107.7
X146.2Y-91.9
X147.0Y-52.0
X147.5Y-91.9
X147.5Y-108.924
X150.3Y-137.9
X151.0Y-98.0
X151.288Y-128.588
X151.4Y-77.4
X152.3Y-113.2
X155.1Y-73.3
X156.0Y-89.0
X156.3Y-127.3
T3
X117.63Y-68.1
X117.63Y-106.4
X120.17Y-68.1
X120.17Y-106.4
X140.43Y-68.1
X140.43Y-106.4
X142.97Y-68.1
X142.97Y-106.4
T4
X102.0Y-52.1
X102.0Y-54.64
X102.0Y-57.18
X102.0Y-59.72
X102.0Y-62.26
X102.0Y-64.8
X102.0Y-67.34
X102.0Y-69.88
X102.0Y-72.42
X102.0Y-74.96
X102.0Y-77.5
X102.0Y-80.04
X102.0Y-101.1
X102.0Y-103.64
X102.0Y-106.18
X102.0Y-108.72
X102.0Y-111.26
X102.0Y-113.8
X102.0Y-116.34
X102.0Y-118.88
X102.0Y-121.42
X102.0Y-123.96
X102.0Y-126.5
X102.0Y-129.04
X107.6Y-64.8
X107.6Y-84.2
X107.6Y-103.6
X107.6Y-123.0
X110.1Y-64.8
X110.1Y-84.2
X110.1Y-103.6
X110.1Y-123.0
X112.6Y-64.8
X112.6Y-84.2
X112.6Y-103.6
X112.6Y-123.0
X127.8Y-68.9
X130.3Y-68.9
X132.8Y-68.9
X148.0Y-64.8
X148.0Y-84.2
X148.0Y-103.6
X148.0Y-123.0
X150.5Y-64.8
X150.5Y-84.2
X150.5Y-103.6
X150.5Y-123.0
X153.0Y-64.8
X153.0Y-84.2
X153.0Y-103.6
X153.0Y-123.0
X158.5Y-52.1
X158.5Y-54.64
X158.5Y-57.18
X158.5Y-59.72
X158.5Y-62.26
X158.5Y-64.8
X158.5Y-67.34
X158.5Y-69.88
X158.5Y-72.42
X158.5Y-74.96
X158.5Y-77.5
X158.5Y-80.04
X158.5Y-101.1
X158.5Y-103.64
X158.5Y-106.18
X158.5Y-108.72
X158.5Y-111.26
X158.5Y-113.8
X158.5Y-116.34
X158.5Y-118.88
X158.5Y-121.42
X158.5Y-123.96
X158.5Y-126.5
X158.5Y-129.04
T5
X123.9Y-76.76
X123.9Y-79.3
X123.9Y-81.84
X123.9Y-92.66
X123.9Y-95.2
X123.9Y-97.74
X136.7Y-76.76
X136.7Y-79.3
X136.7Y-81.84
X136.7Y-92.66
X136.7Y-95.2
X136.7Y-97.74
T2
G00X105.7Y-132.22
M15
G01X104.7Y-132.22
M16
G05
G00X105.7Y-135.32
M15
G01X104.7Y-135.32
M16
G05
G00X105.7Y-143.62
M15
G01X104.7Y-143.62
M16
G05
G00X105.7Y-146.12
M15
G01X104.7Y-146.12
M16
G05
G00X105.7Y-149.22
M15
G01X104.7Y-149.22
M16
G05
G00X105.7Y-157.52
M15
G01X104.7Y-157.52
M16
G05
G00X113.72Y-126.1
M15
G01X113.72Y-127.1
M16
G05
G00X115.7Y-132.22
M15
G01X114.7Y-132.22
M16
G05
G00X115.7Y-135.32
M15
G01X114.7Y-135.32
M16
G05
G00X115.7Y-143.62
M15
G01X114.7Y-143.62
M16
G05
G00X115.7Y-146.12
M15
G01X114.7Y-146.12
M16
G05
G00X115.7Y-149.22
M15
G01X114.7Y-149.22
M16
G05
G00X115.7Y-157.52
M15
G01X114.7Y-157.52
M16
G05
G00X116.82Y-126.1
M15
G01X116.82Y-127.1
M16
G05
G00X125.12Y-126.1
M15
G01X125.12Y-127.1
M16
G05
G00X125.7Y-132.12
M15
G01X124.7Y-132.12
M16
G05
G00X125.7Y-135.22
M15
G01X124.7Y-135.22
M16
G05
G00X125.7Y-143.52
M15
G01X124.7Y-143.52
M16
G05
G00X125.7Y-146.12
M15
G01X124.7Y-146.12
M16
G05
G00X125.7Y-149.22
M15
G01X124.7Y-149.22
M16
G05
G00X125.7Y-157.52
M15
G01X124.7Y-157.52
M16
G05
G00X129.8Y-110.58
M15
G01X130.8Y-110.58
M16
G05
G00X129.8Y-118.88
M15
G01X130.8Y-118.88
M16
G05
G00X129.8Y-121.98
M15
G01X130.8Y-121.98
M16
G05
G00X135.7Y-132.12
M15
G01X134.7Y-132.12
M16
G05
G00X135.7Y-135.22
M15
G01X134.7Y-135.22
M16
G05
G00X135.7Y-143.52
M15
G01X134.7Y-143.52
M16
G05
G00X135.7Y-146.12
M15
G01X134.7Y-146.12
M16
G05
G00X135.7Y-149.22
M15
G01X134.7Y-149.22
M16
G05
G00X135.7Y-157.52
M15
G01X134.7Y-157.52
M16
G05
G00X135.38Y-127.1
M15
G01X135.38Y-126.1
M16
G05
G00X143.68Y-127.1
M15
G01X143.68Y-126.1
M16
G05
G00X145.7Y-132.12
M15
G01X144.7Y-132.12
M16
G05
G00X145.7Y-135.22
M15
G01X144.7Y-135.22
M16
G05
G00X145.7Y-143.52
M15
G01X144.7Y-143.52
M16
G05
G00X145.7Y-146.12
M15
G01X144.7Y-146.12
M16
G05
G00X145.7Y-149.22
M15
G01X144.7Y-149.22
M16
G05
G00X145.7Y-157.52
M15
G01X144.7Y-157.52
M16
G05
G00X146.78Y-127.1
M15
G01X146.78Y-126.1
M16
G05
G00X155.7Y-132.12
M15
G01X154.7Y-132.12
M16
G05
G00X155.7Y-135.22
M15
G01X154.7Y-135.22
M16
G05
G00X155.7Y-143.52
M15
G01X154.7Y-143.52
M16
G05
G00X155.7Y-146.12
M15
G01X154.7Y-146.12
M16
G05
G00X155.7Y-149.22
M15
G01X154.7Y-149.22
M16
G05
G00X155.7Y-157.52
M15
G01X154.7Y-157.52
M16
G05
T0
M30
